<?xml version="1.0" encoding="UTF-8" standalone="no"?>
<!-- Created with Inkscape (http://www.inkscape.org/) -->

<svg
   xmlns:dc="http://purl.org/dc/elements/1.1/"
   xmlns:cc="http://creativecommons.org/ns#"
   xmlns:rdf="http://www.w3.org/1999/02/22-rdf-syntax-ns#"
   xmlns:svg="http://www.w3.org/2000/svg"
   xmlns="http://www.w3.org/2000/svg"
   xmlns:xlink="http://www.w3.org/1999/xlink"
   xmlns:sodipodi="http://sodipodi.sourceforge.net/DTD/sodipodi-0.dtd"
   xmlns:inkscape="http://www.inkscape.org/namespaces/inkscape"
   width="128"
   height="128"
   id="svg3593"
   sodipodi:version="0.32"
   inkscape:version="0.47pre4 r22446"
   version="1.0"
   sodipodi:docname="dialog-apply.svg"
   inkscape:output_extension="org.inkscape.output.svg.inkscape">
  <defs
     id="defs3595">
    <linearGradient
       id="linearGradient4095">
      <stop
         id="stop4097"
         offset="0"
         style="stop-color:#f8ead2;stop-opacity:1;" />
      <stop
         style="stop-color:#cfb07f;stop-opacity:1;"
         offset="0.52832711"
         id="stop4099" />
      <stop
         id="stop4101"
         offset="1"
         style="stop-color:#454545;stop-opacity:1;" />
    </linearGradient>
    <linearGradient
       id="linearGradient4085">
      <stop
         style="stop-color:#f8ead2;stop-opacity:1;"
         offset="0"
         id="stop4087" />
      <stop
         id="stop4089"
         offset="0.42573118"
         style="stop-color:#cfb07f;stop-opacity:1;" />
      <stop
         style="stop-color:#454545;stop-opacity:1;"
         offset="1"
         id="stop4091" />
    </linearGradient>
    <linearGradient
       inkscape:collect="always"
       id="linearGradient4075">
      <stop
         style="stop-color:#ffffff;stop-opacity:1;"
         offset="0"
         id="stop4077" />
      <stop
         style="stop-color:#ffffff;stop-opacity:0;"
         offset="1"
         id="stop4079" />
    </linearGradient>
    <linearGradient
       inkscape:collect="always"
       xlink:href="#linearGradient4075"
       id="linearGradient4081"
       x1="3.0342731"
       y1="-85.698273"
       x2="75.894585"
       y2="83.65564"
       gradientUnits="userSpaceOnUse" />
    <linearGradient
       inkscape:collect="always"
       xlink:href="#linearGradient4085"
       id="linearGradient4083"
       gradientUnits="userSpaceOnUse"
       gradientTransform="matrix(1.1441579,0,0,1.1441579,2.4544087,-10.692636)"
       x1="69.733322"
       y1="9.4361057"
       x2="116.82372"
       y2="133.16133" />
    <linearGradient
       inkscape:collect="always"
       xlink:href="#linearGradient4095"
       id="linearGradient4093"
       gradientUnits="userSpaceOnUse"
       x1="97.378098"
       y1="108.48149"
       x2="44.882832"
       y2="12.752525" />
  </defs>
  <sodipodi:namedview
     id="base"
     pagecolor="#6a5a46"
     bordercolor="#666666"
     borderopacity="1.0"
     gridtolerance="10000"
     guidetolerance="10"
     objecttolerance="10"
     inkscape:pageopacity="0"
     inkscape:pageshadow="2"
     inkscape:zoom="0.17677669"
     inkscape:cx="-1109.2177"
     inkscape:cy="46.6298"
     inkscape:document-units="px"
     inkscape:current-layer="layer1"
     showgrid="false"
     inkscape:showpageshadow="false"
     inkscape:window-width="1440"
     inkscape:window-height="852"
     inkscape:window-x="0"
     inkscape:window-y="26"
     inkscape:window-maximized="1" />
  <metadata
     id="metadata3598">
    <rdf:RDF>
      <cc:Work
         rdf:about="">
        <dc:format>image/svg+xml</dc:format>
        <dc:type
           rdf:resource="http://purl.org/dc/dcmitype/StillImage" />
      </cc:Work>
    </rdf:RDF>
  </metadata>
  <g
     inkscape:label="Layer 1"
     inkscape:groupmode="layer"
     id="layer1">
    <path
       style="fill:url(#linearGradient4083);fill-opacity:1;fill-rule:evenodd;stroke:url(#linearGradient4093);stroke-width:2;stroke-linecap:round;stroke-linejoin:round;stroke-miterlimit:4;stroke-opacity:1;marker-mid:none;stroke-dasharray:none"
       d="M 100.96875,10.96875 58.125,90.3125 22,65.4375 c -2.62548,-1.687766 -4.499104,-1.28877 -5.78125,1.65625 L 12,76.5 c -1.211223,2.275629 -0.16802,3.379123 1.15625,4.625 l 46.1875,37.09375 c 2.223444,1.5907 4.310916,1.17687 5.90625,-1.2499 l 50.62505,-99.9375 c 1.06446,-2.43076 -0.0737,-4.415594 -2.31255,-5.5 L 105.59375,9.125 c -1.99474,-0.5460613 -3.4137,0.1147889 -4.625,1.84375 z"
       id="path3771"
       sodipodi:nodetypes="cccccccccccc" />
    <text
       xml:space="preserve"
       style="font-size:16px;font-style:normal;font-variant:normal;font-weight:bold;font-stretch:normal;text-align:start;line-height:125%;writing-mode:lr-tb;text-anchor:start;fill:#000000;fill-opacity:1;stroke:none;stroke-width:1px;stroke-linecap:butt;stroke-linejoin:miter;stroke-opacity:1;font-family:Purisa;-inkscape-font-specification:Purisa Bold"
       x="-161.45073"
       y="9.1614065"
       id="text2404"
       sodipodi:linespacing="125%"><tspan
         sodipodi:role="line"
         id="tspan2406"
         x="-161.45073"
         y="9.1614065" /></text>
    <text
       xml:space="preserve"
       style="font-size:16px;font-style:normal;font-variant:normal;font-weight:bold;font-stretch:normal;text-align:start;line-height:125%;writing-mode:lr-tb;text-anchor:start;fill:#000000;fill-opacity:1;stroke:none;stroke-width:1px;stroke-linecap:butt;stroke-linejoin:miter;stroke-opacity:1;font-family:Purisa;-inkscape-font-specification:Purisa Bold"
       x="44.049271"
       y="72.161407"
       id="text4140"
       sodipodi:linespacing="125%"><tspan
         sodipodi:role="line"
         id="tspan4142"
         x="44.049271"
         y="72.161407" /></text>
    <text
       xml:space="preserve"
       style="font-size:16px;font-style:normal;font-variant:normal;font-weight:bold;font-stretch:normal;text-align:start;line-height:125%;writing-mode:lr-tb;text-anchor:start;fill:#000000;fill-opacity:1;stroke:none;font-family:Purisa;-inkscape-font-specification:Purisa Bold"
       x="-35.970001"
       y="-10.291901"
       id="text2404-2"
       sodipodi:linespacing="125%"><tspan
         sodipodi:role="line"
         id="tspan2406-3"
         x="-35.970001"
         y="-10.291901" /></text>
    <path
       style="fill:url(#linearGradient4081);fill-opacity:1;fill-rule:evenodd;stroke:none;stroke-width:2;marker-mid:none"
       d="M 104.15625 7.9375 C 103.61002 7.953525 103.08452 8.0778779 102.59375 8.28125 C 101.61222 8.6879943 100.83282 9.4405398 100.15625 10.40625 A 0.9998975 0.9998975 0 0 0 100.09375 10.5 L 66.96875 71.875 C 77.951078 67.837104 86.885523 64.724392 94.0625 62.3125 L 116.78125 17.46875 A 0.9998975 0.9998975 0 0 0 116.78125 17.4375 C 117.40611 16.01059 117.42698 14.541068 116.875 13.34375 C 116.32302 12.146432 115.27498 11.24255 114 10.625 A 0.9998975 0.9998975 0 0 0 113.84375 10.5625 L 105.875 8.15625 A 0.9998975 0.9998975 0 0 0 105.84375 8.15625 C 105.26642 7.9982044 104.70248 7.921475 104.15625 7.9375 z M 19.375 63.4375 C 19.031231 63.429805 18.680887 63.471983 18.34375 63.5625 C 16.995203 63.924569 16.018125 65.066717 15.3125 66.6875 L 11.125 76.03125 L 11.09375 76.09375 C 10.432796 77.37055 10.312715 78.586369 10.6875 79.5625 C 11.068961 80.556018 11.794748 81.209647 12.46875 81.84375 A 0.9998975 0.9998975 0 0 0 12.53125 81.90625 L 21.75 89.3125 C 30.112191 85.969427 37.9133 82.878224 45.0625 80.125 L 22.5625 64.625 A 0.9998975 0.9998975 0 0 0 22.53125 64.59375 C 21.455835 63.90243 20.406307 63.460586 19.375 63.4375 z "
       id="path4070" />
  </g>
</svg>
