<?xml version="1.0" encoding="UTF-8" standalone="no"?>
<!-- Created with Inkscape (http://www.inkscape.org/) -->
<svg
   xmlns:dc="http://purl.org/dc/elements/1.1/"
   xmlns:cc="http://creativecommons.org/ns#"
   xmlns:rdf="http://www.w3.org/1999/02/22-rdf-syntax-ns#"
   xmlns:svg="http://www.w3.org/2000/svg"
   xmlns="http://www.w3.org/2000/svg"
   xmlns:xlink="http://www.w3.org/1999/xlink"
   xmlns:sodipodi="http://sodipodi.sourceforge.net/DTD/sodipodi-0.dtd"
   xmlns:inkscape="http://www.inkscape.org/namespaces/inkscape"
   version="1.0"
   width="128"
   height="128"
   id="svg2"
   sodipodi:version="0.32"
   inkscape:version="0.46"
   sodipodi:docname="document-open.svg"
   inkscape:output_extension="org.inkscape.output.svg.inkscape"
   inkscape:export-filename="/home/immanuel/mydata/archive/prj/cream/art/othr/folder.png"
   inkscape:export-xdpi="90"
   inkscape:export-ydpi="90">
  <metadata
     id="metadata40">
    <rdf:RDF>
      <cc:Work
         rdf:about="">
        <dc:format>image/svg+xml</dc:format>
        <dc:type
           rdf:resource="http://purl.org/dc/dcmitype/StillImage" />
      </cc:Work>
    </rdf:RDF>
  </metadata>
  <sodipodi:namedview
     inkscape:window-height="839"
     inkscape:window-width="1440"
     inkscape:pageshadow="2"
     inkscape:pageopacity="0.0"
     guidetolerance="10.0"
     gridtolerance="10.0"
     objecttolerance="10.0"
     borderopacity="1.0"
     bordercolor="#666666"
     pagecolor="#ffffff"
     id="base"
     showgrid="false"
     inkscape:zoom="1.8203125"
     inkscape:cx="128.35781"
     inkscape:cy="76.329359"
     inkscape:window-x="-2"
     inkscape:window-y="-3"
     inkscape:current-layer="svg2"
     showguides="true"
     inkscape:guide-bbox="true"
     inkscape:showpageshadow="false" />
  <defs
     id="defs4">
    <linearGradient
       inkscape:collect="always"
       id="linearGradient3227">
      <stop
         style="stop-color:#ffffff;stop-opacity:1;"
         offset="0"
         id="stop3229" />
      <stop
         style="stop-color:#ffffff;stop-opacity:0;"
         offset="1"
         id="stop3231" />
    </linearGradient>
    <linearGradient
       inkscape:collect="always"
       id="linearGradient3213">
      <stop
         style="stop-color:#ffffff;stop-opacity:1;"
         offset="0"
         id="stop3215" />
      <stop
         style="stop-color:#ffffff;stop-opacity:0;"
         offset="1"
         id="stop3217" />
    </linearGradient>
    <linearGradient
       id="linearGradient3216">
      <stop
         id="stop3218"
         offset="0"
         style="stop-color:#454545;stop-opacity:1;" />
      <stop
         id="stop3220"
         offset="1"
         style="stop-color:#cfb07f;stop-opacity:1;" />
    </linearGradient>
    <linearGradient
       inkscape:collect="always"
       id="linearGradient4852">
      <stop
         style="stop-color:#ffffff;stop-opacity:1;"
         offset="0"
         id="stop4854" />
      <stop
         style="stop-color:#ffffff;stop-opacity:0;"
         offset="1"
         id="stop4856" />
    </linearGradient>
    <linearGradient
       inkscape:collect="always"
       id="linearGradient4844">
      <stop
         style="stop-color:#ffffff;stop-opacity:1;"
         offset="0"
         id="stop4846" />
      <stop
         style="stop-color:#ffffff;stop-opacity:0;"
         offset="1"
         id="stop4848" />
    </linearGradient>
    <linearGradient
       id="linearGradient4704">
      <stop
         id="stop4706"
         offset="0"
         style="stop-color:#787878;stop-opacity:1" />
      <stop
         id="stop4708"
         offset="1"
         style="stop-color:#f0f0f0;stop-opacity:1;" />
    </linearGradient>
    <linearGradient
       inkscape:collect="always"
       id="linearGradient4680">
      <stop
         style="stop-color:#ffffff;stop-opacity:1;"
         offset="0"
         id="stop4682" />
      <stop
         style="stop-color:#ffffff;stop-opacity:0;"
         offset="1"
         id="stop4684" />
    </linearGradient>
    <linearGradient
       id="linearGradient3570">
      <stop
         style="stop-color:#454545;stop-opacity:1;"
         offset="0"
         id="stop3572" />
      <stop
         style="stop-color:#cfb07f;stop-opacity:1;"
         offset="1"
         id="stop3574" />
    </linearGradient>
    <filter
       inkscape:collect="always"
       id="filter3272"
       x="-0.14468358"
       width="1.2893672"
       y="-0.10251119"
       height="1.2050224">
      <feGaussianBlur
         inkscape:collect="always"
         stdDeviation="4.9862543"
         id="feGaussianBlur3274" />
    </filter>
    <linearGradient
       id="linearGradient3290">
      <stop
         style="stop-color:#f0f0f0;stop-opacity:1;"
         offset="0"
         id="stop3292" />
      <stop
         style="stop-color:#454545;stop-opacity:1;"
         offset="1"
         id="stop3294" />
    </linearGradient>
    <linearGradient
       id="linearGradient4261">
      <stop
         style="stop-color: rgb(255, 255, 255); stop-opacity: 1;"
         offset="0"
         id="stop4263" />
      <stop
         style="stop-color: rgb(245, 245, 245); stop-opacity: 1;"
         offset="1"
         id="stop4265" />
    </linearGradient>
    <filter
       inkscape:collect="always"
       id="filter4325">
      <feGaussianBlur
         inkscape:collect="always"
         stdDeviation="1.56"
         id="feGaussianBlur4327" />
    </filter>
    <filter
       inkscape:collect="always"
       id="filter3270"
       x="-0.17145863"
       width="1.3429173"
       y="-0.18944671"
       height="1.3788934">
      <feGaussianBlur
         inkscape:collect="always"
         stdDeviation="1.9824772"
         id="feGaussianBlur3272" />
    </filter>
    <linearGradient
       id="linearGradient3355">
      <stop
         style="stop-color:#efefef;stop-opacity:1;"
         offset="0"
         id="stop3357" />
      <stop
         style="stop-color:#000000;stop-opacity:1;"
         offset="1"
         id="stop3359" />
    </linearGradient>
    <linearGradient
       id="linearGradient3437">
      <stop
         id="stop3439"
         offset="0"
         style="stop-color:#000000;stop-opacity:1;" />
      <stop
         id="stop3441"
         offset="1"
         style="stop-color:#454545;stop-opacity:0;" />
    </linearGradient>
    <linearGradient
       id="linearGradient4293">
      <stop
         id="stop4295"
         offset="0"
         style="stop-color:#ffffff;stop-opacity:1;" />
      <stop
         id="stop4297"
         offset="1"
         style="stop-color:#454545;stop-opacity:1;" />
    </linearGradient>
    <linearGradient
       id="linearGradient3311">
      <stop
         id="stop3313"
         offset="0"
         style="stop-color:#ffffff;stop-opacity:1;" />
      <stop
         id="stop3315"
         offset="1"
         style="stop-color:#454545;stop-opacity:1;" />
    </linearGradient>
    <linearGradient
       inkscape:collect="always"
       xlink:href="#linearGradient3227"
       id="linearGradient2531"
       gradientUnits="userSpaceOnUse"
       x1="286.44193"
       y1="-81.680344"
       x2="197.32954"
       y2="-72.615967" />
    <linearGradient
       inkscape:collect="always"
       xlink:href="#linearGradient4680"
       id="linearGradient2545"
       gradientUnits="userSpaceOnUse"
       gradientTransform="matrix(0.9333832,0,0,1.0001386,1.7348036,-9.0588822e-3)"
       x1="118.24893"
       y1="103.82832"
       x2="33.416534"
       y2="60.158115" />
    <linearGradient
       inkscape:collect="always"
       xlink:href="#linearGradient3213"
       id="linearGradient2547"
       gradientUnits="userSpaceOnUse"
       x1="224.4893"
       y1="-100.45459"
       x2="155.30161"
       y2="-76.282928" />
    <linearGradient
       inkscape:collect="always"
       xlink:href="#linearGradient3570"
       id="linearGradient2554"
       gradientUnits="userSpaceOnUse"
       gradientTransform="matrix(-0.1744068,-0.9333991,0.9699558,-0.1812374,14.637559,151.12032)"
       x1="25.724054"
       y1="-36.316113"
       x2="70.091805"
       y2="111.85777" />
    <linearGradient
       inkscape:collect="always"
       xlink:href="#linearGradient3216"
       id="linearGradient2556"
       gradientUnits="userSpaceOnUse"
       gradientTransform="matrix(-0.1959131,-1.0484979,0.9064671,-0.1693745,20.220948,151.27484)"
       x1="5.0512557"
       y1="-50.678112"
       x2="56.706905"
       y2="169.21651" />
    <linearGradient
       inkscape:collect="always"
       xlink:href="#linearGradient4844"
       id="linearGradient2559"
       gradientUnits="userSpaceOnUse"
       gradientTransform="matrix(-9.366172e-2,-0.5012636,0.9771953,-0.1825902,6.9317069,115.228)"
       x1="79.133331"
       y1="67.605904"
       x2="62.599964"
       y2="67.645416" />
    <linearGradient
       inkscape:collect="always"
       xlink:href="#linearGradient4844"
       id="linearGradient2562"
       gradientUnits="userSpaceOnUse"
       gradientTransform="matrix(-0.1184278,-0.6338077,0.9623025,-0.1798074,9.1279731,120.81708)"
       x1="80.664658"
       y1="67.131317"
       x2="67.541069"
       y2="67.012512" />
    <linearGradient
       inkscape:collect="always"
       xlink:href="#linearGradient4852"
       id="linearGradient2565"
       gradientUnits="userSpaceOnUse"
       gradientTransform="matrix(-0.1091521,-0.5841655,0.9715265,-0.1815309,7.526327,117.34341)"
       x1="89.426865"
       y1="60.789536"
       x2="76.505623"
       y2="60.655159" />
    <linearGradient
       inkscape:collect="always"
       xlink:href="#linearGradient4852"
       id="linearGradient2568"
       gradientUnits="userSpaceOnUse"
       gradientTransform="matrix(-0.1142357,-0.6113724,0.9705116,-0.1813413,6.7673819,114.93158)"
       x1="89.894768"
       y1="60.85693"
       x2="78.014091"
       y2="60.655159" />
    <linearGradient
       inkscape:collect="always"
       xlink:href="#linearGradient4704"
       id="linearGradient2572"
       gradientUnits="userSpaceOnUse"
       gradientTransform="matrix(-0.2095411,-1.1214329,0.9695225,-0.1811565,15.579979,156.00716)"
       x1="126.29183"
       y1="-45.835171"
       x2="60.094196"
       y2="139.93306" />
    <linearGradient
       inkscape:collect="always"
       xlink:href="#linearGradient4704"
       id="linearGradient2574"
       gradientUnits="userSpaceOnUse"
       gradientTransform="matrix(-0.1959131,-1.0484979,0.9064671,-0.1693745,20.220948,151.27484)"
       x1="146.00414"
       y1="-29.415838"
       x2="90.779976"
       y2="126.54825" />
    <linearGradient
       inkscape:collect="always"
       xlink:href="#linearGradient4261"
       id="linearGradient2578"
       gradientUnits="userSpaceOnUse"
       gradientTransform="translate(-0.510725,0.5009)"
       x1="80.149994"
       y1="116.54688"
       x2="31.15"
       y2="7.1500001" />
    <linearGradient
       inkscape:collect="always"
       xlink:href="#linearGradient3290"
       id="linearGradient2580"
       gradientUnits="userSpaceOnUse"
       gradientTransform="translate(695.2823,-104.1509)"
       x1="-748.75928"
       y1="76.191635"
       x2="-524.0368"
       y2="261.26117" />
    <linearGradient
       inkscape:collect="always"
       xlink:href="#linearGradient3355"
       id="linearGradient2582"
       gradientUnits="userSpaceOnUse"
       x1="25.5"
       y1="30.427322"
       x2="25.5"
       y2="22.451797" />
    <linearGradient
       inkscape:collect="always"
       xlink:href="#linearGradient3437"
       id="linearGradient2584"
       gradientUnits="userSpaceOnUse"
       gradientTransform="translate(-0.248662,-0.264287)"
       x1="91.077568"
       y1="99.197289"
       x2="99.272995"
       y2="108.60571" />
    <linearGradient
       inkscape:collect="always"
       xlink:href="#linearGradient3311"
       id="linearGradient2586"
       gradientUnits="userSpaceOnUse"
       gradientTransform="translate(-0.893625,0.12857)"
       x1="95.454636"
       y1="104.94884"
       x2="102.77927"
       y2="116.25995" />
    <linearGradient
       inkscape:collect="always"
       xlink:href="#linearGradient4293"
       id="linearGradient2588"
       gradientUnits="userSpaceOnUse"
       gradientTransform="translate(-0.510725,0.5009)"
       x1="116.47054"
       y1="124.42779"
       x2="84.246452"
       y2="93.052788" />
    <linearGradient
       inkscape:collect="always"
       xlink:href="#linearGradient3355"
       id="linearGradient2590"
       gradientUnits="userSpaceOnUse"
       x1="25.5"
       y1="30.427322"
       x2="25.5"
       y2="22.451797" />
    <linearGradient
       inkscape:collect="always"
       xlink:href="#linearGradient3355"
       id="linearGradient2592"
       gradientUnits="userSpaceOnUse"
       x1="25.5"
       y1="30.427322"
       x2="25.5"
       y2="22.451797" />
    <linearGradient
       inkscape:collect="always"
       xlink:href="#linearGradient3355"
       id="linearGradient2594"
       gradientUnits="userSpaceOnUse"
       x1="25.5"
       y1="30.427322"
       x2="25.5"
       y2="22.451797" />
  </defs>
  <rect
     style="opacity:0.7;fill:#ffffff;fill-opacity:1;fill-rule:nonzero;stroke:none;stroke-width:0.30000001;stroke-linejoin:miter;marker:none;marker-start:none;marker-mid:none;marker-end:none;stroke-miterlimit:4;stroke-dasharray:none;stroke-dashoffset:0;stroke-opacity:1;visibility:visible;display:inline;overflow:visible;enable-background:accumulate"
     id="rect3326"
     y="-5.2811031"
     x="-78.605095"
     ry="0"
     rx="2.451057"
     height="0"
     width="0.71408731"
     transform="matrix(-0.1836724,-0.9829875,0.9829875,-0.1836724,0,0)" />
  <path
     style="opacity:0.3;fill:#454545;fill-opacity:1;stroke:none;stroke-width:0.85484904;stroke-miterlimit:4;stroke-dasharray:none;stroke-opacity:1;filter:url(#filter3272)"
     d="M 95.6875,3.46875 L 27.25,4.4375 C 24.71222,4.2583699 22.65625,6.23111 22.65625,8.90625 L 22.65625,103.375 C 22.65625,104.30681 22.912901,105.12146 23.34375,105.8125 C 23.342728,105.83312 23.34375,105.85412 23.34375,105.875 C 23.36517,105.88434 23.384834,105.8969 23.40625,105.90625 C 24.223156,107.14278 25.637914,107.91744 27.25,108.03125 L 26.350052,110.64322 C 49.627719,121.13183 65.414608,122.52606 65.414608,122.52606 C 66.093168,122.52606 66.633356,121.95462 66.633358,121.27606 L 98.875,119.0625 C 99.722932,118.25048 100.25,117.07372 100.25,115.71875 L 100.25,62.28125 C 105.59592,59.526032 105.375,53.177323 105.375,51.8125 L 105.375,14.375 C 105.375,12.96006 104.06974,11.73801 102.46875,11.625 L 100.25,11.46875 L 100.25,8.625 C 100.25,5.9498803 98.22527,3.64787 95.6875,3.46875 z"
     id="path3266"
     sodipodi:nodetypes="ccccsscccccccccccccc"
     transform="matrix(-0.1704733,-0.9123476,0.9123476,-0.1704733,18.95878,146.39646)" />
  <path
     style="fill:url(#linearGradient2572);fill-opacity:1;stroke:url(#linearGradient2574);stroke-width:0.79341751;stroke-miterlimit:4;stroke-dasharray:none;stroke-opacity:1"
     d="M 14.121687,47.810786 C 12.83077,48.051996 11.925842,49.441253 12.095665,50.921177 L 12.330826,52.970452 L 9.7252157,53.457314 C 7.2845763,53.91335 5.5491255,56.169814 5.8183278,58.515678 L 18.350686,120.78714 C 18.619881,123.13302 20.789421,124.65981 23.230078,124.20377 L 109.40805,108.10131 C 111.8487,107.64527 113.15997,105.46809 112.8908,103.12221 L 112.31429,38.616775 C 112.04512,36.270897 109.87555,34.7441 107.43489,35.200139 L 58.6861,44.308911 C 55.261048,39.901265 49.512246,41.198017 48.267052,41.430683 L 14.121687,47.810786 z"
     id="path2788"
     sodipodi:nodetypes="cccccccccccccc" />
  <path
     d="M 209.9375,-131.78125 L 141.59375,-130.84375 C 141.57292,-130.84298 141.55208,-130.84298 141.53125,-130.84375 C 139.46686,-130.98947 137.84375,-129.42981 137.84375,-127.1875 L 137.84375,-32.75 C 137.84375,-30.507711 139.4903,-29.059157 141.65625,-28.90625 C 141.68748,-28.907985 141.71877,-28.907985 141.75,-28.90625 L 210.0625,-16.75 L 210.15625,-16.75 C 212.17338,-16.660185 213.75,-18.199908 213.75,-20.40625 L 213.75,-73.84375 C 213.75246,-74.162099 213.93367,-74.452034 214.21875,-74.59375 C 219.08651,-77.102531 218.875,-82.856516 218.875,-84.3125 L 218.875,-121.71875 C 218.875,-122.61416 217.94556,-123.57186 216.75,-123.65625 L 214.53125,-123.8125 C 214.09008,-123.84581 213.74933,-124.21383 213.75,-124.65625 L 213.75,-127.5 C 213.75,-129.72012 212.04249,-131.60255 210,-131.78125 C 209.97961,-131.78303 209.95795,-131.77981 209.9375,-131.78125 z"
     id="path3225"
     style="fill:none;fill-opacity:1;stroke:url(#linearGradient2531);stroke-width:0.85484904;stroke-miterlimit:4;stroke-dasharray:none;stroke-opacity:1"
     inkscape:original="M 210 -132.625 L 141.59375 -131.6875 C 139.05597 -131.86664 137 -129.86264 137 -127.1875 L 137 -32.75 C 137 -30.074875 139.05597 -28.241657 141.59375 -28.0625 L 210 -15.90625 C 212.53778 -15.727101 214.59375 -17.731124 214.59375 -20.40625 L 214.59375 -73.84375 C 219.93967 -76.59897 219.71875 -82.947677 219.71875 -84.3125 L 219.71875 -121.71875 C 219.71875 -123.13369 218.41349 -124.38699 216.8125 -124.5 L 214.59375 -124.65625 L 214.59375 -127.5 C 214.59375 -130.17512 212.53777 -132.44588 210 -132.625 z "
     inkscape:radius="-0.84477741"
     sodipodi:type="inkscape:offset"
     transform="matrix(-0.1704733,-0.9123476,0.9123476,-0.1704733,162.63056,227.50692)" />
  <path
     style="opacity:0.55;fill:url(#linearGradient2568);fill-opacity:1;stroke:none;stroke-width:0.36029357;stroke-miterlimit:4;stroke-dasharray:none;stroke-opacity:1"
     d="M 13.506657,58.417323 C 11.446739,58.802222 9.9406754,59.656129 9.8279733,60.391363 L 13.954814,81.3339 C 13.84211,82.069124 13.513517,82.169272 15.573434,81.784373 L 100.3631,65.94132 C 102.42302,65.556422 106.59665,67.315586 106.70935,66.580354 L 107.1043,42.21516 C 107.21704,41.479921 105.82266,41.167964 103.76273,41.552864 L 13.506657,58.417323 z"
     id="path4864"
     sodipodi:nodetypes="ccccccccc" />
  <path
     sodipodi:nodetypes="ccccccccc"
     id="path4840"
     d="M 14.399672,63.263001 C 12.337573,63.648307 10.58942,64.521993 10.470734,65.226563 L 14.459448,85.455337 C 14.340737,86.15993 14.538548,85.933249 16.600646,85.547944 L 101.47895,69.688329 C 103.54103,69.303026 107.93158,71.029088 108.05028,70.324517 L 108.57874,46.894961 C 108.69743,46.19039 107.13954,45.934442 105.07748,46.31974 L 14.399672,63.263001 z"
     style="opacity:0.6;fill:url(#linearGradient2565);fill-opacity:1;stroke:none;stroke-width:0.35236967;stroke-miterlimit:4;stroke-dasharray:none;stroke-opacity:1" />
  <path
     style="opacity:0.65;fill:url(#linearGradient2562);fill-opacity:1;stroke:none;stroke-width:0.34519812;stroke-miterlimit:4;stroke-dasharray:none;stroke-opacity:1"
     d="M 14.91094,68.01905 C 12.836718,68.406621 11.067062,69.259219 10.933693,69.935184 L 14.579027,89.063107 C 14.445675,89.739108 14.784952,89.696901 16.859174,89.30933 L 102.23706,73.356368 C 104.31126,72.968801 109.42876,73.568319 109.56215,72.892341 L 109.81823,51.458485 C 109.95162,50.782518 108.39574,50.551299 106.32155,50.938863 L 14.91094,68.01905 z"
     id="path4842"
     sodipodi:nodetypes="ccccccccc" />
  <g
     transform="matrix(0.7715991,2.6586943e-3,-2.6586943e-3,0.7715991,14.835984,1.9044418)"
     inkscape:label="Layer 1"
     id="g4234">
    <g
       id="g4236"
       transform="translate(-2.5e-6,0)">
      <path
         transform="translate(695.2823,-104.1509)"
         d="M -679.03125,111.90625 L -679.03125,224.125 L -615.75,224.125 C -616.04046,224.36946 -616.21875,224.5 -616.21875,224.5 C -598.50784,216.68948 -587.475,202.63929 -583.625,197.125 C -583.63957,197.09485 -583.64149,197.06139 -583.65625,197.03125 C -583.65625,197.03126 -583.71251,197.05827 -583.71875,197.0625 L -583.71875,111.90625 L -679.03125,111.90625 z"
         id="path4238"
         style="fill:#454545;fill-opacity:1;stroke:none;stroke-width:1.755;stroke-miterlimit:4;stroke-dasharray:none;filter:url(#filter4325)"
         inkscape:original="M -679.03125 111.90625 L -679.03125 224.125 L -615.75 224.125 C -616.04046 224.36946 -616.21875 224.5 -616.21875 224.5 C -598.50784 216.68948 -587.475 202.63929 -583.625 197.125 C -583.63957 197.09485 -583.64149 197.06139 -583.65625 197.03125 C -583.65625 197.03126 -583.71251 197.05827 -583.71875 197.0625 L -583.71875 111.90625 L -679.03125 111.90625 z "
         inkscape:radius="0"
         sodipodi:type="inkscape:offset" />
      <path
         sodipodi:nodetypes="cccccc"
         id="path4240"
         d="M 16.239275,7.7509 L 16.239275,119.96965 L 79.520525,119.96965 C 90.776215,115.65837 103.30761,104.06268 111.64553,92.96965 L 111.55177,7.7509 L 16.239275,7.7509 z"
         style="fill:url(#linearGradient2578);fill-opacity:1;stroke:url(#linearGradient2580);stroke-width:0.2;stroke-miterlimit:4;stroke-dasharray:none;stroke-opacity:1" />
      <path
         transform="matrix(1.22499,0,0,1.22499,-6.124615,-5.771153)"
         sodipodi:type="arc"
         style="fill:url(#linearGradient2582);fill-opacity:1;stroke:#ffffff;stroke-width:0.65306699;stroke-linecap:round;stroke-linejoin:round;stroke-miterlimit:4;stroke-dasharray:none;stroke-opacity:1"
         id="path4242"
         sodipodi:cx="26"
         sodipodi:cy="26.75"
         sodipodi:rx="2.5"
         sodipodi:ry="2.5"
         d="M 28.5,26.75 A 2.5,2.5 0 1 1 23.5,26.75 A 2.5,2.5 0 1 1 28.5,26.75 z" />
      <path
         sodipodi:nodetypes="csccc"
         id="path4244"
         d="M 106.78858,94.536188 C 103.90676,95.54217 100.28128,95.557181 92.0625,97.59375 C 91.736893,97.675421 91.469843,97.907638 91.34375,98.21875 C 87.220954,108.26663 87.106395,113.21512 85.069446,115.91557 C 78.836637,129.80638 128.37547,86.723139 106.78858,94.536188 z"
         style="fill:url(#linearGradient2584);fill-opacity:1;fill-rule:evenodd;stroke:none;stroke-width:1px;stroke-linecap:butt;stroke-linejoin:miter;stroke-opacity:1;filter:url(#filter3270)"
         transform="matrix(1.0131647,0,0,1.0121785,-2.184645,-1.18064)" />
      <path
         sodipodi:nodetypes="cccc"
         id="path4246"
         d="M 91.294195,98.24632 C 89.148525,113.013 79.622325,119.99632 79.622325,119.99632 C 94.107055,114.74905 107.95761,98.56284 111.76073,92.98605 C 105.70102,96.68633 98.419195,97.70005 91.294195,98.24632 z"
         style="fill:url(#linearGradient2586);fill-opacity:1;fill-rule:evenodd;stroke:none;stroke-width:1px;stroke-linecap:butt;stroke-linejoin:miter;stroke-opacity:1" />
      <path
         style="fill:none;fill-opacity:1;fill-rule:evenodd;stroke:url(#linearGradient2588);stroke-width:0.2;stroke-linecap:butt;stroke-linejoin:miter;stroke-miterlimit:4;stroke-dasharray:none;stroke-opacity:1"
         d="M 91.294195,98.24632 C 89.148525,113.013 79.622325,119.99632 79.622325,119.99632 C 94.107055,114.74905 107.95761,98.56284 111.76073,92.98605 C 105.70102,96.68633 98.419195,97.70005 91.294195,98.24632 z"
         id="path4248"
         sodipodi:nodetypes="cccc" />
      <path
         d="M 28.5,26.75 A 2.5,2.5 0 1 1 23.5,26.75 A 2.5,2.5 0 1 1 28.5,26.75 z"
         sodipodi:ry="2.5"
         sodipodi:rx="2.5"
         sodipodi:cy="26.75"
         sodipodi:cx="26"
         id="path4250"
         style="fill:url(#linearGradient2590);fill-opacity:1;stroke:#ffffff;stroke-width:0.65306699;stroke-linecap:round;stroke-linejoin:round;stroke-miterlimit:4;stroke-dasharray:none;stroke-opacity:1"
         sodipodi:type="arc"
         transform="matrix(1.22499,0,0,1.22499,-6.124615,18.2527)" />
      <path
         transform="matrix(1.22499,0,0,1.22499,-6.124615,44.1301)"
         sodipodi:type="arc"
         style="fill:url(#linearGradient2592);fill-opacity:1;stroke:#ffffff;stroke-width:0.65306699;stroke-linecap:round;stroke-linejoin:round;stroke-miterlimit:4;stroke-dasharray:none;stroke-opacity:1"
         id="path4252"
         sodipodi:cx="26"
         sodipodi:cy="26.75"
         sodipodi:rx="2.5"
         sodipodi:ry="2.5"
         d="M 28.5,26.75 A 2.5,2.5 0 1 1 23.5,26.75 A 2.5,2.5 0 1 1 28.5,26.75 z" />
      <path
         d="M 28.5,26.75 A 2.5,2.5 0 1 1 23.5,26.75 A 2.5,2.5 0 1 1 28.5,26.75 z"
         sodipodi:ry="2.5"
         sodipodi:rx="2.5"
         sodipodi:cy="26.75"
         sodipodi:cx="26"
         id="path4254"
         style="fill:url(#linearGradient2594);fill-opacity:1;stroke:#ffffff;stroke-width:0.65306699;stroke-linecap:round;stroke-linejoin:round;stroke-miterlimit:4;stroke-dasharray:none;stroke-opacity:1"
         sodipodi:type="arc"
         transform="matrix(1.22499,0,0,1.22499,-6.124615,69.0253)" />
    </g>
  </g>
  <path
     sodipodi:nodetypes="ccccccccs"
     id="path4860"
     d="M 14.536749,72.904839 C 12.430444,73.298405 11.270838,73.927865 11.109013,74.473012 L 14.537238,89.407262 C 14.375417,89.952428 13.895302,90.15058 16.001622,89.757012 L 102.70082,73.55716 C 104.80711,73.163595 110.79512,73.835801 110.95696,73.29065 L 111.22985,55.76531 C 111.39173,55.220153 109.83293,55.09863 107.72663,55.492193 L 14.536749,72.904839 z"
     style="opacity:0.65;fill:url(#linearGradient2559);fill-opacity:1;stroke:none;stroke-width:0.30935526;stroke-miterlimit:4;stroke-dasharray:none;stroke-opacity:1" />
  <path
     style="fill:url(#linearGradient2554);fill-opacity:1;stroke:url(#linearGradient2556);stroke-width:0.79341751;stroke-miterlimit:4;stroke-dasharray:none;stroke-opacity:1"
     d="M 12.825326,78.864952 C 10.486761,79.301916 8.6124779,80.792429 8.6129711,82.214822 L 17.28751,122.77924 C 17.288011,124.20162 19.163072,124.99154 21.501647,124.55458 L 109.25234,108.15826 C 111.5909,107.72129 113.46518,106.2308 113.46469,104.80841 L 122.11028,61.007708 C 122.10981,59.585313 120.23472,58.795374 117.89617,59.232334 L 12.825326,78.864952 z"
     id="rect2781"
     sodipodi:nodetypes="ccccccccc" />
  <path
     sodipodi:type="inkscape:offset"
     inkscape:radius="0.27681571"
     inkscape:original="M 67.40625 7.65625 C 45.880415 40.803225 33.211418 78.276048 26.25 104.5 C 26.353508 104.89101 26.470336 105.26349 26.625 105.59375 C 27.041098 106.48223 27.64022 107.10359 28.34375 107.28125 L 28.34375 107.3125 L 65.90625 124.0625 C 65.925605 124.0653 65.949393 124.0653 65.96875 124.0625 C 66.699944 124.21519 67.371936 123.78296 67.8125 123.03125 C 68.253062 122.27953 68.46875 121.20952 68.46875 119.96875 L 68.46875 11.625 C 68.468749 10.38422 68.241398 9.2201511 67.8125 8.3125 C 67.698597 8.0714608 67.545576 7.8573675 67.40625 7.65625 z "
     style="fill:url(#linearGradient2545);fill-opacity:1;stroke:none;stroke-width:0.47990996;stroke-miterlimit:4;stroke-dasharray:none;stroke-opacity:1"
     id="path4804"
     d="M 67.34375,7.375 C 67.277904,7.3957286 67.222177,7.4403098 67.1875,7.5 C 45.636784,40.685289 32.934758,78.196256 25.96875,104.4375 C 25.968162,104.44791 25.968162,104.45834 25.96875,104.46875 C 25.96342,104.49977 25.96342,104.53148 25.96875,104.5625 C 26.074315,104.96128 26.209139,105.36458 26.375,105.71875 C 26.784737,106.59365 27.383092,107.24855 28.125,107.5 C 28.133871,107.50301 28.147336,107.49711 28.15625,107.5 C 28.155662,107.51041 28.155662,107.52084 28.15625,107.53125 C 28.165182,107.53409 28.178526,107.52853 28.1875,107.53125 C 28.197067,107.54248 28.207517,107.55293 28.21875,107.5625 L 65.78125,124.3125 C 65.810373,124.32845 65.842129,124.33904 65.875,124.34375 C 65.887791,124.3456 65.894558,124.34282 65.90625,124.34375 C 65.941325,124.34653 65.961631,124.3493 66,124.34375 C 66.828599,124.46752 67.601224,123.9433 68.0625,123.15625 C 68.541075,122.33967 68.75,121.2416 68.75,119.96875 L 68.75,11.625 C 68.749999,10.350406 68.514314,9.1436468 68.0625,8.1875 C 67.934732,7.9171201 67.762664,7.698719 67.625,7.5 C 67.607648,7.4759539 67.586546,7.4548517 67.5625,7.4375 C 67.526864,7.4063195 67.483826,7.3848005 67.4375,7.375 C 67.406477,7.3696703 67.374773,7.3696703 67.34375,7.375 L 67.34375,7.375 z"
     transform="matrix(-0.202861,-1.0856818,0.969655,-0.1811812,15.398278,155.08266)" />
  <path
     d="M 184.1875,-133.5 L 139.71875,-132.34375 C 139.65643,-132.33705 139.59357,-132.33705 139.53125,-132.34375 C 139.15943,-132.41309 138.8643,-132.30305 138.5,-131.75 C 138.1357,-131.19695 137.84375,-130.23709 137.84375,-129.09375 L 137.84375,-32.90625 C 137.84375,-31.76292 138.11839,-30.684069 138.53125,-29.90625 C 138.94411,-29.128431 139.46934,-28.72608 139.84375,-28.65625 C 139.89772,-28.640472 139.95004,-28.619542 140,-28.59375 L 184.5,-10.84375 C 184.87758,-10.77333 185.16916,-10.893559 185.53125,-11.4375 C 185.89334,-11.981441 186.1875,-12.919167 186.1875,-14.0625 L 186.1875,-129.25 C 186.1875,-130.39333 185.91286,-131.47218 185.5,-132.25 C 185.08714,-133.02782 184.56191,-133.43018 184.1875,-133.5 z"
     id="path2441"
     style="opacity:0.5;fill:none;fill-opacity:1;stroke:url(#linearGradient2547);stroke-width:0.85484904;stroke-miterlimit:4;stroke-dasharray:none;stroke-opacity:1"
     inkscape:original="M 184.34375 -134.375 L 139.6875 -133.21875 C 138.18096 -133.4997 136.96875 -131.657 136.96875 -129.09375 L 136.96875 -32.90625 C 136.96874 -30.343017 138.18096 -28.062227 139.6875 -27.78125 L 184.34375 -9.96875 C 185.8503 -9.6877717 187.0625 -11.499268 187.0625 -14.0625 L 187.0625 -129.25 C 187.0625 -131.81323 185.8503 -134.09404 184.34375 -134.375 z "
     inkscape:radius="-0.87720889"
     sodipodi:type="inkscape:offset"
     transform="matrix(-0.1704733,-0.9123476,0.9123476,-0.1704733,162.63056,227.50692)" />
  <text
     xml:space="preserve"
     style="font-size:15.99555492px;font-style:normal;font-variant:normal;font-weight:bold;font-stretch:normal;text-align:start;line-height:125%;writing-mode:lr-tb;text-anchor:start;fill:#000000;fill-opacity:1;stroke:none;stroke-width:1px;stroke-linecap:butt;stroke-linejoin:miter;stroke-opacity:1;font-family:Purisa;-inkscape-font-specification:Purisa Bold"
     x="-1.5446272"
     y="5.884449"
     id="text2404"
     sodipodi:linespacing="125%"
     transform="matrix(-0.1836724,-0.9829875,0.9829875,-0.1836724,0,0)"><tspan
       sodipodi:role="line"
       id="tspan2406"
       x="-1.5446272"
       y="5.884449" /></text>
</svg>
