<?xml version="1.0" encoding="UTF-8" standalone="no"?>
<!-- Created with Inkscape (http://www.inkscape.org/) -->
<svg
   xmlns:dc="http://purl.org/dc/elements/1.1/"
   xmlns:cc="http://creativecommons.org/ns#"
   xmlns:rdf="http://www.w3.org/1999/02/22-rdf-syntax-ns#"
   xmlns:svg="http://www.w3.org/2000/svg"
   xmlns="http://www.w3.org/2000/svg"
   xmlns:xlink="http://www.w3.org/1999/xlink"
   xmlns:sodipodi="http://sodipodi.sourceforge.net/DTD/sodipodi-0.dtd"
   xmlns:inkscape="http://www.inkscape.org/namespaces/inkscape"
   width="128"
   height="128"
   id="svg3593"
   sodipodi:version="0.32"
   inkscape:version="0.46"
   version="1.0"
   sodipodi:docname="edit-undo.svg"
   inkscape:output_extension="org.inkscape.output.svg.inkscape">
  <defs
     id="defs3595">
    <linearGradient
       id="linearGradient3331">
      <stop
         style="stop-color:#f8ead2;stop-opacity:1;"
         offset="0"
         id="stop3333" />
      <stop
         id="stop3335"
         offset="0.29375818"
         style="stop-color:#cfb07f;stop-opacity:1;" />
      <stop
         style="stop-color:#454545;stop-opacity:1;"
         offset="1"
         id="stop3337" />
    </linearGradient>
    <linearGradient
       inkscape:collect="always"
       id="linearGradient3311">
      <stop
         style="stop-color:#ffffff;stop-opacity:1;"
         offset="0"
         id="stop3313" />
      <stop
         style="stop-color:#ffffff;stop-opacity:0;"
         offset="1"
         id="stop3315" />
    </linearGradient>
    <linearGradient
       id="linearGradient3287">
      <stop
         id="stop3289"
         offset="0"
         style="stop-color:#f8ead2;stop-opacity:1;" />
      <stop
         style="stop-color:#cfb07f;stop-opacity:1;"
         offset="0.22329642"
         id="stop3291" />
      <stop
         id="stop3293"
         offset="1"
         style="stop-color:#454545;stop-opacity:1;" />
    </linearGradient>
    <linearGradient
       inkscape:collect="always"
       xlink:href="#linearGradient3287"
       id="linearGradient3285"
       gradientUnits="userSpaceOnUse"
       gradientTransform="matrix(-0.3806713,1.0452678,1.0231917,0.369625,36.187875,-29.847274)"
       x1="52.040398"
       y1="16.741436"
       x2="154.97189"
       y2="141.8627" />
    <linearGradient
       inkscape:collect="always"
       xlink:href="#linearGradient3311"
       id="linearGradient3321"
       gradientUnits="userSpaceOnUse"
       x1="96.802773"
       y1="14.14647"
       x2="42.938618"
       y2="65.500122" />
    <linearGradient
       inkscape:collect="always"
       xlink:href="#linearGradient3331"
       id="linearGradient3329"
       x1="-10.247232"
       y1="3.8744636"
       x2="147.41621"
       y2="252.60368"
       gradientUnits="userSpaceOnUse" />
  </defs>
  <sodipodi:namedview
     id="base"
     pagecolor="#eeeae5"
     bordercolor="#666666"
     borderopacity="1.0"
     gridtolerance="10000"
     guidetolerance="10"
     objecttolerance="10"
     inkscape:pageopacity="0"
     inkscape:pageshadow="2"
     inkscape:zoom="5.8671875"
     inkscape:cx="30.89515"
     inkscape:cy="60.021023"
     inkscape:document-units="px"
     inkscape:current-layer="g2818"
     showgrid="false"
     inkscape:showpageshadow="false"
     inkscape:window-width="1600"
     inkscape:window-height="1136"
     inkscape:window-x="-5"
     inkscape:window-y="-3" />
  <metadata
     id="metadata3598">
    <rdf:RDF>
      <cc:Work
         rdf:about="">
        <dc:format>image/svg+xml</dc:format>
        <dc:type
           rdf:resource="http://purl.org/dc/dcmitype/StillImage" />
      </cc:Work>
    </rdf:RDF>
  </metadata>
  <g
     inkscape:label="Layer 1"
     inkscape:groupmode="layer"
     id="layer1">
    <g
       id="g2818"
       transform="matrix(0.9634486,0,0,0.9634486,-0.88455,2.9995118)"
       style="fill:#808080">
      <path
         id="path4474"
         d="M 92.411465,114.00534 C 102.79163,89.335611 101.79344,69.41277 82.666574,60.762036 C 68.793745,54.487302 51.112098,55.909872 51.112098,55.909872 C 51.112098,55.909872 50.542773,84.399345 50.542773,84.399345 C 50.542773,84.399345 18.741784,41.072632 18.741784,41.072632 C 18.741784,41.072632 52.494738,-1.3145746 52.494738,-1.3145746 C 52.494738,-1.3145746 51.869926,27.299476 51.869926,27.299476 C 51.869926,27.299476 82.487859,26.346574 98.461264,41.183885 C 120.1947,60.710284 122.03034,86.257244 101.9581,113.52326 C 101.95808,113.52324 76.872424,145.64621 92.411465,114.00534 z"
         style="fill:url(#linearGradient3285);fill-opacity:1;fill-rule:nonzero;stroke:url(#linearGradient3329);stroke-width:2.07587617999999985;stroke-linejoin:round;marker:none;marker-start:none;marker-mid:none;marker-end:none;stroke-miterlimit:4;stroke-dasharray:none;stroke-dashoffset:0;stroke-opacity:1;visibility:visible;display:inline;overflow:visible;enable-background:accumulate"
         sodipodi:nodetypes="cccccccccc" />
      <path
         style="opacity:0.75000000000000000;fill:url(#linearGradient3321);fill-opacity:1;fill-rule:nonzero;stroke:none;stroke-width:2.88679050999999998;stroke-linejoin:round;marker:none;marker-start:none;marker-mid:none;marker-end:none;stroke-miterlimit:4;stroke-dasharray:none;stroke-dashoffset:0;stroke-opacity:1;visibility:visible;display:inline;overflow:visible;enable-background:accumulate"
         d="M 49.5625 0.6875 C 49.29707 0.71617113 49.062769 0.85925393 48.875 1.09375 C 48.875 1.0937501 16.34375 41.90625 16.34375 41.90625 C 16.297994 41.963817 16.314573 42.030005 16.28125 42.09375 C 45.478593 36.949851 75.129161 41.580334 91.125 55.84375 C 99.174388 63.021353 103.75359 72.639692 103 84.625 C 102.25133 96.532038 96.243001 110.77088 83.3125 127.25 C 83.993706 127.47926 84.416761 127.26254 84.90625 127.03125 C 85.839232 126.5904 86.795725 125.82684 87.875 124.8125 C 92.183415 120.76331 98.1875 113 98.1875 113 C 98.196291 112.98806 98.209969 112.98069 98.21875 112.96875 C 107.97198 99.707751 112.47131 86.767628 111.8125 74.6875 C 111.15314 62.597157 105.31552 51.454998 94.6875 41.90625 C 86.737478 34.521668 75.343984 31.198068 65.9375 29.625 C 57.914056 28.283221 52.275264 28.291048 50.5 28.3125 C 50.407978 28.315387 50.315102 28.283852 50.25 28.21875 C 50.184899 28.153648 50.153363 28.060773 50.15625 27.96875 C 50.210848 25.468163 50.75 1.75 50.75 1.75 C 50.757735 1.4580495 50.643573 1.1874593 50.40625 0.96875 C 50.179051 0.75937038 49.855671 0.65569119 49.5625 0.6875 z "
         transform="matrix(1.0379381,0,0,1.0379381,0.9181081,-3.1133075)"
         id="path3319" />
    </g>
    <text
       xml:space="preserve"
       style="font-size:16px;font-style:normal;font-variant:normal;font-weight:bold;font-stretch:normal;text-align:start;line-height:125%;writing-mode:lr-tb;text-anchor:start;fill:#000000;fill-opacity:1;stroke:none;stroke-width:1px;stroke-linecap:butt;stroke-linejoin:miter;stroke-opacity:1;font-family:Purisa;-inkscape-font-specification:Purisa Bold"
       x="-161.45073"
       y="9.1614065"
       id="text2404"
       sodipodi:linespacing="125%"><tspan
         sodipodi:role="line"
         id="tspan2406"
         x="-161.45073"
         y="9.1614065" /></text>
  </g>
</svg>
