<?xml version="1.0" encoding="UTF-8" standalone="no"?>
<!-- Created with Inkscape (http://www.inkscape.org/) -->

<svg
   xmlns:dc="http://purl.org/dc/elements/1.1/"
   xmlns:cc="http://creativecommons.org/ns#"
   xmlns:rdf="http://www.w3.org/1999/02/22-rdf-syntax-ns#"
   xmlns:svg="http://www.w3.org/2000/svg"
   xmlns="http://www.w3.org/2000/svg"
   xmlns:xlink="http://www.w3.org/1999/xlink"
   xmlns:sodipodi="http://sodipodi.sourceforge.net/DTD/sodipodi-0.dtd"
   xmlns:inkscape="http://www.inkscape.org/namespaces/inkscape"
   width="128"
   height="128"
   id="svg2409"
   sodipodi:version="0.32"
   inkscape:version="0.47 r22583"
   version="1.0"
   sodipodi:docname="go-home.svg"
   inkscape:output_extension="org.inkscape.output.svg.inkscape"
   inkscape:export-filename="/home/immanuel/mydata/archive/prj/cream/art/othr/gohome.png"
   inkscape:export-xdpi="90"
   inkscape:export-ydpi="90">
  <defs
     id="defs2411">
    <linearGradient
       id="linearGradient3654">
      <stop
         style="stop-color:#f8ead2;stop-opacity:1;"
         offset="0"
         id="stop3656" />
      <stop
         id="stop3658"
         offset="0.51788354"
         style="stop-color:#cfb07f;stop-opacity:1;" />
      <stop
         style="stop-color:#454545;stop-opacity:1;"
         offset="1"
         id="stop3660" />
    </linearGradient>
    <linearGradient
       id="linearGradient3267">
      <stop
         id="stop3269"
         offset="0"
         style="stop-color:#f8ead2;stop-opacity:1;" />
      <stop
         style="stop-color:#cfb07f;stop-opacity:1;"
         offset="0.61404079"
         id="stop3271" />
      <stop
         id="stop3273"
         offset="1"
         style="stop-color:#454545;stop-opacity:1;" />
    </linearGradient>
    <linearGradient
       inkscape:collect="always"
       id="linearGradient2552">
      <stop
         style="stop-color:#ffffff;stop-opacity:1;"
         offset="0"
         id="stop2555" />
      <stop
         style="stop-color:#ffffff;stop-opacity:0;"
         offset="1"
         id="stop2557" />
    </linearGradient>
    <linearGradient
       id="linearGradient3210">
      <stop
         style="stop-color: rgb(220, 194, 155); stop-opacity: 1;"
         offset="0"
         id="stop3212" />
      <stop
         id="stop3218"
         offset="0.5"
         style="stop-color: rgb(243, 234, 216); stop-opacity: 1;" />
      <stop
         style="stop-color: rgb(220, 194, 155); stop-opacity: 1;"
         offset="1"
         id="stop3214" />
    </linearGradient>
    <linearGradient
       id="linearGradient3276">
      <stop
         style="stop-color:#f8ead2;stop-opacity:1;"
         offset="0"
         id="stop3279" />
      <stop
         id="stop3281"
         offset="0.47171208"
         style="stop-color:#cfb07f;stop-opacity:1;" />
      <stop
         style="stop-color:#454545;stop-opacity:1;"
         offset="1"
         id="stop3283" />
    </linearGradient>
    <filter
       inkscape:collect="always"
       id="filter3225"
       x="-0.11672715"
       width="1.2334543"
       y="-0.12346167"
       height="1.2469233">
      <feGaussianBlur
         inkscape:collect="always"
         stdDeviation="3.0520531"
         id="feGaussianBlur3227" />
    </filter>
    <linearGradient
       inkscape:collect="always"
       xlink:href="#linearGradient3210"
       id="linearGradient2498"
       gradientUnits="userSpaceOnUse"
       gradientTransform="matrix(-1.29644,0,0,-1.29644,144.56449,150.30586)"
       x1="-67.309868"
       y1="66.571426"
       x2="186.18846"
       y2="66.571426" />
    <linearGradient
       inkscape:collect="always"
       xlink:href="#linearGradient3276"
       id="linearGradient2500"
       gradientUnits="userSpaceOnUse"
       gradientTransform="matrix(1.0544382,0,0,1.2302613,-1.7420263,-7.3683613)"
       x1="30.890146"
       y1="15.680828"
       x2="30.890146"
       y2="56.04705" />
    <linearGradient
       inkscape:collect="always"
       xlink:href="#linearGradient3267"
       id="linearGradient2542"
       gradientUnits="userSpaceOnUse"
       gradientTransform="matrix(1.4792992,0,0,1.7259661,16.661931,4.4253966)"
       x1="30.890146"
       y1="-14.221789"
       x2="30.890146"
       y2="68.814636" />
    <linearGradient
       inkscape:collect="always"
       xlink:href="#linearGradient2552"
       id="linearGradient2559"
       x1="66.5"
       y1="-5.4871683"
       x2="77.837769"
       y2="90.070702"
       gradientUnits="userSpaceOnUse" />
    <linearGradient
       inkscape:collect="always"
       xlink:href="#linearGradient2552"
       id="linearGradient3623"
       x1="22.174297"
       y1="62.000065"
       x2="105.82473"
       y2="62.000065"
       gradientUnits="userSpaceOnUse" />
    <linearGradient
       inkscape:collect="always"
       xlink:href="#linearGradient2552"
       id="linearGradient3627"
       gradientUnits="userSpaceOnUse"
       x1="113.97118"
       y1="122.93757"
       x2="37.07473"
       y2="-3.2343104" />
    <linearGradient
       inkscape:collect="always"
       xlink:href="#linearGradient2552"
       id="linearGradient3631"
       gradientUnits="userSpaceOnUse"
       x1="25.96875"
       y1="62.140625"
       x2="118.83395"
       y2="99.9375" />
    <filter
       inkscape:collect="always"
       id="filter3635">
      <feGaussianBlur
         inkscape:collect="always"
         stdDeviation="2.7943648"
         id="feGaussianBlur3637" />
    </filter>
    <linearGradient
       inkscape:collect="always"
       xlink:href="#linearGradient3654"
       id="linearGradient3646"
       gradientUnits="userSpaceOnUse"
       gradientTransform="matrix(1.4792992,0,0,1.7259661,16.661931,4.4253966)"
       x1="30.890146"
       y1="-14.221789"
       x2="61.730587"
       y2="77.414894" />
    <linearGradient
       inkscape:collect="always"
       xlink:href="#linearGradient2552"
       id="linearGradient3648"
       gradientUnits="userSpaceOnUse"
       x1="66.5"
       y1="-5.4871683"
       x2="77.837769"
       y2="90.070702" />
    <linearGradient
       inkscape:collect="always"
       xlink:href="#linearGradient2552"
       id="linearGradient3650"
       gradientUnits="userSpaceOnUse"
       x1="115.0219"
       y1="121.88686"
       x2="26.70475"
       y2="-18.732319" />
    <linearGradient
       inkscape:collect="always"
       xlink:href="#linearGradient2552"
       id="linearGradient3652"
       gradientUnits="userSpaceOnUse"
       x1="25.96875"
       y1="62.140625"
       x2="110.47749"
       y2="99.9375" />
  </defs>
  <sodipodi:namedview
     id="base"
     pagecolor="#ffffff"
     bordercolor="#666666"
     borderopacity="1.0"
     inkscape:pageopacity="0.0"
     inkscape:pageshadow="2"
     inkscape:zoom="3.6203867"
     inkscape:cx="70.507283"
     inkscape:cy="58.378965"
     inkscape:document-units="px"
     inkscape:current-layer="g3639"
     showgrid="false"
     inkscape:showpageshadow="false"
     inkscape:window-width="1024"
     inkscape:window-height="718"
     inkscape:window-x="0"
     inkscape:window-y="26"
     showguides="true"
     inkscape:guide-bbox="true"
     inkscape:window-maximized="1" />
  <metadata
     id="metadata2414">
    <rdf:RDF>
      <cc:Work
         rdf:about="">
        <dc:format>image/svg+xml</dc:format>
        <dc:type
           rdf:resource="http://purl.org/dc/dcmitype/StillImage" />
      </cc:Work>
    </rdf:RDF>
  </metadata>
  <g
     inkscape:label="Ebene 1"
     inkscape:groupmode="layer"
     id="layer1">
    <rect
       style="opacity:0.7;fill:#ffffff;fill-opacity:1;fill-rule:nonzero;stroke:#b8956b;stroke-width:1.60063994;stroke-linejoin:miter;marker:none;marker-start:none;marker-mid:none;marker-end:none;stroke-miterlimit:4;stroke-dasharray:none;stroke-dashoffset:0;stroke-opacity:1;visibility:visible;display:inline;overflow:visible;enable-background:accumulate"
       id="rect3326"
       width="0.95298421"
       height="0"
       x="83.411629"
       y="224.1064"
       rx="3.2710547"
       ry="0" />
    <rect
       ry="0"
       rx="3.2710547"
       y="224.1064"
       x="83.411629"
       height="0"
       width="0.95298421"
       id="rect2514"
       style="opacity:0.7;fill:#ffffff;fill-opacity:1;fill-rule:nonzero;stroke:#b8956b;stroke-width:1.60063994;stroke-linejoin:miter;marker:none;marker-start:none;marker-mid:none;marker-end:none;stroke-miterlimit:4;stroke-dasharray:none;stroke-dashoffset:0;stroke-opacity:1;visibility:visible;display:inline;overflow:visible;enable-background:accumulate" />
    <g
       id="g3639"
       transform="translate(4.8806876e-4,4.343688)">
      <path
         transform="matrix(1.0515288,0,0,1.0515288,-3.2978197,-5.5385404)"
         sodipodi:nodetypes="ccccccccccccccccccc"
         id="path3633"
         d="m 64.219329,23.222287 -20.662496,15.490594 -20.618536,15.490594 9.144255,0 0,46.574365 7.276511,0 0,-35.187241 20.266833,0 0,35.187241 36.246619,0 0,-46.420485 9.188215,0 L 84.618051,38.764175 64.219329,23.222287 z m 3.429097,42.368312 20.618533,0 0,23.646237 -20.618533,0 0,-23.646237 z"
         style="opacity:0.95;fill:#454545;fill-opacity:1;fill-rule:nonzero;stroke:none;stroke-width:1.528;marker:none;visibility:visible;display:inline;overflow:visible;filter:url(#filter3635);enable-background:accumulate" />
      <path
         style="opacity:0.94999999999999996;fill:url(#linearGradient3646);fill-opacity:1;fill-rule:nonzero;stroke:#886839;stroke-width:1.60673606000000002;stroke-linecap:round;stroke-linejoin:round;stroke-miterlimit:4;stroke-opacity:1;stroke-dasharray:none;stroke-dashoffset:0;marker:none;visibility:visible;display:inline;overflow:visible;enable-background:accumulate"
         d="m 64.230656,18.880364 -21.72721,16.288806 -21.680985,16.288806 9.615448,0 0,48.974284 7.651461,0 0,-37.000395 21.311159,0 0,37.000395 38.114364,0 0,-48.812475 9.661677,0 L 85.6805,35.223107 64.230656,18.880364 z m 3.605794,44.551501 21.680982,0 0,24.8647 -21.680982,0 0,-24.8647 z"
         id="path3518"
         sodipodi:nodetypes="ccccccccccccccccccc" />
      <path
         transform="matrix(1.0515288,0,0,1.0515288,-3.2978197,-5.5385404)"
         d="M 64.1875,22.4375 A 0.77395847,0.77395847 0 0 0 63.75,22.59375 l -20.65625,15.5 -20.625,15.5 A 0.77395847,0.77395847 0 0 0 22.9375,55 l 8.375,0 0,24 a 0.77395847,0.77395847 0 0 0 0.96875,0.75 C 34.612693,79.128508 37.010637,78.512652 39.5,77.96875 a 0.77395847,0.77395847 0 0 0 0.625,-0.75 l 0,-10.84375 18.71875,0 0,7.34375 a 0.77395847,0.77395847 0 0 0 0.875,0.78125 c 2.673899,-0.368924 5.356372,-0.718944 8.03125,-1.03125 a 0.77395847,0.77395847 0 0 0 0.6875,-0.78125 l 0,-6.3125 19.0625,0 0,4.375 a 0.77395847,0.77395847 0 0 0 0.84375,0.78125 C 90.960287,71.334598 93.497911,71.152697 95.9375,71 a 0.77395847,0.77395847 0 0 0 0.71875,-0.78125 l 0,-15.09375 8.40625,0 a 0.77395847,0.77395847 0 0 0 0.46875,-1.40625 L 85.09375,38.125 64.6875,22.59375 a 0.77395847,0.77395847 0 0 0 -0.5,-0.15625 z"
         id="path2550"
         style="fill:url(#linearGradient3648);fill-opacity:1;fill-rule:nonzero;stroke:none;stroke-width:1.60063994;marker:none;visibility:visible;display:inline;overflow:visible;enable-background:accumulate"
         inkscape:original="M 64.21875 23.21875 L 43.5625 38.71875 L 22.9375 54.21875 L 32.09375 54.21875 L 32.09375 79 C 34.431348 78.376867 36.838105 77.766209 39.34375 77.21875 L 39.34375 65.59375 L 59.625 65.59375 L 59.625 73.71875 C 62.302634 73.349311 64.974445 73.000615 67.65625 72.6875 L 67.65625 65.59375 L 88.28125 65.59375 L 88.28125 70.75 C 90.899499 70.553219 93.430576 70.37175 95.875 70.21875 L 95.875 54.34375 L 105.0625 54.34375 L 84.625 38.75 L 64.21875 23.21875 z "
         inkscape:radius="0.77388108"
         sodipodi:type="inkscape:offset" />
      <path
         transform="matrix(1.0515288,0,0,1.0515288,-3.2978197,-5.5385404)"
         d="m 64.21875,25.125 -19.75,14.8125 -17,12.78125 4.625,0 a 1.5135337,1.5135337 0 0 1 1.5,1.5 l 0,45.0625 4.25,0 0,-33.6875 a 1.5135337,1.5135337 0 0 1 1.5,-1.5 l 20.28125,0 a 1.5135337,1.5135337 0 0 1 1.5,1.5 l 0,33.6875 33.25,0 0,-44.9375 a 1.5135337,1.5135337 0 0 1 1.5,-1.5 l 4.71875,0 -16.875,-12.875 -19.5,-14.84375 z m 3.1875,38.96875 a 1.5135337,1.5135337 0 0 1 0.25,0 l 20.625,0 a 1.5135337,1.5135337 0 0 1 1.5,1.5 l 0,23.65625 a 1.5135337,1.5135337 0 0 1 -1.5,1.5 l -20.625,0 a 1.5135337,1.5135337 0 0 1 -1.5,-1.5 l 0,-23.65625 a 1.5135337,1.5135337 0 0 1 1.25,-1.5 z"
         id="path3625"
         style="opacity:0.94999999999999996;fill:none;stroke:url(#linearGradient3650);stroke-width:1.52800000000000002;stroke-linecap:round;stroke-linejoin:round;stroke-miterlimit:4;stroke-opacity:1;stroke-dasharray:none;stroke-dashoffset:0;marker:none;visibility:visible;display:inline;overflow:visible;enable-background:accumulate"
         inkscape:original="M 64.21875 23.21875 L 43.5625 38.71875 L 22.9375 54.21875 L 32.09375 54.21875 L 32.09375 100.78125 L 39.34375 100.78125 L 39.34375 65.59375 L 59.625 65.59375 L 59.625 100.78125 L 95.875 100.78125 L 95.875 54.34375 L 105.0625 54.34375 L 84.625 38.75 L 64.21875 23.21875 z M 67.65625 65.59375 L 88.28125 65.59375 L 88.28125 89.25 L 67.65625 89.25 L 67.65625 65.59375 z "
         inkscape:radius="-1.5133823"
         sodipodi:type="inkscape:offset" />
      <path
         transform="matrix(1.0515288,0,0,1.0515288,-3.2978197,-5.5385404)"
         sodipodi:type="inkscape:offset"
         inkscape:radius="-1.1089063"
         inkscape:original="M 64.21875 23.21875 L 43.5625 38.71875 L 22.9375 54.21875 L 32.09375 54.21875 L 32.09375 100.78125 L 39.34375 100.78125 L 39.34375 65.59375 L 59.625 65.59375 L 59.625 100.78125 L 95.875 100.78125 L 95.875 54.34375 L 105.0625 54.34375 L 84.625 38.75 L 64.21875 23.21875 z M 67.65625 65.59375 L 88.28125 65.59375 L 88.28125 89.25 L 67.65625 89.25 L 67.65625 65.59375 z "
         style="opacity:0.94999999999999996;fill:none;stroke:url(#linearGradient3652);stroke-width:0.50000000000000000;stroke-linecap:round;stroke-linejoin:round;stroke-miterlimit:4;stroke-opacity:1;stroke-dasharray:none;stroke-dashoffset:0;marker:none;visibility:visible;display:inline;overflow:visible;enable-background:accumulate"
         id="path3629"
         d="m 64.21875,24.59375 -20,15 -18,13.53125 5.875,0 a 1.1090172,1.1090172 0 0 1 1.09375,1.09375 l 0,45.46875 5.0625,0 0,-34.09375 A 1.1090172,1.1090172 0 0 1 39.34375,64.5 l 20.28125,0 a 1.1090172,1.1090172 0 0 1 1.09375,1.09375 l 0,34.09375 34.0625,0 0,-45.34375 A 1.1090172,1.1090172 0 0 1 95.875,53.25 l 5.90625,0 -17.8125,-13.625 -0.03125,0 -19.71875,-15.03125 z m 3.25,39.90625 a 1.1090172,1.1090172 0 0 1 0.1875,0 l 20.625,0 a 1.1090172,1.1090172 0 0 1 1.09375,1.09375 l 0,23.65625 a 1.1090172,1.1090172 0 0 1 -1.09375,1.09375 l -20.625,0 A 1.1090172,1.1090172 0 0 1 66.5625,89.25 l 0,-23.65625 A 1.1090172,1.1090172 0 0 1 67.46875,64.5 z" />
    </g>
  </g>
</svg>
