<?xml version="1.0" encoding="UTF-8" standalone="no"?>
<!-- Created with Inkscape (http://www.inkscape.org/) -->

<svg
   xmlns:dc="http://purl.org/dc/elements/1.1/"
   xmlns:cc="http://creativecommons.org/ns#"
   xmlns:rdf="http://www.w3.org/1999/02/22-rdf-syntax-ns#"
   xmlns:svg="http://www.w3.org/2000/svg"
   xmlns="http://www.w3.org/2000/svg"
   xmlns:xlink="http://www.w3.org/1999/xlink"
   xmlns:sodipodi="http://sodipodi.sourceforge.net/DTD/sodipodi-0.dtd"
   xmlns:inkscape="http://www.inkscape.org/namespaces/inkscape"
   width="128"
   height="128"
   id="svg3593"
   sodipodi:version="0.32"
   inkscape:version="0.47 r22583"
   version="1.0"
   sodipodi:docname="go-jump.svg"
   inkscape:output_extension="org.inkscape.output.svg.inkscape">
  <defs
     id="defs3595">
    <linearGradient
       id="linearGradient2836">
      <stop
         id="stop2838"
         offset="0"
         style="stop-color:#f8ead2;stop-opacity:1;" />
      <stop
         style="stop-color:#cfb07f;stop-opacity:1;"
         offset="0.2973702"
         id="stop2840" />
      <stop
         id="stop2842"
         offset="1"
         style="stop-color:#454545;stop-opacity:1;" />
    </linearGradient>
    <linearGradient
       inkscape:collect="always"
       id="linearGradient3175">
      <stop
         style="stop-color:#ffffff;stop-opacity:1;"
         offset="0"
         id="stop3177" />
      <stop
         style="stop-color:#ffffff;stop-opacity:0;"
         offset="1"
         id="stop3179" />
    </linearGradient>
    <linearGradient
       id="linearGradient3160">
      <stop
         id="stop3162"
         offset="0"
         style="stop-color:#f8ead2;stop-opacity:1;" />
      <stop
         style="stop-color:#cfb07f;stop-opacity:1;"
         offset="0.4517467"
         id="stop3164" />
      <stop
         id="stop3166"
         offset="1"
         style="stop-color:#454545;stop-opacity:1;" />
    </linearGradient>
    <linearGradient
       id="linearGradient3653">
      <stop
         style="stop-color:#f8ead2;stop-opacity:1;"
         offset="0"
         id="stop3655" />
      <stop
         id="stop3657"
         offset="0.37835276"
         style="stop-color:#cfb07f;stop-opacity:1;" />
      <stop
         style="stop-color:#454545;stop-opacity:1;"
         offset="1"
         id="stop3659" />
    </linearGradient>
    <linearGradient
       inkscape:collect="always"
       xlink:href="#linearGradient3653"
       id="linearGradient3363"
       x1="55.122368"
       y1="-15.118101"
       x2="137.19591"
       y2="120.76636"
       gradientUnits="userSpaceOnUse"
       gradientTransform="matrix(-1.0554292,0.3515176,-0.3410882,-1.0330551,159.64194,101.47929)" />
    <linearGradient
       inkscape:collect="always"
       xlink:href="#linearGradient3160"
       id="linearGradient3371"
       x1="14.511342"
       y1="-52.733654"
       x2="121.40359"
       y2="182.99686"
       gradientUnits="userSpaceOnUse"
       gradientTransform="matrix(-1.0338868,0.4107991,-0.4107991,-1.0338868,163.13623,96.090087)" />
    <linearGradient
       inkscape:collect="always"
       xlink:href="#linearGradient3175"
       id="linearGradient3171"
       gradientUnits="userSpaceOnUse"
       x1="113.75"
       y1="44.607143"
       x2="64.05143"
       y2="78.714294" />
    <linearGradient
       inkscape:collect="always"
       xlink:href="#linearGradient2836"
       id="linearGradient2834"
       gradientUnits="userSpaceOnUse"
       gradientTransform="matrix(-1.0554292,0.3515176,-0.3410882,-1.0330551,159.64194,101.47929)"
       x1="-9.0324345"
       y1="-83.95491"
       x2="66.786072"
       y2="-37.394779" />
    <filter
       inkscape:collect="always"
       id="filter3616">
      <feGaussianBlur
         inkscape:collect="always"
         stdDeviation="4.1251859"
         id="feGaussianBlur3618" />
    </filter>
    <linearGradient
       inkscape:collect="always"
       xlink:href="#linearGradient3175"
       id="linearGradient3622"
       gradientUnits="userSpaceOnUse"
       gradientTransform="matrix(-1.0338868,0.4107991,-0.4107991,-1.0338868,163.13623,96.090087)"
       x1="14.511342"
       y1="-52.733654"
       x2="121.40359"
       y2="182.99686" />
    <linearGradient
       inkscape:collect="always"
       xlink:href="#linearGradient3175"
       id="linearGradient3626"
       gradientUnits="userSpaceOnUse"
       gradientTransform="matrix(-1.0338868,0.4107991,-0.4107991,-1.0338868,163.13623,96.090087)"
       x1="25.833696"
       y1="-64.327248"
       x2="-9.4548969"
       y2="110.89615" />
  </defs>
  <sodipodi:namedview
     id="base"
     pagecolor="#eeeae5"
     bordercolor="#666666"
     borderopacity="1.0"
     gridtolerance="10000"
     guidetolerance="10"
     objecttolerance="10"
     inkscape:pageopacity="0"
     inkscape:pageshadow="2"
     inkscape:zoom="1.4"
     inkscape:cx="82.556663"
     inkscape:cy="-0.6540162"
     inkscape:document-units="px"
     inkscape:current-layer="g2818"
     showgrid="false"
     inkscape:showpageshadow="false"
     inkscape:window-width="1024"
     inkscape:window-height="718"
     inkscape:window-x="0"
     inkscape:window-y="26"
     inkscape:window-maximized="1" />
  <metadata
     id="metadata3598">
    <rdf:RDF>
      <cc:Work
         rdf:about="">
        <dc:format>image/svg+xml</dc:format>
        <dc:type
           rdf:resource="http://purl.org/dc/dcmitype/StillImage" />
      </cc:Work>
    </rdf:RDF>
  </metadata>
  <g
     inkscape:label="Layer 1"
     inkscape:groupmode="layer"
     id="layer1">
    <g
       id="g2818"
       transform="matrix(0.9634486,0,0,0.9634486,-0.88455,2.9995118)"
       style="fill:#808080">
      <path
         sodipodi:nodetypes="cccccccccc"
         style="fill:url(#linearGradient2834);fill-opacity:1;fill-rule:nonzero;stroke:none;stroke-width:2.07587617999999985;stroke-linejoin:round;marker:none;marker-start:none;marker-mid:none;marker-end:none;stroke-miterlimit:4;stroke-dasharray:none;stroke-dashoffset:0;stroke-opacity:1;visibility:visible;display:inline;overflow:visible;enable-background:accumulate;filter:url(#filter3616);opacity:0.9"
         d="M 20.366331,11.422602 C 43.604445,16.105666 62.240738,33.144436 70.357352,52.504004 C 76.244686,66.54562 74.331982,84.180979 74.331982,84.180979 C 74.331982,84.180979 45.837682,83.959477 45.837682,83.959477 C 45.837682,83.959477 88.265203,116.95057 88.265203,116.95057 C 88.265203,116.95057 131.57276,84.386902 131.57276,84.386902 C 131.57276,84.386902 102.95239,84.217408 102.95239,84.217408 C 102.95239,84.217408 104.7546,53.63771 90.36628,37.258708 C 71.450523,14.99177 46.534296,10.808447 19.289137,9.6788896 C 19.289156,9.6789096 -17.800316,9.9126476 20.366331,11.422602 z"
         id="path2832" />
      <path
         id="path4474"
         d="M 20.366331,11.422602 C 43.604445,16.105666 62.240738,33.144436 70.357352,52.504004 C 76.244686,66.54562 74.331982,84.180979 74.331982,84.180979 C 74.331982,84.180979 45.837682,83.959477 45.837682,83.959477 C 45.837682,83.959477 88.265203,116.95057 88.265203,116.95057 C 88.265203,116.95057 131.57276,84.386902 131.57276,84.386902 C 131.57276,84.386902 102.95239,84.217408 102.95239,84.217408 C 102.95239,84.217408 104.7546,53.63771 90.36628,37.258708 C 71.450523,14.99177 46.534296,10.808447 19.289137,9.6788896 C 19.289156,9.6789096 -17.800316,9.9126476 20.366331,11.422602 z"
         style="fill:url(#linearGradient3363);fill-opacity:1;fill-rule:nonzero;stroke:url(#linearGradient3371);stroke-width:1.5859694;stroke-linejoin:round;marker:none;marker-start:none;marker-mid:none;marker-end:none;stroke-miterlimit:4;stroke-dasharray:none;stroke-dashoffset:0;stroke-opacity:1;visibility:visible;display:inline;overflow:visible;enable-background:accumulate"
         sodipodi:nodetypes="cccccccccc" />
      <path
         sodipodi:type="inkscape:offset"
         inkscape:radius="-0.37648612"
         inkscape:original="M 17.6875 10.9375 C 17.687499 10.9375 8.7700728 11.005178 4.34375 11.25 C 3.2371688 11.311205 2.6047955 11.292407 1.875 11.5 C 1.7837755 11.525949 1.6899111 11.542633 1.53125 11.625 C 1.3725889 11.707366 1.0688107 11.847266 0.84375 12.4375 C 0.84014326 12.446959 0.84712043 12.459072 0.84375 12.46875 C 88.936123 9.9525014 91.182813 75.317151 83.8125 117.03125 C 84.206601 117.12198 84.630879 117.03684 84.96875 116.78125 C 84.968753 116.78125 126.71875 85.40625 126.71875 85.40625 C 127.1867 85.041153 127.37722 84.406135 127.1875 83.84375 C 126.99778 83.281365 126.46848 82.913278 125.875 82.90625 C 125.875 82.906247 102.26584 82.763904 99.71875 82.75 C 99.790816 80.948249 99.960252 75.315287 98.84375 67.25 C 97.531136 57.768063 94.485179 46.204945 87.25 37.96875 C 68.689094 16.119529 44.106124 12.030199 17.75 10.9375 C 17.72993 10.937067 17.70757 10.937067 17.6875 10.9375 z "
         style="opacity:0.75;fill:url(#linearGradient3171);fill-opacity:1;fill-rule:nonzero;stroke:none;stroke-width:2.88679051;stroke-linejoin:round;marker:none;marker-start:none;marker-mid:none;marker-end:none;stroke-miterlimit:4;stroke-dasharray:none;stroke-dashoffset:0;stroke-opacity:1;visibility:visible;display:inline;overflow:visible;enable-background:accumulate"
         id="path3169"
         d="M 17.6875,11.3125 C 17.6875,11.3125 8.7773027,11.381507 4.375,11.625 C 3.2562776,11.686877 2.637743,11.684703 1.96875,11.875 C 1.8530038,11.907924 1.8419714,11.904781 1.71875,11.96875 C 1.650617,12.00412 1.5930255,12.049194 1.53125,12.09375 C 45.207285,11.020943 67.811901,26.749296 78.46875,48 C 89.110655,69.220903 87.884794,95.821393 84.25,116.65625 C 84.427,116.63571 84.598813,116.58312 84.75,116.46875 C 84.75,116.46875 126.5,85.09375 126.5,85.09375 C 126.8401,84.828404 126.98163,84.377465 126.84375,83.96875 C 126.70592,83.560181 126.31549,83.286466 125.875,83.28125 C 125.875,83.28125 102.26451,83.138897 99.71875,83.125 C 99.51199,83.124165 99.344585,82.95676 99.34375,82.75 C 99.415505,80.956013 99.581278,75.349077 98.46875,67.3125 C 97.161283,57.867745 94.123196,46.363043 86.96875,38.21875 C 68.499032,16.476872 44.076962,12.40399 17.75,11.3125 C 17.735959,11.312197 17.701541,11.312197 17.6875,11.3125 z"
         transform="matrix(1.0379381,0,0,1.0379381,0.9181081,-3.1133075)" />
      <path
         sodipodi:type="inkscape:offset"
         inkscape:radius="-1.6786953"
         inkscape:original="M 19.28125 9.6875 C 19.281269 9.68752 -17.791647 9.9275456 20.375 11.4375 C 43.613114 16.120564 62.227136 33.140432 70.34375 52.5 C 76.231084 66.541616 74.34375 84.1875 74.34375 84.1875 L 45.84375 83.96875 L 88.25 116.9375 L 131.5625 84.375 L 102.9375 84.21875 C 102.9375 84.21875 104.76332 53.629002 90.375 37.25 C 71.459243 14.983062 46.526409 10.817057 19.28125 9.6875 z "
         style="fill:none;stroke:url(#linearGradient3626);stroke-width:1.58596944999999967;stroke-linejoin:round;stroke-miterlimit:4;stroke-opacity:1;stroke-dasharray:none;stroke-dashoffset:0;marker:none;visibility:visible;display:inline;overflow:visible;enable-background:accumulate"
         id="path3624"
         d="M 28.4375,11.90625 C 48.610372,18.549428 64.497562,34.172711 71.90625,51.84375 78.036967,66.465848 76,84.375 76,84.375 a 1.6788632,1.6788632 0 0 1 -1.65625,1.5 l -23.5625,-0.1875 37.46875,29.15625 38.3125,-28.8125 -23.625,-0.125 A 1.6788632,1.6788632 0 0 1 101.25,84.125 c 0,0 0.44355,-7.506427 -0.875,-17.03125 -1.318553,-9.524823 -4.421056,-20.976245 -11.25,-28.75 a 1.6788632,1.6788632 0 0 1 -0.03125,0 C 72.70903,19.056256 51.823436,13.670666 28.4375,11.90625 z" />
    </g>
    <text
       xml:space="preserve"
       style="font-size:16px;font-style:normal;font-variant:normal;font-weight:bold;font-stretch:normal;text-align:start;line-height:125%;writing-mode:lr-tb;text-anchor:start;fill:#000000;fill-opacity:1;stroke:none;stroke-width:1px;stroke-linecap:butt;stroke-linejoin:miter;stroke-opacity:1;font-family:Purisa;-inkscape-font-specification:Purisa Bold"
       x="-161.45073"
       y="9.1614065"
       id="text2404"
       sodipodi:linespacing="125%"><tspan
         sodipodi:role="line"
         id="tspan2406"
         x="-161.45073"
         y="9.1614065" /></text>
  </g>
</svg>
