<?xml version="1.0" encoding="UTF-8" standalone="no"?>
<!-- Created with Inkscape (http://www.inkscape.org/) -->
<svg
   xmlns:dc="http://purl.org/dc/elements/1.1/"
   xmlns:cc="http://creativecommons.org/ns#"
   xmlns:rdf="http://www.w3.org/1999/02/22-rdf-syntax-ns#"
   xmlns:svg="http://www.w3.org/2000/svg"
   xmlns="http://www.w3.org/2000/svg"
   xmlns:xlink="http://www.w3.org/1999/xlink"
   xmlns:sodipodi="http://sodipodi.sourceforge.net/DTD/sodipodi-0.dtd"
   xmlns:inkscape="http://www.inkscape.org/namespaces/inkscape"
   width="128"
   height="128"
   id="svg2"
   sodipodi:version="0.32"
   inkscape:version="0.46"
   version="1.0"
   sodipodi:docname="list-remove.svg"
   inkscape:output_extension="org.inkscape.output.svg.inkscape">
  <defs
     id="defs4">
    <linearGradient
       id="linearGradient3163">
      <stop
         id="stop3165"
         offset="0"
         style="stop-color:#f8ead2;stop-opacity:1;" />
      <stop
         style="stop-color:#cfb07f;stop-opacity:1;"
         offset="0.38838425"
         id="stop3167" />
      <stop
         id="stop3169"
         offset="1"
         style="stop-color:#454545;stop-opacity:1;" />
    </linearGradient>
    <linearGradient
       inkscape:collect="always"
       id="linearGradient2397">
      <stop
         style="stop-color:#ffffff;stop-opacity:1;"
         offset="0"
         id="stop2399" />
      <stop
         style="stop-color:#ffffff;stop-opacity:0;"
         offset="1"
         id="stop2401" />
    </linearGradient>
    <radialGradient
       inkscape:collect="always"
       xlink:href="#linearGradient3163"
       id="radialGradient3213"
       cx="80.038162"
       cy="44.336239"
       fx="80.038162"
       fy="44.336239"
       r="62.601533"
       gradientUnits="userSpaceOnUse"
       gradientTransform="matrix(2.0061069,0,0,0.9670029,-74.393673,-0.6610449)" />
    <linearGradient
       inkscape:collect="always"
       xlink:href="#linearGradient2397"
       id="linearGradient2403"
       x1="76.785713"
       y1="20.13842"
       x2="76.785713"
       y2="78"
       gradientUnits="userSpaceOnUse" />
  </defs>
  <sodipodi:namedview
     id="base"
     pagecolor="#ffffff"
     bordercolor="#666666"
     borderopacity="1.0"
     inkscape:pageopacity="0.0"
     inkscape:pageshadow="2"
     inkscape:zoom="1.4"
     inkscape:cx="26.774862"
     inkscape:cy="50.921058"
     inkscape:document-units="px"
     inkscape:current-layer="layer1"
     showgrid="false"
     inkscape:showpageshadow="false"
     inkscape:window-width="1280"
     inkscape:window-height="956"
     inkscape:window-x="2"
     inkscape:window-y="45"
     showguides="true"
     inkscape:guide-bbox="true" />
  <metadata
     id="metadata7">
    <rdf:RDF>
      <cc:Work
         rdf:about="">
        <dc:format>image/svg+xml</dc:format>
        <dc:type
           rdf:resource="http://purl.org/dc/dcmitype/StillImage" />
      </cc:Work>
    </rdf:RDF>
  </metadata>
  <g
     inkscape:label="Ebene 1"
     inkscape:groupmode="layer"
     id="layer1">
    <path
       style="opacity:1;fill:url(#radialGradient3213);fill-opacity:1;stroke:#886839;stroke-width:3;stroke-linecap:round;stroke-linejoin:round;stroke-miterlimit:4;stroke-dasharray:none;stroke-opacity:1"
       d="M 47.74534,47.810571 C 36.37715,47.789088 13.648913,46.036386 13.648913,47.731215 L 13.648913,80.452146 C 13.648913,81.382032 36.359431,80.427446 47.718888,80.425694 C 47.718888,80.425694 80.334012,80.425694 80.334012,80.425694 C 91.669875,80.429145 114.35109,81.811895 114.35109,80.452146 L 114.35109,47.731215 C 114.35109,45.917607 91.669761,47.826741 80.334012,47.837022 C 80.334012,47.837022 47.74534,47.810571 47.74534,47.810571 z"
       id="rect3467"
       sodipodi:nodetypes="cssccsscc" />
    <rect
       style="opacity:0.59500002;fill:#ffffff;fill-opacity:1;fill-rule:nonzero;stroke:none;stroke-width:0.30000001;stroke-linejoin:miter;marker:none;marker-start:none;marker-mid:none;marker-end:none;stroke-miterlimit:4;stroke-dasharray:none;stroke-dashoffset:0;stroke-opacity:1;visibility:visible;display:inline;overflow:visible;enable-background:accumulate"
       id="rect3326"
       width="0.17703044"
       height="0"
       x="62.65099"
       y="69.556252"
       rx="0.60764515"
       ry="0" />
    <rect
       style="opacity:0.59500002;fill:#ffffff;fill-opacity:1;fill-rule:nonzero;stroke:none;stroke-width:0.30000001;stroke-linejoin:miter;marker:none;marker-start:none;marker-mid:none;marker-end:none;stroke-miterlimit:4;stroke-dasharray:none;stroke-dashoffset:0;stroke-opacity:1;visibility:visible;display:inline;overflow:visible;enable-background:accumulate"
       id="rect6725"
       width="0.28655165"
       height="0"
       x="26.769144"
       y="50.854515"
       rx="0.98356944"
       ry="0" />
    <path
       sodipodi:type="inkscape:offset"
       inkscape:radius="2.5978527"
       inkscape:original="M 108.75 46.9375 C 101.28864 46.912833 88.137077 47.836682 80.34375 47.84375 C 80.343747 47.843751 47.75 47.8125 47.75 47.8125 C 36.381812 47.791018 13.65625 46.023921 13.65625 47.71875 L 13.65625 70.65625 C 47.406601 65.553088 93.307783 64.805342 114.34375 64.75 L 114.34375 47.71875 C 114.34375 47.151997 112.14153 46.948712 108.75 46.9375 z "
       style="opacity:1;fill:url(#linearGradient2403);fill-opacity:1;stroke:none;stroke-width:5.27709293000000024;stroke-linecap:round;stroke-linejoin:round;stroke-miterlimit:4;stroke-dasharray:none;stroke-opacity:1"
       id="path2395"
       d="M 108.75,44.34375 C 101.06411,44.318341 87.934422,45.243116 80.34375,45.25 C 80.34375,45.25 47.75,45.21875 47.75,45.21875 C 42.19724,45.208257 33.674564,44.765195 26.53125,44.53125 C 22.959593,44.414277 19.742644,44.330093 17.3125,44.40625 C 16.097428,44.444329 15.075082,44.530507 14.1875,44.6875 C 13.743709,44.765997 13.36215,44.833409 12.8125,45.09375 C 12.537675,45.22392 12.184809,45.383044 11.8125,45.78125 C 11.440191,46.179456 11.0625,46.940078 11.0625,47.71875 L 11.0625,70.65625 C 11.065116,71.408407 11.39357,72.122518 11.962958,72.613989 C 12.532346,73.105461 13.286782,73.326055 14.03125,73.21875 C 47.474419,68.162035 93.359403,67.398956 114.34375,67.34375 C 115.77524,67.341348 116.9351,66.181493 116.9375,64.75 L 116.9375,47.71875 C 116.9375,46.806704 116.40405,45.983333 115.96875,45.59375 C 115.53345,45.204167 115.18575,45.055995 114.875,44.9375 C 114.2535,44.700511 113.75022,44.606261 113.15625,44.53125 C 111.96831,44.381228 110.49581,44.349521 108.75,44.34375 z" />
  </g>
</svg>
