<?xml version="1.0" encoding="UTF-8" standalone="no"?>
<!-- Created with Inkscape (http://www.inkscape.org/) -->

<svg
   xmlns:dc="http://purl.org/dc/elements/1.1/"
   xmlns:cc="http://creativecommons.org/ns#"
   xmlns:rdf="http://www.w3.org/1999/02/22-rdf-syntax-ns#"
   xmlns:svg="http://www.w3.org/2000/svg"
   xmlns="http://www.w3.org/2000/svg"
   xmlns:xlink="http://www.w3.org/1999/xlink"
   xmlns:sodipodi="http://sodipodi.sourceforge.net/DTD/sodipodi-0.dtd"
   xmlns:inkscape="http://www.inkscape.org/namespaces/inkscape"
   width="128"
   height="128"
   id="svg2"
   sodipodi:version="0.32"
   inkscape:version="0.47 r22583"
   version="1.0"
   sodipodi:docname="list-add.svg"
   inkscape:output_extension="org.inkscape.output.svg.inkscape"
   inkscape:export-filename="D:\Projekte\cream\art\creamlooks-icontheme\icons\scalable\actions\list-add.png"
   inkscape:export-xdpi="90"
   inkscape:export-ydpi="90">
  <defs
     id="defs4">
    <inkscape:perspective
       sodipodi:type="inkscape:persp3d"
       inkscape:vp_x="0 : 64 : 1"
       inkscape:vp_y="0 : 1000 : 0"
       inkscape:vp_z="128 : 64 : 1"
       inkscape:persp3d-origin="64 : 42.666667 : 1"
       id="perspective35" />
    <linearGradient
       inkscape:collect="always"
       id="linearGradient3861">
      <stop
         style="stop-color:#ffffff;stop-opacity:1;"
         offset="0"
         id="stop3863" />
      <stop
         style="stop-color:#ffffff;stop-opacity:0;"
         offset="1"
         id="stop3865" />
    </linearGradient>
    <linearGradient
       inkscape:collect="always"
       id="linearGradient3851">
      <stop
         style="stop-color:#ffffff;stop-opacity:1;"
         offset="0"
         id="stop3853" />
      <stop
         style="stop-color:#ffffff;stop-opacity:0;"
         offset="1"
         id="stop3855" />
    </linearGradient>
    <linearGradient
       id="linearGradient3837">
      <stop
         style="stop-color:#f8ead2;stop-opacity:1;"
         offset="0"
         id="stop3839" />
      <stop
         id="stop3841"
         offset="0.45066544"
         style="stop-color:#cfb07f;stop-opacity:1;" />
      <stop
         style="stop-color:#454545;stop-opacity:1;"
         offset="1"
         id="stop3843" />
    </linearGradient>
    <radialGradient
       inkscape:collect="always"
       xlink:href="#linearGradient3837"
       id="radialGradient3835"
       gradientUnits="userSpaceOnUse"
       gradientTransform="matrix(2.1227868,-2.2895253e-8,1.8965383e-8,1.7584198,-82.101641,-34.649146)"
       cx="84.91935"
       cy="43.959385"
       fx="84.91935"
       fy="43.959385"
       r="62.601533" />
    <linearGradient
       inkscape:collect="always"
       xlink:href="#linearGradient3851"
       id="linearGradient3857"
       x1="162.5"
       y1="52.64286"
       x2="10.9375"
       y2="70.01786"
       gradientUnits="userSpaceOnUse" />
    <linearGradient
       inkscape:collect="always"
       xlink:href="#linearGradient3861"
       id="linearGradient3867"
       x1="11.640471"
       y1="143.80205"
       x2="126.20852"
       y2="2.885771"
       gradientUnits="userSpaceOnUse" />
    <radialGradient
       inkscape:collect="always"
       xlink:href="#linearGradient3837"
       id="radialGradient3871"
       gradientUnits="userSpaceOnUse"
       gradientTransform="matrix(2.1227868,-2.2895253e-8,1.8965383e-8,1.7584198,-82.101641,-34.649146)"
       cx="127.0331"
       cy="-3.7212999"
       fx="127.0331"
       fy="-3.7212999"
       r="62.601533" />
    <filter
       inkscape:collect="always"
       id="filter3877">
      <feGaussianBlur
         inkscape:collect="always"
         stdDeviation="3.1325"
         id="feGaussianBlur3879" />
    </filter>
    <linearGradient
       inkscape:collect="always"
       xlink:href="#linearGradient3861"
       id="linearGradient3883"
       gradientUnits="userSpaceOnUse"
       x1="107.875"
       y1="3.8020482"
       x2="20.125"
       y2="107.875" />
  </defs>
  <sodipodi:namedview
     id="base"
     pagecolor="#ffffff"
     bordercolor="#666666"
     borderopacity="1.0"
     inkscape:pageopacity="0.0"
     inkscape:pageshadow="2"
     inkscape:zoom="2.8"
     inkscape:cx="34.569512"
     inkscape:cy="47.869774"
     inkscape:document-units="px"
     inkscape:current-layer="layer1"
     showgrid="false"
     inkscape:showpageshadow="false"
     inkscape:window-width="1024"
     inkscape:window-height="718"
     inkscape:window-x="0"
     inkscape:window-y="26"
     inkscape:window-maximized="1" />
  <metadata
     id="metadata7">
    <rdf:RDF>
      <cc:Work
         rdf:about="">
        <dc:format>image/svg+xml</dc:format>
        <dc:type
           rdf:resource="http://purl.org/dc/dcmitype/StillImage" />
        <dc:title />
      </cc:Work>
    </rdf:RDF>
  </metadata>
  <g
     inkscape:label="Ebene 1"
     inkscape:groupmode="layer"
     id="layer1">
    <path
       d="m 52.9375,19.25 0.09375,28.59375 A 5.1587299,5.1587299 0 0 1 47.875,53 l -28.625,-0.0625 0,22.125 28.59375,-0.03125 A 5.1587299,5.1587299 0 0 1 53,80.1875 l -0.0625,28.5625 22.125,0 -0.03125,-28.5625 a 5.1587299,5.1587299 0 0 1 5.15625,-5.15625 l 28.5625,0.03125 0,-22.125 -28.5625,0.09375 A 5.1587299,5.1587299 0 0 1 75.03125,47.875 l 0.03125,-28.625 -22.125,0 z"
       id="path3869"
       style="fill:url(#radialGradient3871);fill-opacity:1;stroke:none;stroke-width:1.58200001999999995;stroke-linecap:round;stroke-linejoin:round;stroke-miterlimit:4;stroke-opacity:1;stroke-dasharray:none;opacity:1;filter:url(#filter3877)"
       inkscape:original="M 47.78125 14.09375 L 47.875 47.84375 L 14.09375 47.78125 L 14.09375 80.21875 L 47.84375 80.1875 L 47.78125 113.90625 L 80.21875 113.90625 L 80.1875 80.1875 L 113.90625 80.21875 L 113.90625 47.78125 L 80.1875 47.875 L 80.21875 14.09375 L 47.78125 14.09375 z "
       inkscape:radius="-5.1582141"
       sodipodi:type="inkscape:offset" />
    <path
       sodipodi:type="inkscape:offset"
       inkscape:radius="-5.1582141"
       inkscape:original="M 47.78125 14.09375 L 47.875 47.84375 L 14.09375 47.78125 L 14.09375 80.21875 L 47.84375 80.1875 L 47.78125 113.90625 L 80.21875 113.90625 L 80.1875 80.1875 L 113.90625 80.21875 L 113.90625 47.78125 L 80.1875 47.875 L 80.21875 14.09375 L 47.78125 14.09375 z "
       style="fill:url(#radialGradient3835);fill-opacity:1;stroke:#886839;stroke-width:1.58200001999999995;stroke-linecap:round;stroke-linejoin:round;stroke-miterlimit:4;stroke-opacity:1;stroke-dasharray:none"
       id="path3833"
       d="m 52.9375,19.25 0.09375,28.59375 A 5.1587299,5.1587299 0 0 1 47.875,53 l -28.625,-0.0625 0,22.125 28.59375,-0.03125 A 5.1587299,5.1587299 0 0 1 53,80.1875 l -0.0625,28.5625 22.125,0 -0.03125,-28.5625 a 5.1587299,5.1587299 0 0 1 5.15625,-5.15625 l 28.5625,0.03125 0,-22.125 -28.5625,0.09375 A 5.1587299,5.1587299 0 0 1 75.03125,47.875 l 0.03125,-28.625 -22.125,0 z" />
    <rect
       style="opacity:0.59500002;fill:#ffffff;fill-opacity:1;fill-rule:nonzero;stroke:none;stroke-width:0.30000001;stroke-linejoin:miter;marker:none;marker-start:none;marker-mid:none;marker-end:none;stroke-miterlimit:4;stroke-dasharray:none;stroke-dashoffset:0;stroke-opacity:1;visibility:visible;display:inline;overflow:visible;enable-background:accumulate"
       id="rect3326"
       width="0.17703044"
       height="0"
       x="62.65099"
       y="69.556252"
       rx="0.60764515"
       ry="0" />
    <rect
       style="opacity:0.59500002;fill:#ffffff;fill-opacity:1;fill-rule:nonzero;stroke:none;stroke-width:0.30000001;stroke-linejoin:miter;marker:none;marker-start:none;marker-mid:none;marker-end:none;stroke-miterlimit:4;stroke-dasharray:none;stroke-dashoffset:0;stroke-opacity:1;visibility:visible;display:inline;overflow:visible;enable-background:accumulate"
       id="rect6725"
       width="0.28655165"
       height="0"
       x="26.769144"
       y="50.854515"
       rx="0.98356944"
       ry="0" />
    <g
       id="layer1-6"
       inkscape:label="Ebene 1"
       transform="translate(-135.26885,-21.061683)">
      <g
         transform="matrix(0,1,1,0,-2.8108979,2.8109021)"
         id="g2916">
        <g
           id="layer1-9"
           inkscape:label="Ebene 1"
           transform="translate(-2.8109021,0)">
          <g
             transform="translate(-2.8571427,0.40178724)"
             id="g2844" />
        </g>
      </g>
    </g>
    <path
       style="fill:url(#linearGradient3857);fill-opacity:1;stroke:none"
       d="m 52.125,18.4375 0.09375,29.40625 c -0.0049,2.273044 -2.070706,4.338866 -4.34375,4.34375 l -29.4375,-0.0625 0,10.53125 c 26.514942,-0.91829 66.102698,-0.243926 91.125,0.21875 l 0,-10.75 -29.375,0.09375 c -2.273044,-0.0049 -4.338866,-2.070706 -4.34375,-4.34375 l 0.03125,-29.4375 -23.75,0 z"
       id="path3845"
       sodipodi:nodetypes="ccccccccccc" />
    <path
       d="m 54.46875,20.75 0.0625,27.0625 A 6.6721459,6.6721459 0 0 1 47.875,54.5 l -27.125,-0.0625 0,19.125 27.09375,-0.03125 A 6.6721459,6.6721459 0 0 1 54.5,80.1875 l -0.0625,27.0625 19.125,0 -0.03125,-27.0625 a 6.6721459,6.6721459 0 0 1 6.65625,-6.65625 l 27.0625,0.03125 0,-19.09375 -27.03125,0.0625 A 6.6721459,6.6721459 0 0 1 73.53125,47.875 l 0.03125,-27.125 -19.09375,0 z"
       id="path3859"
       style="fill:none;stroke:url(#linearGradient3867);stroke-width:1.58200001999999995;stroke-linecap:round;stroke-linejoin:round;stroke-miterlimit:4;stroke-opacity:1;stroke-dasharray:none"
       inkscape:original="M 47.78125 14.09375 L 47.875 47.84375 L 14.09375 47.78125 L 14.09375 80.21875 L 47.84375 80.1875 L 47.78125 113.90625 L 80.21875 113.90625 L 80.1875 80.1875 L 113.90625 80.21875 L 113.90625 47.78125 L 80.1875 47.875 L 80.21875 14.09375 L 47.78125 14.09375 z "
       inkscape:radius="-6.6714787"
       sodipodi:type="inkscape:offset" />
    <path
       sodipodi:type="inkscape:offset"
       inkscape:radius="-6.2774429"
       inkscape:original="M 47.78125 14.09375 L 47.875 47.84375 L 14.09375 47.78125 L 14.09375 80.21875 L 47.84375 80.1875 L 47.78125 113.90625 L 80.21875 113.90625 L 80.1875 80.1875 L 113.90625 80.21875 L 113.90625 47.78125 L 80.1875 47.875 L 80.21875 14.09375 L 47.78125 14.09375 z "
       style="fill:none;stroke:url(#linearGradient3883);stroke-width:0.50000000000000000;stroke-linecap:round;stroke-linejoin:round;stroke-miterlimit:4;stroke-opacity:1;stroke-dasharray:none"
       id="path3881"
       d="m 54.09375,20.375 0.0625,27.4375 A 6.2780707,6.2780707 0 0 1 47.875,54.125 l -27.5,-0.0625 0,19.875 27.46875,-0.03125 A 6.2780707,6.2780707 0 0 1 54.125,80.1875 l -0.0625,27.4375 19.875,0 -0.03125,-27.4375 a 6.2780707,6.2780707 0 0 1 6.28125,-6.28125 l 27.4375,0.03125 0,-19.84375 -27.40625,0.0625 A 6.2780707,6.2780707 0 0 1 73.90625,47.875 l 0.03125,-27.5 -19.84375,0 z" />
  </g>
</svg>
