<?xml version="1.0" encoding="UTF-8" standalone="no"?>
<!-- Created with Inkscape (http://www.inkscape.org/) -->
<svg
   xmlns:dc="http://purl.org/dc/elements/1.1/"
   xmlns:cc="http://creativecommons.org/ns#"
   xmlns:rdf="http://www.w3.org/1999/02/22-rdf-syntax-ns#"
   xmlns:svg="http://www.w3.org/2000/svg"
   xmlns="http://www.w3.org/2000/svg"
   xmlns:xlink="http://www.w3.org/1999/xlink"
   xmlns:sodipodi="http://sodipodi.sourceforge.net/DTD/sodipodi-0.dtd"
   xmlns:inkscape="http://www.inkscape.org/namespaces/inkscape"
   width="128"
   height="128"
   id="svg2"
   sodipodi:version="0.32"
   inkscape:version="0.46"
   version="1.0"
   sodipodi:docname="list-add.svg"
   inkscape:output_extension="org.inkscape.output.svg.inkscape">
  <defs
     id="defs4">
    <linearGradient
       id="linearGradient3168">
      <stop
         id="stop3170"
         offset="0"
         style="stop-color:#f8ead2;stop-opacity:1;" />
      <stop
         style="stop-color:#cfb07f;stop-opacity:1;"
         offset="0.4614155"
         id="stop3172" />
      <stop
         id="stop3174"
         offset="1"
         style="stop-color:#454545;stop-opacity:1;" />
    </linearGradient>
    <linearGradient
       inkscape:collect="always"
       id="linearGradient2397">
      <stop
         style="stop-color:#ffffff;stop-opacity:1;"
         offset="0"
         id="stop2399" />
      <stop
         style="stop-color:#ffffff;stop-opacity:0;"
         offset="1"
         id="stop2401" />
    </linearGradient>
    <linearGradient
       id="linearGradient2435">
      <stop
         style="stop-color:#f8ead2;stop-opacity:1;"
         offset="0"
         id="stop2437" />
      <stop
         id="stop2439"
         offset="0.63728112"
         style="stop-color:#cfb07f;stop-opacity:1;" />
      <stop
         style="stop-color:#454545;stop-opacity:1;"
         offset="1"
         id="stop2441" />
    </linearGradient>
    <radialGradient
       inkscape:collect="always"
       xlink:href="#linearGradient2435"
       id="radialGradient3213"
       cx="76.76458"
       cy="45.899078"
       fx="76.76458"
       fy="45.899078"
       r="62.601533"
       gradientUnits="userSpaceOnUse"
       gradientTransform="matrix(1.6999576,-3.4084247e-8,3.0968691e-8,1.5445689,-49.118207,-26.815806)" />
    <linearGradient
       inkscape:collect="always"
       xlink:href="#linearGradient2397"
       id="linearGradient2403"
       x1="59.285713"
       y1="-17.006088"
       x2="59.285713"
       y2="77.285713"
       gradientUnits="userSpaceOnUse" />
    <radialGradient
       inkscape:collect="always"
       xlink:href="#linearGradient3168"
       id="radialGradient3166"
       gradientUnits="userSpaceOnUse"
       gradientTransform="matrix(2.1227868,-2.2895253e-8,1.8965383e-8,1.7584198,-82.101641,-34.649146)"
       cx="82.900444"
       cy="39.897297"
       fx="82.900444"
       fy="39.897297"
       r="62.601533" />
    <linearGradient
       inkscape:collect="always"
       xlink:href="#linearGradient2397"
       id="linearGradient3176"
       gradientUnits="userSpaceOnUse"
       x1="59.285713"
       y1="-2.7352989"
       x2="59.285713"
       y2="86.582855" />
  </defs>
  <sodipodi:namedview
     id="base"
     pagecolor="#ffffff"
     bordercolor="#666666"
     borderopacity="1.0"
     inkscape:pageopacity="0.0"
     inkscape:pageshadow="2"
     inkscape:zoom="1.4"
     inkscape:cx="66.33896"
     inkscape:cy="69.821084"
     inkscape:document-units="px"
     inkscape:current-layer="layer1"
     showgrid="false"
     inkscape:showpageshadow="false"
     inkscape:window-width="1280"
     inkscape:window-height="956"
     inkscape:window-x="2"
     inkscape:window-y="45" />
  <metadata
     id="metadata7">
    <rdf:RDF>
      <cc:Work
         rdf:about="">
        <dc:format>image/svg+xml</dc:format>
        <dc:type
           rdf:resource="http://purl.org/dc/dcmitype/StillImage" />
      </cc:Work>
    </rdf:RDF>
  </metadata>
  <g
     inkscape:label="Ebene 1"
     inkscape:groupmode="layer"
     id="layer1">
    <rect
       style="opacity:0.59500002;fill:#ffffff;fill-opacity:1;fill-rule:nonzero;stroke:none;stroke-width:0.30000001;stroke-linejoin:miter;marker:none;marker-start:none;marker-mid:none;marker-end:none;stroke-miterlimit:4;stroke-dasharray:none;stroke-dashoffset:0;stroke-opacity:1;visibility:visible;display:inline;overflow:visible;enable-background:accumulate"
       id="rect3326"
       width="0.17703044"
       height="0"
       x="62.65099"
       y="69.556252"
       rx="0.60764515"
       ry="0" />
    <rect
       style="opacity:0.59500002;fill:#ffffff;fill-opacity:1;fill-rule:nonzero;stroke:none;stroke-width:0.30000001;stroke-linejoin:miter;marker:none;marker-start:none;marker-mid:none;marker-end:none;stroke-miterlimit:4;stroke-dasharray:none;stroke-dashoffset:0;stroke-opacity:1;visibility:visible;display:inline;overflow:visible;enable-background:accumulate"
       id="rect6725"
       width="0.28655165"
       height="0"
       x="26.769144"
       y="50.854515"
       rx="0.98356944"
       ry="0" />
    <path
       style="fill:url(#radialGradient3166);fill-opacity:1;stroke:#886839;stroke-width:3;stroke-linecap:round;stroke-linejoin:round;stroke-miterlimit:4;stroke-dasharray:none;stroke-opacity:1"
       d="M 47.779756,14.080473 C 46.263921,14.080473 47.874514,36.60236 47.884656,47.858431 C 36.613904,47.837133 14.080472,46.099452 14.080472,47.779755 L 14.080472,80.220232 C 14.080472,81.142148 36.596337,80.195743 47.858431,80.194006 C 47.837131,91.438543 46.425388,113.91953 47.779756,113.91953 L 80.220231,113.91953 C 82.173659,113.91953 80.195751,91.438613 80.194005,80.194006 C 91.432708,80.197428 113.91953,81.568326 113.91953,80.220232 L 113.91953,47.779755 C 113.91953,45.981692 91.432595,47.874462 80.194005,47.884656 C 80.197426,36.619736 82.343837,14.080473 80.220231,14.080473 L 47.779756,14.080473 z"
       id="rect3467"
       sodipodi:nodetypes="ccsscsscsscss" />
    <path
       sodipodi:type="inkscape:offset"
       inkscape:radius="2.6310067"
       inkscape:original="M 47.78125 14.09375 C 46.265416 14.09375 47.864858 36.587679 47.875 47.84375 C 36.604249 47.82245 14.09375 46.100947 14.09375 47.78125 L 14.09375 70.21875 C 46.127878 64.976958 89.100788 62.565265 113.90625 61.53125 L 113.90625 47.78125 C 113.90625 45.983187 91.42609 47.864806 80.1875 47.875 C 80.190918 36.610081 82.342356 14.09375 80.21875 14.09375 L 47.78125 14.09375 z "
       style="fill:url(#linearGradient3176);fill-opacity:1;stroke:none;stroke-width:5.23186254999999978;stroke-linecap:round;stroke-linejoin:round;stroke-miterlimit:4;stroke-dasharray:none;stroke-opacity:1"
       id="path2395"
       d="M 47.78125,11.46875 C 46.920498,11.46875 46.131133,11.949045 45.75,12.34375 C 45.368867,12.738455 45.239112,13.045364 45.125,13.3125 C 44.896776,13.846772 44.818564,14.225135 44.75,14.65625 C 44.612873,15.51848 44.564318,16.52064 44.53125,17.71875 C 44.465113,20.114971 44.518619,23.278769 44.625,26.8125 C 44.810254,32.966208 45.071424,39.732302 45.15625,45.125 C 39.761784,45.029928 33.006968,44.726575 26.84375,44.53125 C 23.304602,44.419087 20.097719,44.358895 17.6875,44.4375 C 16.482391,44.476802 15.509702,44.560975 14.625,44.71875 C 14.182649,44.797638 13.771234,44.86235 13.21875,45.125 C 12.942508,45.256325 12.625256,45.44153 12.25,45.84375 C 11.874744,46.24597 11.46875,46.994433 11.46875,47.78125 L 11.46875,70.21875 C 11.469321,70.99164 11.809667,71.725193 12.399452,72.224705 C 12.989238,72.724217 13.76881,72.939167 14.53125,72.8125 C 46.322242,67.610493 89.26954,65.188441 114.03125,64.15625 C 115.43053,64.086356 116.52966,62.932279 116.53125,61.53125 L 116.53125,47.78125 C 116.53125,47.039769 116.1738,46.320585 115.8125,45.90625 C 115.4512,45.491915 115.12587,45.268232 114.84375,45.125 C 114.27952,44.838537 113.85617,44.772736 113.40625,44.6875 C 112.50641,44.517029 111.52024,44.446607 110.3125,44.40625 C 107.89701,44.325535 104.69069,44.407016 101.15625,44.53125 C 95.003899,44.747503 88.276657,45.057035 82.90625,45.15625 C 83.016273,39.787279 83.385707,33.047022 83.625,26.875 C 83.762437,23.330129 83.853495,20.130535 83.75,17.6875 C 83.698253,16.465983 83.619406,15.441312 83.40625,14.5 C 83.299672,14.029344 83.163262,13.582888 82.8125,13 C 82.461738,12.417112 81.513819,11.46875 80.21875,11.46875 L 47.78125,11.46875 z" />
  </g>
</svg>
