<?xml version="1.0" encoding="UTF-8" standalone="no"?>
<!-- Created with Inkscape (http://www.inkscape.org/) -->

<svg
   xmlns:dc="http://purl.org/dc/elements/1.1/"
   xmlns:cc="http://creativecommons.org/ns#"
   xmlns:rdf="http://www.w3.org/1999/02/22-rdf-syntax-ns#"
   xmlns:svg="http://www.w3.org/2000/svg"
   xmlns="http://www.w3.org/2000/svg"
   xmlns:xlink="http://www.w3.org/1999/xlink"
   xmlns:sodipodi="http://sodipodi.sourceforge.net/DTD/sodipodi-0.dtd"
   xmlns:inkscape="http://www.inkscape.org/namespaces/inkscape"
   width="128"
   height="128"
   id="svg2"
   sodipodi:version="0.32"
   inkscape:version="0.47 r22583"
   version="1.0"
   sodipodi:docname="object-flip-vertical.svg"
   inkscape:output_extension="org.inkscape.output.svg.inkscape">
  <defs
     id="defs4">
    <linearGradient
       id="linearGradient3353">
      <stop
         style="stop-color: rgb(248, 234, 210); stop-opacity: 1;"
         offset="0"
         id="stop3355" />
      <stop
         id="stop3357"
         offset="0.49339131"
         style="stop-color: rgb(207, 176, 127); stop-opacity: 1;" />
      <stop
         style="stop-color:#454545;stop-opacity:1;"
         offset="1"
         id="stop3359" />
    </linearGradient>
    <filter
       id="filter3877"
       inkscape:collect="always">
      <feGaussianBlur
         id="feGaussianBlur3879"
         stdDeviation="3.1325"
         inkscape:collect="always" />
    </filter>
    <linearGradient
       id="linearGradient3837">
      <stop
         id="stop3839"
         offset="0"
         style="stop-color:#f8ead2;stop-opacity:1;" />
      <stop
         style="stop-color:#cfb07f;stop-opacity:1;"
         offset="0.45066544"
         id="stop3841" />
      <stop
         id="stop3843"
         offset="1"
         style="stop-color:#454545;stop-opacity:1;" />
    </linearGradient>
    <linearGradient
       id="linearGradient3851"
       inkscape:collect="always">
      <stop
         id="stop3853"
         offset="0"
         style="stop-color:#ffffff;stop-opacity:1;" />
      <stop
         id="stop3855"
         offset="1"
         style="stop-color:#ffffff;stop-opacity:0;" />
    </linearGradient>
    <linearGradient
       id="linearGradient3861"
       inkscape:collect="always">
      <stop
         id="stop3863"
         offset="0"
         style="stop-color:#ffffff;stop-opacity:1;" />
      <stop
         id="stop3865"
         offset="1"
         style="stop-color:#ffffff;stop-opacity:0;" />
    </linearGradient>
    <linearGradient
       inkscape:collect="always"
       xlink:href="#linearGradient3861"
       id="linearGradient3210"
       gradientUnits="userSpaceOnUse"
       x1="11.640471"
       y1="143.80205"
       x2="126.20852"
       y2="2.885771"
       gradientTransform="matrix(0.63479377,0,0,0.63479377,23.30177,23.373199)" />
    <radialGradient
       inkscape:collect="always"
       xlink:href="#linearGradient3353"
       id="radialGradient3337"
       gradientUnits="userSpaceOnUse"
       gradientTransform="matrix(1.9088679,0,2.7443924e-8,1.3598521,-4.9998443,-1.228865)"
       cx="32.514362"
       cy="32.666306"
       fx="32.514362"
       fy="32.666306"
       r="49.94025" />
    <linearGradient
       inkscape:collect="always"
       xlink:href="#linearGradient3861"
       id="linearGradient3341"
       gradientUnits="userSpaceOnUse"
       gradientTransform="matrix(0.63479377,0,0,0.63479377,23.30177,23.373199)"
       x1="107.875"
       y1="3.8020482"
       x2="20.125"
       y2="107.875" />
    <radialGradient
       inkscape:collect="always"
       xlink:href="#linearGradient3837"
       id="radialGradient3349"
       gradientUnits="userSpaceOnUse"
       gradientTransform="matrix(1.3475318,-1.4533764e-8,1.2039107e-8,1.1162339,-28.81584,1.378137)"
       cx="127.0331"
       cy="-3.7212999"
       fx="127.0331"
       fy="-3.7212999"
       r="62.601533" />
    <linearGradient
       inkscape:collect="always"
       xlink:href="#linearGradient3851"
       id="linearGradient3361"
       gradientUnits="userSpaceOnUse"
       gradientTransform="matrix(0.63479377,0,0,0.63479377,23.30177,23.373199)"
       x1="239.01529"
       y1="7.6338682"
       x2="-48.136803"
       y2="79.393623" />
    <radialGradient
       inkscape:collect="always"
       xlink:href="#linearGradient3837"
       id="radialGradient2872"
       gradientUnits="userSpaceOnUse"
       gradientTransform="matrix(1.3475318,-1.4533764e-8,1.2039107e-8,1.1162339,-28.81584,1.378137)"
       cx="127.0331"
       cy="-3.7212999"
       fx="127.0331"
       fy="-3.7212999"
       r="62.601533" />
    <radialGradient
       inkscape:collect="always"
       xlink:href="#linearGradient3353"
       id="radialGradient2874"
       gradientUnits="userSpaceOnUse"
       gradientTransform="matrix(1.9088679,0,2.7443924e-8,1.3598521,-4.9998443,-1.228865)"
       cx="32.514362"
       cy="32.666306"
       fx="32.514362"
       fy="32.666306"
       r="49.94025" />
    <linearGradient
       inkscape:collect="always"
       xlink:href="#linearGradient3851"
       id="linearGradient2876"
       gradientUnits="userSpaceOnUse"
       gradientTransform="matrix(0.63479377,0,0,0.63479377,23.30177,23.373199)"
       x1="239.01529"
       y1="7.6338682"
       x2="-48.136803"
       y2="79.393623" />
    <linearGradient
       inkscape:collect="always"
       xlink:href="#linearGradient3861"
       id="linearGradient2878"
       gradientUnits="userSpaceOnUse"
       gradientTransform="matrix(0.63479377,0,0,0.63479377,23.30177,23.373199)"
       x1="11.640471"
       y1="143.80205"
       x2="126.20852"
       y2="2.885771" />
    <linearGradient
       inkscape:collect="always"
       xlink:href="#linearGradient3861"
       id="linearGradient2880"
       gradientUnits="userSpaceOnUse"
       gradientTransform="matrix(0.63479377,0,0,0.63479377,23.30177,23.373199)"
       x1="107.875"
       y1="3.8020482"
       x2="20.125"
       y2="107.875" />
  </defs>
  <sodipodi:namedview
     id="base"
     pagecolor="#ffffff"
     bordercolor="#666666"
     borderopacity="1.0"
     inkscape:pageopacity="0.0"
     inkscape:pageshadow="2"
     inkscape:zoom="2.8"
     inkscape:cx="29.528652"
     inkscape:cy="64.347899"
     inkscape:document-units="px"
     inkscape:current-layer="g2929"
     showgrid="false"
     inkscape:showpageshadow="false"
     inkscape:window-width="1024"
     inkscape:window-height="718"
     inkscape:window-x="0"
     inkscape:window-y="26"
     inkscape:window-maximized="1" />
  <metadata
     id="metadata7">
    <rdf:RDF>
      <cc:Work
         rdf:about="">
        <dc:format>image/svg+xml</dc:format>
        <dc:type
           rdf:resource="http://purl.org/dc/dcmitype/StillImage" />
      </cc:Work>
    </rdf:RDF>
  </metadata>
  <g
     inkscape:label="Ebene 1"
     inkscape:groupmode="layer"
     id="layer1">
    <rect
       style="opacity:0.59500002;fill:#ffffff;fill-opacity:1;fill-rule:nonzero;stroke:none;stroke-width:0.30000001;stroke-linejoin:miter;marker:none;marker-start:none;marker-mid:none;marker-end:none;stroke-miterlimit:4;stroke-dasharray:none;stroke-dashoffset:0;stroke-opacity:1;visibility:visible;display:inline;overflow:visible;enable-background:accumulate"
       id="rect3326"
       width="0.17703044"
       height="0"
       x="62.65099"
       y="69.556252"
       rx="0.60764515"
       ry="0" />
    <rect
       style="opacity:0.59500002;fill:#ffffff;fill-opacity:1;fill-rule:nonzero;stroke:none;stroke-width:0.30000001;stroke-linejoin:miter;marker:none;marker-start:none;marker-mid:none;marker-end:none;stroke-miterlimit:4;stroke-dasharray:none;stroke-dashoffset:0;stroke-opacity:1;visibility:visible;display:inline;overflow:visible;enable-background:accumulate"
       id="rect6725"
       width="0.28655165"
       height="0"
       x="26.769144"
       y="50.854515"
       rx="0.98356944"
       ry="0" />
    <g
       id="g2929"
       transform="translate(-4.3595125,-16.659723)">
      <rect
         style="opacity:0.59500002;fill:#ffffff;fill-opacity:1;fill-rule:nonzero;stroke:none;stroke-width:0.30000001;marker:none;visibility:visible;display:inline;overflow:visible;enable-background:accumulate"
         id="rect3326-6"
         width="0.11237782"
         height="0"
         x="67.43174"
         y="84.186798"
         rx="0.38572937"
         ry="0" />
      <rect
         style="opacity:0.59500002;fill:#ffffff;fill-opacity:1;fill-rule:nonzero;stroke:none;stroke-width:0.30000001;marker:none;visibility:visible;display:inline;overflow:visible;enable-background:accumulate"
         id="rect6725-7"
         width="0.1819012"
         height="0"
         x="44.654167"
         y="72.315048"
         rx="0.62436378"
         ry="0" />
      <g
         id="g2916"
         transform="matrix(0,0.63479377,0.63479377,0,-59.99088,28.44744)">
        <g
           transform="translate(-2.8109021,0)"
           inkscape:label="Ebene 1"
           id="layer1-9">
          <g
             id="g2844"
             transform="translate(-2.8571427,0.40178724)" />
        </g>
      </g>
      <g
         id="g2865"
         transform="matrix(0,0.97616925,-0.97616925,0,147.09705,13.486942)">
        <path
           id="path3869"
           transform="translate(4.3595125,16.659723)"
           d="m 38.65625,43.59375 -17.0625,10.3125 -17.0625,10.28125 34.125,20.21875 0,-8 0,-5.375 L 53.6875,71 l 20.53125,0 16.0625,0.03125 0,5.375 0,8 L 124.375,64.1875 107.3125,53.90625 90.25,43.59375 90.25,52 l 0,4.96875 -16.03125,0.0625 -20.53125,0 -15.03125,-0.0625 0,-4.96875 0,-8.40625 z"
           style="fill:url(#radialGradient2872);fill-opacity:1;stroke:none;filter:url(#filter3877)" />
        <path
           id="path4329"
           transform="translate(4.3595125,16.659723)"
           d="m 38.65625,43.59375 -17.0625,10.3125 -17.0625,10.28125 34.125,20.21875 0,-8 0,-5.375 L 53.6875,71 l 20.53125,0 16.0625,0.03125 0,5.375 0,8 L 124.375,64.1875 107.3125,53.90625 90.25,43.59375 90.25,52 l 0,4.96875 -16.03125,0.0625 -20.53125,0 -15.03125,-0.0625 0,-4.96875 0,-8.40625 z"
           style="fill:url(#radialGradient2874);fill-opacity:1;fill-rule:nonzero;stroke:#886839;stroke-width:0.80254436;stroke-linecap:butt;stroke-linejoin:round;stroke-miterlimit:4;stroke-opacity:1;stroke-dasharray:none;stroke-dashoffset:0;marker:none;visibility:visible;display:inline;overflow:visible" />
        <path
           sodipodi:nodetypes="cccccccccccsccccccsc"
           id="path3845"
           transform="translate(4.3595125,16.659723)"
           d="m 38.59375,43.1875 c -0.04756,0.0084 -0.08283,0.03609 -0.125,0.0625 L 21.40625,53.53125 4.34375,63.84375 C 4.2711279,63.886257 4.222009,63.92362 4.1875,64 l 34.875,-0.96875 c 0,0 50.8125,0.1875 50.8125,0.1875 11.62039,0.306103 23.25072,0.529461 34.875,0.78125 -0.0345,-0.07638 -0.0837,-0.113743 -0.15625,-0.15625 L 107.53125,53.53125 90.46875,43.25 c -0.08434,-0.05282 -0.185212,-0.08364 -0.28125,-0.0625 -0.183717,0.04058 -0.31526,0.20845 -0.3125,0.40625 l 0,12.875 -15.65625,0.0625 L 53.6875,56.5 l -14.625,-0.03125 0,-12.875 c 0.0028,-0.1978 -0.128783,-0.36567 -0.3125,-0.40625 -0.04802,-0.01057 -0.108685,-0.0084 -0.15625,0 z"
           style="fill:url(#linearGradient2876);fill-opacity:1;stroke:none" />
        <path
           id="path3859"
           transform="translate(4.3595125,16.659723)"
           d="m 37.90625,44.96875 -15.9375,9.625 -15.90625,9.59375 31.8125,18.84375 0,-6.625 0,-6.34375 15.8125,0 20.53125,0 16.8125,0 0,6.34375 0,6.625 31.8125,-18.84375 -15.90625,-9.59375 -15.90625,-9.625 0,7.03125 0,5.9375 L 74.21875,58 53.6875,57.96875 37.90625,57.9375 l 0,-5.9375 0,-7.03125 z"
           style="fill:none;stroke:url(#linearGradient2878);stroke-width:1.00424373;stroke-linecap:round;stroke-linejoin:round;stroke-miterlimit:4;stroke-opacity:1" />
        <path
           transform="translate(4.3595125,16.659723)"
           id="path3881"
           d="M 38.09375,44.625 21.875,54.40625 5.6875,64.1875 38.09375,83.375 l 0,-6.96875 0,-6.09375 15.59375,-0.03125 20.53125,0 16.625,0.03125 0,6.09375 0,6.96875 L 123.25,64.1875 107.03125,54.40625 90.8125,44.625 l 0,7.375 0,5.71875 L 74.21875,57.75 53.6875,57.71875 38.09375,57.6875 l 0,-5.6875 0,-7.375 z"
           style="fill:none;stroke:url(#linearGradient2880);stroke-width:0.31739688;stroke-linecap:round;stroke-linejoin:round;stroke-miterlimit:4;stroke-opacity:1" />
      </g>
    </g>
  </g>
</svg>
