<?xml version="1.0" encoding="UTF-8" standalone="no"?>
<!-- Created with Inkscape (http://www.inkscape.org/) -->

<svg
   xmlns:dc="http://purl.org/dc/elements/1.1/"
   xmlns:cc="http://creativecommons.org/ns#"
   xmlns:rdf="http://www.w3.org/1999/02/22-rdf-syntax-ns#"
   xmlns:svg="http://www.w3.org/2000/svg"
   xmlns="http://www.w3.org/2000/svg"
   xmlns:xlink="http://www.w3.org/1999/xlink"
   xmlns:sodipodi="http://sodipodi.sourceforge.net/DTD/sodipodi-0.dtd"
   xmlns:inkscape="http://www.inkscape.org/namespaces/inkscape"
   width="128"
   height="128"
   id="svg2383"
   sodipodi:version="0.32"
   inkscape:version="0.47 r22583"
   sodipodi:docname="object-rotate-right_.svg"
   inkscape:output_extension="org.inkscape.output.svg.inkscape"
   version="1.0">
  <defs
     id="defs2385">
    <linearGradient
       id="linearGradient3742">
      <stop
         style="stop-color:#f8ead2;stop-opacity:1;"
         offset="0"
         id="stop3744" />
      <stop
         id="stop3746"
         offset="0.45701751"
         style="stop-color:#cfb07f;stop-opacity:1;" />
      <stop
         style="stop-color:#454545;stop-opacity:1;"
         offset="1"
         id="stop3748" />
    </linearGradient>
    <linearGradient
       id="linearGradient2491"
       inkscape:collect="always">
      <stop
         id="stop2493"
         offset="0"
         style="stop-color:#ffffff;stop-opacity:1;" />
      <stop
         id="stop2495"
         offset="1"
         style="stop-color:#ffffff;stop-opacity:0;" />
    </linearGradient>
    <linearGradient
       inkscape:collect="always"
       xlink:href="#linearGradient3742"
       id="linearGradient2968"
       gradientUnits="userSpaceOnUse"
       gradientTransform="matrix(2.1912196,-1.740366,1.7404593,2.191337,-36.11428,87.29385)"
       x1="30.449581"
       y1="-2.4937036"
       x2="31.169819"
       y2="49.30769" />
    <linearGradient
       inkscape:collect="always"
       xlink:href="#linearGradient2491"
       id="linearGradient3782"
       gradientUnits="userSpaceOnUse"
       gradientTransform="matrix(2.1912196,-1.740366,1.7404593,2.191337,-44.24974,82.004869)"
       x1="76.963196"
       y1="27.352827"
       x2="16.023386"
       y2="41.929508" />
    <linearGradient
       inkscape:collect="always"
       xlink:href="#linearGradient2491"
       id="linearGradient3792"
       x1="152.59973"
       y1="179.95119"
       x2="-18.276798"
       y2="-70.718163"
       gradientUnits="userSpaceOnUse" />
    <linearGradient
       inkscape:collect="always"
       xlink:href="#linearGradient2491"
       id="linearGradient3796"
       gradientUnits="userSpaceOnUse"
       x1="-0.84244198"
       y1="69.762383"
       x2="152.13594"
       y2="158.38443" />
    <filter
       inkscape:collect="always"
       id="filter3818">
      <feGaussianBlur
         inkscape:collect="always"
         stdDeviation="3.0879701"
         id="feGaussianBlur3820" />
    </filter>
    <linearGradient
       inkscape:collect="always"
       xlink:href="#linearGradient3742"
       id="linearGradient2841"
       gradientUnits="userSpaceOnUse"
       gradientTransform="matrix(2.1912196,-1.740366,1.7404593,2.191337,-36.11428,87.29385)"
       x1="30.449581"
       y1="-2.4937036"
       x2="31.169819"
       y2="49.30769" />
    <linearGradient
       inkscape:collect="always"
       xlink:href="#linearGradient2491"
       id="linearGradient2843"
       gradientUnits="userSpaceOnUse"
       gradientTransform="matrix(2.1912196,-1.740366,1.7404593,2.191337,-44.24974,82.004869)"
       x1="76.963196"
       y1="27.352827"
       x2="16.023386"
       y2="41.929508" />
    <linearGradient
       inkscape:collect="always"
       xlink:href="#linearGradient2491"
       id="linearGradient2845"
       gradientUnits="userSpaceOnUse"
       x1="152.59973"
       y1="179.95119"
       x2="-18.276798"
       y2="-70.718163" />
    <linearGradient
       inkscape:collect="always"
       xlink:href="#linearGradient2491"
       id="linearGradient2847"
       gradientUnits="userSpaceOnUse"
       x1="-0.84244198"
       y1="69.762383"
       x2="152.13594"
       y2="158.38443" />
  </defs>
  <sodipodi:namedview
     id="base"
     pagecolor="#ffffff"
     bordercolor="#666666"
     borderopacity="1.0"
     inkscape:pageopacity="0.0"
     inkscape:pageshadow="2"
     inkscape:zoom="2"
     inkscape:cx="94.516313"
     inkscape:cy="60.929016"
     inkscape:current-layer="g3234"
     showgrid="true"
     inkscape:grid-bbox="true"
     inkscape:document-units="px"
     inkscape:window-width="1024"
     inkscape:window-height="718"
     inkscape:window-x="0"
     inkscape:window-y="26"
     inkscape:showpageshadow="false"
     showborder="true"
     inkscape:window-maximized="1"
     showguides="true"
     inkscape:guide-bbox="true" />
  <metadata
     id="metadata2388">
    <rdf:RDF>
      <cc:Work
         rdf:about="">
        <dc:format>image/svg+xml</dc:format>
        <dc:type
           rdf:resource="http://purl.org/dc/dcmitype/StillImage" />
      </cc:Work>
    </rdf:RDF>
  </metadata>
  <g
     id="layer1"
     inkscape:label="Layer 1"
     inkscape:groupmode="layer"
     transform="translate(-6.65699,-8.0236645)">
    <text
       xml:space="preserve"
       style="font-size:16px;font-style:normal;font-variant:normal;font-weight:bold;font-stretch:normal;text-align:start;line-height:125%;writing-mode:lr-tb;text-anchor:start;fill:#000000;fill-opacity:1;stroke:none;stroke-width:1px;stroke-linecap:butt;stroke-linejoin:miter;stroke-opacity:1;font-family:Purisa;-inkscape-font-specification:Purisa Bold"
       x="6.2857141"
       y="9.7142859"
       id="text2404"
       sodipodi:linespacing="125%"
       transform="translate(-6.0587764,7.421875)"><tspan
         sodipodi:role="line"
         id="tspan2406"
         x="6.2857141"
         y="9.7142859" /></text>
    <g
       id="g3234"
       transform="translate(134.71067,-2.9867885)">
      <g
         id="g2834"
         transform="matrix(-1,0,0,1,-128.10736,0)">
        <path
           sodipodi:type="inkscape:offset"
           inkscape:radius="-0.98500264"
           inkscape:original="M 42.53125 12.8125 L 35.8125 33.59375 L 29.0625 54.40625 L 71.84375 46.625 L 66.09375 40.03125 L 65.25 39.0625 C 75.577412 38.728963 85.89184 43.036495 92.8125 51.75 C 104.45741 66.411611 102.09832 87.761965 87.4375 99.40625 C 72.776679 111.05053 51.332413 108.59911 39.6875 93.9375 L 25.59375 105.15625 C 43.435942 127.62058 76.161876 131.37249 98.625 113.53125 C 121.08812 95.69002 124.7797 62.995576 106.9375 40.53125 C 93.344409 23.416777 71.170861 17.207611 51.4375 23.09375 L 48.59375 19.78125 L 42.53125 12.8125 z "
           style="opacity:0.8;fill:#454545;fill-opacity:1;fill-rule:evenodd;stroke:none;filter:url(#filter3818)"
           id="path3798"
           d="M 42.9375,14.78125 36.75,33.90625 30.5,53.125 69.9375,45.96875 65.34375,40.6875 64.5,39.71875 a 0.98510114,0.98510114 0 0 1 0.71875,-1.65625 c 10.622027,-0.343052 21.256225,4.099557 28.375,13.0625 11.97485,15.077026 9.54845,37.08552 -5.53125,49.0625 -14.81474,11.76653 -36.357759,9.47519 -48.46875,-4.90625 l -12.5625,10 C 44.673071,126.63241 76.217094,130.05098 98,112.75 120.04535,95.240579 123.66781,63.204284 106.15625,41.15625 92.815456,24.359433 71.076607,18.257118 51.71875,24.03125 A 0.98510114,0.98510114 0 0 1 50.6875,23.75 L 47.84375,20.4375 42.9375,14.78125 z"
           transform="translate(-136.18914,5.7214716)" />
        <path
           transform="translate(-136.18914,5.7214716)"
           d="M 42.9375,14.78125 36.75,33.90625 30.5,53.125 69.9375,45.96875 65.34375,40.6875 64.5,39.71875 a 0.98510114,0.98510114 0 0 1 0.71875,-1.65625 c 10.622027,-0.343052 21.256225,4.099557 28.375,13.0625 11.97485,15.077026 9.54845,37.08552 -5.53125,49.0625 -14.81474,11.76653 -36.357759,9.47519 -48.46875,-4.90625 l -12.5625,10 C 44.673071,126.63241 76.217094,130.05098 98,112.75 120.04535,95.240579 123.66781,63.204284 106.15625,41.15625 92.815456,24.359433 71.076607,18.257118 51.71875,24.03125 A 0.98510114,0.98510114 0 0 1 50.6875,23.75 L 47.84375,20.4375 42.9375,14.78125 z"
           id="path2966"
           style="fill:url(#linearGradient2841);fill-opacity:1;fill-rule:evenodd;stroke:#886839;stroke-width:1.528;stroke-linecap:butt;stroke-linejoin:round;stroke-miterlimit:4;stroke-opacity:1;stroke-dasharray:none"
           inkscape:original="M 42.53125 12.8125 L 35.8125 33.59375 L 29.0625 54.40625 L 71.84375 46.625 L 66.09375 40.03125 L 65.25 39.0625 C 75.577412 38.728963 85.89184 43.036495 92.8125 51.75 C 104.45741 66.411611 102.09832 87.761965 87.4375 99.40625 C 72.776679 111.05053 51.332413 108.59911 39.6875 93.9375 L 25.59375 105.15625 C 43.435942 127.62058 76.161876 131.37249 98.625 113.53125 C 121.08812 95.69002 124.7797 62.995576 106.9375 40.53125 C 93.344409 23.416777 71.170861 17.207611 51.4375 23.09375 L 48.59375 19.78125 L 42.53125 12.8125 z "
           inkscape:radius="-0.98500264"
           sodipodi:type="inkscape:offset" />
        <path
           id="path3750"
           transform="translate(-128.05368,11.010453)"
           d="m 34.5,8 -6.59375,20.375 -6.625,20.4375 1.09375,-0.1875 c 5.583328,-10.679324 15.852765,-18.89716 27.59375,-21.71875 13.553798,-3.257245 28.613402,0.743567 38.75,10.3125 6.274223,5.922856 10.675892,13.828324 12.40625,22.28125 2.38597,11.655614 -0.38492,24.196044 -7.125,34 -5.074308,7.38097 -12.379297,13.26324 -20.8125,16.28125 -6.913528,2.47416 -14.510123,2.99163 -21.71875,1.59375 C 44.260123,109.97713 37.453146,106.70122 31.8125,102 29.143084,99.775164 26.737767,97.240831 24.375,94.6875 l -6.5625,5.21875 c 17.793714,22.19047 50.235482,25.86457 72.53125,8.15625 C 112.70354,90.303337 116.38542,57.767614 98.625,35.40625 85.09431,18.370344 63.015487,12.172814 43.375,18.03125 A 0.24364698,0.24364698 0 0 1 43.34375,18.0625 0.24364698,0.24364698 0 0 1 43.15625,18 0.24364698,0.24364698 0 0 1 43.125,17.96875 L 40.28125,14.65625 34.5,8 z"
           style="fill:url(#linearGradient2843);fill-opacity:1;fill-rule:evenodd;stroke:none" />
        <path
           sodipodi:type="inkscape:offset"
           inkscape:radius="-2.4731505"
           inkscape:original="M 42.53125 12.8125 L 35.8125 33.59375 L 29.0625 54.40625 L 71.84375 46.625 L 66.09375 40.03125 L 65.25 39.0625 C 75.577412 38.728963 85.89184 43.036495 92.8125 51.75 C 104.45741 66.411611 102.09832 87.761965 87.4375 99.40625 C 72.776679 111.05053 51.332413 108.59911 39.6875 93.9375 L 25.59375 105.15625 C 43.435942 127.62058 76.161876 131.37249 98.625 113.53125 C 121.08812 95.69002 124.7797 62.995576 106.9375 40.53125 C 93.344409 23.416777 71.170861 17.207611 51.4375 23.09375 L 48.59375 19.78125 L 42.53125 12.8125 z "
           style="fill:none;stroke:url(#linearGradient2845);stroke-width:1.528;stroke-linecap:butt;stroke-linejoin:round;stroke-miterlimit:4;stroke-opacity:1;stroke-dasharray:none"
           id="path3784"
           d="m 43.53125,17.75 -5.375,16.59375 -5.46875,16.875 34.40625,-6.25 -2.875,-3.3125 L 63.375,40.6875 a 2.4733978,2.4733978 0 0 1 1.78125,-4.09375 c 11.067132,-0.357427 22.175662,4.285205 29.59375,13.625 12.47333,15.704637 9.9313,38.645384 -5.78125,51.125 C 73.920314,113.29589 52.277206,111.23674 39.5,97.25 l -10.34375,8.21875 c 17.302782,19.7165 47.171321,22.61845 67.9375,6.125 C 118.50794,94.585627 122.01203,63.481598 105,42.0625 92.040378,25.745601 70.946793,19.863838 52.15625,25.46875 a 2.4733978,2.4733978 0 0 1 -2.59375,-0.75 L 46.71875,21.40625 43.53125,17.75 z"
           transform="translate(-136.18914,5.7214716)" />
        <path
           transform="translate(-136.18914,5.7214716)"
           d="m 43.3125,16.6875 -5.65625,17.5 -5.75,17.71875 36.21875,-6.5625 -3.5,-4.03125 -0.84375,-0.96875 A 1.9464079,1.9464079 0 0 1 65.1875,37.125 c 10.909525,-0.352337 21.844146,4.199894 29.15625,13.40625 12.29682,15.482406 9.80097,38.104612 -5.6875,50.40625 -14.963417,11.88462 -36.578024,9.74236 -49.125,-4.375 l -11.125,8.84375 c 17.428496,20.28417 47.877118,23.37051 69,6.59375 21.63768,-17.185627 25.18891,-48.608202 8,-70.25 C 92.311659,25.263167 70.991423,19.303919 52,24.96875 A 1.9464079,1.9464079 0 0 1 49.96875,24.375 L 47.125,21.0625 43.3125,16.6875 z"
           id="path3794"
           style="fill:none;stroke:url(#linearGradient2847);stroke-width:0.5;stroke-linecap:butt;stroke-linejoin:round;stroke-miterlimit:4;stroke-opacity:1;stroke-dasharray:none"
           inkscape:original="M 42.53125 12.8125 L 35.8125 33.59375 L 29.0625 54.40625 L 71.84375 46.625 L 66.09375 40.03125 L 65.25 39.0625 C 75.577412 38.728963 85.89184 43.036495 92.8125 51.75 C 104.45741 66.411611 102.09832 87.761965 87.4375 99.40625 C 72.776679 111.05053 51.332413 108.59911 39.6875 93.9375 L 25.59375 105.15625 C 43.435942 127.62058 76.161876 131.37249 98.625 113.53125 C 121.08812 95.69002 124.7797 62.995576 106.9375 40.53125 C 93.344409 23.416777 71.170861 17.207611 51.4375 23.09375 L 48.59375 19.78125 L 42.53125 12.8125 z "
           inkscape:radius="-1.9462132"
           sodipodi:type="inkscape:offset" />
      </g>
    </g>
  </g>
</svg>
