<?xml version="1.0" encoding="UTF-8" standalone="no"?>
<!-- Created with Inkscape (http://www.inkscape.org/) -->
<svg
   xmlns:dc="http://purl.org/dc/elements/1.1/"
   xmlns:cc="http://creativecommons.org/ns#"
   xmlns:rdf="http://www.w3.org/1999/02/22-rdf-syntax-ns#"
   xmlns:svg="http://www.w3.org/2000/svg"
   xmlns="http://www.w3.org/2000/svg"
   xmlns:xlink="http://www.w3.org/1999/xlink"
   xmlns:sodipodi="http://sodipodi.sourceforge.net/DTD/sodipodi-0.dtd"
   xmlns:inkscape="http://www.inkscape.org/namespaces/inkscape"
   width="128"
   height="128"
   id="svg2"
   sodipodi:version="0.32"
   inkscape:version="0.46"
   version="1.0"
   sodipodi:docname="object-rotate-left.svg"
   inkscape:output_extension="org.inkscape.output.svg.inkscape">
  <defs
     id="defs4">
    <linearGradient
       inkscape:collect="always"
       id="linearGradient3307">
      <stop
         style="stop-color:#ffffff;stop-opacity:1;"
         offset="0"
         id="stop3309" />
      <stop
         style="stop-color:#ffffff;stop-opacity:0;"
         offset="1"
         id="stop3311" />
    </linearGradient>
    <linearGradient
       id="linearGradient3292">
      <stop
         id="stop3294"
         offset="0"
         style="stop-color:#f8ead2;stop-opacity:1;" />
      <stop
         style="stop-color:#cfb07f;stop-opacity:1;"
         offset="0.38510805"
         id="stop3296" />
      <stop
         id="stop3298"
         offset="1"
         style="stop-color:#454545;stop-opacity:1;" />
    </linearGradient>
    <linearGradient
       id="linearGradient3163">
      <stop
         style="stop-color:#f8ead2;stop-opacity:1;"
         offset="0"
         id="stop3165" />
      <stop
         id="stop3167"
         offset="0.42785573"
         style="stop-color:#cfb07f;stop-opacity:1;" />
      <stop
         style="stop-color:#454545;stop-opacity:1;"
         offset="1"
         id="stop3169" />
    </linearGradient>
    <inkscape:perspective
       sodipodi:type="inkscape:persp3d"
       inkscape:vp_x="0 : 64 : 1"
       inkscape:vp_y="0 : 1000 : 0"
       inkscape:vp_z="128 : 64 : 1"
       inkscape:persp3d-origin="64 : 42.666667 : 1"
       id="perspective15" />
    <linearGradient
       id="linearGradient3192">
      <stop
         id="stop3194"
         offset="0"
         style="stop-color:#f8ead2;stop-opacity:1;" />
      <stop
         style="stop-color:#cfb07f;stop-opacity:1;"
         offset="0.5"
         id="stop3457" />
      <stop
         id="stop3196"
         offset="1"
         style="stop-color:#454545;stop-opacity:1;" />
    </linearGradient>
    <linearGradient
       inkscape:collect="always"
       xlink:href="#linearGradient3192"
       id="linearGradient2392"
       gradientUnits="userSpaceOnUse"
       gradientTransform="matrix(0,-0.9336098,-0.9336098,0,110.18589,145.23327)"
       x1="118.26664"
       y1="71.265625"
       x2="17.16535"
       y2="71.265625" />
    <linearGradient
       inkscape:collect="always"
       xlink:href="#linearGradient3292"
       id="linearGradient3290"
       gradientUnits="userSpaceOnUse"
       gradientTransform="matrix(-0.9336098,0,0,-0.9336098,128.17078,99.920258)"
       x1="136.16368"
       y1="71.265625"
       x2="12.175911"
       y2="-0.65184706" />
    <linearGradient
       inkscape:collect="always"
       xlink:href="#linearGradient3307"
       id="linearGradient3313"
       x1="125.71757"
       y1="-15.038109"
       x2="48.48732"
       y2="86.583748"
       gradientUnits="userSpaceOnUse"
       gradientTransform="matrix(-1,0,0,1,128,0)" />
  </defs>
  <sodipodi:namedview
     id="base"
     pagecolor="#ffffff"
     bordercolor="#666666"
     borderopacity="1.0"
     inkscape:pageopacity="0.0"
     inkscape:pageshadow="2"
     inkscape:zoom="2.8"
     inkscape:cx="124.50354"
     inkscape:cy="60.637679"
     inkscape:document-units="px"
     inkscape:current-layer="g3190"
     showgrid="false"
     inkscape:showpageshadow="false"
     inkscape:window-width="1600"
     inkscape:window-height="1136"
     inkscape:window-x="-5"
     inkscape:window-y="-3"
     showguides="true"
     inkscape:guide-bbox="true" />
  <metadata
     id="metadata7">
    <rdf:RDF>
      <cc:Work
         rdf:about="">
        <dc:format>image/svg+xml</dc:format>
        <dc:type
           rdf:resource="http://purl.org/dc/dcmitype/StillImage" />
      </cc:Work>
    </rdf:RDF>
  </metadata>
  <g
     inkscape:label="Ebene 1"
     inkscape:groupmode="layer"
     id="layer1">
    <rect
       style="opacity:0.59500002;fill:#ffffff;fill-opacity:1;fill-rule:nonzero;stroke:none;stroke-width:0.30000001;stroke-linejoin:miter;marker:none;marker-start:none;marker-mid:none;marker-end:none;stroke-miterlimit:4;stroke-dasharray:none;stroke-dashoffset:0;stroke-opacity:1;visibility:visible;display:inline;overflow:visible;enable-background:accumulate"
       id="rect3326"
       width="0.17703044"
       height="0"
       x="62.65099"
       y="69.556252"
       rx="0.60764515"
       ry="0" />
    <rect
       style="opacity:0.59500002;fill:#ffffff;fill-opacity:1;fill-rule:nonzero;stroke:none;stroke-width:0.30000001;stroke-linejoin:miter;marker:none;marker-start:none;marker-mid:none;marker-end:none;stroke-miterlimit:4;stroke-dasharray:none;stroke-dashoffset:0;stroke-opacity:1;visibility:visible;display:inline;overflow:visible;enable-background:accumulate"
       id="rect6725"
       width="0.28655165"
       height="0"
       x="26.769144"
       y="50.854515"
       rx="0.98356944"
       ry="0" />
    <g
       id="g3190">
      <path
         style="opacity:1;fill:url(#linearGradient3290);fill-opacity:1;stroke:#886839;stroke-width:2;stroke-linecap:round;stroke-linejoin:round;stroke-miterlimit:4;stroke-dasharray:none;stroke-opacity:1"
         d="M 8.5044618,76.109372 L 32.254469,76.078122 C 32.285137,71.635125 32.334581,64.765744 32.410719,53.734372 C 32.38304,49.72409 32.370811,51.221405 32.348219,43.421872 C 32.345172,43.421893 32.319987,43.421851 32.316969,43.421872 L 32.316969,35.796872 C 32.288897,25.003186 32.269803,15.049623 32.254469,12.828122 L 32.316969,12.828122 L 62.848219,12.828122 C 62.848215,12.830849 62.848223,12.856622 62.848219,12.859372 C 71.530993,12.863256 78.8085,12.85366 83.223219,12.859372 C 94.253241,12.845102 115.05305,12.833872 119.49554,12.828122 L 119.49554,42.350443 C 115.05254,42.319776 94.254589,42.270331 83.223219,42.194193 C 79.189914,42.22203 70.667696,42.234004 62.816969,42.256693 C 62.813082,50.953874 62.822688,49.312884 62.816969,53.734372 C 62.831234,64.764401 62.842472,71.63563 62.848219,76.078122 L 85.348219,76.078122 L 48.285719,115.17188 L 8.5044618,76.109372 z"
         id="rect3467"
         sodipodi:nodetypes="cccccccccccccccccccc" />
      <path
         style="opacity:1;fill:url(#linearGradient3313);fill-opacity:1;stroke:none;stroke-width:2;stroke-linecap:round;stroke-linejoin:round;stroke-miterlimit:4;stroke-dasharray:none;stroke-opacity:1"
         d="M 119.6875,11.84375 C 120.14589,11.938597 120.47317,12.344424 120.46875,12.8125 L 120.46875,28.90625 C 63.670462,17.22332 23.803862,19.000779 48.656252,116.09375 C 48.544064,116.13741 48.404051,116.1875 48.281252,116.1875 C 48.016305,116.1875 47.778276,116.06513 47.593752,115.875 L 7.8125018,76.8125 C 7.5443218,76.531628 7.4761218,76.108671 7.6250018,75.75 C 7.7738818,75.391326 8.1117518,75.164639 8.5000018,75.15625 L 31.281252,75.09375 C 31.312167,70.63874 31.364666,64.271747 31.437502,53.71875 C 31.410606,49.821411 31.396453,50.792681 31.375002,43.6875 C 31.351031,43.595756 31.340505,43.501018 31.343752,43.40625 L 31.343752,35.78125 C 31.315683,24.987154 31.296485,15.019417 31.281252,12.8125 C 31.28724,12.279974 31.717476,11.849738 32.250002,11.84375 L 32.312502,11.84375 L 62.843752,11.84375 C 62.93852,11.840503 63.033258,11.851029 63.125002,11.875 C 71.648437,11.878468 78.862198,11.869363 83.218752,11.875 C 94.249703,11.860729 115.05982,11.849497 119.5,11.84375 C 119.56236,11.837756 119.62515,11.837756 119.6875,11.84375 z"
         id="path3302" />
    </g>
  </g>
</svg>
