<?xml version="1.0" encoding="UTF-8" standalone="no"?>
<!-- Created with Inkscape (http://www.inkscape.org/) -->
<svg
   xmlns:dc="http://purl.org/dc/elements/1.1/"
   xmlns:cc="http://creativecommons.org/ns#"
   xmlns:rdf="http://www.w3.org/1999/02/22-rdf-syntax-ns#"
   xmlns:svg="http://www.w3.org/2000/svg"
   xmlns="http://www.w3.org/2000/svg"
   xmlns:xlink="http://www.w3.org/1999/xlink"
   xmlns:sodipodi="http://sodipodi.sourceforge.net/DTD/sodipodi-0.dtd"
   xmlns:inkscape="http://www.inkscape.org/namespaces/inkscape"
   width="128"
   height="128"
   id="svg2"
   sodipodi:version="0.32"
   inkscape:version="0.46"
   version="1.0"
   sodipodi:docname="view-sort-ascending.svg"
   inkscape:output_extension="org.inkscape.output.svg.inkscape"
   inkscape:export-filename="/home/immanuel/MY_DATA/ARCHIVE/imagearchive/cream|desktop - artwork/cream-icons/apps/alacarte.png"
   inkscape:export-xdpi="90"
   inkscape:export-ydpi="90">
  <defs
     id="defs4">
    <linearGradient
       id="linearGradient3183">
      <stop
         id="stop3185"
         offset="0"
         style="stop-color:#f8ead2;stop-opacity:1;" />
      <stop
         style="stop-color:#cfb07f;stop-opacity:0.54385966;"
         offset="0.64700383"
         id="stop3187" />
      <stop
         id="stop3189"
         offset="1"
         style="stop-color:#454545;stop-opacity:0;" />
    </linearGradient>
    <linearGradient
       inkscape:collect="always"
       id="linearGradient3175">
      <stop
         style="stop-color:#ffffff;stop-opacity:1;"
         offset="0"
         id="stop3177" />
      <stop
         style="stop-color:#ffffff;stop-opacity:0;"
         offset="1"
         id="stop3179" />
    </linearGradient>
    <linearGradient
       id="linearGradient3313">
      <stop
         style="stop-color:#886839;stop-opacity:1;"
         offset="0"
         id="stop3315" />
      <stop
         style="stop-color:#b8956b;stop-opacity:0;"
         offset="1"
         id="stop3317" />
    </linearGradient>
    <linearGradient
       inkscape:collect="always"
       xlink:href="#linearGradient3183"
       id="linearGradient3311"
       x1="24.969654"
       y1="61.390625"
       x2="83.214012"
       y2="61.390625"
       gradientUnits="userSpaceOnUse" />
    <linearGradient
       inkscape:collect="always"
       xlink:href="#linearGradient3313"
       id="linearGradient3319"
       x1="24.969654"
       y1="61.390625"
       x2="83.214012"
       y2="61.390625"
       gradientUnits="userSpaceOnUse" />
    <linearGradient
       id="linearGradient2439">
      <stop
         style="stop-color:#f8ead2;stop-opacity:1;"
         offset="0"
         id="stop2441" />
      <stop
         id="stop2443"
         offset="0.45384613"
         style="stop-color:#cfb07f;stop-opacity:1;" />
      <stop
         style="stop-color:#454545;stop-opacity:1;"
         offset="1"
         id="stop2445" />
    </linearGradient>
    <linearGradient
       inkscape:collect="always"
       xlink:href="#linearGradient2439"
       id="linearGradient2410"
       gradientUnits="userSpaceOnUse"
       gradientTransform="matrix(2.613156,0,0,-2.1466294,-7.158914,63.754828)"
       x1="39.947517"
       y1="14.368217"
       x2="23.245422"
       y2="14.368217" />
    <linearGradient
       inkscape:collect="always"
       xlink:href="#linearGradient3175"
       id="linearGradient2412"
       gradientUnits="userSpaceOnUse"
       x1="99.969315"
       y1="55.682899"
       x2="66.034416"
       y2="58.315384" />
  </defs>
  <sodipodi:namedview
     id="base"
     pagecolor="#ffffff"
     bordercolor="#666666"
     borderopacity="1.0"
     gridtolerance="10000"
     guidetolerance="10"
     objecttolerance="10"
     inkscape:pageopacity="0.0"
     inkscape:pageshadow="2"
     inkscape:zoom="1.3435029"
     inkscape:cx="134.71658"
     inkscape:cy="30.854248"
     inkscape:document-units="px"
     inkscape:current-layer="layer1"
     showgrid="false"
     inkscape:showpageshadow="false"
     inkscape:window-width="1024"
     inkscape:window-height="600"
     inkscape:window-x="0"
     inkscape:window-y="0" />
  <metadata
     id="metadata7">
    <rdf:RDF>
      <cc:Work
         rdf:about="">
        <dc:format>image/svg+xml</dc:format>
        <dc:type
           rdf:resource="http://purl.org/dc/dcmitype/StillImage" />
      </cc:Work>
    </rdf:RDF>
  </metadata>
  <g
     inkscape:label="Layer 1"
     inkscape:groupmode="layer"
     id="layer1">
    <path
       style="opacity:1;fill:url(#linearGradient3311);fill-opacity:1;stroke:url(#linearGradient3319);stroke-width:2;stroke-linecap:round;stroke-linejoin:round;stroke-miterlimit:4;stroke-dasharray:none;stroke-opacity:1"
       d="M 18.46875 12.03125 C 16.461097 12.03125 14.84375 13.648597 14.84375 15.65625 L 14.84375 19.90625 C 14.84375 21.913903 16.461098 23.53125 18.46875 23.53125 L 22.71875 23.53125 C 24.726403 23.53125 26.34375 21.913903 26.34375 19.90625 L 26.34375 15.65625 C 26.34375 13.648597 24.726403 12.03125 22.71875 12.03125 L 18.46875 12.03125 z M 40.1875 13.3125 C 38.631659 13.3125 37.40625 14.569159 37.40625 16.125 L 37.40625 19.4375 C 37.40625 20.993341 38.63166 22.21875 40.1875 22.21875 L 86 22.21875 C 87.555841 22.21875 88.78125 20.99334 88.78125 19.4375 L 88.78125 16.125 C 88.78125 14.569159 87.555844 13.3125 86 13.3125 L 40.1875 13.3125 z M 18.46875 29.34375 C 16.461097 29.34375 14.84375 30.961095 14.84375 32.96875 L 14.84375 37.21875 C 14.84375 39.226403 16.461098 40.843749 18.46875 40.84375 L 22.71875 40.84375 C 24.726403 40.84375 26.34375 39.226404 26.34375 37.21875 L 26.34375 32.96875 C 26.34375 30.961097 24.726403 29.34375 22.71875 29.34375 L 18.46875 29.34375 z M 40.1875 30.65625 C 38.631659 30.65625 37.40625 31.91291 37.40625 33.46875 L 37.40625 36.75 C 37.40625 38.305841 38.63166 39.562499 40.1875 39.5625 L 86 39.5625 C 87.555841 39.5625 88.78125 38.305839 88.78125 36.75 L 88.78125 33.46875 C 88.78125 31.912909 87.555844 30.65625 86 30.65625 L 40.1875 30.65625 z M 18.46875 47.125 C 16.461097 47.125 14.84375 48.742345 14.84375 50.75 L 14.84375 55 C 14.84375 57.007653 16.461098 58.624999 18.46875 58.625 L 22.71875 58.625 C 24.726403 58.625 26.34375 57.007654 26.34375 55 L 26.34375 50.75 C 26.34375 48.742347 24.726403 47.125 22.71875 47.125 L 18.46875 47.125 z M 40.1875 48.40625 C 38.631659 48.40625 37.40625 49.66291 37.40625 51.21875 L 37.40625 54.5 C 37.40625 56.055841 38.63166 57.312499 40.1875 57.3125 L 86 57.3125 C 87.555841 57.3125 88.78125 56.055839 88.78125 54.5 L 88.78125 51.21875 C 88.78125 49.662909 87.555844 48.40625 86 48.40625 L 40.1875 48.40625 z M 18.46875 64.4375 C 16.461097 64.4375 14.84375 66.054845 14.84375 68.0625 L 14.84375 72.3125 C 14.84375 74.320153 16.461098 75.937499 18.46875 75.9375 L 22.71875 75.9375 C 24.726403 75.9375 26.34375 74.320154 26.34375 72.3125 L 26.34375 68.0625 C 26.34375 66.054847 24.726403 64.4375 22.71875 64.4375 L 18.46875 64.4375 z M 40.1875 65.75 C 38.631659 65.75 37.40625 67.006656 37.40625 68.5625 L 37.40625 71.84375 C 37.40625 73.399591 38.63166 74.656249 40.1875 74.65625 L 86 74.65625 C 87.555841 74.65625 88.78125 73.399593 88.78125 71.84375 L 88.78125 68.5625 C 88.78125 67.006659 87.555844 65.75 86 65.75 L 40.1875 65.75 z M 18.46875 81.9375 C 16.461097 81.9375 14.84375 83.554845 14.84375 85.5625 L 14.84375 89.8125 C 14.84375 91.820153 16.461098 93.437499 18.46875 93.4375 L 22.71875 93.4375 C 24.726403 93.4375 26.34375 91.820154 26.34375 89.8125 L 26.34375 85.5625 C 26.34375 83.554847 24.726403 81.9375 22.71875 81.9375 L 18.46875 81.9375 z M 40.1875 83.21875 C 38.631659 83.21875 37.40625 84.475406 37.40625 86.03125 L 37.40625 89.3125 C 37.40625 90.868341 38.63166 92.124999 40.1875 92.125 L 86 92.125 C 87.555841 92.125 88.78125 90.868343 88.78125 89.3125 L 88.78125 86.03125 C 88.78125 84.475409 87.555844 83.21875 86 83.21875 L 40.1875 83.21875 z M 18.46875 99.25 C 16.461097 99.25 14.84375 100.86735 14.84375 102.875 L 14.84375 107.125 C 14.84375 109.13265 16.461098 110.75 18.46875 110.75 L 22.71875 110.75 C 24.726403 110.75 26.34375 109.13265 26.34375 107.125 L 26.34375 102.875 C 26.34375 100.86735 24.726403 99.25 22.71875 99.25 L 18.46875 99.25 z M 40.1875 100.5625 C 38.631659 100.5625 37.40625 101.81916 37.40625 103.375 L 37.40625 106.65625 C 37.40625 108.21209 38.63166 109.46875 40.1875 109.46875 L 86 109.46875 C 87.555841 109.46875 88.78125 108.21209 88.78125 106.65625 L 88.78125 103.375 C 88.78125 101.81916 87.555844 100.5625 86 100.5625 L 40.1875 100.5625 z "
       id="rect2507" />
    <text
       xml:space="preserve"
       style="font-size:16px;font-style:normal;font-variant:normal;font-weight:bold;font-stretch:normal;text-align:start;line-height:125%;writing-mode:lr-tb;text-anchor:start;fill:#000000;fill-opacity:1;stroke:none;stroke-width:1px;stroke-linecap:butt;stroke-linejoin:miter;stroke-opacity:1;font-family:Purisa;-inkscape-font-specification:Purisa Bold"
       x="66.694946"
       y="-21.387503"
       id="text2404"
       sodipodi:linespacing="125%"><tspan
         sodipodi:role="line"
         id="tspan2406"
         x="66.694946"
         y="-21.387503" /></text>
    <g
       id="g2406"
       transform="matrix(1,0,0,-1,0,123)">
      <path
         sodipodi:nodetypes="cccccccc"
         id="path2401"
         d="M 95.17188,65.765626 L 75.54688,87.546876 L 55.671875,65.765626 L 68.23438,65.765626 L 72.73438,13.453126 L 77.20312,13.453126 L 83.20312,65.765626 L 95.17188,65.765626 z"
         style="fill:url(#linearGradient2410);fill-opacity:1;fill-rule:evenodd;stroke:#b8956b;stroke-width:2;stroke-linecap:butt;stroke-linejoin:round;stroke-miterlimit:4;stroke-dasharray:none;stroke-opacity:1" />
      <path
         id="path3169"
         d="M 76.4375,12.46875 C 73.375604,36.050159 75.278554,73.963854 75.625,88.53125 C 75.885461,88.507655 76.141734,88.419249 76.3125,88.21875 L 95.9375,66.40625 C 96.191079,66.110355 96.254499,65.698737 96.09375,65.34375 C 95.933003,64.98876 95.57716,64.754617 95.1875,64.75 L 84.09375,64.75 L 78.1875,13.34375 C 78.122712,12.841535 77.693871,12.466299 77.1875,12.46875 L 76.4375,12.46875 z"
         style="opacity:0.9;fill:url(#linearGradient2412);fill-opacity:1;fill-rule:evenodd;stroke:none;stroke-width:2;stroke-linecap:butt;stroke-linejoin:round;stroke-miterlimit:4;stroke-dasharray:none;stroke-opacity:1" />
    </g>
  </g>
</svg>
