<?xml version="1.0" encoding="UTF-8" standalone="no"?>
<!-- Created with Inkscape (http://www.inkscape.org/) -->

<svg
   xmlns:dc="http://purl.org/dc/elements/1.1/"
   xmlns:cc="http://creativecommons.org/ns#"
   xmlns:rdf="http://www.w3.org/1999/02/22-rdf-syntax-ns#"
   xmlns:svg="http://www.w3.org/2000/svg"
   xmlns="http://www.w3.org/2000/svg"
   xmlns:xlink="http://www.w3.org/1999/xlink"
   xmlns:sodipodi="http://sodipodi.sourceforge.net/DTD/sodipodi-0.dtd"
   xmlns:inkscape="http://www.inkscape.org/namespaces/inkscape"
   width="118"
   height="128"
   id="svg2"
   sodipodi:version="0.32"
   inkscape:version="0.47 r22583"
   version="1.0"
   sodipodi:docname="window-close.svg"
   inkscape:output_extension="org.inkscape.output.svg.inkscape"
   inkscape:export-filename="/home/immanuel/archive/prj/cream/art/creamlooks-icontheme/examples/application-exit.png"
   inkscape:export-xdpi="90"
   inkscape:export-ydpi="90">
  <defs
     id="defs4">
    <linearGradient
       id="linearGradient3909">
      <stop
         style="stop-color:#ffd77f;stop-opacity:1;"
         offset="0"
         id="stop3911" />
      <stop
         id="stop3913"
         offset="0.47383225"
         style="stop-color:#e39f0d;stop-opacity:1;" />
      <stop
         style="stop-color:#e3300d;stop-opacity:1;"
         offset="1"
         id="stop3915" />
    </linearGradient>
    <linearGradient
       id="linearGradient3881">
      <stop
         style="stop-color:#a7a7a7;stop-opacity:1;"
         offset="0"
         id="stop3883" />
      <stop
         id="stop3885"
         offset="0.56725597"
         style="stop-color:#787878;stop-opacity:1;" />
      <stop
         style="stop-color:#454545;stop-opacity:1;"
         offset="1"
         id="stop3887" />
    </linearGradient>
    <radialGradient
       inkscape:collect="always"
       xlink:href="#linearGradient3881"
       id="radialGradient2851"
       gradientUnits="userSpaceOnUse"
       gradientTransform="matrix(1.4750764,7.1342602e-8,5.9939436e-8,-1.2393051,-46.109621,186.0018)"
       cx="86.078712"
       cy="84.1661"
       fx="86.078712"
       fy="84.1661"
       r="53.141529" />
    <radialGradient
       inkscape:collect="always"
       xlink:href="#linearGradient3909"
       id="radialGradient3632"
       gradientUnits="userSpaceOnUse"
       gradientTransform="matrix(1.8970823,0,0,1.8047867,-82.427909,-106.83008)"
       cx="119.87813"
       cy="62.338501"
       fx="119.87813"
       fy="62.338501"
       r="53.141529" />
    <linearGradient
       inkscape:collect="always"
       xlink:href="#linearGradient3881"
       id="linearGradient3634"
       gradientUnits="userSpaceOnUse"
       gradientTransform="matrix(0.98204545,0,0,-0.98204545,-10.431728,141.46957)"
       x1="34.839279"
       y1="132.98941"
       x2="34.839279"
       y2="-51.918842" />
  </defs>
  <sodipodi:namedview
     id="base"
     pagecolor="#ababab"
     bordercolor="#666666"
     borderopacity="1.0"
     inkscape:pageopacity="0"
     inkscape:pageshadow="2"
     inkscape:zoom="2"
     inkscape:cx="92.543185"
     inkscape:cy="65.582456"
     inkscape:document-units="px"
     inkscape:current-layer="layer1"
     showgrid="false"
     showguides="true"
     inkscape:guide-bbox="true"
     inkscape:window-width="1024"
     inkscape:window-height="696"
     inkscape:window-x="0"
     inkscape:window-y="24"
     inkscape:showpageshadow="false"
     inkscape:window-maximized="1" />
  <metadata
     id="metadata7">
    <rdf:RDF>
      <cc:Work
         rdf:about="">
        <dc:format>image/svg+xml</dc:format>
        <dc:type
           rdf:resource="http://purl.org/dc/dcmitype/StillImage" />
        <dc:title />
      </cc:Work>
    </rdf:RDF>
  </metadata>
  <g
     inkscape:label="Ebene 1"
     inkscape:groupmode="layer"
     id="layer1">
    <path
       style="opacity:0.9;fill:url(#radialGradient2851);fill-opacity:1;stroke:url(#linearGradient3634);stroke-width:2.33881569;stroke-linecap:round;stroke-linejoin:round;stroke-miterlimit:4;stroke-opacity:1;stroke-dasharray:none"
       d="m 39.26578,34.801225 c -0.74192,0 -1.500977,0.278578 -2.074374,0.851975 l -6.519461,6.519461 c -1.146794,1.146794 -1.183838,3.039 -0.03704,4.185789 L 48.304122,64.064712 30.671945,81.696889 c -1.146796,1.146796 -1.146789,2.964915 0,4.111705 l 6.519461,6.51946 c 1.146794,1.146795 2.964913,1.146804 4.111705,0 L 58.935288,74.695878 76.641549,92.365097 c 1.146795,1.146795 3.038992,1.10975 4.18579,-0.03704 l 6.519461,-6.51946 c 1.146794,-1.146794 1.146789,-2.964915 0,-4.111705 L 69.640538,63.990627 87.3468,46.284366 c 1.146797,-1.146795 1.146794,-2.964911 0,-4.111705 L 80.827339,35.6532 c -1.146794,-1.146795 -2.964913,-1.146791 -4.111705,0 L 59.009373,53.359462 41.303111,35.6532 C 40.729713,35.079802 40.007699,34.801225 39.26578,34.801225 z"
       id="path4092-3" />
    <path
       style="opacity:0.4;fill:url(#radialGradient3632);fill-opacity:1;stroke:#000000;stroke-width:2.33881569;stroke-linecap:round;stroke-linejoin:round;stroke-miterlimit:4;stroke-opacity:0;stroke-dasharray:none"
       d="m 39.26578,34.801225 c -0.74192,0 -1.500977,0.278578 -2.074374,0.851975 l -6.519461,6.519461 c -1.146794,1.146794 -1.183838,3.039 -0.03704,4.185789 L 48.304122,64.064712 30.671945,81.696889 c -1.146796,1.146796 -1.146789,2.964915 0,4.111705 l 6.519461,6.51946 c 1.146794,1.146795 2.964913,1.146804 4.111705,0 L 58.935288,74.695878 76.641549,92.365097 c 1.146795,1.146795 3.038992,1.10975 4.18579,-0.03704 l 6.519461,-6.51946 c 1.146794,-1.146794 1.146789,-2.964915 0,-4.111705 L 69.640538,63.990627 87.3468,46.284366 c 1.146797,-1.146795 1.146794,-2.964911 0,-4.111705 L 80.827339,35.6532 c -1.146794,-1.146795 -2.964913,-1.146791 -4.111705,0 L 59.009373,53.359462 41.303111,35.6532 C 40.729713,35.079802 40.007699,34.801225 39.26578,34.801225 z"
       id="path3929" />
  </g>
</svg>
