<?xml version="1.0" encoding="UTF-8" standalone="no"?>
<!-- Created with Inkscape (http://www.inkscape.org/) -->

<svg
   xmlns:dc="http://purl.org/dc/elements/1.1/"
   xmlns:cc="http://creativecommons.org/ns#"
   xmlns:rdf="http://www.w3.org/1999/02/22-rdf-syntax-ns#"
   xmlns:svg="http://www.w3.org/2000/svg"
   xmlns="http://www.w3.org/2000/svg"
   xmlns:xlink="http://www.w3.org/1999/xlink"
   xmlns:sodipodi="http://sodipodi.sourceforge.net/DTD/sodipodi-0.dtd"
   xmlns:inkscape="http://www.inkscape.org/namespaces/inkscape"
   width="128"
   height="128"
   id="svg2"
   version="1.1"
   inkscape:version="0.47 r22583"
   sodipodi:docname="sun2.svg"
   inkscape:export-filename="D:\Projekte\cream\art\creamlooks-icontheme\icons\scalable\widgets\weather\png\sunny.png"
   inkscape:export-xdpi="90"
   inkscape:export-ydpi="90">
  <defs
     id="defs4">
    <linearGradient
       id="linearGradient4065">
      <stop
         id="stop4067"
         offset="0"
         style="stop-color:#ffff35;stop-opacity:1;" />
      <stop
         style="stop-color:#f2cf13;stop-opacity:1;"
         offset="0.62077677"
         id="stop4069" />
      <stop
         id="stop4071"
         offset="1"
         style="stop-color:#e3300d;stop-opacity:1;" />
    </linearGradient>
    <linearGradient
       inkscape:collect="always"
       id="linearGradient3904">
      <stop
         style="stop-color:#ffffff;stop-opacity:1;"
         offset="0"
         id="stop3906" />
      <stop
         style="stop-color:#ffffff;stop-opacity:0;"
         offset="1"
         id="stop3908" />
    </linearGradient>
    <linearGradient
       id="linearGradient3850">
      <stop
         id="stop3852"
         offset="0"
         style="stop-color:#ffff35;stop-opacity:1;" />
      <stop
         style="stop-color:#f2cf13;stop-opacity:1;"
         offset="0.14014983"
         id="stop3854" />
      <stop
         id="stop3856"
         offset="1"
         style="stop-color:#e3300d;stop-opacity:1;" />
    </linearGradient>
    <linearGradient
       id="linearGradient3812">
      <stop
         style="stop-color:#ffff35;stop-opacity:1;"
         offset="0"
         id="stop3814" />
      <stop
         id="stop3816"
         offset="0.57373804"
         style="stop-color:#f2cf13;stop-opacity:1;" />
      <stop
         style="stop-color:#e3300d;stop-opacity:1;"
         offset="1"
         id="stop3818" />
    </linearGradient>
    <linearGradient
       id="linearGradient3804">
      <stop
         style="stop-color:#ffff35;stop-opacity:1;"
         offset="0"
         id="stop3806" />
      <stop
         id="stop3808"
         offset="0"
         style="stop-color:#f2cf13;stop-opacity:1;" />
      <stop
         style="stop-color:#e3300d;stop-opacity:1;"
         offset="1"
         id="stop3810" />
    </linearGradient>
    <linearGradient
       id="linearGradient3752">
      <stop
         style="stop-color:#ffffff;stop-opacity:1;"
         offset="0"
         id="stop3754" />
      <stop
         style="stop-color:#ffffff;stop-opacity:0;"
         offset="1"
         id="stop3756" />
    </linearGradient>
    <linearGradient
       inkscape:collect="always"
       id="linearGradient3742">
      <stop
         style="stop-color:#ffffff;stop-opacity:1;"
         offset="0"
         id="stop3744" />
      <stop
         style="stop-color:#ffffff;stop-opacity:0;"
         offset="1"
         id="stop3746" />
    </linearGradient>
    <inkscape:path-effect
       effect="skeletal"
       id="path-effect3739"
       is_visible="true"
       pattern="M 0,5 C 0,2.24 2.24,0 5,0 7.76,0 10,2.24 10,5 10,7.76 7.76,10 5,10 2.24,10 0,7.76 0,5 z"
       copytype="single_stretched"
       prop_scale="1"
       scale_y_rel="false"
       spacing="0"
       normal_offset="0"
       tang_offset="0"
       prop_units="false"
       vertical_pattern="false"
       fuse_tolerance="0" />
    <inkscape:path-effect
       effect="spiro"
       id="path-effect3737"
       is_visible="true" />
    <linearGradient
       id="linearGradient3697">
      <stop
         id="stop3699"
         offset="0"
         style="stop-color:#ffff35;stop-opacity:1;" />
      <stop
         style="stop-color:#f2cf13;stop-opacity:1;"
         offset="0.2734969"
         id="stop3701" />
      <stop
         id="stop3703"
         offset="1"
         style="stop-color:#e3300d;stop-opacity:1;" />
    </linearGradient>
    <linearGradient
       id="linearGradient3681">
      <stop
         style="stop-color:#ffff35;stop-opacity:1;"
         offset="0"
         id="stop3683" />
      <stop
         id="stop3685"
         offset="0.48501515"
         style="stop-color:#f2cf13;stop-opacity:1;" />
      <stop
         style="stop-color:#e3300d;stop-opacity:1;"
         offset="1"
         id="stop3687" />
    </linearGradient>
    <linearGradient
       id="linearGradient3657">
      <stop
         style="stop-color:#ffff35;stop-opacity:1;"
         offset="0"
         id="stop3659" />
      <stop
         id="stop3661"
         offset="0.75247103"
         style="stop-color:#ea7f10;stop-opacity:0.49171272;" />
      <stop
         style="stop-color:#e3300d;stop-opacity:1;"
         offset="0.84378421"
         id="stop3667" />
      <stop
         style="stop-color:#ffff35;stop-opacity:1;"
         offset="1"
         id="stop3663" />
    </linearGradient>
    <inkscape:perspective
       sodipodi:type="inkscape:persp3d"
       inkscape:vp_x="0 : 64 : 1"
       inkscape:vp_y="0 : 1000 : 0"
       inkscape:vp_z="128 : 64 : 1"
       inkscape:persp3d-origin="64 : 42.666667 : 1"
       id="perspective67" />
    <linearGradient
       id="linearGradient4000">
      <stop
         style="stop-color:#ffff35;stop-opacity:1;"
         offset="0"
         id="stop4002" />
      <stop
         id="stop4004"
         offset="0.85768032"
         style="stop-color:#f2cf13;stop-opacity:1;" />
      <stop
         style="stop-color:#e3300d;stop-opacity:1;"
         offset="1"
         id="stop4006" />
    </linearGradient>
    <linearGradient
       inkscape:collect="always"
       id="linearGradient3971">
      <stop
         style="stop-color:#ffffff;stop-opacity:1;"
         offset="0"
         id="stop3973" />
      <stop
         style="stop-color:#ffffff;stop-opacity:0;"
         offset="1"
         id="stop3975" />
    </linearGradient>
    <linearGradient
       id="linearGradient3926">
      <stop
         style="stop-color:#ffff35;stop-opacity:1;"
         offset="0"
         id="stop3928" />
      <stop
         id="stop3930"
         offset="0.78686535"
         style="stop-color:#f2cf13;stop-opacity:1;" />
      <stop
         style="stop-color:#e3300d;stop-opacity:1;"
         offset="1"
         id="stop3932" />
    </linearGradient>
    <linearGradient
       inkscape:collect="always"
       id="linearGradient3800">
      <stop
         style="stop-color:#ffffff;stop-opacity:1;"
         offset="0"
         id="stop3802" />
      <stop
         style="stop-color:#ffffff;stop-opacity:0;"
         offset="1"
         id="stop3804" />
    </linearGradient>
    <linearGradient
       id="linearGradient3771">
      <stop
         id="stop3773"
         offset="0"
         style="stop-color:#ffff35;stop-opacity:1;" />
      <stop
         style="stop-color:#f2cf13;stop-opacity:1;"
         offset="0.64869767"
         id="stop3775" />
      <stop
         id="stop3777"
         offset="1"
         style="stop-color:#e3300d;stop-opacity:1;" />
    </linearGradient>
    <linearGradient
       id="linearGradient3755">
      <stop
         style="stop-color:#ffec7f;stop-opacity:1;"
         offset="0"
         id="stop3757" />
      <stop
         id="stop3759"
         offset="0.79617321"
         style="stop-color:#e39f0d;stop-opacity:1;" />
      <stop
         style="stop-color:#e3300d;stop-opacity:1;"
         offset="1"
         id="stop3761" />
    </linearGradient>
    <radialGradient
       inkscape:collect="always"
       xlink:href="#linearGradient3755"
       id="radialGradient3830"
       gradientUnits="userSpaceOnUse"
       gradientTransform="matrix(2.6412295,0.34399526,-0.2983147,2.2904896,-115.94557,750.2644)"
       cx="85.456673"
       cy="87.458008"
       fx="85.456673"
       fy="87.458008"
       r="53.141529" />
    <radialGradient
       inkscape:collect="always"
       xlink:href="#linearGradient3771"
       id="radialGradient3832"
       gradientUnits="userSpaceOnUse"
       gradientTransform="matrix(-1.9886558,-1.7219544,1.6526943,-1.9086685,64.371263,1297.2829)"
       cx="86.078712"
       cy="84.1661"
       fx="86.078712"
       fy="84.1661"
       r="53.141529" />
    <linearGradient
       inkscape:collect="always"
       xlink:href="#linearGradient3800"
       id="linearGradient3834"
       gradientUnits="userSpaceOnUse"
       x1="76.490608"
       y1="-17.357143"
       x2="68.214287"
       y2="84.428574" />
    <linearGradient
       inkscape:collect="always"
       xlink:href="#linearGradient3771"
       id="linearGradient3874"
       x1="11.814142"
       y1="952.50177"
       x2="62"
       y2="1137.8647"
       gradientUnits="userSpaceOnUse" />
    <linearGradient
       inkscape:collect="always"
       xlink:href="#linearGradient3800"
       id="linearGradient3891"
       gradientUnits="userSpaceOnUse"
       x1="76.490608"
       y1="-17.357143"
       x2="68.214287"
       y2="84.428574"
       gradientTransform="matrix(0.73833647,0,0,0.73833647,15.620834,940.53554)" />
    <radialGradient
       inkscape:collect="always"
       xlink:href="#linearGradient3771"
       id="radialGradient3894"
       gradientUnits="userSpaceOnUse"
       gradientTransform="matrix(-0.0449531,-1.8039292,1.7313719,-0.04314496,-90.558877,1129.1058)"
       cx="86.078712"
       cy="84.1661"
       fx="86.078712"
       fy="84.1661"
       r="53.141529" />
    <radialGradient
       inkscape:collect="always"
       xlink:href="#linearGradient3771"
       id="radialGradient3949"
       gradientUnits="userSpaceOnUse"
       gradientTransform="matrix(-0.0449531,-1.8039292,1.7313719,-0.04314496,78.012552,199.02932)"
       cx="86.078712"
       cy="84.1661"
       fx="86.078712"
       fy="84.1661"
       r="53.141529" />
    <radialGradient
       inkscape:collect="always"
       xlink:href="#linearGradient3771"
       id="radialGradient3953"
       gradientUnits="userSpaceOnUse"
       gradientTransform="matrix(-0.0449531,-1.8039292,1.7313719,-0.04314496,78.01256,1123.3915)"
       cx="86.078712"
       cy="84.1661"
       fx="86.078712"
       fy="84.1661"
       r="53.141529" />
    <radialGradient
       inkscape:collect="always"
       xlink:href="#linearGradient3926"
       id="radialGradient3957"
       gradientUnits="userSpaceOnUse"
       gradientTransform="matrix(1.780699,2.1446518,-1.7014668,1.4127234,243.49522,677.70496)"
       cx="87.243103"
       cy="86.894638"
       fx="87.243103"
       fy="86.894638"
       r="53.141529" />
    <linearGradient
       inkscape:collect="always"
       xlink:href="#linearGradient3971"
       id="linearGradient3977"
       x1="22.142857"
       y1="-18.428572"
       x2="66.111885"
       y2="82.285713"
       gradientUnits="userSpaceOnUse" />
    <radialGradient
       inkscape:collect="always"
       xlink:href="#linearGradient3657"
       id="radialGradient3655"
       cx="-271.2843"
       cy="-81.857658"
       fx="-271.2843"
       fy="-81.857658"
       r="63.159649"
       gradientTransform="matrix(1.3234163,0,0,1.468267,87.737812,38.331234)"
       gradientUnits="userSpaceOnUse" />
    <radialGradient
       inkscape:collect="always"
       xlink:href="#linearGradient3697"
       id="radialGradient3679"
       cx="-251.24484"
       cy="-81.793434"
       fx="-251.24484"
       fy="-81.793434"
       r="43.035713"
       gradientUnits="userSpaceOnUse"
       gradientTransform="matrix(3.7056904,1.0220755e-7,-1.2733869e-7,3.544185,689.28366,211.64109)" />
    <linearGradient
       inkscape:collect="always"
       xlink:href="#linearGradient3742"
       id="linearGradient3748"
       x1="-243.63553"
       y1="-133.07162"
       x2="-268.84824"
       y2="-63.392662"
       gradientUnits="userSpaceOnUse" />
    <linearGradient
       inkscape:collect="always"
       xlink:href="#linearGradient3752"
       id="linearGradient3758"
       x1="-293.26184"
       y1="58.733173"
       x2="-207.15472"
       y2="-145.92632"
       gradientUnits="userSpaceOnUse" />
    <filter
       inkscape:collect="always"
       id="filter3788">
      <feGaussianBlur
         inkscape:collect="always"
         stdDeviation="0.86071426"
         id="feGaussianBlur3790" />
    </filter>
    <filter
       inkscape:collect="always"
       id="filter3796">
      <feGaussianBlur
         inkscape:collect="always"
         stdDeviation="0.18609369"
         id="feGaussianBlur3798" />
    </filter>
    <radialGradient
       inkscape:collect="always"
       xlink:href="#linearGradient3812"
       id="radialGradient3802"
       gradientUnits="userSpaceOnUse"
       gradientTransform="matrix(1.936707,0,0,2.1566344,240.10313,50.442707)"
       cx="-246.77034"
       cy="-39.23901"
       fx="-246.77034"
       fy="-39.23901"
       r="43.035713" />
    <filter
       inkscape:collect="always"
       id="filter3820">
      <feGaussianBlur
         inkscape:collect="always"
         stdDeviation="0.43035713"
         id="feGaussianBlur3822" />
    </filter>
    <linearGradient
       inkscape:collect="always"
       xlink:href="#linearGradient3752"
       id="linearGradient3824"
       gradientUnits="userSpaceOnUse"
       x1="-293.26184"
       y1="58.733173"
       x2="-207.15472"
       y2="-145.92632" />
    <linearGradient
       inkscape:collect="always"
       xlink:href="#linearGradient3752"
       id="linearGradient3828"
       gradientUnits="userSpaceOnUse"
       x1="-293.26184"
       y1="58.733173"
       x2="-207.15472"
       y2="-145.92632" />
    <filter
       inkscape:collect="always"
       id="filter3834">
      <feGaussianBlur
         inkscape:collect="always"
         stdDeviation="2.1046875"
         id="feGaussianBlur3836" />
    </filter>
    <linearGradient
       inkscape:collect="always"
       xlink:href="#linearGradient3752"
       id="linearGradient3840"
       gradientUnits="userSpaceOnUse"
       x1="-293.26184"
       y1="58.733173"
       x2="-207.15472"
       y2="-145.92632" />
    <linearGradient
       inkscape:collect="always"
       xlink:href="#linearGradient3850"
       id="linearGradient3844"
       gradientUnits="userSpaceOnUse"
       x1="-258.03125"
       y1="-218.09114"
       x2="-258.03125"
       y2="13.826852" />
    <linearGradient
       inkscape:collect="always"
       xlink:href="#linearGradient3804"
       id="linearGradient3848"
       gradientUnits="userSpaceOnUse"
       x1="-258.03125"
       y1="-172.56302"
       x2="-258.03125"
       y2="109.53562" />
    <linearGradient
       inkscape:collect="always"
       xlink:href="#linearGradient3742"
       id="linearGradient3877"
       gradientUnits="userSpaceOnUse"
       x1="-243.63553"
       y1="-133.07162"
       x2="-268.84824"
       y2="-63.392662" />
    <linearGradient
       inkscape:collect="always"
       xlink:href="#linearGradient3742"
       id="linearGradient3881"
       gradientUnits="userSpaceOnUse"
       x1="-243.63553"
       y1="-133.07162"
       x2="-268.84824"
       y2="-63.392662" />
    <linearGradient
       inkscape:collect="always"
       xlink:href="#linearGradient3742"
       id="linearGradient3884"
       gradientUnits="userSpaceOnUse"
       x1="-243.63553"
       y1="-133.07162"
       x2="-268.84824"
       y2="-63.392662" />
    <linearGradient
       inkscape:collect="always"
       xlink:href="#linearGradient3742"
       id="linearGradient3888"
       gradientUnits="userSpaceOnUse"
       x1="-243.63553"
       y1="-133.07162"
       x2="-268.84824"
       y2="-63.392662" />
    <filter
       inkscape:collect="always"
       id="filter3890">
      <feGaussianBlur
         inkscape:collect="always"
         stdDeviation="0.15911192"
         id="feGaussianBlur3892" />
    </filter>
    <linearGradient
       inkscape:collect="always"
       xlink:href="#linearGradient3904"
       id="linearGradient3910"
       x1="-274.25641"
       y1="-41.341217"
       x2="-274.25641"
       y2="-64.282303"
       gradientUnits="userSpaceOnUse" />
    <filter
       inkscape:collect="always"
       id="filter3936"
       x="-0.23692523"
       width="1.4738505"
       y="-0.42000383"
       height="1.8400077">
      <feGaussianBlur
         inkscape:collect="always"
         stdDeviation="3.8891228"
         id="feGaussianBlur3938" />
    </filter>
    <radialGradient
       inkscape:collect="always"
       xlink:href="#linearGradient3657"
       id="radialGradient3950"
       gradientUnits="userSpaceOnUse"
       gradientTransform="matrix(1.3234163,0,0,1.468267,87.737812,38.331234)"
       cx="-271.2843"
       cy="-81.857658"
       fx="-271.2843"
       fy="-81.857658"
       r="63.159649" />
    <linearGradient
       inkscape:collect="always"
       xlink:href="#linearGradient3742"
       id="linearGradient3952"
       gradientUnits="userSpaceOnUse"
       x1="-243.63553"
       y1="-133.07162"
       x2="-268.84824"
       y2="-63.392662" />
    <radialGradient
       inkscape:collect="always"
       xlink:href="#linearGradient3697"
       id="radialGradient3954"
       gradientUnits="userSpaceOnUse"
       gradientTransform="matrix(3.7056904,1.0220755e-7,-1.2733869e-7,3.544185,689.28366,211.64109)"
       cx="-251.24484"
       cy="-81.793434"
       fx="-251.24484"
       fy="-81.793434"
       r="43.035713" />
    <linearGradient
       inkscape:collect="always"
       xlink:href="#linearGradient3742"
       id="linearGradient3956"
       gradientUnits="userSpaceOnUse"
       x1="-243.63553"
       y1="-133.07162"
       x2="-268.84824"
       y2="-63.392662" />
    <radialGradient
       inkscape:collect="always"
       xlink:href="#linearGradient3812"
       id="radialGradient3958"
       gradientUnits="userSpaceOnUse"
       gradientTransform="matrix(1.936707,0,0,2.1566344,240.10313,50.442707)"
       cx="-246.77034"
       cy="-39.23901"
       fx="-246.77034"
       fy="-39.23901"
       r="43.035713" />
    <linearGradient
       inkscape:collect="always"
       xlink:href="#linearGradient3752"
       id="linearGradient3960"
       gradientUnits="userSpaceOnUse"
       x1="-293.26184"
       y1="58.733173"
       x2="-207.15472"
       y2="-145.92632" />
    <linearGradient
       inkscape:collect="always"
       xlink:href="#linearGradient3850"
       id="linearGradient3962"
       gradientUnits="userSpaceOnUse"
       x1="-258.03125"
       y1="-218.09114"
       x2="-258.03125"
       y2="13.826852" />
    <linearGradient
       inkscape:collect="always"
       xlink:href="#linearGradient3904"
       id="linearGradient3964"
       gradientUnits="userSpaceOnUse"
       x1="-274.25641"
       y1="-41.341217"
       x2="-274.25641"
       y2="-64.282303" />
    <filter
       inkscape:collect="always"
       id="filter4004">
      <feGaussianBlur
         inkscape:collect="always"
         stdDeviation="1.3003125"
         id="feGaussianBlur4006" />
    </filter>
    <radialGradient
       inkscape:collect="always"
       xlink:href="#linearGradient3657"
       id="radialGradient4028"
       gradientUnits="userSpaceOnUse"
       gradientTransform="matrix(1.3234163,0,0,1.468267,87.737812,38.331234)"
       cx="-271.2843"
       cy="-81.857658"
       fx="-271.2843"
       fy="-81.857658"
       r="63.159649" />
    <radialGradient
       inkscape:collect="always"
       xlink:href="#linearGradient4065"
       id="radialGradient4030"
       gradientUnits="userSpaceOnUse"
       gradientTransform="matrix(1.936707,0,0,2.285765,240.10313,55.509666)"
       cx="-246.77034"
       cy="-39.23901"
       fx="-246.77034"
       fy="-39.23901"
       r="43.035713" />
    <filter
       inkscape:collect="always"
       id="filter4061">
      <feGaussianBlur
         inkscape:collect="always"
         stdDeviation="0.44023431"
         id="feGaussianBlur4063" />
    </filter>
  </defs>
  <sodipodi:namedview
     id="base"
     pagecolor="#101010"
     bordercolor="#666666"
     borderopacity="1.0"
     inkscape:pageopacity="0"
     inkscape:pageshadow="2"
     inkscape:zoom="3.959798"
     inkscape:cx="59.626497"
     inkscape:cy="86.440959"
     inkscape:document-units="px"
     inkscape:current-layer="g3940"
     showgrid="false"
     inkscape:showpageshadow="false"
     showguides="true"
     inkscape:guide-bbox="true"
     inkscape:window-width="1440"
     inkscape:window-height="838"
     inkscape:window-x="-8"
     inkscape:window-y="-8"
     inkscape:window-maximized="1" />
  <metadata
     id="metadata7">
    <rdf:RDF>
      <cc:Work
         rdf:about="">
        <dc:format>image/svg+xml</dc:format>
        <dc:type
           rdf:resource="http://purl.org/dc/dcmitype/StillImage" />
        <dc:title></dc:title>
      </cc:Work>
    </rdf:RDF>
  </metadata>
  <g
     inkscape:label="Ebene 1"
     inkscape:groupmode="layer"
     id="layer1"
     transform="translate(0,-924.36218)">
    <g
       id="g3940"
       transform="matrix(0.8373201,0,0,0.8373201,291.2579,282.94715)">
      <path
         transform="matrix(0.90618821,0,0,0.90618821,-25.463939,916.74385)"
         style="fill:url(#radialGradient4028);fill-opacity:1;stroke:none;filter:url(#filter4061)"
         d="m -273.03125,-131.90625 c -0.32292,-4.17708 -0.64583,-8.35417 -0.96875,-12.53125 -0.0312,4.1875 -0.0625,8.375 -0.0937,12.5625 -0.67708,-4.19792 -1.35417,-8.39583 -2.03125,-12.59375 0.35417,4.39583 0.70833,8.79167 1.0625,13.1875 -0.85417,-4.07292 -1.70833,-8.14583 -2.5625,-12.21875 0.15625,3.89583 0.3125,7.79167 0.46875,11.6875 -0.34375,-4.10417 -0.6875,-8.20833 -1.03125,-12.3125 0.13542,4.03125 0.27083,8.0625 0.40625,12.09375 -0.86458,-3.94792 -1.72917,-7.89583 -2.59375,-11.84375 0.34375,4.11458 0.6875,8.22917 1.03125,12.34375 -0.73958,-3.9375 -1.47917,-7.875 -2.21875,-11.8125 0.6875,3.97917 1.375,7.95833 2.0625,11.9375 -0.95833,-4.07292 -1.91667,-8.14583 -2.875,-12.21875 0.44792,4.3125 0.89583,8.625 1.34375,12.9375 -0.97917,-3.98958 -1.95833,-7.97917 -2.9375,-11.96875 0.36458,3.82292 0.72917,7.64583 1.09375,11.46875 -0.73958,-3.98958 -1.47917,-7.97917 -2.21875,-11.96875 0.67708,4.22917 1.35417,8.45833 2.03125,12.6875 -1.29167,-3.77083 -2.58333,-7.54167 -3.875,-11.3125 0.77083,4.04167 1.54167,8.08333 2.3125,12.125 -1.08333,-4.26042 -2.16667,-8.52083 -3.25,-12.78125 0.70833,4.19792 1.41667,8.39583 2.125,12.59375 -1.35417,-4.0625 -2.70833,-8.125 -4.0625,-12.1875 0.94792,4.11458 1.89583,8.22917 2.84375,12.34375 -1.5,-3.69792 -3,-7.39583 -4.5,-11.09375 1.09375,3.91667 2.1875,7.83333 3.28125,11.75 -1.41667,-3.82292 -2.83333,-7.64583 -4.25,-11.46875 1.3125,3.92708 2.625,7.85417 3.9375,11.78125 -1.61458,-3.80208 -3.22917,-7.60417 -4.84375,-11.40625 1.20833,4.0625 2.41667,8.125 3.625,12.1875 -1.82292,-3.88542 -3.64583,-7.77083 -5.46875,-11.65625 1.47917,3.72917 2.95833,7.45833 4.4375,11.1875 -1.95833,-3.75 -3.91667,-7.5 -5.875,-11.25 1.59375,3.94792 3.1875,7.89583 4.78125,11.84375 -2.01042,-3.55208 -4.02083,-7.10417 -6.03125,-10.65625 1.77083,3.63542 3.54167,7.27083 5.3125,10.90625 -2.03125,-3.39583 -4.0625,-6.79167 -6.09375,-10.1875 1.61458,3.64583 3.22917,7.29167 4.84375,10.9375 -1.94792,-3.5625 -3.89583,-7.125 -5.84375,-10.6875 1.40625,3.67708 2.8125,7.35417 4.21875,11.03125 -1.79167,-3.20833 -3.58333,-6.41667 -5.375,-9.625 1.5625,3.4375 3.125,6.875 4.6875,10.3125 -1.97917,-3.29167 -3.95833,-6.58333 -5.9375,-9.875 1.61458,3.57292 3.22917,7.14583 4.84375,10.71875 -2.25,-3.20833 -4.5,-6.41667 -6.75,-9.625 2.05208,3.28125 4.10417,6.5625 6.15625,9.84375 -2.60417,-3.10417 -5.20833,-6.20833 -7.8125,-9.3125 2.29167,3.42708 4.58333,6.85417 6.875,10.28125 -2.52083,-3.54167 -5.04167,-7.08333 -7.5625,-10.625 2.15625,3.79167 4.3125,7.58333 6.46875,11.375 -2.33333,-3.11458 -4.66667,-6.22917 -7,-9.34375 1.89583,3.19792 3.79167,6.39583 5.6875,9.59375 -2.65625,-3.16667 -5.3125,-6.33333 -7.96875,-9.5 2.60417,3.29167 5.20833,6.58333 7.8125,9.875 -2.90625,-3.14583 -5.8125,-6.29167 -8.71875,-9.4375 2.63542,3.67708 5.27083,7.35417 7.90625,11.03125 -2.85417,-3.09375 -5.70833,-6.1875 -8.5625,-9.28125 2.5625,3.26042 5.125,6.52083 7.6875,9.78125 -2.875,-3.26042 -5.75,-6.52083 -8.625,-9.78125 2.625,3.38542 5.25,6.77083 7.875,10.15625 -3.26042,-2.6875 -6.52083,-5.375 -9.78125,-8.0625 2.76042,3.16667 5.52083,6.33333 8.28125,9.5 -2.89583,-3.11458 -5.79167,-6.22917 -8.6875,-9.34375 2.80208,3.40625 5.60417,6.8125 8.40625,10.21875 -2.98958,-2.95833 -5.97917,-5.91667 -8.96875,-8.875 2.55208,3.25 5.10417,6.5 7.65625,9.75 -3.03125,-3 -6.0625,-6 -9.09375,-9 2.96875,3.25 5.9375,6.5 8.90625,9.75 -3.29167,-2.82292 -6.58333,-5.64583 -9.875,-8.46875 2.70833,2.95833 5.41667,5.91667 8.125,8.875 -3.0625,-2.73958 -6.125,-5.47917 -9.1875,-8.21875 2.94792,3.03125 5.89583,6.0625 8.84375,9.09375 -3.13542,-2.58333 -6.27083,-5.16667 -9.40625,-7.75 3.04167,3.01042 6.08333,6.02083 9.125,9.03125 -3.64583,-2.55208 -7.29167,-5.10417 -10.9375,-7.65625 3.45833,2.6875 6.91667,5.375 10.375,8.0625 -3.35417,-2.26042 -6.70833,-4.52083 -10.0625,-6.78125 2.8125,2.70833 5.625,5.41667 8.4375,8.125 -3.41667,-2.625 -6.83333,-5.25 -10.25,-7.875 3.39583,2.6875 6.79167,5.375 10.1875,8.0625 -3.60417,-2.27083 -7.20833,-4.54167 -10.8125,-6.8125 3.25,2.47917 6.5,4.95833 9.75,7.4375 -3.60417,-1.63298 -7.20833,-2.26762 -10.8125,-6.21875 3.5625,2.40625 7.125,4.8125 10.6875,7.21875 -3.66667,-2.16667 -7.33333,-4.33333 -11,-6.5 3.34375,2.48958 6.6875,4.97917 10.03125,7.46875 -3.42708,-1.70833 -6.85417,-3.41667 -10.28125,-5.125 3.45833,1.96875 6.91667,3.9375 10.375,5.90625 -3.875,-1.82292 -7.75,-3.64583 -11.625,-5.46875 3.60417,2.27083 7.20833,4.54167 10.8125,6.8125 -3.72917,-1.64583 -7.45833,-3.29167 -11.1875,-4.9375 3.60417,2.03125 7.20833,4.0625 10.8125,6.09375 -3.90625,-1.85417 -7.8125,-3.70833 -11.71875,-5.5625 3.69792,2.05208 7.39583,4.10417 11.09375,6.15625 -3.89583,-1.57292 -7.79167,-3.14583 -11.6875,-4.71875 3.44792,1.95833 6.89583,3.91667 10.34375,5.875 -3.77083,-1.39583 -7.54167,-2.79167 -11.3125,-4.1875 3.89583,1.71875 7.79167,3.4375 11.6875,5.15625 -4.10417,-1.23958 -8.20833,-2.47917 -12.3125,-3.71875 3.76042,1.48958 7.52083,2.97917 11.28125,4.46875 -3.64583,-1.33333 -7.29167,-2.66667 -10.9375,-4 3.46875,2.03125 6.9375,4.0625 10.40625,6.09375 -3.67708,-1.32292 -7.35417,-2.64583 -11.03125,-3.96875 3.48958,1.52083 6.97917,3.04167 10.46875,4.5625 -3.77083,-1.03125 -7.54167,-2.0625 -11.3125,-3.09375 3.78125,1.38542 7.5625,2.770833 11.34375,4.15625 -4.17708,-1.229167 -8.35417,-2.45833 -12.53125,-3.6875 3.91667,1.39583 7.83333,2.791667 11.75,4.1875 -3.73958,-0.9375 -7.47917,-1.875 -11.21875,-2.8125 3.66667,1.479167 7.33333,2.958333 11,4.4375 -3.73958,-0.8125 -7.47917,-1.625 -11.21875,-2.4375 3.91667,1.125 7.83333,2.25 11.75,3.375 -4.09375,-0.979167 -8.1875,-1.958333 -12.28125,-2.9375 3.78125,1.385417 7.5625,2.770833 11.34375,4.15625 -4.20833,-0.802083 -8.41667,-1.604167 -12.625,-2.40625 4.02083,1.104167 8.04167,2.208333 12.0625,3.3125 -4.09375,-0.427083 -8.1875,-0.854167 -12.28125,-1.28125 4.01042,0.927083 8.02083,1.854167 12.03125,2.78125 -4.13542,-0.6875 -8.27083,-1.375 -12.40625,-2.0625 4.07292,1 8.14583,2 12.21875,3 -4.01042,-0.635417 -8.02083,-1.270833 -12.03125,-1.90625 4.13542,0.927083 8.27083,1.854167 12.40625,2.78125 -4.34375,-0.458333 -8.6875,-0.916667 -13.03125,-1.375 4.28125,0.989583 8.5625,1.979167 12.84375,2.96875 -4.125,-0.416667 -8.25,-0.833333 -12.375,-1.25 4.07292,0.552083 8.14583,1.104167 12.21875,1.65625 -3.97917,0.08333 -7.95833,0.166667 -11.9375,0.25 3.72917,0.625 7.45833,1.25 11.1875,1.875 -3.85417,-0.385417 -7.70833,-0.770833 -11.5625,-1.15625 4.05208,0.552083 8.10417,1.104167 12.15625,1.65625 -4.38542,-0.1875 -8.77083,-0.375 -13.15625,-0.5625 4.36458,0.604167 8.72917,1.208333 13.09375,1.8125 -4.36458,-0.05208 -8.72917,-0.104167 -13.09375,-0.15625 4.14583,0.5625 8.29167,1.125 12.4375,1.6875 -3.94792,-0.166667 -7.89583,-0.333333 -11.84375,-0.5 4.1875,0.34375 8.375,0.6875 12.5625,1.03125 -4.03125,0.208333 -8.0625,0.416667 -12.09375,0.625 3.86458,0.385417 7.72917,0.770833 11.59375,1.15625 -4.1875,0.25 -8.375,0.5 -12.5625,0.75 4.41667,-0.08333 8.83333,-0.166667 13.25,-0.25 -4.28125,0.583333 -8.5625,1.166667 -12.84375,1.75 4.13542,-0.135417 8.27083,-0.270833 12.40625,-0.40625 -3.90625,0.458333 -7.8125,0.916667 -11.71875,1.375 4.1875,-0.1875 8.375,-0.375 12.5625,-0.5625 -4.15625,0.8125 -8.3125,1.625 -12.46875,2.4375 3.82292,-0.208333 7.64583,-0.416667 11.46875,-0.625 -4.05208,0.572917 -8.10417,1.145833 -12.15625,1.71875 4.35417,-0.229167 8.70833,-0.458333 13.0625,-0.6875 -4.1875,0.614583 -8.375,1.229167 -12.5625,1.84375 4.09375,-0.4375 8.1875,-0.875 12.28125,-1.3125 -3.80208,1.145833 -7.60417,2.291667 -11.40625,3.4375 3.875,-0.739583 7.75,-1.479167 11.625,-2.21875 -4.02083,0.958333 -8.04167,1.916667 -12.0625,2.875 4.33333,-0.6875 8.66667,-1.375 13,-2.0625 -4.30208,1.114583 -8.60417,2.229167 -12.90625,3.34375 4.21875,-0.625 8.4375,-1.25 12.65625,-1.875 -3.85417,1.1875 -7.70833,2.375 -11.5625,3.5625 4.11458,-0.927083 8.22917,-1.854167 12.34375,-2.78125 -4.21875,1.458333 -8.4375,2.916667 -12.65625,4.375 4.08333,-1.010417 8.16667,-2.020833 12.25,-3.03125 -4.05208,1.3125 -8.10417,2.625 -12.15625,3.9375 4.1875,-0.90625 8.375,-1.8125 12.5625,-2.71875 -3.98958,1.572917 -7.97917,3.145833 -11.96875,4.71875 4.0625,-1.260417 8.125,-2.520833 12.1875,-3.78125 -3.95833,1.4375 -7.91667,2.875 -11.875,4.3125 4,-1.125 8,-2.25 12,-3.375 -3.70833,1.5 -7.41667,3 -11.125,4.5 3.97917,-1.21875 7.95833,-2.4375 11.9375,-3.65625 -3.83333,1.802083 -7.66667,3.604167 -11.5,5.40625 4.05208,-1.354167 8.10417,-2.708333 12.15625,-4.0625 -3.98958,1.90625 -7.97917,3.8125 -11.96875,5.71875 3.97917,-1.354167 7.95833,-2.708333 11.9375,-4.0625 -3.79167,1.760417 -7.58333,3.520833 -11.375,5.28125 3.90625,-1.65625 7.8125,-3.3125 11.71875,-4.96875 -3.59375,1.916667 -7.1875,3.833333 -10.78125,5.75 3.73958,-1.364583 7.47917,-2.729167 11.21875,-4.09375 -3.5625,1.927083 -7.125,3.854167 -10.6875,5.78125 3.80208,-1.833333 7.60417,-3.666667 11.40625,-5.5 -3.30208,2.40625 -6.60417,4.8125 -9.90625,7.21875 3.52083,-1.927083 7.04167,-3.854167 10.5625,-5.78125 -3.39583,2.09375 -6.79167,4.1875 -10.1875,6.28125 3.54167,-1.770833 7.08333,-3.541667 10.625,-5.3125 -3.53125,2.125 -7.0625,4.25 -10.59375,6.375 3.80208,-2.010417 7.60417,-4.020833 11.40625,-6.03125 -3.32292,2.739583 -6.64583,5.479167 -9.96875,8.21875 3.54167,-2.177083 7.08333,-4.354167 10.625,-6.53125 -3.19792,2.458333 -6.39583,4.916667 -9.59375,7.375 3.29167,-2.104167 6.58333,-4.208333 9.875,-6.3125 -3.34375,2.458333 -6.6875,4.916667 -10.03125,7.375 3.59375,-2.21875 7.1875,-4.4375 10.78125,-6.65625 -3.38542,2.416667 -6.77083,4.833333 -10.15625,7.25 3.5,-1.96875 7,-3.9375 10.5,-5.90625 -3.08333,2.302083 -6.16667,4.604167 -9.25,6.90625 3.33333,-2.208333 6.66667,-4.416667 10,-6.625 -2.89583,2.927083 -5.79167,5.854167 -8.6875,8.78125 3.19792,-2.458333 6.39583,-4.916667 9.59375,-7.375 -3.03125,2.78125 -6.0625,5.5625 -9.09375,8.34375 3.23958,-2.46875 6.47917,-4.9375 9.71875,-7.40625 -3.03125,2.864583 -6.0625,5.729167 -9.09375,8.59375 3.46875,-2.604167 6.9375,-5.208333 10.40625,-7.8125 -3.05208,2.958333 -6.10417,5.916667 -9.15625,8.875 3.1875,-2.84375 6.375,-5.6875 9.5625,-8.53125 -3,3.1875 -6,6.375 -9,9.5625 3.36458,-3.052083 6.72917,-6.104167 10.09375,-9.15625 -2.8125,3.34375 -5.625,6.6875 -8.4375,10.03125 3.01042,-2.791667 6.02083,-5.583333 9.03125,-8.375 -2.73958,2.791667 -5.47917,5.583333 -8.21875,8.375 2.96875,-2.583333 5.9375,-5.166667 8.90625,-7.75 -2.77083,2.96875 -5.54167,5.9375 -8.3125,8.90625 3.02083,-2.9375 6.04167,-5.875 9.0625,-8.8125 -2.46875,3.364583 -4.9375,6.729167 -7.40625,10.09375 2.88542,-2.875 5.77083,-5.75 8.65625,-8.625 -2.65625,3.208333 -5.3125,6.416667 -7.96875,9.625 2.70833,-2.96875 5.41667,-5.9375 8.125,-8.90625 -2.17708,3.416667 -4.35417,6.833333 -6.53125,10.25 2.60417,-3.447917 5.20833,-6.895833 7.8125,-10.34375 -2.20833,3.583333 -4.41667,7.166667 -6.625,10.75 2.66667,-3.010417 5.33333,-6.020833 8,-9.03125 -2.625,3.21875 -5.25,6.4375 -7.875,9.65625 2.8125,-3.145833 5.625,-6.291667 8.4375,-9.4375 -2.29167,3.333333 -4.58333,6.666667 -6.875,10 2.61458,-3.072917 5.22917,-6.145833 7.84375,-9.21875 -2.23958,3.572917 -4.47917,7.145833 -6.71875,10.71875 2.58333,-3.59375 5.16667,-7.1875 7.75,-10.78125 -2.1875,3.770833 -4.375,7.541667 -6.5625,11.3125 2.61458,-3.614583 5.22917,-7.229167 7.84375,-10.84375 -2.3125,4.052083 -4.625,8.104167 -6.9375,12.15625 2.65625,-3.791667 5.3125,-7.583333 7.96875,-11.375 -2.05208,3.885417 -4.10417,7.770833 -6.15625,11.65625 2.125,-3.489583 4.25,-6.979167 6.375,-10.46875 -1.55208,3.75 -3.10417,7.5 -4.65625,11.25 1.88542,-3.78125 3.77083,-7.5625 5.65625,-11.34375 -1.58333,3.9375 -3.16667,7.875 -4.75,11.8125 1.84375,-3.5 3.6875,-7 5.53125,-10.5 -1.58333,3.78125 -3.16667,7.5625 -4.75,11.34375 2.10417,-3.635417 4.20833,-7.270833 6.3125,-10.90625 -1.6875,3.885417 -3.375,7.770833 -5.0625,11.65625 1.84375,-3.854167 3.6875,-7.708333 5.53125,-11.5625 -1.3125,4.09375 -2.625,8.1875 -3.9375,12.28125 1.9375,-3.9375 3.875,-7.875 5.8125,-11.8125 -1.51042,3.84375 -3.02083,7.6875 -4.53125,11.53125 1.78125,-3.760417 3.5625,-7.520833 5.34375,-11.28125 -1.46875,4.166667 -2.9375,8.333333 -4.40625,12.5 1.9375,-4.020833 3.875,-8.041667 5.8125,-12.0625 -1.35417,4.010417 -2.70833,8.020833 -4.0625,12.03125 1.57292,-3.96875 3.14583,-7.9375 4.71875,-11.90625 -1.15625,4.197917 -2.3125,8.395833 -3.46875,12.59375 1.625,-3.802083 3.25,-7.604167 4.875,-11.40625 -1.14583,3.885417 -2.29167,7.770833 -3.4375,11.65625 1.39583,-3.84375 2.79167,-7.6875 4.1875,-11.53125 -0.78125,4.135417 -1.5625,8.270833 -2.34375,12.40625 1.01042,-4.1875 2.02083,-8.375 3.03125,-12.5625 -0.73958,3.916667 -1.47917,7.833333 -2.21875,11.75 1.33333,-3.75 2.66667,-7.5 4,-11.25 -1.07292,4.083333 -2.14583,8.166667 -3.21875,12.25 1.21875,-4.135417 2.4375,-8.270833 3.65625,-12.40625 -0.36458,4.052083 -0.72917,8.104167 -1.09375,12.15625 0.61458,-3.708333 1.22917,-7.416667 1.84375,-11.125 -0.19792,3.947917 -0.39583,7.895833 -0.59375,11.84375 0.73958,-4.104167 1.47917,-8.208333 2.21875,-12.3125 -0.41667,4.1875 -0.83333,8.375 -1.25,12.5625 0.92708,-4.0625 1.85417,-8.125 2.78125,-12.1875 -0.48958,3.989583 -0.97917,7.979167 -1.46875,11.96875 0.63542,-3.90625 1.27083,-7.8125 1.90625,-11.71875 -0.0833,4.041667 -0.16667,8.083333 -0.25,12.125 0.72917,-4.020833 1.45833,-8.041667 2.1875,-12.0625 -0.30208,4.166667 -0.60417,8.333333 -0.90625,12.5 0.58333,-4.1875 1.16667,-8.375 1.75,-12.5625 -0.3125,4.385417 -0.625,8.770833 -0.9375,13.15625 0.66667,-4.260417 1.33333,-8.520833 2,-12.78125 -0.0937,4.03125 -0.1875,8.0625 -0.28125,12.09375 0.4375,-3.958333 0.875,-7.916667 1.3125,-11.875 0.16667,4.21875 0.33333,8.4375 0.5,12.65625 0.14583,-4.458333 0.29167,-8.916667 0.4375,-13.375 0.13542,4.114583 0.27083,8.229167 0.40625,12.34375 0.26042,-4.083333 0.52083,-8.166667 0.78125,-12.25 0.33333,4.28125 0.66667,8.5625 1,12.84375 0.0312,-4.09375 0.0625,-8.1875 0.0937,-12.28125 0.32292,4.177083 0.64583,8.354167 0.96875,12.53125 0.0729,-4.21875 0.14583,-8.4375 0.21875,-12.65625 0.46875,4.197917 0.9375,8.395833 1.40625,12.59375 -0.16667,-4.177083 -0.33333,-8.354167 -0.5,-12.53125 0.83333,3.885417 1.66667,7.770833 2.5,11.65625 -0.15625,-3.895833 -0.3125,-7.791667 -0.46875,-11.6875 0.58333,3.916667 1.16667,7.833333 1.75,11.75 -0.375,-4.260417 -0.75,-8.520833 -1.125,-12.78125 0.86458,4.208333 1.72917,8.416667 2.59375,12.625 -0.32292,-4.177083 -0.64583,-8.354167 -0.96875,-12.53125 0.0326,0.191696 0.0626,0.383938 0.0969,0.5753 0.95729,3.901983 1.91457,7.803967 2.87186,11.70595 -0.625,-4.354167 -1.25,-8.708333 -1.875,-13.0625 1.40625,4.40625 2.8125,8.8125 4.21875,13.21875 -1.03125,-4.458333 -2.0625,-8.916667 -3.09375,-13.375 1.40625,4.208333 2.8125,8.416667 4.21875,12.625 -0.90625,-4.260417 -1.8125,-8.520833 -2.71875,-12.78125 1.17708,3.989583 2.35417,7.979167 3.53125,11.96875 -0.66667,-4.03125 -1.33333,-8.0625 -2,-12.09375 1.09375,3.875 2.1875,7.75 3.28125,11.625 -0.91667,-4.041667 -1.83333,-8.083333 -2.75,-12.125 1.53125,4.125 3.0625,8.25 4.59375,12.375 -0.92708,-3.947917 -1.85417,-7.895833 -2.78125,-11.84375 1.5,3.729167 3,7.458333 4.5,11.1875 -1.1875,-3.802083 -2.375,-7.604167 -3.5625,-11.40625 1.3125,3.708333 2.625,7.416667 3.9375,11.125 -1.125,-3.958333 -2.25,-7.916667 -3.375,-11.875 1.61458,3.645833 3.22917,7.291667 4.84375,10.9375 -1.1875,-3.71875 -2.375,-7.4375 -3.5625,-11.15625 1.79167,3.53125 3.58333,7.0625 5.375,10.59375 -1.44792,-3.947917 -2.89583,-7.895833 -4.34375,-11.84375 1.77083,3.9375 3.54167,7.875 5.3125,11.8125 -1.42708,-3.90625 -2.85417,-7.8125 -4.28125,-11.71875 2,3.552083 4,7.104167 6,10.65625 -1.75,-3.864583 -3.5,-7.729167 -5.25,-11.59375 1.84375,3.583333 3.6875,7.166667 5.53125,10.75 -1.625,-3.833333 -3.25,-7.666667 -4.875,-11.5 2.35417,3.979167 4.70833,7.958333 7.0625,11.9375 -1.8125,-4.09375 -3.625,-8.1875 -5.4375,-12.28125 2.22917,3.895833 4.45833,7.791667 6.6875,11.6875 -1.79167,-4.125 -3.58333,-8.25 -5.375,-12.375 1.95833,3.6875 3.91667,7.375 5.875,11.0625 -1.61458,-3.739583 -3.22917,-7.479167 -4.84375,-11.21875 1.98958,3.572917 3.97917,7.145833 5.96875,10.71875 -1.78125,-3.875 -3.5625,-7.75 -5.34375,-11.625 2.40625,3.541667 4.8125,7.083333 7.21875,10.625 -2.30208,-3.447917 -4.60417,-6.895833 -6.90625,-10.34375 2.53125,3.125 5.0625,6.25 7.59375,9.375 -2.16667,-3.375 -4.33333,-6.75 -6.5,-10.125 2.54167,3.114583 5.08333,6.229167 7.625,9.34375 -2.33333,-3.354167 -4.66667,-6.708333 -7,-10.0625 2.65625,3.135417 5.3125,6.270833 7.96875,9.40625 -2.1875,-3.302083 -4.375,-6.604167 -6.5625,-9.90625 2.91667,2.895833 5.83333,5.791667 8.75,8.6875 -2.64583,-3.427083 -5.29167,-6.854167 -7.9375,-10.28125 2.86458,3.260417 5.72917,6.520833 8.59375,9.78125 -2.625,-3.489583 -5.25,-6.979167 -7.875,-10.46875 2.94792,3.104167 5.89583,6.208333 8.84375,9.3125 -2.64583,-3.15625 -5.29167,-6.3125 -7.9375,-9.46875 2.875,3.03125 5.75,6.0625 8.625,9.09375 -2.375,-3.510417 -4.75,-7.020833 -7.125,-10.53125 2.92708,2.927083 5.85417,5.854167 8.78125,8.78125 -2.60417,-3.03125 -5.20833,-6.0625 -7.8125,-9.09375 2.77083,2.770833 5.54167,5.541667 8.3125,8.3125 -2.53125,-3.0625 -5.0625,-6.125 -7.59375,-9.1875 3,2.8125 6,5.625 9,8.4375 -2.95833,-2.84375 -5.91667,-5.6875 -8.875,-8.53125 3.28125,2.40625 6.5625,4.8125 9.84375,7.21875 -3.11458,-2.791667 -6.22917,-5.583333 -9.34375,-8.375 3.47917,2.583333 6.95833,5.166667 10.4375,7.75 -2.91667,-3.104167 -5.83333,-6.208333 -8.75,-9.3125 3.09375,2.65625 6.1875,5.3125 9.28125,7.96875 -3.03125,-2.822917 -6.0625,-5.645833 -9.09375,-8.46875 3.375,2.697917 6.75,5.395833 10.125,8.09375 -2.9375,-2.90625 -5.875,-5.8125 -8.8125,-8.71875 3.34375,2.520833 6.6875,5.041667 10.03125,7.5625 -3.23958,-2.729167 -6.47917,-5.458333 -9.71875,-8.1875 3.5625,2 7.125,4 10.6875,6 -3,-2.635417 -6,-5.270833 -9,-7.90625 3.59375,2.072917 7.1875,4.145833 10.78125,6.21875 -3.5625,-2.395833 -7.125,-4.791667 -10.6875,-7.1875 3.70833,2.09375 7.41667,4.1875 11.125,6.28125 -3.38542,-2.416667 -6.77083,-4.833333 -10.15625,-7.25 3.4375,1.854167 6.875,3.708333 10.3125,5.5625 -3.46875,-2.125 -6.9375,-4.25 -10.40625,-6.375 3.88542,1.989583 7.77083,3.979167 11.65625,5.96875 -3.58333,-2.239583 -7.16667,-4.479167 -10.75,-6.71875 3.70833,1.614583 7.41667,3.229167 11.125,4.84375 -3.58333,-2 -7.16667,-4 -10.75,-6 3.88542,1.65625 7.77083,3.3125 11.65625,4.96875 -3.70833,-2.052083 -7.41667,-4.104167 -11.125,-6.15625 3.90625,1.583333 7.8125,3.166667 11.71875,4.75 -3.85417,-2.1875 -7.70833,-4.375 -11.5625,-6.5625 4.17708,1.614583 8.35417,3.229167 12.53125,4.84375 -3.88542,-1.9375 -7.77083,-3.875 -11.65625,-5.8125 4.08333,1.885417 8.16667,3.770833 12.25,5.65625 -3.75,-1.90625 -7.5,-3.8125 -11.25,-5.71875 3.6875,1.291667 7.375,2.583333 11.0625,3.875 -3.51042,-1.583333 -7.02083,-3.166667 -10.53125,-4.75 3.91667,1.291667 7.83333,2.583333 11.75,3.875 -3.91667,-1.96875 -7.83333,-3.9375 -11.75,-5.90625 3.95833,1.520833 7.91667,3.041667 11.875,4.5625 -3.9375,-1.677083 -7.875,-3.354167 -11.8125,-5.03125 3.90625,1.09375 7.8125,2.1875 11.71875,3.28125 -3.55208,-1.71875 -7.10417,-3.4375 -10.65625,-5.15625 3.80208,1.260417 7.60417,2.520833 11.40625,3.78125 -3.72917,-1.385417 -7.45833,-2.770833 -11.1875,-4.15625 3.82292,1.072917 7.64583,2.145833 11.46875,3.21875 -3.75,-1.583333 -7.5,-3.166667 -11.25,-4.75 3.90625,0.833333 7.8125,1.666667 11.71875,2.5 -3.875,-0.947917 -7.75,-1.895833 -11.625,-2.84375 4.11458,0.552083 8.22917,1.104167 12.34375,1.65625 -3.83333,-1.03125 -7.66667,-2.0625 -11.5,-3.09375 3.90625,0.614583 7.8125,1.229167 11.71875,1.84375 -4.22917,-0.927083 -8.45833,-1.854167 -12.6875,-2.78125 4.125,0.489583 8.25,0.979167 12.375,1.46875 -3.84375,-0.802083 -7.6875,-1.604167 -11.53125,-2.40625 4.23958,0.447917 8.47917,0.895833 12.71875,1.34375 -4.375,-1.15625 -8.75,-2.3125 -13.125,-3.46875 4.13542,0.458333 8.27083,0.916667 12.40625,1.375 -3.88542,-0.770833 -7.77083,-1.541667 -11.65625,-2.3125 4.15625,0.614583 8.3125,1.229167 12.46875,1.84375 -4.09375,-0.75 -8.1875,-1.5 -12.28125,-2.25 3.96875,-0.08333 7.9375,-0.166667 11.90625,-0.25 -4.13542,-0.208333 -8.27083,-0.416667 -12.40625,-0.625 4.27083,-0.02083 8.54167,-0.04167 12.8125,-0.0625 -4.03125,-0.364583 -8.0625,-0.729167 -12.09375,-1.09375 3.94792,-0.01042 7.89583,-0.02083 11.84375,-0.03125 -3.92708,-0.40625 -7.85417,-0.8125 -11.78125,-1.21875 3.92708,0.02083 7.85417,0.04167 11.78125,0.0625 -4.125,-0.375 -8.25,-0.75 -12.375,-1.125 4.15625,-0.25 8.3125,-0.5 12.46875,-0.75 -3.95833,-0.145833 -7.91667,-0.291667 -11.875,-0.4375 3.98958,-0.177083 7.97917,-0.354167 11.96875,-0.53125 -4.04167,-0.197917 -8.08333,-0.395833 -12.125,-0.59375 4.35417,-0.604167 8.70833,-1.208333 13.0625,-1.8125 -4.38542,0.28125 -8.77083,0.5625 -13.15625,0.84375 4.07292,-0.583333 8.14583,-1.166667 12.21875,-1.75 -3.92708,0.135417 -7.85417,0.270833 -11.78125,0.40625 3.875,-0.65625 7.75,-1.3125 11.625,-1.96875 -4.17708,0.197917 -8.35417,0.395833 -12.53125,0.59375 4.14583,-0.822917 8.29167,-1.645833 12.4375,-2.46875 -4.20833,0.40625 -8.41667,0.8125 -12.625,1.21875 4.44792,-0.770833 8.89583,-1.541667 13.34375,-2.3125 -4.34375,0.427083 -8.6875,0.854167 -13.03125,1.28125 4.19792,-0.614583 8.39583,-1.229167 12.59375,-1.84375 -4.09375,0.4375 -8.1875,0.875 -12.28125,1.3125 4.01042,-1.145833 8.02083,-2.291667 12.03125,-3.4375 -4.10417,0.552083 -8.20833,1.104167 -12.3125,1.65625 4.01042,-0.96875 8.02083,-1.9375 12.03125,-2.90625 -4.33333,0.6875 -8.66667,1.375 -13,2.0625 4.11458,-1.333333 8.22917,-2.666667 12.34375,-4 -4.03125,0.854167 -8.0625,1.708333 -12.09375,2.5625 4.11458,-1.0625 8.22917,-2.125 12.34375,-3.1875 -4.19792,0.916667 -8.39583,1.833333 -12.59375,2.75 4.0625,-1.416667 8.125,-2.833333 12.1875,-4.25 -4.1875,1 -8.375,2 -12.5625,3 3.72917,-1.302083 7.45833,-2.604167 11.1875,-3.90625 -4.01042,1.020833 -8.02083,2.041667 -12.03125,3.0625 4.21875,-1.8125 8.4375,-3.625 12.65625,-5.4375 -4.03125,1.15625 -8.0625,2.3125 -12.09375,3.46875 3.52083,-1.364583 7.04167,-2.72917 10.5625,-4.09375 -4,1.27083 -8,2.541667 -12,3.8125 4.14583,-1.875 8.29167,-3.75 12.4375,-5.625 -3.96875,1.375 -7.9375,2.75 -11.90625,4.125 3.80208,-1.73958 7.60417,-3.47917 11.40625,-5.21875 -4.05208,1.36458 -8.10417,2.72917 -12.15625,4.09375 3.57292,-1.90625 7.14583,-3.8125 10.71875,-5.71875 -3.54167,1.54167 -7.08333,3.08333 -10.625,4.625 3.35417,-1.94792 6.70833,-3.89583 10.0625,-5.84375 -3.5,1.64583 -7,3.29167 -10.5,4.9375 3.60417,-1.90625 7.20833,-3.8125 10.8125,-5.71875 -4.125,1.75 -8.25,3.5 -12.375,5.25 3.9375,-2.32292 7.875,-4.64583 11.8125,-6.96875 -3.79167,1.86458 -7.58333,3.72917 -11.375,5.59375 3.34375,-2.01042 6.6875,-4.02083 10.03125,-6.03125 -3.76042,1.69792 -7.52083,3.39583 -11.28125,5.09375 3.59375,-2.13542 7.1875,-4.27083 10.78125,-6.40625 -3.53125,1.8125 -7.0625,3.625 -10.59375,5.4375 3.54167,-2.375 7.08333,-4.75 10.625,-7.125 -4.02083,1.84375 -8.04167,3.6875 -12.0625,5.53125 3.52083,-2.35417 7.04167,-4.70833 10.5625,-7.0625 -3.53125,2.20833 -7.0625,4.41667 -10.59375,6.625 3.19792,-2.45833 6.39583,-4.91667 9.59375,-7.375 -3.3125,1.91667 -6.625,3.83333 -9.9375,5.75 3.34375,-2.46875 6.6875,-4.9375 10.03125,-7.40625 -3.5625,2.41667 -7.125,4.83333 -10.6875,7.25 2.95833,-2.83333 5.91667,-5.66667 8.875,-8.5 -3.09375,2.61458 -6.1875,5.22917 -9.28125,7.84375 3.08333,-2.71875 6.16667,-5.4375 9.25,-8.15625 -3.33333,2.36458 -6.66667,4.72917 -10,7.09375 2.88542,-2.67708 5.77083,-5.35417 8.65625,-8.03125 -3.1875,2.19792 -6.375,4.39583 -9.5625,6.59375 2.95833,-2.59375 5.91667,-5.1875 8.875,-7.78125 -3.33333,2.25 -6.66667,4.5 -10,6.75 3.1875,-2.57292 6.375,-5.14583 9.5625,-7.71875 -3.45833,2.35417 -6.91667,4.70833 -10.375,7.0625 3.05208,-2.70833 6.10417,-5.41667 9.15625,-8.125 -3.35417,2.39583 -6.70833,4.79167 -10.0625,7.1875 2.76042,-2.96875 5.52083,-5.9375 8.28125,-8.90625 -2.9375,2.64583 -5.875,5.29167 -8.8125,7.9375 2.80208,-2.92708 5.60417,-5.85417 8.40625,-8.78125 -3.02083,2.60417 -6.04167,5.20833 -9.0625,7.8125 2.76042,-3.02083 5.52083,-6.04167 8.28125,-9.0625 -3,2.80208 -6,5.60417 -9,8.40625 2.59375,-2.98958 5.1875,-5.97917 7.78125,-8.96875 -2.82292,2.73958 -5.64583,5.47917 -8.46875,8.21875 2.51042,-3.02083 5.02083,-6.04167 7.53125,-9.0625 -2.75,3.0625 -5.5,6.125 -8.25,9.1875 2.30208,-3.39583 4.60417,-6.79167 6.90625,-10.1875 -2.79167,2.96875 -5.58333,5.9375 -8.375,8.90625 2.45833,-3.1875 4.91667,-6.375 7.375,-9.5625 -2.83333,2.875 -5.66667,5.75 -8.5,8.625 2.40625,-3.19792 4.8125,-6.39583 7.21875,-9.59375 -2.66667,3.27083 -5.33333,6.54167 -8,9.8125 2.19792,-3.63542 4.39583,-7.27083 6.59375,-10.90625 -2.58333,3.33333 -5.16667,6.66667 -7.75,10 2.47917,-3.52083 4.95833,-7.04167 7.4375,-10.5625 -2.61458,3.0625 -5.22917,6.125 -7.84375,9.1875 2.23958,-3.53125 4.47917,-7.0625 6.71875,-10.59375 -2.76042,3.33333 -5.52083,6.66667 -8.28125,10 2.375,-3.54167 4.75,-7.08333 7.125,-10.625 -2.61458,3.61458 -5.22917,7.22917 -7.84375,10.84375 2.25,-3.70833 4.5,-7.41667 6.75,-11.125 -2.60417,3.44792 -5.20833,6.89583 -7.8125,10.34375 2.08333,-3.69792 4.16667,-7.39583 6.25,-11.09375 -2.125,3.48958 -4.25,6.97917 -6.375,10.46875 1.77083,-3.96875 3.54167,-7.9375 5.3125,-11.90625 -2.13542,3.8125 -4.27083,7.625 -6.40625,11.4375 1.61458,-3.75 3.22917,-7.5 4.84375,-11.25 -2.25,3.6875 -4.5,7.375 -6.75,11.0625 1.78125,-3.96875 3.5625,-7.9375 5.34375,-11.90625 -1.89583,3.63542 -3.79167,7.27083 -5.6875,10.90625 1.6875,-3.88542 3.375,-7.77083 5.0625,-11.65625 -2.0625,3.84375 -4.125,7.6875 -6.1875,11.53125 1.51042,-3.85417 3.02083,-7.70833 4.53125,-11.5625 -1.9375,3.67708 -3.875,7.35417 -5.8125,11.03125 1.3125,-3.8125 2.625,-7.625 3.9375,-11.4375 -1.57292,3.72917 -3.14583,7.45833 -4.71875,11.1875 1.29167,-3.94792 2.58333,-7.89583 3.875,-11.84375 -1.77083,3.79167 -3.54167,7.58333 -5.3125,11.375 1.375,-3.96875 2.75,-7.9375 4.125,-11.90625 -1.63542,3.67708 -3.27083,7.35417 -4.90625,11.03125 1.19792,-4.10417 2.39583,-8.20833 3.59375,-12.3125 -1.60417,4.15625 -3.20833,8.3125 -4.8125,12.46875 1.125,-4.23958 2.25,-8.47917 3.375,-12.71875 -1.375,4.20833 -2.75,8.41667 -4.125,12.625 0.89583,-4.15625 1.79167,-8.3125 2.6875,-12.46875 -1.14583,4.01042 -2.29167,8.02083 -3.4375,12.03125 0.76042,-4.30208 1.52083,-8.60417 2.28125,-12.90625 -1.35417,4.13542 -2.70833,8.27083 -4.0625,12.40625 0.64583,-4.23958 1.29167,-8.47917 1.9375,-12.71875 -0.75,4.26042 -1.5,8.52083 -2.25,12.78125 0.3125,-4.17708 0.625,-8.35417 0.9375,-12.53125 -0.76042,3.83333 -1.52083,7.66667 -2.28125,11.5 0.57292,-3.88542 1.14583,-7.77083 1.71875,-11.65625 -0.95833,4.07292 -1.91667,8.14583 -2.875,12.21875 0.40625,-4.35417 0.8125,-8.70833 1.21875,-13.0625 -0.875,4.1875 -1.75,8.375 -2.625,12.5625 0.4375,-4.10417 0.875,-8.20833 1.3125,-12.3125 -0.60417,3.83333 -1.20833,7.66667 -1.8125,11.5 0.0833,-4.04167 0.16667,-8.08333 0.25,-12.125 -0.72917,4.02083 -1.45833,8.04167 -2.1875,12.0625 0.30208,-4.16667 0.60417,-8.33333 0.90625,-12.5 -0.60417,4.41667 -1.20833,8.83333 -1.8125,13.25 -0.10417,-4.38542 -0.20833,-8.77083 -0.3125,-13.15625 -0.21875,4.03125 -0.4375,8.0625 -0.65625,12.09375 0.0937,-4.02083 0.1875,-8.04167 0.28125,-12.0625 -0.46875,4.17708 -0.9375,8.35417 -1.40625,12.53125 -0.3125,-4.0625 -0.625,-8.125 -0.9375,-12.1875 -0.0833,4.03125 -0.16667,8.0625 -0.25,12.09375 -0.13542,-4.10417 -0.27083,-8.20833 -0.40625,-12.3125 -0.17708,4.34375 -0.35417,8.6875 -0.53125,13.03125 -0.51042,-4.51042 -1.02083,-9.02083 -1.53125,-13.53125 0.14583,4.32292 0.29167,8.64583 0.4375,12.96875 z"
         id="path2873"
         sodipodi:nodetypes="cccccccccccccccccccccccccccccccccccccccccccccccccccccccccccccccccccccccccccccccccccccccccccccccccccccccccccccccccccccccccccccccccccccccccccccccccccccccccccccccccccccccccccccccccccccccccccccccccccccccccccccccccccccccccccccccccccccccccccccccccccccccccccccccccccccccccccccccccccccccccccccccccccccccccccccccccccccccccccccccccccccccccccccccccccccccccccccccccccccccccccccccccccccccccccccccccccccccccccccccccccccccccccccccccccccccccccccccccccccccccccccccccccccccccccccccccccccccccccccccccccccccccccccccccccccccccccccccccccccccccccccccccccccccccccccccccccccccccc" />
      <path
         transform="matrix(-0.94730967,-0.32031919,0.32031919,-0.94730967,-509.43407,688.67335)"
         d="m -271.4375,-111.09375 c -7.19073,0 -15.48015,1.99624 -22.0625,5.59375 -2.37855,1.29997 -4.39844,2.85689 -6.21875,4.5 17.10719,-6.35686 33.42654,-6.66861 49.03125,-2.25 -5.86125,-4.68807 -13.51455,-7.84375 -20.75,-7.84375 z"
         id="path3886"
         style="opacity:0.3;fill:url(#linearGradient3952);fill-opacity:1;stroke:none;filter:url(#filter3890)"
         inkscape:original="M -271.4375 -115.1875 C -287.28528 -115.1875 -306.72094 -106.67093 -310.125 -91.9375 C -284.1532 -105.77283 -260.92414 -104.98401 -238.46875 -94.40625 C -243.57493 -106.0947 -257.75158 -115.1875 -271.4375 -115.1875 z "
         inkscape:radius="-4.0928288"
         sodipodi:type="inkscape:offset" />
      <path
         transform="matrix(1.0746888,0,0,1.0746888,5.8821035,926.44723)"
         d="m -214.99999,-78.25 c 0,23.767968 -19.26775,43.035713 -43.03572,43.035713 -23.76796,0 -43.03571,-19.267745 -43.03571,-43.035713 0,-23.76797 19.26775,-43.03571 43.03571,-43.03571 23.76797,0 43.03572,19.26774 43.03572,43.03571 z"
         sodipodi:ry="43.035713"
         sodipodi:rx="43.035713"
         sodipodi:cy="-78.25"
         sodipodi:cx="-258.03571"
         id="path3671"
         style="opacity:0.4;fill:url(#radialGradient3954);fill-opacity:1;stroke:none;filter:url(#filter3788)"
         sodipodi:type="arc" />
      <path
         sodipodi:nodetypes="csccsc"
         id="path3733"
         transform="translate(0,924.36218)"
         d="m -271.4375,-128.25 c -25.54317,0 -46.25,20.70683 -46.25,46.25 0,3.480799 0.39612,6.863982 1.125,10.125 31.91352,-11.524255 62.74825,-14.942956 91.28125,-7.5 0.0489,-0.871463 0.0937,-1.741302 0.0937,-2.625 0,-25.54317 -20.70683,-46.25 -46.25,-46.25 z"
         style="fill:url(#linearGradient3956);fill-opacity:1;stroke:none;filter:url(#filter3796)" />
      <path
         sodipodi:type="arc"
         style="opacity:0.18000004000000000;fill:url(#radialGradient4030);fill-opacity:1;stroke:none;filter:url(#filter3820)"
         id="path3800"
         sodipodi:cx="-258.03571"
         sodipodi:cy="-78.25"
         sodipodi:rx="43.035713"
         sodipodi:ry="43.035713"
         d="m -214.99999,-78.25 c 0,23.767968 -19.26775,43.035713 -43.03572,43.035713 -23.76796,0 -43.03571,-19.267745 -43.03571,-43.035713 0,-23.76797 19.26775,-43.03571 43.03571,-43.03571 23.76797,0 43.03572,19.26774 43.03572,43.03571 z"
         transform="matrix(1.0746888,0,0,1.0746888,5.8970656,926.56197)" />
      <path
         transform="matrix(1.0746888,0,0,1.0746888,5.8821035,926.44723)"
         d="m -258.03125,-120.34375 c -23.26266,0 -42.09375,18.83109 -42.09375,42.09375 0,23.262656 18.83109,42.09375 42.09375,42.09375 23.26266,0 42.09375,-18.831094 42.09375,-42.09375 0,-23.26266 -18.83109,-42.09375 -42.09375,-42.09375 z"
         id="path3826"
         style="fill:none;stroke:url(#linearGradient3960);stroke-width:1.86100388;stroke-miterlimit:4;stroke-opacity:1;stroke-dasharray:none;filter:url(#filter3834)"
         inkscape:original="M -258.03125 -121.28125 C -281.79922 -121.28125 -301.0625 -102.01797 -301.0625 -78.25 C -301.0625 -54.482032 -281.79922 -35.21875 -258.03125 -35.21875 C -234.26328 -35.21875 -215 -54.482032 -215 -78.25 C -215 -102.01797 -234.26328 -121.28125 -258.03125 -121.28125 z "
         inkscape:radius="-0.93521726"
         sodipodi:type="inkscape:offset" />
      <path
         transform="matrix(1.0746888,0,0,1.0746888,5.8821035,926.44723)"
         d="m -258.03125,-121.59375 c -23.94374,0 -43.34375,19.40001 -43.34375,43.34375 0,23.943734 19.40001,43.34375 43.34375,43.34375 23.94374,0 43.34375,-19.400016 43.34375,-43.34375 0,-23.94374 -19.40001,-43.34375 -43.34375,-43.34375 z"
         id="path3842"
         style="opacity:0.50000000000000000;fill:none;stroke:url(#linearGradient3962);stroke-width:1.20965254000000000;stroke-miterlimit:4;stroke-opacity:1;stroke-dasharray:none;filter:url(#filter4004)"
         inkscape:original="M -258.03125 -120.34375 C -281.29391 -120.34375 -300.125 -101.51266 -300.125 -78.25 C -300.125 -54.987344 -281.29391 -36.15625 -258.03125 -36.15625 C -234.76859 -36.15625 -215.9375 -54.987344 -215.9375 -78.25 C -215.9375 -101.51266 -234.76859 -120.34375 -258.03125 -120.34375 z "
         inkscape:radius="1.2620374"
         sodipodi:type="inkscape:offset" />
      <path
         transform="matrix(1.417857,0,0,1.3264294,117.43038,934.92321)"
         d="m -254.55843,-52.312229 c 0,6.13681 -8.81909,11.111678 -19.69798,11.111678 -10.87889,0 -19.69797,-4.974868 -19.69797,-11.111678 0,-6.136811 8.81908,-11.111678 19.69797,-11.111678 10.87889,0 19.69798,4.974867 19.69798,11.111678 z"
         sodipodi:ry="11.111678"
         sodipodi:rx="19.697975"
         sodipodi:cy="-52.312229"
         sodipodi:cx="-274.25641"
         id="path3894"
         style="opacity:0.55;fill:url(#linearGradient3964);fill-opacity:1;stroke:none;filter:url(#filter3936)"
         sodipodi:type="arc" />
    </g>
  </g>
</svg>
