<?xml version="1.0" encoding="UTF-8" standalone="no"?>
<!-- Created with Inkscape (http://www.inkscape.org/) -->

<svg
   xmlns:dc="http://purl.org/dc/elements/1.1/"
   xmlns:cc="http://creativecommons.org/ns#"
   xmlns:rdf="http://www.w3.org/1999/02/22-rdf-syntax-ns#"
   xmlns:svg="http://www.w3.org/2000/svg"
   xmlns="http://www.w3.org/2000/svg"
   xmlns:xlink="http://www.w3.org/1999/xlink"
   xmlns:sodipodi="http://sodipodi.sourceforge.net/DTD/sodipodi-0.dtd"
   xmlns:inkscape="http://www.inkscape.org/namespaces/inkscape"
   width="128"
   height="128"
   id="svg2"
   sodipodi:version="0.32"
   inkscape:version="0.47 r22583"
   version="1.0"
   sodipodi:docname="unknown.svg"
   inkscape:output_extension="org.inkscape.output.svg.inkscape"
   inkscape:export-filename="D:\Projekte\cream\art\creamlooks-icontheme\icons\scalable\widgets\weather\png\unknown.png"
   inkscape:export-xdpi="90"
   inkscape:export-ydpi="90">
  <defs
     id="defs4">
    <inkscape:perspective
       sodipodi:type="inkscape:persp3d"
       inkscape:vp_x="0 : 64 : 1"
       inkscape:vp_y="0 : 1000 : 0"
       inkscape:vp_z="128 : 64 : 1"
       inkscape:persp3d-origin="64 : 42.666667 : 1"
       id="perspective39" />
    <linearGradient
       id="linearGradient3777">
      <stop
         id="stop3779"
         offset="0"
         style="stop-color:#f8ead2;stop-opacity:1;" />
      <stop
         style="stop-color:#cfb07f;stop-opacity:1;"
         offset="0.1"
         id="stop3781" />
      <stop
         id="stop3783"
         offset="1"
         style="stop-color:#454545;stop-opacity:1;" />
    </linearGradient>
    <linearGradient
       inkscape:collect="always"
       id="linearGradient3674">
      <stop
         style="stop-color:#ffffff;stop-opacity:1;"
         offset="0"
         id="stop3676" />
      <stop
         style="stop-color:#ffffff;stop-opacity:0;"
         offset="1"
         id="stop3678" />
    </linearGradient>
    <linearGradient
       id="linearGradient3661">
      <stop
         style="stop-color:#f8ead2;stop-opacity:1;"
         offset="0"
         id="stop3663" />
      <stop
         id="stop3665"
         offset="0.31306195"
         style="stop-color:#cfb07f;stop-opacity:1;" />
      <stop
         style="stop-color:#454545;stop-opacity:1;"
         offset="1"
         id="stop3667" />
    </linearGradient>
    <linearGradient
       id="linearGradient3645">
      <stop
         id="stop3647"
         offset="0"
         style="stop-color:#f8ead2;stop-opacity:1;" />
      <stop
         style="stop-color:#cfb07f;stop-opacity:1;"
         offset="0.36649191"
         id="stop3649" />
      <stop
         id="stop3651"
         offset="1"
         style="stop-color:#454545;stop-opacity:1;" />
    </linearGradient>
    <linearGradient
       inkscape:collect="always"
       xlink:href="#linearGradient3645"
       id="linearGradient3691"
       gradientUnits="userSpaceOnUse"
       x1="-73.236649"
       y1="-11.502551"
       x2="-161.625"
       y2="74.352463" />
    <linearGradient
       inkscape:collect="always"
       xlink:href="#linearGradient3661"
       id="linearGradient3693"
       gradientUnits="userSpaceOnUse"
       x1="-150.51332"
       y1="138.00003"
       x2="-95.6875"
       y2="-30.6875" />
    <linearGradient
       inkscape:collect="always"
       xlink:href="#linearGradient3674"
       id="linearGradient3695"
       gradientUnits="userSpaceOnUse"
       x1="-109.60722"
       y1="66.78714"
       x2="-134.71716"
       y2="57.692898" />
    <linearGradient
       inkscape:collect="always"
       xlink:href="#linearGradient3674"
       id="linearGradient3697"
       gradientUnits="userSpaceOnUse"
       x1="-75.767105"
       y1="-18.318209"
       x2="-122.3428"
       y2="-2.9162557" />
    <linearGradient
       inkscape:collect="always"
       xlink:href="#linearGradient3674"
       id="linearGradient3758"
       gradientUnits="userSpaceOnUse"
       x1="-174.26736"
       y1="64.40834"
       x2="-133.63589"
       y2="65.910576"
       gradientTransform="matrix(0.82574599,0,0,0.82574599,170.12955,32.655207)" />
    <linearGradient
       inkscape:collect="always"
       xlink:href="#linearGradient3777"
       id="linearGradient3771"
       gradientUnits="userSpaceOnUse"
       x1="-371.12082"
       y1="78.304108"
       x2="-128.65625"
       y2="78.304108" />
    <filter
       inkscape:collect="always"
       id="filter3785"
       x="-0.11215784"
       width="1.2243157"
       y="-0.053017288"
       height="1.1060346">
      <feGaussianBlur
         inkscape:collect="always"
         stdDeviation="3.0346875"
         id="feGaussianBlur3787" />
    </filter>
  </defs>
  <sodipodi:namedview
     id="base"
     pagecolor="#ffffff"
     bordercolor="#666666"
     borderopacity="1.0"
     inkscape:pageopacity="0.0"
     inkscape:pageshadow="2"
     inkscape:zoom="1.4"
     inkscape:cx="36.694605"
     inkscape:cy="54.850503"
     inkscape:document-units="px"
     inkscape:current-layer="text2832"
     showgrid="false"
     inkscape:showpageshadow="false"
     inkscape:window-width="1440"
     inkscape:window-height="838"
     inkscape:window-x="-8"
     inkscape:window-y="-8"
     inkscape:window-maximized="1" />
  <metadata
     id="metadata7">
    <rdf:RDF>
      <cc:Work
         rdf:about="">
        <dc:format>image/svg+xml</dc:format>
        <dc:type
           rdf:resource="http://purl.org/dc/dcmitype/StillImage" />
        <dc:title></dc:title>
      </cc:Work>
    </rdf:RDF>
  </metadata>
  <g
     inkscape:label="Ebene 1"
     inkscape:groupmode="layer"
     id="layer1">
    <rect
       style="opacity:0.59500002;fill:#ffffff;fill-opacity:1;fill-rule:nonzero;stroke:none;stroke-width:0.30000001;stroke-linejoin:miter;marker:none;marker-start:none;marker-mid:none;marker-end:none;stroke-miterlimit:4;stroke-dasharray:none;stroke-dashoffset:0;stroke-opacity:1;visibility:visible;display:inline;overflow:visible;enable-background:accumulate"
       id="rect3326"
       width="0.17703044"
       height="0"
       x="62.65099"
       y="69.556252"
       rx="0.60764515"
       ry="0" />
    <rect
       style="opacity:0.59500002;fill:#ffffff;fill-opacity:1;fill-rule:nonzero;stroke:none;stroke-width:0.30000001;stroke-linejoin:miter;marker:none;marker-start:none;marker-mid:none;marker-end:none;stroke-miterlimit:4;stroke-dasharray:none;stroke-dashoffset:0;stroke-opacity:1;visibility:visible;display:inline;overflow:visible;enable-background:accumulate"
       id="rect6725"
       width="0.28655165"
       height="0"
       x="26.769144"
       y="50.854515"
       rx="0.98356944"
       ry="0" />
    <g
       style="font-size:40px;font-style:normal;font-weight:normal;fill:#000000;fill-opacity:1;stroke:none;font-family:Bitstream Vera Sans"
       id="text2832"
       transform="translate(0.06313453,0)">
      <g
         id="g3789">
        <path
           sodipodi:type="inkscape:offset"
           inkscape:radius="0"
           inkscape:original="M -131.125 -30.1875 C -141.47902 -30.187345 -154.82062 -22.359423 -161.125 -16.53125 L -161.125 -10.34375 C -146.02792 -18.706144 -114.91222 -33.102522 -111.40625 6.28125 C -112.04703 35.506072 -149.47556 50.974405 -141.21875 84.84375 L -134.96875 84.84375 C -141.07219 58.671011 -116.22195 43.320562 -105.375 29.625 C -102.8813 26.116744 -100.26648 22.508172 -98.625 18.3125 C -96.983571 14.11705 -96.187556 9.3530779 -96.1875 4 C -96.187556 -1.6421752 -97.075433 -6.6069676 -98.90625 -10.875 C -100.73723 -15.142755 -103.24931 -18.705032 -106.4375 -21.5625 C -109.62581 -24.419673 -113.33254 -26.553102 -117.5625 -28 C -121.79251 -29.446592 -126.32682 -30.187345 -131.125 -30.1875 z M -137.5 96.15625 C -138.99354 96.15626 -140.31103 96.717261 -141.40625 97.8125 C -142.50135 98.841379 -143.03125 100.1276 -143.03125 101.6875 C -143.03125 103.21421 -142.50151 104.53169 -141.40625 105.59375 C -140.27781 106.65581 -138.96032 107.1875 -137.5 107.1875 C -136.03968 107.1875 -134.75349 106.6558 -133.625 105.59375 C -132.5299 104.53169 -131.9688 103.21421 -131.96875 101.6875 C -131.9688 100.1276 -132.52979 98.841379 -133.625 97.8125 C -134.72027 96.71726 -136.00651 96.15626 -137.5 96.15625 z "
           style="font-variant:normal;font-stretch:normal;fill:none;fill-opacity:1;stroke:url(#linearGradient3771);stroke-linejoin:round;stroke-opacity:1;font-family:Segoe UI;-inkscape-font-specification:Segoe UI;stroke-width:1.33211964;stroke-miterlimit:4;stroke-dasharray:none;filter:url(#filter3785)"
           id="path3732"
           d="m -131.125,-30.1875 c -10.35402,1.55e-4 -23.69562,7.828077 -30,13.65625 l 0,6.1875 c 15.09708,-8.362394 46.21278,-22.758772 49.71875,16.625 -0.64078,29.224822 -38.06931,44.693155 -29.8125,78.5625 l 6.25,0 c -6.10344,-26.172739 18.7468,-41.523188 29.59375,-55.21875 2.4937,-3.508256 5.10852,-7.116828 6.75,-11.3125 1.641429,-4.19545 2.437444,-8.9594221 2.4375,-14.3125 -5.6e-5,-5.6421752 -0.887933,-10.6069676 -2.71875,-14.875 -1.83098,-4.267755 -4.34306,-7.830032 -7.53125,-10.6875 -3.18831,-2.857173 -6.89504,-4.990602 -11.125,-6.4375 -4.23001,-1.446592 -8.76432,-2.187345 -13.5625,-2.1875 z M -137.5,96.15625 c -1.49354,1e-5 -2.81103,0.561011 -3.90625,1.65625 -1.0951,1.028879 -1.625,2.3151 -1.625,3.875 0,1.52671 0.52974,2.84419 1.625,3.90625 1.12844,1.06206 2.44593,1.59375 3.90625,1.59375 1.46032,0 2.74651,-0.5317 3.875,-1.59375 1.0951,-1.06206 1.6562,-2.37954 1.65625,-3.90625 -5e-5,-1.5599 -0.56104,-2.846121 -1.65625,-3.875 -1.09527,-1.09524 -2.38151,-1.65624 -3.875,-1.65625 z"
           transform="matrix(0.82575166,0,0,0.82575166,170.17498,32.208561)" />
        <g
           transform="matrix(0.82574599,0,0,0.82574599,170.22638,32.208779)"
           id="g3686">
          <path
             sodipodi:type="inkscape:offset"
             inkscape:radius="0"
             inkscape:original="M -131.125 -30.1875 C -141.47902 -30.187345 -154.82062 -22.359423 -161.125 -16.53125 L -161.125 -10.34375 C -146.02792 -18.706144 -114.91222 -33.102522 -111.40625 6.28125 C -112.04703 35.506072 -149.47556 50.974405 -141.21875 84.84375 L -134.96875 84.84375 C -141.07219 58.671011 -116.22195 43.320562 -105.375 29.625 C -102.8813 26.116744 -100.26648 22.508172 -98.625 18.3125 C -96.983571 14.11705 -96.187556 9.3530779 -96.1875 4 C -96.187556 -1.6421752 -97.075433 -6.6069676 -98.90625 -10.875 C -100.73723 -15.142755 -103.24931 -18.705032 -106.4375 -21.5625 C -109.62581 -24.419673 -113.33254 -26.553102 -117.5625 -28 C -121.79251 -29.446592 -126.32682 -30.187345 -131.125 -30.1875 z M -137.5 96.15625 C -138.99354 96.15626 -140.31103 96.717261 -141.40625 97.8125 C -142.50135 98.841379 -143.03125 100.1276 -143.03125 101.6875 C -143.03125 103.21421 -142.50151 104.53169 -141.40625 105.59375 C -140.27781 106.65581 -138.96032 107.1875 -137.5 107.1875 C -136.03968 107.1875 -134.75349 106.6558 -133.625 105.59375 C -132.5299 104.53169 -131.9688 103.21421 -131.96875 101.6875 C -131.9688 100.1276 -132.52979 98.841379 -133.625 97.8125 C -134.72027 96.71726 -136.00651 96.15626 -137.5 96.15625 z "
             style="font-variant:normal;font-stretch:normal;fill:url(#linearGradient3691);fill-opacity:1;stroke:url(#linearGradient3693);stroke-linejoin:round;stroke-opacity:1;font-family:Segoe UI;-inkscape-font-specification:Segoe UI"
             id="path2861"
             d="m -131.125,-30.1875 c -10.35402,1.55e-4 -23.69562,7.828077 -30,13.65625 l 0,6.1875 c 15.09708,-8.362394 46.21278,-22.758772 49.71875,16.625 -0.64078,29.224822 -38.06931,44.693155 -29.8125,78.5625 l 6.25,0 c -6.10344,-26.172739 18.7468,-41.523188 29.59375,-55.21875 2.4937,-3.508256 5.10852,-7.116828 6.75,-11.3125 1.641429,-4.19545 2.437444,-8.9594221 2.4375,-14.3125 -5.6e-5,-5.6421752 -0.887933,-10.6069676 -2.71875,-14.875 -1.83098,-4.267755 -4.34306,-7.830032 -7.53125,-10.6875 -3.18831,-2.857173 -6.89504,-4.990602 -11.125,-6.4375 -4.23001,-1.446592 -8.76432,-2.187345 -13.5625,-2.1875 z M -137.5,96.15625 c -1.49354,1e-5 -2.81103,0.561011 -3.90625,1.65625 -1.0951,1.028879 -1.625,2.3151 -1.625,3.875 0,1.52671 0.52974,2.84419 1.625,3.90625 1.12844,1.06206 2.44593,1.59375 3.90625,1.59375 1.46032,0 2.74651,-0.5317 3.875,-1.59375 1.0951,-1.06206 1.6562,-2.37954 1.65625,-3.90625 -5e-5,-1.5599 -0.56104,-2.846121 -1.65625,-3.875 -1.09527,-1.09524 -2.38151,-1.65624 -3.875,-1.65625 z"
             transform="translate(-0.06313453,0)" />
          <path
             transform="translate(-0.06313453,0)"
             style="font-variant:normal;font-stretch:normal;opacity:0.85;fill:url(#linearGradient3697);fill-opacity:1;stroke:none;font-family:Segoe UI;-inkscape-font-specification:Segoe UI"
             d="m -131.125,-30.1875 c -0.64713,10e-6 -1.30073,0.03498 -1.96875,0.09375 3.6684,0.250092 7.15451,0.960337 10.46875,2.09375 4.22996,1.446898 7.93669,3.580327 11.125,6.4375 3.18819,2.857468 5.70027,6.419745 7.53125,10.6875 1.83082,4.2680324 2.71869,9.2328248 2.71875,14.875 -6e-5,5.3530779 -0.79607,10.11705 -2.4375,14.3125 -1.64148,4.195672 -4.2563,7.804244 -6.75,11.3125 -10.84695,13.695562 -35.69719,29.046011 -29.59375,55.21875 l 5.0625,0 c -6.10344,-26.172739 18.7468,-41.523188 29.59375,-55.21875 2.4937,-3.508256 5.10852,-7.116828 6.75,-11.3125 1.641429,-4.19545 2.437444,-8.9594221 2.4375,-14.3125 -5.6e-5,-5.6421752 -0.887933,-10.6069676 -2.71875,-14.875 -1.83098,-4.267755 -4.34306,-7.830032 -7.53125,-10.6875 -3.18831,-2.857173 -6.89504,-4.990602 -11.125,-6.4375 -4.23001,-1.446592 -8.76432,-2.187345 -13.5625,-2.1875 z m -5.84375,10.25 c -8.06731,-0.222417 -17.01729,3.356225 -24.15625,6.9375 l 0,2.65625 c 6.7441,-3.735609 16.68944,-8.656998 25.9375,-9.46875 -0.58872,-0.06021 -1.18117,-0.108456 -1.78125,-0.125 z M -137.5,96.15625 c -0.91013,6e-6 -1.76233,0.214413 -2.53125,0.625 0.47915,0.261752 0.92213,0.609639 1.34375,1.03125 1.09521,1.028879 1.6562,2.3151 1.65625,3.875 -5e-5,1.52671 -0.56115,2.84419 -1.65625,3.90625 -0.43058,0.40523 -0.86634,0.71802 -1.34375,0.96875 0.78293,0.4064 1.62813,0.625 2.53125,0.625 1.46032,0 2.74651,-0.5317 3.875,-1.59375 1.0951,-1.06206 1.6562,-2.37954 1.65625,-3.90625 -5e-5,-1.5599 -0.56104,-2.846121 -1.65625,-3.875 -1.09527,-1.09524 -2.38151,-1.65624 -3.875,-1.65625 z"
             id="path3669" />
        </g>
        <path
           id="path3734"
           d="m 61.853666,7.7279965 c -0.534365,8e-6 -1.074073,0.028894 -1.625687,0.077414 3.029166,0.206512 5.907808,0.792994 8.644528,1.728905 3.492872,1.1947705 6.55369,2.9564405 9.186424,5.3157395 2.632635,2.359543 4.706975,5.301079 6.2189,8.82516 1.511792,3.524311 2.244947,7.623968 2.244997,12.282972 -5e-5,4.420283 -0.657352,8.354113 -2.012756,11.818489 -1.355446,3.46456 -3.514623,6.444324 -5.573786,9.341252 -8.956825,11.309055 -29.476811,23.984627 -24.43692,45.596682 l 4.180339,0 C 53.639814,81.102555 74.1598,68.426983 83.116625,57.117928 85.175788,54.221 87.334965,51.241236 88.690411,47.776676 90.045814,44.3123 90.70312,40.37847 90.703167,35.958187 90.70312,31.299183 89.969959,27.199526 88.45817,23.675215 86.946245,20.151134 84.871905,17.209598 82.23927,14.850055 79.606536,12.490756 76.545719,10.729086 73.052846,9.5343155 69.559932,8.3397985 65.815744,7.7281245 61.853666,7.7279965 z m -4.825453,8.4638995 c -6.661549,-0.18366 -14.430766,2.77139 -20.325734,5.728613 l 0.04669,1.848663 0.30055,0.313158 c 5.568914,-3.084664 13.812806,-7.116914 21.449354,-7.787215 -0.486133,-0.04972 -0.975346,-0.08956 -1.47086,-0.103219 z"
           style="font-variant:normal;font-stretch:normal;opacity:0.5;fill:url(#linearGradient3758);fill-opacity:1;stroke:none;font-family:Segoe UI;-inkscape-font-specification:Segoe UI"
           sodipodi:nodetypes="ccsssssccccsssssccccccc" />
      </g>
    </g>
  </g>
</svg>
