<?xml version="1.0" encoding="UTF-8" standalone="no"?>
<!-- Created with Inkscape (http://www.inkscape.org/) -->
<svg
   xmlns:dc="http://purl.org/dc/elements/1.1/"
   xmlns:cc="http://creativecommons.org/ns#"
   xmlns:rdf="http://www.w3.org/1999/02/22-rdf-syntax-ns#"
   xmlns:svg="http://www.w3.org/2000/svg"
   xmlns="http://www.w3.org/2000/svg"
   xmlns:xlink="http://www.w3.org/1999/xlink"
   xmlns:sodipodi="http://sodipodi.sourceforge.net/DTD/sodipodi-0.dtd"
   xmlns:inkscape="http://www.inkscape.org/namespaces/inkscape"
   width="100"
   height="100"
   id="svg2"
   sodipodi:version="0.32"
   inkscape:version="0.46"
   version="1.0"
   sodipodi:docname="newIdle.svg"
   inkscape:output_extension="org.inkscape.output.svg.inkscape"
   inkscape:export-filename="/home/immanuel/MY-DATA/ARCHIVE/prj/cream/art/icon-theme/scalable/animations/process-idle.png"
   inkscape:export-xdpi="90"
   inkscape:export-ydpi="90">
  <defs
     id="defs4">
    <inkscape:perspective
       sodipodi:type="inkscape:persp3d"
       inkscape:vp_x="0 : 128 : 1"
       inkscape:vp_y="0 : 1000 : 0"
       inkscape:vp_z="256 : 128 : 1"
       inkscape:persp3d-origin="128 : 85.333333 : 1"
       id="perspective31" />
    <linearGradient
       inkscape:collect="always"
       id="linearGradient3370">
      <stop
         style="stop-color:#ffffff;stop-opacity:1;"
         offset="0"
         id="stop3372" />
      <stop
         style="stop-color:#ffffff;stop-opacity:0;"
         offset="1"
         id="stop3374" />
    </linearGradient>
    <linearGradient
       id="linearGradient3213">
      <stop
         style="stop-color:#f8f8f8;stop-opacity:1;"
         offset="0"
         id="stop3215" />
      <stop
         id="stop3217"
         offset="0.5"
         style="stop-color:#e9e9e9;stop-opacity:1;" />
      <stop
         style="stop-color:#f2f2f2;stop-opacity:1;"
         offset="1"
         id="stop3219" />
    </linearGradient>
    <linearGradient
       id="linearGradient3385">
      <stop
         style="stop-color:#f8ead2;stop-opacity:1;"
         offset="0"
         id="stop3387" />
      <stop
         id="stop3393"
         offset="0.5"
         style="stop-color:#cfb07f;stop-opacity:1;" />
      <stop
         style="stop-color:#dcc29b;stop-opacity:1;"
         offset="1"
         id="stop3389" />
    </linearGradient>
    <filter
       inkscape:collect="always"
       id="filter3359">
      <feGaussianBlur
         inkscape:collect="always"
         stdDeviation="2.4886137"
         id="feGaussianBlur3361" />
    </filter>
    <linearGradient
       inkscape:collect="always"
       xlink:href="#linearGradient3213"
       id="linearGradient2524"
       gradientUnits="userSpaceOnUse"
       x1="207.55634"
       y1="250.8911"
       x2="207.55634"
       y2="1.8588696" />
    <linearGradient
       inkscape:collect="always"
       xlink:href="#linearGradient3385"
       id="linearGradient2526"
       gradientUnits="userSpaceOnUse"
       gradientTransform="matrix(0.9015099,0,0,0.9015099,12.60673,13.749715)"
       x1="80.999466"
       y1="9.8108034"
       x2="80.999466"
       y2="240.68875" />
    <linearGradient
       inkscape:collect="always"
       xlink:href="#linearGradient3370"
       id="linearGradient2528"
       gradientUnits="userSpaceOnUse"
       x1="23.571426"
       y1="-114.71429"
       x2="167.46608"
       y2="119.90848" />
    <linearGradient
       inkscape:collect="always"
       xlink:href="#linearGradient3213"
       id="linearGradient2404"
       gradientUnits="userSpaceOnUse"
       x1="207.55634"
       y1="250.8911"
       x2="207.55634"
       y2="1.8588696" />
  </defs>
  <sodipodi:namedview
     id="base"
     pagecolor="#ffffff"
     bordercolor="#666666"
     borderopacity="1.0"
     gridtolerance="10000"
     guidetolerance="10"
     objecttolerance="10"
     inkscape:pageopacity="0.0"
     inkscape:pageshadow="2"
     inkscape:zoom="1"
     inkscape:cx="62.78625"
     inkscape:cy="92.423156"
     inkscape:document-units="px"
     inkscape:current-layer="layer1"
     showgrid="false"
     inkscape:showpageshadow="false"
     inkscape:window-width="1024"
     inkscape:window-height="722"
     inkscape:window-x="4"
     inkscape:window-y="67" />
  <metadata
     id="metadata7">
    <rdf:RDF>
      <cc:Work
         rdf:about="">
        <dc:format>image/svg+xml</dc:format>
        <dc:type
           rdf:resource="http://purl.org/dc/dcmitype/StillImage" />
      </cc:Work>
    </rdf:RDF>
  </metadata>
  <g
     inkscape:label="Layer 1"
     inkscape:groupmode="layer"
     id="layer1">
    <g
       id="g3331"
       transform="matrix(0.2895272,0,0,0.2895272,12.940519,12.943215)">
      <path
         sodipodi:type="inkscape:offset"
         inkscape:radius="7.2833271"
         inkscape:original="M 128 10.25 C 64.058626 10.25 11.874999 62.433607 11.875 126.375 C 11.875 190.31638 64.058632 242.49999 128 242.5 C 191.94137 242.5 244.125 190.31637 244.125 126.375 C 244.125 62.43361 191.94138 10.249999 128 10.25 z M 128 32.03125 C 180.1038 32.031249 222.34375 74.271186 222.34375 126.375 C 222.34375 178.4788 180.10381 220.71875 128 220.71875 C 75.8962 220.71874 33.65625 178.4788 33.65625 126.375 C 33.656249 74.271182 75.896205 32.03125 128 32.03125 z "
         style="fill:url(#linearGradient2404);fill-opacity:1;fill-rule:nonzero;stroke:#e9e9e9;stroke-width:2.21850038;stroke-linecap:round;stroke-linejoin:round;marker:none;stroke-miterlimit:4;stroke-dasharray:none;stroke-dashoffset:0;stroke-opacity:1;visibility:visible;display:inline;overflow:visible"
         id="path3223"
         d="M 128,2.96875 C 60.095931,2.96875 4.5937489,58.470911 4.59375,126.375 C 4.59375,194.27908 60.095937,249.78124 128,249.78125 C 195.90407,249.78125 251.40625,194.27907 251.40625,126.375 C 251.40625,58.470915 195.90408,2.9687489 128,2.96875 z M 128,39.3125 C 176.16746,39.312499 215.0625,78.207524 215.0625,126.375 C 215.0625,174.54246 176.16747,213.4375 128,213.4375 C 79.832538,213.43749 40.9375,174.54246 40.9375,126.375 C 40.937499,78.207521 79.832543,39.3125 128,39.3125 z"
         transform="matrix(0.9015099,0,0,0.9015099,12.60673,14.071684)" />
      <g
         id="g2411">
        <path
           sodipodi:type="inkscape:offset"
           inkscape:radius="7.2833271"
           inkscape:original="M 128 10.25 C 64.058626 10.25 11.874999 62.433607 11.875 126.375 C 11.875 190.31638 64.058632 242.49999 128 242.5 C 191.94137 242.5 244.125 190.31637 244.125 126.375 C 244.125 62.43361 191.94138 10.249999 128 10.25 z M 128 32.03125 C 180.1038 32.031249 222.34375 74.271186 222.34375 126.375 C 222.34375 178.4788 180.10381 220.71875 128 220.71875 C 75.8962 220.71874 33.65625 178.4788 33.65625 126.375 C 33.656249 74.271182 75.896205 32.03125 128 32.03125 z "
           style="opacity:0;fill:url(#linearGradient2524);fill-opacity:1;fill-rule:nonzero;stroke:#e9e9e9;stroke-width:2.21850038;stroke-linecap:round;stroke-linejoin:round;marker:none;stroke-miterlimit:4;stroke-dasharray:none;stroke-dashoffset:0;stroke-opacity:1;visibility:visible;display:inline;overflow:visible"
           id="path2409"
           d="M 128,2.96875 C 60.095931,2.96875 4.5937489,58.470911 4.59375,126.375 C 4.59375,194.27908 60.095937,249.78124 128,249.78125 C 195.90407,249.78125 251.40625,194.27907 251.40625,126.375 C 251.40625,58.470915 195.90408,2.9687489 128,2.96875 z M 128,39.3125 C 176.16746,39.312499 215.0625,78.207524 215.0625,126.375 C 215.0625,174.54246 176.16747,213.4375 128,213.4375 C 79.832538,213.43749 40.9375,174.54246 40.9375,126.375 C 40.937499,78.207521 79.832543,39.3125 128,39.3125 z"
           transform="matrix(0.9015099,0,0,0.9015099,12.60673,14.071684)" />
        <g
           inkscape:transform-center-x="24.748737"
           id="g2505">
          <path
             sodipodi:nodetypes="csscscccsscscccccc"
             id="path3335"
             d="M 129.47405,16.740004 C 109.99982,16.514809 90.494238,21.552807 72.640754,31.82303 C 19.530252,62.374881 1.1740566,130.63485 31.769019,183.66729 C 62.249998,236.50216 130.14325,254.87076 183.1658,224.79705 C 184.67604,223.94341 185.78309,222.52369 186.24172,220.85239 C 186.70035,219.18109 186.47271,217.39616 185.60921,215.893 L 175.89901,199.00381 C 174.11994,195.9003 170.16691,194.43589 167.04558,196.18891 C 129.18993,217.46849 81.277042,204.52102 59.915935,167.41184 C 38.150781,129.60074 50.737906,81.181807 88.919637,59.992802 C 114.84468,45.605665 142.67998,46.215406 168.47355,60.563169 C 168.80678,60.763002 169.15723,60.932676 169.52073,61.070162 C 170.29707,61.38385 171.12666,61.545227 171.96415,61.545466 L 171.99588,61.545466 C 174.27925,61.548646 176.39784,60.358651 177.58084,58.40845 L 187.67184,41.741072 C 189.52993,38.661082 188.53535,34.66013 185.45056,32.805329 C 167.98539,22.349519 148.74442,16.96284 129.47405,16.740004 z"
             style="fill:#b8956b;fill-opacity:1;stroke:#b8956b;stroke-width:2.00814915;stroke-linecap:butt;stroke-linejoin:round;stroke-miterlimit:4;stroke-dashoffset:0;stroke-opacity:1;filter:url(#filter3359)" />
          <g
             id="g3406"
             transform="matrix(1.0047981,0,0,1.0033516,-0.441152,-8.7274053e-2)">
            <path
               sodipodi:nodetypes="csscscccsscscccccc"
               id="path3241"
               d="M 129.29483,16.771068 C 109.9136,16.546625 90.501156,21.567794 72.732926,31.803711 C 19.876037,62.253506 1.6074957,130.28546 32.056361,183.14075 C 62.391788,235.79913 129.96084,254.10637 182.73019,224.13312 C 184.23322,223.28233 185.33499,221.86735 185.79143,220.20164 C 186.24787,218.53592 186.02131,216.75695 185.16194,215.25881 L 175.4981,198.42604 C 173.72753,195.3329 169.79338,193.87338 166.68695,195.62054 C 129.01207,216.82904 81.327974,203.92482 60.068871,166.9396 C 38.407649,129.2548 50.934668,80.997609 88.934074,59.879384 C 114.73532,45.540306 142.4377,46.14801 168.1081,60.447846 C 168.43974,60.647012 168.78852,60.816119 169.15028,60.953145 C 169.92291,61.265786 170.74854,61.426624 171.58203,61.426862 L 171.61361,61.426862 C 173.88608,61.430031 175.99455,60.244011 177.1719,58.300325 L 187.21472,41.688622 C 189.06393,38.618921 188.0741,34.631334 185.00404,32.782728 C 167.62227,22.361845 148.47318,16.99316 129.29483,16.771068 z"
               style="fill:url(#linearGradient2526);fill-opacity:1;stroke:#b8956b;stroke-width:2;stroke-linecap:butt;stroke-linejoin:round;stroke-miterlimit:4;stroke-dashoffset:0;stroke-opacity:1" />
            <path
               d="M 125.625,15.78125 C 107.28947,16.189181 89.015828,21.292294 72.21875,30.96875 C 21.810559,60.0079 2.5941795,122.90509 26.59375,174.75 C 26.727707,175.05314 27.004377,175.26922 27.330942,175.32574 C 27.657507,175.38226 27.990703,175.27174 28.21875,175.03125 C 36.327231,166.40874 45.207227,159.63238 54.4375,154.375 C 54.850102,154.13603 55.033941,153.63704 54.875,153.1875 C 42.748572,118.59521 56.227918,79.188906 89.40625,60.75 C 114.93423,46.562794 142.20879,47.15426 167.625,61.3125 C 167.99001,61.531703 168.36825,61.737978 168.8125,61.90625 C 169.70805,62.268632 170.63695,62.437227 171.59375,62.4375 L 171.625,62.4375 C 174.24253,62.441151 176.67423,61.052806 178.03125,58.8125 L 188.0625,42.1875 C 190.18866,38.658052 189.02813,34.061929 185.5,31.9375 C 167.97132,21.42854 148.63639,16.005389 129.28125,15.78125 C 128.06937,15.767216 126.85777,15.753823 125.625,15.78125 z"
               id="path3378"
               style="opacity:0.8;fill:url(#linearGradient2528);fill-opacity:1;stroke:none;stroke-width:2;stroke-linecap:butt;stroke-linejoin:round;stroke-miterlimit:4;stroke-dashoffset:0;stroke-opacity:1"
               inkscape:original="M 125.65625 16.78125 C 107.48882 17.185441 89.376466 22.216328 72.71875 31.8125 C 22.752473 60.597072 3.7134277 122.95897 27.5 174.34375 C 35.67784 165.64748 44.625932 158.80368 53.9375 153.5 C 41.657388 118.4693 55.335005 78.549635 88.9375 59.875 C 114.73875 45.535923 142.42335 46.137664 168.09375 60.4375 C 168.4254 60.636667 168.79449 60.831724 169.15625 60.96875 C 169.92888 61.281392 170.76026 61.437262 171.59375 61.4375 L 171.625 61.4375 C 173.89746 61.44067 176.01015 60.256186 177.1875 58.3125 L 187.21875 41.6875 C 189.06796 38.617799 188.07006 34.629856 185 32.78125 C 167.61823 22.360369 148.4596 17.003342 129.28125 16.78125 C 128.06992 16.767222 126.86741 16.754304 125.65625 16.78125 z "
               inkscape:radius="0.99057341"
               sodipodi:type="inkscape:offset" />
          </g>
        </g>
      </g>
    </g>
  </g>
</svg>
