<?xml version="1.0" encoding="UTF-8" standalone="no"?>
<!-- Created with Inkscape (http://www.inkscape.org/) -->
<svg
   xmlns:dc="http://purl.org/dc/elements/1.1/"
   xmlns:cc="http://creativecommons.org/ns#"
   xmlns:rdf="http://www.w3.org/1999/02/22-rdf-syntax-ns#"
   xmlns:svg="http://www.w3.org/2000/svg"
   xmlns="http://www.w3.org/2000/svg"
   xmlns:xlink="http://www.w3.org/1999/xlink"
   xmlns:sodipodi="http://sodipodi.sourceforge.net/DTD/sodipodi-0.dtd"
   xmlns:inkscape="http://www.inkscape.org/namespaces/inkscape"
   width="128"
   height="128"
   id="svg3593"
   sodipodi:version="0.32"
   inkscape:version="0.46"
   version="1.0"
   sodipodi:docname="emblem-danger.svg"
   inkscape:output_extension="org.inkscape.output.svg.inkscape">
  <defs
     id="defs3595">
    <inkscape:perspective
       sodipodi:type="inkscape:persp3d"
       inkscape:vp_x="0 : 64 : 1"
       inkscape:vp_y="0 : 1000 : 0"
       inkscape:vp_z="128 : 64 : 1"
       inkscape:persp3d-origin="64 : 42.666667 : 1"
       id="perspective15" />
    <filter
       inkscape:collect="always"
       id="filter3422">
      <feGaussianBlur
         inkscape:collect="always"
         stdDeviation="2.5906422"
         id="feGaussianBlur3424" />
    </filter>
    <linearGradient
       y2="84.25"
       x2="74.599762"
       y1="-43.826942"
       x1="48.08326"
       gradientTransform="translate(0.26562,0)"
       gradientUnits="userSpaceOnUse"
       id="linearGradient2560"
       xlink:href="#linearGradient2561"
       inkscape:collect="always" />
    <inkscape:perspective
       sodipodi:type="inkscape:persp3d"
       inkscape:vp_x="0 : 64 : 1"
       inkscape:vp_y="0 : 1000 : 0"
       inkscape:vp_z="128 : 64 : 1"
       inkscape:persp3d-origin="64 : 42.666667 : 1"
       id="perspective2472" />
    <linearGradient
       y2="84.25"
       x2="74.599762"
       y1="-43.826942"
       x1="48.08326"
       gradientTransform="translate(0.265625,0)"
       gradientUnits="userSpaceOnUse"
       id="linearGradient2562"
       xlink:href="#linearGradient2561"
       inkscape:collect="always" />
    <inkscape:perspective
       sodipodi:type="inkscape:persp3d"
       inkscape:vp_x="0 : 64 : 1"
       inkscape:vp_y="0 : 1000 : 0"
       inkscape:vp_z="128 : 64 : 1"
       inkscape:persp3d-origin="64 : 42.666667 : 1"
       id="perspective22" />
    <linearGradient
       gradientUnits="userSpaceOnUse"
       y2="84.25"
       x2="74.599762"
       y1="-43.826942"
       x1="48.08326"
       id="linearGradient2567"
       xlink:href="#linearGradient2561"
       inkscape:collect="always" />
    <linearGradient
       y2="24.003584"
       x2="-29.875"
       y1="10.70663"
       x1="-26.853115"
       gradientTransform="translate(116.68629,204.54985)"
       gradientUnits="userSpaceOnUse"
       id="linearGradient6496"
       xlink:href="#linearGradient4790"
       inkscape:collect="always" />
    <radialGradient
       r="10.8808"
       fy="12.3457"
       fx="13.5024"
       cy="12.3457"
       cx="13.5024"
       gradientTransform="matrix(1.101263,0,0,1.101263,59.12197,207.7242)"
       gradientUnits="userSpaceOnUse"
       id="radialGradient6474"
       xlink:href="#aigrd2"
       inkscape:collect="always" />
    <radialGradient
       r="26.966"
       fy="29.0337"
       fx="23.1567"
       cy="29.0337"
       cx="23.1567"
       gradientTransform="matrix(1.101263,0,0,1.101263,59.12197,207.7242)"
       gradientUnits="userSpaceOnUse"
       id="radialGradient6471"
       xlink:href="#aigrd3"
       inkscape:collect="always" />
    <linearGradient
       y2="43.9375"
       x2="29.75"
       y1="38.420128"
       x1="29.75"
       gradientTransform="translate(56.68629,204.54985)"
       gradientUnits="userSpaceOnUse"
       id="linearGradient6467"
       xlink:href="#linearGradient2911"
       inkscape:collect="always" />
    <linearGradient
       y2="44.380974"
       x2="34.25"
       y1="38.804165"
       x1="34.25"
       gradientTransform="translate(56.68629,204.54985)"
       gradientUnits="userSpaceOnUse"
       id="linearGradient6465"
       xlink:href="#linearGradient2919"
       inkscape:collect="always" />
    <linearGradient
       y2="-0.67233789"
       x2="30.994286"
       y1="-37.643921"
       x1="0.88337302"
       gradientTransform="translate(58.80761,244.55189)"
       gradientUnits="userSpaceOnUse"
       id="linearGradient6461"
       xlink:href="#aigrd6"
       inkscape:collect="always" />
    <linearGradient
       y2="43.444958"
       x2="35.625"
       y1="38.874573"
       x1="35.625"
       gradientTransform="translate(56.68629,204.54985)"
       gradientUnits="userSpaceOnUse"
       id="linearGradient6452"
       xlink:href="#linearGradient2927"
       inkscape:collect="always" />
    <linearGradient
       id="linearGradient3202">
      <stop
         id="stop3204"
         offset="0"
         style="stop-color:#cacaca;stop-opacity:1;" />
      <stop
         style="stop-color:#f3f3f3;stop-opacity:1;"
         offset="0.5"
         id="stop3206" />
      <stop
         id="stop3208"
         offset="1"
         style="stop-color:#cdcdcd;stop-opacity:1;" />
    </linearGradient>
    <linearGradient
       y2="5.6930151"
       x2="80.921646"
       y1="14.582699"
       x1="82.489655"
       gradientUnits="userSpaceOnUse"
       id="linearGradient10379"
       xlink:href="#linearGradient7101"
       inkscape:collect="always" />
    <linearGradient
       y2="12.306049"
       x2="76.955917"
       y1="25.384384"
       x1="73.337959"
       gradientTransform="translate(-60,-1)"
       gradientUnits="userSpaceOnUse"
       id="linearGradient10377"
       xlink:href="#linearGradient3202"
       inkscape:collect="always" />
    <linearGradient
       y2="2.0453157"
       x2="81.75782"
       y1="15.414051"
       x1="76.781258"
       gradientUnits="userSpaceOnUse"
       id="linearGradient10375"
       xlink:href="#linearGradient5034"
       inkscape:collect="always" />
    <linearGradient
       y2="2.1401622"
       x2="34.056786"
       y1="-33.518921"
       x1="4.6333733"
       gradientTransform="translate(3.505583,42.36313)"
       gradientUnits="userSpaceOnUse"
       id="linearGradient10274"
       xlink:href="#aigrd1"
       inkscape:collect="always" />
    <linearGradient
       id="linearGradient4790">
      <stop
         style="stop-color:#555753;stop-opacity:1"
         offset="0"
         id="stop4792" />
      <stop
         style="stop-color:#babdb6;stop-opacity:1"
         offset="1"
         id="stop4794" />
    </linearGradient>
    <linearGradient
       inkscape:collect="always"
       id="linearGradient2927">
      <stop
         style="stop-color:#ddd;stop-opacity:1;"
         offset="0"
         id="stop2929" />
      <stop
         style="stop-color:#ddd;stop-opacity:0;"
         offset="1"
         id="stop2931" />
    </linearGradient>
    <linearGradient
       inkscape:collect="always"
       id="linearGradient2919">
      <stop
         style="stop-color:#646464;stop-opacity:1;"
         offset="0"
         id="stop2921" />
      <stop
         style="stop-color:#646464;stop-opacity:0;"
         offset="1"
         id="stop2923" />
    </linearGradient>
    <linearGradient
       inkscape:collect="always"
       id="linearGradient2911">
      <stop
         style="stop-color:#464f52;stop-opacity:1;"
         offset="0"
         id="stop2913" />
      <stop
         style="stop-color:#464f52;stop-opacity:0;"
         offset="1"
         id="stop2915" />
    </linearGradient>
    <linearGradient
       id="aigrd6"
       gradientUnits="userSpaceOnUse"
       x1="-1.2432"
       y1="-3.2012"
       x2="26.5278"
       y2="28.3922">
      <stop
         offset="0"
         style="stop-color:#FFFFFF"
         id="stop6468" />
      <stop
         offset="1"
         style="stop-color:#959595"
         id="stop6470" />
    </linearGradient>
    <radialGradient
       id="aigrd3"
       cx="23.1567"
       cy="29.0337"
       r="26.966"
       fx="23.1567"
       fy="29.0337"
       gradientUnits="userSpaceOnUse">
      <stop
         offset="0"
         style="stop-color:#767676"
         id="stop6443" />
      <stop
         offset="1"
         style="stop-color:#484848"
         id="stop6445" />
    </radialGradient>
    <radialGradient
       id="aigrd2"
       cx="13.5024"
       cy="12.3457"
       r="10.8808"
       fx="13.5024"
       fy="12.3457"
       gradientUnits="userSpaceOnUse">
      <stop
         offset="0"
         style="stop-color:#454545"
         id="stop6436" />
      <stop
         offset="1"
         style="stop-color:#333333"
         id="stop6438" />
    </radialGradient>
    <linearGradient
       y2="248.6311"
       x2="153.0005"
       y1="15.4238"
       x1="99.7773"
       gradientUnits="userSpaceOnUse"
       id="aigrd1">
      <stop
         id="stop53300"
         style="stop-color:#707070;stop-opacity:1;"
         offset="0" />
      <stop
         id="stop53302"
         style="stop-color:#cdcdcd;stop-opacity:1;"
         offset="1" />
    </linearGradient>
    <linearGradient
       id="linearGradient7101">
      <stop
         style="stop-color:#f8ead2;stop-opacity:1;"
         offset="0"
         id="stop7103" />
      <stop
         id="stop7171"
         offset="0.52469134"
         style="stop-color:#cfb07f;stop-opacity:1;" />
      <stop
         style="stop-color:#dcc29b;stop-opacity:1;"
         offset="1"
         id="stop7105" />
    </linearGradient>
    <linearGradient
       id="linearGradient5034">
      <stop
         id="stop5036"
         offset="0"
         style="stop-color:#ffffff;stop-opacity:1;" />
      <stop
         id="stop5038"
         offset="1"
         style="stop-color:#cfcfcf;stop-opacity:1;" />
    </linearGradient>
    <inkscape:perspective
       id="perspective154"
       inkscape:persp3d-origin="64 : 42.666667 : 1"
       inkscape:vp_z="128 : 64 : 1"
       inkscape:vp_y="0 : 1000 : 0"
       inkscape:vp_x="0 : 64 : 1"
       sodipodi:type="inkscape:persp3d" />
    <linearGradient
       id="linearGradient2561"
       inkscape:collect="always">
      <stop
         id="stop2563"
         offset="0"
         style="stop-color:#ffffff;stop-opacity:1;" />
      <stop
         id="stop2565"
         offset="1"
         style="stop-color:#ffffff;stop-opacity:0;" />
    </linearGradient>
    <linearGradient
       inkscape:collect="always"
       xlink:href="#linearGradient2561"
       id="linearGradient2713"
       gradientUnits="userSpaceOnUse"
       x1="48.08326"
       y1="-43.826942"
       x2="74.599762"
       y2="84.25"
       gradientTransform="translate(0.2656287,-3.498977e-6)" />
    <linearGradient
       inkscape:collect="always"
       xlink:href="#linearGradient2927"
       id="linearGradient2775"
       gradientUnits="userSpaceOnUse"
       gradientTransform="translate(186.11127,160.30725)"
       x1="35.625"
       y1="38.874573"
       x2="35.625"
       y2="43.444958" />
    <linearGradient
       inkscape:collect="always"
       xlink:href="#aigrd6"
       id="linearGradient2784"
       gradientUnits="userSpaceOnUse"
       gradientTransform="translate(188.23259,200.30929)"
       x1="0.88337302"
       y1="-37.643921"
       x2="30.994286"
       y2="-0.67233789" />
    <linearGradient
       inkscape:collect="always"
       xlink:href="#linearGradient2919"
       id="linearGradient2788"
       gradientUnits="userSpaceOnUse"
       gradientTransform="translate(186.11127,160.30725)"
       x1="34.25"
       y1="38.804165"
       x2="34.25"
       y2="44.380974" />
    <linearGradient
       inkscape:collect="always"
       xlink:href="#linearGradient2911"
       id="linearGradient2790"
       gradientUnits="userSpaceOnUse"
       gradientTransform="translate(186.11127,160.30725)"
       x1="29.75"
       y1="38.420128"
       x2="29.75"
       y2="43.9375" />
    <radialGradient
       inkscape:collect="always"
       xlink:href="#aigrd3"
       id="radialGradient2794"
       gradientUnits="userSpaceOnUse"
       gradientTransform="matrix(1.101263,0,0,1.101263,188.54695,163.4816)"
       cx="23.1567"
       cy="29.0337"
       fx="23.1567"
       fy="29.0337"
       r="26.966" />
    <radialGradient
       inkscape:collect="always"
       xlink:href="#aigrd2"
       id="radialGradient2797"
       gradientUnits="userSpaceOnUse"
       gradientTransform="matrix(1.101263,0,0,1.101263,188.54695,163.4816)"
       cx="13.5024"
       cy="12.3457"
       fx="13.5024"
       fy="12.3457"
       r="10.8808" />
    <linearGradient
       inkscape:collect="always"
       xlink:href="#linearGradient4790"
       id="linearGradient2819"
       gradientUnits="userSpaceOnUse"
       gradientTransform="translate(246.11127,160.30725)"
       x1="-26.853115"
       y1="10.70663"
       x2="-29.875"
       y2="24.003584" />
    <inkscape:perspective
       id="perspective2539"
       inkscape:persp3d-origin="64 : 42.666667 : 1"
       inkscape:vp_z="128 : 64 : 1"
       inkscape:vp_y="0 : 1000 : 0"
       inkscape:vp_x="0 : 64 : 1"
       sodipodi:type="inkscape:persp3d" />
    <linearGradient
       inkscape:collect="always"
       xlink:href="#linearGradient2561"
       id="linearGradient2559"
       gradientUnits="userSpaceOnUse"
       gradientTransform="translate(0.265625,0)"
       x1="48.08326"
       y1="-43.826942"
       x2="74.599762"
       y2="84.25" />
    <filter
       id="filter4023"
       inkscape:collect="always">
      <feGaussianBlur
         id="feGaussianBlur4025"
         stdDeviation="2.3793898"
         inkscape:collect="always" />
    </filter>
    <inkscape:perspective
       id="perspective17"
       inkscape:persp3d-origin="64 : 42.666667 : 1"
       inkscape:vp_z="128 : 64 : 1"
       inkscape:vp_y="0 : 1000 : 0"
       inkscape:vp_x="0 : 64 : 1"
       sodipodi:type="inkscape:persp3d" />
    <linearGradient
       inkscape:collect="always"
       xlink:href="#linearGradient2561"
       id="linearGradient2568"
       gradientUnits="userSpaceOnUse"
       gradientTransform="translate(0.26562,0)"
       x1="48.08326"
       y1="-43.826942"
       x2="74.599762"
       y2="84.25" />
    <linearGradient
       inkscape:collect="always"
       xlink:href="#linearGradient2561"
       id="linearGradient2571"
       gradientUnits="userSpaceOnUse"
       gradientTransform="translate(0.26562,0)"
       x1="48.08326"
       y1="-43.826942"
       x2="74.599762"
       y2="84.25" />
  </defs>
  <sodipodi:namedview
     id="base"
     pagecolor="#eeeae5"
     bordercolor="#666666"
     borderopacity="1.0"
     gridtolerance="10000"
     guidetolerance="10"
     objecttolerance="10"
     inkscape:pageopacity="0"
     inkscape:pageshadow="2"
     inkscape:zoom="1"
     inkscape:cx="-246.82345"
     inkscape:cy="-30.186617"
     inkscape:document-units="px"
     inkscape:current-layer="layer1"
     showgrid="false"
     inkscape:showpageshadow="false"
     inkscape:window-width="1276"
     inkscape:window-height="956"
     inkscape:window-x="2"
     inkscape:window-y="45" />
  <metadata
     id="metadata3598">
    <rdf:RDF>
      <cc:Work
         rdf:about="">
        <dc:format>image/svg+xml</dc:format>
        <dc:type
           rdf:resource="http://purl.org/dc/dcmitype/StillImage" />
      </cc:Work>
    </rdf:RDF>
  </metadata>
  <g
     inkscape:label="Layer 1"
     inkscape:groupmode="layer"
     id="layer1">
    <text
       xml:space="preserve"
       style="font-size:16px;font-style:normal;font-variant:normal;font-weight:bold;font-stretch:normal;text-align:start;line-height:125%;writing-mode:lr-tb;text-anchor:start;fill:#000000;fill-opacity:1;stroke:none;stroke-width:1px;stroke-linecap:butt;stroke-linejoin:miter;stroke-opacity:1;font-family:Purisa;-inkscape-font-specification:Purisa Bold"
       x="-161.45073"
       y="9.1614065"
       id="text2404"
       sodipodi:linespacing="125%"><tspan
         sodipodi:role="line"
         id="tspan2406"
         x="-161.45073"
         y="9.1614065" /></text>
    <g
       id="g3426">
      <path
         sodipodi:type="arc"
         style="fill:#f5c254;fill-opacity:1;stroke:#de9b08;stroke-width:2.25339365;stroke-linejoin:miter;stroke-miterlimit:4;stroke-dasharray:none;stroke-opacity:1"
         id="path3392"
         sodipodi:cx="85.714287"
         sodipodi:cy="96.571426"
         sodipodi:rx="29.642857"
         sodipodi:ry="16.428572"
         d="M 115.35714,96.571426 A 29.642857,16.428572 0 1 1 56.07143,96.571426 A 29.642857,16.428572 0 1 1 115.35714,96.571426 z"
         transform="matrix(2.054159,0,0,3.7064171,-112.07077,-293.93399)" />
      <path
         style="opacity:1;fill:#ffffff;fill-opacity:1;stroke:none;stroke-width:6.29400014999999957;stroke-linecap:round;stroke-linejoin:round;stroke-miterlimit:4;stroke-dasharray:none;stroke-opacity:1;filter:url(#filter3422)"
         d="M 32.235273,22.907294 C 29.871962,22.912994 27.65045,23.609407 26.222521,25.254377 L 20.341628,32.05828 C 17.077779,35.818213 19.218868,42.982423 22.9788,46.246265 L 24.06004,47.195647 C 26.917004,49.675663 30.863817,50.025988 34.028549,48.408746 L 37.588731,51.494237 C 37.57252,57.132252 37.722826,63.655706 38.353511,67.554613 C 38.637507,69.310295 39.187803,71.537153 39.856699,73.936569 L 33.606602,79.369144 C 30.521989,77.999804 26.81237,78.426933 24.086412,80.793216 L 23.005171,81.716226 C 19.245231,84.980069 17.077796,92.197027 20.341628,95.956954 L 26.222521,102.7345 C 29.486361,106.49443 36.914282,105.36542 40.674222,102.10158 L 41.755463,101.15219 C 44.612765,98.671874 45.523227,94.808293 44.366263,91.44739 L 45.315645,90.629869 C 46.047927,92.668206 46.528744,94.005451 46.528744,94.005451 C 46.528744,98.626804 50.240852,102.36529 54.862207,102.36529 L 74.403651,102.36529 C 79.025014,102.36529 82.763485,98.626814 82.763485,94.005451 C 82.763485,94.005451 83.130951,93.123258 83.290919,92.739603 C 82.72918,95.764563 83.744412,98.981914 86.244551,101.15219 L 87.29942,102.10158 C 91.059361,105.36542 98.513651,106.49443 101.77749,102.7345 L 107.65838,95.956954 C 110.92222,92.197027 108.75477,84.980069 104.99484,81.716226 L 103.91359,80.793216 C 101.18765,78.426933 97.478022,77.999804 94.393413,79.369144 L 89.831106,75.413386 C 90.751399,72.62522 91.521841,70.013584 91.914471,68.002933 C 92.806594,63.43437 93.091586,55.302211 93.180313,49.094411 L 93.971465,48.408746 C 97.136195,50.025988 101.083,49.675663 103.93996,47.195647 L 105.0212,46.246265 C 108.78114,42.982423 110.92222,35.818213 107.65838,32.05828 L 101.77749,25.254377 C 100.34956,23.609407 98.101681,22.912994 95.738371,22.907294 C 92.699825,22.899968 89.440754,24.051388 87.325792,25.887298 L 86.244551,26.810308 C 84.630325,28.211552 83.636106,30.06246 83.290919,32.005537 C 79.88463,31.036259 70.074706,28.370522 65.068062,28.392612 C 59.258596,28.418245 46.133169,32.453856 46.133169,32.453856 C 45.672798,32.453856 45.22777,32.488438 44.788211,32.559344 C 44.545532,30.411043 43.525212,28.346552 41.755463,26.810308 L 40.674222,25.887298 C 38.559261,24.051388 35.273818,22.899968 32.235273,22.907294 z M 53.939197,42.264135 C 59.440818,42.264134 63.907707,45.163563 63.907707,48.751578 C 63.907707,49.872834 63.462307,50.914233 62.694607,51.837069 C 62.274171,52.348513 61.743926,52.81747 61.138676,53.23477 C 61.128549,53.241701 61.122473,53.254242 61.112305,53.261143 C 60.918301,53.393754 60.716171,53.508867 60.505755,53.630346 C 60.42718,53.675541 60.349145,53.718616 60.268409,53.762205 C 60.239455,53.777864 60.218518,53.799501 60.189294,53.814948 C 60.12126,53.850903 60.047806,53.885635 59.97832,53.920435 C 59.697886,54.060874 59.410911,54.195415 59.108054,54.31601 C 59.074357,54.329455 59.036525,54.329193 59.002567,54.342383 C 58.655127,54.477153 58.294395,54.604755 57.921326,54.711587 C 57.885933,54.721713 57.851443,54.728095 57.815839,54.737958 C 57.439226,54.842515 57.05425,54.953991 56.655484,55.028047 C 56.507769,55.055516 56.35758,55.057729 56.207165,55.08079 C 55.911523,55.126277 55.615721,55.184746 55.310526,55.212649 C 55.257403,55.217435 55.205681,55.208415 55.152296,55.212649 C 54.753463,55.244957 54.351296,55.264686 53.939197,55.265393 C 53.586162,55.265393 53.227937,55.262518 52.884328,55.239021 C 52.558349,55.217312 52.250909,55.17534 51.934946,55.133534 C 51.926179,55.132359 51.917334,55.134725 51.908574,55.133534 C 51.593008,55.091205 51.289536,55.03667 50.985564,54.975304 C 50.352694,54.84632 49.737874,54.678991 49.165915,54.474241 C 48.891355,54.376587 48.633004,54.271301 48.374764,54.15778 C 48.367549,54.154591 48.355591,54.160982 48.348393,54.15778 C 48.090422,54.043718 47.850014,53.891114 47.609984,53.762205 C 47.111125,53.492873 46.622821,53.21875 46.212283,52.891938 C 46.014382,52.735196 45.860008,52.559351 45.684849,52.390875 C 44.609533,51.350986 43.970688,50.097084 43.970688,48.751578 C 43.970688,47.198879 44.791029,45.753222 46.185912,44.63759 C 46.200562,44.625932 46.223879,44.622809 46.238655,44.611219 C 46.40275,44.48191 46.587336,44.362604 46.76609,44.242014 C 46.80831,44.213598 46.854951,44.190811 46.897948,44.1629 C 47.601545,43.705373 48.410486,43.307301 49.297774,43.002543 C 49.546783,42.917478 49.801757,42.836556 50.062554,42.765199 C 51.254987,42.437314 52.563791,42.264135 53.939197,42.264135 z M 76.750733,42.264135 C 78.469992,42.264135 80.085224,42.530091 81.497643,43.028915 C 82.910062,43.52774 84.108982,44.24957 85.005081,45.112281 C 85.184299,45.284824 85.352605,45.455857 85.506144,45.639715 C 85.659682,45.823575 85.801912,45.999425 85.928091,46.193522 C 85.931863,46.199284 85.924336,46.214123 85.928091,46.219893 C 86.049216,46.407902 86.176973,46.603514 86.270924,46.800071 C 86.274156,46.806759 86.267725,46.819746 86.270924,46.826443 C 86.36333,47.022345 86.444327,47.203257 86.508269,47.406621 C 86.510818,47.414579 86.505762,47.425025 86.508269,47.432992 C 86.571046,47.636606 86.633731,47.855839 86.666499,48.065914 C 86.667833,48.074162 86.665208,48.084028 86.666499,48.092285 C 86.697934,48.302185 86.719243,48.509868 86.719243,48.725206 C 86.719243,49.39796 86.56238,50.039073 86.270924,50.650342 C 86.267303,50.658036 86.274586,50.669031 86.270924,50.676714 C 86.176019,50.873486 86.050118,51.068593 85.928091,51.256892 C 85.798714,51.458348 85.664745,51.64642 85.506144,51.837069 C 85.352605,52.021637 85.184299,52.191188 85.005081,52.364504 C 84.646645,52.711134 84.243086,53.045269 83.791983,53.340257 C 82.889766,53.930233 81.819816,54.407602 80.627376,54.737958 C 79.434935,55.068314 78.126139,55.239021 76.750733,55.239021 C 75.583365,55.239021 74.467263,55.110949 73.427896,54.869817 C 73.168053,54.809534 72.912454,54.732525 72.663117,54.658844 C 71.915113,54.437796 71.215112,54.170931 70.579751,53.84132 C 70.526045,53.813459 70.474315,53.790771 70.421521,53.762205 C 70.295046,53.693921 70.173449,53.623432 70.052317,53.551231 C 70.014788,53.528791 69.983826,53.494924 69.94683,53.472116 C 69.75535,53.354482 69.569837,53.229988 69.393024,53.102912 C 69.211282,52.972259 69.030799,52.847378 68.86559,52.707336 C 68.70038,52.567294 68.564952,52.434151 68.41727,52.285388 C 68.274171,52.141244 68.121029,51.988784 67.995322,51.837069 C 67.990698,51.831508 67.999922,51.816268 67.995322,51.810697 C 67.866181,51.653884 67.735724,51.500204 67.626119,51.336007 C 67.516514,51.17181 67.425094,51.005856 67.33603,50.834944 C 67.246965,50.664032 67.166196,50.484468 67.098684,50.30751 C 66.909508,49.807058 66.782223,49.289413 66.782223,48.751578 C 66.782223,45.163564 71.249112,42.264135 76.750733,42.264135 z M 58.791593,74.226658 L 63.775848,74.226658 L 64.224167,74.226658 L 69.261165,74.226658 C 70.189551,74.226659 71.050948,74.373255 71.766479,74.622234 C 72.959029,75.037199 73.744357,75.739961 73.744357,76.547369 C 73.744357,76.547368 76.016494,79.349929 77.515513,81.716226 C 77.519336,81.722247 77.511698,81.736582 77.515513,81.742598 C 78.009453,82.523792 78.438954,83.263344 78.649497,83.825964 C 78.75436,84.106171 78.83712,84.440802 78.913214,84.80172 C 78.963814,85.044703 79.006068,85.299508 79.045073,85.5665 C 79.065292,85.700991 79.08023,85.823348 79.097816,85.962075 C 79.123809,86.171868 79.15634,86.378985 79.176932,86.594996 C 79.197008,86.800181 79.214055,86.994902 79.229675,87.201546 C 79.240874,87.351903 79.24678,87.500234 79.256046,87.649865 C 79.377019,89.602841 79.335162,91.421024 79.335162,91.421024 C 79.335162,92.712878 77.354042,93.768105 74.878341,93.768105 C 74.878341,93.768105 67.523189,94.909559 64.27691,94.902087 C 61.164727,94.894918 54.123798,93.768105 54.123798,93.768105 C 51.648098,93.768105 49.640606,92.712878 49.640606,91.421024 C 49.640606,91.421024 49.499777,89.130319 49.587863,86.93783 C 49.608328,86.428378 49.645409,85.929653 49.69335,85.461013 C 49.707258,85.325053 49.702524,85.194764 49.719722,85.065437 C 49.731266,84.98449 49.759562,84.905983 49.772465,84.828092 C 49.825504,84.507815 49.878509,84.211231 49.957067,83.957822 C 50.667644,81.665609 54.334773,76.547371 54.334773,76.547369 C 54.334773,76.231462 54.462403,75.923985 54.677605,75.650731 C 55.014227,75.233547 55.575383,74.871213 56.286279,74.622234 C 56.997177,74.373256 57.863207,74.226658 58.791593,74.226658 z"
         id="path2650" />
      <path
         id="path2627"
         d="M 32.235273,22.907294 C 29.871962,22.912994 27.65045,23.609407 26.222521,25.254377 L 20.341628,32.05828 C 17.077779,35.818213 19.218868,42.982423 22.9788,46.246265 L 24.06004,47.195647 C 26.917004,49.675663 30.863817,50.025988 34.028549,48.408746 L 37.588731,51.494237 C 37.57252,57.132252 37.722826,63.655706 38.353511,67.554613 C 38.637507,69.310295 39.187803,71.537153 39.856699,73.936569 L 33.606602,79.369144 C 30.521989,77.999804 26.81237,78.426933 24.086412,80.793216 L 23.005171,81.716226 C 19.245231,84.980069 17.077796,92.197027 20.341628,95.956954 L 26.222521,102.7345 C 29.486361,106.49443 36.914282,105.36542 40.674222,102.10158 L 41.755463,101.15219 C 44.612765,98.671874 45.523227,94.808293 44.366263,91.44739 L 45.315645,90.629869 C 46.047927,92.668206 46.528744,94.005451 46.528744,94.005451 C 46.528744,98.626804 50.240852,102.36529 54.862207,102.36529 L 74.403651,102.36529 C 79.025014,102.36529 82.763485,98.626814 82.763485,94.005451 C 82.763485,94.005451 83.130951,93.123258 83.290919,92.739603 C 82.72918,95.764563 83.744412,98.981914 86.244551,101.15219 L 87.29942,102.10158 C 91.059361,105.36542 98.513651,106.49443 101.77749,102.7345 L 107.65838,95.956954 C 110.92222,92.197027 108.75477,84.980069 104.99484,81.716226 L 103.91359,80.793216 C 101.18765,78.426933 97.478022,77.999804 94.393413,79.369144 L 89.831106,75.413386 C 90.751399,72.62522 91.521841,70.013584 91.914471,68.002933 C 92.806594,63.43437 93.091586,55.302211 93.180313,49.094411 L 93.971465,48.408746 C 97.136195,50.025988 101.083,49.675663 103.93996,47.195647 L 105.0212,46.246265 C 108.78114,42.982423 110.92222,35.818213 107.65838,32.05828 L 101.77749,25.254377 C 100.34956,23.609407 98.101681,22.912994 95.738371,22.907294 C 92.699825,22.899968 89.440754,24.051388 87.325792,25.887298 L 86.244551,26.810308 C 84.630325,28.211552 83.636106,30.06246 83.290919,32.005537 C 79.88463,31.036259 70.074706,28.370522 65.068062,28.392612 C 59.258596,28.418245 46.133169,32.453856 46.133169,32.453856 C 45.672798,32.453856 45.22777,32.488438 44.788211,32.559344 C 44.545532,30.411043 43.525212,28.346552 41.755463,26.810308 L 40.674222,25.887298 C 38.559261,24.051388 35.273818,22.899968 32.235273,22.907294 z M 53.939197,42.264135 C 59.440818,42.264134 63.907707,45.163563 63.907707,48.751578 C 63.907707,49.872834 63.462307,50.914233 62.694607,51.837069 C 62.274171,52.348513 61.743926,52.81747 61.138676,53.23477 C 61.128549,53.241701 61.122473,53.254242 61.112305,53.261143 C 60.918301,53.393754 60.716171,53.508867 60.505755,53.630346 C 60.42718,53.675541 60.349145,53.718616 60.268409,53.762205 C 60.239455,53.777864 60.218518,53.799501 60.189294,53.814948 C 60.12126,53.850903 60.047806,53.885635 59.97832,53.920435 C 59.697886,54.060874 59.410911,54.195415 59.108054,54.31601 C 59.074357,54.329455 59.036525,54.329193 59.002567,54.342383 C 58.655127,54.477153 58.294395,54.604755 57.921326,54.711587 C 57.885933,54.721713 57.851443,54.728095 57.815839,54.737958 C 57.439226,54.842515 57.05425,54.953991 56.655484,55.028047 C 56.507769,55.055516 56.35758,55.057729 56.207165,55.08079 C 55.911523,55.126277 55.615721,55.184746 55.310526,55.212649 C 55.257403,55.217435 55.205681,55.208415 55.152296,55.212649 C 54.753463,55.244957 54.351296,55.264686 53.939197,55.265393 C 53.586162,55.265393 53.227937,55.262518 52.884328,55.239021 C 52.558349,55.217312 52.250909,55.17534 51.934946,55.133534 C 51.926179,55.132359 51.917334,55.134725 51.908574,55.133534 C 51.593008,55.091205 51.289536,55.03667 50.985564,54.975304 C 50.352694,54.84632 49.737874,54.678991 49.165915,54.474241 C 48.891355,54.376587 48.633004,54.271301 48.374764,54.15778 C 48.367549,54.154591 48.355591,54.160982 48.348393,54.15778 C 48.090422,54.043718 47.850014,53.891114 47.609984,53.762205 C 47.111125,53.492873 46.622821,53.21875 46.212283,52.891938 C 46.014382,52.735196 45.860008,52.559351 45.684849,52.390875 C 44.609533,51.350986 43.970688,50.097084 43.970688,48.751578 C 43.970688,47.198879 44.791029,45.753222 46.185912,44.63759 C 46.200562,44.625932 46.223879,44.622809 46.238655,44.611219 C 46.40275,44.48191 46.587336,44.362604 46.76609,44.242014 C 46.80831,44.213598 46.854951,44.190811 46.897948,44.1629 C 47.601545,43.705373 48.410486,43.307301 49.297774,43.002543 C 49.546783,42.917478 49.801757,42.836556 50.062554,42.765199 C 51.254987,42.437314 52.563791,42.264135 53.939197,42.264135 z M 76.750733,42.264135 C 78.469992,42.264135 80.085224,42.530091 81.497643,43.028915 C 82.910062,43.52774 84.108982,44.24957 85.005081,45.112281 C 85.184299,45.284824 85.352605,45.455857 85.506144,45.639715 C 85.659682,45.823575 85.801912,45.999425 85.928091,46.193522 C 85.931863,46.199284 85.924336,46.214123 85.928091,46.219893 C 86.049216,46.407902 86.176973,46.603514 86.270924,46.800071 C 86.274156,46.806759 86.267725,46.819746 86.270924,46.826443 C 86.36333,47.022345 86.444327,47.203257 86.508269,47.406621 C 86.510818,47.414579 86.505762,47.425025 86.508269,47.432992 C 86.571046,47.636606 86.633731,47.855839 86.666499,48.065914 C 86.667833,48.074162 86.665208,48.084028 86.666499,48.092285 C 86.697934,48.302185 86.719243,48.509868 86.719243,48.725206 C 86.719243,49.39796 86.56238,50.039073 86.270924,50.650342 C 86.267303,50.658036 86.274586,50.669031 86.270924,50.676714 C 86.176019,50.873486 86.050118,51.068593 85.928091,51.256892 C 85.798714,51.458348 85.664745,51.64642 85.506144,51.837069 C 85.352605,52.021637 85.184299,52.191188 85.005081,52.364504 C 84.646645,52.711134 84.243086,53.045269 83.791983,53.340257 C 82.889766,53.930233 81.819816,54.407602 80.627376,54.737958 C 79.434935,55.068314 78.126139,55.239021 76.750733,55.239021 C 75.583365,55.239021 74.467263,55.110949 73.427896,54.869817 C 73.168053,54.809534 72.912454,54.732525 72.663117,54.658844 C 71.915113,54.437796 71.215112,54.170931 70.579751,53.84132 C 70.526045,53.813459 70.474315,53.790771 70.421521,53.762205 C 70.295046,53.693921 70.173449,53.623432 70.052317,53.551231 C 70.014788,53.528791 69.983826,53.494924 69.94683,53.472116 C 69.75535,53.354482 69.569837,53.229988 69.393024,53.102912 C 69.211282,52.972259 69.030799,52.847378 68.86559,52.707336 C 68.70038,52.567294 68.564952,52.434151 68.41727,52.285388 C 68.274171,52.141244 68.121029,51.988784 67.995322,51.837069 C 67.990698,51.831508 67.999922,51.816268 67.995322,51.810697 C 67.866181,51.653884 67.735724,51.500204 67.626119,51.336007 C 67.516514,51.17181 67.425094,51.005856 67.33603,50.834944 C 67.246965,50.664032 67.166196,50.484468 67.098684,50.30751 C 66.909508,49.807058 66.782223,49.289413 66.782223,48.751578 C 66.782223,45.163564 71.249112,42.264135 76.750733,42.264135 z M 58.791593,74.226658 L 63.775848,74.226658 L 64.224167,74.226658 L 69.261165,74.226658 C 70.189551,74.226659 71.050948,74.373255 71.766479,74.622234 C 72.959029,75.037199 73.744357,75.739961 73.744357,76.547369 C 73.744357,76.547368 76.016494,79.349929 77.515513,81.716226 C 77.519336,81.722247 77.511698,81.736582 77.515513,81.742598 C 78.009453,82.523792 78.438954,83.263344 78.649497,83.825964 C 78.75436,84.106171 78.83712,84.440802 78.913214,84.80172 C 78.963814,85.044703 79.006068,85.299508 79.045073,85.5665 C 79.065292,85.700991 79.08023,85.823348 79.097816,85.962075 C 79.123809,86.171868 79.15634,86.378985 79.176932,86.594996 C 79.197008,86.800181 79.214055,86.994902 79.229675,87.201546 C 79.240874,87.351903 79.24678,87.500234 79.256046,87.649865 C 79.377019,89.602841 79.335162,91.421024 79.335162,91.421024 C 79.335162,92.712878 77.354042,93.768105 74.878341,93.768105 C 74.878341,93.768105 67.523189,94.909559 64.27691,94.902087 C 61.164727,94.894918 54.123798,93.768105 54.123798,93.768105 C 51.648098,93.768105 49.640606,92.712878 49.640606,91.421024 C 49.640606,91.421024 49.499777,89.130319 49.587863,86.93783 C 49.608328,86.428378 49.645409,85.929653 49.69335,85.461013 C 49.707258,85.325053 49.702524,85.194764 49.719722,85.065437 C 49.731266,84.98449 49.759562,84.905983 49.772465,84.828092 C 49.825504,84.507815 49.878509,84.211231 49.957067,83.957822 C 50.667644,81.665609 54.334773,76.547371 54.334773,76.547369 C 54.334773,76.231462 54.462403,75.923985 54.677605,75.650731 C 55.014227,75.233547 55.575383,74.871213 56.286279,74.622234 C 56.997177,74.373256 57.863207,74.226658 58.791593,74.226658 z"
         style="opacity:1;fill:#ffffff;fill-opacity:1;stroke:none;stroke-width:6.29400015;stroke-linecap:round;stroke-linejoin:round;stroke-miterlimit:4;stroke-dasharray:none;stroke-opacity:1" />
    </g>
    <path
       style="fill:url(#linearGradient2571);fill-opacity:1;stroke:none;stroke-width:1.57000005;stroke-linecap:round;stroke-linejoin:miter;stroke-miterlimit:4;stroke-dasharray:none;stroke-dashoffset:8.79999969;stroke-opacity:1"
       d="M 64.26562,-3.5527137e-15 C 28.93763,-3.5527137e-15 0.26562,28.672002 0.26562,64.000002 C 0.26562,71.076742 1.42284,77.884382 3.54687,84.250002 C 41.73032,69.967662 93.58765,60.922652 127.73438,56.062502 C 123.81742,24.479932 96.90287,-3.5527137e-15 64.26562,-3.5527137e-15 z"
       id="path2547" />
  </g>
</svg>
