<?xml version="1.0" encoding="UTF-8" standalone="no"?>
<!-- Created with Inkscape (http://www.inkscape.org/) -->
<svg
   xmlns:dc="http://purl.org/dc/elements/1.1/"
   xmlns:cc="http://creativecommons.org/ns#"
   xmlns:rdf="http://www.w3.org/1999/02/22-rdf-syntax-ns#"
   xmlns:svg="http://www.w3.org/2000/svg"
   xmlns="http://www.w3.org/2000/svg"
   xmlns:xlink="http://www.w3.org/1999/xlink"
   xmlns:sodipodi="http://sodipodi.sourceforge.net/DTD/sodipodi-0.dtd"
   xmlns:inkscape="http://www.inkscape.org/namespaces/inkscape"
   width="128"
   height="128"
   id="svg2761"
   sodipodi:version="0.32"
   inkscape:version="0.46"
   version="1.0"
   sodipodi:docname="emblem-cvs-conflict.svg"
   inkscape:output_extension="org.inkscape.output.svg.inkscape">
  <defs
     id="defs2763">
    <inkscape:perspective
       sodipodi:type="inkscape:persp3d"
       inkscape:vp_x="0 : 64 : 1"
       inkscape:vp_y="0 : 1000 : 0"
       inkscape:vp_z="128 : 64 : 1"
       inkscape:persp3d-origin="64 : 42.666667 : 1"
       id="perspective15" />
    <filter
       inkscape:collect="always"
       id="filter4872">
      <feGaussianBlur
         inkscape:collect="always"
         stdDeviation="2.3793898"
         id="feGaussianBlur4874" />
    </filter>
    <linearGradient
       y2="84.25"
       x2="74.599762"
       y1="-43.826942"
       x1="48.08326"
       gradientTransform="translate(0.265631,0)"
       gradientUnits="userSpaceOnUse"
       id="linearGradient2468"
       xlink:href="#linearGradient2561"
       inkscape:collect="always" />
    <inkscape:perspective
       sodipodi:type="inkscape:persp3d"
       inkscape:vp_x="0 : 64 : 1"
       inkscape:vp_y="0 : 1000 : 0"
       inkscape:vp_z="128 : 64 : 1"
       inkscape:persp3d-origin="64 : 42.666667 : 1"
       id="perspective2427" />
    <linearGradient
       y2="84.25"
       x2="74.599762"
       y1="-43.826942"
       x1="48.08326"
       gradientTransform="translate(0.2656292,-3.4989769e-6)"
       gradientUnits="userSpaceOnUse"
       id="linearGradient2557"
       xlink:href="#linearGradient2561"
       inkscape:collect="always" />
    <linearGradient
       inkscape:collect="always"
       id="linearGradient2561">
      <stop
         style="stop-color:#ffffff;stop-opacity:1;"
         offset="0"
         id="stop2563" />
      <stop
         style="stop-color:#ffffff;stop-opacity:0;"
         offset="1"
         id="stop2565" />
    </linearGradient>
    <linearGradient
       inkscape:collect="always"
       xlink:href="#linearGradient2561"
       id="linearGradient2573"
       gradientUnits="userSpaceOnUse"
       gradientTransform="translate(0.265627,0)"
       x1="48.08326"
       y1="-43.826942"
       x2="74.599762"
       y2="84.25" />
    <filter
       id="filter5199"
       inkscape:collect="always">
      <feGaussianBlur
         id="feGaussianBlur5201"
         stdDeviation="2.3793898"
         inkscape:collect="always" />
    </filter>
    <inkscape:perspective
       id="perspective17"
       inkscape:persp3d-origin="64 : 42.666667 : 1"
       inkscape:vp_z="128 : 64 : 1"
       inkscape:vp_y="0 : 1000 : 0"
       inkscape:vp_x="0 : 64 : 1"
       sodipodi:type="inkscape:persp3d" />
    <linearGradient
       inkscape:collect="always"
       xlink:href="#linearGradient2561"
       id="linearGradient2442"
       gradientUnits="userSpaceOnUse"
       gradientTransform="translate(0.26563,0)"
       x1="48.08326"
       y1="-43.826942"
       x2="74.599762"
       y2="84.25" />
  </defs>
  <sodipodi:namedview
     id="base"
     pagecolor="#ffffff"
     bordercolor="#666666"
     borderopacity="1.0"
     gridtolerance="10000"
     guidetolerance="10"
     objecttolerance="10"
     inkscape:pageopacity="0.0"
     inkscape:pageshadow="2"
     inkscape:zoom="1.979899"
     inkscape:cx="66.901956"
     inkscape:cy="-22.720797"
     inkscape:document-units="px"
     inkscape:current-layer="layer1"
     showgrid="false"
     inkscape:showpageshadow="false"
     inkscape:window-width="1276"
     inkscape:window-height="956"
     inkscape:window-x="2"
     inkscape:window-y="45" />
  <metadata
     id="metadata2766">
    <rdf:RDF>
      <cc:Work
         rdf:about="">
        <dc:format>image/svg+xml</dc:format>
        <dc:type
           rdf:resource="http://purl.org/dc/dcmitype/StillImage" />
      </cc:Work>
    </rdf:RDF>
  </metadata>
  <g
     inkscape:label="Layer 1"
     inkscape:groupmode="layer"
     id="layer1">
    <text
       xml:space="preserve"
       style="font-size:16px;font-style:normal;font-variant:normal;font-weight:bold;font-stretch:normal;text-align:start;line-height:125%;writing-mode:lr-tb;text-anchor:start;fill:#000000;fill-opacity:1;stroke:none;stroke-width:1px;stroke-linecap:butt;stroke-linejoin:miter;stroke-opacity:1;font-family:Purisa;-inkscape-font-specification:Purisa Bold"
       x="-161.45073"
       y="9.1614103"
       id="text2404"
       sodipodi:linespacing="125%"><tspan
         sodipodi:role="line"
         id="tspan2406"
         x="-161.45073"
         y="9.1614103" /></text>
    <g
       id="g5275">
      <path
         sodipodi:type="arc"
         style="fill:#f5c254;fill-opacity:1;stroke:#de9b08;stroke-width:2.25339365;stroke-linejoin:miter;stroke-miterlimit:4;stroke-dasharray:none;stroke-opacity:1"
         id="path3392"
         sodipodi:cx="85.714287"
         sodipodi:cy="96.571426"
         sodipodi:rx="29.642857"
         sodipodi:ry="16.428572"
         d="M 115.35714,96.571426 A 29.642857,16.428572 0 1 1 56.07143,96.571426 A 29.642857,16.428572 0 1 1 115.35714,96.571426 z"
         transform="matrix(2.054159,0,0,3.7064171,-112.07077,-293.93399)" />
      <path
         style="fill:#ffffff;fill-opacity:1;stroke:#ffffff;stroke-width:2.09844446000000007;stroke-linecap:round;stroke-linejoin:round;stroke-miterlimit:4;stroke-dasharray:none;stroke-opacity:1;filter:url(#filter4872)"
         d="M 64 31.28125 C 40.571782 31.285762 17.133958 32.74078 15.46875 35.625 C 10.629185 44.007367 55.733257 119.65625 63.96875 119.65625 C 72.561386 119.65625 117.29841 43.884363 112.53125 35.625 C 110.85562 32.722733 87.428218 31.276738 64 31.28125 z M 63.65625 32.78125 L 64.09375 32.78125 C 68.515286 32.78125 72.09375 36.359713 72.09375 40.78125 L 72.09375 85.40625 C 72.09375 89.827782 68.515284 93.375001 64.09375 93.375 L 63.65625 93.375 C 59.234715 93.375 55.687499 89.82778 55.6875 85.40625 L 55.6875 40.78125 C 55.6875 36.359714 59.234716 32.781252 63.65625 32.78125 z M 62.875 96.125 L 64.90625 96.125 C 68.885232 96.125 72.09375 99.33351 72.09375 103.3125 L 72.09375 105.15625 C 72.09375 109.13524 68.885235 112.34375 64.90625 112.34375 L 62.875 112.34375 C 58.896018 112.34375 55.687499 109.13524 55.6875 105.15625 L 55.6875 103.3125 C 55.6875 99.333521 58.896017 96.124997 62.875 96.125 z "
         id="path4870" />
      <path
         id="path4649"
         d="M 64 31.28125 C 40.571782 31.285762 17.133958 32.74078 15.46875 35.625 C 10.629185 44.007367 55.733257 119.65625 63.96875 119.65625 C 72.561386 119.65625 117.29841 43.884363 112.53125 35.625 C 110.85562 32.722733 87.428218 31.276738 64 31.28125 z M 63.65625 32.78125 L 64.09375 32.78125 C 68.515286 32.78125 72.09375 36.359713 72.09375 40.78125 L 72.09375 85.40625 C 72.09375 89.827782 68.515284 93.375001 64.09375 93.375 L 63.65625 93.375 C 59.234715 93.375 55.687499 89.82778 55.6875 85.40625 L 55.6875 40.78125 C 55.6875 36.359714 59.234716 32.781252 63.65625 32.78125 z M 62.875 96.125 L 64.90625 96.125 C 68.885232 96.125 72.09375 99.33351 72.09375 103.3125 L 72.09375 105.15625 C 72.09375 109.13524 68.885235 112.34375 64.90625 112.34375 L 62.875 112.34375 C 58.896018 112.34375 55.687499 109.13524 55.6875 105.15625 L 55.6875 103.3125 C 55.6875 99.333521 58.896017 96.124997 62.875 96.125 z "
         style="fill:#ffffff;fill-opacity:1;stroke:#ffffff;stroke-width:2.09844446;stroke-linecap:round;stroke-linejoin:round;stroke-miterlimit:4;stroke-dasharray:none;stroke-opacity:1" />
    </g>
    <text
       xml:space="preserve"
       style="font-size:16px;font-style:normal;font-variant:normal;font-weight:bold;font-stretch:normal;text-align:start;line-height:125%;writing-mode:lr-tb;text-anchor:start;fill:#000000;fill-opacity:1;stroke:none;stroke-width:1px;stroke-linecap:butt;stroke-linejoin:miter;stroke-opacity:1;font-family:Purisa;-inkscape-font-specification:Purisa Bold"
       x="-286.56497"
       y="-14.469322"
       id="text2428"
       sodipodi:linespacing="125%"><tspan
         sodipodi:role="line"
         id="tspan2430"
         x="-286.56497"
         y="-14.469322" /></text>
    <text
       xml:space="preserve"
       style="font-size:16px;font-style:normal;font-variant:normal;font-weight:bold;font-stretch:normal;text-align:start;line-height:125%;writing-mode:lr-tb;text-anchor:start;fill:#000000;fill-opacity:1;stroke:none;stroke-width:1px;stroke-linecap:butt;stroke-linejoin:miter;stroke-opacity:1;font-family:Purisa;-inkscape-font-specification:Purisa Bold"
       x="-435.41779"
       y="102.05862"
       id="text3871"
       sodipodi:linespacing="125%"><tspan
         sodipodi:role="line"
         id="tspan3873"
         x="-435.41779"
         y="102.05862" /></text>
    <path
       style="fill:url(#linearGradient2442);fill-opacity:1;stroke:none;stroke-width:1.57000005;stroke-linecap:round;stroke-linejoin:miter;stroke-miterlimit:4;stroke-dasharray:none;stroke-dashoffset:8.79999969;stroke-opacity:1"
       d="M 64.265631,3.5527137e-15 C 28.937631,3.5527137e-15 0.26563,28.671999 0.26563,63.999999 C 0.26563,71.076739 1.42284,77.884379 3.54688,84.249995 C 41.730311,69.967659 93.587651,60.922639 127.73437,56.062499 C 123.81741,24.479929 96.902871,3.5527137e-15 64.265631,3.5527137e-15 z"
       id="path2547" />
  </g>
</svg>
