<?xml version="1.0" encoding="UTF-8" standalone="no"?>
<!-- Created with Inkscape (http://www.inkscape.org/) -->
<svg
   xmlns:dc="http://purl.org/dc/elements/1.1/"
   xmlns:cc="http://creativecommons.org/ns#"
   xmlns:rdf="http://www.w3.org/1999/02/22-rdf-syntax-ns#"
   xmlns:svg="http://www.w3.org/2000/svg"
   xmlns="http://www.w3.org/2000/svg"
   xmlns:xlink="http://www.w3.org/1999/xlink"
   xmlns:sodipodi="http://sodipodi.sourceforge.net/DTD/sodipodi-0.dtd"
   xmlns:inkscape="http://www.inkscape.org/namespaces/inkscape"
   width="128"
   height="128"
   id="svg3593"
   sodipodi:version="0.32"
   inkscape:version="0.46"
   version="1.0"
   sodipodi:docname="emblem-handshake.svg"
   inkscape:output_extension="org.inkscape.output.svg.inkscape">
  <defs
     id="defs3595">
    <inkscape:perspective
       sodipodi:type="inkscape:persp3d"
       inkscape:vp_x="0 : 64 : 1"
       inkscape:vp_y="0 : 1000 : 0"
       inkscape:vp_z="128 : 64 : 1"
       inkscape:persp3d-origin="64 : 42.666667 : 1"
       id="perspective18" />
    <filter
       inkscape:collect="always"
       id="filter3830">
      <feGaussianBlur
         inkscape:collect="always"
         stdDeviation="2.3725189"
         id="feGaussianBlur3832" />
    </filter>
    <linearGradient
       y2="84.25"
       x2="74.599762"
       y1="-43.826942"
       x1="48.08326"
       gradientTransform="translate(0.26562,0)"
       gradientUnits="userSpaceOnUse"
       id="linearGradient2563"
       xlink:href="#linearGradient2561"
       inkscape:collect="always" />
    <inkscape:perspective
       sodipodi:type="inkscape:persp3d"
       inkscape:vp_x="0 : 64 : 1"
       inkscape:vp_y="0 : 1000 : 0"
       inkscape:vp_z="128 : 64 : 1"
       inkscape:persp3d-origin="64 : 42.666667 : 1"
       id="perspective15" />
    <linearGradient
       y2="84.25"
       x2="74.599762"
       y1="-43.826942"
       x1="48.08326"
       gradientTransform="translate(0.26562,0)"
       gradientUnits="userSpaceOnUse"
       id="linearGradient2560"
       xlink:href="#linearGradient2561"
       inkscape:collect="always" />
    <inkscape:perspective
       sodipodi:type="inkscape:persp3d"
       inkscape:vp_x="0 : 64 : 1"
       inkscape:vp_y="0 : 1000 : 0"
       inkscape:vp_z="128 : 64 : 1"
       inkscape:persp3d-origin="64 : 42.666667 : 1"
       id="perspective2472" />
    <linearGradient
       y2="84.25"
       x2="74.599762"
       y1="-43.826942"
       x1="48.08326"
       gradientTransform="translate(0.265625,0)"
       gradientUnits="userSpaceOnUse"
       id="linearGradient2562"
       xlink:href="#linearGradient2561"
       inkscape:collect="always" />
    <inkscape:perspective
       sodipodi:type="inkscape:persp3d"
       inkscape:vp_x="0 : 64 : 1"
       inkscape:vp_y="0 : 1000 : 0"
       inkscape:vp_z="128 : 64 : 1"
       inkscape:persp3d-origin="64 : 42.666667 : 1"
       id="perspective22" />
    <linearGradient
       gradientUnits="userSpaceOnUse"
       y2="84.25"
       x2="74.599762"
       y1="-43.826942"
       x1="48.08326"
       id="linearGradient2567"
       xlink:href="#linearGradient2561"
       inkscape:collect="always" />
    <linearGradient
       y2="24.003584"
       x2="-29.875"
       y1="10.70663"
       x1="-26.853115"
       gradientTransform="translate(116.68629,204.54985)"
       gradientUnits="userSpaceOnUse"
       id="linearGradient6496"
       xlink:href="#linearGradient4790"
       inkscape:collect="always" />
    <radialGradient
       r="10.8808"
       fy="12.3457"
       fx="13.5024"
       cy="12.3457"
       cx="13.5024"
       gradientTransform="matrix(1.101263,0,0,1.101263,59.12197,207.7242)"
       gradientUnits="userSpaceOnUse"
       id="radialGradient6474"
       xlink:href="#aigrd2"
       inkscape:collect="always" />
    <radialGradient
       r="26.966"
       fy="29.0337"
       fx="23.1567"
       cy="29.0337"
       cx="23.1567"
       gradientTransform="matrix(1.101263,0,0,1.101263,59.12197,207.7242)"
       gradientUnits="userSpaceOnUse"
       id="radialGradient6471"
       xlink:href="#aigrd3"
       inkscape:collect="always" />
    <linearGradient
       y2="43.9375"
       x2="29.75"
       y1="38.420128"
       x1="29.75"
       gradientTransform="translate(56.68629,204.54985)"
       gradientUnits="userSpaceOnUse"
       id="linearGradient6467"
       xlink:href="#linearGradient2911"
       inkscape:collect="always" />
    <linearGradient
       y2="44.380974"
       x2="34.25"
       y1="38.804165"
       x1="34.25"
       gradientTransform="translate(56.68629,204.54985)"
       gradientUnits="userSpaceOnUse"
       id="linearGradient6465"
       xlink:href="#linearGradient2919"
       inkscape:collect="always" />
    <linearGradient
       y2="-0.67233789"
       x2="30.994286"
       y1="-37.643921"
       x1="0.88337302"
       gradientTransform="translate(58.80761,244.55189)"
       gradientUnits="userSpaceOnUse"
       id="linearGradient6461"
       xlink:href="#aigrd6"
       inkscape:collect="always" />
    <linearGradient
       y2="43.444958"
       x2="35.625"
       y1="38.874573"
       x1="35.625"
       gradientTransform="translate(56.68629,204.54985)"
       gradientUnits="userSpaceOnUse"
       id="linearGradient6452"
       xlink:href="#linearGradient2927"
       inkscape:collect="always" />
    <linearGradient
       id="linearGradient3202">
      <stop
         id="stop3204"
         offset="0"
         style="stop-color:#cacaca;stop-opacity:1;" />
      <stop
         style="stop-color:#f3f3f3;stop-opacity:1;"
         offset="0.5"
         id="stop3206" />
      <stop
         id="stop3208"
         offset="1"
         style="stop-color:#cdcdcd;stop-opacity:1;" />
    </linearGradient>
    <linearGradient
       y2="5.6930151"
       x2="80.921646"
       y1="14.582699"
       x1="82.489655"
       gradientUnits="userSpaceOnUse"
       id="linearGradient10379"
       xlink:href="#linearGradient7101"
       inkscape:collect="always" />
    <linearGradient
       y2="12.306049"
       x2="76.955917"
       y1="25.384384"
       x1="73.337959"
       gradientTransform="translate(-60,-1)"
       gradientUnits="userSpaceOnUse"
       id="linearGradient10377"
       xlink:href="#linearGradient3202"
       inkscape:collect="always" />
    <linearGradient
       y2="2.0453157"
       x2="81.75782"
       y1="15.414051"
       x1="76.781258"
       gradientUnits="userSpaceOnUse"
       id="linearGradient10375"
       xlink:href="#linearGradient5034"
       inkscape:collect="always" />
    <linearGradient
       y2="2.1401622"
       x2="34.056786"
       y1="-33.518921"
       x1="4.6333733"
       gradientTransform="translate(3.505583,42.36313)"
       gradientUnits="userSpaceOnUse"
       id="linearGradient10274"
       xlink:href="#aigrd1"
       inkscape:collect="always" />
    <linearGradient
       id="linearGradient4790">
      <stop
         style="stop-color:#555753;stop-opacity:1"
         offset="0"
         id="stop4792" />
      <stop
         style="stop-color:#babdb6;stop-opacity:1"
         offset="1"
         id="stop4794" />
    </linearGradient>
    <linearGradient
       inkscape:collect="always"
       id="linearGradient2927">
      <stop
         style="stop-color:#ddd;stop-opacity:1;"
         offset="0"
         id="stop2929" />
      <stop
         style="stop-color:#ddd;stop-opacity:0;"
         offset="1"
         id="stop2931" />
    </linearGradient>
    <linearGradient
       inkscape:collect="always"
       id="linearGradient2919">
      <stop
         style="stop-color:#646464;stop-opacity:1;"
         offset="0"
         id="stop2921" />
      <stop
         style="stop-color:#646464;stop-opacity:0;"
         offset="1"
         id="stop2923" />
    </linearGradient>
    <linearGradient
       inkscape:collect="always"
       id="linearGradient2911">
      <stop
         style="stop-color:#464f52;stop-opacity:1;"
         offset="0"
         id="stop2913" />
      <stop
         style="stop-color:#464f52;stop-opacity:0;"
         offset="1"
         id="stop2915" />
    </linearGradient>
    <linearGradient
       id="aigrd6"
       gradientUnits="userSpaceOnUse"
       x1="-1.2432"
       y1="-3.2012"
       x2="26.5278"
       y2="28.3922">
      <stop
         offset="0"
         style="stop-color:#FFFFFF"
         id="stop6468" />
      <stop
         offset="1"
         style="stop-color:#959595"
         id="stop6470" />
    </linearGradient>
    <radialGradient
       id="aigrd3"
       cx="23.1567"
       cy="29.0337"
       r="26.966"
       fx="23.1567"
       fy="29.0337"
       gradientUnits="userSpaceOnUse">
      <stop
         offset="0"
         style="stop-color:#767676"
         id="stop6443" />
      <stop
         offset="1"
         style="stop-color:#484848"
         id="stop6445" />
    </radialGradient>
    <radialGradient
       id="aigrd2"
       cx="13.5024"
       cy="12.3457"
       r="10.8808"
       fx="13.5024"
       fy="12.3457"
       gradientUnits="userSpaceOnUse">
      <stop
         offset="0"
         style="stop-color:#454545"
         id="stop6436" />
      <stop
         offset="1"
         style="stop-color:#333333"
         id="stop6438" />
    </radialGradient>
    <linearGradient
       y2="248.6311"
       x2="153.0005"
       y1="15.4238"
       x1="99.7773"
       gradientUnits="userSpaceOnUse"
       id="aigrd1">
      <stop
         id="stop53300"
         style="stop-color:#707070;stop-opacity:1;"
         offset="0" />
      <stop
         id="stop53302"
         style="stop-color:#cdcdcd;stop-opacity:1;"
         offset="1" />
    </linearGradient>
    <linearGradient
       id="linearGradient7101">
      <stop
         style="stop-color:#f8ead2;stop-opacity:1;"
         offset="0"
         id="stop7103" />
      <stop
         id="stop7171"
         offset="0.52469134"
         style="stop-color:#cfb07f;stop-opacity:1;" />
      <stop
         style="stop-color:#dcc29b;stop-opacity:1;"
         offset="1"
         id="stop7105" />
    </linearGradient>
    <linearGradient
       id="linearGradient5034">
      <stop
         id="stop5036"
         offset="0"
         style="stop-color:#ffffff;stop-opacity:1;" />
      <stop
         id="stop5038"
         offset="1"
         style="stop-color:#cfcfcf;stop-opacity:1;" />
    </linearGradient>
    <inkscape:perspective
       id="perspective154"
       inkscape:persp3d-origin="64 : 42.666667 : 1"
       inkscape:vp_z="128 : 64 : 1"
       inkscape:vp_y="0 : 1000 : 0"
       inkscape:vp_x="0 : 64 : 1"
       sodipodi:type="inkscape:persp3d" />
    <linearGradient
       id="linearGradient2561"
       inkscape:collect="always">
      <stop
         id="stop2563"
         offset="0"
         style="stop-color:#ffffff;stop-opacity:1;" />
      <stop
         id="stop2565"
         offset="1"
         style="stop-color:#ffffff;stop-opacity:0;" />
    </linearGradient>
    <linearGradient
       inkscape:collect="always"
       xlink:href="#linearGradient2561"
       id="linearGradient2713"
       gradientUnits="userSpaceOnUse"
       x1="48.08326"
       y1="-43.826942"
       x2="74.599762"
       y2="84.25"
       gradientTransform="translate(0.2656287,-3.498977e-6)" />
    <linearGradient
       inkscape:collect="always"
       xlink:href="#linearGradient2927"
       id="linearGradient2775"
       gradientUnits="userSpaceOnUse"
       gradientTransform="translate(186.11127,160.30725)"
       x1="35.625"
       y1="38.874573"
       x2="35.625"
       y2="43.444958" />
    <linearGradient
       inkscape:collect="always"
       xlink:href="#aigrd6"
       id="linearGradient2784"
       gradientUnits="userSpaceOnUse"
       gradientTransform="translate(188.23259,200.30929)"
       x1="0.88337302"
       y1="-37.643921"
       x2="30.994286"
       y2="-0.67233789" />
    <linearGradient
       inkscape:collect="always"
       xlink:href="#linearGradient2919"
       id="linearGradient2788"
       gradientUnits="userSpaceOnUse"
       gradientTransform="translate(186.11127,160.30725)"
       x1="34.25"
       y1="38.804165"
       x2="34.25"
       y2="44.380974" />
    <linearGradient
       inkscape:collect="always"
       xlink:href="#linearGradient2911"
       id="linearGradient2790"
       gradientUnits="userSpaceOnUse"
       gradientTransform="translate(186.11127,160.30725)"
       x1="29.75"
       y1="38.420128"
       x2="29.75"
       y2="43.9375" />
    <radialGradient
       inkscape:collect="always"
       xlink:href="#aigrd3"
       id="radialGradient2794"
       gradientUnits="userSpaceOnUse"
       gradientTransform="matrix(1.101263,0,0,1.101263,188.54695,163.4816)"
       cx="23.1567"
       cy="29.0337"
       fx="23.1567"
       fy="29.0337"
       r="26.966" />
    <radialGradient
       inkscape:collect="always"
       xlink:href="#aigrd2"
       id="radialGradient2797"
       gradientUnits="userSpaceOnUse"
       gradientTransform="matrix(1.101263,0,0,1.101263,188.54695,163.4816)"
       cx="13.5024"
       cy="12.3457"
       fx="13.5024"
       fy="12.3457"
       r="10.8808" />
    <linearGradient
       inkscape:collect="always"
       xlink:href="#linearGradient4790"
       id="linearGradient2819"
       gradientUnits="userSpaceOnUse"
       gradientTransform="translate(246.11127,160.30725)"
       x1="-26.853115"
       y1="10.70663"
       x2="-29.875"
       y2="24.003584" />
    <inkscape:perspective
       id="perspective2539"
       inkscape:persp3d-origin="64 : 42.666667 : 1"
       inkscape:vp_z="128 : 64 : 1"
       inkscape:vp_y="0 : 1000 : 0"
       inkscape:vp_x="0 : 64 : 1"
       sodipodi:type="inkscape:persp3d" />
    <linearGradient
       inkscape:collect="always"
       xlink:href="#linearGradient2561"
       id="linearGradient2559"
       gradientUnits="userSpaceOnUse"
       gradientTransform="translate(0.265625,0)"
       x1="48.08326"
       y1="-43.826942"
       x2="74.599762"
       y2="84.25" />
    <inkscape:perspective
       id="perspective17"
       inkscape:persp3d-origin="64 : 42.666667 : 1"
       inkscape:vp_z="128 : 64 : 1"
       inkscape:vp_y="0 : 1000 : 0"
       inkscape:vp_x="0 : 64 : 1"
       sodipodi:type="inkscape:persp3d" />
    <linearGradient
       inkscape:collect="always"
       xlink:href="#linearGradient2561"
       id="linearGradient2568"
       gradientUnits="userSpaceOnUse"
       gradientTransform="translate(0.26562,0)"
       x1="48.08326"
       y1="-43.826942"
       x2="74.599762"
       y2="84.25" />
    <linearGradient
       inkscape:collect="always"
       xlink:href="#linearGradient2561"
       id="linearGradient2571"
       gradientUnits="userSpaceOnUse"
       gradientTransform="translate(0.26562,0)"
       x1="48.08326"
       y1="-43.826942"
       x2="74.599762"
       y2="84.25" />
    <filter
       id="filter4279"
       inkscape:collect="always">
      <feGaussianBlur
         id="feGaussianBlur4281"
         stdDeviation="1.8125"
         inkscape:collect="always" />
    </filter>
    <inkscape:perspective
       id="perspective2481"
       inkscape:persp3d-origin="64 : 42.666667 : 1"
       inkscape:vp_z="128 : 64 : 1"
       inkscape:vp_y="0 : 1000 : 0"
       inkscape:vp_x="0 : 64 : 1"
       sodipodi:type="inkscape:persp3d" />
    <linearGradient
       inkscape:collect="always"
       xlink:href="#linearGradient2561"
       id="linearGradient2576"
       gradientUnits="userSpaceOnUse"
       gradientTransform="translate(0.26562,0)"
       x1="48.08326"
       y1="-43.826942"
       x2="74.599762"
       y2="84.25" />
  </defs>
  <sodipodi:namedview
     id="base"
     pagecolor="#eeeae5"
     bordercolor="#666666"
     borderopacity="1.0"
     gridtolerance="10000"
     guidetolerance="10"
     objecttolerance="10"
     inkscape:pageopacity="0"
     inkscape:pageshadow="2"
     inkscape:zoom="1.4142136"
     inkscape:cx="-134.04615"
     inkscape:cy="112.575"
     inkscape:document-units="px"
     inkscape:current-layer="layer1"
     showgrid="false"
     inkscape:showpageshadow="false"
     inkscape:window-width="1276"
     inkscape:window-height="956"
     inkscape:window-x="2"
     inkscape:window-y="45" />
  <metadata
     id="metadata3598">
    <rdf:RDF>
      <cc:Work
         rdf:about="">
        <dc:format>image/svg+xml</dc:format>
        <dc:type
           rdf:resource="http://purl.org/dc/dcmitype/StillImage" />
      </cc:Work>
    </rdf:RDF>
  </metadata>
  <g
     inkscape:label="Layer 1"
     inkscape:groupmode="layer"
     id="layer1">
    <text
       xml:space="preserve"
       style="font-size:16px;font-style:normal;font-variant:normal;font-weight:bold;font-stretch:normal;text-align:start;line-height:125%;writing-mode:lr-tb;text-anchor:start;fill:#000000;fill-opacity:1;stroke:none;stroke-width:1px;stroke-linecap:butt;stroke-linejoin:miter;stroke-opacity:1;font-family:Purisa;-inkscape-font-specification:Purisa Bold"
       x="-161.45073"
       y="9.1614065"
       id="text2404"
       sodipodi:linespacing="125%"><tspan
         sodipodi:role="line"
         id="tspan2406"
         x="-161.45073"
         y="9.1614065" /></text>
    <text
       xml:space="preserve"
       style="font-size:16px;font-style:normal;font-variant:normal;font-weight:bold;font-stretch:normal;text-align:start;line-height:125%;writing-mode:lr-tb;text-anchor:start;fill:#000000;fill-opacity:1;stroke:none;stroke-width:1px;stroke-linecap:butt;stroke-linejoin:miter;stroke-opacity:1;font-family:Purisa;-inkscape-font-specification:Purisa Bold"
       x="44.049271"
       y="72.161407"
       id="text4140"
       sodipodi:linespacing="125%"><tspan
         sodipodi:role="line"
         id="tspan4142"
         x="44.049271"
         y="72.161407" /></text>
    <g
       id="g3834">
      <path
         sodipodi:type="arc"
         style="fill:#f5c254;fill-opacity:1;stroke:none;stroke-width:2.25339365;stroke-linejoin:miter;stroke-miterlimit:4;stroke-dasharray:none;stroke-opacity:1"
         id="path3392"
         sodipodi:cx="85.714287"
         sodipodi:cy="96.571426"
         sodipodi:rx="29.642857"
         sodipodi:ry="16.428572"
         d="M 115.35714,96.571426 A 29.642857,16.428572 0 1 1 56.07143,96.571426 A 29.642857,16.428572 0 1 1 115.35714,96.571426 z"
         transform="matrix(2.054159,0,0,3.7064171,-112.07077,-293.93399)" />
      <path
         transform="matrix(2.054159,0,0,3.7064171,-112.07077,-293.93399)"
         d="M 115.35714,96.571426 A 29.642857,16.428572 0 1 1 56.07143,96.571426 A 29.642857,16.428572 0 1 1 115.35714,96.571426 z"
         sodipodi:ry="16.428572"
         sodipodi:rx="29.642857"
         sodipodi:cy="96.571426"
         sodipodi:cx="85.714287"
         id="path4164"
         style="fill:none;fill-opacity:1;stroke:#de9b08;stroke-width:2.25339365;stroke-linejoin:miter;stroke-miterlimit:4;stroke-dasharray:none;stroke-opacity:1"
         sodipodi:type="arc" />
      <path
         sodipodi:type="inkscape:offset"
         inkscape:radius="1.75"
         inkscape:original="M 108.8125 27.03125 C 108.8125 27.03125 101.83949 30.012518 93.90625 31.5 C 91.813526 31.892386 90.314135 32.806978 89.21875 33.96875 C 88.123365 35.130522 87.412627 36.51722 86.78125 37.90625 C 85.518496 40.684309 84.597662 43.370766 81.8125 44.53125 C 80.447684 45.099923 79.22892 44.946227 77.96875 44.3125 C 76.70858 43.678773 75.452655 42.54562 74.1875 41.21875 C 71.65719 38.565011 69.164955 35.152475 66.25 33.5625 C 64.724024 32.73015 63.13043 32.963812 61.71875 33.8125 C 60.30707 34.661188 58.986649 36.070034 57.71875 37.75 C 55.650903 40.489899 53.715511 43.904705 51.875 46.53125 C 49.139785 46.653312 35.469697 47.050678 21.625 43.03125 L 21.375 43.96875 C 34.233643 47.701905 46.85767 47.685786 51.09375 47.5625 C 50.936929 47.768256 50.780134 47.997892 50.625 48.1875 C 49.996538 48.955621 49.705347 49.810748 49.71875 50.6875 C 49.732153 51.564252 50.019951 52.447584 50.5 53.3125 C 51.460098 55.042332 53.13828 56.765377 55.03125 58.4375 C 56.92422 60.109623 59.039093 61.717301 60.8125 63.15625 C 62.585907 64.595199 64.022359 65.885775 64.5625 66.75 C 65.915721 68.915153 68.34387 69.988296 70.9375 70.3125 C 73.53113 70.636704 76.337734 70.241589 78.65625 69.46875 C 79.289901 69.257533 79.774427 68.934513 80.0625 68.46875 C 80.350573 68.002987 80.400995 67.436879 80.28125 66.875 C 80.041761 65.751242 79.207298 64.523966 78 63.0625 C 75.585404 60.139568 71.586818 56.399318 67.34375 52.15625 L 66.65625 52.84375 C 70.913182 57.100682 74.914596 60.860432 77.25 63.6875 C 78.417702 65.101034 79.145739 66.311258 79.3125 67.09375 C 79.39588 67.484996 79.348646 67.727481 79.21875 67.9375 C 79.088854 68.147519 78.835099 68.367467 78.34375 68.53125 C 76.162266 69.258411 73.46887 69.613296 71.0625 69.3125 C 68.65613 69.011704 66.584279 68.084847 65.4375 66.25 C 64.727641 65.114225 63.226593 63.826676 61.4375 62.375 C 59.648407 60.923324 57.57578 59.327877 55.71875 57.6875 C 53.86172 56.047123 52.227402 54.348293 51.375 52.8125 C 50.948799 52.044604 50.728785 51.343951 50.71875 50.6875 C 50.708715 50.031049 50.878462 49.419379 51.375 48.8125 C 54.189125 45.636618 56.195973 41.896538 58.53125 38.375 C 59.763351 36.742466 61.00543 35.385687 62.21875 34.65625 C 63.43207 33.926813 64.525976 33.76985 65.75 34.4375 C 68.335045 35.847525 70.84281 39.184989 73.4375 41.90625 C 74.734845 43.26688 76.088295 44.493102 77.53125 45.21875 C 78.974205 45.944398 80.552316 46.150077 82.1875 45.46875 C 85.402338 44.129234 86.481504 41.065691 87.71875 38.34375 C 88.337373 36.98278 89.001635 35.681978 89.96875 34.65625 C 90.935865 33.630522 92.186474 32.857614 94.09375 32.5 C 102.16051 30.987482 109.1875 27.96875 109.1875 27.96875 L 108.8125 27.03125 z M 119.9375 50.625 C 103.69146 54.156746 94.420592 63.084662 94.25 63.25 C 92.872499 62.299233 91.367043 61.386647 89.71875 60.5625 L 89.28125 61.4375 C 100.06275 66.828248 104.63568 75.69548 105.375 77.25 C 104.79632 78.914492 103.67344 81.521004 102.09375 84.53125 C 101.93226 84.257112 98.423272 78.40056 90.9375 75.40625 L 90.5625 76.34375 C 97.898863 79.278297 101.3125 85.125 101.3125 85.125 L 101.96875 84.71875 C 100.74847 87.029529 99.303879 89.548967 97.65625 92.03125 C 96.375487 90.244119 92.772548 85.922376 86.03125 82.75 L 85.625 83.65625 C 92.789098 87.027591 96.161228 91.59427 97.03125 92.90625 C 96.537861 93.626727 96.052447 94.361213 95.53125 95.0625 C 94.608014 96.304744 93.621457 97.495512 92.625 98.625 C 91.210302 96.711212 87.563591 92.513379 81.09375 89.46875 L 80.65625 90.375 C 87.417205 93.556624 90.831086 97.82165 91.9375 99.40625 C 90.397613 101.07164 88.794627 102.55831 87.15625 103.71875 C 84.21115 105.80472 81.191473 106.86435 78.25 106.3125 C 71.152541 100.75606 65.344402 93.80064 57.90625 88.9375 C 57.914803 88.894408 57.929245 88.855821 57.9375 88.8125 L 57.625 88.75 C 54.093346 86.479964 50.186649 84.678052 45.59375 83.75 L 45.5625 83.75 C 42.804461 83.373904 41.045239 83.225744 37.40625 81.40625 C 33.767261 79.586756 28.274835 76.08926 18.28125 69.09375 L 17.71875 69.90625 C 24.580774 74.709666 29.208538 77.79434 32.71875 79.90625 L 31.9375 79.46875 C 35.524558 87.520673 41.202167 95.729596 47.96875 100.0625 C 54.656853 104.34515 62.587976 105.50852 70.65625 101.0625 C 72.964451 103.21086 75.326049 105.33882 77.875 107.3125 L 78.03125 107.125 L 78 107.28125 C 81.312436 107.92804 84.619949 106.72608 87.71875 104.53125 C 89.464664 103.29465 91.13976 101.71391 92.75 99.96875 L 93.3125 99.65625 C 93.3125 99.65625 93.19921 99.519283 93.1875 99.5 C 94.278609 98.283056 95.346738 96.997762 96.34375 95.65625 C 101.50391 88.713091 105.32707 80.700736 106.46875 77.1875 C 106.46875 77.1875 106.46918 77.157233 106.46875 77.15625 L 106.4375 77.15625 C 106.36118 76.982685 103.15281 69.741964 95.09375 63.84375 C 95.948275 63.033381 104.80091 54.925072 120.125 51.59375 L 119.9375 50.625 z M 33.125 80.125 C 34.574396 80.988145 35.884465 81.739107 36.96875 82.28125 C 40.690117 84.141933 42.680867 84.378794 45.40625 84.75 C 45.416975 84.751461 45.426752 84.748534 45.4375 84.75 C 46.737274 85.013938 47.992307 85.35173 49.1875 85.75 C 48.887615 86.305571 48.150604 87.697051 47 89.53125 C 45.792661 91.455893 44.298814 93.566185 43.03125 94.75 C 39.001994 90.72834 35.598079 85.577387 33.125 80.125 z M 50.03125 86.03125 C 52.607017 86.971113 54.946993 88.225456 57.15625 89.65625 C 55.458513 96.371802 50.125 100 50.125 100 L 50.28125 100.25 C 49.683361 99.927968 49.082462 99.591723 48.5 99.21875 C 46.79587 98.12753 45.168709 96.818285 43.625 95.34375 C 45.040685 94.035866 46.501246 91.909598 47.71875 89.96875 C 48.961147 87.98822 49.795638 86.466099 50.03125 86.03125 z M 57.65625 90 C 59.957903 91.536882 62.120981 93.274501 64.21875 95.125 C 62.982627 99.982804 60.075199 102.19043 58.96875 102.875 C 56.032136 102.68575 53.214346 101.78233 50.53125 100.375 C 50.82286 100.17463 55.897972 96.621966 57.65625 90 z M 64.6875 95.5 C 66.436691 97.06009 68.13521 98.715922 69.875 100.34375 C 66.446364 102.17592 63.085513 102.96517 59.84375 102.90625 C 61.254332 101.85658 63.580726 99.581955 64.6875 95.5 z "
         style="fill:#ffffff;fill-opacity:1;fill-rule:evenodd;stroke:none;stroke-width:1px;stroke-linecap:butt;stroke-linejoin:miter;stroke-opacity:1;filter:url(#filter3830)"
         id="path3828"
         d="M 108.625,25.28125 C 108.45144,25.307955 108.28288,25.360628 108.125,25.4375 C 108.125,25.4375 101.29327,28.337591 93.59375,29.78125 C 91.165719,30.236506 89.265219,31.373063 87.9375,32.78125 C 86.624494,34.173833 85.842042,35.747507 85.1875,37.1875 C 84.534499,38.624102 83.989425,39.903592 83.375,40.875 C 82.760575,41.846408 82.138238,42.484067 81.125,42.90625 C 80.204944,43.289607 79.707023,43.231277 78.75,42.75 C 77.820936,42.282783 76.678135,41.26838 75.46875,40 C 73.059461,37.473186 70.564688,33.924488 67.09375,32.03125 C 64.997266,30.887714 62.601049,31.237242 60.8125,32.3125 C 59.080851,33.35355 57.648935,34.916724 56.3125,36.6875 C 54.324225,39.321966 52.578877,42.346265 50.9375,44.78125 C 47.570594,44.907256 35.095405,45.109351 22.125,41.34375 C 21.668929,41.210465 21.178267,41.268339 20.765723,41.504078 C 20.353179,41.739818 20.054213,42.133159 19.9375,42.59375 L 19.6875,43.53125 C 19.445246,44.44395 19.970715,45.384263 20.875,45.65625 C 32.398029,49.001646 42.698561,49.257865 48.21875,49.21875 C 48.08296,49.712439 47.961039,50.21434 47.96875,50.71875 C 47.987731,51.960369 48.387377,53.108776 48.96875,54.15625 C 50.109468,56.211509 51.91959,58.022722 53.875,59.75 C 55.835549,61.481818 57.978716,63.08813 59.71875,64.5 C 61.453641,65.907697 62.877662,67.34176 63.09375,67.6875 C 64.807884,70.430113 67.786886,71.696017 70.71875,72.0625 C 73.640206,72.427682 76.66805,71.975234 79.21875,71.125 C 80.106301,70.82915 81.003064,70.279509 81.5625,69.375 C 82.136208,68.447417 82.190565,67.394185 82,66.5 C 81.641923,64.81979 80.605253,63.464583 79.34375,61.9375 C 76.791836,58.848341 72.811705,55.124205 68.59375,50.90625 C 68.26457,50.570351 67.814055,50.38107 67.34375,50.38107 C 66.873445,50.38107 66.42293,50.570351 66.09375,50.90625 L 65.40625,51.59375 C 65.070351,51.92293 64.88107,52.373445 64.88107,52.84375 C 64.88107,53.314055 65.070351,53.76457 65.40625,54.09375 C 69.686598,58.374098 73.710746,62.154784 75.90625,64.8125 C 76.786185,65.877685 77.089792,66.561702 77.28125,66.96875 C 75.422745,67.51496 73.197947,67.802087 71.28125,67.5625 C 69.191239,67.301249 67.691332,66.568631 66.90625,65.3125 C 65.923785,63.740556 64.341593,62.500168 62.53125,61.03125 C 60.715809,59.558195 58.669778,57.960388 56.875,56.375 C 55.085461,54.79424 53.563787,53.153449 52.90625,51.96875 C 52.575232,51.372348 52.473101,50.940851 52.46875,50.65625 C 52.463579,50.317985 52.463366,50.218386 52.71875,49.90625 C 55.684494,46.559259 57.687686,42.84353 59.9375,39.4375 C 59.957815,39.406745 59.979641,39.374451 60,39.34375 C 61.143875,37.844413 62.301394,36.651395 63.125,36.15625 C 64.035251,35.609015 64.16824,35.566199 64.90625,35.96875 C 66.889867,37.050723 69.457041,40.294121 72.15625,43.125 C 73.510703,44.545524 74.9925,45.89742 76.75,46.78125 C 78.531917,47.677359 80.7554,47.976917 82.875,47.09375 C 86.835924,45.443365 88.121315,41.683108 89.3125,39.0625 C 89.909666,37.748736 90.515114,36.623174 91.25,35.84375 C 92.001549,35.046652 92.811686,34.517731 94.40625,34.21875 C 102.70662,32.662431 109.875,29.5625 109.875,29.5625 C 110.74425,29.189141 111.15947,28.192613 110.8125,27.3125 L 110.4375,26.375 C 110.1473,25.644937 109.40617,25.197709 108.625,25.28125 z M 119.71875,48.875 C 119.66622,48.883039 119.61408,48.893467 119.5625,48.90625 C 105.0697,52.056856 96.421403,59.04561 94.0625,61.125 C 92.929935,60.395626 91.799435,59.649718 90.5,59 C 89.636919,58.570457 88.588989,58.919767 88.15625,59.78125 L 87.71875,60.65625 C 87.289207,61.519331 87.638517,62.567261 88.5,63 C 97.996883,67.74844 102.27703,75.146479 103.40625,77.34375 C 103.0541,78.293171 102.32438,79.791391 101.65625,81.21875 C 99.935343,79.02699 97.122627,75.992802 91.59375,73.78125 C 91.162829,73.606555 90.680104,73.61052 90.252111,73.792271 C 89.824119,73.974021 89.486044,74.318615 89.3125,74.75 L 88.9375,75.6875 C 88.762805,76.118421 88.76677,76.601146 88.948521,77.029139 C 89.130271,77.457131 89.474865,77.795206 89.90625,77.96875 C 96.144162,80.463916 98.985192,84.808563 99.4375,85.53125 C 98.792312,86.699657 98.090053,87.885453 97.34375,89.09375 C 95.392013,86.817191 92.325786,83.765444 86.78125,81.15625 C 86.355128,80.956207 85.866387,80.936255 85.425377,81.100899 C 84.984368,81.265543 84.628275,81.600899 84.4375,82.03125 L 84.03125,82.9375 C 83.631312,83.809309 84.007594,84.8406 84.875,85.25 C 90.857986,88.065523 93.628239,91.416542 94.8125,93.03125 C 94.585597,93.360785 94.351692,93.726229 94.125,94.03125 C 93.624215,94.705073 93.066553,95.322162 92.53125,95.96875 C 90.564434,93.665484 87.403818,90.491501 81.84375,87.875 C 80.971941,87.475062 79.94065,87.851344 79.53125,88.71875 L 79.09375,89.625 C 78.88963,90.043379 78.860598,90.525839 79.013075,90.965676 C 79.165552,91.405513 79.486973,91.766482 79.90625,91.96875 C 85.33479,94.523356 88.072027,97.481254 89.5,99.28125 C 88.38914,100.38594 87.269545,101.49272 86.15625,102.28125 C 83.582648,104.10409 81.166639,104.85531 78.9375,104.5625 C 72.386755,99.339913 66.698425,92.788665 59.40625,87.875 C 59.152951,87.472569 58.746809,87.190526 58.28125,87.09375 L 58.1875,87.0625 C 54.606992,84.808588 50.615331,82.976464 45.9375,82.03125 C 45.83448,82.011489 45.729893,82.001031 45.625,82 C 45.60177,81.996879 45.585535,82.003082 45.5625,82 C 42.957678,81.65143 41.537718,81.518859 38.1875,79.84375 C 34.720859,78.11043 29.252549,74.63616 19.28125,67.65625 C 18.900081,67.390785 18.429017,67.287733 17.971822,67.369793 C 17.514627,67.451854 17.108805,67.712296 16.84375,68.09375 L 16.28125,68.90625 C 16.015785,69.287419 15.912733,69.758483 15.994793,70.215678 C 16.076854,70.672873 16.337296,71.078695 16.71875,71.34375 C 23.013713,75.750223 27.085848,78.442089 30.53125,80.5625 C 34.223682,88.716144 39.903604,96.967143 47.03125,101.53125 C 53.816501,105.87611 62.135329,107.16208 70.375,103.125 C 72.429644,105.01877 74.51845,106.91119 76.8125,108.6875 C 77.185983,108.9739 77.659076,109.0978 78.125,109.03125 C 81.886115,109.59999 85.519526,108.23471 88.71875,105.96875 C 90.508681,104.70097 92.164942,103.0999 93.75,101.40625 L 94.15625,101.1875 C 94.601366,100.94671 94.920468,100.52505 95.03125,100.03125 C 95.96691,98.960826 96.880696,97.857177 97.75,96.6875 C 103.04779,89.559151 106.87012,81.580319 108.125,77.71875 C 108.18043,77.557539 108.21202,77.389093 108.21875,77.21875 C 108.21875,77.21875 108.21864,77.203474 108.21875,77.1875 C 108.21881,77.179513 108.21888,77.174785 108.21875,77.15625 C 108.21869,77.146983 108.21966,77.122225 108.21875,77.09375 C 108.2183,77.079512 108.22203,77.075425 108.21875,77.03125 C 108.21711,77.009163 108.18751,76.906336 108.1875,76.90625 C 108.1875,76.90625 106.46875,77.15625 106.46875,77.15625 L 106.46875,77.125 L 108.03125,76.4375 C 107.90947,76.160549 104.86482,69.723387 97.78125,63.875 C 100.70217,61.475026 108.38299,55.946631 120.5,53.3125 C 121.43741,53.109365 122.03667,52.189564 121.84375,51.25 L 121.65625,50.28125 C 121.48215,49.375014 120.63432,48.759657 119.71875,48.875 z M 106.46875,77.15625 C 106.46875,77.15625 108.1875,76.84375 108.1875,76.84375 C 108.1875,76.84375 108.1875,76.8125 108.1875,76.8125 C 108.1875,76.8125 106.46875,77.15625 106.46875,77.15625 z M 37.46875,84.34375 C 40.513708,85.682553 42.759448,86.150766 45.09375,86.46875 C 45.114082,86.47152 45.135881,86.465976 45.15625,86.46875 C 45.635383,86.567057 46.066127,86.725045 46.53125,86.84375 C 46.185903,87.45163 46.060548,87.749987 45.53125,88.59375 C 44.72987,89.871246 43.84927,90.896852 43,91.9375 C 40.940517,89.660859 39.103891,87.116561 37.46875,84.34375 z M 50.71875,88.34375 C 52.188583,88.965822 53.615019,89.654269 54.96875,90.46875 C 53.390051,94.919978 50.672239,97.313109 49.8125,97.96875 C 49.691971,97.895655 49.5545,97.824919 49.4375,97.75 C 48.289428,97.014845 47.212374,96.067195 46.125,95.125 C 47.246983,93.797554 48.28932,92.338056 49.1875,90.90625 C 49.997394,89.615182 50.297249,89.089481 50.71875,88.34375 z M 58.375,92.78125 C 59.655141,93.719538 60.928768,94.666107 62.15625,95.71875 C 61.068841,98.88188 59.393389,100.36259 58.46875,101 C 56.862322,100.83404 55.271775,100.41518 53.71875,99.8125 C 55.265006,98.389869 56.906188,96.324433 58.375,92.78125 z M 65.40625,98.5625 C 65.823447,98.952862 66.236391,99.352328 66.65625,99.75 C 65.84318,100.06461 65.013716,100.46495 64.21875,100.65625 C 64.63664,100.02506 65.045096,99.348874 65.40625,98.5625 z"
         transform="translate(-6,1)" />
      <path
         transform="translate(-6,1)"
         d="M 108.625,25.28125 C 108.45144,25.307955 108.28288,25.360628 108.125,25.4375 C 108.125,25.4375 101.29327,28.337591 93.59375,29.78125 C 91.165719,30.236506 89.265219,31.373063 87.9375,32.78125 C 86.624494,34.173833 85.842042,35.747507 85.1875,37.1875 C 84.534499,38.624102 83.989425,39.903592 83.375,40.875 C 82.760575,41.846408 82.138238,42.484067 81.125,42.90625 C 80.204944,43.289607 79.707023,43.231277 78.75,42.75 C 77.820936,42.282783 76.678135,41.26838 75.46875,40 C 73.059461,37.473186 70.564688,33.924488 67.09375,32.03125 C 64.997266,30.887714 62.601049,31.237242 60.8125,32.3125 C 59.080851,33.35355 57.648935,34.916724 56.3125,36.6875 C 54.324225,39.321966 52.578877,42.346265 50.9375,44.78125 C 47.570594,44.907256 35.095405,45.109351 22.125,41.34375 C 21.668929,41.210465 21.178267,41.268339 20.765723,41.504078 C 20.353179,41.739818 20.054213,42.133159 19.9375,42.59375 L 19.6875,43.53125 C 19.445246,44.44395 19.970715,45.384263 20.875,45.65625 C 32.398029,49.001646 42.698561,49.257865 48.21875,49.21875 C 48.08296,49.712439 47.961039,50.21434 47.96875,50.71875 C 47.987731,51.960369 48.387377,53.108776 48.96875,54.15625 C 50.109468,56.211509 51.91959,58.022722 53.875,59.75 C 55.835549,61.481818 57.978716,63.08813 59.71875,64.5 C 61.453641,65.907697 62.877662,67.34176 63.09375,67.6875 C 64.807884,70.430113 67.786886,71.696017 70.71875,72.0625 C 73.640206,72.427682 76.66805,71.975234 79.21875,71.125 C 80.106301,70.82915 81.003064,70.279509 81.5625,69.375 C 82.136208,68.447417 82.190565,67.394185 82,66.5 C 81.641923,64.81979 80.605253,63.464583 79.34375,61.9375 C 76.791836,58.848341 72.811705,55.124205 68.59375,50.90625 C 68.26457,50.570351 67.814055,50.38107 67.34375,50.38107 C 66.873445,50.38107 66.42293,50.570351 66.09375,50.90625 L 65.40625,51.59375 C 65.070351,51.92293 64.88107,52.373445 64.88107,52.84375 C 64.88107,53.314055 65.070351,53.76457 65.40625,54.09375 C 69.686598,58.374098 73.710746,62.154784 75.90625,64.8125 C 76.786185,65.877685 77.089792,66.561702 77.28125,66.96875 C 75.422745,67.51496 73.197947,67.802087 71.28125,67.5625 C 69.191239,67.301249 67.691332,66.568631 66.90625,65.3125 C 65.923785,63.740556 64.341593,62.500168 62.53125,61.03125 C 60.715809,59.558195 58.669778,57.960388 56.875,56.375 C 55.085461,54.79424 53.563787,53.153449 52.90625,51.96875 C 52.575232,51.372348 52.473101,50.940851 52.46875,50.65625 C 52.463579,50.317985 52.463366,50.218386 52.71875,49.90625 C 55.684494,46.559259 57.687686,42.84353 59.9375,39.4375 C 59.957815,39.406745 59.979641,39.374451 60,39.34375 C 61.143875,37.844413 62.301394,36.651395 63.125,36.15625 C 64.035251,35.609015 64.16824,35.566199 64.90625,35.96875 C 66.889867,37.050723 69.457041,40.294121 72.15625,43.125 C 73.510703,44.545524 74.9925,45.89742 76.75,46.78125 C 78.531917,47.677359 80.7554,47.976917 82.875,47.09375 C 86.835924,45.443365 88.121315,41.683108 89.3125,39.0625 C 89.909666,37.748736 90.515114,36.623174 91.25,35.84375 C 92.001549,35.046652 92.811686,34.517731 94.40625,34.21875 C 102.70662,32.662431 109.875,29.5625 109.875,29.5625 C 110.74425,29.189141 111.15947,28.192613 110.8125,27.3125 L 110.4375,26.375 C 110.1473,25.644937 109.40617,25.197709 108.625,25.28125 z M 119.71875,48.875 C 119.66622,48.883039 119.61408,48.893467 119.5625,48.90625 C 105.0697,52.056856 96.421403,59.04561 94.0625,61.125 C 92.929935,60.395626 91.799435,59.649718 90.5,59 C 89.636919,58.570457 88.588989,58.919767 88.15625,59.78125 L 87.71875,60.65625 C 87.289207,61.519331 87.638517,62.567261 88.5,63 C 97.996883,67.74844 102.27703,75.146479 103.40625,77.34375 C 103.0541,78.293171 102.32438,79.791391 101.65625,81.21875 C 99.935343,79.02699 97.122627,75.992802 91.59375,73.78125 C 91.162829,73.606555 90.680104,73.61052 90.252111,73.792271 C 89.824119,73.974021 89.486044,74.318615 89.3125,74.75 L 88.9375,75.6875 C 88.762805,76.118421 88.76677,76.601146 88.948521,77.029139 C 89.130271,77.457131 89.474865,77.795206 89.90625,77.96875 C 96.144162,80.463916 98.985192,84.808563 99.4375,85.53125 C 98.792312,86.699657 98.090053,87.885453 97.34375,89.09375 C 95.392013,86.817191 92.325786,83.765444 86.78125,81.15625 C 86.355128,80.956207 85.866387,80.936255 85.425377,81.100899 C 84.984368,81.265543 84.628275,81.600899 84.4375,82.03125 L 84.03125,82.9375 C 83.631312,83.809309 84.007594,84.8406 84.875,85.25 C 90.857986,88.065523 93.628239,91.416542 94.8125,93.03125 C 94.585597,93.360785 94.351692,93.726229 94.125,94.03125 C 93.624215,94.705073 93.066553,95.322162 92.53125,95.96875 C 90.564434,93.665484 87.403818,90.491501 81.84375,87.875 C 80.971941,87.475062 79.94065,87.851344 79.53125,88.71875 L 79.09375,89.625 C 78.88963,90.043379 78.860598,90.525839 79.013075,90.965676 C 79.165552,91.405513 79.486973,91.766482 79.90625,91.96875 C 85.33479,94.523356 88.072027,97.481254 89.5,99.28125 C 88.38914,100.38594 87.269545,101.49272 86.15625,102.28125 C 83.582648,104.10409 81.166639,104.85531 78.9375,104.5625 C 72.386755,99.339913 66.698425,92.788665 59.40625,87.875 C 59.152951,87.472569 58.746809,87.190526 58.28125,87.09375 L 58.1875,87.0625 C 54.606992,84.808588 50.615331,82.976464 45.9375,82.03125 C 45.83448,82.011489 45.729893,82.001031 45.625,82 C 45.60177,81.996879 45.585535,82.003082 45.5625,82 C 42.957678,81.65143 41.537718,81.518859 38.1875,79.84375 C 34.720859,78.11043 29.252549,74.63616 19.28125,67.65625 C 18.900081,67.390785 18.429017,67.287733 17.971822,67.369793 C 17.514627,67.451854 17.108805,67.712296 16.84375,68.09375 L 16.28125,68.90625 C 16.015785,69.287419 15.912733,69.758483 15.994793,70.215678 C 16.076854,70.672873 16.337296,71.078695 16.71875,71.34375 C 23.013713,75.750223 27.085848,78.442089 30.53125,80.5625 C 34.223682,88.716144 39.903604,96.967143 47.03125,101.53125 C 53.816501,105.87611 62.135329,107.16208 70.375,103.125 C 72.429644,105.01877 74.51845,106.91119 76.8125,108.6875 C 77.185983,108.9739 77.659076,109.0978 78.125,109.03125 C 81.886115,109.59999 85.519526,108.23471 88.71875,105.96875 C 90.508681,104.70097 92.164942,103.0999 93.75,101.40625 L 94.15625,101.1875 C 94.601366,100.94671 94.920468,100.52505 95.03125,100.03125 C 95.96691,98.960826 96.880696,97.857177 97.75,96.6875 C 103.04779,89.559151 106.87012,81.580319 108.125,77.71875 C 108.18043,77.557539 108.21202,77.389093 108.21875,77.21875 C 108.21875,77.21875 108.21864,77.203474 108.21875,77.1875 C 108.21881,77.179513 108.21888,77.174785 108.21875,77.15625 C 108.21869,77.146983 108.21966,77.122225 108.21875,77.09375 C 108.2183,77.079512 108.22203,77.075425 108.21875,77.03125 C 108.21711,77.009163 108.18751,76.906336 108.1875,76.90625 C 108.1875,76.90625 106.46875,77.15625 106.46875,77.15625 L 106.46875,77.125 L 108.03125,76.4375 C 107.90947,76.160549 104.86482,69.723387 97.78125,63.875 C 100.70217,61.475026 108.38299,55.946631 120.5,53.3125 C 121.43741,53.109365 122.03667,52.189564 121.84375,51.25 L 121.65625,50.28125 C 121.48215,49.375014 120.63432,48.759657 119.71875,48.875 z M 106.46875,77.15625 C 106.46875,77.15625 108.1875,76.84375 108.1875,76.84375 C 108.1875,76.84375 108.1875,76.8125 108.1875,76.8125 C 108.1875,76.8125 106.46875,77.15625 106.46875,77.15625 z M 37.46875,84.34375 C 40.513708,85.682553 42.759448,86.150766 45.09375,86.46875 C 45.114082,86.47152 45.135881,86.465976 45.15625,86.46875 C 45.635383,86.567057 46.066127,86.725045 46.53125,86.84375 C 46.185903,87.45163 46.060548,87.749987 45.53125,88.59375 C 44.72987,89.871246 43.84927,90.896852 43,91.9375 C 40.940517,89.660859 39.103891,87.116561 37.46875,84.34375 z M 50.71875,88.34375 C 52.188583,88.965822 53.615019,89.654269 54.96875,90.46875 C 53.390051,94.919978 50.672239,97.313109 49.8125,97.96875 C 49.691971,97.895655 49.5545,97.824919 49.4375,97.75 C 48.289428,97.014845 47.212374,96.067195 46.125,95.125 C 47.246983,93.797554 48.28932,92.338056 49.1875,90.90625 C 49.997394,89.615182 50.297249,89.089481 50.71875,88.34375 z M 58.375,92.78125 C 59.655141,93.719538 60.928768,94.666107 62.15625,95.71875 C 61.068841,98.88188 59.393389,100.36259 58.46875,101 C 56.862322,100.83404 55.271775,100.41518 53.71875,99.8125 C 55.265006,98.389869 56.906188,96.324433 58.375,92.78125 z M 65.40625,98.5625 C 65.823447,98.952862 66.236391,99.352328 66.65625,99.75 C 65.84318,100.06461 65.013716,100.46495 64.21875,100.65625 C 64.63664,100.02506 65.045096,99.348874 65.40625,98.5625 z"
         id="path3826"
         style="fill:#ffffff;fill-opacity:1;fill-rule:evenodd;stroke:none;stroke-width:1px;stroke-linecap:butt;stroke-linejoin:miter;stroke-opacity:1"
         inkscape:original="M 108.8125 27.03125 C 108.8125 27.03125 101.83949 30.012518 93.90625 31.5 C 91.813526 31.892386 90.314135 32.806978 89.21875 33.96875 C 88.123365 35.130522 87.412627 36.51722 86.78125 37.90625 C 85.518496 40.684309 84.597662 43.370766 81.8125 44.53125 C 80.447684 45.099923 79.22892 44.946227 77.96875 44.3125 C 76.70858 43.678773 75.452655 42.54562 74.1875 41.21875 C 71.65719 38.565011 69.164955 35.152475 66.25 33.5625 C 64.724024 32.73015 63.13043 32.963812 61.71875 33.8125 C 60.30707 34.661188 58.986649 36.070034 57.71875 37.75 C 55.650903 40.489899 53.715511 43.904705 51.875 46.53125 C 49.139785 46.653312 35.469697 47.050678 21.625 43.03125 L 21.375 43.96875 C 34.233643 47.701905 46.85767 47.685786 51.09375 47.5625 C 50.936929 47.768256 50.780134 47.997892 50.625 48.1875 C 49.996538 48.955621 49.705347 49.810748 49.71875 50.6875 C 49.732153 51.564252 50.019951 52.447584 50.5 53.3125 C 51.460098 55.042332 53.13828 56.765377 55.03125 58.4375 C 56.92422 60.109623 59.039093 61.717301 60.8125 63.15625 C 62.585907 64.595199 64.022359 65.885775 64.5625 66.75 C 65.915721 68.915153 68.34387 69.988296 70.9375 70.3125 C 73.53113 70.636704 76.337734 70.241589 78.65625 69.46875 C 79.289901 69.257533 79.774427 68.934513 80.0625 68.46875 C 80.350573 68.002987 80.400995 67.436879 80.28125 66.875 C 80.041761 65.751242 79.207298 64.523966 78 63.0625 C 75.585404 60.139568 71.586818 56.399318 67.34375 52.15625 L 66.65625 52.84375 C 70.913182 57.100682 74.914596 60.860432 77.25 63.6875 C 78.417702 65.101034 79.145739 66.311258 79.3125 67.09375 C 79.39588 67.484996 79.348646 67.727481 79.21875 67.9375 C 79.088854 68.147519 78.835099 68.367467 78.34375 68.53125 C 76.162266 69.258411 73.46887 69.613296 71.0625 69.3125 C 68.65613 69.011704 66.584279 68.084847 65.4375 66.25 C 64.727641 65.114225 63.226593 63.826676 61.4375 62.375 C 59.648407 60.923324 57.57578 59.327877 55.71875 57.6875 C 53.86172 56.047123 52.227402 54.348293 51.375 52.8125 C 50.948799 52.044604 50.728785 51.343951 50.71875 50.6875 C 50.708715 50.031049 50.878462 49.419379 51.375 48.8125 C 54.189125 45.636618 56.195973 41.896538 58.53125 38.375 C 59.763351 36.742466 61.00543 35.385687 62.21875 34.65625 C 63.43207 33.926813 64.525976 33.76985 65.75 34.4375 C 68.335045 35.847525 70.84281 39.184989 73.4375 41.90625 C 74.734845 43.26688 76.088295 44.493102 77.53125 45.21875 C 78.974205 45.944398 80.552316 46.150077 82.1875 45.46875 C 85.402338 44.129234 86.481504 41.065691 87.71875 38.34375 C 88.337373 36.98278 89.001635 35.681978 89.96875 34.65625 C 90.935865 33.630522 92.186474 32.857614 94.09375 32.5 C 102.16051 30.987482 109.1875 27.96875 109.1875 27.96875 L 108.8125 27.03125 z M 119.9375 50.625 C 103.69146 54.156746 94.420592 63.084662 94.25 63.25 C 92.872499 62.299233 91.367043 61.386647 89.71875 60.5625 L 89.28125 61.4375 C 100.06275 66.828248 104.63568 75.69548 105.375 77.25 C 104.79632 78.914492 103.67344 81.521004 102.09375 84.53125 C 101.93226 84.257112 98.423272 78.40056 90.9375 75.40625 L 90.5625 76.34375 C 97.898863 79.278297 101.3125 85.125 101.3125 85.125 L 101.96875 84.71875 C 100.74847 87.029529 99.303879 89.548967 97.65625 92.03125 C 96.375487 90.244119 92.772548 85.922376 86.03125 82.75 L 85.625 83.65625 C 92.789098 87.027591 96.161228 91.59427 97.03125 92.90625 C 96.537861 93.626727 96.052447 94.361213 95.53125 95.0625 C 94.608014 96.304744 93.621457 97.495512 92.625 98.625 C 91.210302 96.711212 87.563591 92.513379 81.09375 89.46875 L 80.65625 90.375 C 87.417205 93.556624 90.831086 97.82165 91.9375 99.40625 C 90.397613 101.07164 88.794627 102.55831 87.15625 103.71875 C 84.21115 105.80472 81.191473 106.86435 78.25 106.3125 C 71.152541 100.75606 65.344402 93.80064 57.90625 88.9375 C 57.914803 88.894408 57.929245 88.855821 57.9375 88.8125 L 57.625 88.75 C 54.093346 86.479964 50.186649 84.678052 45.59375 83.75 L 45.5625 83.75 C 42.804461 83.373904 41.045239 83.225744 37.40625 81.40625 C 33.767261 79.586756 28.274835 76.08926 18.28125 69.09375 L 17.71875 69.90625 C 24.580774 74.709666 29.208538 77.79434 32.71875 79.90625 L 31.9375 79.46875 C 35.524558 87.520673 41.202167 95.729596 47.96875 100.0625 C 54.656853 104.34515 62.587976 105.50852 70.65625 101.0625 C 72.964451 103.21086 75.326049 105.33882 77.875 107.3125 L 78.03125 107.125 L 78 107.28125 C 81.312436 107.92804 84.619949 106.72608 87.71875 104.53125 C 89.464664 103.29465 91.13976 101.71391 92.75 99.96875 L 93.3125 99.65625 C 93.3125 99.65625 93.19921 99.519283 93.1875 99.5 C 94.278609 98.283056 95.346738 96.997762 96.34375 95.65625 C 101.50391 88.713091 105.32707 80.700736 106.46875 77.1875 C 106.46875 77.1875 106.46918 77.157233 106.46875 77.15625 L 106.4375 77.15625 C 106.36118 76.982685 103.15281 69.741964 95.09375 63.84375 C 95.948275 63.033381 104.80091 54.925072 120.125 51.59375 L 119.9375 50.625 z M 33.125 80.125 C 34.574396 80.988145 35.884465 81.739107 36.96875 82.28125 C 40.690117 84.141933 42.680867 84.378794 45.40625 84.75 C 45.416975 84.751461 45.426752 84.748534 45.4375 84.75 C 46.737274 85.013938 47.992307 85.35173 49.1875 85.75 C 48.887615 86.305571 48.150604 87.697051 47 89.53125 C 45.792661 91.455893 44.298814 93.566185 43.03125 94.75 C 39.001994 90.72834 35.598079 85.577387 33.125 80.125 z M 50.03125 86.03125 C 52.607017 86.971113 54.946993 88.225456 57.15625 89.65625 C 55.458513 96.371802 50.125 100 50.125 100 L 50.28125 100.25 C 49.683361 99.927968 49.082462 99.591723 48.5 99.21875 C 46.79587 98.12753 45.168709 96.818285 43.625 95.34375 C 45.040685 94.035866 46.501246 91.909598 47.71875 89.96875 C 48.961147 87.98822 49.795638 86.466099 50.03125 86.03125 z M 57.65625 90 C 59.957903 91.536882 62.120981 93.274501 64.21875 95.125 C 62.982627 99.982804 60.075199 102.19043 58.96875 102.875 C 56.032136 102.68575 53.214346 101.78233 50.53125 100.375 C 50.82286 100.17463 55.897972 96.621966 57.65625 90 z M 64.6875 95.5 C 66.436691 97.06009 68.13521 98.715922 69.875 100.34375 C 66.446364 102.17592 63.085513 102.96517 59.84375 102.90625 C 61.254332 101.85658 63.580726 99.581955 64.6875 95.5 z "
         inkscape:radius="1.75"
         sodipodi:type="inkscape:offset" />
    </g>
    <path
       style="fill:url(#linearGradient2576);fill-opacity:1;stroke:none;stroke-width:1.57000005;stroke-linecap:round;stroke-linejoin:miter;stroke-miterlimit:4;stroke-dasharray:none;stroke-dashoffset:8.79999969;stroke-opacity:1"
       d="M 64.26562,0 C 28.93763,0 0.26562,28.672 0.26562,64.000006 C 0.26562,71.076746 1.42284,77.884386 3.54687,84.250006 C 41.73032,69.967666 93.58765,60.922656 127.73438,56.062506 C 123.81742,24.47993 96.90287,0 64.26562,0 z"
       id="path2547" />
  </g>
</svg>
