<?xml version="1.0" encoding="UTF-8" standalone="no"?>
<!-- Created with Inkscape (http://www.inkscape.org/) -->

<svg
   xmlns:dc="http://purl.org/dc/elements/1.1/"
   xmlns:cc="http://creativecommons.org/ns#"
   xmlns:rdf="http://www.w3.org/1999/02/22-rdf-syntax-ns#"
   xmlns:svg="http://www.w3.org/2000/svg"
   xmlns="http://www.w3.org/2000/svg"
   xmlns:xlink="http://www.w3.org/1999/xlink"
   xmlns:sodipodi="http://sodipodi.sourceforge.net/DTD/sodipodi-0.dtd"
   xmlns:inkscape="http://www.inkscape.org/namespaces/inkscape"
   width="128"
   height="128"
   id="svg2"
   sodipodi:version="0.32"
   inkscape:version="0.47 r22583"
   version="1.0"
   sodipodi:docname="messages.svg"
   inkscape:output_extension="org.inkscape.output.svg.inkscape"
   inkscape:export-filename="D:\Projekte\cream\art\creamlooks-icontheme\icons\scalable\widgets\facebook\fb_messages.png"
   inkscape:export-xdpi="180"
   inkscape:export-ydpi="180">
  <defs
     id="defs4">
    <linearGradient
       inkscape:collect="always"
       id="linearGradient5366">
      <stop
         style="stop-color:#ffffff;stop-opacity:1;"
         offset="0"
         id="stop5368" />
      <stop
         style="stop-color:#ffffff;stop-opacity:0;"
         offset="1"
         id="stop5370" />
    </linearGradient>
    <linearGradient
       id="linearGradient3643">
      <stop
         style="stop-color:#ffffff;stop-opacity:1;"
         offset="0"
         id="stop3645" />
      <stop
         style="stop-color:#727272;stop-opacity:1;"
         offset="1"
         id="stop3647" />
    </linearGradient>
    <linearGradient
       id="linearGradient3206">
      <stop
         style="stop-color:#ffffff;stop-opacity:1;"
         offset="0"
         id="stop3208" />
      <stop
         style="stop-color:#cbcbcb;stop-opacity:1;"
         offset="1"
         id="stop3210" />
    </linearGradient>
    <linearGradient
       id="linearGradient3237-7">
      <stop
         style="stop-color:#ffffff;stop-opacity:1;"
         offset="0"
         id="stop3239-1" />
      <stop
         style="stop-color:#eaeaea;stop-opacity:1;"
         offset="1"
         id="stop3241-2" />
    </linearGradient>
    <filter
       inkscape:collect="always"
       id="filter3723">
      <feGaussianBlur
         inkscape:collect="always"
         stdDeviation="2.848125"
         id="feGaussianBlur3725" />
    </filter>
    <filter
       inkscape:collect="always"
       id="filter3635">
      <feGaussianBlur
         inkscape:collect="always"
         stdDeviation="1.8933751"
         id="feGaussianBlur3637" />
    </filter>
    <filter
       inkscape:collect="always"
       id="filter3639">
      <feGaussianBlur
         inkscape:collect="always"
         stdDeviation="1.9836937"
         id="feGaussianBlur3641" />
    </filter>
    <linearGradient
       inkscape:collect="always"
       xlink:href="#linearGradient3206"
       id="linearGradient3693"
       gradientUnits="userSpaceOnUse"
       gradientTransform="matrix(0.94422082,0,0,0.94422082,134.99688,-343.63978)"
       x1="78.678932"
       y1="35.911278"
       x2="57.808434"
       y2="124.8435" />
    <linearGradient
       inkscape:collect="always"
       xlink:href="#linearGradient3643"
       id="linearGradient3695"
       gradientUnits="userSpaceOnUse"
       x1="208.84256"
       y1="-229.20091"
       x2="204.74063"
       y2="-278.28467" />
    <linearGradient
       inkscape:collect="always"
       xlink:href="#linearGradient3206"
       id="linearGradient3697"
       gradientUnits="userSpaceOnUse"
       gradientTransform="translate(-1502.2461,-102.53426)"
       x1="1725.2543"
       y1="-136.10138"
       x2="1751.6963"
       y2="-183.4451" />
    <linearGradient
       inkscape:collect="always"
       xlink:href="#linearGradient3643"
       id="linearGradient3699"
       gradientUnits="userSpaceOnUse"
       gradientTransform="matrix(0.94422082,0,0,0.94422082,1637.243,-241.10552)"
       x1="-1547.9725"
       y1="-3.0558391"
       x2="-1590.8353"
       y2="29.702888" />
    <linearGradient
       inkscape:collect="always"
       xlink:href="#linearGradient3643"
       id="linearGradient3701"
       gradientUnits="userSpaceOnUse"
       x1="-1577.6575"
       y1="-27.028406"
       x2="-1556.2863"
       y2="9.2160864" />
    <linearGradient
       inkscape:collect="always"
       xlink:href="#linearGradient3237-7"
       id="linearGradient3703"
       gradientUnits="userSpaceOnUse"
       gradientTransform="matrix(0.99944925,0,0,1.0507864,-1501.3114,-91.250271)"
       x1="1681.7936"
       y1="-194.34016"
       x2="1685.4238"
       y2="-159.80118" />
    <linearGradient
       inkscape:collect="always"
       xlink:href="#linearGradient3643"
       id="linearGradient3705"
       gradientUnits="userSpaceOnUse"
       x1="152.63655"
       y1="-223.67166"
       x2="153.30856"
       y2="-315.05945" />
    <linearGradient
       inkscape:collect="always"
       xlink:href="#linearGradient3643"
       id="linearGradient3707"
       gradientUnits="userSpaceOnUse"
       x1="173.16522"
       y1="-335.418"
       x2="143.44876"
       y2="-282.36005" />
    <filter
       id="filter5259"
       y="0"
       height="1"
       x="0"
       width="1"
       inkscape:menu-tooltip="Increase or decrease lightness and contrast"
       inkscape:menu="Color"
       inkscape:label="Lightness-Contrast"
       color-interpolation-filters="sRGB">
      <feTurbulence
         id="feTurbulence5261"
         type="fractalNoise"
         baseFrequency="0.04"
         numOctaves="5"
         seed="0"
         result="result4" />
      <feDisplacementMap
         id="feDisplacementMap5263"
         in2="result4"
         in="SourceGraphic"
         yChannelSelector="G"
         xChannelSelector="R"
         scale="10"
         result="result3" />
      <feDiffuseLighting
         id="feDiffuseLighting5265"
         lighting-color="rgb(233,230,215)"
         diffuseConstant="1"
         surfaceScale="2"
         result="result1"
         in="result4">
        <feDistantLight
           id="feDistantLight5267"
           azimuth="235"
           elevation="40" />
      </feDiffuseLighting>
      <feComposite
         id="feComposite5269"
         in2="result1"
         operator="in"
         in="result3"
         result="result2" />
      <feComposite
         id="feComposite5271"
         in2="result1"
         result="result5"
         operator="arithmetic"
         k1="1.7" />
      <feBlend
         id="feBlend5273"
         in2="result3"
         in="result5"
         mode="normal"
         result="fbSourceGraphic" />
      <feColorMatrix
         result="fbSourceGraphicAlpha"
         in="fbSourceGraphic"
         values="0 0 0 -1 0 0 0 0 -1 0 0 0 0 -1 0 0 0 0 1 0"
         id="feColorMatrix5293" />
      <feFlood
         id="feFlood5295"
         result="result1"
         flood-opacity="0"
         flood-color="rgb(128,128,128)"
         in="fbSourceGraphic" />
      <feBlend
         id="feBlend5297"
         in2="fbSourceGraphic"
         mode="normal"
         result="result2" />
      <feComposite
         id="feComposite5299"
         in2="fbSourceGraphic"
         k2="1"
         operator="arithmetic"
         result="result6" />
      <feComposite
         id="feComposite5301"
         in2="fbSourceGraphic"
         operator="in" />
    </filter>
    <linearGradient
       inkscape:collect="always"
       xlink:href="#linearGradient5366"
       id="linearGradient5372"
       x1="192.60754"
       y1="-371.436"
       x2="247.71837"
       y2="-249.02638"
       gradientUnits="userSpaceOnUse"
       gradientTransform="matrix(0.38641818,-0.03527727,0.03527727,0.38641818,11.950777,172.61001)" />
    <linearGradient
       inkscape:collect="always"
       xlink:href="#linearGradient5366"
       id="linearGradient5377"
       gradientUnits="userSpaceOnUse"
       gradientTransform="matrix(0.38641818,-0.03527727,0.03527727,0.38641818,11.950777,172.61001)"
       x1="201.98015"
       y1="-348.78101"
       x2="238.77159"
       y2="-266.73093" />
  </defs>
  <sodipodi:namedview
     id="base"
     pagecolor="#424242"
     bordercolor="#666666"
     borderopacity="1.0"
     gridtolerance="10000"
     guidetolerance="10"
     objecttolerance="10"
     inkscape:pageopacity="0"
     inkscape:pageshadow="2"
     inkscape:zoom="3.959798"
     inkscape:cx="19.175669"
     inkscape:cy="36.855836"
     inkscape:document-units="px"
     inkscape:current-layer="g3760"
     showgrid="false"
     inkscape:showpageshadow="false"
     inkscape:window-width="1440"
     inkscape:window-height="838"
     inkscape:window-x="-8"
     inkscape:window-y="-8"
     inkscape:window-maximized="1" />
  <metadata
     id="metadata7">
    <rdf:RDF>
      <cc:Work
         rdf:about="">
        <dc:format>image/svg+xml</dc:format>
        <dc:type
           rdf:resource="http://purl.org/dc/dcmitype/StillImage" />
        <dc:title></dc:title>
      </cc:Work>
    </rdf:RDF>
  </metadata>
  <g
     inkscape:label="Layer 1"
     inkscape:groupmode="layer"
     id="layer1">
    <g
       id="g3218">
      <g
         id="g3887"
         transform="matrix(1.0590743,0,0,1.0590743,-1733.962,255.34866)">
        <g
           id="g3760"
           transform="matrix(0.88677513,-0.18881721,0.18881721,0.88677513,1578.0349,105.14946)">
          <g
             id="g3683"
             transform="matrix(0.93658205,0,0,0.93658205,12.113368,-18.276096)">
            <path
               sodipodi:type="inkscape:offset"
               inkscape:radius="-0.99231791"
               inkscape:original="M 10.8125 27.625 C 9.2402632 27.625 7.96875 28.896514 7.96875 30.46875 L 7.96875 103.53125 C 7.96875 105.10349 9.2295675 106.40625 10.8125 106.40625 L 116.21875 106.40625 C 117.80168 106.40625 119.0625 105.10349 119.0625 103.53125 L 119.0625 30.46875 C 119.0625 28.896514 117.79099 27.625 116.21875 27.625 L 10.8125 27.625 z "
               style="fill:none;stroke:#000000;stroke-width:1;stroke-linecap:round;stroke-linejoin:round;stroke-miterlimit:4;stroke-opacity:1;stroke-dasharray:none;filter:url(#filter3723)"
               id="path3727"
               d="m 10.8125,28.625 c -1.0372257,0 -1.84375,0.806525 -1.84375,1.84375 l 0,73.0625 c 0,1.04173 0.805272,1.875 1.84375,1.875 l 105.40625,0 c 1.03847,0 1.84375,-0.83327 1.84375,-1.875 l 0,-73.0625 c 0,-1.037226 -0.80652,-1.84375 -1.84375,-1.84375 l -105.40625,0 z"
               transform="matrix(0.94422082,0,0,0.94422082,134.99688,-343.63978)" />
            <rect
               style="fill:url(#linearGradient3693);fill-opacity:1;stroke:url(#linearGradient3695);stroke-width:2.60358548;stroke-linecap:round;stroke-linejoin:round;stroke-miterlimit:4;stroke-opacity:1;stroke-dasharray:none"
               id="rect2863"
               width="103.72652"
               height="73.204689"
               x="143.1042"
               y="-316.96796"
               ry="2.1062043" />
            <path
               sodipodi:type="inkscape:offset"
               inkscape:radius="-0.20336273"
               inkscape:original="M 54.25 67.75 A 0.65920978 0.65920978 0 0 0 54.03125 67.875 L 8.875 102.25 C 8.3410087 102.65672 8.0495881 103.23497 7.96875 103.78125 A 0.65920978 0.65920978 0 0 0 7.96875 103.9375 C 8.1358619 105.34665 9.351283 106.4375 10.8125 106.4375 L 116.21875 106.4375 C 117.67989 106.4375 118.89551 105.34677 119.0625 103.9375 A 0.65920978 0.65920978 0 0 0 119.0625 103.78125 C 118.98163 103.23521 118.69045 102.65676 118.15625 102.25 L 73 67.875 A 0.65920978 0.65920978 0 0 0 72.1875 67.90625 L 64.78125 73.96875 C 64.113567 74.515079 62.917683 74.515079 62.25 73.96875 L 54.84375 67.90625 A 0.65920978 0.65920978 0 0 0 54.3125 67.75 A 0.65920978 0.65920978 0 0 0 54.25 67.75 z "
               style="fill:none;stroke:#000000;stroke-width:0.55147809;stroke-linecap:round;stroke-linejoin:round;stroke-miterlimit:4;stroke-opacity:1;stroke-dasharray:none;filter:url(#filter3639)"
               id="path3689"
               d="m 54.28125,67.9375 c -0.0034,8.1e-5 9.97e-4,0.03122 0,0.03125 0,0 0.03125,-0.03125 0.03125,-0.03125 -0.0065,0.0024 -0.02482,-0.0025 -0.03125,0 z m 0.03125,0 a 0.20338307,0.20338307 0 0 1 0,0.03125 c -0.0034,-1.62e-4 -0.03025,3.5e-5 -0.03125,0 -9.97e-4,3.5e-5 -0.02784,-1.62e-4 -0.03125,0 -0.006,0.0034 -0.02533,-0.0036 -0.03125,0 -0.0059,0.0036 0.0058,0.02754 0,0.03125 -0.0057,0.0039 -0.02561,-0.004 -0.03125,0 -0.0054,0.0043 0.0053,0.02687 0,0.03125 -0.0053,0.0044 -0.02602,-0.0045 -0.03125,0 L 9,102.40625 c -0.4884498,0.37203 -0.7702302,0.90942 -0.84375,1.40625 -7.598e-4,0.009 5.069e-4,0.0227 0,0.0312 -2.536e-4,0.009 0,0.0227 0,0.0312 5.069e-4,0.009 -7.598e-4,0.0227 0,0.0312 0.1549772,1.30683 1.2962446,2.3125 2.65625,2.3125 l 105.40625,0 c 1.35993,0 2.50139,-1.00558 2.65625,-2.3125 7.6e-4,-0.009 -5.1e-4,-0.0227 0,-0.0312 0,-0.009 2.5e-4,-0.0227 0,-0.0312 -5.1e-4,-0.009 7.6e-4,-0.0227 0,-0.0312 -0.0735,-0.49665 -0.35515,-1.03421 -0.84375,-1.40625 L 72.875,68.03125 c -0.01,-0.0066 -0.02103,0.0062 -0.03125,0 -0.01022,-0.0062 0.01047,-0.02551 0,-0.03125 -0.01047,-0.0057 -0.02055,0.0053 -0.03125,0 -0.01091,-0.0049 -0.02015,0.0044 -0.03125,0 -0.0111,-0.0044 -0.01997,-0.02732 -0.03125,-0.03125 -0.01143,-0.0035 -0.01969,0.003 -0.03125,0 -0.01168,-0.0025 -0.01948,0.002 -0.03125,0 -0.01177,-0.002 -0.01941,0.0015 -0.03125,0 -0.0119,-0.001 -0.01932,5.33e-4 -0.03125,0 -0.01194,-3.7e-5 -0.01932,-4.59e-4 -0.03125,0 -0.01193,4.59e-4 -0.01935,-9.54e-4 -0.03125,0 -0.01185,0.0014 -0.01947,-0.0019 -0.03125,0 -0.01169,0.0024 -0.01967,-0.0029 -0.03125,0 -0.01158,0.0029 -0.0198,-0.0034 -0.03125,0 -0.0113,0.0039 -0.02012,-0.0043 -0.03125,0 -0.01113,0.0043 0.01094,0.02647 0,0.03125 -0.01094,0.0048 -0.02052,-0.0052 -0.03125,0 -0.01051,0.0057 -0.02099,0.02514 -0.03125,0.03125 -0.01,0.0065 -0.02153,-0.0069 -0.03125,0 -0.0097,0.0069 0.0094,0.02391 0,0.03125 -0.0094,0.0073 -0.02214,-0.0077 -0.03125,0 l -7.40625,6.0625 c -0.379895,0.310848 -0.900613,0.46875 -1.40625,0.46875 -0.505637,0 -0.995105,-0.157902 -1.375,-0.46875 l -7.40625,-6.0625 c -0.0059,-0.0051 -0.02526,0.005 -0.03125,0 -0.006,-0.005 0.0061,-0.02644 0,-0.03125 -0.0063,-0.0046 -0.02487,0.0045 -0.03125,0 -0.0065,-0.0043 0.0066,-0.02713 0,-0.03125 -0.0066,-0.0041 -0.02453,0.0039 -0.03125,0 -0.0069,-0.0036 -0.02423,0.0034 -0.03125,0 -0.0071,-0.0032 0.0072,-0.02826 0,-0.03125 -0.0072,-0.003 -0.02398,0.0028 -0.03125,0 -0.0074,-0.0024 -0.02378,0.0022 -0.03125,0 -0.0075,-0.002 -0.02367,0.0018 -0.03125,0 -0.0077,-0.0014 -0.02355,-0.03008 -0.03125,-0.03125 -0.0078,-7.5e-4 -0.02348,5.4e-4 -0.03125,0 -0.0078,-3.29e-4 -0.02346,1.18e-4 -0.03125,0 -0.0078,3.04e-4 -0.02348,-5.15e-4 -0.03125,0 -0.0078,7.25e-4 -0.02352,-9.35e-4 -0.03125,0 a 0.20338307,0.20338307 0 0 1 -0.03125,0 z"
               transform="matrix(0.94422082,0,0,0.94422082,134.99688,-343.63978)" />
            <path
               style="opacity:0.85;fill:url(#linearGradient3697);fill-opacity:1;stroke:url(#linearGradient3699);stroke-width:2.08286834;stroke-linecap:round;stroke-linejoin:round;stroke-miterlimit:4;stroke-opacity:0.43983406;stroke-dasharray:none"
               d="m 184.94281,-277.95964 -41.19163,31.36583 c -0.3758,0.28623 -0.56465,0.66108 -0.6196,1.03275 0.12171,1.02622 0.98208,1.79992 2.06548,1.79992 l 99.52683,0 c 1.08321,0 1.94386,-0.7737 2.06538,-1.79992 -0.0548,-0.37167 -0.2437,-0.74652 -0.61959,-1.03275 l -41.19164,-31.36583 -8.43897,7.2587 c -0.87973,0.7568 -2.27755,0.7568 -3.15719,0 l -8.43907,-7.2587 z"
               id="path3660" />
            <path
               sodipodi:type="inkscape:offset"
               inkscape:radius="-1.3710977"
               inkscape:original="M 1647.4688 -215.3125 C 1645.9132 -215.3125 1644.6677 -214.08258 1644.5 -212.5625 A 0.91887048 0.91887048 0 0 0 1644.5 -212.34375 C 1644.5841 -211.73457 1644.8893 -211.10483 1645.4375 -210.65625 L 1695.0312 -170.0625 C 1696.28 -169.04081 1698.1264 -169.04081 1699.375 -170.0625 L 1749 -210.65625 C 1749.5484 -211.10483 1749.8535 -211.7344 1749.9375 -212.34375 A 0.91887048 0.91887048 0 0 0 1749.9375 -212.5625 C 1749.7699 -214.08263 1748.524 -215.3125 1746.9688 -215.3125 L 1647.4688 -215.3125 z "
               style="fill:none;stroke:#000000;stroke-width:0.50811762;stroke-linecap:round;stroke-linejoin:round;stroke-miterlimit:4;stroke-opacity:1;stroke-dasharray:none;filter:url(#filter3635)"
               id="path3741"
               d="m 1647.4688,-213.9375 c -0.8186,0 -1.4492,0.65708 -1.5626,1.5 0.059,0.25938 0.1823,0.53547 0.4063,0.71875 l 49.5937,40.59375 c 0.7362,0.60228 1.8579,0.60216 2.5938,0 l 49.625,-40.59375 c 0.2241,-0.18334 0.3473,-0.45939 0.4062,-0.71875 -0.1132,-0.84271 -0.7444,-1.5 -1.5624,-1.5 l -99.5,0 z"
               transform="matrix(0.99944925,0,0,1.0507864,-1501.3114,-91.250268)" />
            <path
               transform="matrix(0.94422082,0,0,0.94422082,1637.243,-241.10552)"
               d="m -1538.125,-38.375 -43.2812,32.96875 c -0.2688,0.2047219 -0.3873,0.4366843 -0.4376,0.6875 0.129,0.7971913 0.781,1.40625 1.6563,1.40625 l 105.4063,0 c 0.875,0 1.5274,-0.6092536 1.6562,-1.40625 -0.05,-0.250504 -0.1686,-0.4827446 -0.4375,-0.6875 l -43.2813,-32.96875 -8.625,7.40625 c -1.1362,0.977473 -2.8951,0.977539 -4.0312,0 l -8.625,-7.40625 z"
               id="path3679"
               style="opacity:0.85;fill:none;stroke:url(#linearGradient3701);stroke-width:1.10295618;stroke-linecap:round;stroke-linejoin:round;stroke-miterlimit:4;stroke-opacity:0.43983406;stroke-dasharray:none"
               inkscape:original="M -1538.0938 -39.03125 L -1581.7188 -5.8125 C -1582.1167 -5.5093612 -1582.3168 -5.1123761 -1582.375 -4.71875 C -1582.2461 -3.6319068 -1581.3349 -2.8125 -1580.1875 -2.8125 L -1474.7812 -2.8125 C -1473.634 -2.8125 -1472.7224 -3.6319068 -1472.5938 -4.71875 C -1472.6517 -5.1123761 -1472.8519 -5.5093612 -1473.25 -5.8125 L -1516.875 -39.03125 L -1525.8125 -31.34375 C -1526.7442 -30.542243 -1528.2247 -30.542243 -1529.1562 -31.34375 L -1538.0938 -39.03125 z "
               inkscape:radius="-0.51519299"
               sodipodi:type="inkscape:offset" />
            <path
               style="fill:url(#linearGradient3703);fill-opacity:1;stroke:url(#linearGradient3705);stroke-width:2.60358548;stroke-linecap:round;stroke-linejoin:round;stroke-miterlimit:4;stroke-opacity:1;stroke-dasharray:none"
               d="m 145.25578,-316.54756 c -1.08211,0 -1.94193,0.89303 -2.06347,2.05088 0.055,0.41934 0.24367,0.81643 0.61906,1.13937 l 49.58128,42.64513 c 0.87972,0.7568 2.27435,0.7568 3.15406,0 l 49.58128,-42.64513 c 0.37539,-0.32294 0.56399,-0.72003 0.61896,-1.13937 -0.12153,-1.15785 -0.98126,-2.05088 -2.06336,-2.05088 l -99.42781,0 z"
               id="rect3653" />
            <path
               d="m 145.25,-314.78125 c -0.0393,0 -0.0734,0.16362 -0.125,0.21875 l 49.4375,42.5 c 0.18605,0.16006 0.62646,0.16004 0.8125,0 l 49.4375,-42.5 c -0.0516,-0.0551 -0.0857,-0.21875 -0.125,-0.21875 l -99.4375,0 z"
               id="path3671"
               style="fill:none;stroke:url(#linearGradient3707);stroke-width:1.04143417;stroke-linecap:round;stroke-linejoin:round;stroke-miterlimit:4;stroke-opacity:1;stroke-dasharray:none"
               inkscape:original="M 145.25 -316.5625 C 144.16789 -316.5625 143.30904 -315.65785 143.1875 -314.5 C 143.2425 -314.08066 143.43711 -313.66669 143.8125 -313.34375 L 193.40625 -270.71875 C 194.28597 -269.96195 195.65154 -269.96195 196.53125 -270.71875 L 246.125 -313.34375 C 246.50039 -313.66669 246.69503 -314.08066 246.75 -314.5 C 246.62847 -315.65785 245.7696 -316.5625 244.6875 -316.5625 L 145.25 -316.5625 z "
               inkscape:radius="-1.7884908"
               sodipodi:type="inkscape:offset" />
          </g>
          <path
             id="path3054"
             d="m -158.1526,-384.64342 c -17.19013,-3.66022 -34.09254,7.28042 -37.75276,24.47054 -3.66022,17.19012 7.31225,34.09933 24.50238,37.75954 17.19012,3.66022 34.09931,-7.31226 37.75953,-24.50237 3.66022,-17.19012 -7.31903,-34.06749 -24.50915,-37.72771 z m -0.54222,2.5465 c 15.34091,3.26647 25.27481,18.03379 22.71232,33.35218 l -57.04159,-12.14562 c 3.90022,-15.03354 18.98837,-24.47303 34.32927,-21.20656 z m -35.03149,24.81705 56.91427,12.11851 c -4.30816,14.43184 -19.05423,23.36097 -34.04195,20.16969 -14.98773,-3.19127 -24.81713,-17.35314 -22.87232,-32.2882 z"
             style="fill:#a40000;fill-opacity:1;stroke:none" />
          <path
             id="path3056"
             d="m -162.76013,-375.97491 c -0.14706,-0.007 -0.23206,-0.0161 -0.19776,-0.009 -0.56765,-0.12087 -0.87072,-0.22126 -1.30036,-0.14379 -0.42964,0.0775 -0.82869,0.28071 -1.76984,0.65467 -0.64818,0.25754 -1.3001,0.78956 -1.91217,1.32311 -0.61208,0.53356 -1.17543,1.089 -1.43942,1.29068 -0.5488,0.41927 -1.20011,0.75132 -1.84645,1.17074 -0.35891,0.2329 -0.86703,0.44229 -1.31949,0.88366 -0.23682,0.23099 -0.23034,0.50493 -0.23104,0.61629 -7.1e-4,0.11136 -0.0303,0.1125 0.0318,0.007 -0.23355,0.39719 -0.37544,0.59416 -0.44237,0.67112 -0.0335,0.0385 -0.063,0.0416 -0.0386,0.0251 -0.0408,0.0144 -0.0658,0.013 -0.10905,0.0433 -0.22621,0.15875 -0.19482,0.2992 -0.20866,0.35486 -0.0277,0.11133 -0.0478,0.22433 -0.10844,0.5093 -0.002,0.01 -0.0328,0.0637 -0.0725,0.18421 -0.0397,0.12055 -0.11258,0.31955 -0.0516,0.55469 0.16363,0.63069 0.66668,1.01465 1.12208,1.13733 0.45541,0.12267 0.86822,0.11832 1.22315,0.19389 l 1.27325,0.2711 c -0.0511,0.0476 -0.1161,0.12137 -0.168,0.16388 -0.67582,0.55355 -0.87602,0.66508 -1.19687,0.77666 -0.32086,0.11158 -0.80523,0.21628 -1.70618,0.66822 -0.31803,0.15953 -0.53736,0.39707 -0.71529,0.54646 -0.17794,0.14938 -0.28749,0.20287 -0.37932,0.2187 -0.26424,0.0456 -0.72138,-0.18688 -1.36196,-0.32327 l -3.08763,-0.65744 -0.21689,1.0186 3.08763,0.65744 c 0.38837,0.0827 0.98503,0.47411 1.7575,0.34094 0.39689,-0.0684 0.65458,-0.30185 0.86767,-0.48074 0.21309,-0.17889 0.39023,-0.32653 0.51547,-0.38936 0.83766,-0.42019 1.15828,-0.46064 1.55852,-0.59983 0.40025,-0.13919 0.81534,-0.37875 1.53758,-0.97031 0.3034,-0.2485 0.51647,-0.45778 0.74918,-0.70562 l 3.6606,0.77944 1.05043,0.22366 c 0.0956,0.0204 0.25739,0.0973 0.46391,0.16533 0.20652,0.068 0.47107,0.11836 0.79106,0.0353 0.21744,-0.0564 0.42116,-0.28174 0.45859,-0.43475 0.0302,-0.12358 -0.004,-0.20832 -0.009,-0.2682 0.0182,-0.0105 0.0118,0.008 0.0704,-0.0183 0.0587,-0.0264 0.14924,-0.1288 0.23843,-0.18215 0.0617,0.0898 0.13102,0.22055 0.17537,0.27026 0.0329,0.0369 0.0111,0.0197 0.025,0.0386 -0.0289,0.0525 -0.0635,0.12359 -0.0861,0.24787 -0.0282,0.15497 0.0343,0.43698 0.20987,0.57708 0.25842,0.20618 0.55235,0.27478 0.76867,0.29677 0.21633,0.022 0.39545,0.0177 0.49103,0.038 l 1.5279,0.32533 3.08763,0.65744 c 0.20464,0.0436 0.60443,0.18505 1.05721,0.19183 l -0.33889,1.59156 c 0.007,-0.0343 -0.0188,0.0471 -0.0725,0.18421 -0.0537,0.1371 -0.16451,0.42289 0.0168,0.70235 0.18134,0.27945 0.51256,0.33324 0.65962,0.34009 0.14707,0.007 0.23206,0.0161 0.19777,0.009 0.60335,0.12847 0.66938,0.24767 1.08226,0.23044 0.20644,-0.009 0.38873,-0.11213 0.50664,-0.19159 0.1179,-0.0795 0.24542,-0.15926 0.4633,-0.30065 0.0389,-0.0252 0.14852,-0.0627 0.29532,-0.13676 0.1468,-0.074 0.35566,-0.2191 0.4972,-0.4598 0.28903,-0.49155 0.23243,-0.93537 0.2826,-1.17098 l 0.10845,-0.5093 c 0.0583,-0.27376 0.0835,-0.39494 0.0949,-0.44564 0.0607,-0.0643 0.13318,-0.11906 0.22015,-0.25259 0.0939,0.1413 0.17924,0.26311 0.33719,0.60419 0.0865,0.18671 0.0426,0.63406 0.28564,1.15887 0.24967,0.5391 0.60859,0.93787 0.85182,1.3127 0.24323,0.37483 0.46119,0.86508 0.85182,1.31271 0.51824,0.59385 1.04666,0.83447 1.5129,1.02089 0.46623,0.18643 0.89233,0.33699 1.47162,0.74592 0.39985,0.28226 0.72112,0.80178 1.25413,1.29854 0.29014,0.27042 0.62392,0.58176 1.02392,0.81696 0.34041,0.20015 0.59756,0.16051 0.66168,0.17416 l 1.0186,0.21689 0.5093,0.10844 c -0.0343,-0.007 0.0471,0.0188 0.18421,0.0725 0.1371,0.0537 0.4615,0.13946 0.74095,-0.0419 0.27946,-0.18134 0.33325,-0.51255 0.3401,-0.65962 0.007,-0.14707 -0.0157,-0.23884 -0.023,-0.20454 l -1.0186,-0.21689 c -0.004,0.0167 -0.004,0.0163 -0.007,0.0318 l -0.5093,-0.10844 -1.0186,-0.21689 c -0.27886,-0.0594 -0.38826,-0.097 -0.35014,-0.0745 -0.27593,-0.16224 -0.54476,-0.37801 -0.82822,-0.64219 -0.39192,-0.36527 -0.75989,-0.98104 -1.39295,-1.42793 -0.69041,-0.48736 -1.23698,-0.65093 -1.65583,-0.81841 -0.41886,-0.16748 -0.72579,-0.30701 -1.13298,-0.77363 -0.2615,-0.29967 -0.44814,-0.7329 -0.74483,-1.1901 -0.29667,-0.45719 -0.60952,-0.83597 -0.77666,-1.19687 -0.0865,-0.18671 -0.0494,-0.60224 -0.29241,-1.12705 -0.23927,-0.51665 -0.45216,-0.82354 -0.61279,-1.02888 -0.0902,-0.11531 -0.0804,-0.11124 -0.13204,-0.16122 0.006,-0.0228 0.0197,-0.0976 0.0271,-0.12732 0.0704,-0.14405 0.0821,-0.21303 0.0996,-0.31154 0.0258,-0.10862 0.0287,-0.13657 0.061,-0.28648 0.007,-0.0196 0.005,-0.0268 0.007,-0.0318 0.002,-0.0197 0.0117,-0.0437 0.0136,-0.0637 0.001,-0.015 -0.018,-0.0303 -0.0183,-0.0704 -7e-5,-0.01 0.0152,-0.0442 0.0136,-0.0637 -0.002,-0.0194 -0.0182,-0.0701 -0.0183,-0.0704 -5e-5,-1.7e-4 -0.0365,-0.14079 -0.0366,-0.14088 -3e-5,-5e-5 -0.0819,-0.084 -0.0819,-0.084 -4e-5,-3e-5 -0.13879,-0.12936 -0.13883,-0.12938 -3e-5,-2e-5 -0.25461,-0.0542 -0.25465,-0.0542 -3e-5,0 -0.21128,0.0548 -0.21132,0.0548 -3e-5,2e-5 -0.11578,0.0751 -0.11582,0.0752 -4e-5,3e-5 -0.0453,0.0568 -0.0454,0.0569 -9e-5,10e-5 -0.0521,0.0885 -0.0522,0.0887 -1e-4,1.7e-4 -0.0331,0.0133 -0.0386,0.025 -0.011,0.0235 -0.01,0.0523 -0.0136,0.0637 -0.008,0.0227 -0.0107,0.0531 -0.0136,0.0637 -0.006,0.0212 -0.003,0.016 -0.007,0.0318 -0.007,0.034 -0.007,0.0322 -0.0136,0.0637 -1e-4,0.001 -0.007,-0.002 -0.007,0.0318 -0.003,0.0193 -0.007,0.0263 -0.0136,0.0637 -0.0192,0.11215 -0.0828,0.29524 -0.0474,0.22282 -0.005,0.0216 -0.0405,0.037 -0.0454,0.0569 -0.2319,0.46928 -0.37634,0.81364 -0.47154,0.96437 -0.10152,0.16075 -0.12318,0.13349 -0.12938,0.13883 -0.006,0.005 -0.18293,0.26534 -0.21544,0.38669 -0.0325,0.12136 -0.0502,0.2357 -0.11522,0.54113 l -0.10844,0.5093 c -0.0959,0.45035 -0.11654,0.74642 -0.183,0.85945 0.0159,-0.027 0.0364,0.0156 -0.0454,0.0569 -0.0818,0.0413 -0.23525,0.0704 -0.40436,0.1801 -0.24121,0.15652 -0.39065,0.27894 -0.47009,0.33247 0.0971,-0.0104 -0.14655,-0.0645 -0.789,-0.20127 l 0.54899,-2.57833 c -0.0179,0.084 0.0139,-0.0644 0.0793,-0.21604 0.0327,-0.0758 0.10966,-0.15083 0.10639,-0.34337 -0.002,-0.0963 -0.0269,-0.23711 -0.12321,-0.35898 -0.0964,-0.12186 -0.24855,-0.18602 -0.35487,-0.20866 -0.1108,-0.0236 -0.29685,-0.0312 -0.44769,0.0711 -0.15085,0.10221 -0.21632,0.25941 -0.24049,0.34809 -0.0484,0.17736 -0.0336,0.22584 -0.0292,0.29326 0.001,0.0159 -0.008,0.0182 -0.007,0.0318 -0.0819,0.0715 -0.14818,0.16165 -0.16799,0.16387 -0.13028,0.0147 -0.43415,-0.12571 -0.8845,-0.2216 l -3.08763,-0.65744 -1.5279,-0.32533 c -0.23384,-0.0498 -0.41244,-0.0394 -0.55469,-0.0516 0.0212,-0.0887 0.0633,-0.16171 0.0292,-0.29326 -0.0725,-0.27939 -0.23325,-0.43774 -0.31891,-0.53374 -0.0714,-0.08 -0.0832,-0.0954 -0.0819,-0.084 -0.0169,0.0514 0.0238,0.0336 0.007,-0.0318 0.0205,-0.055 0.0618,-0.13404 0.0928,-0.2797 l 0.11522,-0.54113 c 0.0277,-0.0896 0.0796,-0.18474 0.0861,-0.24788 0.0128,-0.12627 0.0135,-0.21978 0.0156,-0.22959 l 0.10844,-0.5093 -1.0186,-0.21689 -0.10844,0.5093 -0.0678,0.31831 c -0.0205,0.0116 0.007,0.005 -0.0386,0.0251 -0.11735,0.0528 -0.32868,0.13189 -0.5087,0.35752 -0.17894,0.22427 -0.15034,0.42441 -0.14705,0.53436 -0.009,0.004 0.001,0.0149 -0.0772,0.0501 -0.11734,0.0528 -0.32867,0.13189 -0.50869,0.35752 -0.0848,0.10623 -0.076,0.19002 -0.0928,0.27971 -0.13486,-0.0469 -0.29374,-0.1291 -0.52758,-0.17889 l -1.05043,-0.22366 -2.89664,-0.61677 c 0.28876,-0.14369 0.58975,-0.24831 0.93339,-0.63312 0.69842,-0.78209 1.13097,-1.66142 1.63803,-2.37972 0.28801,-0.408 0.3337,-0.4608 0.42204,-0.57562 0.0765,-0.0244 0.17115,-0.028 0.21132,-0.0548 0.0669,-0.0447 0.14155,-0.10233 0.19982,-0.1571 0.23307,-0.21906 0.57975,-0.60994 1.23694,-1.43362 0.89571,-1.12264 0.94346,-1.61804 1.1694,-2.67915 -0.007,0.0343 0.0189,-0.0471 0.0725,-0.18421 0.0536,-0.1371 0.13267,-0.42966 -0.0487,-0.70912 -0.18134,-0.27945 -0.51256,-0.33325 -0.65963,-0.3401 z m -0.41465,1.00977 c 0.0167,0.004 0.0163,0.004 0.0318,0.007 -0.238,1.1178 -0.14823,1.21259 -0.97901,2.25385 -0.53795,0.67423 -0.75864,0.91613 -0.93279,1.09909 -0.0332,-10e-4 -0.071,-0.0234 -0.0955,-0.0203 -0.0409,0.005 -0.0809,0.034 -0.10905,0.0433 -0.0563,0.0187 -0.0813,0.026 -0.10905,0.0433 -0.0555,0.0346 -0.0916,0.0521 -0.11582,0.0752 -0.19412,0.18475 -0.31147,0.38935 -0.74652,1.00565 -0.58199,0.82445 -0.96957,1.70995 -1.52899,2.33639 -0.18364,0.20564 -0.67585,0.32363 -1.1901,0.74483 -0.1171,0.0959 -0.18722,0.17145 -0.29059,0.27086 l -1.97354,-0.42021 c -0.49948,-0.10635 -0.91735,-0.11511 -1.15948,-0.18034 -0.22203,-0.0598 -0.28297,-0.0802 -0.35958,-0.34276 0.0169,-0.0514 0.0652,-0.14986 0.0996,-0.31153 0.042,-0.19745 0.0534,-0.24619 0.0678,-0.31831 0.0522,-0.0436 0.11148,-0.0749 0.16121,-0.13205 0.1433,-0.16475 0.29585,-0.42194 0.5467,-0.84855 0.13209,-0.22477 0.0999,-0.35305 0.0949,-0.44564 0.26208,-0.22768 0.67077,-0.40784 1.11288,-0.69472 0.60167,-0.39043 1.2584,-0.7437 1.89183,-1.22762 0.38363,-0.29309 0.93018,-0.82956 1.51665,-1.34079 0.58646,-0.51124 1.20895,-1.01457 1.57824,-1.1613 0.95271,-0.37855 1.38041,-0.52459 1.58357,-0.56123 0.20317,-0.0366 0.3147,4.6e-4 0.90483,0.12612 z"
             style="font-size:medium;font-style:normal;font-variant:normal;font-weight:normal;font-stretch:normal;text-indent:0;text-align:start;text-decoration:none;line-height:normal;letter-spacing:normal;word-spacing:normal;text-transform:none;direction:ltr;block-progression:tb;writing-mode:lr-tb;text-anchor:start;color:#000000;fill:#ef2929;fill-opacity:1;stroke:none;stroke-width:1px;marker:none;visibility:visible;display:inline;overflow:visible;enable-background:accumulate;font-family:Bitstream Vera Sans;-inkscape-font-specification:Bitstream Vera Sans" />
          <path
             id="path3058"
             d="m -163.31753,-344.91549 c -0.13711,-0.0537 -0.42967,-0.13268 -0.70913,0.0487 -0.14143,0.0918 -0.1685,0.23193 -0.20865,0.35487 -0.12864,-0.0134 -0.26765,-0.0458 -0.40909,0.046 -0.14537,0.0943 -0.20164,0.22319 -0.24049,0.34809 l -0.5093,-0.10845 -3.08763,-0.65743 -0.5093,-0.10845 c -0.14566,-0.031 -0.23471,-0.0254 -0.29326,-0.0292 0.0925,0.0738 0.0119,0.045 -0.0433,-0.10905 -0.0276,-0.077 -0.0521,-0.17435 -0.13676,-0.29532 -0.0847,-0.12097 -0.25913,-0.28809 -0.46186,-0.33126 -0.10632,-0.0226 -0.27821,0.006 -0.41586,0.0778 -0.13765,0.072 -0.21805,0.1904 -0.25877,0.27765 -0.0814,0.17451 -0.0735,0.26757 -0.0746,0.35014 -0.002,0.16515 -0.002,0.3204 0.0162,0.23638 -0.0649,0.30479 -0.0986,0.43199 -0.0881,0.4138 0.009,-0.0152 -0.0464,0.0353 -0.2181,0.0867 -0.0514,-0.0169 -0.14987,-0.0652 -0.31153,-0.0996 l -1.0186,-0.21688 -1.40057,-0.29822 c -0.0306,-0.0211 -0.055,-0.0714 -0.0819,-0.084 -0.17451,-0.0814 -0.26757,-0.0735 -0.35015,-0.0745 -0.16515,-0.002 -0.32039,-0.002 -0.23637,0.0162 l -0.5093,-0.10844 -3.59693,-0.76588 c -0.0167,-0.004 -0.0163,-0.004 -0.0318,-0.007 0.0285,-0.0813 0.0615,-0.15336 0.0861,-0.24787 0.0337,-0.12956 0.10684,-0.28364 0.0448,-0.52286 -0.0725,-0.27939 -0.24003,-0.40591 -0.3257,-0.50191 -0.0286,-0.032 -0.011,-0.02 -0.0251,-0.0386 0.0316,-0.0598 0.0715,-0.12986 0.0996,-0.31154 0.014,-0.0908 0.0115,-0.22923 -0.0846,-0.38403 -0.0961,-0.1548 -0.26234,-0.25551 -0.37314,-0.2791 -0.1108,-0.0236 -0.30362,6.7e-4 -0.45447,0.10288 -0.15085,0.10221 -0.20954,0.22757 -0.23371,0.31625 -0.0391,0.14326 0.003,0.20902 0.009,0.26821 -0.005,0.0129 -0.008,0.0491 -0.0136,0.0637 -0.0812,0.0733 -0.17471,0.15059 -0.27026,0.17538 -0.0988,0.0256 -0.086,0.005 -0.0386,0.0251 -0.0477,-0.10503 -0.11056,-0.40475 -0.42591,-0.65635 -0.18989,-0.1515 -0.4013,-0.16605 -0.52758,-0.17888 -0.12628,-0.0128 -0.18116,-0.0386 -0.19099,-0.0407 l -1.05043,-0.22366 -0.21689,1.0186 1.05044,0.22366 c 0.14566,0.031 0.2347,0.0255 0.29325,0.0292 0.0304,0.0242 0.063,0.11725 0.21871,0.37931 0.0779,0.13103 0.21757,0.33199 0.44152,0.42675 0.22396,0.0948 0.46067,0.076 0.69557,0.015 0.13673,-0.0355 0.22588,-0.15905 0.34748,-0.22548 0.014,0.0186 0.0217,0.035 0.025,0.0386 -0.0164,0.0629 -0.0557,0.17501 -0.0928,0.2797 -0.0371,0.1047 -0.0753,0.21759 -0.10639,0.34337 -0.0311,0.12577 -0.12956,0.26538 0.0758,0.58179 0.18134,0.27947 0.51256,0.33325 0.65962,0.3401 0.14707,0.007 0.23207,0.0161 0.19777,0.009 l 3.59693,0.76588 0.35014,0.0745 c 0.0852,0.0501 0.17411,0.0884 0.27293,0.12466 0.0988,0.0363 0.19933,0.0625 0.35014,0.0746 0.0503,0.004 0.13126,-0.0103 0.20455,-0.023 l 1.40057,0.29822 1.0186,0.21688 c 0.01,0.002 0.0637,0.0328 0.18421,0.0725 0.12055,0.0397 0.32634,0.0807 0.56146,0.0197 0.40234,-0.10439 0.74673,-0.27025 0.91984,-0.56946 0.0601,-0.10387 0.0293,-0.16678 0.0542,-0.25465 0.12039,0.0502 0.26192,0.0981 0.34337,0.10639 0.12627,0.0128 0.21299,0.0454 0.22282,0.0474 l 0.5093,0.10845 3.08763,0.65743 0.5093,0.10845 c -0.0343,-0.007 0.0471,0.0188 0.18421,0.0725 0.1371,0.0537 0.42966,0.13268 0.70912,-0.0487 0.14537,-0.0943 0.20164,-0.22319 0.24049,-0.34809 0.12535,0.009 0.24388,0.0338 0.37725,-0.0528 0.13414,-0.087 0.16634,-0.23609 0.20866,-0.35486 0.0169,0.004 0.0133,0.003 0.0318,0.007 l 1.05043,0.22367 0.21689,-1.0186 -1.05044,-0.22367 c 0.0343,0.007 -0.0471,-0.0188 -0.18421,-0.0725 z"
             style="font-size:medium;font-style:normal;font-variant:normal;font-weight:normal;font-stretch:normal;text-indent:0;text-align:start;text-decoration:none;line-height:normal;letter-spacing:normal;word-spacing:normal;text-transform:none;direction:ltr;block-progression:tb;writing-mode:lr-tb;text-anchor:start;color:#000000;fill:#ef2929;fill-opacity:1;stroke:none;stroke-width:1px;marker:none;visibility:visible;display:inline;overflow:visible;enable-background:accumulate;font-family:Bitstream Vera Sans;-inkscape-font-specification:Bitstream Vera Sans" />
          <path
             id="path3060"
             d="m -151.78869,-341.39593 c -0.0717,-8.9e-4 -0.0537,0.0122 -0.10227,0.0115 -0.0148,-2e-4 -0.0214,-0.007 -0.0318,-0.007 -0.0199,-0.008 -0.0574,-0.0111 -0.0955,-0.0203 -0.0254,-0.006 -0.0455,-0.018 -0.0955,-0.0203 -0.025,-10e-4 -0.0649,0.007 -0.10227,0.0115 l -1.36875,-0.29144 -0.21688,1.0186 1.5279,0.32533 c 0.27035,0.2673 0.54469,0.52323 0.78961,0.66724 0.0837,0.0492 0.19444,0.12519 0.36164,0.17683 0.16719,0.0516 0.46372,0.0831 0.7159,-0.0805 0.13337,-0.0865 0.15936,-0.20474 0.20188,-0.32303 0.0153,0.004 0.0151,0.003 0.0318,0.007 l 0.5093,0.10845 0.21688,-1.0186 -0.5093,-0.10845 c 0.0343,0.007 -0.0722,-0.0575 -0.20926,-0.1111 -0.1371,-0.0537 -0.42967,-0.13268 -0.70912,0.0487 -0.12414,0.0806 -0.15724,0.21096 -0.20188,0.32304 -0.0249,-0.0152 -0.033,-0.0304 -0.0569,-0.0454 0.0101,-0.1009 0.0317,-0.22508 -0.0277,-0.33865 -0.072,-0.13765 -0.19039,-0.21805 -0.27765,-0.25876 -0.1745,-0.0814 -0.26756,-0.0735 -0.35014,-0.0746 z"
             style="font-size:medium;font-style:normal;font-variant:normal;font-weight:normal;font-stretch:normal;text-indent:0;text-align:start;text-decoration:none;line-height:normal;letter-spacing:normal;word-spacing:normal;text-transform:none;direction:ltr;block-progression:tb;writing-mode:lr-tb;text-anchor:start;color:#000000;fill:#ef2929;fill-opacity:1;stroke:none;stroke-width:1px;marker:none;visibility:visible;display:inline;overflow:visible;enable-background:accumulate;font-family:Bitstream Vera Sans;-inkscape-font-specification:Bitstream Vera Sans" />
          <path
             style="fill:#a40000;fill-opacity:1;stroke:none"
             d="M -156 37.09375 C -172.87623 37.09375 -186.5625 50.748774 -186.5625 67.625 C -186.5625 84.501226 -172.87623 98.18751 -156 98.1875 C -139.12377 98.187502 -125.4375 84.501216 -125.4375 67.625 C -125.4375 50.748774 -139.12377 37.093752 -156 37.09375 z M -156 39.59375 C -140.93922 39.593746 -128.65665 51.476145 -128 66.375 L -184 66.375 C -183.34335 51.476157 -171.06077 39.593752 -156 39.59375 z M -158.59375 46.15625 C -158.73326 46.179084 -158.81488 46.187691 -158.78125 46.1875 C -159.33854 46.187497 -159.64324 46.153827 -160.03125 46.3125 C -160.41925 46.471201 -160.75339 46.741838 -161.5625 47.28125 C -162.11974 47.652739 -162.62561 48.282764 -163.09375 48.90625 C -163.56189 49.529747 -163.9799 50.16405 -164.1875 50.40625 C -164.61907 50.909756 -165.16435 51.351848 -165.6875 51.875 C -165.978 52.165502 -166.41333 52.463754 -166.75 52.96875 C -166.92622 53.233044 -166.86536 53.489025 -166.84375 53.59375 C -166.83295 53.646113 -166.84421 53.6866 -166.84375 53.6875 C -166.9555 54.008652 -167.05235 54.237792 -167.09375 54.3125 C -167.11751 54.355357 -167.14462 54.364125 -167.125 54.34375 C -167.16044 54.365433 -167.18419 54.369145 -167.21875 54.40625 C -167.39945 54.600577 -167.34188 54.726209 -167.34375 54.78125 C -167.3475 54.891346 -167.34379 55.001491 -167.34375 55.28125 C -167.34363 55.291042 -167.36181 55.347633 -167.375 55.46875 C -167.38818 55.589905 -167.41679 55.79136 -167.3125 56 C -167.03271 56.559598 -166.48348 56.819601 -166.03125 56.84375 C -165.57902 56.867888 -165.1922 56.781253 -164.84375 56.78125 L -163.59375 56.78125 C -163.63222 56.836173 -163.67851 56.918448 -163.71875 56.96875 C -164.24276 57.623767 -164.40848 57.768548 -164.6875 57.9375 C -164.96653 58.106454 -165.40049 58.301641 -166.15625 58.90625 C -166.42303 59.119671 -166.58152 59.386618 -166.71875 59.5625 C -166.85599 59.738375 -166.94817 59.81052 -167.03125 59.84375 C -167.2703 59.939416 -167.74612 59.812494 -168.375 59.8125 L -171.40625 59.8125 L -171.40625 60.8125 L -168.375 60.8125 C -167.99372 60.812506 -167.35509 61.06079 -166.65625 60.78125 C -166.29718 60.637645 -166.10185 60.366868 -165.9375 60.15625 C -165.77315 59.945632 -165.63631 59.771552 -165.53125 59.6875 C -164.82858 59.125366 -164.53556 59.023258 -164.1875 58.8125 C -163.83943 58.60174 -163.4975 58.293747 -162.9375 57.59375 C -162.70225 57.299697 -162.54399 57.060547 -162.375 56.78125 L -158.78125 56.78125 L -157.75 56.78125 C -157.65614 56.781292 -157.48881 56.821157 -157.28125 56.84375 C -157.0737 56.866315 -156.81516 56.860746 -156.53125 56.71875 C -156.33832 56.6223 -156.19206 56.369936 -156.1875 56.21875 C -156.18385 56.096649 -156.23333 56.023987 -156.25 55.96875 C -156.23501 55.955249 -156.23728 55.973918 -156.1875 55.9375 C -156.13765 55.900968 -156.0731 55.78669 -156 55.71875 C -155.9241 55.790748 -155.83284 55.899683 -155.78125 55.9375 C -155.74297 55.965576 -155.76683 55.953779 -155.75 55.96875 C -155.76664 56.023835 -155.78488 56.097512 -155.78125 56.21875 C -155.77674 56.369931 -155.66165 56.622283 -155.46875 56.71875 C -155.18482 56.86071 -154.89506 56.866356 -154.6875 56.84375 C -154.47993 56.821152 -154.31257 56.781298 -154.21875 56.78125 L -152.71875 56.78125 L -149.6875 56.78125 C -149.48659 56.781275 -149.08284 56.834176 -148.65625 56.75 L -148.65625 58.3125 C -148.65653 58.278887 -148.66449 58.360493 -148.6875 58.5 C -148.71052 58.639497 -148.75741 58.930049 -148.53125 59.15625 C -148.30506 59.382436 -147.98323 59.366725 -147.84375 59.34375 C -147.70423 59.320914 -147.62263 59.312311 -147.65625 59.3125 C -147.06392 59.312501 -146.97807 59.411246 -146.59375 59.3125 C -146.40167 59.262765 -146.2511 59.129454 -146.15625 59.03125 C -146.06142 58.93301 -145.9576 58.832608 -145.78125 58.65625 C -145.74976 58.624804 -145.65431 58.56766 -145.53125 58.46875 C -145.40818 58.369896 -145.24105 58.19186 -145.15625 57.9375 C -144.9831 57.418058 -145.125 57.012558 -145.125 56.78125 L -145.125 56.28125 C -145.12499 56.012487 -145.12557 55.893645 -145.125 55.84375 C -145.08085 55.771224 -145.02373 55.705298 -144.96875 55.5625 C -144.85231 55.676426 -144.7478 55.773757 -144.53125 56.0625 C -144.41268 56.220553 -144.36445 56.64947 -144.03125 57.09375 C -143.68897 57.550125 -143.27214 57.852863 -142.96875 58.15625 C -142.66536 58.459637 -142.36263 58.876468 -141.90625 59.21875 C -141.30079 59.672837 -140.7564 59.793156 -140.28125 59.875 C -139.8061 59.956855 -139.37582 60.01304 -138.75 60.28125 C -138.31803 60.466379 -137.91242 60.890049 -137.3125 61.25 C -136.98594 61.445948 -136.6102 61.671598 -136.1875 61.8125 C -135.82778 61.932401 -135.5942 61.843753 -135.53125 61.84375 L -134.53125 61.84375 L -134.03125 61.84375 C -134.06486 61.844035 -133.98326 61.851985 -133.84375 61.875 C -133.70425 61.898017 -133.38243 61.913708 -133.15625 61.6875 C -132.93005 61.461309 -132.94577 61.139492 -132.96875 61 C -132.99159 60.860478 -133.03125 60.778827 -133.03125 60.8125 L -134.03125 60.8125 C -134.03167 60.828984 -134.03153 60.828593 -134.03125 60.84375 L -134.53125 60.84375 L -135.53125 60.84375 C -135.80502 60.843728 -135.9153 60.830242 -135.875 60.84375 C -136.16659 60.746559 -136.46221 60.597674 -136.78125 60.40625 C -137.22237 60.141576 -137.69109 59.636858 -138.375 59.34375 C -139.12086 59.024103 -139.66689 58.979783 -140.09375 58.90625 C -140.52062 58.832719 -140.83677 58.763055 -141.3125 58.40625 C -141.61802 58.177104 -141.87993 57.807555 -142.25 57.4375 C -142.62005 57.067451 -142.98961 56.77427 -143.21875 56.46875 C -143.33732 56.310697 -143.38558 55.913036 -143.71875 55.46875 C -144.04678 55.03138 -144.30808 54.785726 -144.5 54.625 C -144.60777 54.534743 -144.59776 54.536613 -144.65625 54.5 C -144.65517 54.477387 -144.65726 54.404392 -144.65625 54.375 C -144.61894 54.225636 -144.62174 54.158516 -144.625 54.0625 C -144.62249 53.955329 -144.62536 53.928499 -144.625 53.78125 C -144.62235 53.761443 -144.62588 53.755096 -144.625 53.75 C -144.62706 53.731099 -144.62278 53.706663 -144.625 53.6875 C -144.62706 53.673213 -144.64795 53.6626 -144.65625 53.625 C -144.65832 53.615622 -144.65085 53.580494 -144.65625 53.5625 C -144.66201 53.54468 -144.68735 53.500262 -144.6875 53.5 C -144.68758 53.49985 -144.74989 53.375065 -144.75 53.375 C -144.75004 53.374959 -144.84375 53.3125 -144.84375 53.3125 C -144.84379 53.31248 -144.99996 53.218761 -145 53.21875 C -145.00003 53.218737 -145.24996 53.218742 -145.25 53.21875 L -145.4375 53.3125 C -145.43752 53.312525 -145.53123 53.406148 -145.53125 53.40625 C -145.53128 53.406286 -145.56243 53.468636 -145.5625 53.46875 C -145.56256 53.468862 -145.5937 53.562292 -145.59375 53.5625 C -145.59381 53.56268 -145.62217 53.581662 -145.625 53.59375 C -145.63063 53.61802 -145.6239 53.644824 -145.625 53.65625 C -145.62797 53.679169 -145.6244 53.708215 -145.625 53.71875 C -145.6264 53.73986 -145.6244 53.734361 -145.625 53.75 C -145.62478 53.783331 -145.6251 53.781597 -145.625 53.8125 C -145.62489 53.813459 -145.63176 53.812006 -145.625 53.84375 C -145.62396 53.862476 -145.62628 53.869806 -145.625 53.90625 C -145.62061 54.015416 -145.64376 54.200093 -145.625 54.125 C -145.62538 54.146286 -145.65563 54.167831 -145.65625 54.1875 C -145.7802 54.674603 -145.84698 55.026903 -145.90625 55.1875 C -145.96945 55.358771 -145.99525 55.337495 -146 55.34375 C -146.00464 55.349646 -146.11873 55.629532 -146.125 55.75 C -146.13125 55.870476 -146.12501 55.9814 -146.125 56.28125 L -146.125 56.78125 C -146.12501 57.223378 -146.08519 57.505557 -146.125 57.625 C -146.12544 57.637303 -146.12197 57.659927 -146.15625 57.6875 C -146.22481 57.742645 -146.36312 57.800657 -146.5 57.9375 C -146.69524 58.132733 -146.8111 58.277591 -146.875 58.34375 C -146.78589 58.314565 -147.02554 58.312477 -147.65625 58.3125 L -147.65625 55.78125 C -147.65626 55.863719 -147.6561 55.717992 -147.625 55.5625 C -147.60945 55.484773 -147.55218 55.398922 -147.59375 55.21875 C -147.61489 55.128709 -147.66643 55.001446 -147.78125 54.90625 C -147.89615 54.811081 -148.05187 54.781252 -148.15625 54.78125 C -148.26503 54.781243 -148.44129 54.81126 -148.5625 54.9375 C -148.68373 55.063657 -148.71378 55.224382 -148.71875 55.3125 C -148.72874 55.488748 -148.70511 55.531312 -148.6875 55.59375 C -148.68338 55.608483 -148.69116 55.612427 -148.6875 55.625 C -148.75012 55.708528 -148.79434 55.806454 -148.8125 55.8125 C -148.93191 55.852358 -149.24537 55.781249 -149.6875 55.78125 L -152.71875 55.78125 L -154.21875 55.78125 C -154.44832 55.781241 -154.61396 55.826762 -154.75 55.84375 C -154.74783 55.756207 -154.72292 55.679228 -154.78125 55.5625 C -154.90521 55.314606 -155.08785 55.19803 -155.1875 55.125 C -155.27055 55.064145 -155.28475 55.052054 -155.28125 55.0625 C -155.28684 55.114152 -155.25239 55.089312 -155.28125 55.03125 C -155.273 54.975497 -155.24999 54.892997 -155.25 54.75 L -155.25 54.21875 C -155.2419 54.129062 -155.21223 54.029348 -155.21875 53.96875 C -155.23198 53.847603 -155.25001 53.759633 -155.25 53.75 L -155.25 53.25 L -156.25 53.25 L -156.25 53.75 L -156.25 54.0625 C -156.26693 54.077494 -156.24244 54.065754 -156.28125 54.09375 C -156.3809 54.166804 -156.56355 54.283348 -156.6875 54.53125 C -156.81071 54.777658 -156.74383 54.959897 -156.71875 55.0625 C -156.7264 55.068056 -156.71485 55.076304 -156.78125 55.125 C -156.88089 55.198052 -157.06355 55.314598 -157.1875 55.5625 C -157.2459 55.679225 -157.22091 55.756157 -157.21875 55.84375 C -157.35478 55.826672 -157.52043 55.781249 -157.75 55.78125 L -158.78125 55.78125 L -161.625 55.78125 C -161.38254 55.588558 -161.12078 55.430117 -160.875 55 C -160.37547 54.125828 -160.14507 53.213497 -159.8125 52.4375 C -159.6236 51.996729 -159.59125 51.938 -159.53125 51.8125 C -159.46428 51.774287 -159.37612 51.751952 -159.34375 51.71875 C -159.28986 51.663391 -159.23127 51.59434 -159.1875 51.53125 C -159.01242 51.27891 -158.76499 50.842487 -158.3125 49.9375 C -157.69578 48.704044 -157.75 48.229234 -157.75 47.1875 C -157.74972 47.221113 -157.74167 47.139487 -157.71875 47 C -157.69583 46.860523 -157.68003 46.569939 -157.90625 46.34375 C -158.13244 46.117564 -158.45426 46.133273 -158.59375 46.15625 z M -159.375 47.1875 C -159.25161 47.181251 -159.07093 47.187497 -158.78125 47.1875 C -158.76477 47.187917 -158.76516 47.187782 -158.75 47.1875 C -158.74999 48.284887 -158.64674 48.355957 -159.21875 49.5 C -159.58914 50.240785 -159.74803 50.512096 -159.875 50.71875 C -159.90638 50.72445 -159.94636 50.710939 -159.96875 50.71875 C -160.00616 50.731625 -160.03792 50.766887 -160.0625 50.78125 C -160.11164 50.810071 -160.13365 50.821953 -160.15625 50.84375 C -160.20145 50.887343 -160.23187 50.910962 -160.25 50.9375 C -160.39537 51.149828 -160.46466 51.365448 -160.75 52.03125 C -161.13172 52.921922 -161.31863 53.831054 -161.71875 54.53125 C -161.8501 54.761102 -162.28876 54.97034 -162.6875 55.46875 C -162.7783 55.582232 -162.82905 55.667217 -162.90625 55.78125 L -164.84375 55.78125 C -165.33411 55.781252 -165.72831 55.856592 -165.96875 55.84375 C -166.18923 55.831988 -166.25055 55.825016 -166.375 55.59375 C -166.36941 55.542098 -166.34373 55.439963 -166.34375 55.28125 C -166.34379 55.087414 -166.34285 55.039362 -166.34375 54.96875 C -166.30344 54.917364 -166.25403 54.876118 -166.21875 54.8125 C -166.11711 54.629117 -166.02528 54.357068 -165.875 53.90625 C -165.79589 53.668741 -165.85179 53.554707 -165.875 53.46875 C -165.67439 53.202513 -165.32659 52.951586 -164.96875 52.59375 C -164.48176 52.106757 -163.93562 51.643647 -163.4375 51.0625 C -163.13582 50.710526 -162.72981 50.097404 -162.28125 49.5 C -161.8327 48.902588 -161.34873 48.305401 -161.03125 48.09375 C -160.2122 47.547716 -159.83972 47.325037 -159.65625 47.25 C -159.5645 47.212499 -159.49839 47.193749 -159.375 47.1875 z M -183.9375 69.90625 L -128.0625 69.90625 C -129.2226 84.321577 -141.28596 95.656259 -156 95.65625 C -170.71405 95.656253 -182.7774 84.321579 -183.9375 69.90625 z M -153.21875 75.4375 C -153.3371 75.458984 -153.44941 75.511886 -153.5625 75.625 C -153.67697 75.739497 -153.67438 75.876511 -153.6875 76 C -153.81099 76.01314 -153.94802 76.010501 -154.0625 76.125 C -154.18017 76.242633 -154.20724 76.37493 -154.21875 76.5 L -154.71875 76.5 L -157.75 76.5 L -158.25 76.5 C -158.393 76.500014 -158.4755 76.52311 -158.53125 76.53125 C -158.55221 76.512102 -158.564 76.48561 -158.59375 76.4375 C -158.63507 76.370704 -158.67755 76.284181 -158.78125 76.1875 C -158.88499 76.090827 -159.08222 75.968753 -159.28125 75.96875 C -159.38562 75.968786 -159.54133 76.030042 -159.65625 76.125 C -159.77113 76.220146 -159.82295 76.347415 -159.84375 76.4375 C -159.8853 76.617671 -159.85923 76.703484 -159.84375 76.78125 C -159.8126 76.936752 -159.78154 77.082548 -159.78125 77 C -159.78125 77.299225 -159.78747 77.425433 -159.78125 77.40625 C -159.77584 77.390175 -159.81777 77.448642 -159.96875 77.53125 C -160.0204 77.525657 -160.12255 77.49998 -160.28125 77.5 L -161.28125 77.5 L -162.65625 77.5 C -162.68921 77.486303 -162.72222 77.443954 -162.75 77.4375 C -162.93017 77.395949 -163.01599 77.421926 -163.09375 77.4375 C -163.24925 77.468647 -163.39505 77.499709 -163.3125 77.5 L -163.8125 77.5 L -167.34375 77.5 C -167.36023 77.499583 -167.35984 77.499718 -167.375 77.5 C -167.36449 77.417947 -167.34795 77.343679 -167.34375 77.25 C -167.33801 77.121583 -167.30015 76.96226 -167.40625 76.75 C -167.53021 76.502106 -167.71284 76.416778 -167.8125 76.34375 C -167.84576 76.319416 -167.82679 76.327149 -167.84375 76.3125 C -167.82603 76.250019 -167.80256 76.176246 -167.8125 76 C -167.81751 75.911925 -167.84754 75.782415 -167.96875 75.65625 C -168.08996 75.530085 -168.26622 75.468748 -168.375 75.46875 C -168.48378 75.468743 -168.66002 75.530093 -168.78125 75.65625 C -168.90248 75.782407 -168.93253 75.911882 -168.9375 76 C -168.94557 76.142363 -168.89247 76.195611 -168.875 76.25 C -168.87712 76.263115 -168.87266 76.297668 -168.875 76.3125 C -168.9366 76.397578 -169.00897 76.488861 -169.09375 76.53125 C -169.1069 76.53782 -169.11596 76.527309 -169.125 76.53125 C -169.19257 76.432067 -169.32404 76.197349 -169.65625 76.03125 C -169.86488 75.92694 -170.06634 75.955547 -170.1875 75.96875 C -170.30866 75.981981 -170.36535 75.968757 -170.375 75.96875 L -171.40625 75.96875 L -171.40625 76.96875 L -170.375 76.96875 C -170.232 76.968736 -170.14948 76.945733 -170.09375 76.9375 C -170.06036 76.954149 -170.01114 77.035021 -169.8125 77.25 C -169.71314 77.35748 -169.54177 77.518289 -169.3125 77.5625 C -169.08321 77.606747 -168.86466 77.541762 -168.65625 77.4375 C -168.53494 77.376818 -168.47592 77.242955 -168.375 77.15625 C -168.35813 77.170919 -168.34757 77.184779 -168.34375 77.1875 C -168.34657 77.249853 -168.36109 77.36301 -168.375 77.46875 C -168.38891 77.574499 -168.4022 77.688155 -168.40625 77.8125 C -168.41031 77.936837 -168.47489 78.087656 -168.21875 78.34375 C -167.99256 78.569954 -167.67073 78.554225 -167.53125 78.53125 C -167.39173 78.508414 -167.31012 78.499809 -167.34375 78.5 L -163.8125 78.5 L -163.46875 78.5 C -163.37871 78.530014 -163.28756 78.548207 -163.1875 78.5625 C -163.08745 78.576834 -162.9878 78.581294 -162.84375 78.5625 C -162.79571 78.556198 -162.72254 78.526583 -162.65625 78.5 L -161.28125 78.5 L -160.28125 78.5 C -160.27146 78.499879 -160.21487 78.518064 -160.09375 78.53125 C -159.9726 78.544428 -159.77112 78.541806 -159.5625 78.4375 C -159.20551 78.259004 -158.91524 78.034373 -158.8125 77.71875 C -158.77683 77.609181 -158.81831 77.556253 -158.8125 77.46875 C -158.6894 77.491821 -158.5469 77.508502 -158.46875 77.5 C -158.3476 77.486771 -158.25963 77.500087 -158.25 77.5 L -157.75 77.5 L -154.71875 77.5 L -154.21875 77.5 C -154.25236 77.500285 -154.17076 77.508235 -154.03125 77.53125 C -153.89175 77.554267 -153.60119 77.569979 -153.375 77.34375 C -153.25733 77.226117 -153.23026 77.09382 -153.21875 76.96875 C -153.09923 76.952136 -152.98294 76.951752 -152.875 76.84375 C -152.76642 76.735219 -152.76599 76.588757 -152.75 76.46875 C -152.73333 76.469127 -152.73692 76.468693 -152.71875 76.46875 L -151.6875 76.46875 L -151.6875 75.46875 L -152.71875 75.46875 C -152.68514 75.468465 -152.76674 75.460515 -152.90625 75.4375 C -152.976 75.425993 -153.1004 75.416016 -153.21875 75.4375 z M -141.25 76.40625 C -141.3037 76.409498 -141.33611 76.42976 -141.375 76.4375 C -141.44252 76.451002 -141.42299 76.459695 -141.46875 76.46875 C -141.48269 76.471522 -141.49023 76.46667 -141.5 76.46875 C -141.52029 76.465216 -141.55613 76.469771 -141.59375 76.46875 C -141.6188 76.468194 -141.64008 76.460911 -141.6875 76.46875 C -141.71118 76.47281 -141.74705 76.488301 -141.78125 76.5 L -143.125 76.5 L -143.125 77.5 L -141.625 77.5 C -141.31765 77.696975 -141.00882 77.882478 -140.75 77.96875 C -140.66155 77.998219 -140.54235 78.047437 -140.375 78.0625 C -140.20766 78.077527 -139.92287 78.047826 -139.71875 77.84375 C -139.61079 77.735842 -139.61003 77.619596 -139.59375 77.5 C -139.57858 77.500697 -139.57898 77.499583 -139.5625 77.5 L -139.0625 77.5 L -139.0625 76.5 L -139.5625 76.5 C -139.52889 76.499715 -139.64181 76.460431 -139.78125 76.4375 C -139.92075 76.414483 -140.21132 76.398773 -140.4375 76.625 C -140.53797 76.725521 -140.54299 76.854562 -140.5625 76.96875 C -140.58892 76.959454 -140.59955 76.946808 -140.625 76.9375 C -140.63569 76.840719 -140.64025 76.719782 -140.71875 76.625 C -140.8139 76.510122 -140.94116 76.458284 -141.03125 76.4375 C -141.12133 76.416724 -141.1963 76.403002 -141.25 76.40625 z "
             transform="matrix(1.0185998,0.21688607,-0.21688607,1.0185998,143.40635,-359.93047)"
             id="path4489" />
          <path
             id="path5219"
             d="m 225.82014,-334.06861 c -17.19012,-3.66022 -34.09254,7.28043 -37.75276,24.47055 -3.66022,17.19012 7.31225,34.09932 24.50238,37.75953 17.19012,3.66022 34.09932,-7.31226 37.75954,-24.50237 3.66022,-17.19012 -7.31903,-34.06749 -24.50916,-37.72771 z m -0.54221,2.5465 c 15.3409,3.26647 25.27481,18.0338 22.71231,33.35219 l -57.04159,-12.14562 c 3.90022,-15.03354 18.98838,-24.47304 34.32928,-21.20657 z m -4.06531,6.12201 c -0.14706,-0.007 -0.23206,-0.0159 -0.19777,-0.009 -0.56765,-0.12087 -0.87072,-0.22125 -1.30036,-0.14378 -0.42963,0.0775 -0.82869,0.2807 -1.76984,0.65466 -0.64817,0.25754 -1.30009,0.78957 -1.91217,1.32312 -0.61207,0.53356 -1.17543,1.089 -1.43942,1.29068 -0.5488,0.41927 -1.20011,0.75132 -1.84645,1.17074 -0.35891,0.2329 -0.86702,0.44228 -1.31948,0.88365 -0.23682,0.23099 -0.23035,0.50493 -0.23105,0.61629 -3.6e-4,0.0557 -0.0206,0.0945 -0.0203,0.0955 -0.18348,0.30289 -0.33183,0.51529 -0.3902,0.58241 -0.0335,0.0385 -0.063,0.0416 -0.0386,0.0251 -0.0408,0.0144 -0.0658,0.013 -0.10905,0.0433 -0.22621,0.15875 -0.19482,0.29921 -0.20866,0.35486 -0.0277,0.11133 -0.0478,0.22433 -0.10844,0.5093 -0.002,0.01 -0.0328,0.0637 -0.0725,0.18421 -0.0397,0.12055 -0.11254,0.31955 -0.0516,0.55469 0.16362,0.63069 0.66668,1.01465 1.12208,1.13733 0.45541,0.12267 0.86821,0.11832 1.22314,0.19389 l 1.27325,0.27111 c -0.0511,0.0476 -0.11609,0.12136 -0.16799,0.16387 -0.67582,0.55355 -0.87602,0.66508 -1.19688,0.77666 -0.32086,0.11158 -0.80522,0.21628 -1.70617,0.66822 -0.31803,0.15953 -0.53737,0.39707 -0.7153,0.54646 -0.17793,0.14938 -0.28748,0.20287 -0.37931,0.2187 -0.26424,0.0456 -0.72139,-0.18688 -1.36196,-0.32327 l -3.08763,-0.65744 -0.21689,1.0186 3.08763,0.65744 c 0.38837,0.0827 0.98503,0.47411 1.7575,0.34094 0.39689,-0.0684 0.65458,-0.30185 0.86767,-0.48074 0.21309,-0.17889 0.39023,-0.32653 0.51547,-0.38935 0.83766,-0.42019 1.15827,-0.46065 1.55852,-0.59984 0.40025,-0.13919 0.81534,-0.37875 1.53758,-0.97031 0.3034,-0.2485 0.51647,-0.45777 0.74918,-0.70561 l 3.66059,0.77943 1.05044,0.22366 c 0.0956,0.0204 0.25739,0.0973 0.46391,0.16533 0.20651,0.068 0.47107,0.1184 0.79106,0.0353 0.21744,-0.0564 0.42115,-0.28173 0.45859,-0.43474 0.0302,-0.12358 -0.004,-0.20833 -0.009,-0.26821 0.0182,-0.0105 0.0118,0.008 0.0704,-0.0183 0.0587,-0.0264 0.14923,-0.12881 0.23843,-0.18216 0.0617,0.0898 0.13102,0.22056 0.17537,0.27027 0.0329,0.0369 0.0112,0.0197 0.025,0.0386 -0.0289,0.0525 -0.0635,0.1236 -0.0861,0.24788 -0.0282,0.15497 0.0343,0.43697 0.20987,0.57707 0.25842,0.20618 0.55235,0.27478 0.76867,0.29677 0.21633,0.022 0.39545,0.0177 0.49102,0.038 l 1.5279,0.32533 3.08764,0.65744 c 0.20464,0.0436 0.60442,0.18505 1.0572,0.19183 l -0.33888,1.59156 c 0.007,-0.0343 -0.0188,0.0471 -0.0725,0.18421 -0.0537,0.1371 -0.16448,0.42289 0.0168,0.70235 0.18134,0.27945 0.51256,0.33325 0.65962,0.34009 0.14707,0.007 0.23205,0.0159 0.19777,0.009 0.60334,0.12847 0.66937,0.24767 1.08226,0.23044 0.20644,-0.009 0.38872,-0.11213 0.50664,-0.19159 0.1179,-0.0795 0.24542,-0.15926 0.4633,-0.30065 0.0389,-0.0252 0.14852,-0.0627 0.29532,-0.13676 0.1468,-0.074 0.35565,-0.2191 0.49719,-0.4598 0.28903,-0.49155 0.23244,-0.93537 0.28261,-1.17098 l 0.10844,-0.5093 c 0.0583,-0.27376 0.0835,-0.39494 0.0949,-0.44564 0.0607,-0.0643 0.13318,-0.11906 0.22016,-0.25259 0.0939,0.1413 0.17924,0.26311 0.33719,0.60419 0.0865,0.18671 0.0426,0.63406 0.28564,1.15887 0.24966,0.5391 0.60859,0.93788 0.85182,1.31271 0.24323,0.37483 0.46119,0.86507 0.85182,1.3127 0.51824,0.59385 1.04666,0.83448 1.51289,1.0209 0.46624,0.18643 0.89234,0.33698 1.47162,0.74591 0.39986,0.28226 0.72112,0.80178 1.25413,1.29854 0.29014,0.27042 0.62393,0.58176 1.02393,0.81696 0.34041,0.20015 0.59756,0.16051 0.66168,0.17416 l 1.0186,0.21689 0.5093,0.10844 c -0.0343,-0.007 0.0471,0.0188 0.18421,0.0725 0.1371,0.0537 0.4615,0.13948 0.74095,-0.0419 0.27947,-0.18134 0.33325,-0.51255 0.3401,-0.65962 0.007,-0.14707 -0.0157,-0.23884 -0.023,-0.20454 l -1.0186,-0.21689 c -0.004,0.0167 -0.004,0.0163 -0.007,0.0318 l -0.5093,-0.10844 -1.0186,-0.21689 c -0.27886,-0.0594 -0.38827,-0.0971 -0.35015,-0.0745 -0.27593,-0.16224 -0.54476,-0.37801 -0.82821,-0.64219 -0.39192,-0.36527 -0.7599,-0.98104 -1.39296,-1.42793 -0.6904,-0.48735 -1.23698,-0.65093 -1.65583,-0.81841 -0.41886,-0.16748 -0.72578,-0.30701 -1.13297,-0.77363 -0.26151,-0.29967 -0.44814,-0.73289 -0.74483,-1.1901 -0.29668,-0.45719 -0.60952,-0.83597 -0.77666,-1.19687 -0.0865,-0.18671 -0.0494,-0.60224 -0.29242,-1.12705 -0.23927,-0.51665 -0.45215,-0.82354 -0.61278,-1.02888 -0.0902,-0.11531 -0.0804,-0.11123 -0.13204,-0.16121 0.006,-0.0228 0.0197,-0.0976 0.0271,-0.12733 0.0704,-0.14405 0.0821,-0.21303 0.0996,-0.31153 0.0258,-0.10862 0.0287,-0.13658 0.061,-0.28649 0.007,-0.0196 0.005,-0.0268 0.007,-0.0318 0.002,-0.0197 0.0117,-0.0437 0.0136,-0.0637 0.001,-0.015 -0.018,-0.0303 -0.0183,-0.0704 -8e-5,-0.01 0.0152,-0.0442 0.0136,-0.0637 -0.002,-0.0194 -0.0182,-0.0701 -0.0183,-0.0704 -5e-5,-1.7e-4 -0.0365,-0.14079 -0.0366,-0.14088 -4e-5,-5e-5 -0.0819,-0.084 -0.0819,-0.084 -4e-5,-3e-5 -0.13879,-0.12936 -0.13883,-0.12938 -3e-5,-2e-5 -0.25461,-0.0542 -0.25465,-0.0542 l -0.21132,0.0548 c -2e-5,2e-5 -0.11578,0.0751 -0.11582,0.0752 -4e-5,3e-5 -0.0453,0.0568 -0.0454,0.0569 -9e-5,1e-4 -0.0521,0.0885 -0.0522,0.0887 -1.1e-4,1.7e-4 -0.0331,0.0134 -0.0386,0.025 -0.011,0.0235 -0.01,0.0523 -0.0136,0.0637 -0.008,0.0227 -0.0107,0.0531 -0.0136,0.0637 -0.006,0.0212 -0.003,0.016 -0.007,0.0318 -0.007,0.034 -0.007,0.0322 -0.0135,0.0637 -10e-5,10e-4 -0.007,-0.002 -0.007,0.0318 -0.003,0.0193 -0.007,0.0263 -0.0136,0.0637 -0.0192,0.11215 -0.0828,0.29524 -0.0474,0.22282 -0.005,0.0216 -0.0405,0.037 -0.0454,0.0569 -0.23191,0.46928 -0.37634,0.81365 -0.47154,0.96438 -0.10152,0.16074 -0.12319,0.13348 -0.12938,0.13882 -0.006,0.005 -0.18292,0.26535 -0.21544,0.38669 -0.0325,0.12137 -0.0502,0.23571 -0.11522,0.54114 l -0.10844,0.5093 c -0.0959,0.45034 -0.11654,0.74641 -0.183,0.85944 -0.003,0.0124 -0.004,0.0362 -0.0454,0.0569 -0.0818,0.0413 -0.23526,0.0704 -0.40436,0.1801 -0.24122,0.15652 -0.39065,0.27894 -0.47009,0.33247 0.0971,-0.0104 -0.14656,-0.0645 -0.789,-0.20127 l 0.54899,-2.57833 c -0.0179,0.084 0.0139,-0.0644 0.0793,-0.21604 0.0327,-0.0758 0.10965,-0.15083 0.10639,-0.34337 -0.002,-0.0963 -0.0269,-0.23711 -0.12321,-0.35898 -0.0964,-0.12186 -0.24855,-0.18601 -0.35487,-0.20865 -0.1108,-0.0236 -0.29685,-0.0313 -0.44769,0.071 -0.15085,0.10221 -0.21632,0.25941 -0.24049,0.34809 -0.0484,0.17736 -0.0336,0.22584 -0.0292,0.29326 0.001,0.0159 -0.008,0.0182 -0.007,0.0318 -0.0819,0.0715 -0.14818,0.16166 -0.16799,0.16388 -0.13028,0.0147 -0.43415,-0.12572 -0.8845,-0.22161 l -3.08763,-0.65744 -1.5279,-0.32533 c -0.23384,-0.0498 -0.41243,-0.0394 -0.55469,-0.0516 0.0212,-0.0887 0.0633,-0.16171 0.0292,-0.29326 -0.0725,-0.27939 -0.23325,-0.43775 -0.31891,-0.53375 -0.0714,-0.08 -0.0832,-0.0954 -0.0819,-0.084 -0.0169,0.0514 0.0236,0.0336 0.007,-0.0318 0.0205,-0.055 0.0618,-0.13404 0.0928,-0.2797 l 0.11522,-0.54113 c 0.0277,-0.0896 0.0796,-0.18474 0.0861,-0.24787 0.0128,-0.12627 0.0135,-0.21979 0.0156,-0.2296 l 0.10844,-0.5093 -1.0186,-0.21689 -0.10844,0.5093 -0.0678,0.31832 c -0.0205,0.0116 0.007,0.005 -0.0386,0.025 -0.11735,0.0528 -0.32868,0.1319 -0.5087,0.35753 -0.17894,0.22427 -0.15034,0.4244 -0.14705,0.53435 -0.009,0.004 9.8e-4,0.0149 -0.0772,0.0501 -0.11734,0.0528 -0.32867,0.13189 -0.50869,0.35752 -0.0848,0.10623 -0.076,0.19002 -0.0928,0.27971 -0.13486,-0.0469 -0.29374,-0.1291 -0.52758,-0.17889 l -1.05043,-0.22366 -2.89664,-0.61677 c 0.28876,-0.14369 0.58975,-0.2483 0.93339,-0.63312 0.69842,-0.78209 1.13097,-1.66142 1.63803,-2.37972 0.28801,-0.408 0.3337,-0.4608 0.42204,-0.57562 0.0765,-0.0244 0.17114,-0.028 0.21132,-0.0548 0.0669,-0.0447 0.14155,-0.10233 0.19982,-0.1571 0.23306,-0.21906 0.57975,-0.60994 1.23694,-1.43362 0.89571,-1.12264 0.94346,-1.61804 1.1694,-2.67915 -0.007,0.0343 0.0189,-0.0471 0.0725,-0.18421 0.0536,-0.1371 0.13271,-0.42966 -0.0487,-0.70912 -0.18135,-0.27945 -0.51256,-0.33325 -0.65963,-0.3401 z m -1.01945,0.88099 c 0.12704,0.0204 0.30973,0.0659 0.6048,0.12878 0.0167,0.004 0.0163,0.004 0.0318,0.007 -0.238,1.1178 -0.14825,1.21258 -0.97902,2.25384 -0.53795,0.67423 -0.75864,0.91613 -0.93279,1.09909 -0.0332,-0.001 -0.071,-0.0234 -0.0955,-0.0203 -0.0409,0.005 -0.0809,0.034 -0.10905,0.0433 -0.0563,0.0187 -0.0813,0.026 -0.10905,0.0433 -0.0555,0.0346 -0.0916,0.0521 -0.11582,0.0752 -0.19413,0.18475 -0.31147,0.38935 -0.74652,1.00565 -0.582,0.82445 -0.96956,1.70995 -1.52899,2.33639 -0.18364,0.20564 -0.67584,0.32363 -1.19009,0.74483 -0.11711,0.0959 -0.18723,0.17146 -0.2906,0.27087 l -1.97354,-0.42022 c -0.49948,-0.10635 -0.91735,-0.11511 -1.15948,-0.18034 -0.22203,-0.0598 -0.28298,-0.0802 -0.35958,-0.34276 0.0169,-0.0514 0.0652,-0.14986 0.0996,-0.31153 0.042,-0.19745 0.0534,-0.24619 0.0678,-0.31831 0.0522,-0.0436 0.11148,-0.0749 0.16121,-0.13205 0.14331,-0.16475 0.29585,-0.42194 0.5467,-0.84855 0.13209,-0.22477 0.0999,-0.35305 0.0949,-0.44564 0.26208,-0.22768 0.67077,-0.40784 1.11288,-0.69472 0.60167,-0.39043 1.25841,-0.7437 1.89184,-1.22762 0.38363,-0.29309 0.93017,-0.82956 1.51664,-1.34079 0.58646,-0.51124 1.20896,-1.01457 1.57824,-1.1613 0.95272,-0.37855 1.38042,-0.52458 1.58358,-0.56122 0.10159,-0.0183 0.17299,-0.0231 0.30003,-0.003 z m -29.94673,17.81405 56.91426,12.11851 c -4.30816,14.43184 -19.05423,23.36097 -34.04195,20.16969 -14.98773,-3.19127 -24.81712,-17.35314 -22.87231,-32.2882 z m 30.09046,12.2966 c -0.12521,-0.004 -0.25109,0.0257 -0.39081,0.11643 -0.14143,0.0918 -0.16851,0.23193 -0.20866,0.35487 -0.12864,-0.0134 -0.26764,-0.0458 -0.40909,0.046 -0.14537,0.0943 -0.20163,0.22319 -0.24048,0.34809 l -0.5093,-0.10844 -3.08763,-0.65744 -0.5093,-0.10844 c -0.14567,-0.031 -0.23471,-0.0254 -0.29326,-0.0292 -0.0172,-0.024 -0.0235,-0.0536 -0.0433,-0.10905 -0.0276,-0.077 -0.0521,-0.17435 -0.13677,-0.29532 -0.0847,-0.12097 -0.25912,-0.28809 -0.46186,-0.33126 -0.10631,-0.0226 -0.27821,0.006 -0.41586,0.0778 -0.13765,0.072 -0.21804,0.19039 -0.25876,0.27764 -0.0814,0.17451 -0.0735,0.26758 -0.0746,0.35015 -0.002,0.16515 -0.002,0.32039 0.0162,0.23637 -0.0649,0.30479 -0.0986,0.432 -0.0881,0.41381 0.009,-0.0152 -0.0464,0.0353 -0.2181,0.0866 -0.0514,-0.0169 -0.14988,-0.0652 -0.31154,-0.0996 l -1.0186,-0.21689 -1.40057,-0.29822 c -0.0306,-0.0211 -0.055,-0.0714 -0.0819,-0.084 -0.17451,-0.0814 -0.26756,-0.0736 -0.35014,-0.0746 -0.16515,-0.002 -0.3204,-0.002 -0.23638,0.0162 l -0.5093,-0.10844 -3.59693,-0.76588 c -0.0167,-0.004 -0.0163,-0.004 -0.0318,-0.007 0.0285,-0.0813 0.0615,-0.15336 0.0861,-0.24787 0.0337,-0.12956 0.10682,-0.28364 0.0448,-0.52286 -0.0725,-0.27939 -0.24002,-0.40591 -0.32569,-0.50191 -0.0286,-0.032 -0.011,-0.02 -0.025,-0.0386 0.0316,-0.0598 0.0715,-0.12986 0.0996,-0.31154 0.014,-0.0908 0.0115,-0.22923 -0.0846,-0.38403 -0.0961,-0.1548 -0.26234,-0.25551 -0.37314,-0.2791 -0.11081,-0.0236 -0.30363,6.7e-4 -0.45448,0.10288 -0.15084,0.10221 -0.20953,0.22758 -0.23371,0.31626 -0.0391,0.14326 0.003,0.20901 0.009,0.2682 -0.005,0.0129 -0.008,0.0491 -0.0135,0.0637 -0.0812,0.0733 -0.17471,0.15059 -0.27026,0.17538 -0.0148,0.004 -0.0218,-0.009 -0.0318,-0.007 -0.0473,-0.11568 -0.13032,-0.38328 -0.43269,-0.62452 -0.18989,-0.1515 -0.4013,-0.16605 -0.52757,-0.17888 -0.12629,-0.0128 -0.18116,-0.0386 -0.19099,-0.0407 l -1.05043,-0.22366 -0.21689,1.0186 1.05043,0.22366 c 0.14567,0.031 0.23471,0.0255 0.29326,0.0292 0.0304,0.0242 0.063,0.11725 0.21871,0.37931 0.0779,0.13103 0.21757,0.332 0.44152,0.42676 0.22396,0.0948 0.46067,0.076 0.69557,0.015 0.13672,-0.0355 0.22587,-0.15905 0.34748,-0.22548 0.014,0.0186 0.0217,0.035 0.025,0.0386 -0.0164,0.0629 -0.0557,0.17501 -0.0928,0.2797 -0.0371,0.1047 -0.0753,0.21759 -0.10639,0.34337 -0.0311,0.12577 -0.12959,0.26539 0.0758,0.5818 0.18134,0.27947 0.51256,0.33324 0.65962,0.34009 0.14707,0.007 0.23206,0.0159 0.19777,0.009 l 3.59693,0.76588 0.35014,0.0745 c 0.0852,0.0501 0.1741,0.0884 0.27293,0.12466 0.0988,0.0363 0.19933,0.0625 0.35014,0.0746 0.0503,0.004 0.13125,-0.0103 0.20454,-0.023 l 1.40058,0.29822 1.0186,0.21689 c 0.01,0.002 0.0637,0.0328 0.18421,0.0725 0.12054,0.0397 0.32634,0.0807 0.56146,0.0197 0.40234,-0.10439 0.74673,-0.27024 0.91984,-0.56945 0.0601,-0.10387 0.0293,-0.16678 0.0542,-0.25465 0.12038,0.0502 0.26192,0.0981 0.34336,0.10638 0.12628,0.0128 0.21299,0.0455 0.22282,0.0475 l 0.5093,0.10844 3.08763,0.65744 0.5093,0.10844 c -0.0343,-0.007 0.0471,0.0188 0.18421,0.0725 0.1371,0.0537 0.42966,0.13272 0.70912,-0.0487 0.14538,-0.0943 0.20164,-0.22319 0.24049,-0.34809 0.12535,0.009 0.24389,0.0338 0.37726,-0.0528 0.13414,-0.087 0.16634,-0.23609 0.20865,-0.35486 0.0169,0.004 0.0133,0.003 0.0318,0.007 l 1.05044,0.22366 0.21688,-1.0186 -1.05043,-0.22366 c 0.0343,0.007 -0.0471,-0.0188 -0.18421,-0.0725 -0.0685,-0.0268 -0.1931,-0.064 -0.31831,-0.0678 z m 11.98125,3.58263 c -0.0554,-0.008 -0.0928,0.005 -0.1341,0.005 -0.0717,-8.9e-4 -0.0537,0.0122 -0.10227,0.0115 -0.0148,-2e-4 -0.0214,-0.007 -0.0318,-0.007 -0.0199,-0.008 -0.0574,-0.0111 -0.0955,-0.0203 -0.0254,-0.006 -0.0455,-0.018 -0.0955,-0.0203 -0.025,-0.001 -0.0649,0.007 -0.10227,0.0115 l -1.36874,-0.29144 -0.21689,1.0186 1.5279,0.32533 c 0.27034,0.2673 0.54469,0.52323 0.78961,0.66724 0.0837,0.0492 0.19444,0.12519 0.36164,0.17683 0.16719,0.0516 0.46372,0.0831 0.7159,-0.0805 0.13337,-0.0865 0.15936,-0.20474 0.20188,-0.32303 0.0153,0.004 0.0151,0.003 0.0318,0.007 l 0.5093,0.10845 0.21689,-1.0186 -0.5093,-0.10845 c 0.0343,0.007 -0.0722,-0.0575 -0.20927,-0.1111 -0.1371,-0.0537 -0.42967,-0.13273 -0.70912,0.0487 -0.12414,0.0806 -0.15724,0.21096 -0.20188,0.32304 -0.0249,-0.0152 -0.033,-0.0304 -0.0569,-0.0454 0.0101,-0.1009 0.0317,-0.22507 -0.0277,-0.33864 -0.072,-0.13766 -0.19039,-0.21806 -0.27765,-0.25877 -0.0872,-0.0407 -0.16063,-0.0709 -0.21604,-0.0793 z"
             style="fill:#ab0000;fill-opacity:1;stroke:none;filter:url(#filter5259)"
             transform="matrix(0.40231568,0.03796091,-0.03796091,0.40231568,120.91413,-179.02391)" />
          <path
             style="fill:url(#linearGradient5377);fill-opacity:1;stroke:none"
             d="m 82.71875,34.75 c -4.899729,0.0015 -8.738903,6.215961 -9.375,11.5625 -0.202553,1.702503 0.05313,3.265558 0.625,4.71875 0.477978,-0.130615 0.962511,-0.257441 1.4375,-0.375 -0.24532,-0.918712 -0.377719,-1.889725 -0.375,-2.875 L 85.40625,49 c 5.22713,-0.472214 9.854613,-0.297262 13.25,0 1.61833,-7.274582 -4.474947,-15.497133 -11.1875,-13.8125 -0.84869,0.212992 -1.719466,-0.101161 -2.5625,-0.03125 -0.736277,-0.27333 -1.487539,-0.406465 -2.1875,-0.40625 z m 2.375,2.125 c 0.70971,-0.05528 1.452512,0.04613 2.1875,0.03125 7.394601,-0.149745 11.025538,5.091303 9.625,11.34375 l -21.6875,-2.59375 c 0.968328,-4.851416 5.045747,-8.405115 9.875,-8.78125 z m 0.46875,1.8125 c -0.09044,-0.0039 -0.171583,9.65e-4 -0.28125,0.03125 -0.230925,0.06379 -0.675498,-0.36555 -1.017857,-0.191964 -0.325129,0.164848 -0.561956,0.248243 -0.691964,0.834821 -0.07088,0.319816 -0.364908,0.399851 -0.410715,0.441964 -0.161387,0.148376 -0.279701,0.713742 -0.535714,0.915179 -0.09628,0.07575 -0.327006,0.229565 -0.53125,0.46875 -0.114104,0.133609 -0.115893,0.23758 -0.125,0.34375 -0.03828,0.07852 -0.04595,0.128154 -0.0625,0.15625 -0.0133,0.0084 -0.0501,-0.01056 -0.0625,0 -0.09403,0.07968 -0.140004,0.209064 -0.15625,0.3125 -0.0046,0.02902 -9e-6,0.04149 0,0.0625 -0.0028,0.01834 -0.01965,0.07207 -0.03125,0.15625 -1.27e-4,4.01e-4 0.0014,0.0252 0,0.03125 -4.27e-4,-0.0015 0.0039,-0.0055 0,0.03125 -0.0025,0.01056 -0.02779,0.01617 -0.03125,0.03125 -0.0048,0.02085 -0.07589,0.194891 0,0.40625 0.13445,0.374275 0.456685,0.574013 0.75,0.625 0.02922,0.0051 0.03513,-0.0034 0.0625,0 -0.112064,0.05143 -0.137553,0.07879 -0.3125,0.1875 -0.177488,0.110283 -0.308847,0.211886 -0.34375,0.25 -0.08489,-0.01913 -0.221848,-0.04423 -0.375,-0.0625 L 80.1875,43.5625 c -0.186984,-0.02224 -0.386029,0.125287 -0.40625,0.3125 L 79.75,44.28125 c -0.02224,0.186984 0.125287,0.386029 0.3125,0.40625 l 1.21875,0.15625 c 3.54e-4,4.2e-5 0.405047,0.18003 0.84375,0.0625 0.25291,-0.06774 0.404354,-0.247587 0.46875,-0.3125 0.07722,-0.07785 0.16626,-0.150637 0.125,-0.125 0.284086,-0.176523 0.34355,-0.164888 0.53125,-0.25 0.196081,-0.08891 0.384417,-0.232536 0.65625,-0.5 0.06692,-0.06585 0.105404,-0.127296 0.15625,-0.1875 l 1.28125,0.15625 0.40625,0.03125 c -0.128327,-0.01536 -0.01223,0.03071 0.125,0.0625 0.130667,0.03019 0.33141,0.0406 0.53125,-0.03125 0.03267,-0.01175 0.03576,-0.04736 0.0625,-0.0625 0.01945,0.01755 0.0075,0.04682 0.03125,0.0625 0.182462,0.120168 0.357711,0.154788 0.5,0.15625 0.117245,0.0012 0.239341,0.0099 0.15625,0 l 0.59375,0.0625 1.21875,0.125 c 0.0032,4.91e-4 0.05361,0.02957 0.0625,0.03125 L 89,44.34375 89,44.375 c -0.02516,0.08674 -0.09452,0.385611 0.09375,0.625 0.187654,0.238495 0.437308,0.224331 0.5625,0.21875 0.0243,-10e-4 0.04131,0.002 0.0625,0 0.05652,0.009 0.132766,0.0525 0.1875,0.0625 0.07521,0.01375 0.170184,-0.01644 0.28125,-0.03125 0.1837,-0.02488 0.31145,-0.10444 0.375,-0.15625 0.01124,-0.0092 0.06138,-0.05033 0.15625,-0.125 -0.0026,0.0018 0.01801,-0.0035 0.0625,-0.03125 0.106071,-0.0662 0.228351,-0.16525 0.3125,-0.34375 0.01589,-0.03375 0.01955,-0.02892 0.03125,-0.0625 0.09399,0.119315 0.198706,0.247309 0.25,0.3125 0.07733,0.09829 0.191958,0.326654 0.40625,0.53125 0.274507,0.26208 0.557524,0.348953 0.75,0.40625 0.198171,0.05899 0.332459,0.103965 0.53125,0.21875 0.05791,0.03344 0.23155,0.229514 0.5,0.4375 0.115378,0.0894 0.256004,0.21221 0.46875,0.3125 0.114591,0.05402 0.231436,0.05652 0.3125,0.0625 0.03554,0.0026 0.04103,4.8e-4 0.0625,0 0.0031,-7.4e-5 0.02865,7e-5 0.03125,0 l 0.375,0.0625 0.15625,0 0.0625,0.03125 c 0.108541,0.03094 0.350389,0.09775 0.59375,-0.09375 0.238507,-0.187651 0.255569,-0.468639 0.25,-0.59375 -0.0025,-0.05758 0.01404,-0.07626 0,-0.125 -0.007,-0.02437 -0.01706,-0.05366 -0.0625,-0.125 -0.0057,-0.0089 -0.02106,-0.01866 -0.03125,-0.03125 -0.01003,-0.0126 -0.03108,-0.03109 -0.03125,-0.03125 -1.86e-4,-1.62e-4 -0.09358,-0.06243 -0.09375,-0.0625 -8.5e-5,-3.5e-5 -0.07609,-0.02512 -0.125,-0.03125 l -0.375,-0.0625 c -0.02429,-1.21e-4 -0.0699,0.02673 -0.09375,0.03125 L 94.9375,45.75 94.5625,45.71875 C 94.52705,45.71455 94.49496,45.69021 94.46875,45.6875 94.408175,45.652862 94.345638,45.605352 94.25,45.53125 94.155058,45.457688 93.931568,45.195064 93.59375,45 93.264237,44.809741 93.014082,44.760154 92.875,44.71875 92.72021,44.67267 92.669326,44.694334 92.53125,44.5625 92.479649,44.51323 92.400633,44.347698 92.25,44.15625 92.10162,43.967667 91.974988,43.81476 91.9375,43.75 c 0.04307,0.0744 -0.0094,0.02625 -0.03125,-0.0625 -0.02186,-0.08875 -0.04636,-0.207881 -0.125,-0.34375 -0.100239,-0.173161 -0.174953,-0.258315 -0.25,-0.34375 6.76e-4,-0.0054 -4.06e-4,-0.02716 0,-0.03125 4.2e-4,-0.0039 -1.78e-4,-0.02893 0,-0.03125 0.0022,-0.01461 -0.0017,-0.04824 0,-0.0625 9.07e-4,-0.0071 -0.0013,-0.02363 0,-0.03125 l -0.03125,0 c 0.0072,-0.0067 0.02692,-0.04091 0.03125,-0.0625 0.0016,-0.01674 0.03116,-0.01001 0.03125,-0.03125 -1e-5,-3.65e-4 -0.02589,-0.07341 -0.03125,-0.09375 -2.97e-4,-0.004 4.36e-4,-0.02724 0,-0.03125 -0.01172,-0.05962 -0.02171,-0.04295 -0.03125,-0.0625 -1.1e-5,-3.4e-5 0.0042,-0.01943 0,-0.03125 -0.0021,-0.0059 0.0016,-0.02672 0,-0.03125 -0.0041,-0.0027 -0.02843,-0.02722 -0.03125,-0.03125 3.41e-4,3.59e-4 -0.03125,-0.03125 -0.03125,-0.03125 l -0.15625,0.15625 -0.125,0.03125 0.25,-0.28125 -0.0625,-0.03125 C 91.3314,42.30061 91.32643,42.29124 91.3125,42.28125 l -0.25,0.28125 0.1875,-0.34375 c 0,0 -0.16279,-0.02742 -0.1875,-0.03125 l -0.03125,0 c -0.06113,-0.0062 -0.131288,0.0064 -0.1875,0.03125 L 90.75,42.25 c -0.02022,0.0081 -0.01282,0.01963 -0.03125,0.03125 l -0.03125,0 c -0.0058,0.0036 -0.02683,-0.0027 -0.03125,0 -0.0044,0.0027 0,0.03125 0,0.03125 l 0.1875,0.28125 -0.25,-0.25 c 0,0 -0.008,0.02789 -0.03125,0.0625 -0.0021,0.0029 -0.02933,-0.0029 -0.03125,0 -0.0036,0.0045 0.0037,0.02697 0,0.03125 -0.0031,0.0085 -0.02764,0.02297 -0.03125,0.03125 -0.0013,0.0032 9.65e-4,0.02902 0,0.03125 -0.01132,0.01689 -0.01243,0.0113 -0.03125,0.0625 -0.0025,0.003 -0.02202,0.02569 -0.03125,0.0625 -0.0039,0.01879 0.0013,0.01593 0,0.03125 1.8e-5,-9.9e-5 0.0012,0.02257 0,0.03125 -2e-5,0.0041 -2.6e-4,0.02652 0,0.03125 4.59e-4,0.0081 -0.001,0.02324 0,0.03125 -2e-6,6.6e-5 -2.38e-4,0.02574 0,0.03125 -5.96e-4,0.002 0.0017,0.02466 0,0.03125 -8.42e-4,0.0036 -0.0298,0.02321 -0.03125,0.03125 -0.04615,0.122005 -0.08919,0.233897 -0.09375,0.25 -0.0053,0.0059 -0.0239,0.02259 -0.03125,0.03125 -0.0025,-0.05037 -0.03391,-0.152489 -0.15625,-0.28125 -0.156061,-0.16409 -0.288434,-0.14965 -0.34375,-0.15625 -0.08704,-0.01041 -0.300832,-0.01273 -0.46875,0.125 -0.08828,0.07235 -0.09336,0.143182 -0.125,0.21875 C 89.15324,43.02555 89.13369,43.00477 89.09375,43 l -1.1875,-0.15625 -0.03125,0 -0.5625,-0.0625 c -0.004,2.97e-4 -0.02724,-4.36e-4 -0.03125,0 -0.02011,-0.02863 -0.01267,-0.04121 -0.03125,-0.0625 l 0,-0.1875 0.03125,0 c 0.0013,-0.0032 -0.0016,-0.02748 0,-0.03125 0.0092,-0.02204 -0.001,-0.03556 0,-0.125 1.66e-4,-0.01525 4.55e-4,-0.04898 0,-0.0625 l 0.03125,0 C 87.3112,42.29634 87.28312,42.26199 87.28125,42.25 L 87.3125,42.125 C 87.341691,41.934046 87.192208,41.738031 87,41.71875 l -0.40625,-0.0625 c -0.183752,-0.02321 -0.380263,0.129121 -0.40625,0.3125 l -0.03125,0.21875 c -0.06005,0.04402 -0.06888,0.03979 -0.125,0.125 -0.06112,0.0928 -0.05266,0.134278 -0.0625,0.21875 C 85.93799,42.55073 85.9147,42.59032 85.875,42.625 L 85.46875,42.5625 85.625,42.410714 c 0.180089,-0.297931 -0.271839,-0.523032 -0.15625,-0.723214 0.05154,-0.08926 0.04352,-0.09837 0.0625,-0.125 0.02207,-0.0088 0.193571,0.453529 0.241071,0.415179 0.05323,-0.04304 0.191102,-0.0676 0.214286,-0.09375 0.102703,-0.115853 0.239508,-0.486749 0.46875,-0.834822 0.323474,-0.491159 0.09191,-1.064288 0.138393,-1.455357 7.64e-4,-0.0044 -2.1e-5,-0.03105 0,-0.03125 0.02491,-0.0861 0.09471,-0.385534 -0.09375,-0.625 -0.187652,-0.238479 -0.437354,-0.224323 -0.5625,-0.21875 -0.0092,4.46e-4 -0.02287,-4.37e-4 -0.03125,0 -0.01969,-0.0023 -0.04304,0.0027 -0.0625,0 -0.08845,-0.0124 -0.190807,-0.02738 -0.28125,-0.03125 z m -0.125,1.15625 c -0.02378,0.07333 -0.05956,0.149485 -0.1875,0.34375 -0.13304,0.202 -0.200809,0.248995 -0.25,0.3125 -0.01514,8.02e-4 -0.0541,0.04003 -0.125,0.09375 -0.08745,0.06627 -0.13073,0.171852 -0.0625,0.09375 -0.104093,0.118898 -0.16866,0.219634 -0.3125,0.46875 -0.20821,0.360583 -0.334295,0.677513 -0.46875,0.875 -0.003,0.0021 -0.02658,-0.0035 -0.03125,0 -0.0044,0.0063 0.0044,0.02526 0,0.03125 -0.01529,0.01122 -0.03699,0.01591 -0.0625,0.03125 -0.08293,0.04986 -0.190045,0.129511 -0.3125,0.25 l -0.59375,-0.0625 c -0.104664,-0.0125 -0.142622,0.0038 -0.21875,0 0.05132,-0.08399 0.09363,-0.179655 0.15625,-0.3125 0.02504,-0.05311 0.02398,-0.06759 0.03125,-0.125 0.05605,-0.04433 0.156907,-0.09633 0.3125,-0.21875 0.198783,-0.156407 0.461641,-0.326117 0.71875,-0.5625 0.176732,-0.162487 0.335018,-0.388439 0.53125,-0.59375 0.204337,-0.213797 0.468314,-0.437281 0.46875,-0.4375 0.263969,-0.133836 0.339769,-0.159642 0.40625,-0.1875 z m 4.40625,3.25 0.09375,0 L 90,43.125 c 0,0 -0.02656,0.153892 -0.0625,0.25 -0.0088,0.02348 -0.02203,0.04756 -0.03125,0.0625 0.01433,-0.0065 0.0755,-0.0087 0.125,-0.03125 0.08249,-0.03757 0.132377,-0.08287 0.15625,-0.09375 -0.01501,0.02931 -0.01829,0.04977 -0.03125,0.125 -9.46e-4,0.0067 0.001,0.02453 0,0.03125 l -0.25,-0.03125 c -0.0031,0.005 -0.03082,-0.0012 -0.03125,0 l -0.34375,-0.03125 c 2.03e-4,-0.0016 -0.0061,-0.0036 0,-0.03125 0.0017,-0.0069 0.03135,-0.03149 0.03125,-0.03125 -3.4e-5,1e-4 3.2e-5,-0.03133 0,-0.03125 -1.6e-5,3.3e-5 0.03125,-0.03129 0.03125,-0.03125 l 0.03125,-0.0625 0.15625,-0.09375 0.0625,-0.03125 z"
             transform="matrix(1.0185998,0.21688607,-0.21688607,1.0185998,143.40635,-359.93047)"
             id="path5363"
             sodipodi:nodetypes="cscccccscccsccccssssssssssssssssssssccccccssssscccsssssccccccssssssssssssssssssccccssssssscccccsssssssssssssccssssssssccccccccccccccscccssssssssssssssssssssccccscccssccccccccsscccsssssssssssccsssssssssccsssssssccccsssssccccssscccc" />
        </g>
      </g>
    </g>
  </g>
</svg>
