<?xml version="1.0" encoding="UTF-8" standalone="no"?>
<!-- Created with Inkscape (http://www.inkscape.org/) -->
<svg
   xmlns:dc="http://purl.org/dc/elements/1.1/"
   xmlns:cc="http://creativecommons.org/ns#"
   xmlns:rdf="http://www.w3.org/1999/02/22-rdf-syntax-ns#"
   xmlns:svg="http://www.w3.org/2000/svg"
   xmlns="http://www.w3.org/2000/svg"
   xmlns:xlink="http://www.w3.org/1999/xlink"
   xmlns:sodipodi="http://sodipodi.sourceforge.net/DTD/sodipodi-0.dtd"
   xmlns:inkscape="http://www.inkscape.org/namespaces/inkscape"
   width="128"
   height="128"
   id="svg2"
   sodipodi:version="0.32"
   inkscape:version="0.46"
   version="1.0"
   sodipodi:docname="applications-system.svg"
   inkscape:output_extension="org.inkscape.output.svg.inkscape"
   inkscape:export-filename="/home/immanuel/mydata/archive/prj/cream/art/othr/settings.png"
   inkscape:export-xdpi="90"
   inkscape:export-ydpi="90">
  <defs
     id="defs4">
    <inkscape:perspective
       sodipodi:type="inkscape:persp3d"
       inkscape:vp_x="0 : 64 : 1"
       inkscape:vp_y="0 : 1000 : 0"
       inkscape:vp_z="128 : 64 : 1"
       inkscape:persp3d-origin="64 : 42.666667 : 1"
       id="perspective19" />
    <linearGradient
       inkscape:collect="always"
       id="linearGradient3170">
      <stop
         style="stop-color:#ffffff;stop-opacity:1;"
         offset="0"
         id="stop3172" />
      <stop
         style="stop-color:#ffffff;stop-opacity:0;"
         offset="1"
         id="stop3174" />
    </linearGradient>
    <linearGradient
       id="linearGradient3183">
      <stop
         style="stop-color:#f8ead2;stop-opacity:1;"
         offset="0"
         id="stop3185" />
      <stop
         id="stop3191"
         offset="0.39377657"
         style="stop-color:#cfb07f;stop-opacity:1;" />
      <stop
         style="stop-color:#454545;stop-opacity:1;"
         offset="1"
         id="stop3187" />
    </linearGradient>
    <linearGradient
       inkscape:collect="always"
       xlink:href="#linearGradient3183"
       id="linearGradient3189"
       x1="14.520262"
       y1="9.4244099"
       x2="23.828123"
       y2="45.897491"
       gradientUnits="userSpaceOnUse"
       gradientTransform="matrix(3.3725694,0,0,3.3712912,-16.362001,-14.201004)" />
    <linearGradient
       inkscape:collect="always"
       xlink:href="#linearGradient3170"
       id="linearGradient3176"
       x1="54.2957"
       y1="-10.895975"
       x2="54.2957"
       y2="80.817451"
       gradientUnits="userSpaceOnUse" />
    <linearGradient
       inkscape:collect="always"
       xlink:href="#linearGradient3170"
       id="linearGradient3180"
       gradientUnits="userSpaceOnUse"
       x1="54.2957"
       y1="-10.895975"
       x2="54.2957"
       y2="80.817451" />
  </defs>
  <sodipodi:namedview
     id="base"
     pagecolor="#ffffff"
     bordercolor="#666666"
     borderopacity="1.0"
     inkscape:pageopacity="0.0"
     inkscape:pageshadow="2"
     inkscape:zoom="1.979899"
     inkscape:cx="187.79872"
     inkscape:cy="-5.4337301"
     inkscape:document-units="px"
     inkscape:current-layer="layer1"
     showgrid="false"
     inkscape:showpageshadow="false"
     inkscape:window-width="1280"
     inkscape:window-height="956"
     inkscape:window-x="63"
     inkscape:window-y="0" />
  <metadata
     id="metadata7">
    <rdf:RDF>
      <cc:Work
         rdf:about="">
        <dc:format>image/svg+xml</dc:format>
        <dc:type
           rdf:resource="http://purl.org/dc/dcmitype/StillImage" />
      </cc:Work>
    </rdf:RDF>
  </metadata>
  <g
     inkscape:label="Ebene 1"
     inkscape:groupmode="layer"
     id="layer1">
    <path
       style="opacity:1;fill:url(#linearGradient3189);fill-opacity:1;fill-rule:nonzero;stroke:#886839;stroke-width:1;stroke-linejoin:round;marker:none;marker-start:none;marker-mid:none;marker-end:none;stroke-miterlimit:4;stroke-dasharray:none;stroke-dashoffset:0;stroke-opacity:1;visibility:visible;display:inline;overflow:visible;enable-background:accumulate"
       d="M 59.310021,2.0233344 C 58.528411,2.0183944 57.649444,2.1178924 56.675202,2.2340404 C 41.08728,4.0924044 54.872385,15.624726 41.182461,23.304612 C 27.492534,30.984492 24.752812,13.18481 15.045049,25.51702 C 5.3372856,37.849231 23.297659,36.2214 19.049976,51.328468 C 14.802291,66.435537 0.32806061,55.763495 2.1871296,71.345508 C 4.0461979,86.927524 15.582893,73.147639 23.265687,86.83238 C 30.948481,100.51712 13.142049,103.15044 25.478935,112.85453 C 37.815822,122.55862 36.292764,104.71041 51.405561,108.95648 C 66.518358,113.20255 55.842266,127.6713 71.430191,125.81293 C 87.018111,123.95457 73.127613,112.42224 86.817539,104.74236 C 100.50746,97.062481 103.24718,114.75681 112.95495,102.4246 C 122.66271,90.092392 104.70234,91.720223 108.95002,76.613152 C 113.1977,61.506083 127.67194,72.178128 125.81287,56.596112 C 123.9538,41.014099 112.41709,54.793981 104.73431,41.10924 C 97.051519,27.424504 114.85794,24.791175 102.52106,15.087088 C 90.184178,5.3830034 91.70723,23.336571 76.594436,19.090496 C 62.42619,15.109802 71.03416,2.0974444 59.310021,2.0233344 z M 64.052696,41.425298 C 76.529722,41.425295 86.606753,51.498508 86.606753,63.970808 C 86.606753,76.443115 76.529724,86.621672 64.052696,86.621672 C 51.575662,86.621672 41.393247,76.443115 41.393247,63.970808 C 41.393249,51.498508 51.575668,41.425298 64.052696,41.425298 z"
       id="path2383" />
    <path
       sodipodi:type="inkscape:offset"
       inkscape:radius="0"
       inkscape:original="M 59.3125 2.03125 C 58.530891 2.0263099 57.661742 2.102602 56.6875 2.21875 C 41.099579 4.0771139 54.877424 15.632614 41.1875 23.3125 C 27.497573 30.992381 24.739013 13.19904 15.03125 25.53125 C 5.3234869 37.863462 23.310183 36.236682 19.0625 51.34375 C 14.814815 66.450819 0.32843101 55.761737 2.1875 71.34375 C 2.310445 72.374229 2.4838183 73.272415 2.6875 74.0625 C 16.203728 70.318486 29.14199 67.498397 41.4375 65.375 C 41.408546 64.908266 41.40625 64.442536 41.40625 63.96875 C 41.406253 51.496452 51.585472 41.4375 64.0625 41.4375 C 75.283744 41.437498 84.558143 49.568489 86.3125 60.28125 C 101.50541 59.473085 114.85298 59.700049 125.9375 60.375 C 126.03196 59.325861 125.98861 58.069873 125.8125 56.59375 C 123.95343 41.011738 112.40153 54.778491 104.71875 41.09375 C 97.035963 27.409013 114.86813 24.797837 102.53125 15.09375 C 90.194371 5.3896658 91.706544 23.339825 76.59375 19.09375 C 62.425503 15.113056 71.036639 2.10536 59.3125 2.03125 z "
       style="opacity:1;fill:url(#linearGradient3180);fill-opacity:1;fill-rule:nonzero;stroke:none;stroke-width:1;stroke-linejoin:round;marker:none;marker-start:none;marker-mid:none;marker-end:none;stroke-miterlimit:4;stroke-dasharray:none;stroke-dashoffset:0;stroke-opacity:1;visibility:visible;display:inline;overflow:visible;enable-background:accumulate"
       id="path3178"
       d="M 59.3125,2.03125 C 58.530891,2.0263099 57.661742,2.102602 56.6875,2.21875 C 41.099579,4.0771139 54.877424,15.632614 41.1875,23.3125 C 27.497573,30.992381 24.739013,13.19904 15.03125,25.53125 C 5.3234869,37.863462 23.310183,36.236682 19.0625,51.34375 C 14.814815,66.450819 0.32843101,55.761737 2.1875,71.34375 C 2.310445,72.374229 2.4838183,73.272415 2.6875,74.0625 C 16.203728,70.318486 29.14199,67.498397 41.4375,65.375 C 41.408546,64.908266 41.40625,64.442536 41.40625,63.96875 C 41.406253,51.496452 51.585472,41.4375 64.0625,41.4375 C 75.283744,41.437498 84.558143,49.568489 86.3125,60.28125 C 101.50541,59.473085 114.85298,59.700049 125.9375,60.375 C 126.03196,59.325861 125.98861,58.069873 125.8125,56.59375 C 123.95343,41.011738 112.40153,54.778491 104.71875,41.09375 C 97.035963,27.409013 114.86813,24.797837 102.53125,15.09375 C 90.194371,5.3896658 91.706544,23.339825 76.59375,19.09375 C 62.425503,15.113056 71.036639,2.10536 59.3125,2.03125 z" />
  </g>
</svg>
