<?xml version="1.0" encoding="UTF-8" standalone="no"?>
<!-- Created with Inkscape (http://www.inkscape.org/) -->

<svg
   xmlns:dc="http://purl.org/dc/elements/1.1/"
   xmlns:cc="http://creativecommons.org/ns#"
   xmlns:rdf="http://www.w3.org/1999/02/22-rdf-syntax-ns#"
   xmlns:svg="http://www.w3.org/2000/svg"
   xmlns="http://www.w3.org/2000/svg"
   xmlns:xlink="http://www.w3.org/1999/xlink"
   xmlns:sodipodi="http://sodipodi.sourceforge.net/DTD/sodipodi-0.dtd"
   xmlns:inkscape="http://www.inkscape.org/namespaces/inkscape"
   width="128"
   height="128"
   id="svg2"
   version="1.1"
   inkscape:version="0.47 r22583"
   sodipodi:docname="clot-small.svg"
   inkscape:export-filename="D:\Projekte\cream\art\creamlooks-icontheme\icons\scalable\apps\clot-small.png"
   inkscape:export-xdpi="22.5"
   inkscape:export-ydpi="22.5">
  <defs
     id="defs4">
    <linearGradient
       inkscape:collect="always"
       id="linearGradient3765">
      <stop
         style="stop-color:#ffffff;stop-opacity:1;"
         offset="0"
         id="stop3767" />
      <stop
         style="stop-color:#ffffff;stop-opacity:0;"
         offset="1"
         id="stop3769" />
    </linearGradient>
    <linearGradient
       id="linearGradient3620">
      <stop
         style="stop-color:#000000;stop-opacity:1;"
         offset="0"
         id="stop3622" />
      <stop
         style="stop-color:#0d62e3;stop-opacity:1;"
         offset="1"
         id="stop3624" />
    </linearGradient>
    <linearGradient
       id="linearGradient3610">
      <stop
         style="stop-color:#f0f0f0;stop-opacity:1;"
         offset="0"
         id="stop3614" />
      <stop
         id="stop3688"
         offset="1"
         style="stop-color:#a7a7a7;stop-opacity:1;" />
    </linearGradient>
    <linearGradient
       id="linearGradient3592">
      <stop
         style="stop-color:#f8ead2;stop-opacity:1;"
         offset="0"
         id="stop3594" />
      <stop
         id="stop3600"
         offset="0.4488892"
         style="stop-color:#cfb07f;stop-opacity:1;" />
      <stop
         style="stop-color:#454545;stop-opacity:1;"
         offset="1"
         id="stop3596" />
    </linearGradient>
    <inkscape:perspective
       sodipodi:type="inkscape:persp3d"
       inkscape:vp_x="0 : 526.18109 : 1"
       inkscape:vp_y="0 : 1000 : 0"
       inkscape:vp_z="744.09448 : 526.18109 : 1"
       inkscape:persp3d-origin="372.04724 : 350.78739 : 1"
       id="perspective10" />
    <linearGradient
       inkscape:collect="always"
       xlink:href="#linearGradient3610"
       id="linearGradient3598"
       x1="9.971447"
       y1="980.19775"
       x2="10.428109"
       y2="1247.084"
       gradientUnits="userSpaceOnUse"
       gradientTransform="matrix(0.80303264,0,0,0.61567118,48.59811,370.40834)" />
    <filter
       inkscape:collect="always"
       id="filter3642"
       x="-0.12365834"
       width="1.2473167"
       y="-0.078452691"
       height="1.1569054">
      <feGaussianBlur
         inkscape:collect="always"
         stdDeviation="3.9494768"
         id="feGaussianBlur3644" />
    </filter>
    <linearGradient
       inkscape:collect="always"
       xlink:href="#linearGradient3765"
       id="linearGradient3771"
       x1="20.701303"
       y1="-12.349299"
       x2="72.609207"
       y2="63.49107"
       gradientUnits="userSpaceOnUse"
       gradientTransform="matrix(0.75814784,0,0,0.75814784,12.521523,932.91667)" />
    <linearGradient
       inkscape:collect="always"
       xlink:href="#linearGradient3620"
       id="linearGradient3779"
       gradientUnits="userSpaceOnUse"
       gradientTransform="matrix(0.96979627,0,0,0.96979627,0.8202267,30.495315)"
       x1="-97.533485"
       y1="754.00085"
       x2="66.136223"
       y2="1012.8839" />
    <filter
       inkscape:collect="always"
       id="filter3903">
      <feGaussianBlur
         inkscape:collect="always"
         stdDeviation="1.6040043"
         id="feGaussianBlur3905" />
    </filter>
    <inkscape:perspective
       id="perspective2832"
       inkscape:persp3d-origin="0.5 : 0.33333333 : 1"
       inkscape:vp_z="1 : 0.5 : 1"
       inkscape:vp_y="0 : 1000 : 0"
       inkscape:vp_x="0 : 0.5 : 1"
       sodipodi:type="inkscape:persp3d" />
    <linearGradient
       inkscape:collect="always"
       xlink:href="#linearGradient3610"
       id="linearGradient2930"
       gradientUnits="userSpaceOnUse"
       gradientTransform="matrix(0.80303264,0,0,0.61567118,-282.83207,369.66058)"
       x1="9.971447"
       y1="980.19775"
       x2="10.428109"
       y2="1247.084" />
    <linearGradient
       inkscape:collect="always"
       xlink:href="#linearGradient3765"
       id="linearGradient2932"
       gradientUnits="userSpaceOnUse"
       gradientTransform="matrix(0.75814784,0,0,0.75814784,-318.91068,932.91667)"
       x1="20.701303"
       y1="-12.349299"
       x2="72.609207"
       y2="63.49107" />
    <linearGradient
       inkscape:collect="always"
       xlink:href="#linearGradient3620"
       id="linearGradient2934"
       gradientUnits="userSpaceOnUse"
       gradientTransform="matrix(0.96979627,0,0,0.96979627,0.8202267,30.495315)"
       x1="-97.533485"
       y1="754.00085"
       x2="66.136223"
       y2="1012.8839" />
  </defs>
  <sodipodi:namedview
     id="base"
     pagecolor="#ffffff"
     bordercolor="#666666"
     borderopacity="1.0"
     inkscape:pageopacity="0.0"
     inkscape:pageshadow="2"
     inkscape:zoom="2.5616099"
     inkscape:cx="11.380916"
     inkscape:cy="58.274106"
     inkscape:document-units="px"
     inkscape:current-layer="g3817"
     showgrid="false"
     inkscape:showpageshadow="false"
     inkscape:window-width="1217"
     inkscape:window-height="838"
     inkscape:window-x="-8"
     inkscape:window-y="-8"
     inkscape:window-maximized="1" />
  <metadata
     id="metadata7">
    <rdf:RDF>
      <cc:Work
         rdf:about="">
        <dc:format>image/svg+xml</dc:format>
        <dc:type
           rdf:resource="http://purl.org/dc/dcmitype/StillImage" />
        <dc:title></dc:title>
      </cc:Work>
    </rdf:RDF>
  </metadata>
  <g
     inkscape:label="Ebene 1"
     inkscape:groupmode="layer"
     id="layer1"
     transform="translate(0,-924.3622)">
    <rect
       ry="0"
       transform="matrix(0.89602818,-0.00202156,0.00343919,0.89602385,3.3037942,96.635515)"
       y="957.71112"
       x="10.577864"
       height="59.804661"
       width="100.14089"
       id="rect3889"
       style="fill:#717171;fill-opacity:1;fill-rule:evenodd;stroke:#000000;stroke-width:0.5000003;stroke-miterlimit:4;stroke-opacity:1;stroke-dasharray:none;filter:url(#filter3903)" />
    <rect
       style="fill:url(#linearGradient3598);fill-opacity:1;fill-rule:evenodd;stroke:#ffffff;stroke-width:0.44801551;stroke-miterlimit:4;stroke-opacity:1;stroke-dasharray:none"
       id="rect2818"
       width="89.729286"
       height="53.586796"
       x="12.410949"
       y="954.78107"
       transform="matrix(0.99999745,-0.00225613,0.00383826,0.99999263,0,0)"
       ry="0" />
    <path
       style="fill:url(#linearGradient3771);fill-opacity:1;fill-rule:evenodd;stroke:none"
       d="m 105.79741,954.1922 -89.72207,0.18954 a 0.36545222,0.36487448 0.7823513 0 0 -0.118463,0 0.36545222,0.36487448 0.7823513 0 0 -0.236921,0.35537 l 0.142154,35.8463 c 27.981232,-16.06924 63.901365,-27.54538 90.29068,-34.56693 l 0,-1.46891 a 0.36545222,0.36487448 0.7823513 0 0 -0.35538,-0.35537 z"
       id="path3760" />
    <g
       transform="matrix(0.8317411,-0.14310199,0.14310199,0.8317411,19.207193,168.19026)"
       id="g3690"
       style="fill:#000000;fill-opacity:1">
      <g
         style="fill:#000000;fill-opacity:1"
         id="g3817"
         transform="matrix(1.0381865,0.1796371,-0.1796371,1.0381865,390.0952,67.456291)">
        <path
           id="path3692"
           d="m -329.08687,876.8521 -0.0305,37.11645 -61.99228,0.026 10e-4,1.64522 61.95941,0.007 -0.0309,36.7545 1.61233,-10e-4 0.0308,-36.75449 61.95939,0.007 -10e-4,-1.67811 -61.9594,0.0261 0.0305,-37.14935 -1.57942,8.9e-4 z"
           style="font-size:medium;font-style:normal;font-variant:normal;font-weight:normal;font-stretch:normal;text-indent:0;text-align:start;text-decoration:none;line-height:normal;letter-spacing:normal;word-spacing:normal;text-transform:none;direction:ltr;block-progression:tb;writing-mode:lr-tb;text-anchor:start;opacity:0.5;color:#000000;fill:#000000;fill-opacity:1;stroke:none;stroke-width:1.71088719;marker:none;visibility:visible;display:inline;overflow:visible;enable-background:accumulate;font-family:Bitstream Vera Sans;-inkscape-font-specification:Bitstream Vera Sans" />
        <path
           id="path3696"
           d="m -118.19808,901.09926 6.6e-4,1.05984 1.12459,-10e-4 -6.6e-4,-1.05983 -1.12459,0.001 z"
           style="font-size:medium;font-style:normal;font-variant:normal;font-weight:normal;font-stretch:normal;text-indent:0;text-align:start;text-decoration:none;line-height:normal;letter-spacing:normal;word-spacing:normal;text-transform:none;direction:ltr;block-progression:tb;writing-mode:lr-tb;text-anchor:start;color:#000000;fill:#000000;fill-opacity:1;stroke:none;stroke-width:0.67437148;marker:none;visibility:visible;display:inline;overflow:visible;enable-background:accumulate;font-family:Bitstream Vera Sans;-inkscape-font-specification:Bitstream Vera Sans" />
        <path
           id="path3700"
           d="m -200.57467,901.11284 6.6e-4,1.0721 1.1246,-10e-4 -6.6e-4,-1.0721 -1.12459,10e-4 z"
           style="font-size:medium;font-style:normal;font-variant:normal;font-weight:normal;font-stretch:normal;text-indent:0;text-align:start;text-decoration:none;line-height:normal;letter-spacing:normal;word-spacing:normal;text-transform:none;direction:ltr;block-progression:tb;writing-mode:lr-tb;text-anchor:start;color:#000000;fill:#000000;fill-opacity:1;stroke:none;stroke-width:0.62202537;marker:none;visibility:visible;display:inline;overflow:visible;enable-background:accumulate;font-family:Bitstream Vera Sans;-inkscape-font-specification:Bitstream Vera Sans" />
        <path
           style="font-size:medium;font-style:normal;font-variant:normal;font-weight:normal;font-stretch:normal;text-indent:0;text-align:start;text-decoration:none;line-height:normal;letter-spacing:normal;word-spacing:normal;text-transform:none;direction:ltr;block-progression:tb;writing-mode:lr-tb;text-anchor:start;color:#000000;fill:#000000;fill-opacity:1;stroke:none;stroke-width:0.62202537;marker:none;visibility:visible;display:inline;overflow:visible;enable-background:accumulate;font-family:Bitstream Vera Sans;-inkscape-font-specification:Bitstream Vera Sans"
           d="m -200.53573,942.08999 6.6e-4,1.0721 1.1246,-0.001 -6.6e-4,-1.0721 -1.12459,10e-4 z"
           id="path3909" />
        <path
           id="path3852"
           d="m -138.79216,901.17183 6.7e-4,1.00684 1.1246,-10e-4 -6.7e-4,-1.00684 -1.1246,10e-4 z"
           style="font-size:medium;font-style:normal;font-variant:normal;font-weight:normal;font-stretch:normal;text-indent:0;text-align:start;text-decoration:none;line-height:normal;letter-spacing:normal;word-spacing:normal;text-transform:none;direction:ltr;block-progression:tb;writing-mode:lr-tb;text-anchor:start;color:#000000;fill:#000000;fill-opacity:1;stroke:none;stroke-width:0.67420483;marker:none;visibility:visible;display:inline;overflow:visible;enable-background:accumulate;font-family:Bitstream Vera Sans;-inkscape-font-specification:Bitstream Vera Sans" />
        <path
           id="path3854"
           d="m -179.91025,901.0932 6.6e-4,1.0721 1.1246,-10e-4 -6.6e-4,-1.0721 -1.12459,10e-4 z"
           style="font-size:medium;font-style:normal;font-variant:normal;font-weight:normal;font-stretch:normal;text-indent:0;text-align:start;text-decoration:none;line-height:normal;letter-spacing:normal;word-spacing:normal;text-transform:none;direction:ltr;block-progression:tb;writing-mode:lr-tb;text-anchor:start;color:#000000;fill:#000000;fill-opacity:1;stroke:none;stroke-width:0.80000001;marker:none;visibility:visible;display:inline;overflow:visible;enable-background:accumulate;font-family:Bitstream Vera Sans;-inkscape-font-specification:Bitstream Vera Sans" />
        <path
           style="font-size:medium;font-style:normal;font-variant:normal;font-weight:normal;font-stretch:normal;text-indent:0;text-align:start;text-decoration:none;line-height:normal;letter-spacing:normal;word-spacing:normal;text-transform:none;direction:ltr;block-progression:tb;writing-mode:lr-tb;text-anchor:start;color:#000000;fill:#000000;fill-opacity:1;stroke:none;stroke-width:0.67437148;marker:none;visibility:visible;display:inline;overflow:visible;enable-background:accumulate;font-family:Bitstream Vera Sans;-inkscape-font-specification:Bitstream Vera Sans"
           d="m -118.15914,942.07641 6.6e-4,1.05984 1.12459,-10e-4 -6.6e-4,-1.05983 -1.12459,10e-4 z"
           id="path3907" />
        <path
           style="font-size:medium;font-style:normal;font-variant:normal;font-weight:normal;font-stretch:normal;text-indent:0;text-align:start;text-decoration:none;line-height:normal;letter-spacing:normal;word-spacing:normal;text-transform:none;direction:ltr;block-progression:tb;writing-mode:lr-tb;text-anchor:start;color:#000000;fill:#000000;fill-opacity:1;stroke:none;stroke-width:0.67420483;marker:none;visibility:visible;display:inline;overflow:visible;enable-background:accumulate;font-family:Bitstream Vera Sans;-inkscape-font-specification:Bitstream Vera Sans"
           d="m -138.75322,942.14898 6.7e-4,1.00684 1.1246,-10e-4 -6.7e-4,-1.00684 -1.1246,0.001 z"
           id="path3911" />
        <path
           style="font-size:medium;font-style:normal;font-variant:normal;font-weight:normal;font-stretch:normal;text-indent:0;text-align:start;text-decoration:none;line-height:normal;letter-spacing:normal;word-spacing:normal;text-transform:none;direction:ltr;block-progression:tb;writing-mode:lr-tb;text-anchor:start;color:#000000;fill:#000000;fill-opacity:1;stroke:none;stroke-width:0.80000001;marker:none;visibility:visible;display:inline;overflow:visible;enable-background:accumulate;font-family:Bitstream Vera Sans;-inkscape-font-specification:Bitstream Vera Sans"
           d="m -179.87131,942.07035 6.6e-4,1.0721 1.1246,-0.001 -6.6e-4,-1.0721 -1.12459,10e-4 z"
           id="path3913" />
        <path
           id="path4"
           d="m -328.97806,961.15042 c -0.65535,5.7e-4 -1.35348,0.21196 -2.09517,0.63544 -0.7417,0.42354 -1.44867,1.05684 -2.1209,1.90237 -0.49135,0.62803 -1.00435,1.51297 -1.54068,2.65319 -0.40018,0.8461 -0.74668,1.42428 -1.03612,1.73285 -0.2895,0.30945 -0.60855,0.5178 -0.95635,0.62763 -0.34864,0.10978 -0.96096,0.16609 -1.83617,0.16681 l -0.20126,0.91671 2.74608,-0.002 -2.70654,9.70313 c -0.60862,2.21766 -0.98221,3.52617 -1.12167,3.92307 -0.31076,0.95972 -0.63941,1.69456 -0.9885,2.20452 -0.34742,0.50827 -0.74631,0.88939 -1.19506,1.14675 -0.44704,0.25649 -0.87062,0.38868 -1.27664,0.38868 -0.17869,1.9e-4 -0.31252,-0.0342 -0.39768,-0.10075 -0.0656,-0.0478 -0.0979,-0.1162 -0.0979,-0.20198 -7e-5,-0.0672 0.0689,-0.1661 0.20863,-0.30007 0.18344,-0.18225 0.27592,-0.37931 0.27573,-0.58994 -2.1e-4,-0.21053 -0.0872,-0.39749 -0.26333,-0.55905 -0.17465,-0.16324 -0.39107,-0.24199 -0.64718,-0.24199 -0.34954,4.3e-4 -0.64428,0.11192 -0.88582,0.3378 -0.23986,0.22503 -0.36005,0.49226 -0.35976,0.79888 3.8e-4,0.38328 0.14899,0.69312 0.44563,0.93292 0.40298,0.34413 0.8917,0.51847 1.46619,0.51749 0.88195,-5.7e-4 1.7636,-0.31251 2.64412,-0.92909 1.15831,-0.80641 2.23934,-2.26638 3.24395,-4.37996 0.70782,-1.49756 1.45048,-3.60663 2.22793,-6.3265 l 1.68541,-6.326 2.10589,-0.002 0.25858,-0.91674 -2.09579,0.002 c 0.68786,-2.13685 1.14985,-3.49687 1.38433,-4.0783 0.45887,-1.11233 0.97952,-1.92822 1.56107,-2.45106 0.4343,-0.39381 0.92434,-0.59056 1.47187,-0.59105 0.21742,-1.7e-4 0.3825,0.047 0.49544,0.14114 0.0775,0.0665 0.11833,0.1642 0.11833,0.29639 5e-5,0.076 -0.063,0.22573 -0.18819,0.44831 -0.12594,0.22337 -0.1882,0.41125 -0.1882,0.56288 2.1e-4,0.23762 0.0924,0.44302 0.2769,0.61296 0.18463,0.17085 0.42142,0.25571 0.71457,0.2554 0.3403,-3.8e-4 0.62152,-0.11358 0.83866,-0.34111 0.21718,-0.22764 0.32632,-0.50741 0.32604,-0.83929 -3.8e-4,-0.42622 -0.2122,-0.8211 -0.63124,-1.18542 -0.41895,-0.36351 -0.97341,-0.54496 -1.66498,-0.54427 z m 13.05986,-0.0119 c -2.35423,1.04591 -4.26135,2.77875 -5.72307,5.20443 -1.46169,2.4257 -2.19202,5.11095 -2.18922,8.0516 0.002,2.0116 0.37608,3.95029 1.12419,5.81792 0.7481,1.86762 1.81268,3.49069 3.19209,4.86578 0.96709,0.96611 2.17499,1.81069 3.62117,2.53037 l -5.9e-4,-0.53909 c -0.97185,-0.66458 -1.75927,-1.36297 -2.3606,-2.09356 -0.60127,-0.73146 -1.07791,-1.49415 -1.43415,-2.28647 -0.35622,-0.79401 -0.66216,-1.84836 -0.91275,-3.15964 -0.31915,-1.66251 -0.4784,-3.51127 -0.48035,-5.54561 -0.002,-1.87254 0.18439,-3.66779 0.55755,-5.38823 0.37323,-1.72047 0.93879,-3.14118 1.69751,-4.26391 0.75789,-1.12192 1.7266,-2.00644 2.90864,-2.6545 l -5.7e-4,-0.53909 z m 17.0728,-0.0166 5.7e-4,0.53912 c 0.98116,0.66453 1.7669,1.36294 2.36397,2.09353 0.59624,0.73144 1.07625,1.49163 1.43753,2.27973 0.36128,0.78894 0.66047,1.83823 0.90265,3.14954 0.31832,1.67261 0.48178,3.52053 0.48373,5.5456 0.002,1.87255 -0.18273,3.66948 -0.55086,5.39498 -0.369,1.72548 -0.93453,3.14873 -1.69748,4.26728 -0.76296,1.11684 -1.73421,2.0039 -2.91539,2.66123 l 5.9e-4,0.53912 c 2.36264,-1.04591 4.2723,-2.78216 5.72979,-5.20783 1.45666,-2.4257 2.18527,-5.11008 2.18247,-8.05163 -0.002,-2.01996 -0.37946,-3.96034 -1.12756,-5.82464 -0.74807,-1.8634 -1.80593,-3.48813 -3.17525,-4.8725 -0.96792,-0.96612 -2.17919,-1.80311 -3.63461,-2.51353 z m -9.92264,7.39518 -3.78323,0.65055 3.8e-4,0.51215 c 0.28137,-0.019 0.53237,-0.0273 0.74799,-0.0278 0.67557,-6e-4 1.18617,0.12688 1.53345,0.38601 0.34731,0.25993 0.62991,0.70445 0.847,1.3301 0.0473,0.13568 0.36774,1.37266 0.95707,3.7122 -0.23715,0.53004 -0.74247,1.39058 -1.51041,2.58239 -0.76795,1.19183 -1.37454,1.96738 -1.82065,2.32666 -0.18012,0.15184 -0.32747,0.22954 -0.44117,0.22954 -0.13306,1.2e-4 -0.32273,-0.11429 -0.56976,-0.33977 -0.3423,-0.31302 -0.6642,-0.46743 -0.96747,-0.46743 -0.30323,1.9e-4 -0.56259,0.10171 -0.7713,0.30737 -0.20863,0.20649 -0.31292,0.46694 -0.31263,0.77523 4e-4,0.34707 0.11524,0.62323 0.34447,0.82856 0.3153,0.27096 0.66335,0.40671 1.04492,0.40671 0.54332,-5.9e-4 1.10579,-0.2369 1.68741,-0.7092 0.89557,-0.73619 2.08507,-2.38412 3.57022,-4.94295 0.61929,2.80952 1.02683,4.3978 1.22427,4.76657 0.30886,0.58514 0.72695,0.87919 1.2509,0.87822 0.35546,-3.8e-4 0.78909,-0.20887 1.30338,-0.62456 0.90649,-0.73794 1.65279,-1.6652 2.2414,-2.7819 l -0.49893,-0.25561 c -0.35905,0.70117 -0.78978,1.26764 -1.29563,1.70279 -0.25753,0.21766 -0.48318,0.32747 -0.67693,0.32747 -0.11953,1.1e-4 -0.24097,-0.072 -0.36073,-0.21861 -0.11976,-0.14638 -0.26676,-0.59446 -0.44267,-1.34061 l -1.16707,-4.85423 c 0.80563,-1.42097 1.49882,-2.37939 2.07956,-2.87608 0.30891,-0.26733 0.5758,-0.40154 0.80154,-0.40173 0.14994,-1.6e-4 0.4482,0.0779 0.88977,0.23839 0.22503,0.0908 0.43309,0.13782 0.63022,0.13758 0.33777,-3.8e-4 0.64005,-0.1219 0.90264,-0.36477 0.14068,-0.13473 0.20864,-0.38683 0.20816,-0.75495 -4e-4,-0.31841 -0.12095,-0.58953 -0.3613,-0.81168 -0.24028,-0.22218 -0.56216,-0.33303 -0.96733,-0.33265 -0.27293,1.9e-4 -0.52219,0.0461 -0.74789,0.14234 -0.35871,0.15374 -0.77203,0.44211 -1.24249,0.86037 -0.47049,0.41826 -0.86933,0.85498 -1.19825,1.31521 l -1.24152,1.90153 c -0.3872,-1.48218 -0.66605,-2.39669 -0.83485,-2.74528 -0.23715,-0.48921 -0.58973,-0.97826 -1.05266,-1.46806 z" />
        <path
           style="font-size:medium;font-style:normal;font-variant:normal;font-weight:normal;font-stretch:normal;text-indent:0;text-align:start;text-decoration:none;line-height:normal;letter-spacing:normal;word-spacing:normal;text-transform:none;direction:ltr;block-progression:tb;writing-mode:lr-tb;text-anchor:start;opacity:0.5;color:#000000;fill:#000000;fill-opacity:1;stroke:none;stroke-width:1.71088719;marker:none;visibility:visible;display:inline;overflow:visible;enable-background:accumulate;font-family:Bitstream Vera Sans;-inkscape-font-specification:Bitstream Vera Sans"
           d="m -701.81362,877.2063 -0.0305,37.11645 -61.99228,0.026 10e-4,1.64522 61.95941,0.007 -0.0309,36.7545 1.61233,-10e-4 0.0308,-36.75449 61.95939,0.007 -0.001,-1.67811 -61.9594,0.0261 0.0305,-37.14935 -1.57942,8.9e-4 z"
           id="path2918" />
        <path
           d="m -741.63417,888.66542 c -0.2758,2.4e-4 -0.5696,0.0892 -0.88173,0.26742 -0.31214,0.17824 -0.60966,0.44476 -0.89256,0.80059 -0.20678,0.2643 -0.42267,0.63672 -0.64838,1.11657 -0.16841,0.35607 -0.31423,0.59939 -0.43604,0.72925 -0.12183,0.13023 -0.2561,0.21791 -0.40247,0.26413 -0.14672,0.0462 -0.40441,0.0699 -0.77273,0.0702 l -0.0847,0.38579 1.15566,-6.5e-4 -1.13902,4.08346 c -0.25613,0.93328 -0.41335,1.48395 -0.47204,1.65098 -0.13078,0.40389 -0.26909,0.71314 -0.416,0.92775 -0.14621,0.2139 -0.31408,0.37429 -0.50293,0.4826 -0.18813,0.10794 -0.36639,0.16357 -0.53726,0.16357 -0.0752,8e-5 -0.13152,-0.0144 -0.16736,-0.0424 -0.0276,-0.0201 -0.0412,-0.0489 -0.0412,-0.085 -3e-5,-0.0283 0.029,-0.0699 0.0878,-0.12628 0.0772,-0.0767 0.11612,-0.15963 0.11604,-0.24827 -9e-5,-0.0886 -0.0367,-0.16728 -0.11082,-0.23527 -0.0735,-0.0687 -0.16458,-0.10184 -0.27236,-0.10184 -0.1471,1.8e-4 -0.27114,0.0471 -0.37279,0.14216 -0.10094,0.0947 -0.15152,0.20716 -0.1514,0.3362 1.6e-4,0.1613 0.0627,0.29169 0.18754,0.39261 0.16959,0.14482 0.37526,0.21819 0.61703,0.21778 0.37116,-2.4e-4 0.74219,-0.13152 1.11275,-0.391 0.48746,-0.33937 0.9424,-0.95378 1.36518,-1.84326 0.29788,-0.63023 0.61042,-1.51781 0.9376,-2.66244 l 0.70929,-2.66223 0.88624,-6.5e-4 0.10882,-0.3858 -0.88199,6.5e-4 c 0.28948,-0.89927 0.4839,-1.47162 0.58258,-1.71631 0.19311,-0.46811 0.41222,-0.81147 0.65696,-1.0315 0.18277,-0.16573 0.389,-0.24853 0.61942,-0.24874 0.0915,-7e-5 0.16097,0.0198 0.2085,0.0594 0.0326,0.028 0.0498,0.0691 0.0498,0.12473 2e-5,0.032 -0.0265,0.095 -0.0792,0.18867 -0.053,0.094 -0.0792,0.17307 -0.0792,0.23688 9e-5,0.1 0.0389,0.18644 0.11653,0.25796 0.0777,0.0719 0.17735,0.10761 0.30072,0.10748 0.14321,-1.6e-4 0.26156,-0.0478 0.35294,-0.14355 0.0914,-0.0958 0.13733,-0.21354 0.13721,-0.35321 -1.6e-4,-0.17937 -0.0893,-0.34555 -0.26565,-0.49887 -0.17631,-0.15298 -0.40965,-0.22934 -0.70069,-0.22905 z m 5.4961,-0.005 c -0.99075,0.44016 -1.79334,1.16941 -2.40849,2.19023 -0.61514,1.02083 -0.92249,2.15089 -0.92131,3.38843 6.4e-4,0.84656 0.15827,1.66244 0.4731,2.44841 0.31483,0.78597 0.76285,1.46902 1.34336,2.04771 0.40699,0.40658 0.91532,0.76201 1.52393,1.06488 l -2.5e-4,-0.22687 c -0.40899,-0.27968 -0.74037,-0.57359 -0.99343,-0.88105 -0.25304,-0.30783 -0.45363,-0.6288 -0.60355,-0.96224 -0.14991,-0.33415 -0.27866,-0.77786 -0.38412,-1.3297 -0.13431,-0.69965 -0.20133,-1.47768 -0.20215,-2.33381 -6.4e-4,-0.78804 0.0776,-1.54355 0.23464,-2.26758 0.15707,-0.72404 0.39508,-1.32193 0.71438,-1.79442 0.31895,-0.47215 0.72662,-0.84439 1.22407,-1.11712 l -2.4e-4,-0.22687 z m 7.18491,-0.007 2.4e-4,0.22688 c 0.41291,0.27966 0.74358,0.57358 0.99485,0.88104 0.25092,0.30782 0.45293,0.62774 0.60497,0.9594 0.15204,0.33202 0.27795,0.7736 0.37987,1.32545 0.13396,0.7039 0.20275,1.48158 0.20357,2.33381 6.4e-4,0.78804 -0.0769,1.54426 -0.23182,2.27042 -0.15529,0.72615 -0.39329,1.32511 -0.71437,1.79584 -0.32108,0.47001 -0.72982,0.84332 -1.22691,1.11995 l 2.5e-4,0.22688 c 0.99429,-0.44016 1.79795,-1.17084 2.41132,-2.19166 0.61302,-1.02083 0.91965,-2.15052 0.91847,-3.38844 -6.4e-4,-0.85008 -0.15969,-1.66667 -0.47452,-2.45124 -0.31482,-0.78419 -0.76001,-1.46794 -1.33627,-2.05054 -0.40734,-0.40658 -0.91709,-0.75882 -1.52959,-1.05779 z m -4.17584,3.11218 -1.59213,0.27378 1.6e-4,0.21553 c 0.11841,-0.008 0.22404,-0.0115 0.31478,-0.0117 0.28431,-2.5e-4 0.49919,0.0534 0.64534,0.16245 0.14616,0.10939 0.26509,0.29646 0.35645,0.55976 0.0199,0.0571 0.15476,0.57767 0.40277,1.56224 -0.0998,0.22306 -0.31246,0.58521 -0.63564,1.08677 -0.32318,0.50157 -0.57846,0.82795 -0.7662,0.97915 -0.0758,0.0639 -0.13781,0.0966 -0.18566,0.0966 -0.056,5e-5 -0.13582,-0.0481 -0.23978,-0.14299 -0.14405,-0.13173 -0.27952,-0.19671 -0.40715,-0.19671 -0.12761,8e-5 -0.23676,0.0428 -0.32459,0.12935 -0.0878,0.0869 -0.13169,0.19651 -0.13157,0.32625 1.7e-4,0.14606 0.0485,0.26228 0.14497,0.34869 0.13269,0.11403 0.27916,0.17116 0.43974,0.17116 0.22865,-2.5e-4 0.46536,-0.0997 0.71013,-0.29846 0.37689,-0.30982 0.87748,-1.00333 1.50249,-2.08019 0.26062,1.18236 0.43213,1.85077 0.51522,2.00596 0.12998,0.24625 0.30593,0.37 0.52643,0.36959 0.14959,-1.6e-4 0.33208,-0.0879 0.54851,-0.26284 0.38149,-0.31055 0.69556,-0.70078 0.94327,-1.17073 l -0.20997,-0.10757 c -0.1511,0.29508 -0.33237,0.53347 -0.54525,0.7166 -0.10838,0.0916 -0.20334,0.13781 -0.28488,0.13781 -0.0503,5e-5 -0.10141,-0.0303 -0.15181,-0.092 -0.0504,-0.0616 -0.11226,-0.25017 -0.18629,-0.56418 l -0.49115,-2.04285 c 0.33904,-0.598 0.63076,-1.00134 0.87516,-1.21037 0.13,-0.1125 0.24232,-0.16898 0.33732,-0.16906 0.0631,-7e-5 0.18862,0.0328 0.37445,0.10032 0.0947,0.0382 0.18226,0.058 0.26522,0.0579 0.14215,-1.6e-4 0.26936,-0.0513 0.37987,-0.15351 0.0592,-0.0567 0.0878,-0.16279 0.0876,-0.31771 -1.7e-4,-0.134 -0.0509,-0.2481 -0.15205,-0.34159 -0.10112,-0.0935 -0.23658,-0.14015 -0.40709,-0.13999 -0.11486,8e-5 -0.21976,0.0194 -0.31474,0.0599 -0.15096,0.0647 -0.3249,0.18606 -0.52289,0.36208 -0.198,0.17602 -0.36585,0.35981 -0.50427,0.55349 l -0.52248,0.80024 c -0.16295,-0.62376 -0.2803,-1.00862 -0.35134,-1.15532 -0.0998,-0.20588 -0.24818,-0.41169 -0.443,-0.61782 z"
           id="path2920" />
      </g>
    </g>
    <g
       id="g3775"
       transform="matrix(0.89603046,0,0,0.89603046,1.5117336,94.843465)">
      <path
         transform="matrix(0.96979629,0,0,0.96979629,-1.1390548,34.413885)"
         style="opacity:0.74410771;fill:none;stroke:#000000;stroke-width:2.11500001;stroke-linecap:round;stroke-linejoin:miter;stroke-miterlimit:4;stroke-opacity:1;stroke-dasharray:none;filter:url(#filter3642)"
         d="m 29.830182,1046.0852 c 15.6421,-90.5081 30.33157,-91.452 39.9255,-52.05472 19.94861,71.45022 33.031548,-25.40705 36.727188,-68.76644"
         id="path3628"
         sodipodi:nodetypes="ccc" />
      <path
         sodipodi:nodetypes="ccc"
         id="path2816"
         d="M 27.790145,1048.9035 C 42.959796,961.12902 57.205589,960.21363 66.509747,998.42096 85.855835,1067.7131 98.54362,973.7813 102.12763,931.73152"
         style="fill:none;stroke:url(#linearGradient3779);stroke-width:2.5;stroke-linecap:round;stroke-linejoin:miter;stroke-miterlimit:4;stroke-opacity:1;stroke-dasharray:none" />
    </g>
    <rect
       style="color:#000000;fill:#ffffff;fill-opacity:1;fill-rule:evenodd;stroke:none;stroke-width:1;marker:none;visibility:visible;display:inline;overflow:visible;enable-background:accumulate"
       id="rect3773"
       width="0.26631248"
       height="2.1304998"
       x="58.169907"
       y="946.67535" />
    <rect
       style="fill:#717171;fill-opacity:1;fill-rule:evenodd;stroke:#000000;stroke-width:0.5000003;stroke-miterlimit:4;stroke-opacity:1;stroke-dasharray:none;filter:url(#filter3903)"
       id="rect2912"
       width="100.14089"
       height="59.804661"
       x="10.577864"
       y="957.71112"
       transform="matrix(0.89602818,-0.00202156,0.00343919,0.89602385,-328.12841,96.635515)"
       ry="0" />
    <rect
       ry="0"
       transform="matrix(0.99999745,-0.00225613,0.00383826,0.99999263,0,0)"
       y="954.03333"
       x="-319.01923"
       height="53.586796"
       width="89.729286"
       id="rect2914"
       style="fill:url(#linearGradient2930);fill-opacity:1;fill-rule:evenodd;stroke:#ffffff;stroke-width:0.44801551;stroke-miterlimit:4;stroke-opacity:1;stroke-dasharray:none" />
    <path
       id="path2916"
       d="m -225.63479,954.1922 -89.72207,0.18954 a 0.36545222,0.36487448 0.7823513 0 0 -0.11847,0 0.36545222,0.36487448 0.7823513 0 0 -0.23692,0.35537 l 0.14216,35.8463 c 27.98123,-16.06924 63.90136,-27.54538 90.29068,-34.56693 l 0,-1.46891 a 0.36545222,0.36487448 0.7823513 0 0 -0.35538,-0.35537 z"
       style="fill:url(#linearGradient2932);fill-opacity:1;fill-rule:evenodd;stroke:none" />
    <g
       transform="matrix(0.89603046,0,0,0.89603046,-329.92047,94.843465)"
       id="g2922">
      <path
         sodipodi:nodetypes="ccc"
         id="path2924"
         d="m 29.830182,1046.0852 c 15.6421,-90.5081 30.33157,-91.452 39.9255,-52.05472 19.94861,71.45022 33.031548,-25.40705 36.727188,-68.76644"
         style="opacity:0.74410771;fill:none;stroke:#000000;stroke-width:2.11500001;stroke-linecap:round;stroke-linejoin:miter;stroke-miterlimit:4;stroke-opacity:1;stroke-dasharray:none;filter:url(#filter3642)"
         transform="matrix(0.96979629,0,0,0.96979629,-1.1390548,34.413885)" />
      <path
         style="fill:none;stroke:url(#linearGradient2934);stroke-width:2.5;stroke-linecap:round;stroke-linejoin:miter;stroke-miterlimit:4;stroke-opacity:1;stroke-dasharray:none"
         d="M 27.790145,1048.9035 C 42.959796,961.12902 57.205589,960.21363 66.509747,998.42096 85.855835,1067.7131 98.54362,973.7813 102.12763,931.73152"
         id="path2926"
         sodipodi:nodetypes="ccc" />
    </g>
    <rect
       y="946.67535"
       x="-273.2623"
       height="2.1304998"
       width="0.26631248"
       id="rect2928"
       style="color:#000000;fill:#ffffff;fill-opacity:1;fill-rule:evenodd;stroke:none;stroke-width:1;marker:none;visibility:visible;display:inline;overflow:visible;enable-background:accumulate" />
  </g>
</svg>
