<?xml version="1.0" encoding="UTF-8" standalone="no"?>
<!-- Created with Inkscape (http://www.inkscape.org/) -->
<svg
   xmlns:dc="http://purl.org/dc/elements/1.1/"
   xmlns:cc="http://creativecommons.org/ns#"
   xmlns:rdf="http://www.w3.org/1999/02/22-rdf-syntax-ns#"
   xmlns:svg="http://www.w3.org/2000/svg"
   xmlns="http://www.w3.org/2000/svg"
   xmlns:xlink="http://www.w3.org/1999/xlink"
   xmlns:sodipodi="http://sodipodi.sourceforge.net/DTD/sodipodi-0.dtd"
   xmlns:inkscape="http://www.inkscape.org/namespaces/inkscape"
   width="128"
   height="128"
   id="svg10354"
   sodipodi:version="0.32"
   inkscape:version="0.46"
   version="1.0"
   sodipodi:docname="gnome-cpu.svg"
   inkscape:output_extension="org.inkscape.output.svg.inkscape">
  <defs
     id="defs10356">
    <linearGradient
       id="linearGradient11458">
      <stop
         style="stop-color:#000000;stop-opacity:1;"
         offset="0"
         id="stop11460" />
      <stop
         style="stop-color:#999999;stop-opacity:1;"
         offset="1"
         id="stop11462" />
    </linearGradient>
    <linearGradient
       id="linearGradient10891">
      <stop
         style="stop-color:#ffffff;stop-opacity:1;"
         offset="0"
         id="stop10893" />
      <stop
         id="stop10899"
         offset="0.7228412"
         style="stop-color:#848484;stop-opacity:1;" />
      <stop
         style="stop-color:#cbcbcb;stop-opacity:1;"
         offset="1"
         id="stop10895" />
    </linearGradient>
    <linearGradient
       inkscape:collect="always"
       xlink:href="#linearGradient10891"
       id="linearGradient3131"
       gradientUnits="userSpaceOnUse"
       gradientTransform="matrix(0,-1.2764122,-2.558401,0,71.62003,83.375495)"
       x1="19.129763"
       y1="24.412012"
       x2="19.129763"
       y2="18.745687" />
    <linearGradient
       inkscape:collect="always"
       xlink:href="#linearGradient10891"
       id="linearGradient3133"
       gradientUnits="userSpaceOnUse"
       gradientTransform="matrix(1.2764122,0,0,-2.558401,43.000857,68.858874)"
       x1="19.129763"
       y1="24.412012"
       x2="19.129763"
       y2="18.745687" />
    <linearGradient
       inkscape:collect="always"
       xlink:href="#linearGradient10891"
       id="linearGradient3135"
       gradientUnits="userSpaceOnUse"
       gradientTransform="matrix(0,-1.2764122,2.488133,0,58.145949,83.375495)"
       x1="19.129763"
       y1="24.412012"
       x2="19.129763"
       y2="18.745687" />
    <linearGradient
       inkscape:collect="always"
       xlink:href="#linearGradient10891"
       id="linearGradient3137"
       gradientUnits="userSpaceOnUse"
       gradientTransform="matrix(1.2764122,0,0,2.7692047,43.000857,50.928)"
       x1="19.129763"
       y1="24.412012"
       x2="19.129763"
       y2="18.745687" />
    <linearGradient
       inkscape:collect="always"
       xlink:href="#linearGradient11458"
       id="linearGradient3139"
       gradientUnits="userSpaceOnUse"
       gradientTransform="matrix(2.2308356,0,0,5.8506833,-25.974382,-294.96813)"
       x1="59.025036"
       y1="68.269653"
       x2="17.472359"
       y2="50.344524" />
  </defs>
  <sodipodi:namedview
     id="base"
     pagecolor="#ffffff"
     bordercolor="#666666"
     borderopacity="1.0"
     gridtolerance="10000"
     guidetolerance="10"
     objecttolerance="10"
     inkscape:pageopacity="0.0"
     inkscape:pageshadow="2"
     inkscape:zoom="1.4"
     inkscape:cx="64.500013"
     inkscape:cy="101.23077"
     inkscape:document-units="px"
     inkscape:current-layer="layer1"
     showgrid="false"
     inkscape:showpageshadow="false"
     inkscape:window-width="1280"
     inkscape:window-height="956"
     inkscape:window-x="0"
     inkscape:window-y="46" />
  <metadata
     id="metadata10359">
    <rdf:RDF>
      <cc:Work
         rdf:about="">
        <dc:format>image/svg+xml</dc:format>
        <dc:type
           rdf:resource="http://purl.org/dc/dcmitype/StillImage" />
      </cc:Work>
    </rdf:RDF>
  </metadata>
  <g
     inkscape:label="Layer 1"
     inkscape:groupmode="layer"
     id="layer1">
    <g
       id="g3124"
       transform="translate(1.59357e-2,1.4097938)">
      <path
         id="path3120"
         d="M 24.551335,95.032595 C 24.551335,95.702265 24.459081,96.251355 24.302268,96.251355 L 6.4524766,96.251355 C 6.2956641,96.251345 6.1618986,95.702265 6.1618986,95.032595 C 6.1618986,94.362925 6.2956641,93.845095 6.4524766,93.845095 L 24.302268,93.845095 C 24.459081,93.845095 24.551335,94.362935 24.551335,95.032595 z M 24.551335,87.751355 C 24.551335,88.421025 24.459081,88.938855 24.302268,88.938855 L 6.4524766,88.938855 C 6.2956641,88.938855 6.1618986,88.421015 6.1618986,87.751355 C 6.1618986,87.081685 6.2956641,86.532595 6.4524766,86.532595 L 24.302268,86.532595 C 24.459081,86.532605 24.551335,87.081685 24.551335,87.751355 z M 24.551335,80.470095 C 24.551335,81.139775 24.459081,81.688855 24.302268,81.688855 L 6.4524766,81.688855 C 6.2956641,81.688855 6.1618986,81.139765 6.1618986,80.470095 C 6.1618986,79.800435 6.2956641,79.282595 6.4524766,79.282595 L 24.302268,79.282595 C 24.459081,79.282605 24.551335,79.800435 24.551335,80.470095 z M 24.551335,73.157595 C 24.551335,73.827275 24.459081,74.376355 24.302268,74.376355 L 6.4524766,74.376355 C 6.2956641,74.376355 6.1618986,73.827265 6.1618986,73.157595 C 6.1618986,72.487935 6.2956641,71.938855 6.4524766,71.938855 L 24.302268,71.938855 C 24.459081,71.938855 24.551335,72.487935 24.551335,73.157595 z M 24.551335,65.813855 C 24.551335,66.483525 24.459081,67.032595 24.302268,67.032595 L 6.4524766,67.032595 C 6.2956641,67.032605 6.1618986,66.483515 6.1618986,65.813855 C 6.1618986,65.144185 6.2956641,64.595095 6.4524766,64.595095 L 24.302268,64.595095 C 24.459081,64.595105 24.551335,65.144185 24.551335,65.813855 z M 24.551335,58.938855 C 24.551335,59.608525 24.459081,60.157595 24.302268,60.157595 L 6.4524766,60.157595 C 6.2956641,60.157605 6.1618986,59.608515 6.1618986,58.938855 C 6.1618986,58.269185 6.2956641,57.751355 6.4524766,57.751355 L 24.302268,57.751355 C 24.459081,57.751355 24.551335,58.269185 24.551335,58.938855 z M 24.551335,51.6576 C 24.551335,52.327273 24.459081,52.8451 24.302268,52.8451 L 6.4524766,52.8451 C 6.2956641,52.845103 6.1618986,52.32727 6.1618986,51.6576 C 6.1618986,50.987933 6.2956641,50.43885 6.4524766,50.43885 L 24.302268,50.43885 C 24.459081,50.438853 24.551335,50.98793 24.551335,51.6576 z M 24.551335,44.37635 C 24.551335,45.046023 24.459081,45.5951 24.302268,45.5951 L 6.4524766,45.5951 C 6.2956641,45.595103 6.1618986,45.04602 6.1618986,44.37635 C 6.1618986,43.706683 6.2956641,43.18885 6.4524766,43.18885 L 24.302268,43.18885 C 24.459081,43.188853 24.551335,43.70668 24.551335,44.37635 z M 24.551335,37.06385 C 24.551335,37.733523 24.459081,38.2826 24.302268,38.2826 L 6.4524766,38.2826 C 6.2956641,38.282603 6.1618986,37.73352 6.1618986,37.06385 C 6.1618986,36.394183 6.2956641,35.8451 6.4524766,35.8451 L 24.302268,35.8451 C 24.459081,35.845103 24.551335,36.39418 24.551335,37.06385 z M 24.551335,29.7201 C 24.551335,30.389773 24.459081,30.93885 24.302268,30.93885 L 6.4524766,30.93885 C 6.2956641,30.938853 6.1618986,30.38977 6.1618986,29.7201 C 6.1618986,29.050433 6.2956641,28.50135 6.4524766,28.50135 L 24.302268,28.50135 C 24.459081,28.501353 24.551335,29.05043 24.551335,29.7201 z"
         style="opacity:0.98000004;fill:url(#linearGradient3131);fill-opacity:1;stroke:none;stroke-width:1;stroke-linecap:round;stroke-linejoin:round;stroke-miterlimit:4;stroke-dasharray:none;stroke-opacity:1" />
      <path
         style="opacity:0.98000004;fill:url(#linearGradient3133);fill-opacity:1;stroke:none;stroke-width:1;stroke-linecap:round;stroke-linejoin:round;stroke-miterlimit:4;stroke-dasharray:none;stroke-opacity:1"
         d="M 31.34375,21.790179 C 30.674081,21.790179 30.125,21.697925 30.125,21.541112 L 30.125,3.6913205 C 30.125001,3.534508 30.67408,3.4007425 31.34375,3.4007425 C 32.013421,3.4007425 32.53125,3.534508 32.53125,3.6913205 L 32.53125,21.541112 C 32.531251,21.697925 32.01342,21.790179 31.34375,21.790179 z M 38.625,21.790179 C 37.955329,21.790179 37.4375,21.697925 37.4375,21.541112 L 37.4375,3.6913205 C 37.437499,3.534508 37.95533,3.4007425 38.625,3.4007425 C 39.294669,3.4007425 39.84375,3.534508 39.84375,3.6913205 L 39.84375,21.541112 C 39.843749,21.697925 39.29467,21.790179 38.625,21.790179 z M 45.90625,21.790179 C 45.236579,21.790179 44.6875,21.697925 44.6875,21.541112 L 44.6875,3.6913205 C 44.687499,3.534508 45.23658,3.4007425 45.90625,3.4007425 C 46.575919,3.4007425 47.09375,3.534508 47.09375,3.6913205 L 47.09375,21.541112 C 47.093749,21.697925 46.57592,21.790179 45.90625,21.790179 z M 53.21875,21.790179 C 52.549079,21.790179 52,21.697925 52,21.541112 L 52,3.6913205 C 51.999999,3.534508 52.54908,3.4007425 53.21875,3.4007425 C 53.888419,3.4007425 54.4375,3.534508 54.4375,3.6913205 L 54.4375,21.541112 C 54.437499,21.697925 53.88842,21.790179 53.21875,21.790179 z M 60.5625,21.790179 C 59.892829,21.790179 59.34375,21.697925 59.34375,21.541112 L 59.34375,3.6913205 C 59.343749,3.534508 59.89283,3.4007425 60.5625,3.4007425 C 61.232169,3.4007425 61.78125,3.534508 61.78125,3.6913205 L 61.78125,21.541112 C 61.781249,21.697925 61.23217,21.790179 60.5625,21.790179 z M 67.4375,21.790179 C 66.767827,21.790179 66.21875,21.697925 66.21875,21.541112 L 66.21875,3.6913205 C 66.218747,3.534508 66.76783,3.4007425 67.4375,3.4007425 C 68.107167,3.4007425 68.625,3.534508 68.625,3.6913205 L 68.625,21.541112 C 68.624997,21.697925 68.10717,21.790179 67.4375,21.790179 z M 74.71875,21.790179 C 74.049077,21.790179 73.53125,21.697925 73.53125,21.541112 L 73.53125,3.6913205 C 73.531247,3.534508 74.04908,3.4007425 74.71875,3.4007425 C 75.388417,3.4007425 75.9375,3.534508 75.9375,3.6913205 L 75.9375,21.541112 C 75.937497,21.697925 75.38842,21.790179 74.71875,21.790179 z M 82,21.790179 C 81.330327,21.790179 80.78125,21.697925 80.78125,21.541112 L 80.78125,3.6913205 C 80.781247,3.534508 81.33033,3.4007425 82,3.4007425 C 82.669667,3.4007425 83.1875,3.534508 83.1875,3.6913205 L 83.1875,21.541112 C 83.187497,21.697925 82.66967,21.790179 82,21.790179 z M 89.3125,21.790179 C 88.642827,21.790179 88.09375,21.697925 88.09375,21.541112 L 88.09375,3.6913205 C 88.093747,3.534508 88.64283,3.4007425 89.3125,3.4007425 C 89.982167,3.4007425 90.53125,3.534508 90.53125,3.6913205 L 90.53125,21.541112 C 90.531247,21.697925 89.98217,21.790179 89.3125,21.790179 z M 96.65625,21.790179 C 95.986577,21.790179 95.4375,21.697925 95.4375,21.541112 L 95.4375,3.6913205 C 95.437497,3.534508 95.98658,3.4007425 96.65625,3.4007425 C 97.325917,3.4007425 97.875,3.534508 97.875,3.6913205 L 97.875,21.541112 C 97.874997,21.697925 97.32592,21.790179 96.65625,21.790179 z"
         id="path3116" />
      <path
         style="opacity:0.98000004;fill:url(#linearGradient3135);fill-opacity:1;stroke:none;stroke-width:1;stroke-linecap:round;stroke-linejoin:round;stroke-miterlimit:4;stroke-dasharray:none;stroke-opacity:1"
         d="M 103.92187,95.032595 C 103.92187,95.702265 104.01159,96.251355 104.1641,96.251355 L 121.52363,96.251355 C 121.67614,96.251345 121.80623,95.702265 121.80623,95.032595 C 121.80623,94.362925 121.67614,93.845095 121.52363,93.845095 L 104.1641,93.845095 C 104.01159,93.845095 103.92187,94.362935 103.92187,95.032595 z M 103.92187,87.751355 C 103.92187,88.421025 104.01159,88.938855 104.1641,88.938855 L 121.52363,88.938855 C 121.67614,88.938855 121.80623,88.421015 121.80623,87.751355 C 121.80623,87.081685 121.67614,86.532595 121.52363,86.532595 L 104.1641,86.532595 C 104.01159,86.532605 103.92187,87.081685 103.92187,87.751355 z M 103.92187,80.470095 C 103.92187,81.139775 104.01159,81.688855 104.1641,81.688855 L 121.52363,81.688855 C 121.67614,81.688855 121.80623,81.139765 121.80623,80.470095 C 121.80623,79.800435 121.67614,79.282595 121.52363,79.282595 L 104.1641,79.282595 C 104.01159,79.282605 103.92187,79.800435 103.92187,80.470095 z M 103.92187,73.157595 C 103.92187,73.827275 104.01159,74.376355 104.1641,74.376355 L 121.52363,74.376355 C 121.67614,74.376355 121.80623,73.827265 121.80623,73.157595 C 121.80623,72.487935 121.67614,71.938855 121.52363,71.938855 L 104.1641,71.938855 C 104.01159,71.938855 103.92187,72.487935 103.92187,73.157595 z M 103.92187,65.813855 C 103.92187,66.483525 104.01159,67.032595 104.1641,67.032595 L 121.52363,67.032595 C 121.67614,67.032605 121.80623,66.483515 121.80623,65.813855 C 121.80623,65.144185 121.67614,64.595095 121.52363,64.595095 L 104.1641,64.595095 C 104.01159,64.595105 103.92187,65.144185 103.92187,65.813855 z M 103.92187,58.938855 C 103.92187,59.608525 104.01159,60.157595 104.1641,60.157595 L 121.52363,60.157595 C 121.67614,60.157605 121.80623,59.608515 121.80623,58.938855 C 121.80623,58.269185 121.67614,57.751355 121.52363,57.751355 L 104.1641,57.751355 C 104.01159,57.751355 103.92187,58.269185 103.92187,58.938855 z M 103.92187,51.6576 C 103.92187,52.327273 104.01159,52.8451 104.1641,52.8451 L 121.52363,52.8451 C 121.67614,52.845103 121.80623,52.32727 121.80623,51.6576 C 121.80623,50.987933 121.67614,50.43885 121.52363,50.43885 L 104.1641,50.43885 C 104.01159,50.438853 103.92187,50.98793 103.92187,51.6576 z M 103.92187,44.37635 C 103.92187,45.046023 104.01159,45.5951 104.1641,45.5951 L 121.52363,45.5951 C 121.67614,45.595103 121.80623,45.04602 121.80623,44.37635 C 121.80623,43.706683 121.67614,43.18885 121.52363,43.18885 L 104.1641,43.18885 C 104.01159,43.188853 103.92187,43.70668 103.92187,44.37635 z M 103.92187,37.06385 C 103.92187,37.733523 104.01159,38.2826 104.1641,38.2826 L 121.52363,38.2826 C 121.67614,38.282603 121.80623,37.73352 121.80623,37.06385 C 121.80623,36.394183 121.67614,35.8451 121.52363,35.8451 L 104.1641,35.8451 C 104.01159,35.845103 103.92187,36.39418 103.92187,37.06385 z M 103.92187,29.7201 C 103.92187,30.389773 104.01159,30.93885 104.1641,30.93885 L 121.52363,30.93885 C 121.67614,30.938853 121.80623,30.38977 121.80623,29.7201 C 121.80623,29.050433 121.67614,28.50135 121.52363,28.50135 L 104.1641,28.50135 C 104.01159,28.501353 103.92187,29.05043 103.92187,29.7201 z"
         id="path3110" />
      <path
         id="path3105"
         d="M 31.34375,101.875 C 30.674081,101.875 30.125,101.97485 30.125,102.14459 L 30.125,121.46515 C 30.125001,121.63488 30.67408,121.77967 31.34375,121.77967 C 32.013421,121.77967 32.53125,121.63488 32.53125,121.46515 L 32.53125,102.14459 C 32.531251,101.97485 32.01342,101.875 31.34375,101.875 z M 38.625,101.875 C 37.955329,101.875 37.4375,101.97485 37.4375,102.14459 L 37.4375,121.46515 C 37.437499,121.63488 37.95533,121.77967 38.625,121.77967 C 39.294669,121.77967 39.84375,121.63488 39.84375,121.46515 L 39.84375,102.14459 C 39.843749,101.97485 39.29467,101.875 38.625,101.875 z M 45.90625,101.875 C 45.236579,101.875 44.6875,101.97485 44.6875,102.14459 L 44.6875,121.46515 C 44.687499,121.63488 45.23658,121.77967 45.90625,121.77967 C 46.575919,121.77967 47.09375,121.63488 47.09375,121.46515 L 47.09375,102.14459 C 47.093749,101.97485 46.57592,101.875 45.90625,101.875 z M 53.21875,101.875 C 52.549079,101.875 52,101.97485 52,102.14459 L 52,121.46515 C 51.999999,121.63488 52.54908,121.77967 53.21875,121.77967 C 53.888419,121.77967 54.4375,121.63488 54.4375,121.46515 L 54.4375,102.14459 C 54.437499,101.97485 53.88842,101.875 53.21875,101.875 z M 60.5625,101.875 C 59.892829,101.875 59.34375,101.97485 59.34375,102.14459 L 59.34375,121.46515 C 59.343749,121.63488 59.89283,121.77967 60.5625,121.77967 C 61.232169,121.77967 61.78125,121.63488 61.78125,121.46515 L 61.78125,102.14459 C 61.781249,101.97485 61.23217,101.875 60.5625,101.875 z M 67.4375,101.875 C 66.767827,101.875 66.21875,101.97485 66.21875,102.14459 L 66.21875,121.46515 C 66.218747,121.63488 66.76783,121.77967 67.4375,121.77967 C 68.107167,121.77967 68.625,121.63488 68.625,121.46515 L 68.625,102.14459 C 68.624997,101.97485 68.10717,101.875 67.4375,101.875 z M 74.71875,101.875 C 74.049077,101.875 73.53125,101.97485 73.53125,102.14459 L 73.53125,121.46515 C 73.531247,121.63488 74.04908,121.77967 74.71875,121.77967 C 75.388417,121.77967 75.9375,121.63488 75.9375,121.46515 L 75.9375,102.14459 C 75.937497,101.97485 75.38842,101.875 74.71875,101.875 z M 82,101.875 C 81.330327,101.875 80.78125,101.97485 80.78125,102.14459 L 80.78125,121.46515 C 80.781247,121.63488 81.33033,121.77967 82,121.77967 C 82.669667,121.77967 83.1875,121.63488 83.1875,121.46515 L 83.1875,102.14459 C 83.187497,101.97485 82.66967,101.875 82,101.875 z M 89.3125,101.875 C 88.642827,101.875 88.09375,101.97485 88.09375,102.14459 L 88.09375,121.46515 C 88.093747,121.63488 88.64283,121.77967 89.3125,121.77967 C 89.982167,121.77967 90.53125,121.63488 90.53125,121.46515 L 90.53125,102.14459 C 90.531247,101.97485 89.98217,101.875 89.3125,101.875 z M 96.65625,101.875 C 95.986577,101.875 95.4375,101.97485 95.4375,102.14459 L 95.4375,121.46515 C 95.437497,121.63488 95.98658,121.77967 96.65625,121.77967 C 97.325917,121.77967 97.875,121.63488 97.875,121.46515 L 97.875,102.14459 C 97.874997,101.97485 97.32592,101.875 96.65625,101.875 z"
         style="opacity:0.98000004;fill:url(#linearGradient3137);fill-opacity:1;stroke:none;stroke-width:1;stroke-linecap:round;stroke-linejoin:round;stroke-miterlimit:4;stroke-dasharray:none;stroke-opacity:1" />
      <rect
         ry="10.34351"
         rx="4.5788813"
         y="23.222059"
         x="24.845707"
         height="78.308586"
         width="78.308586"
         id="rect10376"
         style="opacity:0.98000004;fill:url(#linearGradient3139);fill-opacity:1;stroke:#848484;stroke-width:3.61274338;stroke-linecap:round;stroke-linejoin:round;stroke-miterlimit:4;stroke-dasharray:none;stroke-opacity:1" />
    </g>
  </g>
</svg>
