<?xml version="1.0" encoding="UTF-8" standalone="no"?>
<!-- Created with Inkscape (http://www.inkscape.org/) -->
<svg
   xmlns:dc="http://purl.org/dc/elements/1.1/"
   xmlns:cc="http://creativecommons.org/ns#"
   xmlns:rdf="http://www.w3.org/1999/02/22-rdf-syntax-ns#"
   xmlns:svg="http://www.w3.org/2000/svg"
   xmlns="http://www.w3.org/2000/svg"
   xmlns:sodipodi="http://sodipodi.sourceforge.net/DTD/sodipodi-0.dtd"
   xmlns:inkscape="http://www.inkscape.org/namespaces/inkscape"
   width="128"
   height="128"
   id="svg2"
   sodipodi:version="0.32"
   inkscape:version="0.46"
   version="1.0"
   sodipodi:docname="im-icq.svg"
   inkscape:output_extension="org.inkscape.output.svg.inkscape">
  <defs
     id="defs4" />
  <sodipodi:namedview
     id="base"
     pagecolor="#ffffff"
     bordercolor="#666666"
     borderopacity="1.0"
     gridtolerance="10000"
     guidetolerance="10"
     objecttolerance="10"
     inkscape:pageopacity="0.0"
     inkscape:pageshadow="2"
     inkscape:zoom="1.979899"
     inkscape:cx="16.757036"
     inkscape:cy="19.149148"
     inkscape:document-units="px"
     inkscape:current-layer="layer1"
     showgrid="false"
     inkscape:showpageshadow="false"
     inkscape:window-width="1270"
     inkscape:window-height="954"
     inkscape:window-x="4"
     inkscape:window-y="46" />
  <metadata
     id="metadata7">
    <rdf:RDF>
      <cc:Work
         rdf:about="">
        <dc:format>image/svg+xml</dc:format>
        <dc:type
           rdf:resource="http://purl.org/dc/dcmitype/StillImage" />
      </cc:Work>
    </rdf:RDF>
  </metadata>
  <g
     inkscape:label="Layer 1"
     inkscape:groupmode="layer"
     id="layer1">
    <g
       id="g3205"
       style="stroke:#f9f3ea;stroke-opacity:1">
      <path
         sodipodi:nodetypes="ccssc"
         id="path3470"
         d="M 77.684812,17.970537 C 76.165546,25.680977 71.932446,56.097627 63.994602,61.355008 C 56.224732,57.884251 49.533111,25.314661 49.533111,17.970537 C 49.533111,10.626414 55.839092,4.6659659 63.608962,4.6659659 C 71.378831,4.6659659 77.684812,10.626414 77.684812,17.970537 z"
         style="fill:#cbb183;fill-opacity:1;fill-rule:nonzero;stroke:#f9f3ea;stroke-width:2.15958261000000018;stroke-linecap:round;stroke-linejoin:round;marker:none;marker-start:none;marker-mid:none;marker-end:none;stroke-miterlimit:4;stroke-dasharray:none;stroke-dashoffset:0;stroke-opacity:1;visibility:visible;display:inline;overflow:visible;enable-background:accumulate" />
      <path
         inkscape:transform-center-x="-30.305285"
         inkscape:transform-center-y="1.1830854"
         style="fill:#b8956b;fill-opacity:1;fill-rule:nonzero;stroke:#f9f3ea;stroke-width:2.15958261000000018;stroke-linecap:round;stroke-linejoin:round;marker:none;marker-start:none;marker-mid:none;marker-end:none;stroke-miterlimit:4;stroke-dasharray:none;stroke-dashoffset:0;stroke-opacity:1;visibility:visible;display:inline;overflow:visible;enable-background:accumulate"
         d="M 109.65022,81.309944 C 102.05449,79.29403 71.976237,73.098021 67.244499,64.836054 C 71.211652,57.307527 104.14653,52.741363 111.47521,53.217459 C 118.80388,53.693555 124.34299,60.372668 123.8393,68.126195 C 123.3356,75.87972 116.97889,81.786041 109.65022,81.309944 z"
         id="path3477"
         sodipodi:nodetypes="ccssc" />
      <path
         sodipodi:nodetypes="ccssc"
         id="path3475"
         d="M 111.13261,56.290983 C 103.52806,58.27338 74.294063,67.678974 66.109529,62.814527 C 65.858897,54.308399 92.284385,34.127974 98.898792,30.936457 C 105.5132,27.744939 113.62179,30.834136 116.99832,37.831986 C 120.37485,44.829835 117.74701,53.099466 111.13261,56.290983 z"
         style="fill:#cbb183;fill-opacity:1;fill-rule:nonzero;stroke:#f9f3ea;stroke-width:2.15958261000000018;stroke-linecap:round;stroke-linejoin:round;marker:none;marker-start:none;marker-mid:none;marker-end:none;stroke-miterlimit:4;stroke-dasharray:none;stroke-dashoffset:0;stroke-opacity:1;visibility:visible;display:inline;overflow:visible;enable-background:accumulate"
         inkscape:transform-center-y="-17.638991"
         inkscape:transform-center-x="-27.278279" />
      <path
         inkscape:transform-center-x="-16.785103"
         inkscape:transform-center-y="-23.155668"
         style="fill:#cfb07f;fill-opacity:1;fill-rule:nonzero;stroke:#f9f3ea;stroke-width:2.15958261000000018;stroke-linecap:round;stroke-linejoin:round;marker:none;marker-start:none;marker-mid:none;marker-end:none;stroke-miterlimit:4;stroke-dasharray:none;stroke-dashoffset:0;stroke-opacity:1;visibility:visible;display:inline;overflow:visible;enable-background:accumulate"
         d="M 98.673378,32.18604 C 93.272231,37.894514 73.453781,61.353431 63.935041,61.560897 C 59.218198,54.477931 70.948638,23.365991 74.86959,17.156138 C 78.790542,10.946284 87.304812,9.2731007 93.874658,13.421354 C 100.4445,17.569607 102.59433,25.976187 98.673378,32.18604 z"
         id="path3473"
         sodipodi:nodetypes="ccssc" />
      <path
         sodipodi:nodetypes="ccssc"
         id="path3479"
         d="M 99.087133,99.335121 C 93.010062,94.352322 68.204979,76.247087 67.323115,66.767015 C 74.053812,61.559833 105.91918,71.054782 112.39142,74.525561 C 118.86366,77.99634 121.13633,86.370544 117.46434,93.217983 C 113.79236,100.06542 105.55937,102.8059 99.087133,99.335121 z"
         style="fill:#dcc29b;fill-opacity:1;fill-rule:nonzero;stroke:#f9f3ea;stroke-width:2.15958261000000018;stroke-linecap:round;stroke-linejoin:round;marker:none;marker-start:none;marker-mid:none;marker-end:none;stroke-miterlimit:4;stroke-dasharray:none;stroke-dashoffset:0;stroke-opacity:1;visibility:visible;display:inline;overflow:visible;enable-background:accumulate"
         inkscape:transform-center-y="15.796224"
         inkscape:transform-center-x="-28.188321" />
      <path
         style="fill:#dfc7a1;fill-opacity:1;fill-rule:nonzero;stroke:#f9f3ea;stroke-width:2.15958261000000018;stroke-linecap:round;stroke-linejoin:round;marker:none;marker-start:none;marker-mid:none;marker-end:none;stroke-miterlimit:4;stroke-dasharray:none;stroke-dashoffset:0;stroke-opacity:1;visibility:visible;display:inline;overflow:visible;enable-background:accumulate"
         d="M 29.266316,97.63968 C 34.272427,91.581799 52.472839,66.846463 61.956229,66.001032 C 67.137513,72.751685 57.520197,104.58035 54.024575,111.03919 C 50.528954,117.49805 42.146077,119.73852 35.312798,116.04026 C 28.47952,112.34199 25.770695,104.09853 29.266316,97.63968 z"
         id="path3490"
         sodipodi:nodetypes="ccssc" />
      <path
         sodipodi:nodetypes="ccssc"
         id="path3492"
         d="M 31.302054,26.720542 C 37.022661,32.108836 60.526094,51.874474 60.75497,61.392724 C 53.682629,66.125486 22.544383,54.46505 16.325726,50.558074 C 10.107068,46.6511 8.4147399,38.140615 12.548206,31.561455 C 16.681672,24.982295 25.083397,22.813567 31.302054,26.720542 z"
         style="fill:#b8956b;fill-opacity:1;fill-rule:nonzero;stroke:#f9f3ea;stroke-width:2.15958261000000018;stroke-linecap:round;stroke-linejoin:round;marker:none;marker-start:none;marker-mid:none;marker-end:none;stroke-miterlimit:4;stroke-dasharray:none;stroke-dashoffset:0;stroke-opacity:1;visibility:visible;display:inline;overflow:visible;enable-background:accumulate"
         inkscape:transform-center-y="1.1830854"
         inkscape:transform-center-x="-30.305285" />
      <path
         inkscape:transform-center-x="-27.278279"
         inkscape:transform-center-y="-17.638991"
         style="fill:#cbb183;fill-opacity:1;fill-rule:nonzero;stroke:#f9f3ea;stroke-width:2.15958261000000018;stroke-linecap:round;stroke-linejoin:round;marker:none;marker-start:none;marker-mid:none;marker-end:none;stroke-miterlimit:4;stroke-dasharray:none;stroke-dashoffset:0;stroke-opacity:1;visibility:visible;display:inline;overflow:visible;enable-background:accumulate"
         d="M 18.089948,48.018105 C 25.721406,49.894247 55.908328,55.537074 60.790932,63.710791 C 56.962645,71.310874 24.117136,76.480844 16.780956,76.139358 C 9.4447747,75.797872 3.7839884,69.221564 4.1452693,61.460098 C 4.5065523,53.698632 10.753767,47.676619 18.089948,48.018105 z"
         id="path3494"
         sodipodi:nodetypes="ccssc" />
      <path
         sodipodi:nodetypes="ccssc"
         id="path3496"
         d="M 17.573969,75.147693 C 25.041147,72.698138 53.63652,61.500083 62.106607,65.848309 C 62.883559,74.322587 37.758607,96.100853 31.354555,99.695887 C 24.950501,103.29092 16.666159,100.70983 12.862717,93.934532 C 9.0592765,87.159231 11.169916,78.742725 17.573969,75.147693 z"
         style="fill:#cfb07f;fill-opacity:1;fill-rule:nonzero;stroke:#f9f3ea;stroke-width:2.15958261000000018;stroke-linecap:round;stroke-linejoin:round;marker:none;marker-start:none;marker-mid:none;marker-end:none;stroke-miterlimit:4;stroke-dasharray:none;stroke-dashoffset:0;stroke-opacity:1;visibility:visible;display:inline;overflow:visible;enable-background:accumulate"
         inkscape:transform-center-y="-23.155668"
         inkscape:transform-center-x="-16.785103" />
      <path
         inkscape:transform-center-x="-28.188321"
         inkscape:transform-center-y="15.796224"
         style="fill:#dcc29b;fill-opacity:1;fill-rule:nonzero;stroke:#f9f3ea;stroke-width:2.15958261000000018;stroke-linecap:round;stroke-linejoin:round;marker:none;marker-start:none;marker-mid:none;marker-end:none;stroke-miterlimit:4;stroke-dasharray:none;stroke-dashoffset:0;stroke-opacity:1;visibility:visible;display:inline;overflow:visible;enable-background:accumulate"
         d="M 49.171392,15.895913 C 52.144235,23.170613 65.341637,50.900027 61.60492,59.657104 C 53.20706,61.03296 29.702142,37.515415 25.662083,31.382384 C 21.622023,25.249352 23.609219,16.802851 30.097789,12.528585 C 36.586358,8.2543197 45.131332,9.7628821 49.171392,15.895913 z"
         id="path3498"
         sodipodi:nodetypes="ccssc" />
      <path
         sodipodi:nodetypes="ccssc"
         id="path3512"
         d="M 46.707021,109.46886 C 48.531376,101.82486 53.969399,71.600374 62.109821,66.662464 C 69.735687,70.43913 75.12824,103.24883 74.836503,110.58716 C 74.544766,117.92549 68.00699,123.63074 60.243253,123.32208 C 52.479517,123.01343 46.415284,116.80719 46.707021,109.46886 z"
         style="fill:#cbb183;fill-opacity:1;fill-rule:nonzero;stroke:#f9f3ea;stroke-width:2.15958261000000018;stroke-linecap:round;stroke-linejoin:round;marker:none;marker-start:none;marker-mid:none;marker-end:none;stroke-miterlimit:4;stroke-dasharray:none;stroke-dashoffset:0;stroke-opacity:1;visibility:visible;display:inline;overflow:visible;enable-background:accumulate"
         inkscape:transform-center-x="2.486464"
         inkscape:transform-center-y="26.854468" />
      <path
         inkscape:transform-center-y="24.446153"
         inkscape:transform-center-x="-16.075861"
         style="fill:#b8956b;fill-opacity:1;fill-rule:nonzero;stroke:#f9f3ea;stroke-width:2.15958261000000018;stroke-linecap:round;stroke-linejoin:round;marker:none;marker-start:none;marker-mid:none;marker-end:none;stroke-miterlimit:4;stroke-dasharray:none;stroke-dashoffset:0;stroke-opacity:1;visibility:visible;display:inline;overflow:visible;enable-background:accumulate"
         d="M 73.863899,111.40723 C 71.104102,104.04907 58.719575,75.94719 62.709652,67.302613 C 71.144008,66.171824 93.9543,90.363696 97.814097,96.611747 C 101.67389,102.8598 99.441638,111.24486 92.831383,115.32842 C 86.221129,119.41197 77.723695,117.65528 73.863899,111.40723 z"
         id="path3514"
         sodipodi:nodetypes="ccssc" />
      <path
         transform="matrix(0.8773304,0,0,0.8773304,25.358321,16.447261)"
         d="M 59.642857,55.142857 A 17.142857,17.142857 0 1 1 25.357143,55.142857 A 17.142857,17.142857 0 1 1 59.642857,55.142857 z"
         sodipodi:ry="17.142857"
         sodipodi:rx="17.142857"
         sodipodi:cy="55.142857"
         sodipodi:cx="42.5"
         id="path3468"
         style="fill:#cab797;fill-opacity:1;fill-rule:nonzero;stroke:#f9f3ea;stroke-width:2.46153855000000021;stroke-linecap:round;stroke-linejoin:round;marker:none;marker-start:none;marker-mid:none;marker-end:none;stroke-miterlimit:4;stroke-dasharray:none;stroke-dashoffset:0;stroke-opacity:1;visibility:visible;display:inline;overflow:visible;enable-background:accumulate"
         sodipodi:type="arc" />
    </g>
  </g>
</svg>
