<?xml version="1.0" encoding="UTF-8" standalone="no"?>
<!-- Created with Inkscape (http://www.inkscape.org/) -->
<svg
   xmlns:dc="http://purl.org/dc/elements/1.1/"
   xmlns:cc="http://creativecommons.org/ns#"
   xmlns:rdf="http://www.w3.org/1999/02/22-rdf-syntax-ns#"
   xmlns:svg="http://www.w3.org/2000/svg"
   xmlns="http://www.w3.org/2000/svg"
   xmlns:xlink="http://www.w3.org/1999/xlink"
   xmlns:sodipodi="http://sodipodi.sourceforge.net/DTD/sodipodi-0.dtd"
   xmlns:inkscape="http://www.inkscape.org/namespaces/inkscape"
   width="128"
   height="128"
   id="svg2478"
   sodipodi:version="0.32"
   inkscape:version="0.46"
   version="1.0"
   sodipodi:docname="launcher-program.svg"
   inkscape:output_extension="org.inkscape.output.svg.inkscape">
  <defs
     id="defs2480">
    <linearGradient
       id="linearGradient3183">
      <stop
         id="stop3185"
         offset="0"
         style="stop-color:#f8ead2;stop-opacity:0.58823532;" />
      <stop
         style="stop-color:#cfb07f;stop-opacity:0.58823532;"
         offset="0.5"
         id="stop3191" />
      <stop
         id="stop3187"
         offset="1"
         style="stop-color:#dcc29b;stop-opacity:0.58823532;" />
    </linearGradient>
    <linearGradient
       inkscape:collect="always"
       xlink:href="#linearGradient3183"
       id="linearGradient3200"
       gradientUnits="userSpaceOnUse"
       x1="26.945599"
       y1="152.60765"
       x2="26.945599"
       y2="171.26996" />
    <linearGradient
       inkscape:collect="always"
       xlink:href="#linearGradient3183"
       id="linearGradient3202"
       gradientUnits="userSpaceOnUse"
       gradientTransform="matrix(3.3725694,0,0,3.3712912,-16.362001,-14.201004)"
       x1="5.2013812"
       y1="23.196157"
       x2="42.454868"
       y2="23.196157" />
    <linearGradient
       inkscape:collect="always"
       xlink:href="#linearGradient3183"
       id="linearGradient3204"
       gradientUnits="userSpaceOnUse"
       gradientTransform="matrix(3.3725694,0,0,3.3712912,-16.362001,-14.201004)"
       x1="5.2013812"
       y1="23.196157"
       x2="42.454868"
       y2="23.196157" />
    <linearGradient
       inkscape:collect="always"
       xlink:href="#linearGradient3183"
       id="linearGradient3206"
       gradientUnits="userSpaceOnUse"
       gradientTransform="matrix(3.3725694,0,0,3.3712912,-16.362001,-14.201004)"
       x1="5.2013812"
       y1="23.196157"
       x2="42.454868"
       y2="23.196157" />
  </defs>
  <sodipodi:namedview
     id="base"
     pagecolor="#ffffff"
     bordercolor="#666666"
     borderopacity="1.0"
     gridtolerance="10000"
     guidetolerance="10"
     objecttolerance="10"
     inkscape:pageopacity="0.0"
     inkscape:pageshadow="2"
     inkscape:zoom="1.979899"
     inkscape:cx="21.090162"
     inkscape:cy="-3.5229407"
     inkscape:document-units="px"
     inkscape:current-layer="layer1"
     showgrid="false"
     inkscape:showpageshadow="false"
     inkscape:window-width="1280"
     inkscape:window-height="956"
     inkscape:window-x="0"
     inkscape:window-y="46" />
  <metadata
     id="metadata2483">
    <rdf:RDF>
      <cc:Work
         rdf:about="">
        <dc:format>image/svg+xml</dc:format>
        <dc:type
           rdf:resource="http://purl.org/dc/dcmitype/StillImage" />
      </cc:Work>
    </rdf:RDF>
  </metadata>
  <g
     inkscape:label="Layer 1"
     inkscape:groupmode="layer"
     id="layer1">
    <g
       id="g3190">
      <path
         transform="matrix(0.9100529,0,0,0.9100529,53.274377,-28.110355)"
         d="M 79.285714,101.21429 A 67.5,67.5 0 1 1 -55.714286,101.21429 A 67.5,67.5 0 1 1 79.285714,101.21429 z"
         sodipodi:ry="67.5"
         sodipodi:rx="67.5"
         sodipodi:cy="101.21429"
         sodipodi:cx="11.785714"
         id="path2396"
         style="opacity:1;fill:url(#linearGradient3200);fill-opacity:1;stroke:#b8956b;stroke-width:5;stroke-linecap:round;stroke-linejoin:round;stroke-miterlimit:4;stroke-dasharray:none;stroke-opacity:1"
         sodipodi:type="arc" />
      <g
         id="g3182">
        <g
           style="opacity:1"
           id="g2474"
           inkscape:label="Ebene 1"
           transform="matrix(0.4997777,0,0,0.4997777,19.177666,19.95966)">
          <path
             id="path2383"
             d="M 59.310021,2.0233344 C 58.528411,2.0183944 57.649444,2.1178924 56.675202,2.2340404 C 41.08728,4.0924044 54.872385,15.624726 41.182461,23.304612 C 27.492534,30.984492 24.752812,13.18481 15.045049,25.51702 C 5.3372856,37.849231 23.297659,36.2214 19.049976,51.328468 C 14.802291,66.435537 0.32806061,55.763495 2.1871296,71.345508 C 4.0461979,86.927524 15.582893,73.147639 23.265687,86.83238 C 30.948481,100.51712 13.142049,103.15044 25.478935,112.85453 C 37.815822,122.55862 36.292764,104.71041 51.405561,108.95648 C 66.518358,113.20255 55.842266,127.6713 71.430191,125.81293 C 87.018111,123.95457 73.127613,112.42224 86.817539,104.74236 C 100.50746,97.062481 103.24718,114.75681 112.95495,102.4246 C 122.66271,90.092392 104.70234,91.720223 108.95002,76.613152 C 113.1977,61.506083 127.67194,72.178128 125.81287,56.596112 C 123.9538,41.014099 112.41709,54.793981 104.73431,41.10924 C 97.051519,27.424504 114.85794,24.791175 102.52106,15.087088 C 90.184178,5.3830034 91.70723,23.336571 76.594436,19.090496 C 62.42619,15.109802 71.03416,2.0974444 59.310021,2.0233344 z M 64.052696,41.425298 C 76.529722,41.425295 86.606753,51.498508 86.606753,63.970808 C 86.606753,76.443115 76.529724,86.621672 64.052696,86.621672 C 51.575662,86.621672 41.393247,76.443115 41.393247,63.970808 C 41.393249,51.498508 51.575668,41.425298 64.052696,41.425298 z"
             style="opacity:1;fill:url(#linearGradient3202);fill-opacity:1;fill-rule:nonzero;stroke:#b8956b;stroke-width:4.04631662;stroke-linejoin:round;marker:none;marker-start:none;marker-mid:none;marker-end:none;stroke-miterlimit:4;stroke-dasharray:none;stroke-dashoffset:0;stroke-opacity:1;visibility:visible;display:inline;overflow:visible;enable-background:accumulate" />
        </g>
        <g
           style="opacity:1"
           transform="matrix(0.2774026,0.1918052,-0.1918052,0.2774026,82.313848,56.999692)"
           inkscape:label="Ebene 1"
           id="g2477">
          <path
             style="opacity:1;fill:url(#linearGradient3204);fill-opacity:1;fill-rule:nonzero;stroke:#b8956b;stroke-width:4.04631662;stroke-linejoin:round;marker:none;marker-start:none;marker-mid:none;marker-end:none;stroke-miterlimit:4;stroke-dasharray:none;stroke-dashoffset:0;stroke-opacity:1;visibility:visible;display:inline;overflow:visible;enable-background:accumulate"
             d="M 59.310021,2.0233344 C 58.528411,2.0183944 57.649444,2.1178924 56.675202,2.2340404 C 41.08728,4.0924044 54.872385,15.624726 41.182461,23.304612 C 27.492534,30.984492 24.752812,13.18481 15.045049,25.51702 C 5.3372856,37.849231 23.297659,36.2214 19.049976,51.328468 C 14.802291,66.435537 0.32806061,55.763495 2.1871296,71.345508 C 4.0461979,86.927524 15.582893,73.147639 23.265687,86.83238 C 30.948481,100.51712 13.142049,103.15044 25.478935,112.85453 C 37.815822,122.55862 36.292764,104.71041 51.405561,108.95648 C 66.518358,113.20255 55.842266,127.6713 71.430191,125.81293 C 87.018111,123.95457 73.127613,112.42224 86.817539,104.74236 C 100.50746,97.062481 103.24718,114.75681 112.95495,102.4246 C 122.66271,90.092392 104.70234,91.720223 108.95002,76.613152 C 113.1977,61.506083 127.67194,72.178128 125.81287,56.596112 C 123.9538,41.014099 112.41709,54.793981 104.73431,41.10924 C 97.051519,27.424504 114.85794,24.791175 102.52106,15.087088 C 90.184178,5.3830034 91.70723,23.336571 76.594436,19.090496 C 62.42619,15.109802 71.03416,2.0974444 59.310021,2.0233344 z M 64.052696,41.425298 C 76.529722,41.425295 86.606753,51.498508 86.606753,63.970808 C 86.606753,76.443115 76.529724,86.621672 64.052696,86.621672 C 51.575662,86.621672 41.393247,76.443115 41.393247,63.970808 C 41.393249,51.498508 51.575668,41.425298 64.052696,41.425298 z"
             id="path2479" />
        </g>
        <g
           style="opacity:1"
           id="g2497"
           inkscape:label="Ebene 1"
           transform="matrix(2.6833534e-2,0.2013961,-0.2013961,2.6833534e-2,106.83099,39.224518)">
          <path
             id="path2499"
             d="M 59.310021,2.0233344 C 58.528411,2.0183944 57.649444,2.1178924 56.675202,2.2340404 C 41.08728,4.0924044 54.872385,15.624726 41.182461,23.304612 C 27.492534,30.984492 24.752812,13.18481 15.045049,25.51702 C 5.3372856,37.849231 23.297659,36.2214 19.049976,51.328468 C 14.802291,66.435537 0.32806061,55.763495 2.1871296,71.345508 C 4.0461979,86.927524 15.582893,73.147639 23.265687,86.83238 C 30.948481,100.51712 13.142049,103.15044 25.478935,112.85453 C 37.815822,122.55862 36.292764,104.71041 51.405561,108.95648 C 66.518358,113.20255 55.842266,127.6713 71.430191,125.81293 C 87.018111,123.95457 73.127613,112.42224 86.817539,104.74236 C 100.50746,97.062481 103.24718,114.75681 112.95495,102.4246 C 122.66271,90.092392 104.70234,91.720223 108.95002,76.613152 C 113.1977,61.506083 127.67194,72.178128 125.81287,56.596112 C 123.9538,41.014099 112.41709,54.793981 104.73431,41.10924 C 97.051519,27.424504 114.85794,24.791175 102.52106,15.087088 C 90.184178,5.3830034 91.70723,23.336571 76.594436,19.090496 C 62.42619,15.109802 71.03416,2.0974444 59.310021,2.0233344 z M 64.052696,41.425298 C 76.529722,41.425295 86.606753,51.498508 86.606753,63.970808 C 86.606753,76.443115 76.529724,86.621672 64.052696,86.621672 C 51.575662,86.621672 41.393247,76.443115 41.393247,63.970808 C 41.393249,51.498508 51.575668,41.425298 64.052696,41.425298 z"
             style="opacity:1;fill:url(#linearGradient3206);fill-opacity:1;fill-rule:nonzero;stroke:#b8956b;stroke-width:4.04631662;stroke-linejoin:round;marker:none;marker-start:none;marker-mid:none;marker-end:none;stroke-miterlimit:4;stroke-dasharray:none;stroke-dashoffset:0;stroke-opacity:1;visibility:visible;display:inline;overflow:visible;enable-background:accumulate" />
        </g>
      </g>
    </g>
  </g>
</svg>
