<?xml version="1.0" encoding="UTF-8" standalone="no"?>
<!-- Created with Inkscape (http://www.inkscape.org/) -->
<svg
   xmlns:dc="http://purl.org/dc/elements/1.1/"
   xmlns:cc="http://creativecommons.org/ns#"
   xmlns:rdf="http://www.w3.org/1999/02/22-rdf-syntax-ns#"
   xmlns:svg="http://www.w3.org/2000/svg"
   xmlns="http://www.w3.org/2000/svg"
   xmlns:xlink="http://www.w3.org/1999/xlink"
   xmlns:sodipodi="http://sodipodi.sourceforge.net/DTD/sodipodi-0.dtd"
   xmlns:inkscape="http://www.inkscape.org/namespaces/inkscape"
   version="1.0"
   id="svg2"
   sodipodi:version="0.32"
   inkscape:version="0.46"
   sodipodi:docname="python-logo-inkscape.svg"
   width="128"
   height="128"
   sodipodi:docbase="/home/sdeibel"
   inkscape:output_extension="org.inkscape.output.svg.inkscape">
  <metadata
     id="metadata371">
    <rdf:RDF>
      <cc:Work
         rdf:about="">
        <dc:format>image/svg+xml</dc:format>
        <dc:type
           rdf:resource="http://purl.org/dc/dcmitype/StillImage" />
      </cc:Work>
    </rdf:RDF>
  </metadata>
  <sodipodi:namedview
     inkscape:window-height="979"
     inkscape:window-width="1280"
     inkscape:pageshadow="2"
     inkscape:pageopacity="0.0"
     guidetolerance="10.0"
     gridtolerance="10.0"
     objecttolerance="10.0"
     borderopacity="1.0"
     bordercolor="#666666"
     pagecolor="#ffffff"
     id="base"
     inkscape:zoom="1.5175673"
     inkscape:cx="-25.93387"
     inkscape:cy="-27.10008"
     inkscape:window-x="0"
     inkscape:window-y="45"
     inkscape:current-layer="svg2"
     width="210mm"
     height="40mm"
     units="mm"
     showgrid="false"
     inkscape:showpageshadow="false" />
  <defs
     id="defs4">
    <linearGradient
       id="linearGradient4671">
      <stop
         style="stop-color:#cfb07f;stop-opacity:1;"
         offset="0"
         id="stop4673" />
      <stop
         style="stop-color:#f4ebde;stop-opacity:1;"
         offset="1"
         id="stop4675" />
    </linearGradient>
    <linearGradient
       id="linearGradient4689">
      <stop
         style="stop-color:#f8ead2;stop-opacity:1;"
         offset="0"
         id="stop4691" />
      <stop
         style="stop-color:#cfb07f;stop-opacity:1;"
         offset="1"
         id="stop4693" />
    </linearGradient>
    <linearGradient
       inkscape:collect="always"
       xlink:href="#linearGradient4671"
       id="linearGradient2428"
       gradientUnits="userSpaceOnUse"
       gradientTransform="matrix(0.562541,0,0,0.567972,-6.571798,-3.8968751)"
       x1="129.87627"
       y1="173.2088"
       x2="97.974876"
       y2="136.11281" />
    <linearGradient
       inkscape:collect="always"
       xlink:href="#linearGradient4689"
       id="linearGradient2431"
       gradientUnits="userSpaceOnUse"
       gradientTransform="matrix(0.562541,0,0,0.567972,-6.571798,-3.8968751)"
       x1="85.803635"
       y1="61.790146"
       x2="118.68024"
       y2="101.6357" />
    <filter
       inkscape:collect="always"
       id="filter3229">
      <feGaussianBlur
         inkscape:collect="always"
         stdDeviation="1.0149766"
         id="feGaussianBlur3231" />
    </filter>
    <linearGradient
       inkscape:collect="always"
       xlink:href="#linearGradient4689"
       id="linearGradient3233"
       gradientUnits="userSpaceOnUse"
       gradientTransform="matrix(0.562541,0,0,0.567972,-6.571798,-3.8968751)"
       x1="85.803635"
       y1="61.790146"
       x2="118.68024"
       y2="101.6357" />
    <linearGradient
       inkscape:collect="always"
       xlink:href="#linearGradient4671"
       id="linearGradient3235"
       gradientUnits="userSpaceOnUse"
       gradientTransform="matrix(0.562541,0,0,0.567972,-6.571798,-3.8968751)"
       x1="129.87627"
       y1="173.2088"
       x2="97.974876"
       y2="136.11281" />
    <linearGradient
       inkscape:collect="always"
       xlink:href="#linearGradient4671"
       id="linearGradient3238"
       gradientUnits="userSpaceOnUse"
       gradientTransform="matrix(0.562541,0,0,0.567972,-6.571798,-3.8968751)"
       x1="142.76144"
       y1="187.71104"
       x2="105.58884"
       y2="144.77026" />
    <linearGradient
       inkscape:collect="always"
       xlink:href="#linearGradient4689"
       id="linearGradient3241"
       gradientUnits="userSpaceOnUse"
       gradientTransform="matrix(0.562541,0,0,0.567972,-6.571798,-3.8968751)"
       x1="81.703804"
       y1="57.149429"
       x2="112.23765"
       y2="93.754112" />
  </defs>
  <g
     id="g3243">
    <g
       style="fill:#000000;filter:url(#filter3229);stroke:#b8956b;stroke-opacity:1;fill-opacity:1"
       id="g3207">
      <path
         id="path3209"
         d="M 63.338108,7.8064182 C 58.754455,7.8277165 54.377169,8.2186359 50.525608,8.9001682 C 39.179392,10.904672 37.119359,15.10027 37.119358,22.837668 L 37.119358,33.056418 L 63.931858,33.056418 L 63.931858,36.462668 L 37.119358,36.462668 L 27.056858,36.462668 C 19.264399,36.462668 12.441099,41.146385 10.306858,50.056418 C 7.8450382,60.269384 7.7358431,66.642441 10.306858,77.306418 C 12.212786,85.24427 16.764401,90.900166 24.556858,90.900168 L 33.775608,90.900168 L 33.775608,78.650168 C 33.775608,69.800266 41.432752,61.99392 50.525608,61.993918 L 77.306858,61.993918 C 84.761809,61.993918 90.713111,55.855754 90.713108,48.368918 L 90.713108,22.837668 C 90.713108,15.571329 84.583128,10.112891 77.306858,8.9001682 C 72.700871,8.1334429 67.921761,7.7851199 63.338108,7.8064182 z M 48.838108,16.025168 C 51.607655,16.025168 53.869358,18.323814 53.869358,21.150168 C 53.869356,23.966504 51.607655,26.243918 48.838108,26.243918 C 46.058632,26.243917 43.806858,23.966503 43.806858,21.150168 C 43.806857,18.323815 46.058632,16.025168 48.838108,16.025168 z"
         style="fill:#000000;fill-opacity:1;stroke:#b8956b;stroke-opacity:1" />
      <path
         id="path3211"
         d="M 94.056858,36.462668 L 94.056858,48.368918 C 94.056858,57.599673 86.230963,65.368917 77.306858,65.368918 L 50.525608,65.368918 C 43.189775,65.368918 37.119359,71.647401 37.119358,78.993918 L 37.119358,104.52516 C 37.119358,111.79151 43.437946,116.06549 50.525608,118.15017 C 59.012939,120.64578 67.151845,121.0968 77.306858,118.15017 C 84.057013,116.19578 90.713111,112.26256 90.713108,104.52516 L 90.713108,94.306418 L 63.931858,94.306418 L 63.931858,90.900168 L 90.713108,90.900168 L 104.11936,90.900168 C 111.91182,90.900168 114.81561,85.46476 117.5256,77.306418 C 120.32493,68.907532 120.20582,60.830642 117.5256,50.056418 C 115.59982,42.298977 111.92173,36.462668 104.11936,36.462668 L 94.056858,36.462668 z M 78.994358,101.11892 C 81.773836,101.11892 84.025608,103.39633 84.025608,106.21266 C 84.025606,109.03902 81.773833,111.33767 78.994358,111.33767 C 76.224808,111.33767 73.963108,109.03902 73.963108,106.21266 C 73.96311,103.39633 76.224805,101.11892 78.994358,101.11892 z"
         style="fill:#000000;fill-opacity:1;stroke:#b8956b;stroke-opacity:1" />
    </g>
    <path
       id="path1948"
       d="M 63.338108,7.8064182 C 58.754455,7.8277165 54.377169,8.2186359 50.525608,8.9001682 C 39.179392,10.904672 37.119359,15.10027 37.119358,22.837668 L 37.119358,33.056418 L 63.931858,33.056418 L 63.931858,36.462668 L 37.119358,36.462668 L 27.056858,36.462668 C 19.264399,36.462668 12.441099,41.146385 10.306858,50.056418 C 7.8450382,60.269384 7.7358431,66.642441 10.306858,77.306418 C 12.212786,85.24427 16.764401,90.900166 24.556858,90.900168 L 33.775608,90.900168 L 33.775608,78.650168 C 33.775608,69.800266 41.432752,61.99392 50.525608,61.993918 L 77.306858,61.993918 C 84.761809,61.993918 90.713111,55.855754 90.713108,48.368918 L 90.713108,22.837668 C 90.713108,15.571329 84.583128,10.112891 77.306858,8.9001682 C 72.700871,8.1334429 67.921761,7.7851199 63.338108,7.8064182 z M 48.838108,16.025168 C 51.607655,16.025168 53.869358,18.323814 53.869358,21.150168 C 53.869356,23.966504 51.607655,26.243918 48.838108,26.243918 C 46.058632,26.243917 43.806858,23.966503 43.806858,21.150168 C 43.806857,18.323815 46.058632,16.025168 48.838108,16.025168 z"
       style="fill:url(#linearGradient3241);fill-opacity:1;stroke:#b8956b;stroke-opacity:1" />
    <path
       id="path1950"
       d="M 94.056858,36.462668 L 94.056858,48.368918 C 94.056858,57.599673 86.230963,65.368917 77.306858,65.368918 L 50.525608,65.368918 C 43.189775,65.368918 37.119359,71.647401 37.119358,78.993918 L 37.119358,104.52516 C 37.119358,111.79151 43.437946,116.06549 50.525608,118.15017 C 59.012939,120.64578 67.151845,121.0968 77.306858,118.15017 C 84.057013,116.19578 90.713111,112.26256 90.713108,104.52516 L 90.713108,94.306418 L 63.931858,94.306418 L 63.931858,90.900168 L 90.713108,90.900168 L 104.11936,90.900168 C 111.91182,90.900168 114.81561,85.46476 117.5256,77.306418 C 120.32493,68.907532 120.20582,60.830642 117.5256,50.056418 C 115.59982,42.298977 111.92173,36.462668 104.11936,36.462668 L 94.056858,36.462668 z M 78.994358,101.11892 C 81.773836,101.11892 84.025608,103.39633 84.025608,106.21266 C 84.025606,109.03902 81.773833,111.33767 78.994358,111.33767 C 76.224808,111.33767 73.963108,109.03902 73.963108,106.21266 C 73.96311,103.39633 76.224805,101.11892 78.994358,101.11892 z"
       style="fill:url(#linearGradient3238);fill-opacity:1;stroke:#b8956b;stroke-opacity:1" />
  </g>
</svg>
