<?xml version="1.0" encoding="UTF-8" standalone="no"?>
<!-- Created with Inkscape (http://www.inkscape.org/) -->
<svg
   xmlns:dc="http://purl.org/dc/elements/1.1/"
   xmlns:cc="http://creativecommons.org/ns#"
   xmlns:rdf="http://www.w3.org/1999/02/22-rdf-syntax-ns#"
   xmlns:svg="http://www.w3.org/2000/svg"
   xmlns="http://www.w3.org/2000/svg"
   xmlns:xlink="http://www.w3.org/1999/xlink"
   xmlns:sodipodi="http://sodipodi.sourceforge.net/DTD/sodipodi-0.dtd"
   xmlns:inkscape="http://www.inkscape.org/namespaces/inkscape"
   width="128"
   height="128"
   id="svg2457"
   sodipodi:version="0.32"
   inkscape:version="0.46"
   version="1.0"
   sodipodi:docname="dialog-password.svg"
   inkscape:output_extension="org.inkscape.output.svg.inkscape">
  <defs
     id="defs2459">
    <linearGradient
       id="linearGradient3807">
      <stop
         style="stop-color:#a47c34;stop-opacity:1;"
         offset="0"
         id="stop3809" />
      <stop
         style="stop-color:#dfc7a1;stop-opacity:1;"
         offset="1"
         id="stop3811" />
    </linearGradient>
    <linearGradient
       id="linearGradient3673">
      <stop
         style="stop-color:#f4ebde;stop-opacity:1;"
         offset="0"
         id="stop3675" />
      <stop
         style="stop-color:#dcc29b;stop-opacity:1;"
         offset="1"
         id="stop3677" />
    </linearGradient>
    <radialGradient
       inkscape:collect="always"
       xlink:href="#linearGradient3673"
       id="radialGradient2433"
       gradientUnits="userSpaceOnUse"
       gradientTransform="matrix(4.2256597,0.7438651,-0.798622,4.5367158,-166.21602,-223.71146)"
       cx="66.652359"
       cy="48.449699"
       fx="66.652359"
       fy="48.449699"
       r="21.51199" />
    <linearGradient
       inkscape:collect="always"
       xlink:href="#linearGradient3807"
       id="linearGradient2435"
       gradientUnits="userSpaceOnUse"
       gradientTransform="matrix(1.5870255,1.4062246e-7,-1.4341506e-7,1.618542,53.358232,-61.307763)"
       x1="22.210865"
       y1="63.223969"
       x2="25.347879"
       y2="63.223969" />
    <radialGradient
       inkscape:collect="always"
       xlink:href="#linearGradient3673"
       id="radialGradient2437"
       gradientUnits="userSpaceOnUse"
       gradientTransform="matrix(4.2256597,0.7438651,-0.798622,4.5367158,-166.21602,-223.71146)"
       cx="66.652359"
       cy="48.449699"
       fx="66.652359"
       fy="48.449699"
       r="21.51199" />
    <linearGradient
       inkscape:collect="always"
       xlink:href="#linearGradient3807"
       id="linearGradient2439"
       gradientUnits="userSpaceOnUse"
       gradientTransform="matrix(1.5870255,1.4062246e-7,-1.4341506e-7,1.618542,53.358232,-61.307763)"
       x1="22.210865"
       y1="63.223969"
       x2="25.347879"
       y2="63.223969" />
  </defs>
  <sodipodi:namedview
     id="base"
     pagecolor="#ffffff"
     bordercolor="#666666"
     borderopacity="1.0"
     gridtolerance="10000"
     guidetolerance="10"
     objecttolerance="10"
     inkscape:pageopacity="0.0"
     inkscape:pageshadow="2"
     inkscape:zoom="1.979899"
     inkscape:cx="145.20015"
     inkscape:cy="61.70453"
     inkscape:document-units="px"
     inkscape:current-layer="layer1"
     showgrid="false"
     inkscape:showpageshadow="false"
     inkscape:window-width="1280"
     inkscape:window-height="956"
     inkscape:window-x="0"
     inkscape:window-y="46" />
  <metadata
     id="metadata2462">
    <rdf:RDF>
      <cc:Work
         rdf:about="">
        <dc:format>image/svg+xml</dc:format>
        <dc:type
           rdf:resource="http://purl.org/dc/dcmitype/StillImage" />
      </cc:Work>
    </rdf:RDF>
  </metadata>
  <g
     inkscape:label="Layer 1"
     inkscape:groupmode="layer"
     id="layer1">
    <g
       id="g2423"
       transform="translate(-9.146221,-6.4201117e-8)">
      <g
         transform="matrix(0.9084612,-9.774409e-2,9.774409e-2,0.9084612,-1.215612,11.002162)"
         id="g4019">
        <path
           sodipodi:nodetypes="cscccccccccccccccccsccsssc"
           style="fill:url(#radialGradient2433);fill-opacity:1;stroke:#b8956b;stroke-width:3.5;stroke-linecap:round;stroke-linejoin:round;stroke-miterlimit:4;stroke-dasharray:none;stroke-opacity:1"
           d="M 106.2591,10.356061 C 92.482927,-0.78387897 71.480181,1.7733247 61.49588,15.671876 C 54.356122,25.610709 55.520042,40.06137 58.481311,49.743984 L 52.092198,57.47696 L 51.647313,68.37579 L 49.728271,70.765298 L 39.815969,72.095381 L 37.406476,74.984343 L 36.953432,84.447273 L 33.955565,87.846381 L 26.664912,89.137921 L 24.091653,92.342031 L 22.607622,100.53029 L 19.805599,103.90802 L 12.119036,107.47229 C 11.001164,108.86421 9.0007133,118.64716 10.392636,119.76502 L 16.040557,124.30094 C 17.432476,125.41881 27.806405,123.44378 28.924275,122.05186 L 75.461007,64.106333 C 86.060259,64.970134 103.35001,66.47988 111.11345,54.812434 C 120.77164,40.297421 118.43134,21.632727 106.2591,10.356061 z M 97.932942,18.498726 C 100.33114,20.424746 100.71435,23.934252 98.788333,26.332447 C 96.862318,28.730645 93.352806,29.11386 90.954612,27.18784 C 88.556416,25.261824 88.173201,21.752316 90.09922,19.354119 C 92.025239,16.955926 95.534746,16.572708 97.932942,18.498726 z"
           id="path3665" />
        <rect
           style="opacity:0.75;fill:url(#linearGradient2435);fill-opacity:1;stroke:#b8956b;stroke-width:1.60270631;stroke-linecap:round;stroke-linejoin:round;stroke-miterlimit:4;stroke-dasharray:none;stroke-opacity:1"
           id="rect3805"
           width="6.4125519"
           height="66.625191"
           x="88.226471"
           y="7.7102733"
           ry="2.3400378"
           transform="matrix(0.7778553,0.6284435,-0.6284435,0.7778553,0,0)" />
        <rect
           style="opacity:0.5;fill:#f8ead2;fill-opacity:1;stroke:#b8956b;stroke-width:0.22288814;stroke-linecap:round;stroke-linejoin:round;stroke-miterlimit:4;stroke-dasharray:none;stroke-opacity:1"
           id="rect3821"
           width="36.767044"
           height="18.913874"
           x="69.93055"
           y="-30.389206"
           ry="2.0423436"
           transform="matrix(0.7694849,0.638665,-0.638665,0.7694849,0,0)" />
      </g>
      <g
         id="g4028"
         transform="matrix(0.4839237,0.2633442,-0.2633442,0.4839237,78.044655,45.87336)">
        <path
           id="path4030"
           d="M 106.2591,10.356061 C 92.482927,-0.78387897 71.480181,1.7733247 61.49588,15.671876 C 54.356122,25.610709 55.520042,40.06137 58.481311,49.743984 L 52.092198,57.47696 L 51.647313,68.37579 L 49.728271,70.765298 L 39.815969,72.095381 L 37.406476,74.984343 L 36.953432,84.447273 L 33.955565,87.846381 L 26.664912,89.137921 L 24.091653,92.342031 L 22.607622,100.53029 L 19.805599,103.90802 L 12.119036,107.47229 C 11.001164,108.86421 9.0007133,118.64716 10.392636,119.76502 L 16.040557,124.30094 C 17.432476,125.41881 27.806405,123.44378 28.924275,122.05186 L 75.461007,64.106333 C 86.060259,64.970134 103.35001,66.47988 111.11345,54.812434 C 120.77164,40.297421 118.43134,21.632727 106.2591,10.356061 z M 97.932942,18.498726 C 100.33114,20.424746 100.71435,23.934252 98.788333,26.332447 C 96.862318,28.730645 93.352806,29.11386 90.954612,27.18784 C 88.556416,25.261824 88.173201,21.752316 90.09922,19.354119 C 92.025239,16.955926 95.534746,16.572708 97.932942,18.498726 z"
           style="fill:url(#radialGradient2437);fill-opacity:1;stroke:#b8956b;stroke-width:3.5;stroke-linecap:round;stroke-linejoin:round;stroke-miterlimit:4;stroke-dasharray:none;stroke-opacity:1"
           sodipodi:nodetypes="cscccccccccccccccccsccsssc" />
        <rect
           transform="matrix(0.7778553,0.6284435,-0.6284435,0.7778553,0,0)"
           ry="2.3400378"
           y="7.7102733"
           x="88.226471"
           height="66.625191"
           width="6.4125519"
           id="rect4032"
           style="opacity:0.75;fill:url(#linearGradient2439);fill-opacity:1;stroke:#b8956b;stroke-width:1.60270631;stroke-linecap:round;stroke-linejoin:round;stroke-miterlimit:4;stroke-dasharray:none;stroke-opacity:1" />
        <rect
           transform="matrix(0.7694849,0.638665,-0.638665,0.7694849,0,0)"
           ry="2.0423436"
           y="-30.389206"
           x="69.93055"
           height="18.913874"
           width="36.767044"
           id="rect4034"
           style="opacity:0.5;fill:#f8ead2;fill-opacity:1;stroke:#b8956b;stroke-width:0.22288814;stroke-linecap:round;stroke-linejoin:round;stroke-miterlimit:4;stroke-dasharray:none;stroke-opacity:1" />
      </g>
    </g>
  </g>
</svg>
