<?xml version="1.0" encoding="UTF-8" standalone="no"?>
<!-- Created with Inkscape (http://www.inkscape.org/) -->

<svg
   xmlns:dc="http://purl.org/dc/elements/1.1/"
   xmlns:cc="http://creativecommons.org/ns#"
   xmlns:rdf="http://www.w3.org/1999/02/22-rdf-syntax-ns#"
   xmlns:svg="http://www.w3.org/2000/svg"
   xmlns="http://www.w3.org/2000/svg"
   xmlns:xlink="http://www.w3.org/1999/xlink"
   xmlns:sodipodi="http://sodipodi.sourceforge.net/DTD/sodipodi-0.dtd"
   xmlns:inkscape="http://www.inkscape.org/namespaces/inkscape"
   width="128"
   height="128"
   id="svg2"
   version="1.1"
   inkscape:version="0.47 r22583"
   sodipodi:docname="weather-clearnight.svg"
   inkscape:export-filename="D:\Projekte\cream\art\creamlooks-icontheme\icons\scalable\widgets\weather\png\sunny.png"
   inkscape:export-xdpi="90"
   inkscape:export-ydpi="90">
  <defs
     id="defs4">
    <linearGradient
       id="linearGradient3710">
      <stop
         id="stop3712"
         offset="0"
         style="stop-color:#a7a7a7;stop-opacity:1;" />
      <stop
         style="stop-color:#787878;stop-opacity:0.49019608;"
         offset="0.72847295"
         id="stop3714" />
      <stop
         id="stop3716"
         offset="0.92342049"
         style="stop-color:#454545;stop-opacity:1;" />
      <stop
         id="stop3718"
         offset="1"
         style="stop-color:#a7a7a7;stop-opacity:1;" />
    </linearGradient>
    <linearGradient
       id="linearGradient4065">
      <stop
         id="stop4067"
         offset="0"
         style="stop-color:#a7a7a7;stop-opacity:1;" />
      <stop
         style="stop-color:#787878;stop-opacity:1;"
         offset="0.62077677"
         id="stop4069" />
      <stop
         id="stop4071"
         offset="1"
         style="stop-color:#454545;stop-opacity:1;" />
    </linearGradient>
    <linearGradient
       inkscape:collect="always"
       id="linearGradient3904">
      <stop
         style="stop-color:#ffffff;stop-opacity:1;"
         offset="0"
         id="stop3906" />
      <stop
         style="stop-color:#ffffff;stop-opacity:0;"
         offset="1"
         id="stop3908" />
    </linearGradient>
    <linearGradient
       id="linearGradient3850">
      <stop
         id="stop3852"
         offset="0"
         style="stop-color:#a7a7a7;stop-opacity:1;" />
      <stop
         style="stop-color:#787878;stop-opacity:1;"
         offset="0.14014983"
         id="stop3854" />
      <stop
         id="stop3856"
         offset="1"
         style="stop-color:#454545;stop-opacity:1;" />
    </linearGradient>
    <linearGradient
       id="linearGradient3752">
      <stop
         style="stop-color:#ffffff;stop-opacity:1;"
         offset="0"
         id="stop3754" />
      <stop
         style="stop-color:#ffffff;stop-opacity:0;"
         offset="1"
         id="stop3756" />
    </linearGradient>
    <linearGradient
       inkscape:collect="always"
       id="linearGradient3742">
      <stop
         style="stop-color:#ffffff;stop-opacity:1;"
         offset="0"
         id="stop3744" />
      <stop
         style="stop-color:#ffffff;stop-opacity:0;"
         offset="1"
         id="stop3746" />
    </linearGradient>
    <linearGradient
       id="linearGradient3697">
      <stop
         id="stop3699"
         offset="0"
         style="stop-color:#ffff35;stop-opacity:1;" />
      <stop
         style="stop-color:#f2cf13;stop-opacity:1;"
         offset="0.2734969"
         id="stop3701" />
      <stop
         id="stop3703"
         offset="1"
         style="stop-color:#e3300d;stop-opacity:1;" />
    </linearGradient>
    <linearGradient
       id="linearGradient3657">
      <stop
         style="stop-color:#a7a7a7;stop-opacity:1;"
         offset="0"
         id="stop3659" />
      <stop
         id="stop3661"
         offset="0.75247103"
         style="stop-color:#787878;stop-opacity:0.49019608;" />
      <stop
         style="stop-color:#454545;stop-opacity:1;"
         offset="0.84378421"
         id="stop3667" />
      <stop
         style="stop-color:#a7a7a7;stop-opacity:1;"
         offset="1"
         id="stop3663" />
    </linearGradient>
    <filter
       inkscape:collect="always"
       id="filter3788">
      <feGaussianBlur
         inkscape:collect="always"
         stdDeviation="0.86071426"
         id="feGaussianBlur3790" />
    </filter>
    <filter
       inkscape:collect="always"
       id="filter3796">
      <feGaussianBlur
         inkscape:collect="always"
         stdDeviation="0.18609369"
         id="feGaussianBlur3798" />
    </filter>
    <filter
       inkscape:collect="always"
       id="filter3820">
      <feGaussianBlur
         inkscape:collect="always"
         stdDeviation="0.43035713"
         id="feGaussianBlur3822" />
    </filter>
    <filter
       inkscape:collect="always"
       id="filter3834">
      <feGaussianBlur
         inkscape:collect="always"
         stdDeviation="2.1046875"
         id="feGaussianBlur3836" />
    </filter>
    <filter
       inkscape:collect="always"
       id="filter3890">
      <feGaussianBlur
         inkscape:collect="always"
         stdDeviation="0.15911192"
         id="feGaussianBlur3892" />
    </filter>
    <filter
       inkscape:collect="always"
       id="filter3936"
       x="-0.23692523"
       width="1.4738505"
       y="-0.42000383"
       height="1.8400077">
      <feGaussianBlur
         inkscape:collect="always"
         stdDeviation="3.8891228"
         id="feGaussianBlur3938" />
    </filter>
    <linearGradient
       inkscape:collect="always"
       xlink:href="#linearGradient3742"
       id="linearGradient3952"
       gradientUnits="userSpaceOnUse"
       x1="-243.63553"
       y1="-133.07162"
       x2="-268.84824"
       y2="-63.392662" />
    <radialGradient
       inkscape:collect="always"
       xlink:href="#linearGradient3697"
       id="radialGradient3954"
       gradientUnits="userSpaceOnUse"
       gradientTransform="matrix(3.7056904,1.0220755e-7,-1.2733869e-7,3.544185,689.28366,211.64109)"
       cx="-251.24484"
       cy="-81.793434"
       fx="-251.24484"
       fy="-81.793434"
       r="43.035713" />
    <linearGradient
       inkscape:collect="always"
       xlink:href="#linearGradient3742"
       id="linearGradient3956"
       gradientUnits="userSpaceOnUse"
       x1="-243.63553"
       y1="-133.07162"
       x2="-268.84824"
       y2="-63.392662" />
    <linearGradient
       inkscape:collect="always"
       xlink:href="#linearGradient3752"
       id="linearGradient3960"
       gradientUnits="userSpaceOnUse"
       x1="-293.26184"
       y1="58.733173"
       x2="-207.15472"
       y2="-145.92632" />
    <linearGradient
       inkscape:collect="always"
       xlink:href="#linearGradient3850"
       id="linearGradient3962"
       gradientUnits="userSpaceOnUse"
       x1="-258.03125"
       y1="-218.09114"
       x2="-258.03125"
       y2="13.826852" />
    <linearGradient
       inkscape:collect="always"
       xlink:href="#linearGradient3904"
       id="linearGradient3964"
       gradientUnits="userSpaceOnUse"
       x1="-274.25641"
       y1="-41.341217"
       x2="-274.25641"
       y2="-64.282303" />
    <filter
       inkscape:collect="always"
       id="filter4004">
      <feGaussianBlur
         inkscape:collect="always"
         stdDeviation="1.3003125"
         id="feGaussianBlur4006" />
    </filter>
    <radialGradient
       inkscape:collect="always"
       xlink:href="#linearGradient3657"
       id="radialGradient4028"
       gradientUnits="userSpaceOnUse"
       gradientTransform="matrix(1.3234163,0,0,1.468267,87.737812,38.331234)"
       cx="-271.2843"
       cy="-81.857658"
       fx="-271.2843"
       fy="-81.857658"
       r="63.159649" />
    <radialGradient
       inkscape:collect="always"
       xlink:href="#linearGradient4065"
       id="radialGradient4030"
       gradientUnits="userSpaceOnUse"
       gradientTransform="matrix(1.936707,0,0,2.285765,240.10313,55.509666)"
       cx="-246.77034"
       cy="-39.23901"
       fx="-246.77034"
       fy="-39.23901"
       r="43.035713" />
    <filter
       inkscape:collect="always"
       id="filter4061">
      <feGaussianBlur
         inkscape:collect="always"
         stdDeviation="0.44023431"
         id="feGaussianBlur4063" />
    </filter>
    <radialGradient
       inkscape:collect="always"
       xlink:href="#linearGradient3710"
       id="radialGradient3708"
       gradientUnits="userSpaceOnUse"
       gradientTransform="matrix(1.3234163,0,0,1.468267,87.737812,38.331234)"
       cx="-271.2843"
       cy="-81.857658"
       fx="-271.2843"
       fy="-81.857658"
       r="63.159649" />
  </defs>
  <sodipodi:namedview
     id="base"
     pagecolor="#101010"
     bordercolor="#666666"
     borderopacity="1.0"
     inkscape:pageopacity="0"
     inkscape:pageshadow="2"
     inkscape:zoom="1.979899"
     inkscape:cx="51.885238"
     inkscape:cy="37.373907"
     inkscape:document-units="px"
     inkscape:current-layer="g3940"
     showgrid="false"
     inkscape:showpageshadow="false"
     showguides="true"
     inkscape:guide-bbox="true"
     inkscape:window-width="1024"
     inkscape:window-height="696"
     inkscape:window-x="0"
     inkscape:window-y="24"
     inkscape:window-maximized="1" />
  <metadata
     id="metadata7">
    <rdf:RDF>
      <cc:Work
         rdf:about="">
        <dc:format>image/svg+xml</dc:format>
        <dc:type
           rdf:resource="http://purl.org/dc/dcmitype/StillImage" />
        <dc:title />
      </cc:Work>
    </rdf:RDF>
  </metadata>
  <g
     inkscape:label="Ebene 1"
     inkscape:groupmode="layer"
     id="layer1"
     transform="translate(0,-924.36218)">
    <g
       id="g3940"
       transform="matrix(0.8373201,0,0,0.8373201,291.2579,282.94715)">
      <path
         sodipodi:type="inkscape:offset"
         inkscape:radius="0"
         inkscape:original="M -273.46875 -144.875 L -273.03125 -131.90625 L -274 -144.4375 C -274.0312 -140.25 -274.06255 -136.0625 -274.09375 -131.875 L -276.125 -144.46875 L -275.0625 -131.28125 L -277.625 -143.5 L -277.15625 -131.8125 L -278.1875 -144.125 L -277.78125 -132.03125 L -280.375 -143.875 L -279.34375 -131.53125 L -281.5625 -143.34375 L -279.5 -131.40625 L -282.375 -143.625 L -281.03125 -130.6875 L -283.96875 -142.65625 L -282.875 -131.1875 L -285.09375 -143.15625 L -283.0625 -130.46875 L -286.9375 -141.78125 L -284.625 -129.65625 L -287.875 -142.4375 L -285.75 -129.84375 L -289.8125 -142.03125 L -286.96875 -129.6875 L -291.46875 -140.78125 L -288.1875 -129.03125 L -292.4375 -140.5 L -288.5 -128.71875 L -293.34375 -140.125 L -289.71875 -127.9375 L -295.1875 -139.59375 L -290.75 -128.40625 L -296.625 -139.65625 L -291.84375 -127.8125 L -297.875 -138.46875 L -292.5625 -127.5625 L -298.65625 -137.75 L -293.8125 -126.8125 L -299.65625 -137.5 L -295.4375 -126.46875 L -300.8125 -136.09375 L -296.125 -125.78125 L -302.0625 -135.65625 L -297.21875 -124.9375 L -303.96875 -134.5625 L -297.8125 -124.71875 L -305.625 -134.03125 L -298.75 -123.75 L -306.3125 -134.375 L -299.84375 -123 L -306.84375 -132.34375 L -301.15625 -122.75 L -309.125 -132.25 L -301.3125 -122.375 L -310.03125 -131.8125 L -302.125 -120.78125 L -310.6875 -130.0625 L -303 -120.28125 L -311.625 -130.0625 L -303.75 -119.90625 L -313.53125 -127.96875 L -305.25 -118.46875 L -313.9375 -127.8125 L -305.53125 -117.59375 L -314.5 -126.46875 L -306.84375 -116.71875 L -315.9375 -125.71875 L -307.03125 -115.96875 L -316.90625 -124.4375 L -308.78125 -115.5625 L -317.96875 -123.78125 L -309.125 -114.6875 L -318.53125 -122.4375 L -309.40625 -113.40625 L -320.34375 -121.0625 L -309.96875 -113 L -320.03125 -119.78125 L -311.59375 -111.65625 L -321.84375 -119.53125 L -311.65625 -111.46875 L -322.46875 -118.28125 L -312.71875 -110.84375 C -314.11544 -111.47656 -315.50956 -112.00968 -316.90625 -112.59375 L -312.84375 -109.84375 L -323.84375 -116.34375 L -313.8125 -108.875 L -324.09375 -114 L -313.71875 -108.09375 L -325.34375 -113.5625 L -314.53125 -106.75 L -325.71875 -111.6875 L -314.90625 -105.59375 L -326.625 -111.15625 L -315.53125 -105 L -327.21875 -109.71875 L -316.875 -103.84375 L -328.1875 -108.03125 L -316.5 -102.875 L -328.8125 -106.59375 L -317.53125 -102.125 L -328.46875 -106.125 L -318.0625 -100.03125 L -329.09375 -104 L -318.625 -99.4375 L -329.9375 -102.53125 L -318.59375 -98.375 L -331.125 -102.0625 L -319.375 -97.875 L -330.59375 -100.6875 L -319.59375 -96.25 L -330.8125 -98.6875 L -319.0625 -95.3125 L -331.34375 -98.25 L -320 -94.09375 L -332.625 -96.5 L -320.5625 -93.1875 L -332.84375 -94.46875 L -320.8125 -91.6875 L -333.21875 -93.75 L -321 -90.75 L -333.03125 -92.65625 L -320.625 -89.875 L -333.65625 -91.25 L -320.8125 -88.28125 L -333.1875 -89.53125 L -320.96875 -87.875 L -332.90625 -87.625 L -321.71875 -85.75 L -333.28125 -86.90625 L -321.125 -85.25 L -334.28125 -85.8125 L -321.1875 -84 L -334.28125 -84.15625 L -321.84375 -82.46875 L -333.6875 -82.96875 L -321.125 -81.9375 L -333.21875 -81.3125 L -321.625 -80.15625 L -334.1875 -79.40625 L -320.9375 -79.65625 L -333.78125 -77.90625 L -321.375 -78.3125 L -333.09375 -76.9375 L -320.53125 -77.5 L -333 -75.0625 L -321.53125 -75.6875 L -333.6875 -73.96875 L -320.625 -74.65625 L -333.1875 -72.8125 L -320.90625 -74.125 L -332.3125 -70.6875 L -320.6875 -72.90625 L -332.75 -70.03125 L -319.75 -72.09375 L -332.65625 -68.75 L -320 -70.625 L -331.5625 -67.0625 L -319.21875 -69.84375 L -331.875 -65.46875 L -319.625 -68.5 L -331.78125 -64.5625 L -319.21875 -67.28125 L -331.1875 -62.5625 L -319 -66.34375 L -330.875 -62.03125 L -318.875 -65.40625 L -330 -60.90625 L -318.0625 -64.5625 L -329.5625 -59.15625 L -317.40625 -63.21875 L -329.375 -57.5 L -317.4375 -61.5625 L -328.8125 -56.28125 L -317.09375 -61.25 L -327.875 -55.5 L -316.65625 -59.59375 L -327.34375 -53.8125 L -315.9375 -59.3125 L -325.84375 -52.09375 L -315.28125 -57.875 L -325.46875 -51.59375 L -314.84375 -56.90625 L -325.4375 -50.53125 L -314.03125 -56.5625 L -324 -48.34375 L -313.375 -54.875 L -322.96875 -47.5 L -313.09375 -53.8125 L -323.125 -46.4375 L -312.34375 -53.09375 L -322.5 -45.84375 L -312 -51.75 L -321.25 -44.84375 L -311.25 -51.46875 L -319.9375 -42.6875 L -310.34375 -50.0625 L -319.4375 -41.71875 L -309.71875 -49.125 L -318.8125 -40.53125 L -308.40625 -48.34375 L -317.5625 -39.46875 L -308 -48 L -317 -38.4375 L -306.90625 -47.59375 L -315.34375 -37.5625 L -306.3125 -45.9375 L -314.53125 -37.5625 L -305.625 -45.3125 L -313.9375 -36.40625 L -304.875 -45.21875 L -312.28125 -35.125 L -303.625 -43.75 L -311.59375 -34.125 L -303.46875 -43.03125 L -310 -32.78125 L -302.1875 -43.125 L -308.8125 -32.375 L -300.8125 -41.40625 L -308.6875 -31.75 L -300.25 -41.1875 L -307.125 -31.1875 L -299.28125 -40.40625 L -306 -29.6875 L -298.25 -40.46875 L -304.8125 -29.15625 L -296.96875 -40 L -303.90625 -27.84375 L -295.9375 -39.21875 L -302.09375 -27.5625 L -295.71875 -38.03125 L -300.375 -26.78125 L -294.71875 -38.125 L -299.46875 -26.3125 L -293.9375 -36.8125 L -298.6875 -25.46875 L -292.375 -36.375 L -297.4375 -24.71875 L -291.90625 -36.28125 L -295.84375 -24 L -290.03125 -35.8125 L -294.5625 -24.28125 L -289.21875 -35.5625 L -293.625 -23.0625 L -287.8125 -35.125 L -291.875 -23.09375 L -287.15625 -35 L -290.625 -22.40625 L -285.75 -33.8125 L -289.1875 -22.15625 L -285 -33.6875 L -287.34375 -21.28125 L -284.3125 -33.84375 L -286.53125 -22.09375 L -282.53125 -33.34375 L -285.75 -21.09375 L -282.09375 -33.5 L -283.1875 -21.34375 L -281.34375 -32.46875 L -281.9375 -20.625 L -279.71875 -32.9375 L -280.96875 -20.375 L -278.1875 -32.5625 L -279.65625 -20.59375 L -277.75 -32.3125 C -277.8333 -28.270833 -277.91667 -24.229167 -278 -20.1875 L -275.8125 -32.25 L -276.71875 -19.75 L -274.96875 -32.3125 L -275.90625 -19.15625 L -273.90625 -31.9375 C -273.99995 -27.90625 -274.09375 -23.875 -274.1875 -19.84375 L -272.875 -31.71875 L -272.375 -19.0625 L -271.9375 -32.4375 L -271.53125 -20.09375 L -270.75 -32.34375 L -269.75 -19.5 C -269.7188 -23.59375 -269.68745 -27.6875 -269.65625 -31.78125 L -268.6875 -19.25 C -268.6146 -23.46875 -268.54167 -27.6875 -268.46875 -31.90625 L -267.0625 -19.3125 L -267.5625 -31.84375 L -265.0625 -20.1875 L -265.53125 -31.875 L -263.78125 -20.125 L -264.90625 -32.90625 L -262.3125 -20.28125 L -263.28125 -32.8125 C -263.24865 -32.620804 -263.2218 -32.441362 -263.1875 -32.25 L -260.3125 -20.53125 L -262.1875 -33.59375 L -257.96875 -20.375 L -261.0625 -33.75 L -256.84375 -21.125 L -259.5625 -33.90625 L -256.03125 -21.9375 L -258.03125 -34.03125 L -254.75 -22.40625 L -257.5 -34.53125 L -252.90625 -22.15625 L -255.6875 -34 L -251.1875 -22.8125 L -254.75 -34.21875 L -250.8125 -23.09375 L -254.1875 -34.96875 L -249.34375 -24.03125 L -252.90625 -35.1875 L -247.53125 -24.59375 L -251.875 -36.4375 L -246.5625 -24.625 L -250.84375 -36.34375 L -244.84375 -25.6875 L -250.09375 -37.28125 L -244.5625 -26.53125 L -249.4375 -38.03125 L -242.375 -26.09375 L -247.8125 -38.375 L -241.125 -26.6875 L -246.5 -39.0625 L -240.625 -28 L -245.46875 -39.21875 L -239.5 -28.5 L -244.84375 -40.125 L -237.625 -29.5 L -244.53125 -39.84375 L -236.9375 -30.46875 L -243.4375 -40.59375 L -235.8125 -31.25 L -242.8125 -41.3125 L -234.84375 -31.90625 L -241.40625 -41.8125 L -232.65625 -33.125 L -240.59375 -43.40625 L -232 -33.625 L -239.875 -44.09375 L -231.03125 -34.78125 L -238.96875 -44.25 L -230.34375 -35.15625 L -237.46875 -45.6875 L -228.6875 -36.90625 L -236.5 -46 L -228.1875 -37.6875 L -235.78125 -46.875 L -226.78125 -38.4375 L -235.65625 -46.96875 L -225.8125 -39.75 L -235.15625 -48.125 L -224.71875 -40.375 L -233.46875 -49.6875 L -224.1875 -41.71875 L -233.28125 -50.1875 L -223.15625 -42.09375 L -231.96875 -50.8125 L -221.9375 -43.25 L -231.65625 -51.4375 L -220.96875 -45.4375 L -229.96875 -53.34375 L -219.1875 -47.125 L -229.875 -54.3125 L -218.75 -48.03125 L -228.90625 -55.28125 L -218.59375 -49.71875 L -229 -56.09375 L -217.34375 -50.125 L -228.09375 -56.84375 L -216.96875 -52 L -227.71875 -58 L -216.0625 -53.03125 L -227.1875 -59.1875 L -215.46875 -54.4375 L -227.03125 -61 L -214.5 -56.15625 L -226.15625 -61.96875 L -213.90625 -56.3125 L -225.15625 -62.03125 L -214.09375 -58.15625 L -224.625 -62.90625 L -212.875 -59.03125 L -224.625 -64.9375 L -212.75 -60.375 L -224.5625 -65.40625 L -212.84375 -62.125 L -223.5 -67.28125 L -212.09375 -63.5 L -223.28125 -67.65625 L -211.8125 -64.4375 L -223.0625 -69.1875 L -211.34375 -66.6875 L -222.96875 -69.53125 L -210.625 -67.875 L -222.125 -70.96875 L -210.40625 -69.125 L -223.09375 -71.90625 L -210.71875 -70.4375 L -222.25 -72.84375 L -209.53125 -71.5 L -222.65625 -74.96875 L -210.25 -73.59375 L -221.90625 -75.90625 L -209.4375 -74.0625 L -221.71875 -76.3125 L -209.8125 -76.5625 L -222.21875 -77.1875 L -209.40625 -77.25 L -221.5 -78.34375 L -209.65625 -78.375 L -221.4375 -79.59375 L -209.65625 -79.53125 L -222.03125 -80.65625 L -209.5625 -81.40625 L -221.4375 -81.84375 L -209.46875 -82.375 L -221.59375 -82.96875 L -208.53125 -84.78125 L -221.6875 -83.9375 L -209.46875 -85.6875 L -221.25 -85.28125 L -209.625 -87.25 L -222.15625 -86.65625 L -209.71875 -89.125 L -222.34375 -87.90625 L -209 -90.21875 L -222.03125 -88.9375 L -209.4375 -90.78125 L -221.71875 -89.46875 L -209.6875 -92.90625 L -222 -91.25 L -209.96875 -94.15625 L -222.96875 -92.09375 L -210.625 -96.09375 L -222.71875 -93.53125 L -210.375 -96.71875 L -222.96875 -93.96875 L -210.78125 -98.21875 L -223.34375 -95.21875 L -212.15625 -99.125 L -224.1875 -96.0625 L -211.53125 -101.5 L -223.625 -98.03125 L -213.0625 -102.125 L -225.0625 -98.3125 L -212.625 -103.9375 L -224.53125 -99.8125 L -213.125 -105.03125 L -225.28125 -100.9375 L -214.5625 -106.65625 L -225.1875 -102.03125 L -215.125 -107.875 L -225.625 -102.9375 L -214.8125 -108.65625 L -227.1875 -103.40625 L -215.375 -110.375 L -226.75 -104.78125 L -216.71875 -110.8125 L -228 -105.71875 L -217.21875 -112.125 L -227.8125 -106.6875 L -217.1875 -113.8125 L -229.25 -108.28125 L -218.6875 -115.34375 L -229.28125 -108.71875 L -219.6875 -116.09375 L -229.625 -110.34375 L -219.59375 -117.75 L -230.28125 -110.5 L -221.40625 -119 L -230.6875 -111.15625 L -221.4375 -119.3125 L -231.4375 -112.21875 L -222.78125 -120.25 L -232.34375 -113.65625 L -223.46875 -121.4375 L -233.46875 -114.6875 L -223.90625 -122.40625 L -234.28125 -115.34375 L -225.125 -123.46875 L -235.1875 -116.28125 L -226.90625 -125.1875 L -235.71875 -117.25 L -227.3125 -126.03125 L -236.375 -118.21875 L -228.09375 -127.28125 L -237.09375 -118.875 L -229.3125 -127.84375 L -237.78125 -119.625 L -230.25 -128.6875 L -238.5 -119.5 L -231.59375 -129.6875 L -239.96875 -120.78125 L -232.59375 -130.34375 L -241.09375 -121.71875 L -233.875 -131.3125 L -241.875 -121.5 L -235.28125 -132.40625 L -243.03125 -122.40625 L -235.59375 -132.96875 L -243.4375 -123.78125 L -236.71875 -134.375 L -245 -124.375 L -237.875 -135 L -245.71875 -124.15625 L -238.96875 -135.28125 L -246.78125 -124.9375 L -240.53125 -136.03125 L -246.90625 -125.5625 L -241.59375 -137.46875 L -248 -126.03125 L -243.15625 -137.28125 L -249.90625 -126.21875 L -244.5625 -138.125 L -250.25 -127.21875 L -245.1875 -138.875 L -251.375 -127.34375 L -246.84375 -138.90625 L -252.65625 -127.875 L -248.71875 -139.3125 L -253.4375 -128.125 L -249.5625 -139.96875 L -254.875 -128.59375 L -250.75 -140.5 L -255.65625 -129.46875 L -252.0625 -141.78125 L -256.875 -129.3125 L -253.5 -142.03125 L -257.625 -129.40625 L -254.9375 -141.875 L -258.375 -129.84375 L -256.09375 -142.75 L -260.15625 -130.34375 L -258.21875 -143.0625 L -260.46875 -130.28125 L -259.53125 -142.8125 L -261.8125 -131.3125 L -260.09375 -142.96875 L -262.96875 -130.75 L -261.75 -143.8125 L -264.375 -131.25 L -263.0625 -143.5625 L -264.875 -132.0625 C -264.7917 -136.10417 -264.70833 -140.14583 -264.625 -144.1875 L -266.8125 -132.125 L -265.90625 -144.625 L -267.71875 -131.375 L -268.03125 -144.53125 L -268.6875 -132.4375 C -268.5938 -136.45833 -268.5 -140.47917 -268.40625 -144.5 L -269.8125 -131.96875 L -270.75 -144.15625 C -270.8333 -140.125 -270.91667 -136.09375 -271 -132.0625 L -271.40625 -144.375 L -271.9375 -131.34375 L -273.46875 -144.875 z M -316.90625 -112.59375 L -323.53125 -117.0625 C -321.32377 -114.64251 -319.11373 -113.51687 -316.90625 -112.59375 z "
         style="fill:url(#radialGradient3708);fill-opacity:1;stroke:none;filter:url(#filter4061)"
         id="path3706"
         d="m -273.46875,-144.875 0.4375,12.96875 L -274,-144.4375 c -0.0312,4.1875 -0.0625,8.375 -0.0937,12.5625 l -2.03125,-12.59375 1.0625,13.1875 -2.5625,-12.21875 0.46875,11.6875 -1.03125,-12.3125 0.40625,12.09375 -2.59375,-11.84375 1.03125,12.34375 -2.21875,-11.8125 2.0625,11.9375 -2.875,-12.21875 1.34375,12.9375 -2.9375,-11.96875 1.09375,11.46875 -2.21875,-11.96875 2.03125,12.6875 -3.875,-11.3125 2.3125,12.125 -3.25,-12.78125 2.125,12.59375 -4.0625,-12.1875 2.84375,12.34375 -4.5,-11.09375 3.28125,11.75 -4.25,-11.46875 3.9375,11.78125 -4.84375,-11.40625 3.625,12.1875 -5.46875,-11.65625 4.4375,11.1875 -5.875,-11.25 4.78125,11.84375 -6.03125,-10.65625 5.3125,10.90625 -6.09375,-10.1875 4.84375,10.9375 -5.84375,-10.6875 4.21875,11.03125 -5.375,-9.625 4.6875,10.3125 -5.9375,-9.875 4.84375,10.71875 -6.75,-9.625 6.15625,9.84375 -7.8125,-9.3125 6.875,10.28125 -7.5625,-10.625 6.46875,11.375 -7,-9.34375 5.6875,9.59375 -7.96875,-9.5 7.8125,9.875 -8.71875,-9.4375 7.90625,11.03125 -8.5625,-9.28125 7.6875,9.78125 -8.625,-9.78125 7.875,10.15625 -9.78125,-8.0625 8.28125,9.5 -8.6875,-9.34375 8.40625,10.21875 -8.96875,-8.875 7.65625,9.75 -9.09375,-9 8.90625,9.75 -9.875,-8.46875 8.125,8.875 -9.1875,-8.21875 8.84375,9.09375 -9.40625,-7.75 9.125,9.03125 -10.9375,-7.65625 10.375,8.0625 -10.0625,-6.78125 8.4375,8.125 -10.25,-7.875 10.1875,8.0625 -10.8125,-6.8125 9.75,7.4375 c -1.39669,-0.63281 -2.79081,-1.16593 -4.1875,-1.75 l 4.0625,2.75 -11,-6.5 10.03125,7.46875 -10.28125,-5.125 10.375,5.90625 -11.625,-5.46875 10.8125,6.8125 -11.1875,-4.9375 10.8125,6.09375 -11.71875,-5.5625 11.09375,6.15625 -11.6875,-4.71875 10.34375,5.875 -11.3125,-4.1875 11.6875,5.15625 -12.3125,-3.71875 11.28125,4.46875 -10.9375,-4 10.40625,6.09375 -11.03125,-3.96875 10.46875,4.5625 -11.3125,-3.09375 11.34375,4.15625 -12.53125,-3.6875 11.75,4.1875 -11.21875,-2.8125 11,4.4375 -11.21875,-2.4375 11.75,3.375 -12.28125,-2.9375 11.34375,4.15625 -12.625,-2.40625 12.0625,3.3125 -12.28125,-1.28125 12.03125,2.78125 -12.40625,-2.0625 12.21875,3 -12.03125,-1.90625 12.40625,2.78125 -13.03125,-1.375 12.84375,2.96875 -12.375,-1.25 12.21875,1.65625 -11.9375,0.25 11.1875,1.875 -11.5625,-1.15625 12.15625,1.65625 -13.15625,-0.5625 13.09375,1.8125 -13.09375,-0.15625 12.4375,1.6875 -11.84375,-0.5 12.5625,1.03125 -12.09375,0.625 11.59375,1.15625 -12.5625,0.75 13.25,-0.25 -12.84375,1.75 12.40625,-0.40625 -11.71875,1.375 12.5625,-0.5625 -12.46875,2.4375 11.46875,-0.625 -12.15625,1.71875 13.0625,-0.6875 -12.5625,1.84375 12.28125,-1.3125 -11.40625,3.4375 11.625,-2.21875 -12.0625,2.875 13,-2.0625 -12.90625,3.34375 12.65625,-1.875 -11.5625,3.5625 12.34375,-2.78125 -12.65625,4.375 12.25,-3.03125 -12.15625,3.9375 12.5625,-2.71875 -11.96875,4.71875 12.1875,-3.78125 -11.875,4.3125 12,-3.375 -11.125,4.5 11.9375,-3.65625 -11.5,5.40625 12.15625,-4.0625 -11.96875,5.71875 11.9375,-4.0625 -11.375,5.28125 11.71875,-4.96875 -10.78125,5.75 11.21875,-4.09375 -10.6875,5.78125 11.40625,-5.5 -9.90625,7.21875 10.5625,-5.78125 -10.1875,6.28125 10.625,-5.3125 -10.59375,6.375 11.40625,-6.03125 -9.96875,8.21875 10.625,-6.53125 -9.59375,7.375 9.875,-6.3125 -10.03125,7.375 10.78125,-6.65625 -10.15625,7.25 10.5,-5.90625 -9.25,6.90625 10,-6.625 -8.6875,8.78125 9.59375,-7.375 -9.09375,8.34375 9.71875,-7.40625 -9.09375,8.59375 10.40625,-7.8125 -9.15625,8.875 L -308,-48 l -9,9.5625 10.09375,-9.15625 -8.4375,10.03125 9.03125,-8.375 -8.21875,8.375 8.90625,-7.75 -8.3125,8.90625 9.0625,-8.8125 -7.40625,10.09375 8.65625,-8.625 -7.96875,9.625 8.125,-8.90625 -6.53125,10.25 7.8125,-10.34375 -6.625,10.75 8,-9.03125 -7.875,9.65625 8.4375,-9.4375 -6.875,10 7.84375,-9.21875 -6.71875,10.71875 7.75,-10.78125 -6.5625,11.3125 7.84375,-10.84375 -6.9375,12.15625 7.96875,-11.375 -6.15625,11.65625 6.375,-10.46875 -4.65625,11.25 5.65625,-11.34375 -4.75,11.8125 5.53125,-10.5 -4.75,11.34375 6.3125,-10.90625 -5.0625,11.65625 5.53125,-11.5625 -3.9375,12.28125 5.8125,-11.8125 -4.53125,11.53125 5.34375,-11.28125 -4.40625,12.5 5.8125,-12.0625 -4.0625,12.03125 4.71875,-11.90625 -3.46875,12.59375 4.875,-11.40625 -3.4375,11.65625 4.1875,-11.53125 -2.34375,12.40625 3.03125,-12.5625 -2.21875,11.75 4,-11.25 -3.21875,12.25 3.65625,-12.40625 -1.09375,12.15625 1.84375,-11.125 -0.59375,11.84375 2.21875,-12.3125 -1.25,12.5625 2.78125,-12.1875 -1.46875,11.96875 1.90625,-11.71875 c -0.0833,4.041667 -0.16667,8.083333 -0.25,12.125 l 2.1875,-12.0625 -0.90625,12.5 1.75,-12.5625 -0.9375,13.15625 2,-12.78125 c -0.0937,4.03125 -0.1875,8.0625 -0.28125,12.09375 l 1.3125,-11.875 0.5,12.65625 0.4375,-13.375 0.40625,12.34375 0.78125,-12.25 1,12.84375 c 0.0312,-4.09375 0.0625,-8.1875 0.0937,-12.28125 l 0.96875,12.53125 c 0.0729,-4.21875 0.14583,-8.4375 0.21875,-12.65625 l 1.40625,12.59375 -0.5,-12.53125 2.5,11.65625 -0.46875,-11.6875 1.75,11.75 -1.125,-12.78125 2.59375,12.625 -0.96875,-12.53125 c 0.0326,0.191696 0.0595,0.371138 0.0937,0.5625 l 2.875,11.71875 -1.875,-13.0625 4.21875,13.21875 -3.09375,-13.375 4.21875,12.625 -2.71875,-12.78125 3.53125,11.96875 -2,-12.09375 3.28125,11.625 -2.75,-12.125 4.59375,12.375 L -255.6875,-34 l 4.5,11.1875 -3.5625,-11.40625 3.9375,11.125 -3.375,-11.875 4.84375,10.9375 -3.5625,-11.15625 5.375,10.59375 -4.34375,-11.84375 5.3125,11.8125 -4.28125,-11.71875 6,10.65625 -5.25,-11.59375 5.53125,10.75 -4.875,-11.5 7.0625,11.9375 -5.4375,-12.28125 6.6875,11.6875 -5.375,-12.375 5.875,11.0625 -4.84375,-11.21875 5.96875,10.71875 -5.34375,-11.625 7.21875,10.625 -6.90625,-10.34375 7.59375,9.375 -6.5,-10.125 7.625,9.34375 -7,-10.0625 7.96875,9.40625 -6.5625,-9.90625 8.75,8.6875 -7.9375,-10.28125 8.59375,9.78125 -7.875,-10.46875 8.84375,9.3125 -7.9375,-9.46875 8.625,9.09375 -7.125,-10.53125 8.78125,8.78125 L -236.5,-46 l 8.3125,8.3125 -7.59375,-9.1875 9,8.4375 -8.875,-8.53125 9.84375,7.21875 -9.34375,-8.375 10.4375,7.75 -8.75,-9.3125 9.28125,7.96875 -9.09375,-8.46875 10.125,8.09375 -8.8125,-8.71875 10.03125,7.5625 -9.71875,-8.1875 10.6875,6 -9,-7.90625 10.78125,6.21875 -10.6875,-7.1875 11.125,6.28125 -10.15625,-7.25 10.3125,5.5625 -10.40625,-6.375 11.65625,5.96875 -10.75,-6.71875 11.125,4.84375 -10.75,-6 11.65625,4.96875 -11.125,-6.15625 11.71875,4.75 -11.5625,-6.5625 12.53125,4.84375 -11.65625,-5.8125 12.25,5.65625 -11.25,-5.71875 11.0625,3.875 -10.53125,-4.75 11.75,3.875 -11.75,-5.90625 11.875,4.5625 -11.8125,-5.03125 11.71875,3.28125 -10.65625,-5.15625 11.40625,3.78125 -11.1875,-4.15625 11.46875,3.21875 -11.25,-4.75 11.71875,2.5 -11.625,-2.84375 12.34375,1.65625 -11.5,-3.09375 11.71875,1.84375 -12.6875,-2.78125 12.375,1.46875 -11.53125,-2.40625 12.71875,1.34375 -13.125,-3.46875 12.40625,1.375 -11.65625,-2.3125 12.46875,1.84375 -12.28125,-2.25 11.90625,-0.25 -12.40625,-0.625 12.8125,-0.0625 -12.09375,-1.09375 11.84375,-0.03125 -11.78125,-1.21875 11.78125,0.0625 -12.375,-1.125 12.46875,-0.75 -11.875,-0.4375 11.96875,-0.53125 -12.125,-0.59375 13.0625,-1.8125 -13.15625,0.84375 12.21875,-1.75 -11.78125,0.40625 11.625,-1.96875 -12.53125,0.59375 12.4375,-2.46875 -12.625,1.21875 13.34375,-2.3125 -13.03125,1.28125 12.59375,-1.84375 -12.28125,1.3125 12.03125,-3.4375 L -222,-91.25 l 12.03125,-2.90625 -13,2.0625 12.34375,-4 -12.09375,2.5625 12.34375,-3.1875 -12.59375,2.75 12.1875,-4.25 -12.5625,3 11.1875,-3.90625 -12.03125,3.0625 12.65625,-5.4375 -12.09375,3.46875 10.5625,-4.09375 -12,3.8125 12.4375,-5.625 -11.90625,4.125 11.40625,-5.21875 -12.15625,4.09375 10.71875,-5.71875 -10.625,4.625 10.0625,-5.84375 -10.5,4.9375 10.8125,-5.71875 -12.375,5.25 11.8125,-6.96875 -11.375,5.59375 10.03125,-6.03125 -11.28125,5.09375 10.78125,-6.40625 -10.59375,5.4375 10.625,-7.125 -12.0625,5.53125 10.5625,-7.0625 -10.59375,6.625 9.59375,-7.375 -9.9375,5.75 10.03125,-7.40625 -10.6875,7.25 8.875,-8.5 -9.28125,7.84375 9.25,-8.15625 -10,7.09375 8.65625,-8.03125 -9.5625,6.59375 8.875,-7.78125 -10,6.75 9.5625,-7.71875 -10.375,7.0625 9.15625,-8.125 -10.0625,7.1875 8.28125,-8.90625 -8.8125,7.9375 8.40625,-8.78125 -9.0625,7.8125 8.28125,-9.0625 -9,8.40625 7.78125,-8.96875 -8.46875,8.21875 7.53125,-9.0625 -8.25,9.1875 6.90625,-10.1875 -8.375,8.90625 7.375,-9.5625 -8.5,8.625 7.21875,-9.59375 -8,9.8125 6.59375,-10.90625 -7.75,10 7.4375,-10.5625 -7.84375,9.1875 6.71875,-10.59375 -8.28125,10 7.125,-10.625 -7.84375,10.84375 6.75,-11.125 -7.8125,10.34375 6.25,-11.09375 -6.375,10.46875 5.3125,-11.90625 -6.40625,11.4375 4.84375,-11.25 -6.75,11.0625 5.34375,-11.90625 -5.6875,10.90625 5.0625,-11.65625 -6.1875,11.53125 4.53125,-11.5625 -5.8125,11.03125 3.9375,-11.4375 -4.71875,11.1875 3.875,-11.84375 -5.3125,11.375 4.125,-11.90625 -4.90625,11.03125 3.59375,-12.3125 -4.8125,12.46875 3.375,-12.71875 -4.125,12.625 2.6875,-12.46875 -3.4375,12.03125 2.28125,-12.90625 -4.0625,12.40625 1.9375,-12.71875 -2.25,12.78125 0.9375,-12.53125 -2.28125,11.5 1.71875,-11.65625 -2.875,12.21875 1.21875,-13.0625 -2.625,12.5625 1.3125,-12.3125 -1.8125,11.5 c 0.0833,-4.04167 0.16667,-8.08333 0.25,-12.125 l -2.1875,12.0625 0.90625,-12.5 -1.8125,13.25 -0.3125,-13.15625 -0.65625,12.09375 c 0.0937,-4.02083 0.1875,-8.04167 0.28125,-12.0625 l -1.40625,12.53125 -0.9375,-12.1875 c -0.0833,4.03125 -0.16667,8.0625 -0.25,12.09375 l -0.40625,-12.3125 -0.53125,13.03125 -1.53125,-13.53125 z m -43.4375,32.28125 -6.625,-4.46875 c 2.20748,2.41999 4.41752,3.54563 6.625,4.46875 z"
         transform="matrix(0.84017422,0,0,0.84017422,-43.382483,911.3356)" />
      <path
         transform="matrix(-0.94730967,-0.32031919,0.32031919,-0.94730967,-509.43407,688.67335)"
         d="m -271.4375,-111.09375 c -7.19073,0 -15.48015,1.99624 -22.0625,5.59375 -2.37855,1.29997 -4.39844,2.85689 -6.21875,4.5 17.10719,-6.35686 33.42654,-6.66861 49.03125,-2.25 -5.86125,-4.68807 -13.51455,-7.84375 -20.75,-7.84375 z"
         id="path3886"
         style="opacity:0.3;fill:url(#linearGradient3952);fill-opacity:1;stroke:none;filter:url(#filter3890)"
         inkscape:original="M -271.4375 -115.1875 C -287.28528 -115.1875 -306.72094 -106.67093 -310.125 -91.9375 C -284.1532 -105.77283 -260.92414 -104.98401 -238.46875 -94.40625 C -243.57493 -106.0947 -257.75158 -115.1875 -271.4375 -115.1875 z "
         inkscape:radius="-4.0928288"
         sodipodi:type="inkscape:offset" />
      <path
         transform="matrix(1.0746888,0,0,1.0746888,5.8821035,926.44723)"
         d="m -214.99999,-78.25 c 0,23.767968 -19.26775,43.035713 -43.03572,43.035713 -23.76796,0 -43.03571,-19.267745 -43.03571,-43.035713 0,-23.76797 19.26775,-43.03571 43.03571,-43.03571 23.76797,0 43.03572,19.26774 43.03572,43.03571 z"
         sodipodi:ry="43.035713"
         sodipodi:rx="43.035713"
         sodipodi:cy="-78.25"
         sodipodi:cx="-258.03571"
         id="path3671"
         style="opacity:0.3;fill:url(#radialGradient3954);fill-opacity:1;stroke:none;filter:url(#filter3788)"
         sodipodi:type="arc" />
      <path
         sodipodi:nodetypes="csccsc"
         id="path3733"
         transform="translate(0,924.36218)"
         d="m -271.4375,-128.25 c -25.54317,0 -46.25,20.70683 -46.25,46.25 0,3.480799 0.39612,6.863982 1.125,10.125 31.91352,-11.524255 62.74825,-14.942956 91.28125,-7.5 0.0489,-0.871463 0.0937,-1.741302 0.0937,-2.625 0,-25.54317 -20.70683,-46.25 -46.25,-46.25 z"
         style="fill:url(#linearGradient3956);fill-opacity:1;stroke:none;filter:url(#filter3796)" />
      <path
         transform="matrix(1.0746888,0,0,1.0746888,5.8821035,926.44723)"
         d="m -258.03125,-120.34375 c -23.26266,0 -42.09375,18.83109 -42.09375,42.09375 0,23.262656 18.83109,42.09375 42.09375,42.09375 23.26266,0 42.09375,-18.831094 42.09375,-42.09375 0,-23.26266 -18.83109,-42.09375 -42.09375,-42.09375 z"
         id="path3826"
         style="fill:none;stroke:url(#linearGradient3960);stroke-width:1.86100388;stroke-miterlimit:4;stroke-opacity:1;stroke-dasharray:none;filter:url(#filter3834)"
         inkscape:original="M -258.03125 -121.28125 C -281.79922 -121.28125 -301.0625 -102.01797 -301.0625 -78.25 C -301.0625 -54.482032 -281.79922 -35.21875 -258.03125 -35.21875 C -234.26328 -35.21875 -215 -54.482032 -215 -78.25 C -215 -102.01797 -234.26328 -121.28125 -258.03125 -121.28125 z "
         inkscape:radius="-0.93521726"
         sodipodi:type="inkscape:offset" />
      <path
         transform="matrix(1.0746888,0,0,1.0746888,5.8821035,926.44723)"
         d="m -258.03125,-121.59375 c -23.94374,0 -43.34375,19.40001 -43.34375,43.34375 0,23.943734 19.40001,43.34375 43.34375,43.34375 23.94374,0 43.34375,-19.400016 43.34375,-43.34375 0,-23.94374 -19.40001,-43.34375 -43.34375,-43.34375 z"
         id="path3842"
         style="opacity:0.50000000000000000;fill:none;stroke:url(#linearGradient3962);stroke-width:1.20965254000000000;stroke-miterlimit:4;stroke-opacity:1;stroke-dasharray:none;filter:url(#filter4004)"
         inkscape:original="M -258.03125 -120.34375 C -281.29391 -120.34375 -300.125 -101.51266 -300.125 -78.25 C -300.125 -54.987344 -281.29391 -36.15625 -258.03125 -36.15625 C -234.76859 -36.15625 -215.9375 -54.987344 -215.9375 -78.25 C -215.9375 -101.51266 -234.76859 -120.34375 -258.03125 -120.34375 z "
         inkscape:radius="1.2620374"
         sodipodi:type="inkscape:offset" />
      <path
         transform="matrix(1.417857,0,0,1.3264294,117.43038,934.92321)"
         d="m -254.55843,-52.312229 c 0,6.13681 -8.81909,11.111678 -19.69798,11.111678 -10.87889,0 -19.69797,-4.974868 -19.69797,-11.111678 0,-6.136811 8.81908,-11.111678 19.69797,-11.111678 10.87889,0 19.69798,4.974867 19.69798,11.111678 z"
         sodipodi:ry="11.111678"
         sodipodi:rx="19.697975"
         sodipodi:cy="-52.312229"
         sodipodi:cx="-274.25641"
         id="path3894"
         style="opacity:0.55;fill:url(#linearGradient3964);fill-opacity:1;stroke:none;filter:url(#filter3936)"
         sodipodi:type="arc" />
      <path
         sodipodi:type="arc"
         style="opacity:0.18000004000000000;fill:url(#radialGradient4030);fill-opacity:1;stroke:none;filter:url(#filter3820)"
         id="path3800"
         sodipodi:cx="-258.03571"
         sodipodi:cy="-78.25"
         sodipodi:rx="43.035713"
         sodipodi:ry="43.035713"
         d="m -214.99999,-78.25 c 0,23.767968 -19.26775,43.035713 -43.03572,43.035713 -23.76796,0 -43.03571,-19.267745 -43.03571,-43.035713 0,-23.76797 19.26775,-43.03571 43.03571,-43.03571 23.76797,0 43.03572,19.26774 43.03572,43.03571 z"
         transform="matrix(1.0746888,0,0,1.0746888,5.8970656,926.56197)" />
    </g>
  </g>
</svg>
