<?xml version="1.0" encoding="UTF-8" standalone="no"?>
<!-- Created with Inkscape (http://www.inkscape.org/) -->
<svg
   xmlns:dc="http://purl.org/dc/elements/1.1/"
   xmlns:cc="http://creativecommons.org/ns#"
   xmlns:rdf="http://www.w3.org/1999/02/22-rdf-syntax-ns#"
   xmlns:svg="http://www.w3.org/2000/svg"
   xmlns="http://www.w3.org/2000/svg"
   xmlns:xlink="http://www.w3.org/1999/xlink"
   xmlns:sodipodi="http://sodipodi.sourceforge.net/DTD/sodipodi-0.dtd"
   xmlns:inkscape="http://www.inkscape.org/namespaces/inkscape"
   width="128"
   height="128"
   id="svg2"
   sodipodi:version="0.32"
   inkscape:version="0.46"
   version="1.0"
   sodipodi:docname="weather-few-clouds-night.svg"
   inkscape:output_extension="org.inkscape.output.svg.inkscape">
  <defs
     id="defs4">
    <linearGradient
       id="linearGradient3155">
      <stop
         style="stop-color:#cfcfcf;stop-opacity:1"
         offset="0"
         id="stop3157" />
      <stop
         style="stop-color:#999999;stop-opacity:1;"
         offset="1"
         id="stop3159" />
    </linearGradient>
    <linearGradient
       id="linearGradient3192">
      <stop
         id="stop3194"
         offset="0"
         style="stop-color:#f4ebde;stop-opacity:1;" />
      <stop
         id="stop3196"
         offset="1"
         style="stop-color:#cbb183;stop-opacity:1;" />
    </linearGradient>
    <radialGradient
       inkscape:collect="always"
       xlink:href="#linearGradient3192"
       id="radialGradient4188"
       gradientUnits="userSpaceOnUse"
       gradientTransform="matrix(3.0421806,0,0,2.6442518,-110.45042,-34.319929)"
       cx="55.110699"
       cy="32.809231"
       fx="55.110699"
       fy="32.809231"
       r="63.081122" />
    <radialGradient
       inkscape:collect="always"
       xlink:href="#linearGradient3155"
       id="radialGradient4190"
       gradientUnits="userSpaceOnUse"
       gradientTransform="matrix(1.2815938,4.4980958e-8,-4.3215878e-8,1.2313033,-19.071758,-15.700665)"
       cx="68.873764"
       cy="63.118916"
       fx="68.873764"
       fy="63.118916"
       r="54.125" />
    <radialGradient
       inkscape:collect="always"
       xlink:href="#linearGradient3192"
       id="radialGradient4192"
       gradientUnits="userSpaceOnUse"
       gradientTransform="matrix(3.0421806,0,0,2.6442518,-110.45042,-34.319929)"
       cx="55.110699"
       cy="32.809231"
       fx="55.110699"
       fy="32.809231"
       r="63.081122" />
    <radialGradient
       inkscape:collect="always"
       xlink:href="#linearGradient3192"
       id="radialGradient4194"
       gradientUnits="userSpaceOnUse"
       gradientTransform="matrix(3.0421806,0,0,2.6442518,-110.45042,-34.319929)"
       cx="55.110699"
       cy="32.809231"
       fx="55.110699"
       fy="32.809231"
       r="63.081122" />
  </defs>
  <sodipodi:namedview
     id="base"
     pagecolor="#ffffff"
     bordercolor="#666666"
     borderopacity="1.0"
     gridtolerance="10000"
     guidetolerance="10"
     objecttolerance="10"
     inkscape:pageopacity="0.0"
     inkscape:pageshadow="2"
     inkscape:zoom="0.98994949"
     inkscape:cx="20.480798"
     inkscape:cy="16.774025"
     inkscape:document-units="px"
     inkscape:current-layer="layer1"
     showgrid="false"
     inkscape:showpageshadow="false"
     inkscape:window-width="1280"
     inkscape:window-height="956"
     inkscape:window-x="0"
     inkscape:window-y="46" />
  <metadata
     id="metadata7">
    <rdf:RDF>
      <cc:Work
         rdf:about="">
        <dc:format>image/svg+xml</dc:format>
        <dc:type
           rdf:resource="http://purl.org/dc/dcmitype/StillImage" />
      </cc:Work>
    </rdf:RDF>
  </metadata>
  <g
     inkscape:label="Layer 1"
     inkscape:groupmode="layer"
     id="layer1">
    <g
       id="g4178"
       transform="translate(2.4023446,-0.8096458)">
      <g
         id="g4168"
         inkscape:label="Layer 1"
         transform="matrix(0.6041092,0,0,0.6041092,9.2282314,60.789514)"
         style="opacity:0.9">
        <path
           id="path4170"
           d="M 59.628054,29.514108 C 45.646222,29.514108 33.880371,36.415681 30.458445,45.777738 C 14.816663,46.544704 2.4430299,55.462689 2.4430296,66.378337 C 2.4430296,73.42943 7.6222639,79.676671 15.488909,83.41143 C 16.519383,90.815677 26.4951,96.632189 38.607749,96.632188 C 44.530599,96.632188 49.897664,95.211556 53.996991,92.924779 C 59.334873,96.370233 66.484615,98.485892 74.352762,98.485892 C 87.238128,98.485892 98.212161,92.834691 102.40315,84.91538 C 115.6591,82.800389 125.55697,74.585995 125.55697,64.769463 C 125.55697,53.351043 112.18112,44.09891 95.687847,44.09891 C 93.160543,44.09891 90.722354,44.353862 88.377957,44.763447 C 84.494478,35.93022 73.091003,29.514109 59.628054,29.514108 z"
           style="fill:url(#radialGradient4188);fill-opacity:1;stroke:#f8ead2;stroke-width:4.47687054;stroke-linecap:round;stroke-linejoin:round;stroke-miterlimit:4;stroke-dasharray:none;stroke-opacity:1" />
      </g>
      <path
         transform="matrix(0.9604091,0,0,0.9604091,-13.604488,-9.5389853)"
         d="M 133.92857,74.339287 A 53.125,53.125 0 1 1 27.678574,74.339287 A 53.125,53.125 0 1 1 133.92857,74.339287 z"
         sodipodi:ry="53.125"
         sodipodi:rx="53.125"
         sodipodi:cy="74.339287"
         sodipodi:cx="80.803574"
         id="path2383"
         style="fill:url(#radialGradient4190);fill-opacity:1;stroke:#cbcbcb;stroke-width:2;stroke-linecap:round;stroke-linejoin:round;stroke-miterlimit:4;stroke-dasharray:none;stroke-opacity:1"
         sodipodi:type="arc" />
      <path
         id="path2458"
         d="M 41.860952,21.856608 C 40.593942,23.078322 36.974693,23.56029 35.317514,23.959773 C 33.423652,24.416309 30.209152,28.885501 28.774075,30.269272 C 28.173951,30.847941 27.320688,31.099478 26.59293,31.520522 C 27.282452,32.589322 24.853536,35.610455 24.853536,38.255977 C 24.853535,40.452986 24.757454,42.624177 25.267677,44.592098 C 25.850878,46.841499 27.709854,48.500731 28.332326,50.901597 C 28.940404,53.246956 30.855384,55.01166 32.252865,56.359179 C 33.93079,57.977116 34.07504,60.77869 33.57812,62.695302 C 33.016839,64.860149 38.117552,66.391331 36.201017,62.695302 C 34.55612,59.523128 37.636519,59.474085 39.679807,58.488968 C 41.883602,57.426466 44.098441,56.997574 46.250854,55.959844 C 49.071387,54.599997 47.106747,52.504927 47.106747,50.049681 C 47.106748,47.695611 46.250854,46.197127 46.250854,43.740183 C 46.250853,41.944643 48.433933,38.680071 49.729644,37.430684 C 51.994014,35.247266 53.236043,34.188043 53.236043,31.121187 C 52.379922,23.505206 54.589122,22.886479 41.860952,21.856608 z M 88.990273,22.841634 C 87.359221,22.854761 85.708989,24.799399 84.103402,24.412353 C 82.096238,23.928505 79.72613,24.543485 78.112152,25.477248 C 76.882152,25.477248 74.013499,28.364471 72.148511,30.162782 C 70.74609,31.515062 69.984136,33.798613 69.525615,35.56712 C 68.836831,38.22375 70.726115,38.468956 72.893967,38.468956 C 74.951585,38.468958 76.909324,37.089238 78.498684,35.939833 C 80.74107,34.318171 79.099886,32.691907 82.612492,32.691907 C 85.279206,32.691907 85.594312,32.698417 85.594312,35.56712 C 85.594316,37.282286 85.267299,39.357533 84.848857,40.971457 C 84.110911,43.817707 80.964764,44.440887 79.24414,42.781778 C 77.032905,40.6496 78.974013,39.906563 76.23471,39.906563 C 74.383463,39.906562 75.865876,43.867152 74.384878,44.93819 C 72.798431,46.085483 70.510628,44.707196 68.780161,46.375796 C 68.228336,46.907888 69.626659,50.785502 69.884539,51.780133 C 70.508473,54.186646 67.162301,53.340151 65.79834,54.655348 C 63.672729,56.704965 64.803707,58.328898 66.902718,59.340883 C 68.10267,59.91941 71.504684,59.582608 72.507435,59.340883 C 74.555654,58.847136 76.084839,57.673179 78.112152,57.184473 C 78.720459,57.037832 76.512318,61.171981 76.23471,62.242714 C 75.584245,64.751545 73.786444,65.206789 71.761979,66.182827 C 69.324706,67.357898 68.706769,63.724474 66.157263,66.182827 C 65.287416,67.021572 70.506361,70.15333 71.016526,70.522271 C 72.967056,71.932869 74.857169,70.653975 76.621242,69.803472 C 78.514616,68.890625 79.567442,66.027367 79.989595,64.39913 C 80.642833,61.879586 81.946738,61.870008 84.462324,61.870008 C 86.679128,61.870008 88.073072,63.545749 90.067042,64.026414 C 92.229958,64.547814 93.515438,66.754534 95.671764,67.274342 C 97.891676,67.80948 99.304178,68.225245 101.27647,67.274342 C 103.0773,66.406122 108.89591,69.777223 110.66369,68.92493 C 117.53566,50.364935 102.36172,31.967928 96.05829,26.568765 C 94.47291,26.186587 93.448698,24.417941 89.708119,22.974747 C 89.477042,22.885592 89.223281,22.839758 88.990273,22.841634 z M 55.831331,46.269306 C 54.200574,46.662421 50.216346,47.347849 51.027288,50.475638 C 51.418237,51.983536 57.012119,50.190996 57.598335,50.049681 C 61.1763,49.187169 56.708607,46.776854 55.831331,46.269306 z M 34.54445,67.72692 C 33.441049,68.79088 29.734256,69.007759 27.14512,70.256049 C 24.213989,71.669214 23.908601,73.799486 24.522221,76.16621 C 25.182951,78.71464 25.670334,80.55613 28.442763,81.224459 C 30.871171,81.809862 31.086227,85.909447 31.507411,87.533959 C 32.120235,89.897614 33.246805,91.219482 33.246805,93.843443 C 33.246805,97.084449 37.393727,90.893764 37.609098,90.063077 C 38.150374,87.975383 37.711818,85.826985 37.167348,83.726957 C 36.457006,80.987176 37.320418,79.678013 38.492601,77.417458 C 39.624874,75.233881 40.080169,73.397394 40.673746,71.107968 C 41.497021,67.932596 40.243264,68.152884 37.167348,68.152884 C 36.281992,68.152884 35.417759,67.867271 34.54445,67.72692 z M 55.638065,80.292679 C 52.717327,80.394499 47.618334,82.392707 49.729644,82.901663 C 49.549639,83.595939 49.433443,84.303093 49.287892,85.004829 C 48.848297,87.124225 48.498286,89.48267 47.548497,91.31434 C 47.01117,92.350556 48.612439,96.497073 48.846142,97.623834 C 49.425314,100.41615 52.629089,100.87873 54.533687,102.25612 C 56.59296,103.74536 60.333574,106.12256 57.156585,106.8884 L 73.308108,104.78523 C 75.72594,103.61955 74.36904,102.34381 75.047504,99.726996 C 75.435109,98.231985 76.006037,94.596394 77.22865,93.417495 C 79.033098,91.677559 81.792783,90.503745 81.176802,87.533959 C 80.548364,84.504095 79.085057,84.20933 76.372757,82.901663 C 74.983883,82.232058 71.338505,81.224459 69.829319,81.224459 C 67.547631,81.224459 65.322039,81.62379 63.258271,81.62379 C 60.452592,81.623799 59.082984,80.943415 56.714833,80.372542 C 56.413218,80.299838 56.055312,80.278133 55.638065,80.292679 z"
         style="opacity:0.5;fill:#c4c4c4;fill-opacity:1;fill-rule:evenodd;stroke:#ffffff;stroke-width:0.86756504;stroke-linecap:butt;stroke-linejoin:miter;stroke-miterlimit:4;stroke-dasharray:none;stroke-opacity:1" />
      <g
         style="opacity:0.9"
         transform="matrix(0.662459,0,0,0.662459,3.3509871,-10.08773)"
         inkscape:label="Layer 1"
         id="g3379">
        <path
           style="fill:url(#radialGradient4192);fill-opacity:1;stroke:#f8ead2;stroke-width:4.47687054;stroke-linecap:round;stroke-linejoin:round;stroke-miterlimit:4;stroke-dasharray:none;stroke-opacity:1"
           d="M 59.628054,29.514108 C 45.646222,29.514108 33.880371,36.415681 30.458445,45.777738 C 14.816663,46.544704 2.4430299,55.462689 2.4430296,66.378337 C 2.4430296,73.42943 7.6222639,79.676671 15.488909,83.41143 C 16.519383,90.815677 26.4951,96.632189 38.607749,96.632188 C 44.530599,96.632188 49.897664,95.211556 53.996991,92.924779 C 59.334873,96.370233 66.484615,98.485892 74.352762,98.485892 C 87.238128,98.485892 98.212161,92.834691 102.40315,84.91538 C 115.6591,82.800389 125.55697,74.585995 125.55697,64.769463 C 125.55697,53.351043 112.18112,44.09891 95.687847,44.09891 C 93.160543,44.09891 90.722354,44.353862 88.377957,44.763447 C 84.494478,35.93022 73.091003,29.514109 59.628054,29.514108 z"
           id="path3381" />
      </g>
      <g
         id="g3769"
         inkscape:label="Layer 1"
         transform="matrix(0.5180506,0,0,0.5180506,53.504302,59.511022)"
         style="opacity:0.9">
        <path
           id="path3771"
           d="M 59.628054,29.514108 C 45.646222,29.514108 33.880371,36.415681 30.458445,45.777738 C 14.816663,46.544704 2.4430299,55.462689 2.4430296,66.378337 C 2.4430296,73.42943 7.6222639,79.676671 15.488909,83.41143 C 16.519383,90.815677 26.4951,96.632189 38.607749,96.632188 C 44.530599,96.632188 49.897664,95.211556 53.996991,92.924779 C 59.334873,96.370233 66.484615,98.485892 74.352762,98.485892 C 87.238128,98.485892 98.212161,92.834691 102.40315,84.91538 C 115.6591,82.800389 125.55697,74.585995 125.55697,64.769463 C 125.55697,53.351043 112.18112,44.09891 95.687847,44.09891 C 93.160543,44.09891 90.722354,44.353862 88.377957,44.763447 C 84.494478,35.93022 73.091003,29.514109 59.628054,29.514108 z"
           style="fill:url(#radialGradient4194);fill-opacity:1;stroke:#f8ead2;stroke-width:4.47687054;stroke-linecap:round;stroke-linejoin:round;stroke-miterlimit:4;stroke-dasharray:none;stroke-opacity:1" />
      </g>
    </g>
  </g>
</svg>
