<?xml version="1.0" encoding="UTF-8" standalone="no"?>
<!-- Created with Inkscape (http://www.inkscape.org/) -->
<svg
   xmlns:dc="http://purl.org/dc/elements/1.1/"
   xmlns:cc="http://creativecommons.org/ns#"
   xmlns:rdf="http://www.w3.org/1999/02/22-rdf-syntax-ns#"
   xmlns:svg="http://www.w3.org/2000/svg"
   xmlns="http://www.w3.org/2000/svg"
   xmlns:xlink="http://www.w3.org/1999/xlink"
   xmlns:sodipodi="http://sodipodi.sourceforge.net/DTD/sodipodi-0.dtd"
   xmlns:inkscape="http://www.inkscape.org/namespaces/inkscape"
   width="128"
   height="128"
   id="svg2"
   sodipodi:version="0.32"
   inkscape:version="0.46"
   version="1.0"
   sodipodi:docname="weather-clear-night.svg"
   inkscape:output_extension="org.inkscape.output.svg.inkscape">
  <defs
     id="defs4">
    <linearGradient
       id="linearGradient3155">
      <stop
         style="stop-color:#cfcfcf;stop-opacity:1"
         offset="0"
         id="stop3157" />
      <stop
         style="stop-color:#999999;stop-opacity:1;"
         offset="1"
         id="stop3159" />
    </linearGradient>
    <radialGradient
       inkscape:collect="always"
       xlink:href="#linearGradient3155"
       id="radialGradient3161"
       cx="68.873764"
       cy="63.118916"
       fx="68.873764"
       fy="63.118916"
       r="54.125"
       gradientUnits="userSpaceOnUse"
       gradientTransform="matrix(1.2815938,4.4980958e-8,-4.3215878e-8,1.2313033,-19.071758,-15.700665)" />
  </defs>
  <sodipodi:namedview
     id="base"
     pagecolor="#ffffff"
     bordercolor="#666666"
     borderopacity="1.0"
     gridtolerance="10000"
     guidetolerance="10"
     objecttolerance="10"
     inkscape:pageopacity="0.0"
     inkscape:pageshadow="2"
     inkscape:zoom="1.979899"
     inkscape:cx="151.84839"
     inkscape:cy="-19.595852"
     inkscape:document-units="px"
     inkscape:current-layer="layer1"
     showgrid="false"
     inkscape:showpageshadow="false"
     inkscape:window-width="1280"
     inkscape:window-height="956"
     inkscape:window-x="0"
     inkscape:window-y="46" />
  <metadata
     id="metadata7">
    <rdf:RDF>
      <cc:Work
         rdf:about="">
        <dc:format>image/svg+xml</dc:format>
        <dc:type
           rdf:resource="http://purl.org/dc/dcmitype/StillImage" />
      </cc:Work>
    </rdf:RDF>
  </metadata>
  <g
     inkscape:label="Layer 1"
     inkscape:groupmode="layer"
     id="layer1">
    <path
       sodipodi:type="arc"
       style="opacity:1;fill:url(#radialGradient3161);fill-opacity:1;stroke:#cbcbcb;stroke-width:2;stroke-linecap:round;stroke-linejoin:round;stroke-miterlimit:4;stroke-dasharray:none;stroke-opacity:1"
       id="path2383"
       sodipodi:cx="80.803574"
       sodipodi:cy="74.339287"
       sodipodi:rx="53.125"
       sodipodi:ry="53.125"
       d="M 133.92857,74.339287 A 53.125,53.125 0 1 1 27.678574,74.339287 A 53.125,53.125 0 1 1 133.92857,74.339287 z"
       transform="translate(-16.803574,-10.339287)" />
    <path
       style="opacity:0.5;fill:#c4c4c4;fill-opacity:1;fill-rule:evenodd;stroke:#ffffff;stroke-width:0.9033286;stroke-linecap:butt;stroke-linejoin:miter;stroke-miterlimit:4;stroke-dasharray:none;stroke-opacity:1"
       d="M 40.948315,22.350525 C 39.629075,23.622602 35.86063,24.124438 34.135137,24.540389 C 32.163205,25.015745 28.816194,29.66917 27.321959,31.109984 C 26.697096,31.712507 25.808659,31.974414 25.0509,32.412814 C 25.768846,33.525673 23.239803,36.671346 23.239803,39.425925 C 23.239802,41.713501 23.139761,43.974195 23.671016,46.023239 C 24.278259,48.365367 26.213867,50.092997 26.861999,52.592834 C 27.495144,55.034876 29.489065,56.872326 30.944155,58.275394 C 32.691249,59.960027 32.841445,62.87709 32.32404,64.872711 C 31.739622,67.126799 37.050601,68.721101 35.055061,64.872711 C 33.342356,61.56977 36.549739,61.518706 38.677257,60.492979 C 40.971899,59.386678 43.27804,58.940105 45.519182,57.859597 C 48.455986,56.443693 46.410357,54.262258 46.410357,51.7058 C 46.410358,49.254688 45.519182,47.694432 45.519182,45.136206 C 45.519181,43.266648 47.792254,39.867501 49.141378,38.566611 C 51.499092,36.293186 52.792321,35.190298 52.792321,31.997017 C 51.900908,24.067083 54.201178,23.422851 40.948315,22.350525 z M 90.020446,23.376157 C 88.322157,23.389825 86.603898,25.414627 84.932123,25.011626 C 82.842218,24.507832 80.374407,25.148163 78.693897,26.120419 C 77.413192,26.120419 74.426285,29.126662 72.484417,30.999104 C 71.024184,32.407129 70.23082,34.784815 69.753397,36.626225 C 69.036219,39.392369 71.003385,39.647683 73.260603,39.647683 C 75.403042,39.647685 77.441484,38.211089 79.096363,37.014302 C 81.431186,35.325791 79.722348,33.632487 83.379754,33.632487 C 86.156398,33.632487 86.484493,33.639266 86.484493,36.626225 C 86.484497,38.412095 86.144,40.57289 85.708308,42.253345 C 84.939942,45.216925 81.664102,45.865795 79.872548,44.138292 C 77.57016,41.91822 79.591286,41.144553 76.739061,41.144553 C 74.8115,41.144552 76.355022,45.268409 74.812973,46.383598 C 73.161128,47.578186 70.779015,46.143082 68.977213,47.880466 C 68.402641,48.434493 69.858607,52.471953 70.127117,53.507586 C 70.776771,56.013303 67.29266,55.131913 65.872473,56.501326 C 63.659238,58.635434 64.836838,60.32631 67.022377,61.380013 C 68.271794,61.982388 71.814049,61.631702 72.858137,61.380013 C 74.990789,60.865912 76.583012,59.643561 78.693897,59.134709 C 79.32728,58.982023 77.028113,63.286594 76.739061,64.401466 C 76.061782,67.013718 74.18987,67.487728 72.081951,68.504002 C 69.544206,69.727513 68.900796,65.944308 66.246192,68.504002 C 65.340487,69.377322 70.774572,72.63818 71.305768,73.02233 C 73.336704,74.491077 75.304734,73.159463 77.141527,72.2739 C 79.112951,71.323423 80.209178,68.342133 80.648733,66.646775 C 81.3289,64.023368 82.686555,64.013395 85.305841,64.013395 C 87.614028,64.013395 89.065435,65.758215 91.141602,66.258695 C 93.39368,66.801589 94.732151,69.099276 96.977367,69.640512 C 99.288791,70.19771 100.75952,70.630614 102.81312,69.640512 C 104.68818,68.736501 110.74665,72.246569 112.58731,71.359142 C 119.74256,52.034049 103.9431,32.878664 97.379827,27.256931 C 95.729093,26.858999 94.66266,25.017444 90.767883,23.514757 C 90.527281,23.421927 90.263059,23.374204 90.020446,23.376157 z M 55.494594,47.769587 C 53.796613,48.178907 49.648143,48.89259 50.492515,52.149316 C 50.89958,53.719374 56.724058,51.85294 57.33444,51.7058 C 61.059899,50.807733 56.408034,48.298057 55.494594,47.769587 z M 33.330205,70.111747 C 32.181319,71.219566 28.321721,71.445386 25.625853,72.745134 C 22.573892,74.216554 22.255915,76.434642 22.894831,78.898929 C 23.582798,81.552413 24.090272,83.469814 26.976989,84.165694 C 29.505503,84.775229 29.729424,89.043811 30.167971,90.73529 C 30.806057,93.196382 31.979068,94.572741 31.979068,97.30487 C 31.979068,100.67948 36.296938,94.233596 36.521187,93.368666 C 37.084776,91.194911 36.628142,88.95795 36.061227,86.771352 C 35.321603,83.918629 36.220607,82.555499 37.441111,80.201757 C 38.620059,77.928167 39.094123,76.015974 39.712169,73.632171 C 40.569382,70.325901 39.263941,70.55527 36.061227,70.55527 C 35.139374,70.55527 34.239515,70.257883 33.330205,70.111747 z M 55.293361,83.195503 C 52.252222,83.301521 46.943033,85.382101 49.141378,85.912037 C 48.953953,86.634933 48.832967,87.371238 48.681416,88.101902 C 48.223699,90.308666 47.85926,92.764333 46.870318,94.67151 C 46.31084,95.750442 47.978118,100.06789 48.221455,101.2411 C 48.824503,104.14852 52.160347,104.63017 54.143458,106.06434 C 56.28762,107.61497 60.182433,110.09017 56.874479,110.88758 L 73.691816,108.69771 C 76.209318,107.48398 74.796482,106.15565 75.502915,103.43096 C 75.906498,101.87432 76.500961,98.08886 77.773974,96.861363 C 79.652807,95.049702 82.526254,93.8275 81.88488,90.73529 C 81.230536,87.580526 79.706908,87.27361 76.882799,85.912037 C 75.436671,85.214829 71.64102,84.165694 70.069621,84.165694 C 67.693875,84.165694 65.376537,84.581487 63.227695,84.581487 C 60.306357,84.581496 58.88029,83.873065 56.414517,83.278658 C 56.100468,83.202957 55.727809,83.180358 55.293361,83.195503 z"
       id="path2458" />
  </g>
</svg>
