<?xml version="1.0" encoding="UTF-8" standalone="no"?>
<!-- Created with Inkscape (http://www.inkscape.org/) -->
<svg
   xmlns:dc="http://purl.org/dc/elements/1.1/"
   xmlns:cc="http://creativecommons.org/ns#"
   xmlns:rdf="http://www.w3.org/1999/02/22-rdf-syntax-ns#"
   xmlns:svg="http://www.w3.org/2000/svg"
   xmlns="http://www.w3.org/2000/svg"
   xmlns:xlink="http://www.w3.org/1999/xlink"
   xmlns:sodipodi="http://sodipodi.sourceforge.net/DTD/sodipodi-0.dtd"
   xmlns:inkscape="http://www.inkscape.org/namespaces/inkscape"
   width="128"
   height="128"
   id="svg2"
   sodipodi:version="0.32"
   inkscape:version="0.46"
   version="1.0"
   sodipodi:docname="weather-few-clouds.svg"
   inkscape:output_extension="org.inkscape.output.svg.inkscape">
  <defs
     id="defs4">
    <linearGradient
       inkscape:collect="always"
       id="linearGradient4382">
      <stop
         style="stop-color:#ffffff;stop-opacity:1;"
         offset="0"
         id="stop4384" />
      <stop
         style="stop-color:#ffffff;stop-opacity:0;"
         offset="1"
         id="stop4386" />
    </linearGradient>
    <linearGradient
       id="linearGradient4264">
      <stop
         id="stop4266"
         offset="0"
         style="stop-color:#f5c254;stop-opacity:1;" />
      <stop
         id="stop4268"
         offset="1"
         style="stop-color:#ffffff;stop-opacity:0;" />
    </linearGradient>
    <linearGradient
       id="linearGradient3155">
      <stop
         style="stop-color:#f0d866;stop-opacity:1;"
         offset="0"
         id="stop3157" />
      <stop
         style="stop-color:#de9b08;stop-opacity:1;"
         offset="1"
         id="stop3159" />
    </linearGradient>
    <linearGradient
       id="linearGradient3192">
      <stop
         id="stop3194"
         offset="0"
         style="stop-color:#f4ebde;stop-opacity:1;" />
      <stop
         id="stop3196"
         offset="1"
         style="stop-color:#cbb183;stop-opacity:1;" />
    </linearGradient>
    <filter
       inkscape:collect="always"
       id="filter4272">
      <feGaussianBlur
         inkscape:collect="always"
         stdDeviation="2.6036603"
         id="feGaussianBlur4274" />
    </filter>
    <radialGradient
       inkscape:collect="always"
       xlink:href="#linearGradient4264"
       id="radialGradient4280"
       gradientUnits="userSpaceOnUse"
       gradientTransform="matrix(2.4107985,0,0,2.018327,-96.844342,-65.376744)"
       cx="68.873764"
       cy="63.118916"
       fx="68.873764"
       fy="63.118916"
       r="54.125" />
    <radialGradient
       inkscape:collect="always"
       xlink:href="#linearGradient3155"
       id="radialGradient4282"
       gradientUnits="userSpaceOnUse"
       gradientTransform="matrix(2.4107985,0,0,2.018327,-96.844342,-65.376744)"
       cx="68.873764"
       cy="63.118916"
       fx="68.873764"
       fy="63.118916"
       r="54.125" />
    <linearGradient
       inkscape:collect="always"
       xlink:href="#linearGradient4382"
       id="linearGradient4388"
       x1="77.172768"
       y1="-40.752777"
       x2="80.803574"
       y2="125.3607"
       gradientUnits="userSpaceOnUse" />
    <radialGradient
       inkscape:collect="always"
       xlink:href="#linearGradient3192"
       id="radialGradient5022"
       gradientUnits="userSpaceOnUse"
       gradientTransform="matrix(3.0421806,0,0,2.6442518,-110.45042,-34.319929)"
       cx="55.110699"
       cy="32.809231"
       fx="55.110699"
       fy="32.809231"
       r="63.081122" />
    <radialGradient
       inkscape:collect="always"
       xlink:href="#linearGradient3192"
       id="radialGradient5024"
       gradientUnits="userSpaceOnUse"
       gradientTransform="matrix(3.0421806,0,0,2.6442518,-110.45042,-34.319929)"
       cx="55.110699"
       cy="32.809231"
       fx="55.110699"
       fy="32.809231"
       r="63.081122" />
    <radialGradient
       inkscape:collect="always"
       xlink:href="#linearGradient3192"
       id="radialGradient5026"
       gradientUnits="userSpaceOnUse"
       gradientTransform="matrix(3.0421806,0,0,2.6442518,-110.45042,-34.319929)"
       cx="55.110699"
       cy="32.809231"
       fx="55.110699"
       fy="32.809231"
       r="63.081122" />
  </defs>
  <sodipodi:namedview
     id="base"
     pagecolor="#ffffff"
     bordercolor="#666666"
     borderopacity="1.0"
     gridtolerance="10000"
     guidetolerance="10"
     objecttolerance="10"
     inkscape:pageopacity="0.0"
     inkscape:pageshadow="2"
     inkscape:zoom="0.35"
     inkscape:cx="460.50147"
     inkscape:cy="-478.68396"
     inkscape:document-units="px"
     inkscape:current-layer="layer1"
     showgrid="false"
     inkscape:showpageshadow="false"
     inkscape:window-width="1280"
     inkscape:window-height="956"
     inkscape:window-x="0"
     inkscape:window-y="46" />
  <metadata
     id="metadata7">
    <rdf:RDF>
      <cc:Work
         rdf:about="">
        <dc:format>image/svg+xml</dc:format>
        <dc:type
           rdf:resource="http://purl.org/dc/dcmitype/StillImage" />
      </cc:Work>
    </rdf:RDF>
  </metadata>
  <g
     inkscape:label="Layer 1"
     inkscape:groupmode="layer"
     id="layer1">
    <g
       id="g5028">
      <g
         id="g4168"
         inkscape:label="Layer 1"
         transform="matrix(0.6041092,0,0,0.6041092,9.7549518,60.340258)"
         style="opacity:0.9">
        <path
           id="path4170"
           d="M 59.628054,29.514108 C 45.646222,29.514108 33.880371,36.415681 30.458445,45.777738 C 14.816663,46.544704 2.4430299,55.462689 2.4430296,66.378337 C 2.4430296,73.42943 7.6222639,79.676671 15.488909,83.41143 C 16.519383,90.815677 26.4951,96.632189 38.607749,96.632188 C 44.530599,96.632188 49.897664,95.211556 53.996991,92.924779 C 59.334873,96.370233 66.484615,98.485892 74.352762,98.485892 C 87.238128,98.485892 98.212161,92.834691 102.40315,84.91538 C 115.6591,82.800389 125.55697,74.585995 125.55697,64.769463 C 125.55697,53.351043 112.18112,44.09891 95.687847,44.09891 C 93.160543,44.09891 90.722354,44.353862 88.377957,44.763447 C 84.494478,35.93022 73.091003,29.514109 59.628054,29.514108 z"
           style="fill:url(#radialGradient5026);fill-opacity:1;stroke:#f8ead2;stroke-width:4.47687054;stroke-linecap:round;stroke-linejoin:round;stroke-miterlimit:4;stroke-dasharray:none;stroke-opacity:1" />
      </g>
      <path
         sodipodi:type="arc"
         style="fill:url(#radialGradient4280);fill-opacity:1;stroke:none;stroke-width:2;stroke-linecap:round;stroke-linejoin:round;stroke-miterlimit:4;stroke-dasharray:none;stroke-opacity:1;filter:url(#filter4272)"
         id="path4256"
         sodipodi:cx="80.803574"
         sodipodi:cy="74.339287"
         sodipodi:rx="53.125"
         sodipodi:ry="51.021412"
         d="M 133.92857,74.339287 A 53.125,51.021412 0 1 1 27.678574,74.339287 A 53.125,51.021412 0 1 1 133.92857,74.339287 z"
         transform="matrix(1.0269862,0,0,1.0269862,-18.984152,-12.345419)" />
      <path
         transform="matrix(0.9049555,0,0,0.9049555,-9.1236349,-3.2737439)"
         d="M 133.92857,74.339287 A 53.125,51.021412 0 1 1 27.678574,74.339287 A 53.125,51.021412 0 1 1 133.92857,74.339287 z"
         sodipodi:ry="51.021412"
         sodipodi:rx="53.125"
         sodipodi:cy="74.339287"
         sodipodi:cx="80.803574"
         id="path2383"
         style="fill:url(#radialGradient4282);fill-opacity:1;stroke:#e0bc15;stroke-width:2;stroke-linecap:round;stroke-linejoin:round;stroke-miterlimit:4;stroke-dasharray:none;stroke-opacity:1"
         sodipodi:type="arc" />
      <path
         sodipodi:type="arc"
         style="opacity:0.7;fill:url(#linearGradient4388);fill-opacity:1;stroke:none;stroke-width:2;stroke-linecap:round;stroke-linejoin:round;stroke-miterlimit:4;stroke-dasharray:none;stroke-opacity:1"
         id="path4380"
         sodipodi:cx="80.803574"
         sodipodi:cy="74.339287"
         sodipodi:rx="53.125"
         sodipodi:ry="51.021412"
         d="M 133.92857,74.339287 A 53.125,51.021412 0 1 1 27.678574,74.339287 A 53.125,51.021412 0 1 1 133.92857,74.339287 z"
         transform="matrix(0.7161684,0,0,0.5828713,6.3096138,6.2525296)" />
      <g
         style="opacity:0.9"
         transform="matrix(0.662459,0,0,0.662459,3.8777118,-10.536986)"
         inkscape:label="Layer 1"
         id="g3379">
        <path
           style="fill:url(#radialGradient5024);fill-opacity:1;stroke:#f8ead2;stroke-width:4.47687054;stroke-linecap:round;stroke-linejoin:round;stroke-miterlimit:4;stroke-dasharray:none;stroke-opacity:1"
           d="M 59.628054,29.514108 C 45.646222,29.514108 33.880371,36.415681 30.458445,45.777738 C 14.816663,46.544704 2.4430299,55.462689 2.4430296,66.378337 C 2.4430296,73.42943 7.6222639,79.676671 15.488909,83.41143 C 16.519383,90.815677 26.4951,96.632189 38.607749,96.632188 C 44.530599,96.632188 49.897664,95.211556 53.996991,92.924779 C 59.334873,96.370233 66.484615,98.485892 74.352762,98.485892 C 87.238128,98.485892 98.212161,92.834691 102.40315,84.91538 C 115.6591,82.800389 125.55697,74.585995 125.55697,64.769463 C 125.55697,53.351043 112.18112,44.09891 95.687847,44.09891 C 93.160543,44.09891 90.722354,44.353862 88.377957,44.763447 C 84.494478,35.93022 73.091003,29.514109 59.628054,29.514108 z"
           id="path3381" />
      </g>
      <g
         id="g3769"
         inkscape:label="Layer 1"
         transform="matrix(0.5180506,0,0,0.5180506,54.031022,59.061766)"
         style="opacity:0.9">
        <path
           id="path3771"
           d="M 59.628054,29.514108 C 45.646222,29.514108 33.880371,36.415681 30.458445,45.777738 C 14.816663,46.544704 2.4430299,55.462689 2.4430296,66.378337 C 2.4430296,73.42943 7.6222639,79.676671 15.488909,83.41143 C 16.519383,90.815677 26.4951,96.632189 38.607749,96.632188 C 44.530599,96.632188 49.897664,95.211556 53.996991,92.924779 C 59.334873,96.370233 66.484615,98.485892 74.352762,98.485892 C 87.238128,98.485892 98.212161,92.834691 102.40315,84.91538 C 115.6591,82.800389 125.55697,74.585995 125.55697,64.769463 C 125.55697,53.351043 112.18112,44.09891 95.687847,44.09891 C 93.160543,44.09891 90.722354,44.353862 88.377957,44.763447 C 84.494478,35.93022 73.091003,29.514109 59.628054,29.514108 z"
           style="fill:url(#radialGradient5022);fill-opacity:1;stroke:#f8ead2;stroke-width:4.47687054;stroke-linecap:round;stroke-linejoin:round;stroke-miterlimit:4;stroke-dasharray:none;stroke-opacity:1" />
      </g>
    </g>
  </g>
</svg>
