<?xml version="1.0" encoding="UTF-8" standalone="no"?>
<!-- Created with Inkscape (http://www.inkscape.org/) -->
<svg
   xmlns:dc="http://purl.org/dc/elements/1.1/"
   xmlns:cc="http://creativecommons.org/ns#"
   xmlns:rdf="http://www.w3.org/1999/02/22-rdf-syntax-ns#"
   xmlns:svg="http://www.w3.org/2000/svg"
   xmlns="http://www.w3.org/2000/svg"
   xmlns:xlink="http://www.w3.org/1999/xlink"
   xmlns:sodipodi="http://sodipodi.sourceforge.net/DTD/sodipodi-0.dtd"
   xmlns:inkscape="http://www.inkscape.org/namespaces/inkscape"
   width="128"
   height="128"
   id="svg2"
   sodipodi:version="0.32"
   inkscape:version="0.46"
   version="1.0"
   sodipodi:docname="weather-snow.svg"
   inkscape:output_extension="org.inkscape.output.svg.inkscape">
  <defs
     id="defs4">
    <linearGradient
       id="linearGradient3192">
      <stop
         style="stop-color:#f4ebde;stop-opacity:1;"
         offset="0"
         id="stop3194" />
      <stop
         style="stop-color:#cbb183;stop-opacity:1;"
         offset="1"
         id="stop3196" />
    </linearGradient>
    <filter
       inkscape:collect="always"
       id="filter3256">
      <feGaussianBlur
         inkscape:collect="always"
         stdDeviation="0.79131173"
         id="feGaussianBlur3258" />
    </filter>
    <radialGradient
       inkscape:collect="always"
       xlink:href="#linearGradient3192"
       id="radialGradient3267"
       gradientUnits="userSpaceOnUse"
       gradientTransform="matrix(3.0421806,0,0,2.9204986,-110.45042,-71.568167)"
       cx="55.525761"
       cy="41.183647"
       fx="55.525761"
       fy="41.183647"
       r="63.081122" />
  </defs>
  <sodipodi:namedview
     id="base"
     pagecolor="#ffffff"
     bordercolor="#666666"
     borderopacity="1.0"
     gridtolerance="10000"
     guidetolerance="10"
     objecttolerance="10"
     inkscape:pageopacity="0.0"
     inkscape:pageshadow="2"
     inkscape:zoom="2.8"
     inkscape:cx="45.604046"
     inkscape:cy="14.816659"
     inkscape:document-units="px"
     inkscape:current-layer="layer1"
     showgrid="false"
     inkscape:showpageshadow="false"
     inkscape:window-width="1280"
     inkscape:window-height="956"
     inkscape:window-x="0"
     inkscape:window-y="46" />
  <metadata
     id="metadata7">
    <rdf:RDF>
      <cc:Work
         rdf:about="">
        <dc:format>image/svg+xml</dc:format>
        <dc:type
           rdf:resource="http://purl.org/dc/dcmitype/StillImage" />
      </cc:Work>
    </rdf:RDF>
  </metadata>
  <g
     inkscape:label="Layer 1"
     inkscape:groupmode="layer"
     id="layer1">
    <g
       id="g3262"
       transform="translate(8.5e-7,-2.4132495)">
      <path
         id="path2383"
         d="M 59.628053,9.6243478 C 45.646221,9.6243478 33.88037,16.525921 30.458444,25.887978 C 14.816662,26.654944 2.4430286,35.572929 2.4430283,46.488577 C 2.4430283,53.539671 7.6222626,59.786911 15.488908,63.521671 C 16.519382,70.925918 26.495099,76.74243 38.607748,76.742429 C 44.530598,76.742429 49.897663,75.321797 53.99699,73.03502 C 59.334872,76.480474 66.484614,78.596133 74.352761,78.596133 C 87.238127,78.596133 98.21216,72.944932 102.40315,65.02562 C 115.6591,62.910629 125.55697,54.696235 125.55697,44.879703 C 125.55697,33.461284 112.18112,24.209151 95.687846,24.209151 C 93.160542,24.209151 90.722353,24.464102 88.377956,24.873687 C 84.494477,16.04046 73.091002,9.6243488 59.628053,9.6243478 z"
         style="fill:url(#radialGradient3267);fill-opacity:1;stroke:#f4ebde;stroke-width:4.47687054;stroke-linecap:round;stroke-linejoin:round;stroke-miterlimit:4;stroke-dasharray:none;stroke-opacity:1" />
      <path
         id="path3229"
         d="M 101.4375,80.21875 C 98.332703,80.21875 95.8125,82.738952 95.8125,85.84375 C 95.8125,88.948547 98.332702,91.468748 101.4375,91.46875 C 104.5423,91.46875 107.0625,88.948546 107.0625,85.84375 C 107.0625,82.738953 104.5423,80.21875 101.4375,80.21875 z M 18.15625,83.125 C 15.241501,83.421303 12.96875,85.913738 12.96875,88.90625 C 12.96875,92.098261 15.557989,94.687502 18.75,94.6875 C 21.942011,94.6875 24.53125,92.098258 24.53125,88.90625 C 24.53125,85.714239 21.94201,83.125001 18.75,83.125 C 18.550499,83.125 18.350567,83.105246 18.15625,83.125 z M 71.96875,84.5 C 68.951166,84.5 66.499999,86.951163 66.5,89.96875 C 66.5,92.986334 68.951166,95.437499 71.96875,95.4375 C 74.986334,95.4375 77.437502,92.986332 77.4375,89.96875 C 77.4375,86.951166 74.986335,84.499996 71.96875,84.5 z M 54.8125,90.5 C 50.573928,90.5 47.156251,93.94893 47.15625,98.1875 C 47.15625,102.42607 50.573928,105.84375 54.8125,105.84375 C 59.051072,105.84375 62.500001,102.42607 62.5,98.1875 C 62.5,93.948928 59.051071,90.500003 54.8125,90.5 z M 31.25,97.28125 C 27.011428,97.28125 23.562499,100.73018 23.5625,104.96875 C 23.5625,109.20732 27.011428,112.65625 31.25,112.65625 C 35.488572,112.65625 38.937499,109.20732 38.9375,104.96875 C 38.9375,100.73018 35.488571,97.281247 31.25,97.28125 z M 89.46875,97.65625 C 85.230178,97.65625 81.781252,101.07393 81.78125,105.3125 C 81.78125,109.55107 85.230178,113 89.46875,113 C 93.707322,113 97.156248,109.55107 97.15625,105.3125 C 97.15625,101.07393 93.707321,97.65625 89.46875,97.65625 z M 10.53125,106.1875 C 7.8625199,106.1875 5.6875002,108.36252 5.6875,111.03125 C 5.6875,113.69998 7.8625199,115.875 10.53125,115.875 C 13.19998,115.875 15.375,113.69998 15.375,111.03125 C 15.375,108.36252 13.19998,106.1875 10.53125,106.1875 z M 111.78125,106.53125 C 109.19973,106.53125 107.09375,108.63723 107.09375,111.21875 C 107.09375,113.80027 109.19973,115.90625 111.78125,115.90625 C 114.36277,115.90625 116.46875,113.80027 116.46875,111.21875 C 116.46875,108.63723 114.36277,106.53125 111.78125,106.53125 z M 59.21875,113.125 C 56.304001,113.4213 54.031252,115.91374 54.03125,118.90625 C 54.03125,122.09826 56.620488,124.6875 59.8125,124.6875 C 63.004511,124.6875 65.593749,122.09826 65.59375,118.90625 C 65.59375,115.71424 63.004509,113.125 59.8125,113.125 C 59.612999,113.125 59.413067,113.10525 59.21875,113.125 z"
         style="opacity:1;fill:#f4ebde;fill-opacity:1;stroke:#cbcbcb;stroke-width:1.50617278;stroke-linecap:round;stroke-linejoin:round;stroke-miterlimit:4;stroke-dasharray:none;stroke-opacity:1" />
      <path
         style="opacity:1;fill:none;fill-opacity:0.77386935;stroke:#ffffff;stroke-width:1.50617278;stroke-linecap:round;stroke-linejoin:round;stroke-miterlimit:4;stroke-dasharray:none;stroke-opacity:1;filter:url(#filter3256)"
         d="M 101.4375,80.21875 C 98.332703,80.21875 95.8125,82.738952 95.8125,85.84375 C 95.8125,88.948547 98.332702,91.468748 101.4375,91.46875 C 104.5423,91.46875 107.0625,88.948546 107.0625,85.84375 C 107.0625,82.738953 104.5423,80.21875 101.4375,80.21875 z M 18.15625,83.125 C 15.241501,83.421303 12.96875,85.913738 12.96875,88.90625 C 12.96875,92.098261 15.557989,94.687502 18.75,94.6875 C 21.942011,94.6875 24.53125,92.098258 24.53125,88.90625 C 24.53125,85.714239 21.94201,83.125001 18.75,83.125 C 18.550499,83.125 18.350567,83.105246 18.15625,83.125 z M 71.96875,84.5 C 68.951166,84.5 66.499999,86.951163 66.5,89.96875 C 66.5,92.986334 68.951166,95.437499 71.96875,95.4375 C 74.986334,95.4375 77.437502,92.986332 77.4375,89.96875 C 77.4375,86.951166 74.986335,84.499996 71.96875,84.5 z M 54.8125,90.5 C 50.573928,90.5 47.156251,93.94893 47.15625,98.1875 C 47.15625,102.42607 50.573928,105.84375 54.8125,105.84375 C 59.051072,105.84375 62.500001,102.42607 62.5,98.1875 C 62.5,93.948928 59.051071,90.500003 54.8125,90.5 z M 31.25,97.28125 C 27.011428,97.28125 23.562499,100.73018 23.5625,104.96875 C 23.5625,109.20732 27.011428,112.65625 31.25,112.65625 C 35.488572,112.65625 38.937499,109.20732 38.9375,104.96875 C 38.9375,100.73018 35.488571,97.281247 31.25,97.28125 z M 89.46875,97.65625 C 85.230178,97.65625 81.781252,101.07393 81.78125,105.3125 C 81.78125,109.55107 85.230178,113 89.46875,113 C 93.707322,113 97.156248,109.55107 97.15625,105.3125 C 97.15625,101.07393 93.707321,97.65625 89.46875,97.65625 z M 10.53125,106.1875 C 7.8625199,106.1875 5.6875002,108.36252 5.6875,111.03125 C 5.6875,113.69998 7.8625199,115.875 10.53125,115.875 C 13.19998,115.875 15.375,113.69998 15.375,111.03125 C 15.375,108.36252 13.19998,106.1875 10.53125,106.1875 z M 111.78125,106.53125 C 109.19973,106.53125 107.09375,108.63723 107.09375,111.21875 C 107.09375,113.80027 109.19973,115.90625 111.78125,115.90625 C 114.36277,115.90625 116.46875,113.80027 116.46875,111.21875 C 116.46875,108.63723 114.36277,106.53125 111.78125,106.53125 z M 59.21875,113.125 C 56.304001,113.4213 54.031252,115.91374 54.03125,118.90625 C 54.03125,122.09826 56.620488,124.6875 59.8125,124.6875 C 63.004511,124.6875 65.593749,122.09826 65.59375,118.90625 C 65.59375,115.71424 63.004509,113.125 59.8125,113.125 C 59.612999,113.125 59.413067,113.10525 59.21875,113.125 z"
         id="path3250" />
    </g>
  </g>
</svg>
