<?xml version="1.0" encoding="UTF-8" standalone="no"?>
<!-- Created with Inkscape (http://www.inkscape.org/) -->
<svg
   xmlns:dc="http://purl.org/dc/elements/1.1/"
   xmlns:cc="http://creativecommons.org/ns#"
   xmlns:rdf="http://www.w3.org/1999/02/22-rdf-syntax-ns#"
   xmlns:svg="http://www.w3.org/2000/svg"
   xmlns="http://www.w3.org/2000/svg"
   xmlns:xlink="http://www.w3.org/1999/xlink"
   xmlns:sodipodi="http://sodipodi.sourceforge.net/DTD/sodipodi-0.dtd"
   xmlns:inkscape="http://www.inkscape.org/namespaces/inkscape"
   width="128"
   height="128"
   id="svg2"
   sodipodi:version="0.32"
   inkscape:version="0.46"
   version="1.0"
   sodipodi:docname="weather-showers-scattered.svg"
   inkscape:output_extension="org.inkscape.output.svg.inkscape">
  <defs
     id="defs4">
    <linearGradient
       id="linearGradient3192">
      <stop
         style="stop-color:#f4ebde;stop-opacity:1;"
         offset="0"
         id="stop3194" />
      <stop
         style="stop-color:#cbb183;stop-opacity:1;"
         offset="1"
         id="stop3196" />
    </linearGradient>
    <radialGradient
       inkscape:collect="always"
       xlink:href="#linearGradient3192"
       id="radialGradient3627"
       gradientUnits="userSpaceOnUse"
       gradientTransform="matrix(1.320514,-4.7873055e-8,3.5270634e-8,0.9728931,-20.512892,-1.1640224)"
       cx="52.238644"
       cy="38.248726"
       fx="52.238644"
       fy="38.248726"
       r="63.081122" />
  </defs>
  <sodipodi:namedview
     id="base"
     pagecolor="#ffffff"
     bordercolor="#666666"
     borderopacity="1.0"
     gridtolerance="10000"
     guidetolerance="10"
     objecttolerance="10"
     inkscape:pageopacity="0.0"
     inkscape:pageshadow="2"
     inkscape:zoom="1.4"
     inkscape:cx="66.552573"
     inkscape:cy="-12.486655"
     inkscape:document-units="px"
     inkscape:current-layer="layer1"
     showgrid="false"
     inkscape:showpageshadow="false"
     inkscape:window-width="1280"
     inkscape:window-height="956"
     inkscape:window-x="0"
     inkscape:window-y="46" />
  <metadata
     id="metadata7">
    <rdf:RDF>
      <cc:Work
         rdf:about="">
        <dc:format>image/svg+xml</dc:format>
        <dc:type
           rdf:resource="http://purl.org/dc/dcmitype/StillImage" />
      </cc:Work>
    </rdf:RDF>
  </metadata>
  <g
     inkscape:label="Layer 1"
     inkscape:groupmode="layer"
     id="layer1">
    <g
       id="g3623"
       transform="translate(1.75e-6,4.0892874)">
      <path
         sodipodi:nodetypes="cssscccssssssssccsssssssccssssccsssssscccsssccsssssscsssccsssssssssccsssccccsssssccssccssssssssccsssccccssssssccsccccsscccsccssssssc"
         id="path3222"
         d="M 101.05562,72.29188 C 100.83846,72.329682 100.61491,72.44753 100.41594,72.629117 C 97.293489,75.45504 95.187381,79.297948 93.387295,82.831015 C 93.366061,82.864562 93.345823,82.898781 93.326646,82.933569 C 92.275421,85.313635 91.349737,88.387469 92.389103,90.636271 C 92.923736,91.885027 94.221469,92.299799 95.649862,91.660693 L 95.654778,91.733279 C 95.714075,91.71295 95.765375,91.663039 95.8243,91.640845 C 98.563092,90.609393 100.90551,87.59065 101.88335,84.486394 C 101.88702,84.474765 101.89088,84.462993 101.89451,84.451363 C 101.90284,84.427686 101.90857,84.404971 101.91678,84.381308 C 103.1201,80.920272 103.14081,77.588542 102.78689,74.688803 C 102.79032,74.652551 102.79238,74.616644 102.7931,74.581191 C 102.7597,74.421736 102.70787,73.93327 102.55097,73.404627 C 102.47253,73.140306 102.36586,72.847408 102.13181,72.608313 C 101.89778,72.36922 101.49197,72.214117 101.05562,72.29188 z M 24.952367,65.505452 C 24.722119,65.561462 24.489662,65.704485 24.290384,65.912745 C 21.839795,68.462262 19.460199,71.81129 18.562137,75.550314 C 18.558298,75.561979 18.554582,75.573653 18.550994,75.585346 C 18.357626,76.499183 18.340459,77.437857 18.597214,78.258388 C 18.853969,79.078924 19.488335,79.78137 20.471006,79.76696 C 20.488943,79.769292 20.507094,79.77098 20.525441,79.772021 C 21.579892,79.699676 22.608619,79.024554 23.44552,78.16815 C 24.262796,77.331831 24.914027,76.301139 25.3565,75.244284 L 25.383717,75.246815 C 25.394892,75.222785 25.395011,75.200778 25.406005,75.17676 C 26.693855,72.363535 26.728844,69.661977 26.578636,67.351654 C 26.578434,67.32997 26.574201,67.300918 26.573707,67.279068 C 26.565258,66.903695 26.519683,66.51763 26.320435,66.137533 C 26.10959,65.735314 25.608369,65.344496 24.952367,65.505452 z M 48.76162,71.233932 C 48.489078,71.194533 48.189268,71.252473 47.932707,71.373258 C 47.848613,71.415285 47.765951,71.468135 47.686479,71.530691 C 45.202613,73.416105 43.67702,76.331187 42.38946,78.755986 C 41.019985,81.34656 39.993252,84.547678 40.728,87.148735 C 40.724162,87.160405 40.720443,87.172072 40.716853,87.183766 C 40.967526,87.988981 41.463188,88.604805 42.158831,88.90464 C 42.854471,89.204475 43.835842,89.144512 44.792795,88.46429 C 47.447402,86.67477 49.151616,83.325681 49.524726,80.284855 L 49.551941,80.287386 C 49.556184,80.262299 49.542821,80.239903 49.547015,80.214798 C 50.019047,77.389533 50.197068,74.45612 49.551941,71.920498 C 49.528946,71.837984 49.496583,71.762348 49.455512,71.695149 C 49.287631,71.390357 49.034167,71.273335 48.76162,71.233932 z M 73.851302,76.506829 C 73.588325,76.41515 73.288574,76.385369 72.946959,76.530949 C 72.77812,76.608259 72.614788,76.729087 72.470561,76.883366 C 69.678527,79.720697 67.390955,83.427003 66.21383,87.301282 C 66.205901,87.324584 66.198469,87.347947 66.191544,87.371338 C 65.673484,89.379781 66.018705,91.526505 67.611584,92.155635 C 67.659567,92.178171 67.710464,92.194976 67.763732,92.205833 C 70.044884,92.534875 72.542228,90.137522 73.609295,87.483904 C 75.031768,84.119631 75.09892,80.852994 74.820753,78.039523 C 74.815485,78.001793 74.808476,77.96503 74.799752,77.929377 C 74.750564,77.655851 74.683229,77.280193 74.447472,76.922895 C 74.32959,76.744241 74.114273,76.59851 73.851302,76.506829 z M 26.409712,86.377836 C 26.378887,86.385408 26.347925,86.394557 26.316918,86.405267 C 26.287374,86.409269 26.329523,86.393763 26.289703,86.402734 C 26.138273,86.387029 25.946386,86.365309 25.624085,86.557242 C 25.521049,86.617137 25.421393,86.692942 25.328347,86.782205 C 23.014603,89.069392 21.145579,92.131749 20.2561,95.326704 C 20.232616,95.409642 20.215603,95.492626 20.205306,95.574443 C 20.126952,96.316232 20.177887,97.072366 20.457051,97.689553 C 20.73622,98.306763 21.296144,98.801224 22.099631,98.779935 C 22.156556,98.779305 22.214903,98.772647 22.274068,98.760087 C 24.652961,98.257366 26.883545,95.466555 27.214458,92.655679 L 27.241682,92.65823 C 27.264752,92.570784 27.244492,92.494915 27.265257,92.407962 C 27.270786,92.384819 27.282177,92.361013 27.287547,92.337905 C 27.753901,90.329942 27.647953,88.412729 27.146887,86.879141 C 27.031152,86.53987 26.754388,86.351669 26.409712,86.377836 L 26.409712,86.377836 z M 84.495077,94.662866 C 84.287135,94.724595 84.079738,94.855809 83.898672,95.040195 C 80.934517,97.887461 78.442936,101.52154 76.759893,105.41218 C 76.75196,105.43548 76.744528,105.45884 76.7376,105.48223 C 76.336724,106.54273 76.036244,107.72282 75.994326,108.8753 C 75.952401,110.02776 76.203781,111.18119 76.969527,111.88716 C 77.629886,112.52265 78.574809,112.46878 79.407815,112.1499 C 80.240816,111.831 81.015114,111.30871 81.651132,110.73555 C 83.993952,108.71389 85.282391,105.64744 85.786662,102.93344 C 86.287918,100.46203 86.36887,98.074559 86.158657,95.863389 C 86.15808,95.813821 86.154786,95.765316 86.148793,95.718196 C 85.97124,94.895688 85.369346,94.427504 84.495077,94.662866 z M 100.6957,101.25401 C 100.43929,101.08856 100.03675,101.09338 99.682502,101.26799 C 99.570768,101.32409 99.461759,101.39914 99.359548,101.49044 C 96.49793,103.98847 94.250511,107.59151 93.183418,111.30276 C 93.175482,111.32605 93.168049,111.34941 93.161133,111.37283 C 92.936773,112.26972 92.899183,113.17387 93.120774,113.96568 C 93.342357,114.7575 93.8875,115.45322 94.781766,115.52659 C 94.799701,115.52893 94.817847,115.53061 94.8362,115.53165 C 95.955165,115.57362 97.098765,114.89274 97.990076,113.98559 C 98.861544,113.09859 99.523913,111.98915 99.983998,110.88911 L 100.01121,110.89162 C 100.02164,110.86834 100.02323,110.84488 100.03349,110.82158 C 101.42098,107.67317 101.37931,104.63595 101.15816,102.09043 C 101.15759,102.04084 101.15428,101.99236 101.1483,101.94524 C 101.09236,101.68392 100.95214,101.41948 100.6957,101.25401 z M 57.563399,97.316354 C 57.532562,97.323904 57.501609,97.333079 57.470598,97.343786 L 57.350591,97.368691 C 57.141151,97.413958 56.927909,97.532268 56.738111,97.708452 C 54.092835,100.22474 52.061774,103.64149 50.897371,107.08313 C 50.893527,107.0948 50.889811,107.10645 50.886226,107.11815 C 50.294455,109.01223 50.501953,111.13615 52.013107,111.76699 C 52.085381,111.79929 52.163935,111.81871 52.246902,111.82479 C 54.207256,111.91611 56.199789,109.9634 57.21017,107.8503 C 57.22211,107.82533 57.248001,107.80778 57.259677,107.78278 L 57.232464,107.78027 C 58.948168,104.34117 59.083664,100.78934 58.47372,97.978007 C 58.413622,97.718587 58.266109,97.525621 58.058203,97.434469 L 57.960482,97.389317 C 57.843208,97.328606 57.707916,97.303759 57.563399,97.316354 z M 36.718485,96.491581 C 36.547371,96.55347 36.378429,96.661496 36.226017,96.806438 C 33.665375,99.19116 31.50796,102.16119 29.754606,105.25691 C 29.740887,105.28115 29.718774,105.3002 29.705104,105.32445 L 29.73232,105.32699 C 28.412702,107.48341 27.209527,110.46137 28.07238,112.74614 C 28.595534,114.27095 30.145783,114.72808 31.752518,113.77348 C 31.785097,113.75413 31.812693,113.76659 31.845306,113.74603 L 31.829241,113.70849 C 34.328167,112.35258 36.322751,109.57644 37.249897,106.71105 C 37.25359,106.69964 37.257387,106.68744 37.261041,106.67605 C 37.26525,106.66426 37.268009,106.6528 37.272186,106.64101 C 38.369962,103.54771 38.686491,100.46145 38.43649,97.697149 C 38.427004,97.605242 38.40751,97.5187 38.378417,97.439286 C 38.301157,97.220008 38.192296,96.951277 37.936983,96.713043 C 37.681664,96.47481 37.207394,96.320945 36.718485,96.491581 z"
         style="fill:#5092cd;fill-opacity:1;stroke:#3668ba;stroke-width:1.98262024;stroke-linecap:round;stroke-linejoin:round;stroke-miterlimit:4;stroke-opacity:1" />
      <path
         id="path2383"
         d="M 59.628051,5.5350604 C 45.646219,5.5350604 33.880368,12.436634 30.458442,21.798691 C 14.81666,22.565657 2.4430268,31.483642 2.4430265,42.39929 C 2.4430265,49.450384 7.6222608,55.697624 15.488906,59.432384 C 16.51938,66.836631 26.495097,72.653143 38.607746,72.653142 C 44.530596,72.653142 49.897661,71.23251 53.996988,68.945733 C 59.33487,72.391187 66.484612,74.506846 74.352759,74.506846 C 87.238125,74.506846 98.212158,68.855645 102.40315,60.936333 C 115.6591,58.821342 125.55697,50.606948 125.55697,40.790416 C 125.55697,29.371997 112.18112,20.119864 95.687844,20.119864 C 93.16054,20.119864 90.722351,20.374815 88.377954,20.7844 C 84.494475,11.951173 73.091,5.5350614 59.628051,5.5350604 z"
         style="fill:url(#radialGradient3627);fill-opacity:1;stroke:#b8956b;stroke-width:4.47687054;stroke-linecap:round;stroke-linejoin:round;stroke-miterlimit:4;stroke-dasharray:none;stroke-opacity:1" />
    </g>
  </g>
</svg>
