<?xml version="1.0" encoding="UTF-8" standalone="no"?>
<!-- Created with Inkscape (http://www.inkscape.org/) -->
<svg
   xmlns:dc="http://purl.org/dc/elements/1.1/"
   xmlns:cc="http://creativecommons.org/ns#"
   xmlns:rdf="http://www.w3.org/1999/02/22-rdf-syntax-ns#"
   xmlns:svg="http://www.w3.org/2000/svg"
   xmlns="http://www.w3.org/2000/svg"
   xmlns:xlink="http://www.w3.org/1999/xlink"
   xmlns:sodipodi="http://sodipodi.sourceforge.net/DTD/sodipodi-0.dtd"
   xmlns:inkscape="http://www.inkscape.org/namespaces/inkscape"
   width="128"
   height="128"
   id="svg13405"
   sodipodi:version="0.32"
   inkscape:version="0.46"
   version="1.0"
   sodipodi:docname="drive-optical-2.svg"
   inkscape:output_extension="org.inkscape.output.svg.inkscape"
   inkscape:export-filename="/home/immanuel/archive/prj/cream/art/creamlooks-icontheme/examples/drive-optical-2/drive-optical-32-2.png"
   inkscape:export-xdpi="22.5"
   inkscape:export-ydpi="22.5">
  <defs
     id="defs13407">
    <linearGradient
       id="linearGradient3494">
      <stop
         id="stop3496"
         offset="0"
         style="stop-color:#787878;stop-opacity:1;" />
      <stop
         id="stop3498"
         offset="1"
         style="stop-color:#000000;stop-opacity:1;" />
    </linearGradient>
    <linearGradient
       inkscape:collect="always"
       id="linearGradient3438">
      <stop
         style="stop-color:#ffffff;stop-opacity:1;"
         offset="0"
         id="stop3440" />
      <stop
         style="stop-color:#ffffff;stop-opacity:0;"
         offset="1"
         id="stop3442" />
    </linearGradient>
    <linearGradient
       id="linearGradient3430">
      <stop
         style="stop-color:#454545;stop-opacity:1;"
         offset="0"
         id="stop3432" />
      <stop
         style="stop-color:#454545;stop-opacity:0;"
         offset="1"
         id="stop3434" />
    </linearGradient>
    <linearGradient
       id="linearGradient3316">
      <stop
         style="stop-color:#f8ead2;stop-opacity:1;"
         offset="0"
         id="stop3318" />
      <stop
         id="stop3320"
         offset="0.08425952"
         style="stop-color:#f8ead2;stop-opacity:1;" />
      <stop
         style="stop-color:#cfb07f;stop-opacity:1;"
         offset="0.16038455"
         id="stop3322" />
      <stop
         id="stop3324"
         offset="0.24891287"
         style="stop-color:#f8ead2;stop-opacity:1;" />
      <stop
         style="stop-color:#787878;stop-opacity:1;"
         offset="1"
         id="stop3326" />
    </linearGradient>
    <linearGradient
       inkscape:collect="always"
       id="linearGradient5903">
      <stop
         style="stop-color:#ffffff;stop-opacity:1;"
         offset="0"
         id="stop5905" />
      <stop
         style="stop-color:#ffffff;stop-opacity:0;"
         offset="1"
         id="stop5907" />
    </linearGradient>
    <linearGradient
       id="linearGradient5086">
      <stop
         style="stop-color:#787878;stop-opacity:1;"
         offset="0"
         id="stop5088" />
      <stop
         style="stop-color:#787878;stop-opacity:0;"
         offset="1"
         id="stop5090" />
    </linearGradient>
    <linearGradient
       id="linearGradient5014">
      <stop
         id="stop5016"
         offset="0"
         style="stop-color:#f8ead2;stop-opacity:1;" />
      <stop
         style="stop-color:#f8ead2;stop-opacity:1;"
         offset="0.02707672"
         id="stop5018" />
      <stop
         id="stop5020"
         offset="0.1698595"
         style="stop-color:#cfb07f;stop-opacity:1;" />
      <stop
         style="stop-color:#f8ead2;stop-opacity:1;"
         offset="0.23014809"
         id="stop5022" />
      <stop
         id="stop5024"
         offset="1"
         style="stop-color:#787878;stop-opacity:1;" />
    </linearGradient>
    <linearGradient
       id="linearGradient4802">
      <stop
         id="stop4804"
         offset="0"
         style="stop-color:#ffffff;stop-opacity:1;" />
      <stop
         style="stop-color:#7eff64;stop-opacity:1;"
         offset="0.42778563"
         id="stop4806" />
      <stop
         id="stop4808"
         offset="1"
         style="stop-color:#7eff64;stop-opacity:1;" />
    </linearGradient>
    <linearGradient
       id="linearGradient4788">
      <stop
         style="stop-color:#bfffb1;stop-opacity:1;"
         offset="0"
         id="stop4790" />
      <stop
         id="stop4796"
         offset="0.5"
         style="stop-color:#7eff64;stop-opacity:1;" />
      <stop
         style="stop-color:#2dd60c;stop-opacity:1;"
         offset="1"
         id="stop4792" />
    </linearGradient>
    <linearGradient
       id="linearGradient4567">
      <stop
         id="stop4569"
         offset="0"
         style="stop-color:#f9f9f9;stop-opacity:1;" />
      <stop
         style="stop-color:#f0f0f0;stop-opacity:1;"
         offset="0.10590115"
         id="stop4571" />
      <stop
         id="stop4573"
         offset="0.36777738"
         style="stop-color:#cbcbcb;stop-opacity:1;" />
      <stop
         style="stop-color:#f0f0f0;stop-opacity:1;"
         offset="0.47898775"
         id="stop4575" />
      <stop
         id="stop4577"
         offset="1"
         style="stop-color:#787878;stop-opacity:1;" />
    </linearGradient>
    <linearGradient
       id="linearGradient4305">
      <stop
         style="stop-color:#f9f9f9;stop-opacity:1;"
         offset="0"
         id="stop4307" />
      <stop
         id="stop4309"
         offset="0.12038185"
         style="stop-color:#f0f0f0;stop-opacity:1;" />
      <stop
         style="stop-color:#cbcbcb;stop-opacity:1;"
         offset="0.27076718"
         id="stop4311" />
      <stop
         id="stop4313"
         offset="0.76521891"
         style="stop-color:#f0f0f0;stop-opacity:1;" />
      <stop
         style="stop-color:#787878;stop-opacity:1;"
         offset="1"
         id="stop4315" />
    </linearGradient>
    <filter
       inkscape:collect="always"
       id="filter4830"
       x="-0.12"
       width="1.24"
       y="-0.12"
       height="1.24">
      <feGaussianBlur
         inkscape:collect="always"
         stdDeviation="0.346875"
         id="feGaussianBlur4832" />
    </filter>
    <filter
       inkscape:collect="always"
       id="filter5106">
      <feGaussianBlur
         inkscape:collect="always"
         stdDeviation="0.82903677"
         id="feGaussianBlur5108" />
    </filter>
    <filter
       id="filter3240"
       inkscape:collect="always">
      <feGaussianBlur
         id="feGaussianBlur3242"
         stdDeviation="1.1695526"
         inkscape:collect="always" />
    </filter>
    <filter
       id="filter3279"
       inkscape:collect="always">
      <feGaussianBlur
         id="feGaussianBlur3281"
         stdDeviation="0.86533663"
         inkscape:collect="always" />
    </filter>
    <filter
       id="filter3626"
       inkscape:collect="always">
      <feGaussianBlur
         id="feGaussianBlur3628"
         stdDeviation="0.099627319"
         inkscape:collect="always" />
    </filter>
    <filter
       id="filter3523"
       inkscape:collect="always">
      <feGaussianBlur
         id="feGaussianBlur3525"
         stdDeviation="0.25130773"
         inkscape:collect="always" />
    </filter>
    <linearGradient
       id="linearGradient3493">
      <stop
         style="stop-color:#cbcbcb;stop-opacity:1;"
         offset="0"
         id="stop3495" />
      <stop
         id="stop3499"
         offset="0.46382114"
         style="stop-color:#ffffff;stop-opacity:1;" />
      <stop
         style="stop-color:#f0f0f0;stop-opacity:1;"
         offset="0.52937645"
         id="stop3214" />
      <stop
         id="stop3241"
         offset="0.69975537"
         style="stop-color:#cbcbcb;stop-opacity:1;" />
      <stop
         id="stop3216"
         offset="1"
         style="stop-color:#f0f0f0;stop-opacity:1;" />
    </linearGradient>
    <linearGradient
       id="linearGradient3218"
       inkscape:collect="always">
      <stop
         id="stop3220"
         offset="0"
         style="stop-color:#ffffff;stop-opacity:1;" />
      <stop
         id="stop3222"
         offset="1"
         style="stop-color:#ffffff;stop-opacity:0;" />
    </linearGradient>
    <linearGradient
       id="linearGradient3251">
      <stop
         id="stop3253"
         offset="0"
         style="stop-color:#cbcbcb;stop-opacity:1;" />
      <stop
         style="stop-color:#ffffff;stop-opacity:1;"
         offset="0.26966581"
         id="stop3255" />
      <stop
         id="stop3257"
         offset="0.56759375"
         style="stop-color:#f0f0f0;stop-opacity:1;" />
      <stop
         style="stop-color:#cbcbcb;stop-opacity:1;"
         offset="0.73271602"
         id="stop3259" />
      <stop
         style="stop-color:#f0f0f0;stop-opacity:1;"
         offset="1"
         id="stop3261" />
    </linearGradient>
    <linearGradient
       y2="40.321575"
       x2="106.68949"
       y1="118.96654"
       x1="8.5159569"
       gradientTransform="matrix(1.1416972,0,0,1.141356,-15.831198,-4.300564)"
       gradientUnits="userSpaceOnUse"
       id="linearGradient2451"
       xlink:href="#linearGradient3493"
       inkscape:collect="always" />
    <linearGradient
       y2="79.879341"
       x2="91.522087"
       y1="40.593632"
       x1="57.969933"
       gradientTransform="matrix(0.9793801,0,0,0.9793801,1.423722,1.2156272)"
       gradientUnits="userSpaceOnUse"
       id="linearGradient2447"
       xlink:href="#linearGradient3251"
       inkscape:collect="always" />
    <linearGradient
       y2="61.935928"
       x2="124.74255"
       y1="63.881502"
       x1="0.48011727"
       gradientUnits="userSpaceOnUse"
       id="linearGradient3335"
       xlink:href="#linearGradient3218"
       inkscape:collect="always" />
    <radialGradient
       inkscape:collect="always"
       xlink:href="#linearGradient4305"
       id="radialGradient2530"
       gradientUnits="userSpaceOnUse"
       gradientTransform="matrix(6.9075329,-1.2442316e-7,0,4.8960604,-367.56777,-458.11472)"
       cx="62.730545"
       cy="127.89846"
       fx="62.730545"
       fy="127.89846"
       r="43.057751" />
    <linearGradient
       inkscape:collect="always"
       xlink:href="#linearGradient4567"
       id="linearGradient2532"
       gradientUnits="userSpaceOnUse"
       x1="34.8046"
       y1="109.99786"
       x2="34.8046"
       y2="67.939484" />
    <linearGradient
       inkscape:collect="always"
       xlink:href="#linearGradient3316"
       id="linearGradient2534"
       gradientUnits="userSpaceOnUse"
       gradientTransform="matrix(1.0583564,0,0,1.3235543,-13.603506,-19.201383)"
       x1="35.246906"
       y1="82.753761"
       x2="35.246906"
       y2="109.42672" />
    <radialGradient
       inkscape:collect="always"
       xlink:href="#linearGradient5014"
       id="radialGradient2536"
       gradientUnits="userSpaceOnUse"
       gradientTransform="matrix(7.3106308,-1.2555548e-7,0,4.9406172,-402.62116,-452.6198)"
       cx="62.730545"
       cy="121.93266"
       fx="62.730545"
       fy="121.93266"
       r="43.057751" />
    <linearGradient
       inkscape:collect="always"
       xlink:href="#linearGradient5086"
       id="linearGradient2538"
       gradientUnits="userSpaceOnUse"
       gradientTransform="matrix(1.0583564,0,0,0.9663508,-13.603506,13.926904)"
       x1="124.07931"
       y1="-16.127789"
       x2="93.666389"
       y2="55.553043" />
    <radialGradient
       inkscape:collect="always"
       xlink:href="#linearGradient4788"
       id="radialGradient2540"
       gradientUnits="userSpaceOnUse"
       gradientTransform="matrix(1.1666683,-5.0466234e-7,4.4474522e-7,1.0281531,-14.274902,-3.0816535)"
       cx="84.511887"
       cy="99.466805"
       fx="84.511887"
       fy="99.466805"
       r="3.1819806" />
    <radialGradient
       inkscape:collect="always"
       xlink:href="#linearGradient4802"
       id="radialGradient2542"
       gradientUnits="userSpaceOnUse"
       gradientTransform="matrix(2.699406,3.2311381e-7,-4.020593e-7,3.3589444,-143.80938,-234.91809)"
       cx="84.511887"
       cy="99.466805"
       fx="84.511887"
       fy="99.466805"
       r="3.1819806" />
    <linearGradient
       inkscape:collect="always"
       xlink:href="#linearGradient3430"
       id="linearGradient2544"
       gradientUnits="userSpaceOnUse"
       gradientTransform="matrix(0.7548228,0,0,0.7638127,2.0854929,27.145536)"
       x1="78.230232"
       y1="110.0975"
       x2="78.230232"
       y2="122.922" />
    <linearGradient
       inkscape:collect="always"
       xlink:href="#linearGradient3438"
       id="linearGradient2546"
       gradientUnits="userSpaceOnUse"
       gradientTransform="matrix(0.7548228,0,0,0.7638127,2.0854929,27.145536)"
       x1="84.695427"
       y1="105.96803"
       x2="84.695427"
       y2="118.26622" />
    <linearGradient
       inkscape:collect="always"
       xlink:href="#linearGradient3438"
       id="linearGradient2548"
       gradientUnits="userSpaceOnUse"
       gradientTransform="matrix(0.103843,0,0,1.1348736,100.19643,-222.43526)"
       x1="78.230232"
       y1="110.0975"
       x2="78.230232"
       y2="122.922" />
    <linearGradient
       inkscape:collect="always"
       xlink:href="#linearGradient3430"
       id="linearGradient2550"
       gradientUnits="userSpaceOnUse"
       gradientTransform="matrix(0.103843,0,0,1.1348736,100.19643,-222.43526)"
       x1="84.695427"
       y1="105.96803"
       x2="84.695427"
       y2="118.26622" />
    <radialGradient
       inkscape:collect="always"
       xlink:href="#linearGradient3494"
       id="radialGradient2552"
       gradientUnits="userSpaceOnUse"
       gradientTransform="matrix(0.7331207,6.0234051e-7,-3.3157363e-7,0.7011689,203.83884,-287.97716)"
       cx="93.326782"
       cy="56.353249"
       fx="93.326782"
       fy="56.353249"
       r="37.392857" />
    <linearGradient
       inkscape:collect="always"
       xlink:href="#linearGradient3430"
       id="linearGradient2554"
       gradientUnits="userSpaceOnUse"
       gradientTransform="matrix(0.6488648,0,0,0.6488648,93.489266,-82.870943)"
       x1="282.96979"
       y1="-314.21936"
       x2="282.96979"
       y2="-205.85252" />
    <linearGradient
       inkscape:collect="always"
       xlink:href="#linearGradient3430"
       id="linearGradient2556"
       gradientUnits="userSpaceOnUse"
       gradientTransform="matrix(0.8926885,0,0,0.4959381,-5.3820644,60.137906)"
       x1="63.984375"
       y1="78.217552"
       x2="63.984375"
       y2="83.715073" />
    <linearGradient
       inkscape:collect="always"
       xlink:href="#linearGradient3430"
       id="linearGradient2558"
       gradientUnits="userSpaceOnUse"
       gradientTransform="matrix(0.8926885,0,0,0.4959381,-5.3867506,32.228992)"
       x1="85.379501"
       y1="7.2596545"
       x2="85.379501"
       y2="12.711881" />
    <linearGradient
       inkscape:collect="always"
       xlink:href="#linearGradient5903"
       id="linearGradient2560"
       gradientUnits="userSpaceOnUse"
       gradientTransform="matrix(0.8178152,0,0,0.7273811,-0.5901793,27.242958)"
       x1="-12.096195"
       y1="38.978138"
       x2="73.866379"
       y2="85.32798" />
  </defs>
  <sodipodi:namedview
     id="base"
     pagecolor="#ffffff"
     bordercolor="#666666"
     borderopacity="1.0"
     gridtolerance="10000"
     guidetolerance="10"
     objecttolerance="10"
     inkscape:pageopacity="0.0"
     inkscape:pageshadow="2"
     inkscape:zoom="2.8284273"
     inkscape:cx="87.102497"
     inkscape:cy="80.061365"
     inkscape:document-units="px"
     inkscape:current-layer="layer1"
     showgrid="false"
     inkscape:showpageshadow="false"
     inkscape:window-width="1440"
     inkscape:window-height="841"
     inkscape:window-x="-5"
     inkscape:window-y="-3"
     inkscape:snap-center="true"
     showguides="true"
     inkscape:guide-bbox="true" />
  <metadata
     id="metadata13410">
    <rdf:RDF>
      <cc:Work
         rdf:about="">
        <dc:format>image/svg+xml</dc:format>
        <dc:type
           rdf:resource="http://purl.org/dc/dcmitype/StillImage" />
      </cc:Work>
    </rdf:RDF>
  </metadata>
  <g
     inkscape:label="Layer 1"
     inkscape:groupmode="layer"
     id="layer1">
    <rect
       style="opacity:0.59500002;fill:#ffffff;fill-opacity:1;fill-rule:nonzero;stroke:none;stroke-width:0.30000001;stroke-linejoin:miter;marker:none;marker-start:none;marker-mid:none;marker-end:none;stroke-miterlimit:4;stroke-dasharray:none;stroke-dashoffset:0;stroke-opacity:1;visibility:visible;display:inline;overflow:visible;enable-background:accumulate"
       id="rect3326"
       width="0.28655165"
       height="0"
       x="297.16907"
       y="-5.5252671"
       rx="0.98356944"
       ry="0" />
    <path
       style="fill:#000080;fill-opacity:1;stroke:none;stroke-width:25;stroke-miterlimit:4;stroke-opacity:1"
       d="M -293.24942,5.4125995 L -209.49447,5.4125995 C -208.58217,5.4125995 -207.84775,5.9251611 -207.84775,6.5618396 L -200.32633,85.754956 C -200.32633,86.391646 -201.06076,86.904196 -201.97309,86.904196 L -300.77669,86.904196 C -301.68897,86.904196 -302.42341,86.391646 -302.42341,85.754956 L -294.89615,6.5618396 C -294.89615,5.9251611 -294.16171,5.4125995 -293.24942,5.4125995 z"
       id="path3690"
       sodipodi:nodetypes="ccccccccc" />
    <rect
       ry="0.89042926"
       y="79.357124"
       x="-305.87482"
       height="2.25"
       width="111.375"
       id="rect3692"
       style="opacity:0.75;fill:#00ff00;fill-opacity:1;stroke:none;stroke-width:0.2;stroke-miterlimit:4;stroke-dasharray:none;stroke-opacity:0" />
    <g
       id="g2511"
       transform="matrix(1.0429184,0,0,1.0429184,7.3931681,-0.9290625)">
      <path
         transform="matrix(1.0580614,0,0,1.148025,-13.585288,10.561313)"
         sodipodi:type="inkscape:offset"
         inkscape:radius="0.70710677"
         inkscape:original="M 26.4375 19.3125 C 25.668016 19.3125 25.03125 19.786852 25.03125 20.375 L 18.6875 93.53125 C 18.6875 94.11941 19.293016 94.593747 20.0625 94.59375 L 103.40625 94.59375 C 104.17574 94.59375 104.8125 94.119412 104.8125 93.53125 L 98.46875 20.375 C 98.46875 19.786852 97.831989 19.3125 97.0625 19.3125 L 26.4375 19.3125 z "
         style="opacity:0.5;fill:#000000;fill-opacity:1;stroke:#000000;stroke-width:0.94057673;stroke-miterlimit:4;stroke-dasharray:none;stroke-opacity:1;filter:url(#filter5106)"
         id="path4896"
         d="M 26.4375,18.59375 C 25.907458,18.59375 25.424048,18.767019 25.03125,19.0625 C 24.655735,19.34498 24.368911,19.79408 24.34375,20.3125 C 24.342592,20.33636 24.3125,20.350833 24.3125,20.375 L 17.96875,93.46875 C 17.967829,93.489573 17.967829,93.510427 17.96875,93.53125 C 17.96875,94.067988 18.269569,94.543694 18.65625,94.84375 C 19.042931,95.143806 19.532464,95.312498 20.0625,95.3125 L 103.40625,95.3125 C 103.93629,95.3125 104.4197,95.139231 104.8125,94.84375 C 105.2053,94.548269 105.53125,94.080509 105.53125,93.53125 C 105.53217,93.510427 105.53217,93.489573 105.53125,93.46875 L 99.1875,20.375 C 99.1875,20.353908 99.188384,20.333358 99.1875,20.3125 L 99.15625,20.3125 C 99.13109,19.794081 98.844265,19.344981 98.46875,19.0625 C 98.075952,18.767018 97.592543,18.59375 97.0625,18.59375 L 26.4375,18.59375 z" />
      <path
         transform="matrix(1.0583564,0,0,0.9663508,-13.603506,13.926904)"
         d="M 26.4375,18.59375 C 25.907458,18.59375 25.424048,18.767019 25.03125,19.0625 C 24.655735,19.34498 24.368911,19.79408 24.34375,20.3125 C 24.342592,20.33636 24.3125,20.350833 24.3125,20.375 L 17.96875,93.46875 C 17.967829,93.489573 17.967829,93.510427 17.96875,93.53125 C 17.96875,94.067988 18.269569,94.543694 18.65625,94.84375 C 19.042931,95.143806 19.532464,95.312498 20.0625,95.3125 L 103.40625,95.3125 C 103.93629,95.3125 104.4197,95.139231 104.8125,94.84375 C 105.2053,94.548269 105.53125,94.080509 105.53125,93.53125 C 105.53217,93.510427 105.53217,93.489573 105.53125,93.46875 L 99.1875,20.375 C 99.1875,20.353908 99.188384,20.333358 99.1875,20.3125 L 99.15625,20.3125 C 99.13109,19.794081 98.844265,19.344981 98.46875,19.0625 C 98.075952,18.767018 97.592543,18.59375 97.0625,18.59375 L 26.4375,18.59375 z"
         id="path4613"
         style="fill:url(#radialGradient2530);fill-opacity:1;stroke:none;stroke-width:25;stroke-miterlimit:4;stroke-opacity:1"
         inkscape:original="M 26.4375 19.3125 C 25.668016 19.3125 25.03125 19.786852 25.03125 20.375 L 18.6875 93.53125 C 18.6875 94.11941 19.293016 94.593747 20.0625 94.59375 L 103.40625 94.59375 C 104.17574 94.59375 104.8125 94.119412 104.8125 93.53125 L 98.46875 20.375 C 98.46875 19.786852 97.831989 19.3125 97.0625 19.3125 L 26.4375 19.3125 z "
         inkscape:radius="0.70710677"
         sodipodi:type="inkscape:offset" />
      <path
         transform="matrix(1.0583564,0,0,1.3235543,-13.603506,-19.201383)"
         d="M 18.40625,92.78125 C 18.106301,92.904561 17.903738,93.208817 17.90625,93.53125 C 17.906331,93.541607 17.905757,93.552095 17.90625,93.5625 L 17.875,103.375 C 17.874999,104.56561 18.840642,105.53125 20.03125,105.53125 L 103.5,105.53125 C 104.6906,105.53125 105.65625,104.56561 105.65625,103.375 L 105.59375,93.53125 C 105.59707,93.500088 105.59707,93.468662 105.59375,93.4375 C 105.50923,93.08673 105.19665,92.8125 104.8125,92.8125 C 104.42836,92.812505 104.11577,93.08673 104.03125,93.4375 C 104.02793,93.468662 104.02793,93.500088 104.03125,93.53125 C 104.03125,93.530354 104.01986,93.570785 103.90625,93.65625 C 103.8025,93.734299 103.6149,93.8125 103.40625,93.8125 L 20.0625,93.8125 C 19.856013,93.812499 19.698458,93.737501 19.59375,93.65625 C 19.479206,93.567366 19.46875,93.527918 19.46875,93.53125 C 19.476522,93.241606 19.298559,93.033526 19.125,92.90625 C 18.951436,92.778965 18.673525,92.689067 18.40625,92.78125 z"
         id="path4705"
         style="fill:url(#linearGradient2532);fill-opacity:1;stroke:none;stroke-width:2;stroke-miterlimit:4;stroke-dasharray:none;stroke-opacity:1"
         inkscape:original="M 18.5625 93.1875 C 18.424258 93.244332 18.336683 93.381949 18.34375 93.53125 L 18.3125 103.375 C 18.312499 104.32996 19.076289 105.09375 20.03125 105.09375 L 103.5 105.09375 C 104.45496 105.09375 105.21875 104.32997 105.21875 103.375 L 105.15625 93.53125 C 105.11798 93.372421 104.97587 93.25 104.8125 93.25 C 104.64913 93.250002 104.50702 93.372421 104.46875 93.53125 C 104.46875 93.697742 104.37416 93.859583 104.1875 94 C 104.00084 94.140417 103.71835 94.25 103.40625 94.25 L 20.0625 94.25 C 19.750405 94.249999 19.490506 94.138129 19.3125 94 C 19.134494 93.861871 19.03125 93.704001 19.03125 93.53125 C 19.034361 93.415311 18.968528 93.318587 18.875 93.25 C 18.781472 93.18141 18.672143 93.149684 18.5625 93.1875 z "
         inkscape:radius="0.44194174"
         sodipodi:type="inkscape:offset" />
      <path
         style="fill:url(#linearGradient2534);fill-opacity:1;stroke:none;stroke-width:2;stroke-miterlimit:4;stroke-dasharray:none;stroke-opacity:1"
         d="M 6.1266821,117.62105 C 6.1266821,118.63948 6.7675363,119.44092 7.5819226,119.44092 L 95.920993,119.44092 C 96.735373,119.44092 97.376235,118.63951 97.376235,117.62105 L 97.32546,104.59229 C 97.32546,105.37077 96.651557,105.99858 95.83715,105.99858 L 7.6297678,105.99858 C 6.8153788,105.99856 6.1745282,105.37076 6.1745282,104.59229 L 6.1266821,117.62105 z"
         id="rect3292"
         sodipodi:nodetypes="ccccccccc" />
      <path
         style="fill:url(#radialGradient2536);fill-opacity:1;stroke:none;stroke-width:25;stroke-miterlimit:4;stroke-opacity:1"
         d="M 14.364386,32.597315 L 89.131465,32.597315 C 89.945863,32.597315 90.601477,33.054872 90.601477,33.623228 L 97.315755,104.31802 C 97.315755,104.88638 96.660141,105.34392 95.845717,105.34392 L 7.644883,105.34392 C 6.8304958,105.34392 6.1748688,104.88638 6.1748688,104.31802 L 12.894371,33.623228 C 12.894371,33.054872 13.549999,32.597315 14.364386,32.597315 z"
         id="rect3193"
         sodipodi:nodetypes="ccccccccc" />
      <path
         sodipodi:nodetypes="ccccccccc"
         id="path5070"
         d="M 14.364386,32.597315 L 89.131465,32.597315 C 89.945863,32.597315 90.601477,33.054872 90.601477,33.623228 L 97.315755,104.31802 C 97.315755,104.88638 96.660141,105.34392 95.845717,105.34392 L 7.644883,105.34392 C 6.8304958,105.34392 6.1748688,104.88638 6.1748688,104.31802 L 12.894371,33.623228 C 12.894371,33.054872 13.549999,32.597315 14.364386,32.597315 z"
         style="fill:url(#linearGradient2538);fill-opacity:1;stroke:none;stroke-width:25;stroke-miterlimit:4;stroke-opacity:1" />
      <g
         transform="matrix(0.7018906,0,0,0.6667156,-56.121175,45.57359)"
         id="g4834">
        <path
           sodipodi:type="inkscape:offset"
           inkscape:radius="0.0625"
           inkscape:original="M 84.84375 96.84375 C 82.968481 96.84375 81.437503 98.374732 81.4375 100.25 C 81.4375 102.12527 82.968481 103.65625 84.84375 103.65625 C 86.719019 103.65625 88.249997 102.12527 88.25 100.25 C 88.25 98.374731 86.719018 96.843753 84.84375 96.84375 z "
           style="opacity:1;fill:url(#radialGradient2540);fill-opacity:1;stroke:none;stroke-width:1;stroke-miterlimit:4;stroke-dasharray:none;stroke-opacity:1;filter:url(#filter4830)"
           id="path4826"
           d="M 84.84375,96.78125 C 82.934464,96.78125 81.375003,98.340715 81.375,100.25 C 81.375,102.15929 82.934464,103.71875 84.84375,103.71875 C 86.753036,103.71875 88.312497,102.15929 88.3125,100.25 C 88.3125,98.340714 86.753035,96.781253 84.84375,96.78125 z"
           transform="matrix(0.7961494,0,0,0.7961494,27.902051,20.568022)" />
        <path
           transform="matrix(0.7961494,0,0,0.7961494,27.902051,20.568022)"
           d="M 88.034794,100.24606 A 3.1819806,3.1819806 0 1 1 81.670833,100.24606 A 3.1819806,3.1819806 0 1 1 88.034794,100.24606 z"
           sodipodi:ry="3.1819806"
           sodipodi:rx="3.1819806"
           sodipodi:cy="100.24606"
           sodipodi:cx="84.852814"
           id="path4798"
           style="opacity:0.5;fill:url(#radialGradient2542);fill-opacity:1;stroke:#ffffff;stroke-width:0.1;stroke-miterlimit:4;stroke-dasharray:none;stroke-opacity:1"
           sodipodi:type="arc" />
      </g>
      <rect
         ry="0.93849319"
         y="111.24686"
         x="16.89679"
         height="3.1055591"
         width="66.317253"
         id="rect3328"
         style="fill:url(#linearGradient2544);fill-opacity:1;stroke:url(#linearGradient2546);stroke-width:0.88228047;stroke-miterlimit:4;stroke-dasharray:none;stroke-opacity:1" />
      <g
         transform="matrix(0.8926885,0,0,0.8926885,-5.3820644,27.988722)"
         id="g3739">
        <rect
           ry="1.3944136"
           y="-97.477463"
           x="102.23407"
           height="4.6142426"
           width="9.123436"
           id="rect3446"
           style="fill:url(#linearGradient2548);fill-opacity:1;stroke:url(#linearGradient2550);stroke-width:0.93041134;stroke-miterlimit:4;stroke-dasharray:none;stroke-opacity:1"
           transform="scale(1,-1)" />
        <g
           id="g3481"
           inkscape:label="Ebene 1"
           transform="matrix(0.1408109,0,0,0.1115359,68.763861,122.67637)">
          <path
             id="path7610"
             d="M 270.1509,-257.40414 L 264.98487,-251.21812 L 259.82617,-245.03207 L 270.15824,-245.03207 L 280.49765,-245.03207 L 275.32428,-251.21812 L 270.1509,-257.40414 z M 260.6407,-240.49343 C 259.90133,-240.49343 259.51796,-240.11113 259.51796,-239.6422 L 259.51796,-236.65559 C 259.51796,-236.18665 259.90132,-235.81905 260.6407,-235.81905 L 279.54368,-235.81905 C 280.28307,-235.81905 280.66643,-236.18665 280.66643,-236.65559 L 280.66643,-239.6422 C 280.66643,-240.11113 280.28307,-240.49343 279.54368,-240.49343 L 260.6407,-240.49343 z"
             style="fill:url(#radialGradient2552);fill-opacity:1;stroke:url(#linearGradient2554);stroke-width:1.48484063;stroke-linecap:round;stroke-linejoin:round;stroke-miterlimit:4;stroke-dasharray:none;stroke-opacity:1"
             sodipodi:nodetypes="cccccccccccccccc" />
        </g>
      </g>
      <path
         id="path3657"
         d="M 6.6971268,99.487492 L 6.5297476,100.60335 L 96.942356,100.60335 L 96.774979,99.487492 L 6.6971268,99.487492 z"
         style="opacity:0.8;fill:url(#linearGradient2556);fill-opacity:1;stroke:none;stroke-width:25;stroke-miterlimit:4;stroke-opacity:1" />
      <path
         id="path3688"
         d="M 12.690192,36.692434 L 12.494916,37.808295 L 90.995715,37.808295 L 90.80044,36.692434 L 12.690192,36.692434 z"
         style="opacity:0.8;fill:url(#linearGradient2558);fill-opacity:1;stroke:none;stroke-width:25;stroke-miterlimit:4;stroke-opacity:1" />
      <path
         sodipodi:nodetypes="cccccccc"
         id="path5898"
         d="M 14.079382,32.607394 C 13.408315,32.702744 12.903773,33.132962 12.903772,33.630273 L 6.1823532,104.32263 C 6.1823532,104.63396 6.3817256,104.90764 6.6934874,105.09547 C 30.942712,91.030249 74.75845,62.934408 89.625066,32.652856 C 89.469352,32.613868 89.314892,32.607394 89.139494,32.607394 L 14.360506,32.607394 C 14.258708,32.607394 14.17525,32.593772 14.079382,32.607394 z"
         style="opacity:0.7;fill:url(#linearGradient2560);fill-opacity:1;stroke:none;stroke-width:25;stroke-miterlimit:4;stroke-opacity:1" />
    </g>
    <g
       id="g2673"
       inkscape:label="Layer 1"
       transform="matrix(0.761569,0,0,0.761569,30.761778,1.6361319)">
      <rect
         ry="0"
         rx="0.98356944"
         y="-5.5252671"
         x="297.16907"
         height="0"
         width="0.28655165"
         id="rect2675"
         style="opacity:0.59500002;fill:#ffffff;fill-opacity:1;fill-rule:nonzero;stroke:none;stroke-width:0.30000001;stroke-linejoin:miter;marker:none;marker-start:none;marker-mid:none;marker-end:none;stroke-miterlimit:4;stroke-dasharray:none;stroke-dashoffset:0;stroke-opacity:1;visibility:visible;display:inline;overflow:visible;enable-background:accumulate" />
      <g
         transform="translate(2.8558398,-2.8558431)"
         id="g3478">
        <path
           transform="matrix(0.9793801,0,0,0.9793801,1.423722,1.2156272)"
           style="fill:none;fill-opacity:1;fill-rule:nonzero;stroke:#454545;stroke-width:1.8378973;stroke-linecap:butt;stroke-linejoin:miter;marker:none;marker-start:none;marker-mid:none;marker-end:none;stroke-miterlimit:4;stroke-dasharray:none;stroke-dashoffset:0;stroke-opacity:1;visibility:visible;display:inline;overflow:visible;filter:url(#filter3240);enable-background:accumulate"
           d="M 60.996019,6.3857142 C 27.520077,6.3857142 0.34138862,33.556265 0.34138862,67.022208 C 0.34138862,100.48815 27.520077,127.6587 60.996019,127.6587 C 94.471954,127.6587 121.6142,100.48815 121.6142,67.022208 C 121.6142,33.556263 94.471954,6.3857142 60.996019,6.3857142 z M 60.996019,45.681077 C 73.193213,45.681077 82.343517,54.828661 82.343517,67.022208 C 82.343517,79.215756 73.193213,88.363326 60.996019,88.363326 C 48.798823,88.363326 39.648501,79.215755 39.648501,67.022208 C 39.648501,54.828663 48.79884,45.681077 60.996019,45.681077 z"
           id="path3283" />
        <path
           style="opacity:0.95;fill:url(#linearGradient2451);fill-opacity:1;fill-rule:nonzero;stroke:#ffffff;stroke-width:0.57097858;stroke-linecap:butt;stroke-linejoin:miter;marker:none;marker-start:none;marker-mid:none;marker-end:none;stroke-miterlimit:4;stroke-dasharray:none;stroke-dashoffset:0;stroke-opacity:1;visibility:visible;display:inline;overflow:visible;enable-background:accumulate"
           d="M 61.162009,7.4696686 C 28.376337,7.4696686 1.7580712,34.079965 1.7580712,66.855844 C 1.7580712,99.631725 28.376337,126.24201 61.162009,126.24201 C 93.947674,126.24201 120.53024,99.631725 120.53024,66.855844 C 120.53024,34.079963 93.947674,7.4696686 61.162009,7.4696686 z M 61.162009,45.954765 C 73.107698,45.954765 82.069324,54.913726 82.069324,66.855844 C 82.069324,78.797962 73.107698,87.75691 61.162009,87.75691 C 49.216317,87.75691 40.254675,78.797961 40.254675,66.855844 C 40.254675,54.913728 49.216334,45.954765 61.162009,45.954765 z"
           id="path2383" />
        <path
           id="path3450"
           d="M 64.197699,53.797426 C 70.204027,53.797426 74.02439,57.616666 74.02439,63.621191 C 74.02439,69.625717 70.204027,73.444959 64.197699,73.444959 C 58.191369,73.444959 54.371006,69.625715 54.371006,63.621191 C 54.371006,57.616667 58.191387,53.797426 64.197699,53.797426 z"
           style="fill:none;fill-opacity:1;fill-rule:nonzero;stroke:#454545;stroke-width:1.98254108;stroke-linecap:butt;stroke-linejoin:miter;marker:none;marker-start:none;marker-mid:none;marker-end:none;stroke-miterlimit:4;stroke-dasharray:none;stroke-dashoffset:0;stroke-opacity:1;visibility:visible;display:inline;overflow:visible;filter:url(#filter3279);enable-background:accumulate"
           sodipodi:nodetypes="csssc"
           transform="matrix(0.99431,0,0,0.9817397,-2.6274421,4.2902579)" />
        <path
           style="fill:url(#linearGradient2447);fill-opacity:1;fill-rule:nonzero;stroke:#454545;stroke-width:0.48969004;stroke-linecap:butt;stroke-linejoin:miter;marker:none;marker-start:none;marker-mid:none;marker-end:none;stroke-miterlimit:4;stroke-dasharray:none;stroke-dashoffset:0;stroke-opacity:1;visibility:visible;display:inline;overflow:visible;enable-background:accumulate"
           d="M 61.162009,45.954765 C 49.216334,45.954765 40.254675,54.913728 40.254675,66.855844 C 40.254675,78.797961 49.216317,87.75691 61.162009,87.75691 C 73.107698,87.75691 82.069324,78.797962 82.069324,66.855844 C 82.069324,54.913726 73.107698,45.954765 61.162009,45.954765 z M 61.162009,57.689331 C 66.766486,57.689331 70.331252,61.253047 70.331252,66.855844 C 70.331252,72.458641 66.766486,76.022359 61.162009,76.022359 C 55.557528,76.022359 51.992764,72.458639 51.992764,66.855844 C 51.992764,61.253048 55.557545,57.689331 61.162009,57.689331 z"
           id="path3166" />
        <path
           sodipodi:type="inkscape:offset"
           inkscape:radius="-32.226273"
           inkscape:original="M 78.03125 14.34375 C 49.314633 14.34375 26 37.658383 26 66.375 C 26 95.091617 49.314633 118.40625 78.03125 118.40625 C 106.74787 118.40625 130.0625 95.091617 130.0625 66.375 C 130.0625 37.658383 106.74787 14.34375 78.03125 14.34375 z "
           style="opacity:0.65;fill:none;fill-opacity:1;fill-rule:nonzero;stroke:#ffffff;stroke-width:3.0002737;stroke-linecap:butt;stroke-linejoin:miter;marker:none;marker-start:none;marker-mid:none;marker-end:none;stroke-miterlimit:4;stroke-dasharray:none;stroke-dashoffset:0;stroke-opacity:0.84263958;visibility:visible;display:inline;overflow:visible;enable-background:accumulate"
           id="path2387"
           d="M 78.03125,46.5625 C 66.75735,46.5625 58.21875,55.1011 58.21875,66.375 C 58.21875,77.6489 66.75735,86.1875 78.03125,86.1875 C 89.305155,86.1875 97.84375,77.648903 97.84375,66.375 C 97.84375,55.101097 89.305155,46.5625 78.03125,46.5625 z"
           transform="matrix(1.1416972,0,0,1.1413559,-27.940716,-8.9123372)" />
        <path
           style="fill:url(#linearGradient3335);fill-opacity:1;fill-rule:nonzero;stroke:none;stroke-width:0.61168784;stroke-linecap:butt;stroke-linejoin:miter;marker:none;marker-start:none;marker-mid:none;marker-end:none;stroke-miterlimit:4;stroke-dasharray:none;stroke-dashoffset:0;stroke-opacity:1;visibility:visible;display:inline;overflow:visible;filter:url(#filter3523);enable-background:accumulate"
           d="M 107.97603,18.449651 C 107.84078,18.318501 107.6926,18.203758 107.55627,18.073898 C 107.90295,18.404153 108.25509,18.73009 108.5946,19.06852 C 108.38702,18.861535 108.18625,18.653524 107.97603,18.449651 z M 109.56662,20.085224 C 110.02152,20.559327 110.47343,21.032828 110.91418,21.521867 C 110.47371,21.032725 110.02099,20.559101 109.56662,20.085224 z M 111.59901,22.295431 C 112.00493,22.760945 112.39897,23.231626 112.7919,23.709937 C 112.4005,23.23313 112.00309,22.759215 111.59901,22.295431 z M 113.52088,24.616096 C 113.93757,25.142874 114.35721,25.665981 114.75794,26.207387 C 114.35826,25.667025 113.93616,25.141495 113.52088,24.616096 z M 101.61338,13.056406 C 101.22303,12.766699 100.81691,12.496869 100.42035,12.216426 C 100.81834,12.49814 101.22177,12.765486 101.61338,13.056406 z M 117.23193,29.831913 C 117.52829,30.296825 117.83055,30.772294 118.11546,31.246345 C 117.82788,30.766946 117.53097,30.301671 117.23193,29.831913 z M 97.01795,9.961689 C 96.338229,9.5435766 95.657661,9.1378992 94.963211,8.7458499 C 95.658317,9.1385691 96.337938,9.5431084 97.01795,9.961689 z M 94.278296,8.3700313 C 93.587569,7.9912087 92.905475,7.6175483 92.201441,7.2646686 C 92.901766,7.6161976 93.591492,7.9930239 94.278296,8.3700313 z M 91.847929,7.0878062 C 91.112125,6.7246965 90.36559,6.3831659 89.616383,6.0486949 C 90.362718,6.3825302 91.115317,6.7257136 91.847929,7.0878062 z M 77.06624,1.9355696 C 76.480314,1.8092316 75.888592,1.6913878 75.298559,1.5815843 C 75.890157,1.6914898 76.479078,1.8090463 77.06624,1.9355696 z M 126.74922,56.593816 C 126.83043,57.290176 126.91204,57.97596 126.96969,58.670995 C 126.91269,57.978202 126.82961,57.287296 126.74922,56.593816 z M 61.907973,0.56184471 C 61.239928,0.58157929 60.566551,0.58640835 59.897122,0.62764433 C 60.568513,0.585708 61.238511,0.5821568 61.907973,0.56184471 z M 127.14463,66.184048 C 127.12468,66.720828 127.06737,67.262458 127.03375,67.797105 C 127.0678,67.260187 127.12433,66.722803 127.14463,66.184048 z M 55.322912,1.0905649 C 54.629958,1.1845396 53.938529,1.2817525 53.24571,1.3994163 C 53.932833,1.2825268 54.636318,1.1842011 55.322912,1.0905649 z M 52.516468,1.5539175 C 51.77931,1.688111 51.042864,1.8339266 50.306652,1.995319 C 51.042729,1.8340997 51.780271,1.6880418 52.516468,1.5539175 z M 126.10383,75.354082 C 125.99393,75.945217 125.87633,76.535081 125.74984,77.121765 C 125.8761,76.536354 125.99407,75.943613 126.10383,75.354082 z M 123.78147,84.214449 C 123.53838,84.927687 123.29758,85.632205 123.02964,86.335581 C 123.29553,85.636282 123.54019,84.923094 123.78147,84.214449 z M 122.9191,86.578626 C 122.65946,87.251711 122.38311,87.925915 122.10101,88.589264 C 122.38426,87.922204 122.65863,87.255171 122.9191,86.578626 z M 79.353305,47.058382 C 78.934684,46.661694 78.495754,46.291285 78.049853,45.931112 C 80.021046,47.534354 81.742194,49.510191 83.130745,51.810179 C 82.062764,50.032943 80.799797,48.429087 79.353305,47.058382 z M 83.130745,51.810179 C 83.527474,52.467319 83.895194,53.133642 84.235102,53.843381 C 83.900005,53.13598 83.525091,52.466415 83.130745,51.810179 z M 78.049853,45.931112 C 77.201905,45.246188 76.312742,44.643474 75.376553,44.0964 C 76.305224,44.644835 77.205055,45.244008 78.049853,45.931112 z M 84.720968,54.948354 C 84.875947,55.316017 85.023153,55.673098 85.16264,56.053317 C 85.027141,55.675337 84.872547,55.314286 84.720968,54.948354 z M 29.643786,10.54184 C 28.288591,11.410602 26.961541,12.297646 25.687743,13.258815 L 50.229702,45.592854 C 50.693334,45.261062 51.172566,44.945737 51.666244,44.64303 L 29.643786,10.54184 z M 51.666244,44.64303 C 52.454327,44.159807 53.299274,43.740253 54.163534,43.339913 C 53.296442,43.736471 52.459979,44.161335 51.666244,44.64303 z M 77.797995,81.883011 C 77.338217,82.225868 76.87455,82.585459 76.383532,82.899132 L 98.38391,116.93402 C 99.728337,116.05911 101.05501,115.1612 102.31786,114.19495 L 77.797995,81.883011 z M 76.383532,82.899132 C 75.437563,83.50344 74.437443,84.052021 73.37793,84.533582 C 74.440834,84.056312 75.431284,83.502874 76.383532,82.899132 z M 95.378254,118.78945 C 94.581954,119.2465 93.767629,119.6906 92.947249,120.11468 C 93.768574,119.69043 94.58218,119.24585 95.378254,118.78945 z M 43.438965,73.941757 C 43.774061,74.64916 44.148976,75.318724 44.543322,75.974959 C 44.151633,75.326166 43.775295,74.641832 43.438965,73.941757 z M 44.543322,75.974959 C 45.531203,77.618901 46.675018,79.097653 47.989387,80.395219 C 46.687442,79.101912 45.535144,77.61781 44.543322,75.974959 z M 6.3469302,37.229427 C 6.2200714,37.503502 6.1161286,37.793167 5.9931723,38.069029 C 6.1150291,37.796105 6.2433682,37.522648 6.3690222,37.251529 L 6.3469302,37.229427 z M 52.098667,83.578204 C 51.237825,83.057989 50.411758,82.494563 49.624215,81.854026 C 50.409506,82.487587 51.23737,83.062554 52.098667,83.578204 z M 5.6173108,38.930723 C 5.3247778,39.613803 5.0235923,40.292408 4.7550221,40.985542 C 5.0233459,40.294372 5.3252764,39.611542 5.6173108,38.930723 z M 4.5338888,41.648401 C 4.2911478,42.295991 4.0479691,42.937233 3.8263068,43.592771 C 4.0480266,42.938637 4.2912554,42.29429 4.5338888,41.648401 z M 80.306518,125.01714 C 79.646608,125.19512 79.000382,125.36906 78.339752,125.52489 C 78.999853,125.36872 79.647855,125.1955 80.306518,125.01714 z M 77.544213,125.70147 C 76.844988,125.857 76.144263,125.98971 75.44489,126.12081 C 76.145444,125.98937 76.844565,125.85747 77.544213,125.70147 z M 1.8357969,50.84013 C 1.722852,51.375749 1.6473008,51.914122 1.5481409,52.453147 C 1.6467758,51.918092 1.7235856,51.371577 1.8357969,50.84013 z M 70.892715,126.8268 C 70.160294,126.90987 69.435957,126.96804 68.705055,127.02514 C 69.433419,126.96852 70.163528,126.90919 70.892715,126.8268 z M 68.285204,127.04713 C 67.397501,127.11052 66.49582,127.17551 65.61142,127.20116 C 66.500267,127.17596 67.393976,127.11042 68.285204,127.04713 z M 0.50714133,62.418679 C 0.48855322,63.217272 0.47255103,64.025625 0.48445526,64.827256 C 0.4719056,64.020128 0.48877642,63.222022 0.50714133,62.418679 z M 61.722342,127.15601 C 61.119414,127.13593 60.510678,127.10448 59.910405,127.06718 C 60.515496,127.10506 61.114943,127.13558 61.722342,127.15601 z M 0.68230785,69.003653 C 0.75486693,69.895221 0.85770388,70.784915 0.96891628,71.677471 C 0.85770273,70.78664 0.75507105,69.892483 0.68230785,69.003653 z M 0.96891628,71.677471 C 1.0870507,72.625599 1.2257382,73.580117 1.3880641,74.528098 C 1.2251827,73.577468 1.0874578,72.627011 0.96891628,71.677471 z M 55.380604,126.64623 C 54.763398,126.56297 54.159695,126.45979 53.546616,126.35852 C 54.157724,126.45964 54.765754,126.56298 55.380604,126.64623 z M 1.5204844,75.191042 C 1.6549373,75.928602 1.8002626,76.66428 1.9618859,77.400859 C 1.8005438,76.664477 1.6547685,75.927584 1.5204844,75.191042 z M 43.957052,124.01388 C 43.058389,123.71636 42.166768,123.3999 41.283537,123.06305 C 42.163676,123.3982 43.062244,123.71787 43.957052,124.01388 z M 3.9268033,84.450311 C 4.0708864,84.869695 4.1929012,85.291699 4.3463402,85.709948 C 4.4803019,86.075114 4.6259645,86.431617 4.7659201,86.792807 C 4.4696274,86.026128 4.1951653,85.233987 3.9268033,84.450311 z M 41.106785,122.97463 C 40.433251,122.71537 39.75995,122.43831 39.096148,122.15654 C 39.763647,122.43956 40.429802,122.71445 41.106785,122.97463 z M 35.16331,120.34362 C 34.608888,120.06226 34.052124,119.77883 33.506238,119.48142 C 34.051375,119.77807 34.609887,120.0631 35.16331,120.34362 z M 32.512006,118.92876 C 31.930639,118.59843 31.359444,118.26036 30.788682,117.91187 C 31.360108,118.26034 31.93021,118.59865 32.512006,118.92876 z M 9.4481686,96.339894 C 9.7665207,96.874292 10.087491,97.408678 10.420051,97.931122 C 10.085612,97.406558 9.7679938,96.876119 9.4481686,96.339894 z M 27.25372,115.56871 C 26.809661,115.25518 26.364252,114.92111 25.928132,114.59612 C 26.36718,114.92329 26.806785,115.25331 27.25372,115.56871 z M 12.916131,101.57775 C 13.311737,102.11206 13.720214,102.62731 14.131087,103.14694 C 13.720941,102.62871 13.310819,102.1102 12.916131,101.57775 z M 14.860069,104.0531 C 15.251337,104.52955 15.649022,105.00421 16.052966,105.46761 C 15.647172,105.00254 15.252881,104.53098 14.860069,104.0531 z M 16.737787,106.24117 C 17.178106,106.72989 17.631147,107.20438 18.085358,107.67781 C 17.630606,107.20422 17.178403,106.72972 16.737787,106.24117 z M 20.095701,109.68914 C 19.756668,109.36645 19.411636,109.04715 19.079473,108.71662 C 19.413202,109.04886 19.755155,109.36498 20.095701,109.68914 z"
           id="path3377"
           transform="matrix(0.8458815,-0.3938936,0.3938936,0.8458815,-18.174078,37.873511)" />
        <path
           transform="matrix(0.9793801,0,0,0.9793801,1.423722,1.2156272)"
           id="path3579"
           d="M 121.15502,61.348403 L 82.884927,64.561448 C 83.055428,66.380008 82.995434,68.212542 82.679119,70.033735 L 120.96627,73.626926 C 121.44311,69.548538 121.50742,65.423807 121.15502,61.348403 z M 39.229637,65.964786 L 0.96635366,62.391762 C 0.75941449,65.41242 0.77107066,68.423468 1.0159976,71.434922 L 39.286087,68.221879 C 39.230295,67.470714 39.202897,66.719474 39.229637,65.964786 z"
           style="opacity:0.35;fill:#fff8c6;fill-opacity:1;fill-rule:nonzero;stroke:none;stroke-width:0.583;stroke-linecap:butt;stroke-linejoin:miter;marker:none;marker-start:none;marker-mid:none;marker-end:none;stroke-miterlimit:4;stroke-dasharray:none;stroke-dashoffset:0;stroke-opacity:1;visibility:visible;display:inline;overflow:visible;filter:url(#filter3626);enable-background:accumulate" />
        <path
           sodipodi:nodetypes="ccccc"
           style="opacity:0.26000001;fill:#c6ddff;fill-opacity:1;fill-rule:nonzero;stroke:none;stroke-width:0.583;stroke-linecap:butt;stroke-linejoin:miter;marker:none;marker-start:none;marker-mid:none;marker-end:none;stroke-miterlimit:4;stroke-dasharray:none;stroke-dashoffset:0;stroke-opacity:1;visibility:visible;display:inline;overflow:visible;enable-background:accumulate"
           d="M 120.2977,69.169215 L 82.734161,67.244312 C 82.659985,69.031645 82.360279,70.802167 81.813314,72.527905 L 118.49651,81.060338 C 119.49669,77.165193 120.10267,73.17073 120.2977,69.169215 z"
           id="path3585" />
        <path
           sodipodi:nodetypes="ccccc"
           id="path3587"
           d="M 120.16389,71.368916 L 82.699699,68.028339 C 82.558149,69.811602 82.191867,71.569557 81.580189,73.273433 L 117.91541,83.183627 C 119.06181,79.328986 119.81804,75.360225 120.16389,71.368916 z"
           style="opacity:0.25;fill:#c6ddff;fill-opacity:1;fill-rule:nonzero;stroke:none;stroke-width:0.583;stroke-linecap:butt;stroke-linejoin:miter;marker:none;marker-start:none;marker-mid:none;marker-end:none;stroke-miterlimit:4;stroke-dasharray:none;stroke-dashoffset:0;stroke-opacity:1;visibility:visible;display:inline;overflow:visible;enable-background:accumulate" />
        <path
           style="opacity:0.26000001;fill:#ffd0c6;fill-opacity:1;fill-rule:nonzero;stroke:none;stroke-width:0.583;stroke-linecap:butt;stroke-linejoin:miter;marker:none;marker-start:none;marker-mid:none;marker-end:none;stroke-miterlimit:4;stroke-dasharray:none;stroke-dashoffset:0;stroke-opacity:1;visibility:visible;display:inline;overflow:visible;enable-background:accumulate"
           d="M 120.37117,65.457758 L 82.761094,65.913467 C 82.800158,67.701912 82.613079,69.487848 82.176403,71.244738 L 119.32597,77.439015 C 120.07769,73.488393 120.42971,69.463597 120.37117,65.457758 z M 40.017273,64.223795 L 2.8896042,58.050894 C 2.4756796,60.987171 2.2759689,63.929386 2.3041111,66.888343 L 39.914178,66.432634 C 39.91234,65.694934 39.938243,64.959149 40.017273,64.223795 z"
           id="path3589" />
        <path
           inkscape:transform-center-y="4.4119408"
           inkscape:transform-center-x="40.067594"
           sodipodi:nodetypes="ccccc"
           style="opacity:0.26000001;fill:#fff8c6;fill-opacity:1;fill-rule:nonzero;stroke:none;stroke-width:0.583;stroke-linecap:butt;stroke-linejoin:miter;marker:none;marker-start:none;marker-mid:none;marker-end:none;stroke-miterlimit:4;stroke-dasharray:none;stroke-dashoffset:0;stroke-opacity:1;visibility:visible;display:inline;overflow:visible;enable-background:accumulate"
           d="M 39.793945,67.553616 L 2.1594752,67.089836 C 2.1962032,70.054915 2.4455613,72.993337 2.9226672,75.913718 L 40.027442,69.752496 C 39.913609,69.02363 39.82749,68.292445 39.793945,67.553616 z"
           id="path3618" />
        <path
           sodipodi:nodetypes="ccccc"
           id="path3620"
           d="M 39.869617,69.072383 L 2.3026847,71.373247 C 2.5570285,74.327627 3.0214729,77.23981 3.7117299,80.117268 L 40.26394,71.248183 C 40.096899,70.529642 39.957323,69.806753 39.869617,69.072383 z"
           style="opacity:0.3;fill:#ffd0c6;fill-opacity:1;fill-rule:nonzero;stroke:none;stroke-width:0.583;stroke-linecap:butt;stroke-linejoin:miter;marker:none;marker-start:none;marker-mid:none;marker-end:none;stroke-miterlimit:4;stroke-dasharray:none;stroke-dashoffset:0;stroke-opacity:1;visibility:visible;display:inline;overflow:visible;enable-background:accumulate" />
        <path
           transform="matrix(0.9779473,-5.295724e-2,5.295724e-2,0.9779473,-2.154383,4.5513825)"
           style="opacity:0.2;fill:#fff8c6;fill-opacity:1;fill-rule:nonzero;stroke:none;stroke-width:0.583;stroke-linecap:butt;stroke-linejoin:miter;marker:none;marker-start:none;marker-mid:none;marker-end:none;stroke-miterlimit:4;stroke-dasharray:none;stroke-dashoffset:0;stroke-opacity:1;visibility:visible;display:inline;overflow:visible;filter:url(#filter3626);enable-background:accumulate"
           d="M 121.15502,61.348403 L 82.884927,64.561448 C 83.055428,66.380008 82.995434,68.212542 82.679119,70.033735 L 120.96627,73.626926 C 121.44311,69.548538 121.50742,65.423807 121.15502,61.348403 z M 39.229637,65.964786 L 0.96635366,62.391762 C 0.75941449,65.41242 0.77107066,68.423468 1.0159976,71.434922 L 39.286087,68.221879 C 39.230295,67.470714 39.202897,66.719474 39.229637,65.964786 z"
           id="path3634" />
        <path
           transform="matrix(0.7891795,-0.4978588,0.4978588,0.7891795,-21.194359,48.125382)"
           id="path3636"
           d="M 107.97603,18.449651 C 107.84078,18.318501 107.6926,18.203758 107.55627,18.073898 C 107.90295,18.404153 108.25509,18.73009 108.5946,19.06852 C 108.38702,18.861535 108.18625,18.653524 107.97603,18.449651 z M 109.56662,20.085224 C 110.02152,20.559327 110.47343,21.032828 110.91418,21.521867 C 110.47371,21.032725 110.02099,20.559101 109.56662,20.085224 z M 111.59901,22.295431 C 112.00493,22.760945 112.39897,23.231626 112.7919,23.709937 C 112.4005,23.23313 112.00309,22.759215 111.59901,22.295431 z M 113.52088,24.616096 C 113.93757,25.142874 114.35721,25.665981 114.75794,26.207387 C 114.35826,25.667025 113.93616,25.141495 113.52088,24.616096 z M 101.61338,13.056406 C 101.22303,12.766699 100.81691,12.496869 100.42035,12.216426 C 100.81834,12.49814 101.22177,12.765486 101.61338,13.056406 z M 117.23193,29.831913 C 117.52829,30.296825 117.83055,30.772294 118.11546,31.246345 C 117.82788,30.766946 117.53097,30.301671 117.23193,29.831913 z M 97.01795,9.961689 C 96.338229,9.5435766 95.657661,9.1378992 94.963211,8.7458499 C 95.658317,9.1385691 96.337938,9.5431084 97.01795,9.961689 z M 94.278296,8.3700313 C 93.587569,7.9912087 92.905475,7.6175483 92.201441,7.2646686 C 92.901766,7.6161976 93.591492,7.9930239 94.278296,8.3700313 z M 91.847929,7.0878062 C 91.112125,6.7246965 90.36559,6.3831659 89.616383,6.0486949 C 90.362718,6.3825302 91.115317,6.7257136 91.847929,7.0878062 z M 77.06624,1.9355696 C 76.480314,1.8092316 75.888592,1.6913878 75.298559,1.5815843 C 75.890157,1.6914898 76.479078,1.8090463 77.06624,1.9355696 z M 126.74922,56.593816 C 126.83043,57.290176 126.91204,57.97596 126.96969,58.670995 C 126.91269,57.978202 126.82961,57.287296 126.74922,56.593816 z M 61.907973,0.56184471 C 61.239928,0.58157929 60.566551,0.58640835 59.897122,0.62764433 C 60.568513,0.585708 61.238511,0.5821568 61.907973,0.56184471 z M 127.14463,66.184048 C 127.12468,66.720828 127.06737,67.262458 127.03375,67.797105 C 127.0678,67.260187 127.12433,66.722803 127.14463,66.184048 z M 55.322912,1.0905649 C 54.629958,1.1845396 53.938529,1.2817525 53.24571,1.3994163 C 53.932833,1.2825268 54.636318,1.1842011 55.322912,1.0905649 z M 52.516468,1.5539175 C 51.77931,1.688111 51.042864,1.8339266 50.306652,1.995319 C 51.042729,1.8340997 51.780271,1.6880418 52.516468,1.5539175 z M 126.10383,75.354082 C 125.99393,75.945217 125.87633,76.535081 125.74984,77.121765 C 125.8761,76.536354 125.99407,75.943613 126.10383,75.354082 z M 123.78147,84.214449 C 123.53838,84.927687 123.29758,85.632205 123.02964,86.335581 C 123.29553,85.636282 123.54019,84.923094 123.78147,84.214449 z M 122.9191,86.578626 C 122.65946,87.251711 122.38311,87.925915 122.10101,88.589264 C 122.38426,87.922204 122.65863,87.255171 122.9191,86.578626 z M 79.353305,47.058382 C 78.934684,46.661694 78.495754,46.291285 78.049853,45.931112 C 80.021046,47.534354 81.742194,49.510191 83.130745,51.810179 C 82.062764,50.032943 80.799797,48.429087 79.353305,47.058382 z M 83.130745,51.810179 C 83.527474,52.467319 83.895194,53.133642 84.235102,53.843381 C 83.900005,53.13598 83.525091,52.466415 83.130745,51.810179 z M 78.049853,45.931112 C 77.201905,45.246188 76.312742,44.643474 75.376553,44.0964 C 76.305224,44.644835 77.205055,45.244008 78.049853,45.931112 z M 84.720968,54.948354 C 84.875947,55.316017 85.023153,55.673098 85.16264,56.053317 C 85.027141,55.675337 84.872547,55.314286 84.720968,54.948354 z M 29.643786,10.54184 C 28.288591,11.410602 26.961541,12.297646 25.687743,13.258815 L 50.229702,45.592854 C 50.693334,45.261062 51.172566,44.945737 51.666244,44.64303 L 29.643786,10.54184 z M 51.666244,44.64303 C 52.454327,44.159807 53.299274,43.740253 54.163534,43.339913 C 53.296442,43.736471 52.459979,44.161335 51.666244,44.64303 z M 77.797995,81.883011 C 77.338217,82.225868 76.87455,82.585459 76.383532,82.899132 L 98.38391,116.93402 C 99.728337,116.05911 101.05501,115.1612 102.31786,114.19495 L 77.797995,81.883011 z M 76.383532,82.899132 C 75.437563,83.50344 74.437443,84.052021 73.37793,84.533582 C 74.440834,84.056312 75.431284,83.502874 76.383532,82.899132 z M 95.378254,118.78945 C 94.581954,119.2465 93.767629,119.6906 92.947249,120.11468 C 93.768574,119.69043 94.58218,119.24585 95.378254,118.78945 z M 43.438965,73.941757 C 43.774061,74.64916 44.148976,75.318724 44.543322,75.974959 C 44.151633,75.326166 43.775295,74.641832 43.438965,73.941757 z M 44.543322,75.974959 C 45.531203,77.618901 46.675018,79.097653 47.989387,80.395219 C 46.687442,79.101912 45.535144,77.61781 44.543322,75.974959 z M 6.3469302,37.229427 C 6.2200714,37.503502 6.1161286,37.793167 5.9931723,38.069029 C 6.1150291,37.796105 6.2433682,37.522648 6.3690222,37.251529 L 6.3469302,37.229427 z M 52.098667,83.578204 C 51.237825,83.057989 50.411758,82.494563 49.624215,81.854026 C 50.409506,82.487587 51.23737,83.062554 52.098667,83.578204 z M 5.6173108,38.930723 C 5.3247778,39.613803 5.0235923,40.292408 4.7550221,40.985542 C 5.0233459,40.294372 5.3252764,39.611542 5.6173108,38.930723 z M 4.5338888,41.648401 C 4.2911478,42.295991 4.0479691,42.937233 3.8263068,43.592771 C 4.0480266,42.938637 4.2912554,42.29429 4.5338888,41.648401 z M 80.306518,125.01714 C 79.646608,125.19512 79.000382,125.36906 78.339752,125.52489 C 78.999853,125.36872 79.647855,125.1955 80.306518,125.01714 z M 77.544213,125.70147 C 76.844988,125.857 76.144263,125.98971 75.44489,126.12081 C 76.145444,125.98937 76.844565,125.85747 77.544213,125.70147 z M 1.8357969,50.84013 C 1.722852,51.375749 1.6473008,51.914122 1.5481409,52.453147 C 1.6467758,51.918092 1.7235856,51.371577 1.8357969,50.84013 z M 70.892715,126.8268 C 70.160294,126.90987 69.435957,126.96804 68.705055,127.02514 C 69.433419,126.96852 70.163528,126.90919 70.892715,126.8268 z M 68.285204,127.04713 C 67.397501,127.11052 66.49582,127.17551 65.61142,127.20116 C 66.500267,127.17596 67.393976,127.11042 68.285204,127.04713 z M 0.50714133,62.418679 C 0.48855322,63.217272 0.47255103,64.025625 0.48445526,64.827256 C 0.4719056,64.020128 0.48877642,63.222022 0.50714133,62.418679 z M 61.722342,127.15601 C 61.119414,127.13593 60.510678,127.10448 59.910405,127.06718 C 60.515496,127.10506 61.114943,127.13558 61.722342,127.15601 z M 0.68230785,69.003653 C 0.75486693,69.895221 0.85770388,70.784915 0.96891628,71.677471 C 0.85770273,70.78664 0.75507105,69.892483 0.68230785,69.003653 z M 0.96891628,71.677471 C 1.0870507,72.625599 1.2257382,73.580117 1.3880641,74.528098 C 1.2251827,73.577468 1.0874578,72.627011 0.96891628,71.677471 z M 55.380604,126.64623 C 54.763398,126.56297 54.159695,126.45979 53.546616,126.35852 C 54.157724,126.45964 54.765754,126.56298 55.380604,126.64623 z M 1.5204844,75.191042 C 1.6549373,75.928602 1.8002626,76.66428 1.9618859,77.400859 C 1.8005438,76.664477 1.6547685,75.927584 1.5204844,75.191042 z M 43.957052,124.01388 C 43.058389,123.71636 42.166768,123.3999 41.283537,123.06305 C 42.163676,123.3982 43.062244,123.71787 43.957052,124.01388 z M 3.9268033,84.450311 C 4.0708864,84.869695 4.1929012,85.291699 4.3463402,85.709948 C 4.4803019,86.075114 4.6259645,86.431617 4.7659201,86.792807 C 4.4696274,86.026128 4.1951653,85.233987 3.9268033,84.450311 z M 41.106785,122.97463 C 40.433251,122.71537 39.75995,122.43831 39.096148,122.15654 C 39.763647,122.43956 40.429802,122.71445 41.106785,122.97463 z M 35.16331,120.34362 C 34.608888,120.06226 34.052124,119.77883 33.506238,119.48142 C 34.051375,119.77807 34.609887,120.0631 35.16331,120.34362 z M 32.512006,118.92876 C 31.930639,118.59843 31.359444,118.26036 30.788682,117.91187 C 31.360108,118.26034 31.93021,118.59865 32.512006,118.92876 z M 9.4481686,96.339894 C 9.7665207,96.874292 10.087491,97.408678 10.420051,97.931122 C 10.085612,97.406558 9.7679938,96.876119 9.4481686,96.339894 z M 27.25372,115.56871 C 26.809661,115.25518 26.364252,114.92111 25.928132,114.59612 C 26.36718,114.92329 26.806785,115.25331 27.25372,115.56871 z M 12.916131,101.57775 C 13.311737,102.11206 13.720214,102.62731 14.131087,103.14694 C 13.720941,102.62871 13.310819,102.1102 12.916131,101.57775 z M 14.860069,104.0531 C 15.251337,104.52955 15.649022,105.00421 16.052966,105.46761 C 15.647172,105.00254 15.252881,104.53098 14.860069,104.0531 z M 16.737787,106.24117 C 17.178106,106.72989 17.631147,107.20438 18.085358,107.67781 C 17.630606,107.20422 17.178403,106.72972 16.737787,106.24117 z M 20.095701,109.68914 C 19.756668,109.36645 19.411636,109.04715 19.079473,108.71662 C 19.413202,109.04886 19.755155,109.36498 20.095701,109.68914 z"
           style="opacity:0.2;fill:#ffffff;fill-opacity:1;fill-rule:nonzero;stroke:none;stroke-width:0.61168784;stroke-linecap:butt;stroke-linejoin:miter;marker:none;marker-start:none;marker-mid:none;marker-end:none;stroke-miterlimit:4;stroke-dasharray:none;stroke-dashoffset:0;stroke-opacity:1;visibility:visible;display:inline;overflow:visible;filter:url(#filter3523);enable-background:accumulate" />
        <path
           id="path3263"
           d="M 61.162009,45.954765 C 49.216334,45.954765 40.254675,54.913728 40.254675,66.855844 C 40.254675,78.797961 49.216317,87.75691 61.162009,87.75691 C 73.107698,87.75691 82.069324,78.797962 82.069324,66.855844 C 82.069324,54.913726 73.107698,45.954765 61.162009,45.954765 z M 61.162009,57.689331 C 66.766486,57.689331 70.331252,61.253047 70.331252,66.855844 C 70.331252,72.458641 66.766486,76.022359 61.162009,76.022359 C 55.557528,76.022359 51.992764,72.458639 51.992764,66.855844 C 51.992764,61.253048 55.557545,57.689331 61.162009,57.689331 z"
           style="opacity:0.45;fill:#ffffff;fill-opacity:1;fill-rule:nonzero;stroke:none;stroke-width:0.5;stroke-linecap:butt;stroke-linejoin:miter;marker:none;marker-start:none;marker-mid:none;marker-end:none;stroke-miterlimit:4;stroke-dasharray:none;stroke-dashoffset:0;stroke-opacity:1;visibility:visible;display:inline;overflow:visible;enable-background:accumulate" />
        <path
           id="path3265"
           d="M 61.162,7.4696751 C 28.37633,7.4696751 1.7580702,34.079971 1.7580702,66.85585 C 1.7580702,99.631731 28.37633,126.24201 61.162,126.24201 C 93.94767,126.24201 120.53025,99.631731 120.53025,66.85585 C 120.53025,34.079969 93.94767,7.4696751 61.162,7.4696751 z M 61.162,45.954771 C 73.10769,45.954771 82.06932,54.913732 82.06932,66.85585 C 82.06932,78.797973 73.10769,87.756911 61.162,87.756911 C 49.21631,87.756911 40.25467,78.797963 40.25467,66.85585 C 40.25467,54.913734 49.21633,45.954771 61.162,45.954771 z"
           style="opacity:0.1;fill:#ffffff;fill-opacity:1;fill-rule:nonzero;stroke:#ffffff;stroke-width:0.57097858;stroke-linecap:butt;stroke-linejoin:miter;marker:none;marker-start:none;marker-mid:none;marker-end:none;stroke-miterlimit:4;stroke-dasharray:none;stroke-dashoffset:0;stroke-opacity:1;visibility:visible;display:inline;overflow:visible;enable-background:accumulate" />
      </g>
    </g>
  </g>
</svg>
