<?xml version="1.0" encoding="UTF-8" standalone="no"?>
<!-- Created with Inkscape (http://www.inkscape.org/) -->
<svg
   xmlns:dc="http://purl.org/dc/elements/1.1/"
   xmlns:cc="http://creativecommons.org/ns#"
   xmlns:rdf="http://www.w3.org/1999/02/22-rdf-syntax-ns#"
   xmlns:svg="http://www.w3.org/2000/svg"
   xmlns="http://www.w3.org/2000/svg"
   xmlns:xlink="http://www.w3.org/1999/xlink"
   xmlns:sodipodi="http://sodipodi.sourceforge.net/DTD/sodipodi-0.dtd"
   xmlns:inkscape="http://www.inkscape.org/namespaces/inkscape"
   width="128"
   height="128"
   id="svg2"
   sodipodi:version="0.32"
   inkscape:version="0.46"
   version="1.0"
   sodipodi:docname="pda.svg"
   inkscape:output_extension="org.inkscape.output.svg.inkscape">
  <defs
     id="defs4">
    <linearGradient
       inkscape:collect="always"
       id="linearGradient3191">
      <stop
         style="stop-color:#ffffff;stop-opacity:1;"
         offset="0"
         id="stop3193" />
      <stop
         style="stop-color:#ffffff;stop-opacity:0;"
         offset="1"
         id="stop3195" />
    </linearGradient>
    <linearGradient
       id="linearGradient3172">
      <stop
         style="stop-color:#f8ead2;stop-opacity:1;"
         offset="0"
         id="stop3174" />
      <stop
         id="stop3180"
         offset="0.43047771"
         style="stop-color:#cfb07f;stop-opacity:1;" />
      <stop
         style="stop-color:#dcc29b;stop-opacity:1;"
         offset="1"
         id="stop3176" />
    </linearGradient>
    <linearGradient
       inkscape:collect="always"
       xlink:href="#linearGradient3172"
       id="linearGradient3213"
       gradientUnits="userSpaceOnUse"
       x1="26.271582"
       y1="57.289322"
       x2="84.592667"
       y2="104.26141" />
    <linearGradient
       inkscape:collect="always"
       xlink:href="#linearGradient3191"
       id="linearGradient3215"
       gradientUnits="userSpaceOnUse"
       x1="28.035713"
       y1="-1.2857146"
       x2="59.674107"
       y2="60.85714" />
  </defs>
  <sodipodi:namedview
     id="base"
     pagecolor="#ffffff"
     bordercolor="#666666"
     borderopacity="1.0"
     gridtolerance="10000"
     guidetolerance="10"
     objecttolerance="10"
     inkscape:pageopacity="0.0"
     inkscape:pageshadow="2"
     inkscape:zoom="1.979899"
     inkscape:cx="17.10128"
     inkscape:cy="47.798754"
     inkscape:document-units="px"
     inkscape:current-layer="layer1"
     showgrid="false"
     inkscape:showpageshadow="false"
     inkscape:window-width="1280"
     inkscape:window-height="956"
     inkscape:window-x="0"
     inkscape:window-y="46" />
  <metadata
     id="metadata7">
    <rdf:RDF>
      <cc:Work
         rdf:about="">
        <dc:format>image/svg+xml</dc:format>
        <dc:type
           rdf:resource="http://purl.org/dc/dcmitype/StillImage" />
      </cc:Work>
    </rdf:RDF>
  </metadata>
  <g
     inkscape:label="Layer 1"
     inkscape:groupmode="layer"
     id="layer1">
    <g
       id="g3203"
       transform="matrix(1.1382325,0,0,1.1382325,-10.017634,-6.0951682)">
      <rect
         ry="12.879445"
         y="7.0342326"
         x="22.475895"
         height="109.09647"
         width="85.105354"
         id="rect2383"
         style="opacity:1;fill:url(#linearGradient3213);fill-opacity:1;stroke:#b8956b;stroke-width:2;stroke-miterlimit:4;stroke-dasharray:none;stroke-opacity:1" />
      <path
         sodipodi:nodetypes="ccccccccc"
         id="path2393"
         d="M 36.188481,14.766959 C 32.414551,14.766959 29.570439,18.694004 29.570439,21.748186 L 29.570439,84.0812 C 29.570439,87.135383 32.414554,91.002228 36.188481,91.002228 L 93.838306,91.002228 C 97.61223,91.002228 100.48671,87.324491 100.48671,84.284223 L 100.48671,21.65523 C 100.48671,18.614961 97.612232,14.766959 93.838306,14.766959 L 36.188481,14.766959 z"
         style="fill:#f4ebde;fill-opacity:1;stroke:none;stroke-width:1.31088567;stroke-miterlimit:4;stroke-opacity:1" />
      <path
         transform="translate(2.1428571,-5.5357143)"
         d="M 73.928573,109.07143 A 10.714286,10.714286 0 1 1 52.500001,109.07143 A 10.714286,10.714286 0 1 1 73.928573,109.07143 z"
         sodipodi:ry="10.714286"
         sodipodi:rx="10.714286"
         sodipodi:cy="109.07143"
         sodipodi:cx="63.214287"
         id="path2396"
         style="opacity:1;fill:#a47c34;fill-opacity:1;stroke:#b8956b;stroke-width:1.5;stroke-miterlimit:4;stroke-dasharray:none;stroke-opacity:1"
         sodipodi:type="arc" />
      <path
         sodipodi:type="arc"
         style="opacity:1;fill:#a47c34;fill-opacity:1;stroke:#b8956b;stroke-width:1.5;stroke-miterlimit:4;stroke-dasharray:none;stroke-opacity:1"
         id="path2398"
         sodipodi:cx="63.214287"
         sodipodi:cy="109.07143"
         sodipodi:rx="10.714286"
         sodipodi:ry="10.714286"
         d="M 73.928573,109.07143 A 10.714286,10.714286 0 1 1 52.500001,109.07143 A 10.714286,10.714286 0 1 1 73.928573,109.07143 z"
         transform="matrix(0.5327103,0,0,0.5327103,55.789386,45.43224)" />
      <path
         transform="matrix(0.5327103,0,0,0.5327103,6.8608144,45.43224)"
         d="M 73.928573,109.07143 A 10.714286,10.714286 0 1 1 52.500001,109.07143 A 10.714286,10.714286 0 1 1 73.928573,109.07143 z"
         sodipodi:ry="10.714286"
         sodipodi:rx="10.714286"
         sodipodi:cy="109.07143"
         sodipodi:cx="63.214287"
         id="path2400"
         style="opacity:1;fill:#a47c34;fill-opacity:1;stroke:#b8956b;stroke-width:1.5;stroke-miterlimit:4;stroke-dasharray:none;stroke-opacity:1"
         sodipodi:type="arc" />
      <path
         id="path3186"
         d="M 36.1875,14.78125 C 32.413571,14.78125 29.5625,18.695818 29.5625,21.75 L 29.5625,54.53125 C 53.105508,42.930864 80.846517,37.849614 100.5,35.625 L 100.5,21.65625 C 100.5,18.615981 97.617676,14.78125 93.84375,14.78125 L 36.1875,14.78125 z"
         style="fill:url(#linearGradient3215);fill-opacity:1;stroke:none;stroke-width:1.31088567;stroke-miterlimit:4;stroke-opacity:1" />
      <path
         style="fill:none;fill-opacity:1;stroke:#b8956b;stroke-width:1.5;stroke-miterlimit:4;stroke-dasharray:none;stroke-opacity:1"
         d="M 36.188481,14.766959 C 32.414551,14.766959 29.570439,18.694004 29.570439,21.748186 L 29.570439,84.0812 C 29.570439,87.135383 32.414554,91.002228 36.188481,91.002228 L 93.838306,91.002228 C 97.61223,91.002228 100.48671,87.324491 100.48671,84.284223 L 100.48671,21.65523 C 100.48671,18.614961 97.612232,14.766959 93.838306,14.766959 L 36.188481,14.766959 z"
         id="path3184"
         sodipodi:nodetypes="ccccccccc" />
      <path
         transform="matrix(0.5327103,0,0,0.5327103,31.682242,45.43224)"
         d="M 63.21875,100.25 C 58.335811,100.25 54.406251,104.17956 54.40625,109.0625 C 54.40625,113.94544 58.335811,117.875 63.21875,117.875 C 68.101689,117.875 72.031249,113.94544 72.03125,109.0625 C 72.03125,104.17956 68.101689,100.25 63.21875,100.25 z"
         id="path3201"
         style="opacity:1;fill:#cbb183;fill-opacity:1;stroke:#b8956b;stroke-width:1.5;stroke-miterlimit:4;stroke-dasharray:none;stroke-opacity:1"
         inkscape:original="M 63.21875 98.34375 C 57.304464 98.34375 52.500001 103.14821 52.5 109.0625 C 52.5 114.97679 57.304464 119.78125 63.21875 119.78125 C 69.133036 119.78125 73.937499 114.97679 73.9375 109.0625 C 73.9375 103.14821 69.133036 98.343751 63.21875 98.34375 z "
         inkscape:radius="-1.9043818"
         sodipodi:type="inkscape:offset" />
    </g>
    <g
       transform="translate(191.54026,79.982687)"
       inkscape:label="Layer 1"
       id="g3370">
      <text
         transform="translate(-6.0587764,7.421875)"
         sodipodi:linespacing="125%"
         id="text2404"
         y="9.7142859"
         x="6.2857141"
         style="font-size:16px;font-style:normal;font-variant:normal;font-weight:bold;font-stretch:normal;text-align:start;line-height:125%;writing-mode:lr-tb;text-anchor:start;fill:#000000;fill-opacity:1;stroke:none;stroke-width:1px;stroke-linecap:butt;stroke-linejoin:miter;stroke-opacity:1;font-family:Purisa;-inkscape-font-specification:Purisa Bold"
         xml:space="preserve"><tspan
           y="9.7142859"
           x="6.2857141"
           id="tspan2406"
           sodipodi:role="line" /></text>
    </g>
  </g>
</svg>
