<?xml version="1.0" encoding="UTF-8" standalone="no"?>
<!-- Created with Inkscape (http://www.inkscape.org/) -->

<svg
   xmlns:dc="http://purl.org/dc/elements/1.1/"
   xmlns:cc="http://creativecommons.org/ns#"
   xmlns:rdf="http://www.w3.org/1999/02/22-rdf-syntax-ns#"
   xmlns:svg="http://www.w3.org/2000/svg"
   xmlns="http://www.w3.org/2000/svg"
   xmlns:xlink="http://www.w3.org/1999/xlink"
   xmlns:sodipodi="http://sodipodi.sourceforge.net/DTD/sodipodi-0.dtd"
   xmlns:inkscape="http://www.inkscape.org/namespaces/inkscape"
   width="128"
   height="128"
   id="svg2"
   sodipodi:version="0.32"
   inkscape:version="0.47 r22583"
   version="1.0"
   sodipodi:docname="start-here.svg"
   inkscape:output_extension="org.inkscape.output.svg.inkscape"
   inkscape:export-filename="/home/immanuel/mydata/ARCHIVE/prj/cream/dsktop/desktop-test/icon2.png"
   inkscape:export-xdpi="90"
   inkscape:export-ydpi="90">
  <defs
     id="defs4">
    <linearGradient
       inkscape:collect="always"
       id="linearGradient3370">
      <stop
         style="stop-color:#ffffff;stop-opacity:1;"
         offset="0"
         id="stop3372" />
      <stop
         style="stop-color:#ffffff;stop-opacity:0;"
         offset="1"
         id="stop3374" />
    </linearGradient>
    <linearGradient
       id="linearGradient3213">
      <stop
         style="stop-color:#f8f8f8;stop-opacity:1;"
         offset="0"
         id="stop3215" />
      <stop
         id="stop3217"
         offset="0.5"
         style="stop-color:#e9e9e9;stop-opacity:1;" />
      <stop
         style="stop-color:#f2f2f2;stop-opacity:1;"
         offset="1"
         id="stop3219" />
    </linearGradient>
    <linearGradient
       id="linearGradient3385">
      <stop
         style="stop-color:#f8ead2;stop-opacity:1;"
         offset="0"
         id="stop3387" />
      <stop
         id="stop3393"
         offset="0.5"
         style="stop-color:#cfb07f;stop-opacity:1;" />
      <stop
         style="stop-color:#dcc29b;stop-opacity:1;"
         offset="1"
         id="stop3389" />
    </linearGradient>
    <filter
       inkscape:collect="always"
       id="filter3359">
      <feGaussianBlur
         inkscape:collect="always"
         stdDeviation="2.4886137"
         id="feGaussianBlur3361" />
    </filter>
    <linearGradient
       inkscape:collect="always"
       xlink:href="#linearGradient3213"
       id="linearGradient2524"
       gradientUnits="userSpaceOnUse"
       x1="207.55634"
       y1="250.8911"
       x2="207.55634"
       y2="1.8588696" />
    <linearGradient
       inkscape:collect="always"
       xlink:href="#linearGradient3385"
       id="linearGradient2526"
       gradientUnits="userSpaceOnUse"
       gradientTransform="matrix(0.9015099,0,0,0.9015099,12.60673,13.749715)"
       x1="80.999466"
       y1="9.8108034"
       x2="80.999466"
       y2="240.68875" />
    <linearGradient
       inkscape:collect="always"
       xlink:href="#linearGradient3370"
       id="linearGradient2528"
       gradientUnits="userSpaceOnUse"
       x1="23.571426"
       y1="-114.71429"
       x2="167.46608"
       y2="119.90848" />
  </defs>
  <sodipodi:namedview
     id="base"
     pagecolor="#ffffff"
     bordercolor="#666666"
     borderopacity="1.0"
     gridtolerance="10000"
     guidetolerance="10"
     objecttolerance="10"
     inkscape:pageopacity="0.0"
     inkscape:pageshadow="2"
     inkscape:zoom="2"
     inkscape:cx="30.489058"
     inkscape:cy="39.854582"
     inkscape:document-units="px"
     inkscape:current-layer="g3331"
     showgrid="false"
     inkscape:showpageshadow="false"
     inkscape:window-width="1024"
     inkscape:window-height="718"
     inkscape:window-x="0"
     inkscape:window-y="26"
     inkscape:window-maximized="1" />
  <metadata
     id="metadata7">
    <rdf:RDF>
      <cc:Work
         rdf:about="">
        <dc:format>image/svg+xml</dc:format>
        <dc:type
           rdf:resource="http://purl.org/dc/dcmitype/StillImage" />
        <dc:title />
      </cc:Work>
    </rdf:RDF>
  </metadata>
  <g
     inkscape:label="Layer 1"
     inkscape:groupmode="layer"
     id="layer1">
    <g
       id="g3331">
      <g
         id="g2536"
         transform="matrix(0.42656796,0,0,0.42656796,10.62848,9.4032735)">
        <path
           transform="matrix(0.9015099,0,0,0.9015099,12.60673,14.071684)"
           d="M 128,2.96875 C 60.095931,2.96875 4.5937489,58.470911 4.59375,126.375 c 0,67.90408 55.502187,123.40624 123.40625,123.40625 67.90407,0 123.40625,-55.50218 123.40625,-123.40625 C 251.40625,58.470915 195.90408,2.9687489 128,2.96875 z m 0,36.34375 c 48.16746,-10e-7 87.0625,38.895024 87.0625,87.0625 0,48.16746 -38.89503,87.0625 -87.0625,87.0625 C 79.832538,213.43749 40.9375,174.54246 40.9375,126.375 40.937499,78.207521 79.832543,39.3125 128,39.3125 z"
           id="path3223"
           style="fill:url(#linearGradient2524);fill-opacity:1;fill-rule:nonzero;stroke:#e9e9e9;stroke-width:2.21850038;stroke-linecap:round;stroke-linejoin:round;stroke-miterlimit:4;stroke-opacity:1;stroke-dasharray:none;stroke-dashoffset:0;marker:none;visibility:visible;display:inline;overflow:visible"
           inkscape:original="M 128 10.25 C 64.058626 10.25 11.874999 62.433607 11.875 126.375 C 11.875 190.31638 64.058632 242.49999 128 242.5 C 191.94137 242.5 244.125 190.31637 244.125 126.375 C 244.125 62.43361 191.94138 10.249999 128 10.25 z M 128 32.03125 C 180.1038 32.031249 222.34375 74.271186 222.34375 126.375 C 222.34375 178.4788 180.10381 220.71875 128 220.71875 C 75.8962 220.71874 33.65625 178.4788 33.65625 126.375 C 33.656249 74.271182 75.896205 32.03125 128 32.03125 z "
           inkscape:radius="7.2833271"
           sodipodi:type="inkscape:offset" />
        <g
           inkscape:transform-center-x="24.748737"
           id="g2505">
          <path
             sodipodi:nodetypes="csscscccsscscccccc"
             id="path3335"
             d="M 129.47405,16.740004 C 109.99982,16.514809 90.494238,21.552807 72.640754,31.82303 19.530252,62.374881 1.1740566,130.63485 31.769019,183.66729 c 30.480979,52.83487 98.374231,71.20347 151.396781,41.12976 1.51024,-0.85364 2.61729,-2.27336 3.07592,-3.94466 0.45863,-1.6713 0.23099,-3.45623 -0.63251,-4.95939 l -9.7102,-16.88919 c -1.77907,-3.10351 -5.7321,-4.56792 -8.85343,-2.8149 -37.85565,21.27958 -85.768538,8.33211 -107.129645,-28.77707 -21.765154,-37.8111 -9.178029,-86.230033 29.003702,-107.419038 25.925043,-14.387137 53.760343,-13.777396 79.553913,0.570367 0.33323,0.199833 0.68368,0.369507 1.04718,0.506993 0.77634,0.313688 1.60593,0.475065 2.44342,0.475304 l 0.0317,0 c 2.28337,0.0032 4.40196,-1.186815 5.58496,-3.137016 l 10.091,-16.667378 c 1.85809,-3.07999 0.86351,-7.080942 -2.22128,-8.935743 C 167.98539,22.349519 148.74442,16.96284 129.47405,16.740004 z"
             style="fill:#b8956b;fill-opacity:1;stroke:#b8956b;stroke-width:2.00814915;stroke-linecap:butt;stroke-linejoin:round;stroke-miterlimit:4;stroke-opacity:1;stroke-dashoffset:0;filter:url(#filter3359)" />
          <g
             id="g3406"
             transform="matrix(1.0047981,0,0,1.0033516,-0.441152,-0.08727405)">
            <path
               sodipodi:nodetypes="csscscccsscscccccc"
               id="path3241"
               d="M 129.29483,16.771068 C 109.9136,16.546625 90.501156,21.567794 72.732926,31.803711 19.876037,62.253506 1.6074957,130.28546 32.056361,183.14075 c 30.335427,52.65838 97.904479,70.96562 150.673829,40.99237 1.50303,-0.85079 2.6048,-2.26577 3.06124,-3.93148 0.45644,-1.66572 0.22988,-3.44469 -0.62949,-4.94283 l -9.66384,-16.83277 c -1.77057,-3.09314 -5.70472,-4.55266 -8.81115,-2.8055 C 129.01207,216.82904 81.327974,203.92482 60.068871,166.9396 38.407649,129.2548 50.934668,80.997609 88.934074,59.879384 114.73532,45.540306 142.4377,46.14801 168.1081,60.447846 c 0.33164,0.199166 0.68042,0.368273 1.04218,0.505299 0.77263,0.312641 1.59826,0.473479 2.43175,0.473717 l 0.0316,0 c 2.27247,0.0032 4.38094,-1.182851 5.55829,-3.126537 l 10.04282,-16.611703 c 1.84921,-3.069701 0.85938,-7.057288 -2.21068,-8.905894 C 167.62227,22.361845 148.47318,16.99316 129.29483,16.771068 z"
               style="fill:url(#linearGradient2526);fill-opacity:1;stroke:#b8956b;stroke-width:2;stroke-linecap:butt;stroke-linejoin:round;stroke-miterlimit:4;stroke-opacity:1;stroke-dashoffset:0" />
            <path
               d="M 125.625,15.78125 C 107.28947,16.189181 89.015828,21.292294 72.21875,30.96875 21.810559,60.0079 2.5941795,122.90509 26.59375,174.75 a 0.99067246,0.99067246 0 0 0 1.625,0.28125 C 36.327231,166.40874 45.207227,159.63238 54.4375,154.375 a 0.99067246,0.99067246 0 0 0 0.4375,-1.1875 C 42.748572,118.59521 56.227918,79.188906 89.40625,60.75 c 25.51553,-14.180285 52.7819,-13.606854 78.1875,0.53125 0.0112,0.0067 0.0199,0.02452 0.0312,0.03125 0.34531,0.205789 0.74114,0.401578 1.15625,0.5625 0.0136,0.0053 0.0176,0.02608 0.0312,0.03125 l 0,-0.03125 c 0.88726,0.354622 1.83467,0.56223 2.78125,0.5625 l 0.0312,0 c 2.61753,0.0037 5.04923,-1.384694 6.40625,-3.625 l 10.03125,-16.625 c 2.12616,-3.529448 0.96563,-8.125571 -2.5625,-10.25 -17.52868,-10.50896 -36.86361,-15.932111 -56.21875,-16.15625 -1.21188,-0.01403 -2.42348,-0.02743 -3.65625,0 z"
               id="path3378"
               style="opacity:0.8;fill:url(#linearGradient2528);fill-opacity:1;stroke:none"
               inkscape:original="M 125.65625 16.78125 C 107.48882 17.185441 89.376466 22.216328 72.71875 31.8125 C 22.752473 60.597072 3.7134277 122.95897 27.5 174.34375 C 35.67784 165.64748 44.625932 158.80368 53.9375 153.5 C 41.657388 118.4693 55.335005 78.549635 88.9375 59.875 C 114.73875 45.535923 142.42335 46.137664 168.09375 60.4375 C 168.4254 60.636667 168.79449 60.831724 169.15625 60.96875 C 169.92888 61.281392 170.76026 61.437262 171.59375 61.4375 L 171.625 61.4375 C 173.89746 61.44067 176.01015 60.256186 177.1875 58.3125 L 187.21875 41.6875 C 189.06796 38.617799 188.07006 34.629856 185 32.78125 C 167.61823 22.360369 148.4596 17.003342 129.28125 16.78125 C 128.06992 16.767222 126.86741 16.754304 125.65625 16.78125 z "
               inkscape:radius="0.99057341"
               sodipodi:type="inkscape:offset" />
          </g>
        </g>
      </g>
    </g>
  </g>
</svg>
