<?xml version="1.0" encoding="UTF-8" standalone="no"?>
<!-- Created with Inkscape (http://www.inkscape.org/) -->
<svg
   xmlns:dc="http://purl.org/dc/elements/1.1/"
   xmlns:cc="http://creativecommons.org/ns#"
   xmlns:rdf="http://www.w3.org/1999/02/22-rdf-syntax-ns#"
   xmlns:svg="http://www.w3.org/2000/svg"
   xmlns="http://www.w3.org/2000/svg"
   xmlns:xlink="http://www.w3.org/1999/xlink"
   xmlns:sodipodi="http://sodipodi.sourceforge.net/DTD/sodipodi-0.dtd"
   xmlns:inkscape="http://www.inkscape.org/namespaces/inkscape"
   version="1.0"
   width="128"
   height="128"
   id="svg2"
   sodipodi:version="0.32"
   inkscape:version="0.46"
   sodipodi:docname="user-trash.svg"
   inkscape:output_extension="org.inkscape.output.svg.inkscape"
   inkscape:export-filename="D:\Projekte\cream\art\creamlooks-icontheme\icons\scalable\places\bitmap.png"
   inkscape:export-xdpi="90"
   inkscape:export-ydpi="90">
  <metadata
     id="metadata40">
    <rdf:RDF>
      <cc:Work
         rdf:about="">
        <dc:format>image/svg+xml</dc:format>
        <dc:type
           rdf:resource="http://purl.org/dc/dcmitype/StillImage" />
        <dc:title />
      </cc:Work>
    </rdf:RDF>
  </metadata>
  <sodipodi:namedview
     inkscape:window-height="838"
     inkscape:window-width="1440"
     inkscape:pageshadow="2"
     inkscape:pageopacity="0.0"
     guidetolerance="10.0"
     gridtolerance="10.0"
     objecttolerance="10.0"
     borderopacity="1.0"
     bordercolor="#666666"
     pagecolor="#ffffff"
     id="base"
     showgrid="false"
     inkscape:zoom="2.5743106"
     inkscape:cx="101.54011"
     inkscape:cy="36.765507"
     inkscape:window-x="-8"
     inkscape:window-y="-8"
     inkscape:current-layer="g3438"
     showguides="true"
     inkscape:guide-bbox="true"
     inkscape:showpageshadow="false"
     inkscape:window-maximized="0" />
  <defs
     id="defs4">
    <linearGradient
       id="linearGradient3469">
      <stop
         id="stop3471"
         style="stop-color:#fafafa;stop-opacity:0.4509804;"
         offset="0" />
      <stop
         id="stop3473"
         style="stop-color:#a7a7a7;stop-opacity:0.37254903;"
         offset="0.41714925" />
      <stop
         id="stop3475"
         style="stop-color:#454545;stop-opacity:0.33333334;"
         offset="0.72562557" />
      <stop
         id="stop3477"
         style="stop-color:#fafafa;stop-opacity:0.50588238;"
         offset="1" />
    </linearGradient>
    <linearGradient
       id="linearGradient3432">
      <stop
         id="stop3434"
         style="stop-color:#787878;stop-opacity:1;"
         offset="0" />
      <stop
         id="stop3436"
         style="stop-color:#f0f0f0;stop-opacity:0.64245808;"
         offset="1" />
    </linearGradient>
    <linearGradient
       id="linearGradient3734">
      <stop
         id="stop3738"
         offset="0"
         style="stop-color:#e8e8e8;stop-opacity:1;" />
      <stop
         style="stop-color:#8a8a8a;stop-opacity:1;"
         offset="1"
         id="stop3740" />
    </linearGradient>
    <linearGradient
       spreadMethod="reflect"
       gradientTransform="matrix(0.3513281,0,0,0.3568132,7.1160617,-3.1541845)"
       gradientUnits="userSpaceOnUse"
       xlink:href="#linearGradient2793"
       id="linearGradient2489"
       y2="6.6355643"
       x2="54.981541"
       y1="54.508759"
       x1="101.67828" />
    <linearGradient
       id="linearGradient2793">
      <stop
         offset="0"
         style="stop-color:#787878;stop-opacity:1;"
         id="stop2795" />
      <stop
         offset="1"
         style="stop-color:#f0f0f0;stop-opacity:0;"
         id="stop2797" />
    </linearGradient>
    <linearGradient
       gradientTransform="matrix(0.4024905,0,0,0.4087745,3.8420344,-8.1468147)"
       gradientUnits="userSpaceOnUse"
       xlink:href="#linearGradient3734"
       id="linearGradient2492"
       y2="53.610931"
       x2="45.988209"
       y1="14.605721"
       x1="80.653587" />
    <linearGradient
       spreadMethod="reflect"
       gradientTransform="matrix(0.4191509,0,0,0.3843809,2.7758209,-6.4976308)"
       gradientUnits="userSpaceOnUse"
       xlink:href="#linearGradient2793"
       id="linearGradient2495"
       y2="37.21664"
       x2="63.999931"
       y1="37.21664"
       x1="32.626884" />
    <linearGradient
       spreadMethod="reflect"
       gradientTransform="matrix(0.4322592,0,0,0.3884875,1.9369262,-6.4852691)"
       gradientUnits="userSpaceOnUse"
       xlink:href="#linearGradient3432"
       id="linearGradient2499"
       y2="17.833755"
       x2="62.373119"
       y1="17.833755"
       x1="97.717728" />
    <linearGradient
       gradientTransform="matrix(0.8861963,0,0,1.0531952,11.591877,-16.891831)"
       gradientUnits="userSpaceOnUse"
       xlink:href="#linearGradient2338"
       id="linearGradient2503"
       y2="39.751118"
       x2="35.109943"
       y1="37.925682"
       x1="0.59473652" />
    <linearGradient
       id="linearGradient2338">
      <stop
         offset="0"
         style="stop-color:#fafafa;stop-opacity:0.47058824;"
         id="stop3317" />
      <stop
         offset="0.52475154"
         style="stop-color:#a7a7a7;stop-opacity:0.39215687;"
         id="stop3322" />
      <stop
         offset="0.83783782"
         style="stop-color:#454545;stop-opacity:0.3463687;"
         id="stop3319" />
      <stop
         offset="1"
         style="stop-color:#fafafa;stop-opacity:0.52513969;"
         id="stop2342" />
    </linearGradient>
    <linearGradient
       gradientTransform="matrix(0.7325575,0,0,0.7439946,8.1533226,-3.6097962)"
       gradientUnits="userSpaceOnUse"
       xlink:href="#linearGradient4294"
       id="linearGradient2505"
       y2="62.561802"
       x2="45.072163"
       y1="6.1238747"
       x1="1.7785383" />
    <linearGradient
       id="linearGradient4294">
      <stop
         offset="0"
         style="stop-color:#cbcbcb;stop-opacity:1;"
         id="stop4296" />
      <stop
         offset="1"
         style="stop-color:#454545;stop-opacity:1;"
         id="stop4298" />
    </linearGradient>
    <linearGradient
       spreadMethod="reflect"
       gradientTransform="matrix(0.7909772,0,0,0.7164456,5.8281101,-2.1025921)"
       gradientUnits="userSpaceOnUse"
       xlink:href="#linearGradient2793"
       id="linearGradient2474"
       y2="71.843567"
       x2="36.949463"
       y1="53.129967"
       x1="34.331409" />
    <radialGradient
       gradientTransform="matrix(0.3246071,0,0,9.1960495e-2,9.6039123,27.138307)"
       gradientUnits="userSpaceOnUse"
       xlink:href="#linearGradient5060"
       id="radialGradient2470"
       fy="108.02493"
       fx="62.71241"
       r="47.38271"
       cy="108.02493"
       cx="62.71241" />
    <linearGradient
       id="linearGradient5060">
      <stop
         offset="0"
         style="stop-color:#000000;stop-opacity:1"
         id="stop5062" />
      <stop
         offset="1"
         style="stop-color:#000000;stop-opacity:0"
         id="stop5064" />
    </linearGradient>
    <radialGradient
       inkscape:collect="always"
       xlink:href="#linearGradient5060"
       id="radialGradient3451"
       gradientUnits="userSpaceOnUse"
       gradientTransform="matrix(0.3246071,0,0,9.1960495e-2,9.6039123,27.138307)"
       cx="62.71241"
       cy="108.02493"
       fx="62.71241"
       fy="108.02493"
       r="47.38271" />
    <linearGradient
       inkscape:collect="always"
       xlink:href="#linearGradient2793"
       id="linearGradient3453"
       gradientUnits="userSpaceOnUse"
       gradientTransform="matrix(0.7909772,0,0,0.7164456,5.8281101,-2.1025921)"
       spreadMethod="reflect"
       x1="34.331409"
       y1="53.129967"
       x2="36.949463"
       y2="71.843567" />
    <linearGradient
       inkscape:collect="always"
       xlink:href="#linearGradient3469"
       id="linearGradient3455"
       gradientUnits="userSpaceOnUse"
       gradientTransform="matrix(0.8861963,0,0,1.0531952,11.591877,-16.891831)"
       x1="0.59473652"
       y1="37.925682"
       x2="35.109943"
       y2="39.751118" />
    <linearGradient
       inkscape:collect="always"
       xlink:href="#linearGradient4294"
       id="linearGradient3457"
       gradientUnits="userSpaceOnUse"
       gradientTransform="matrix(0.7325575,0,0,0.7439946,8.1533226,-3.6097962)"
       x1="1.7785383"
       y1="6.1238747"
       x2="45.072163"
       y2="62.561802" />
    <linearGradient
       inkscape:collect="always"
       xlink:href="#linearGradient3432"
       id="linearGradient3459"
       gradientUnits="userSpaceOnUse"
       gradientTransform="matrix(0.4322592,0,0,0.3884875,1.9369262,-6.4852691)"
       spreadMethod="reflect"
       x1="97.717728"
       y1="17.833755"
       x2="62.373119"
       y2="17.833755" />
    <linearGradient
       inkscape:collect="always"
       xlink:href="#linearGradient2793"
       id="linearGradient3461"
       gradientUnits="userSpaceOnUse"
       gradientTransform="matrix(0.4191509,0,0,0.3843809,2.7758209,-6.4976308)"
       spreadMethod="reflect"
       x1="32.626884"
       y1="37.21664"
       x2="63.999931"
       y2="37.21664" />
    <linearGradient
       inkscape:collect="always"
       xlink:href="#linearGradient3734"
       id="linearGradient3463"
       gradientUnits="userSpaceOnUse"
       gradientTransform="matrix(0.4024905,0,0,0.4087745,3.8420344,-8.1468147)"
       x1="80.653587"
       y1="14.605721"
       x2="45.988209"
       y2="53.610931" />
    <linearGradient
       inkscape:collect="always"
       xlink:href="#linearGradient2793"
       id="linearGradient3465"
       gradientUnits="userSpaceOnUse"
       gradientTransform="matrix(0.3513281,0,0,0.3568132,7.1160617,-3.1541845)"
       spreadMethod="reflect"
       x1="101.67828"
       y1="54.508759"
       x2="54.981541"
       y2="6.6355643" />
  </defs>
  <rect
     style="opacity:0.7;fill:#ffffff;fill-opacity:1;fill-rule:nonzero;stroke:none;stroke-width:0.30000001;stroke-linejoin:miter;marker:none;marker-start:none;marker-mid:none;marker-end:none;stroke-miterlimit:4;stroke-dasharray:none;stroke-dashoffset:0;stroke-opacity:1;visibility:visible;display:inline;overflow:visible;enable-background:accumulate"
     id="rect3326"
     y="7.2142854"
     x="71.964287"
     ry="0"
     rx="2.4517381"
     height="0"
     width="0.71428573" />
  <g
     id="layer1"
     inkscape:label="Layer 1"
     transform="matrix(0.7444544,0,0,0.7444544,0.6982689,34.994306)">
    <g
       id="g4072">
      <g
         transform="translate(-3.7880726,-12.887962)"
         id="g3864">
        <g
           id="g4101"
           transform="matrix(1.0258272,0,0,1.0258272,2.3527405,8.078146)">
          <g
             id="g2649"
             transform="matrix(3.3673358,0,0,3.3673358,-16.913281,-18.323602)">
            <g
               id="g3438"
               transform="translate(0.45317,-1.0909056)">
              <g
                 id="g3479">
                <path
                   style="opacity:0.65;fill:url(#radialGradient3451);fill-opacity:1;fill-rule:evenodd;stroke:none;stroke-width:1.05496335;marker:none;visibility:visible;display:inline;overflow:visible"
                   id="path12941"
                   d="M 45.341569,37.072346 C 45.341569,39.478841 38.455367,41.42969 29.960806,41.42969 C 21.466245,41.42969 14.580042,39.478841 14.580042,37.072346 C 14.580042,34.665851 21.466245,32.715002 29.960805,32.715002 C 38.455367,32.715002 45.341569,34.665851 45.341569,37.072346 z" />
                <path
                   style="fill:#f8ead2;fill-opacity:1;fill-rule:evenodd;stroke:#838383;stroke-width:0.35406002;stroke-linecap:round;stroke-linejoin:round;marker:none;stroke-miterlimit:4;stroke-dasharray:none;stroke-dashoffset:0;stroke-opacity:1;visibility:visible;display:inline;overflow:visible"
                   id="path5870"
                   d="M 42.475568,35.962966 C 42.473637,37.652283 36.710255,39.0215 29.601431,39.0215 C 22.492605,39.0215 16.729223,37.652283 16.727292,35.962966 C 16.72536,34.273001 22.489874,32.902771 29.60143,32.902771 C 36.712986,32.902771 42.4775,34.273001 42.475568,35.962966 z" />
                <path
                   style="opacity:0.5;fill:url(#linearGradient3453);fill-opacity:1;fill-rule:evenodd;stroke:none;stroke-width:0.47033069;marker:none;visibility:visible;display:inline;overflow:visible"
                   id="path3037"
                   d="M 42.475568,35.962966 C 42.473637,37.652283 36.710255,39.0215 29.601431,39.0215 C 22.492605,39.0215 16.729223,37.652283 16.727292,35.962966 C 16.72536,34.273001 22.489874,32.902771 29.60143,32.902771 C 36.712986,32.902771 42.4775,34.273001 42.475568,35.962966 z" />
                <path
                   style="fill:url(#linearGradient3455);fill-opacity:1;fill-rule:evenodd;stroke:url(#linearGradient3457);stroke-width:0.36934191000000000;stroke-linecap:round;stroke-linejoin:round;stroke-miterlimit:4;stroke-dasharray:none;stroke-opacity:1"
                   id="path1751"
                   d="M 13.679007,3.9221437 C 13.645765,3.8787288 16.594528,35.153767 16.594909,35.163241 C 16.720503,38.286594 22.190343,38.848642 29.740874,39.094005 C 38.967028,38.997398 42.251105,37.550748 42.559374,35.252041 C 42.569859,35.209215 45.517925,3.9649662 45.528409,3.9221437 C 47.270901,-2.9926712 33.391982,-2.4843932 28.531239,-2.4843932 C 23.312169,-2.4843932 11.715619,-2.6469305 13.679007,3.9221437 L 13.679007,3.9221437 z"
                   sodipodi:nodetypes="cscccscc" />
                <path
                   style="opacity:0.77272728;fill:#585858;fill-opacity:0.51308899;fill-rule:evenodd;stroke:#636363;stroke-width:0.35405999;stroke-linecap:round;stroke-linejoin:round;marker:none;stroke-miterlimit:4;stroke-dasharray:none;stroke-dashoffset:0;stroke-opacity:1;visibility:visible;display:inline;overflow:visible"
                   id="path18342"
                   d="M 44.60395,2.8437572 C 44.60395,4.4568897 38.256867,5.764592 30.427342,5.764592 C 22.597817,5.764592 16.250733,4.4568897 16.250733,2.8437572 C 16.250733,1.2306246 22.597817,-0.077077588 30.427342,-0.077077588 C 38.256867,-0.077077588 44.60395,1.2306246 44.60395,2.8437572 L 44.60395,2.8437572 z" />
                <path
                   style="fill:#f8ead2;fill-opacity:1;fill-rule:evenodd;stroke:none"
                   id="path18338"
                   d="M 14.79964,3.1464269 C 14.79964,3.1464269 26.572297,-0.56388467 43.857809,2.6003524 C 50.448692,-2.3894058 28.313284,-2.7545105 28.313284,-2.7545105 C 28.313284,-2.7545105 9.3279667,-1.7216302 14.79964,3.1464269 z" />
                <path
                   style="fill:url(#linearGradient3459);fill-opacity:1;fill-rule:evenodd;stroke:#787878;stroke-width:0.33945477;stroke-linecap:round;stroke-linejoin:round;stroke-miterlimit:4;stroke-dasharray:none;stroke-opacity:1"
                   id="path13701"
                   d="M 14.7928,3.1537295 C 14.7928,3.1537295 26.570954,-0.25519769 43.864539,2.652012 C 49.655368,-2.194439 28.569593,-2.2962074 28.312755,-2.2678814 C 26.733236,-2.2463409 10.27453,-1.9418172 14.7928,3.1537295 L 14.7928,3.1537295 z"
                   sodipodi:nodetypes="ccccc" />
                <path
                   style="fill:#ffffff;fill-opacity:1;fill-rule:evenodd;stroke:#808389;stroke-width:0.17669712;stroke-linecap:round;stroke-linejoin:round;marker:none;stroke-miterlimit:4;stroke-dasharray:none;stroke-dashoffset:0;stroke-opacity:1;visibility:visible;display:inline;overflow:visible"
                   id="path18314"
                   d="M 41.712557,-1.1343868 C 41.729824,-1.1298088 41.749285,-1.1257912 41.766562,-1.1211724 C 41.84377,-1.1005154 41.918899,-1.0766282 41.996094,-1.055105 C 42.014633,-1.0499572 42.031578,-1.0470888 42.050099,-1.0418906 C 42.095024,-1.0292318 42.140338,-1.0152481 42.185119,-1.0022502 C 42.198264,-0.99845105 42.212492,-0.99286629 42.225627,-0.98903673 C 42.23427,-0.98651979 42.244044,-0.99157267 42.25263,-0.98903673 C 42.276261,-0.98210327 42.296577,-0.96964773 42.320131,-0.96260979 C 42.347789,-0.95431813 42.373604,-0.94462553 42.401139,-0.93618285 C 42.420239,-0.93037014 42.43611,-0.92885997 42.455144,-0.92296843 C 42.499395,-0.90921548 42.546314,-0.89749793 42.590162,-0.88332802 C 42.601778,-0.87959535 42.619083,-0.87387761 42.630671,-0.8701136 C 42.667494,-0.85806552 42.702209,-0.84283944 42.738685,-0.83047224 C 42.751744,-0.82607471 42.76619,-0.82169618 42.779193,-0.81725877 C 42.865424,-0.78757215 42.952011,-0.75642855 43.035725,-0.72476352 C 43.057894,-0.71643387 43.081268,-0.7068106 43.103227,-0.69833658 C 43.128985,-0.68834669 43.145284,-0.68210753 43.170738,-0.67190964 C 43.223204,-0.6508889 43.281691,-0.62779002 43.332762,-0.60584228 C 43.349972,-0.59850991 43.369727,-0.58685789 43.386767,-0.57941534 C 43.390661,-0.57766773 43.396331,-0.58116295 43.400273,-0.57941534 C 43.42586,-0.56803401 43.456111,-0.5514127 43.48128,-0.53977493 C 43.494834,-0.53350632 43.508359,-0.53290795 43.521789,-0.52656146 C 43.526728,-0.52423447 43.530337,-0.51568162 43.535295,-0.51334704 C 43.583582,-0.49032699 43.637276,-0.47132835 43.683816,-0.44727968 C 43.696201,-0.4408781 43.712072,-0.42732461 43.724315,-0.42085274 C 43.739977,-0.41258957 43.762877,-0.40281054 43.77832,-0.3944258 C 43.787343,-0.38952489 43.796442,-0.38615313 43.805323,-0.38121138 C 43.814726,-0.37600653 43.822998,-0.37325214 43.832325,-0.36799791 C 43.841158,-0.36301151 43.837074,-0.35981072 43.845831,-0.35478444 C 43.854664,-0.34976005 43.864105,-0.34663525 43.872843,-0.34157002 C 43.881486,-0.33649814 43.891279,-0.33346831 43.899846,-0.3283556 C 43.90431,-0.32573418 43.908964,-0.31777399 43.913352,-0.31514213 C 43.934656,-0.30229622 43.960081,-0.28863065 43.980853,-0.27550171 C 43.989686,-0.26996444 43.999137,-0.26787491 44.007856,-0.26228729 C 44.019367,-0.25486944 44.023518,-0.24336843 44.034868,-0.2358613 C 44.047832,-0.2272847 44.06264,-0.21813538 44.075376,-0.20943436 C 44.119247,-0.17960432 44.169396,-0.14824987 44.210392,-0.11693911 C 44.214096,-0.11407075 44.220222,-0.10660255 44.223898,-0.10372469 C 44.265242,-0.071779473 44.30727,-0.044778862 44.345416,-0.01122945 C 44.34817,-0.0088169844 44.342661,-0.00043889174 44.345416,0.0019840211 C 44.35707,0.012345274 44.374584,0.017892994 44.385924,0.028410963 C 44.392478,0.0345561 44.392953,0.048641478 44.39943,0.054837904 C 44.408358,0.06333852 44.417752,0.072657854 44.426433,0.081264846 C 44.429567,0.084399151 44.436824,0.078111545 44.439939,0.081264846 C 44.443168,0.084503628 44.450235,0.091226237 44.453445,0.094478317 C 44.462088,0.10334935 44.472042,0.1119269 44.480447,0.12090526 C 44.482537,0.12309927 44.478358,0.13191807 44.480447,0.13411968 C 44.483962,0.13798532 44.49042,0.14344661 44.493953,0.14733315 C 44.534623,0.19167407 44.56704,0.23241244 44.601964,0.27946881 C 44.609088,0.28905123 44.62209,0.29619935 44.628967,0.30589575 C 44.631151,0.30886859 44.626877,0.31612403 44.628967,0.31911017 C 44.631911,0.32327974 44.639605,0.32813317 44.642473,0.33232364 C 44.650641,0.34435177 44.661687,0.35975926 44.669475,0.371965 C 44.67261,0.37824311 44.67998,0.37886997 44.682981,0.38517942 C 44.68906,0.39770715 44.69115,0.41232156 44.696487,0.42481983 C 44.709613,0.45668622 44.715236,0.48486362 44.72349,0.51731413 C 44.728714,0.5361722 44.733643,0.56430306 44.736996,0.58338148 C 44.738041,0.58991604 44.736163,0.59004901 44.736996,0.5965959 C 44.738516,0.60615933 44.749486,0.61337868 44.750502,0.62302285 C 44.751832,0.63941811 44.750524,0.65945772 44.750502,0.67587673 C 44.749457,0.68642509 44.751927,0.70507611 44.750502,0.71551714 C 44.749457,0.7224506 44.738193,0.73505621 44.736996,0.74194408 C 44.735191,0.75227684 44.73918,0.75814654 44.736996,0.76837102 C 44.727451,0.81625562 44.713983,0.854913 44.696487,0.90050679 C 44.693923,0.90702234 44.699147,0.90725029 44.696487,0.91372026 C 44.692403,0.9241119 44.687464,0.92987238 44.682981,0.9401472 C 44.678802,0.94977901 44.673958,0.9570449 44.669475,0.96657414 C 44.663587,0.97932791 44.662447,0.98042777 44.655969,0.99300108 C 44.65274,0.99928869 44.645873,1.013187 44.642463,1.019428 C 44.633915,1.035034 44.624864,1.0569533 44.615461,1.0722829 C 44.613561,1.0753412 44.603911,1.0692435 44.601955,1.0722829 C 44.598156,1.07839 44.605944,1.0794253 44.601955,1.0854963 C 44.582095,1.1158193 44.557695,1.1487428 44.534453,1.1779916 C 44.529799,1.1838423 44.525715,1.1853999 44.520947,1.191205 C 44.516198,1.1970083 44.512304,1.2118668 44.507441,1.217632 C 44.468177,1.2637718 44.419424,1.3062454 44.372425,1.3497672 C 44.366536,1.3552095 44.364922,1.3575839 44.358919,1.3629806 C 44.349336,1.3716237 44.328279,1.380869 44.31841,1.3894076 C 44.312237,1.3947264 44.311192,1.4105546 44.304904,1.4158345 C 44.282157,1.4348512 44.247993,1.4501723 44.223897,1.4686884 C 44.219908,1.4717657 44.214494,1.4788398 44.210391,1.4819019 C 44.168382,1.5136039 44.121044,1.5441254 44.075376,1.5743971 C 44.065062,1.5812356 44.05886,1.5940597 44.048374,1.6008241 C 44.029549,1.6128522 44.00022,1.6286605 43.980863,1.6404654 C 43.822871,1.7368439 43.639534,1.822078 43.454292,1.9047357 C 43.417868,1.9208593 43.383409,1.9419456 43.346281,1.9575896 C 43.304851,1.9751493 43.266945,1.993465 43.224763,2.0104435 C 43.187028,2.0256353 43.154982,2.0353393 43.116746,2.0500848 C 43.097627,2.0574552 43.068459,2.0692478 43.049245,2.0765118 C 43.045541,2.077908 43.039443,2.0751251 43.035739,2.0765118 C 43.001119,2.0895467 42.97612,2.1034611 42.941225,2.1161522 C 42.88307,2.1372897 42.824293,2.1619938 42.765702,2.1822205 C 42.668035,2.2159504 42.566221,2.2433328 42.468661,2.2747157 C 42.410126,2.2935453 42.351156,2.309516 42.293137,2.3275696 C 42.24863,2.3414204 42.202138,2.3670058 42.158119,2.3804235 C 42.087379,2.4019904 42.024513,2.412742 41.955593,2.4332783 C 41.923015,2.4419119 41.880217,2.4511836 41.847578,2.4597045 C 41.795073,2.4734134 41.751724,2.4859311 41.699059,2.4993446 C 41.666329,2.5076838 41.623845,2.5175472 41.591045,2.5257726 C 41.538285,2.5390047 41.495447,2.5524694 41.442525,2.5654127 C 41.38531,2.5794067 41.324395,2.5913943 41.267001,2.6050539 C 41.094818,2.6460305 40.927673,2.6859338 40.753932,2.7239762 C 40.696024,2.7366574 40.636489,2.7512534 40.578409,2.7636174 C 40.486935,2.7830889 40.386745,2.7977751 40.294873,2.8164707 C 40.249084,2.8257881 40.205736,2.8469839 40.159853,2.8561118 C 40.155484,2.8569851 40.150735,2.8552414 40.146347,2.8561118 C 39.96686,2.8917475 39.787163,2.9157972 39.606276,2.9486081 C 39.547361,2.9592956 39.489814,2.9778524 39.430752,2.9882483 C 39.312628,3.0090401 39.198369,3.021452 39.079705,3.0411022 C 38.99071,3.05584 38.898956,3.079846 38.80967,3.093956 C 38.631095,3.122179 38.44925,3.1474368 38.269597,3.1732359 C 38.209703,3.181879 38.154076,3.1912819 38.094074,3.1996629 C 37.974082,3.2163421 37.849943,3.223645 37.729525,3.2393042 C 37.669309,3.247178 37.61432,3.2581063 37.554002,3.2657312 C 37.48916,3.2738804 37.41643,3.2842919 37.351475,3.2921581 C 37.243774,3.3052035 37.135425,3.319513 37.027432,3.3317995 C 37.022873,3.3323195 37.018409,3.3312803 37.013926,3.3317995 C 36.524948,3.3872852 36.035929,3.4359034 35.542231,3.4771483 C 35.419879,3.4874621 35.300246,3.4940565 35.177682,3.5035753 C 34.748753,3.5365719 34.312215,3.5718889 33.881509,3.5960705 C 33.76281,3.6027855 33.63573,3.6031749 33.51696,3.609284 C 33.455395,3.6124183 33.389518,3.6195227 33.327935,3.6224984 C 33.209138,3.6282826 33.082211,3.6304861 32.963387,3.6357119 C 32.470615,3.6571249 31.983743,3.6754216 31.491691,3.6885657 C 31.368675,3.6918805 31.250038,3.6989061 31.127144,3.7017802 C 30.876984,3.7076119 30.634015,3.7107652 30.384544,3.7149936 C 30.256331,3.71552 30.121382,3.7148982 29.992992,3.7149936 C 29.988623,3.7149965 29.983874,3.7149922 29.979486,3.7149936 C 29.917502,3.7150321 29.852481,3.7150598 29.79046,3.7149936 C 29.786091,3.7149879 29.781343,3.715 29.776954,3.7149936 C 29.515569,3.7146831 29.255746,3.7173206 28.993849,3.7149936 C 28.98948,3.7149523 28.984731,3.7150356 28.980343,3.7149936 C 28.851577,3.7137779 28.717648,3.7035344 28.588793,3.7017802 C 28.455531,3.7000136 28.31706,3.7041451 28.183739,3.7017802 C 28.050373,3.6993582 27.92559,3.6916222 27.792186,3.6885657 C 27.787722,3.6884632 27.783068,3.6886682 27.77868,3.6885657 C 27.712005,3.6870651 27.656334,3.6902279 27.589654,3.6885657 C 27.456244,3.6851845 27.318008,3.6794193 27.184602,3.6753513 C 27.051194,3.6712862 26.926421,3.6669172 26.793048,3.6621369 C 26.788584,3.6619781 26.78393,3.6622973 26.779542,3.6621369 C 26.650615,3.6575019 26.516854,3.6542536 26.387989,3.6489234 C 26.192548,3.6409547 25.989131,3.6321217 25.79391,3.6224965 C 25.789541,3.622275 25.784792,3.6227187 25.780404,3.6224965 C 25.252471,3.5963602 24.725784,3.5563854 24.200692,3.5167885 C 24.196323,3.5164524 24.191574,3.5171249 24.187186,3.5167885 C 23.794432,3.4870791 23.402818,3.4492576 23.012528,3.4110799 C 23.008159,3.4106481 23.00341,3.4115115 22.999022,3.4110799 C 22.735994,3.3852741 22.477568,3.3617459 22.215932,3.3317934 C 22.150482,3.3242616 22.092256,3.313168 22.026908,3.3053674 C 21.928939,3.2937315 21.82761,3.2911918 21.729868,3.2789395 C 21.436647,3.2421827 21.143208,3.2025508 20.852252,3.1600178 C 20.755267,3.1458393 20.651921,3.1220082 20.555211,3.1071639 C 20.426267,3.0873703 20.305592,3.0753165 20.177163,3.05431 C 20.112948,3.0438054 20.052218,3.025483 19.988137,3.0146687 C 19.952149,3.0085995 19.916057,3.0076212 19.880123,3.0014552 C 19.848105,2.9959559 19.817598,2.9938189 19.785609,2.9882417 C 19.721669,2.9771168 19.660386,2.9600434 19.596584,2.9486017 C 19.564681,2.942884 19.533936,2.9411838 19.502071,2.9353876 C 19.43834,2.9237864 19.376627,2.9076717 19.313044,2.8957474 C 19.281255,2.8897827 19.250292,2.8885765 19.218531,2.8825334 C 19.155018,2.8704467 19.092862,2.8553075 19.029507,2.8428923 C 18.776079,2.7932329 18.524262,2.7393884 18.273406,2.6843289 C 18.210691,2.6705639 18.146926,2.6587994 18.084381,2.6446886 C 18.021837,2.6305769 17.957727,2.6195095 17.895356,2.6050476 C 17.864165,2.5978197 17.831986,2.5859407 17.800843,2.5786214 C 17.718135,2.556253 17.629158,2.5357538 17.54431,2.5125532 C 17.501883,2.5009529 17.465601,2.4847564 17.422793,2.472912 C 17.337179,2.4492233 17.252834,2.4316505 17.166259,2.4068437 C 17.122968,2.3944404 17.074623,2.3799219 17.031241,2.3672033 C 16.987864,2.3544837 16.953092,2.3406206 16.909726,2.3275619 C 16.866358,2.3145042 16.817966,2.301343 16.774705,2.2879215 C 16.731481,2.2745019 16.682785,2.262091 16.639726,2.248283 C 16.57514,2.22757 16.514546,2.2038661 16.450701,2.1822147 C 16.408141,2.1677817 16.371289,2.1574546 16.329185,2.1425742 C 16.308128,2.1351373 16.282598,2.1237028 16.261683,2.1161463 C 16.219845,2.1010342 16.181417,2.0921005 16.140168,2.0765059 C 16.057679,2.0453176 15.97663,2.0040588 15.897136,1.9707972 C 15.758022,1.9125893 15.618689,1.8511647 15.492082,1.7858077 C 15.441439,1.7596648 15.391729,1.7339274 15.343562,1.7065259 C 15.340143,1.7045694 15.333466,1.708492 15.330056,1.7065259 C 15.302208,1.6905695 15.289481,1.6700702 15.262554,1.6536721 C 15.254196,1.6486477 15.243758,1.6455229 15.235552,1.6404586 C 15.145132,1.5845996 15.057518,1.5299675 14.979018,1.4686819 C 14.971895,1.4631161 14.97256,1.461074 14.965512,1.4554674 C 14.955673,1.4476032 14.948131,1.4369997 14.93851,1.4290414 C 14.931576,1.4233807 14.931766,1.4215286 14.925004,1.415828 C 14.867817,1.3678313 14.811836,1.3219764 14.762982,1.2704785 C 14.757093,1.2643808 14.755194,1.2634215 14.749476,1.257265 C 14.739437,1.2464839 14.732133,1.2285662 14.722474,1.2176246 C 14.720289,1.2151171 14.711152,1.220132 14.708968,1.2176246 C 14.684833,1.1900588 14.676542,1.1669334 14.654963,1.1383428 C 14.650024,1.1318747 14.646224,1.1316563 14.641457,1.1251284 C 14.625054,1.1029261 14.615746,1.0818949 14.600948,1.0590601 C 14.596579,1.0523736 14.591735,1.052592 14.587442,1.0458466 C 14.570374,1.0188507 14.548168,0.99446205 14.533437,0.96656483 C 14.529828,0.95959338 14.523464,0.94716823 14.519931,0.94013789 C 14.507555,0.91552885 14.503424,0.88617655 14.492928,0.86085707 C 14.488464,0.85000477 14.483621,0.84541349 14.479422,0.83443012 C 14.477428,0.82425028 14.480942,0.80488692 14.479422,0.79478875 C 14.477903,0.78469249 14.46698,0.77837734 14.465916,0.76836181 C 14.464492,0.75500777 14.46659,0.74193107 14.465916,0.72872045 C 14.465577,0.72210992 14.466073,0.72208142 14.465916,0.71550698 C 14.465764,0.70893444 14.465889,0.69561269 14.465916,0.68908004 C 14.465941,0.68254549 14.465713,0.68236503 14.465916,0.67586657 C 14.466332,0.66287155 14.464777,0.64907776 14.465916,0.6362252 C 14.466473,0.62979513 14.465187,0.62940572 14.465916,0.62301173 C 14.467056,0.61342741 14.477931,0.60608934 14.479422,0.59658479 C 14.480942,0.58708025 14.477523,0.56637009 14.479422,0.55694438 C 14.480657,0.55065677 14.477998,0.54998242 14.479422,0.54373091 C 14.480847,0.53748129 14.491342,0.52351749 14.492928,0.51730397 C 14.494543,0.51108285 14.491219,0.51027553 14.492928,0.5040905 C 14.494733,0.49790737 14.491029,0.49702406 14.492928,0.49087608 C 14.500527,0.46627368 14.509844,0.43564487 14.519931,0.4115943 C 14.522495,0.40559163 14.530749,0.40434741 14.533437,0.39838083 C 14.537426,0.38942432 14.54265,0.38083062 14.546943,0.37195389 C 14.551312,0.36307336 14.555776,0.35432485 14.560449,0.34552695 C 14.565103,0.3367319 14.568997,0.32782097 14.573955,0.31910001 C 14.575665,0.31619365 14.572245,0.30878529 14.573955,0.30588559 C 14.580793,0.29427061 14.593578,0.27772528 14.600958,0.26624517 C 14.612061,0.24905778 14.615632,0.24348632 14.62796,0.22660476 C 14.632044,0.22098201 14.637173,0.20577113 14.641466,0.20017782 C 14.645645,0.19457406 14.650679,0.19253201 14.654972,0.1869634 C 14.659341,0.18140713 14.663995,0.1792796 14.668478,0.17374993 C 14.677501,0.16267348 14.685992,0.14505299 14.695481,0.13410952 C 14.702129,0.12646371 14.715578,0.12847726 14.722483,0.1208951 C 14.732218,0.11001906 14.739275,0.10521217 14.749486,0.094468154 C 14.754614,0.089111341 14.757749,0.073367631 14.762992,0.068041212 C 14.773439,0.05736273 14.779091,0.052160733 14.789994,0.041614271 C 14.795503,0.036352437 14.797972,0.033626541 14.8035,0.02839985 C 14.814641,0.017918924 14.832431,-0.00088975679 14.844009,-0.011240562 C 14.849802,-0.016397919 14.851607,-0.01932327 14.857515,-0.024454983 C 14.8752,-0.039884312 14.892894,-0.048958601 14.91152,-0.064095391 C 14.917788,-0.069129275 14.932197,-0.07231107 14.938522,-0.077308862 C 14.963758,-0.097362716 14.979259,-0.12383715 15.006033,-0.14337717 C 15.026159,-0.15798778 15.052611,-0.16869475 15.073535,-0.18301758 C 15.094421,-0.19738599 15.1194,-0.20857451 15.141036,-0.22265799 C 15.155502,-0.23201342 15.166757,-0.23985203 15.181545,-0.24908494 C 15.257461,-0.29705215 15.327747,-0.34978323 15.411075,-0.39443397 C 15.475584,-0.42900251 15.545701,-0.4543068 15.613602,-0.48692921 C 15.66453,-0.51139579 15.70974,-0.54282147 15.762123,-0.56621099 C 15.797046,-0.58180463 15.834715,-0.59073075 15.870136,-0.6058514 C 15.88785,-0.61341172 15.906333,-0.62483579 15.924141,-0.63227834 C 15.959778,-0.64716344 15.996193,-0.65749905 16.032155,-0.67191875 C 16.050135,-0.67912766 16.068114,-0.69125172 16.08616,-0.6983457 C 16.122252,-0.71253365 16.157917,-0.72425785 16.194174,-0.73798611 C 16.230418,-0.75171532 16.265893,-0.76435321 16.30219,-0.77762747 C 16.338491,-0.79090173 16.373975,-0.80444383 16.410204,-0.81726788 C 16.446438,-0.83009194 16.482169,-0.84452969 16.518218,-0.8569083 C 16.536245,-0.86309142 16.554262,-0.86405071 16.572223,-0.87012272 C 16.608134,-0.88228002 16.644673,-0.89804558 16.680237,-0.90976408 C 16.733567,-0.92734088 16.790042,-0.94601659 16.842257,-0.96261796 C 16.861927,-0.96837369 16.87663,-0.97015929 16.896262,-0.97583143 C 16.955168,-0.99283741 17.012855,-1.012254 17.071785,-1.0286863 C 17.07568,-1.0297785 17.08135,-1.027594 17.085291,-1.0286863 C 17.159964,-1.0494648 17.239212,-1.0743445 17.314824,-1.0947546 C 14.567669,-0.77061062 12.886234,-0.23071154 12.886234,0.72871599 C 12.886234,0.91555449 12.886234,3.8584801 12.886234,4.0453196 C 12.886234,6.072049 20.372717,7.7186884 29.601457,7.7186884 C 38.830199,7.7186884 46.316681,6.072049 46.316681,4.0453196 C 46.316681,3.8584801 46.316681,0.91555516 46.316681,0.72871599 C 46.316681,-0.25145646 44.564486,-0.8047658 41.712569,-1.134395 L 41.712557,-1.1343868 z" />
                <path
                   style="fill:url(#linearGradient3461);fill-opacity:1;fill-rule:evenodd;stroke:#a7a7a7;stroke-width:0;stroke-linecap:round;stroke-linejoin:round;marker:none;stroke-miterlimit:4;stroke-dasharray:none;stroke-dashoffset:0;stroke-opacity:1;visibility:visible;display:inline;overflow:visible"
                   id="path3959"
                   d="M 41.712557,-1.1343868 C 41.729824,-1.1298088 41.749285,-1.1257912 41.766562,-1.1211724 C 41.84377,-1.1005154 41.918899,-1.0766282 41.996094,-1.055105 C 42.014633,-1.0499572 42.031578,-1.0470888 42.050099,-1.0418906 C 42.095024,-1.0292318 42.140338,-1.0152481 42.185119,-1.0022502 C 42.198264,-0.99845105 42.212492,-0.99286629 42.225627,-0.98903673 C 42.23427,-0.98651979 42.244044,-0.99157267 42.25263,-0.98903673 C 42.276261,-0.98210327 42.296577,-0.96964773 42.320131,-0.96260979 C 42.347789,-0.95431813 42.373604,-0.94462553 42.401139,-0.93618285 C 42.420239,-0.93037014 42.43611,-0.92885997 42.455144,-0.92296843 C 42.499395,-0.90921548 42.546314,-0.89749793 42.590162,-0.88332802 C 42.601778,-0.87959535 42.619083,-0.87387761 42.630671,-0.8701136 C 42.667494,-0.85806552 42.702209,-0.84283944 42.738685,-0.83047224 C 42.751744,-0.82607471 42.76619,-0.82169618 42.779193,-0.81725877 C 42.865424,-0.78757215 42.952011,-0.75642855 43.035725,-0.72476352 C 43.057894,-0.71643387 43.081268,-0.7068106 43.103227,-0.69833658 C 43.128985,-0.68834669 43.145284,-0.68210753 43.170738,-0.67190964 C 43.223204,-0.6508889 43.281691,-0.62779002 43.332762,-0.60584228 C 43.349972,-0.59850991 43.369727,-0.58685789 43.386767,-0.57941534 C 43.390661,-0.57766773 43.396331,-0.58116295 43.400273,-0.57941534 C 43.42586,-0.56803401 43.456111,-0.5514127 43.48128,-0.53977493 C 43.494834,-0.53350632 43.508359,-0.53290795 43.521789,-0.52656146 C 43.526728,-0.52423447 43.530337,-0.51568162 43.535295,-0.51334704 C 43.583582,-0.49032699 43.637276,-0.47132835 43.683816,-0.44727968 C 43.696201,-0.4408781 43.712072,-0.42732461 43.724315,-0.42085274 C 43.739977,-0.41258957 43.762877,-0.40281054 43.77832,-0.3944258 C 43.787343,-0.38952489 43.796442,-0.38615313 43.805323,-0.38121138 C 43.814726,-0.37600653 43.822998,-0.37325214 43.832325,-0.36799791 C 43.841158,-0.36301151 43.837074,-0.35981072 43.845831,-0.35478444 C 43.854664,-0.34976005 43.864105,-0.34663525 43.872843,-0.34157002 C 43.881486,-0.33649814 43.891279,-0.33346831 43.899846,-0.3283556 C 43.90431,-0.32573418 43.908964,-0.31777399 43.913352,-0.31514213 C 43.934656,-0.30229622 43.960081,-0.28863065 43.980853,-0.27550171 C 43.989686,-0.26996444 43.999137,-0.26787491 44.007856,-0.26228729 C 44.019367,-0.25486944 44.023518,-0.24336843 44.034868,-0.2358613 C 44.047832,-0.2272847 44.06264,-0.21813538 44.075376,-0.20943436 C 44.119247,-0.17960432 44.169396,-0.14824987 44.210392,-0.11693911 C 44.214096,-0.11407075 44.220222,-0.10660255 44.223898,-0.10372469 C 44.265242,-0.071779473 44.30727,-0.044778862 44.345416,-0.01122945 C 44.34817,-0.0088169844 44.342661,-0.00043889174 44.345416,0.0019840211 C 44.35707,0.012345274 44.374584,0.017892994 44.385924,0.028410963 C 44.392478,0.0345561 44.392953,0.048641478 44.39943,0.054837904 C 44.408358,0.06333852 44.417752,0.072657854 44.426433,0.081264846 C 44.429567,0.084399151 44.436824,0.078111545 44.439939,0.081264846 C 44.443168,0.084503628 44.450235,0.091226237 44.453445,0.094478317 C 44.462088,0.10334935 44.472042,0.1119269 44.480447,0.12090526 C 44.482537,0.12309927 44.478358,0.13191807 44.480447,0.13411968 C 44.483962,0.13798532 44.49042,0.14344661 44.493953,0.14733315 C 44.534623,0.19167407 44.56704,0.23241244 44.601964,0.27946881 C 44.609088,0.28905123 44.62209,0.29619935 44.628967,0.30589575 C 44.631151,0.30886859 44.626877,0.31612403 44.628967,0.31911017 C 44.631911,0.32327974 44.639605,0.32813317 44.642473,0.33232364 C 44.650641,0.34435177 44.661687,0.35975926 44.669475,0.371965 C 44.67261,0.37824311 44.67998,0.37886997 44.682981,0.38517942 C 44.68906,0.39770715 44.69115,0.41232156 44.696487,0.42481983 C 44.709613,0.45668622 44.715236,0.48486362 44.72349,0.51731413 C 44.728714,0.5361722 44.733643,0.56430306 44.736996,0.58338148 C 44.738041,0.58991604 44.736163,0.59004901 44.736996,0.5965959 C 44.738516,0.60615933 44.749486,0.61337868 44.750502,0.62302285 C 44.751832,0.63941811 44.750524,0.65945772 44.750502,0.67587673 C 44.749457,0.68642509 44.751927,0.70507611 44.750502,0.71551714 C 44.749457,0.7224506 44.738193,0.73505621 44.736996,0.74194408 C 44.735191,0.75227684 44.73918,0.75814654 44.736996,0.76837102 C 44.727451,0.81625562 44.713983,0.854913 44.696487,0.90050679 C 44.693923,0.90702234 44.699147,0.90725029 44.696487,0.91372026 C 44.692403,0.9241119 44.687464,0.92987238 44.682981,0.9401472 C 44.678802,0.94977901 44.673958,0.9570449 44.669475,0.96657414 C 44.663587,0.97932791 44.662447,0.98042777 44.655969,0.99300108 C 44.65274,0.99928869 44.645873,1.013187 44.642463,1.019428 C 44.633915,1.035034 44.624864,1.0569533 44.615461,1.0722829 C 44.613561,1.0753412 44.603911,1.0692435 44.601955,1.0722829 C 44.598156,1.07839 44.605944,1.0794253 44.601955,1.0854963 C 44.582095,1.1158193 44.557695,1.1487428 44.534453,1.1779916 C 44.529799,1.1838423 44.525715,1.1853904 44.520947,1.191205 C 44.516198,1.1970083 44.512304,1.2118668 44.507441,1.217632 C 44.468177,1.2637718 44.419424,1.3062454 44.372425,1.3497675 C 44.366536,1.3552097 44.364922,1.3575842 44.358919,1.3629809 C 44.349336,1.371624 44.328279,1.3808693 44.31841,1.3894079 C 44.312237,1.3947267 44.311192,1.4105549 44.304904,1.4158348 C 44.282157,1.4348524 44.247993,1.4501725 44.223897,1.4686896 C 44.219908,1.471767 44.214494,1.478841 44.210391,1.4819031 C 44.168382,1.5136052 44.121044,1.5441267 44.075376,1.5743974 C 44.065062,1.5812359 44.05886,1.5940599 44.048374,1.6008243 C 44.029549,1.6128525 44.00022,1.6286608 43.980863,1.6404657 C 43.822871,1.7368445 43.639534,1.8220786 43.454292,1.9047361 C 43.417868,1.9208597 43.383409,1.941946 43.346281,1.95759 C 43.304851,1.9751497 43.266945,1.9934654 43.224763,2.0104438 C 43.187028,2.0256357 43.154982,2.0353407 43.116746,2.0500843 C 43.097627,2.0574546 43.068459,2.0692482 43.049245,2.0765112 C 43.045541,2.0779074 43.039443,2.0751245 43.035739,2.0765112 C 43.001119,2.0895461 42.97612,2.1034605 42.941225,2.1161516 C 42.88307,2.1372892 42.824293,2.1619932 42.765702,2.182219 C 42.668035,2.2159498 42.566221,2.2433313 42.468661,2.2747133 C 42.410126,2.2935428 42.351156,2.3095145 42.293137,2.3275671 C 42.24863,2.341417 42.202138,2.3670024 42.158119,2.380421 C 42.087379,2.4019879 42.024513,2.4127395 41.955593,2.4332749 C 41.923015,2.4419085 41.880217,2.4511801 41.847578,2.4597019 C 41.795073,2.4734099 41.751724,2.4859286 41.699059,2.4993421 C 41.666329,2.5076812 41.623845,2.5175436 41.591045,2.5257692 C 41.538285,2.5390013 41.495447,2.5524669 41.442525,2.5654093 C 41.38531,2.5794023 41.324395,2.5913909 41.267001,2.6050495 C 41.094818,2.646026 40.927673,2.6859293 40.753932,2.7239717 C 40.696024,2.7366529 40.636489,2.751249 40.578409,2.7636128 C 40.486935,2.7830844 40.386745,2.7977706 40.294873,2.8164661 C 40.249084,2.8257836 40.205736,2.8469793 40.159853,2.8561072 C 40.155484,2.8569805 40.150735,2.8552368 40.146347,2.8561072 C 39.96686,2.8917429 39.787163,2.9157926 39.606276,2.9486035 C 39.547361,2.959291 39.489814,2.9778478 39.430752,2.9882436 C 39.312628,3.0090355 39.198369,3.0214483 39.079705,3.0410975 C 38.99071,3.0558354 38.898956,3.0798413 38.80967,3.0939514 C 38.631095,3.1221744 38.44925,3.1474321 38.269597,3.1732322 C 38.209703,3.1818753 38.154076,3.1912782 38.094074,3.1996592 C 37.974082,3.2163384 37.849943,3.2236413 37.729525,3.2393005 C 37.669309,3.2471743 37.61432,3.2581025 37.554002,3.2657275 C 37.48916,3.2738767 37.41643,3.2842882 37.351475,3.2921544 C 37.243774,3.3051998 37.135425,3.3195093 37.027432,3.3317958 C 37.022873,3.3323158 37.018409,3.3312766 37.013926,3.3317958 C 36.524948,3.3872806 36.035929,3.4358997 35.542231,3.4771446 C 35.419879,3.4874593 35.300246,3.4940528 35.177682,3.5035715 C 34.748753,3.5365682 34.312215,3.5718852 33.881509,3.5960668 C 33.76281,3.6027818 33.63573,3.6031712 33.51696,3.6092803 C 33.455395,3.6124146 33.389518,3.619519 33.327935,3.6224947 C 33.209138,3.6282789 33.082211,3.6304824 32.963387,3.6357082 C 32.470615,3.6571212 31.983743,3.6754179 31.491691,3.688562 C 31.368675,3.6918768 31.250038,3.6989024 31.127144,3.7017765 C 30.876984,3.7076082 30.634015,3.7107615 30.384544,3.7149899 C 30.256331,3.7155163 30.121382,3.7148945 29.992992,3.7149899 C 29.988623,3.7149928 29.983874,3.7149885 29.979486,3.7149899 C 29.917502,3.7150284 29.852481,3.7150561 29.79046,3.7149899 C 29.786091,3.7149842 29.781343,3.7149963 29.776954,3.7149899 C 29.515569,3.7146793 29.255746,3.7173169 28.993849,3.7149899 C 28.98948,3.7149486 28.984731,3.7150319 28.980343,3.7149899 C 28.851577,3.7137742 28.717648,3.7035307 28.588793,3.7017765 C 28.455531,3.7000098 28.31706,3.7041414 28.183739,3.7017765 C 28.050373,3.6993545 27.92559,3.6916185 27.792186,3.688562 C 27.787722,3.6884595 27.783068,3.6886645 27.77868,3.688562 C 27.712005,3.6870614 27.656334,3.6902242 27.589654,3.688562 C 27.456244,3.6851808 27.318008,3.6794156 27.184602,3.6753476 C 27.051194,3.6712825 26.926421,3.6669135 26.793048,3.6621332 C 26.788584,3.6619744 26.78393,3.6622936 26.779542,3.6621332 C 26.650615,3.6574982 26.516854,3.6542499 26.387989,3.6489197 C 26.192548,3.640951 25.989131,3.632118 25.79391,3.6224928 C 25.789541,3.6222713 25.784792,3.622715 25.780404,3.6224928 C 25.252471,3.5963565 24.725784,3.5563817 24.200692,3.5167848 C 24.196323,3.5164487 24.191574,3.5171211 24.187186,3.5167848 C 23.794432,3.4870754 23.402818,3.4492538 23.012528,3.4110762 C 23.008159,3.4106444 23.00341,3.4115078 22.999022,3.4110762 C 22.735994,3.3852714 22.477568,3.3617432 22.215932,3.3317897 C 22.150482,3.3242579 22.092256,3.3131643 22.026908,3.3053637 C 21.928939,3.2937278 21.82761,3.2911881 21.729868,3.2789358 C 21.436647,3.2421789 21.143208,3.2025471 20.852252,3.1600141 C 20.755267,3.1458356 20.651921,3.1220045 20.555211,3.1071602 C 20.426267,3.0873666 20.305592,3.0753128 20.177163,3.0543063 C 20.112948,3.0438017 20.052218,3.0254793 19.988137,3.014665 C 19.952149,3.0085958 19.916057,3.0076175 19.880123,3.0014515 C 19.848105,2.9959522 19.817598,2.9938152 19.785609,2.988238 C 19.721669,2.9771131 19.660386,2.9600397 19.596584,2.9485978 C 19.564681,2.9428801 19.533936,2.9411799 19.502071,2.9353838 C 19.43834,2.9237826 19.376627,2.9076678 19.313044,2.8957436 C 19.281255,2.889779 19.250292,2.8885727 19.218531,2.8825296 C 19.155018,2.8704429 19.092862,2.8553036 19.029507,2.8428885 C 18.776079,2.7932295 18.524262,2.739385 18.273406,2.6843254 C 18.210691,2.6705604 18.146926,2.658796 18.084381,2.6446852 C 18.021837,2.6305735 17.957727,2.6195061 17.895356,2.605044 C 17.864165,2.5978161 17.831986,2.5859372 17.800843,2.5786179 C 17.718135,2.5562494 17.629158,2.5357502 17.54431,2.5125496 C 17.501883,2.5009493 17.465601,2.4847528 17.422793,2.4729094 C 17.337179,2.4492206 17.252834,2.4316479 17.166259,2.4068411 C 17.122968,2.3944369 17.074623,2.3799193 17.031241,2.3672007 C 16.987864,2.3544811 16.953092,2.340618 16.909726,2.3275594 C 16.866358,2.3145007 16.817966,2.3013395 16.774705,2.2879189 C 16.731481,2.2745022 16.682785,2.2620913 16.639726,2.2482833 C 16.57514,2.2275712 16.514546,2.2038654 16.450701,2.182215 C 16.408141,2.167782 16.371289,2.1574549 16.329185,2.1425746 C 16.308128,2.1351377 16.282598,2.1237032 16.261683,2.1161476 C 16.219845,2.1010355 16.181417,2.0921008 16.140168,2.0765072 C 16.057679,2.045319 15.97663,2.0040601 15.897136,1.9707984 C 15.758022,1.9125915 15.618689,1.8511664 15.492082,1.785809 C 15.441439,1.7596661 15.391729,1.7339287 15.343562,1.7065272 C 15.340143,1.7045706 15.333466,1.7084932 15.330056,1.7065272 C 15.302208,1.6905698 15.289481,1.6700714 15.262554,1.6536733 C 15.254196,1.6486489 15.243758,1.6455241 15.235552,1.6404598 C 15.145132,1.5846008 15.057518,1.5299693 14.979018,1.4686835 C 14.971895,1.4631177 14.97256,1.4610757 14.965512,1.455469 C 14.955673,1.4476048 14.948131,1.4370013 14.93851,1.4290431 C 14.931576,1.4233823 14.931766,1.4215302 14.925004,1.4158286 C 14.867817,1.3678329 14.811836,1.3219771 14.762982,1.2704797 C 14.757093,1.264382 14.755194,1.2634228 14.749476,1.2572662 C 14.739437,1.2464833 14.732133,1.2285664 14.722474,1.2176258 C 14.720289,1.2151184 14.711152,1.2201333 14.708968,1.2176258 C 14.684833,1.1900601 14.676542,1.1669355 14.654963,1.138344 C 14.650024,1.131876 14.646224,1.1316575 14.641457,1.1251296 C 14.625054,1.1029273 14.615746,1.0818962 14.600948,1.0590613 C 14.596579,1.0523748 14.591735,1.0525932 14.587442,1.0458478 C 14.570374,1.018852 14.548168,0.99446328 14.533437,0.96656607 C 14.529828,0.95959461 14.523464,0.94716947 14.519931,0.94013913 C 14.507555,0.91553008 14.503424,0.88617779 14.492928,0.8608583 C 14.488464,0.85000601 14.483621,0.84541472 14.479422,0.83443136 C 14.477428,0.82425152 14.480942,0.80488816 14.479422,0.79478999 C 14.477903,0.78469373 14.46698,0.77837858 14.465916,0.76836305 C 14.464492,0.75500901 14.46659,0.74193231 14.465916,0.72872168 C 14.465577,0.72211115 14.466073,0.72208266 14.465916,0.71550821 C 14.465764,0.70893567 14.465889,0.69561392 14.465916,0.68908127 C 14.465941,0.68254672 14.465713,0.68236626 14.465916,0.6758678 C 14.466332,0.66287278 14.464777,0.64907899 14.465916,0.63622644 C 14.466473,0.62979636 14.465187,0.62940695 14.465916,0.62301297 C 14.467056,0.61342864 14.477931,0.60609057 14.479422,0.59658603 C 14.480942,0.58708148 14.477523,0.56637133 14.479422,0.55694561 C 14.480657,0.55065801 14.477998,0.54998366 14.479422,0.54373214 C 14.480847,0.53748253 14.491342,0.52351872 14.492928,0.5173052 C 14.494543,0.51108408 14.491219,0.51027676 14.492928,0.50409173 C 14.494733,0.4979086 14.491029,0.4970253 14.492928,0.49087731 C 14.500527,0.46627491 14.509844,0.4356461 14.519931,0.41159554 C 14.522495,0.40559287 14.530749,0.40434864 14.533437,0.39838207 C 14.537426,0.38942555 14.54265,0.38083186 14.546943,0.37195512 C 14.551312,0.36307459 14.555776,0.35432608 14.560449,0.34552818 C 14.565103,0.33673313 14.568997,0.32782221 14.573955,0.31910124 C 14.575665,0.31619489 14.572245,0.30878558 14.573955,0.30588682 C 14.580793,0.29427185 14.593578,0.27772651 14.600958,0.26624641 C 14.612061,0.24905902 14.615632,0.24348755 14.62796,0.226606 C 14.632044,0.22098324 14.637173,0.20577236 14.641466,0.20017905 C 14.645645,0.1945753 14.650679,0.19253325 14.654972,0.18696463 C 14.659341,0.18140837 14.663995,0.17928084 14.668478,0.17375116 C 14.677501,0.16267472 14.685992,0.14505422 14.695481,0.13411075 C 14.702129,0.12646495 14.715578,0.1284785 14.722483,0.12089633 C 14.732218,0.11001934 14.739275,0.10521341 14.749486,0.094469389 C 14.754614,0.089112576 14.757749,0.073368866 14.762992,0.068042447 C 14.773439,0.057363014 14.779091,0.052161967 14.789994,0.041615505 C 14.795503,0.036353672 14.797972,0.033627776 14.8035,0.028401085 C 14.814641,0.017920158 14.832431,-0.00088852207 14.844009,-0.011239327 C 14.849802,-0.016396684 14.851607,-0.019322036 14.857515,-0.024453748 C 14.8752,-0.039883078 14.892894,-0.048957366 14.91152,-0.064094157 C 14.917788,-0.069128041 14.932197,-0.072309835 14.938522,-0.077307627 C 14.963758,-0.097361482 14.979259,-0.12383591 15.006033,-0.14337593 C 15.026159,-0.15798654 15.052611,-0.16869352 15.073535,-0.18301634 C 15.094421,-0.19738476 15.1194,-0.20857328 15.141036,-0.22265676 C 15.155502,-0.23201218 15.166757,-0.23985079 15.181545,-0.2490837 C 15.257461,-0.29705092 15.327747,-0.34978199 15.411075,-0.39443273 C 15.475584,-0.42900127 15.545701,-0.45430556 15.613602,-0.48692798 C 15.66453,-0.51139456 15.70974,-0.54282024 15.762123,-0.56620975 C 15.797046,-0.5818034 15.834715,-0.59072952 15.870136,-0.60585017 C 15.88785,-0.61341049 15.906333,-0.62483456 15.924141,-0.63227711 C 15.959778,-0.64716221 15.996193,-0.65749782 16.032155,-0.67191752 C 16.050135,-0.67912642 16.068114,-0.69125048 16.08616,-0.69834446 C 16.122252,-0.71253242 16.157917,-0.72425662 16.194174,-0.73798487 C 16.230418,-0.75171408 16.265893,-0.76435198 16.30219,-0.77762624 C 16.338491,-0.79090049 16.373975,-0.80444259 16.410204,-0.81726665 C 16.446438,-0.83009071 16.482169,-0.84452845 16.518218,-0.85690706 C 16.536245,-0.86309019 16.554262,-0.86404948 16.572223,-0.87012148 C 16.608134,-0.88227879 16.644673,-0.89804434 16.680237,-0.90976284 C 16.733567,-0.92733965 16.790042,-0.94601536 16.842257,-0.96261673 C 16.861927,-0.96837245 16.87663,-0.97015805 16.896262,-0.9758302 C 16.955168,-0.99283618 17.012855,-1.0122527 17.071785,-1.0286841 C 17.07568,-1.0297763 17.08135,-1.0275918 17.085291,-1.0286841 C 17.159964,-1.0494626 17.239212,-1.0743424 17.314824,-1.0947524 C 14.567669,-0.77060843 12.886234,-0.23070936 12.886234,0.72871817 C 12.886234,0.91555668 12.886234,3.8584823 12.886234,4.0453218 C 12.886234,6.0720511 20.372717,7.7186909 29.601457,7.7186909 C 38.830199,7.7186909 46.316681,6.0720511 46.316681,4.0453218 C 46.316681,3.8584823 46.316681,0.91555734 46.316681,0.72871817 C 46.316681,-0.25145428 44.564486,-0.80476362 41.712569,-1.1343928 L 41.712557,-1.1343868 z" />
                <path
                   style="fill:#f0f0f0;fill-opacity:1;fill-rule:evenodd;stroke:url(#linearGradient3463);stroke-width:0.17669711;stroke-linecap:round;stroke-linejoin:round;marker:none;stroke-miterlimit:4;stroke-dasharray:none;stroke-dashoffset:0;stroke-opacity:1;visibility:visible;display:inline;overflow:visible"
                   id="path18219"
                   d="M 29.101877,-2.9314307 C 28.556167,-2.9284294 28.011538,-2.91652 27.468162,-2.9050038 C 23.40018,-2.7580567 19.224627,-2.4268276 15.519071,-1.240096 C 14.28932,-0.81202503 12.719074,-0.12290548 12.899724,0.92692727 C 13.290363,2.05981 15.111276,2.6085198 16.572212,3.0410964 C 20.972726,4.1735295 25.779989,4.4231394 30.465559,4.4020924 C 34.795115,4.3217801 39.235833,4.0311445 43.238258,2.86932 C 44.554797,2.4398407 46.220532,1.8299959 46.316669,0.74193776 C 46.316837,0.61492374 46.292022,0.48014112 46.235661,0.35874453 C 45.595437,-0.74045051 43.774658,-1.2397697 42.23913,-1.6629299 C 38.046926,-2.6661953 33.545525,-2.9558963 29.101883,-2.9314312 L 29.101877,-2.9314307 z M 28.305272,-2.3500344 C 32.603705,-2.4081159 36.987041,-2.1944756 41.050968,-1.3061633 C 42.441896,-0.95605775 44.089512,-0.53747186 44.669449,0.37195848 C 44.7205,0.47239806 44.750608,0.57078455 44.750456,0.67587039 C 44.66337,1.5760868 43.148148,2.0779388 41.955583,2.4332733 C 38.330052,3.3945207 34.306399,3.6485408 30.384544,3.7149878 C 26.140205,3.7324013 21.787007,3.5155529 17.800875,2.5786226 C 16.47751,2.2207258 14.833286,1.7717356 14.479433,0.83443278 C 14.315795,-0.034157148 15.728298,-0.60844203 16.842248,-0.96261091 C 20.198861,-1.9444659 23.985776,-2.2152422 27.670688,-2.3368202 C 27.881634,-2.3409043 28.093872,-2.3471767 28.305271,-2.3500347 L 28.305272,-2.3500344 z" />
                <path
                   style="fill:url(#linearGradient3465);fill-opacity:1;fill-rule:evenodd;stroke:none;stroke-width:0.49905977;marker:none;visibility:visible;display:inline;overflow:visible"
                   id="path7867"
                   d="M 29.101878,-2.9314307 C 28.556168,-2.9284294 28.011538,-2.91652 27.468162,-2.9050038 C 23.400181,-2.7580566 19.224627,-2.4268275 15.519072,-1.2400958 C 14.28932,-0.81202486 12.719074,-0.12290531 12.899724,0.92692746 C 13.290363,2.0598106 15.111277,2.6085203 16.572213,3.0410965 C 20.972727,4.1735298 25.77999,4.4231394 30.46556,4.4020928 C 34.795116,4.3217805 39.235835,4.0311449 43.23826,2.8693205 C 44.554799,2.4398406 46.220533,1.8299962 46.31667,0.74193791 C 46.316839,0.6149239 46.292023,0.48014137 46.235662,0.35874469 C 45.595436,-0.74045034 43.774657,-1.2397696 42.23913,-1.6629298 C 38.046925,-2.6661952 33.545524,-2.9558961 29.101882,-2.9314311 L 29.101878,-2.9314307 z M 28.305272,-2.3500344 C 32.603705,-2.4081159 36.987042,-2.1944756 41.050968,-1.3061633 C 42.441897,-0.95605767 44.089514,-0.53747178 44.669451,0.37195864 C 44.720502,0.47239811 44.75061,0.57078471 44.750458,0.67587046 C 44.663372,1.5760872 43.14815,2.0779394 41.955585,2.4332738 C 38.330056,3.394521 34.306403,3.6485409 30.384549,3.7149878 C 26.140206,3.7324013 21.787008,3.5155531 17.800875,2.5786225 C 16.47751,2.220726 14.833286,1.7717361 14.479433,0.83443297 C 14.315795,-0.034157082 15.728298,-0.60844195 16.842248,-0.96261084 C 20.198861,-1.9444659 23.985776,-2.2152422 27.670688,-2.3368202 C 27.881635,-2.3409043 28.093873,-2.3471767 28.305271,-2.3500347 L 28.305272,-2.3500344 z" />
              </g>
            </g>
          </g>
        </g>
      </g>
    </g>
  </g>
</svg>
