<?xml version="1.0" encoding="UTF-8" standalone="no"?>
<!-- Created with Inkscape (http://www.inkscape.org/) -->

<svg
   xmlns:dc="http://purl.org/dc/elements/1.1/"
   xmlns:cc="http://creativecommons.org/ns#"
   xmlns:rdf="http://www.w3.org/1999/02/22-rdf-syntax-ns#"
   xmlns:svg="http://www.w3.org/2000/svg"
   xmlns="http://www.w3.org/2000/svg"
   xmlns:xlink="http://www.w3.org/1999/xlink"
   xmlns:sodipodi="http://sodipodi.sourceforge.net/DTD/sodipodi-0.dtd"
   xmlns:inkscape="http://www.inkscape.org/namespaces/inkscape"
   width="128"
   height="128"
   id="svg5007"
   sodipodi:version="0.32"
   inkscape:version="0.47pre4 r22446"
   version="1.0"
   sodipodi:docname="clipboard.svg"
   inkscape:output_extension="org.inkscape.output.svg.inkscape"
   inkscape:export-filename="/home/immanuel/archive/prj/cream/art/creamlooks-icontheme/icons/scalable/mimetypes/text-x-generic.png"
   inkscape:export-xdpi="45"
   inkscape:export-ydpi="45">
  <defs
     id="defs5009">
    <linearGradient
       inkscape:collect="always"
       id="linearGradient3733">
      <stop
         style="stop-color:#ffffff;stop-opacity:1;"
         offset="0"
         id="stop3735" />
      <stop
         style="stop-color:#ffffff;stop-opacity:0;"
         offset="1"
         id="stop3737" />
    </linearGradient>
    <linearGradient
       id="linearGradient3666">
      <stop
         style="stop-color:#000000;stop-opacity:1;"
         offset="0"
         id="stop3668" />
      <stop
         style="stop-color:#000000;stop-opacity:0;"
         offset="1"
         id="stop3670" />
    </linearGradient>
    <linearGradient
       inkscape:collect="always"
       id="linearGradient3658">
      <stop
         style="stop-color:#ffffff;stop-opacity:1;"
         offset="0"
         id="stop3660" />
      <stop
         style="stop-color:#ffffff;stop-opacity:0;"
         offset="1"
         id="stop3662" />
    </linearGradient>
    <linearGradient
       inkscape:collect="always"
       id="linearGradient3646">
      <stop
         style="stop-color:#ffffff;stop-opacity:1;"
         offset="0"
         id="stop3648" />
      <stop
         style="stop-color:#ffffff;stop-opacity:0;"
         offset="1"
         id="stop3650" />
    </linearGradient>
    <linearGradient
       id="linearGradient3630">
      <stop
         id="stop3632"
         offset="0"
         style="stop-color:#a7a7a7;stop-opacity:1" />
      <stop
         style="stop-color:#f0f0f0;stop-opacity:1"
         offset="0.28662094"
         id="stop3634" />
      <stop
         id="stop3636"
         offset="1"
         style="stop-color:#cbcbcb;stop-opacity:1" />
    </linearGradient>
    <linearGradient
       id="linearGradient3612">
      <stop
         style="stop-color:#a7a7a7;stop-opacity:1"
         offset="0"
         id="stop3614" />
      <stop
         id="stop3620"
         offset="0.43376812"
         style="stop-color:#f0f0f0;stop-opacity:1" />
      <stop
         style="stop-color:#cbcbcb;stop-opacity:1"
         offset="1"
         id="stop3616" />
    </linearGradient>
    <linearGradient
       id="linearGradient3689">
      <stop
         id="stop3691"
         offset="0"
         style="stop-color:#ffffff;stop-opacity:1;" />
      <stop
         id="stop3693"
         offset="1"
         style="stop-color:#ffffff;stop-opacity:0;" />
    </linearGradient>
    <linearGradient
       id="linearGradient3669">
      <stop
         style="stop-color:#000000;stop-opacity:1;"
         offset="0"
         id="stop3671" />
      <stop
         style="stop-color:#787878;stop-opacity:1;"
         offset="1"
         id="stop3673" />
    </linearGradient>
    <linearGradient
       inkscape:collect="always"
       xlink:href="#linearGradient3669"
       id="linearGradient3675"
       x1="27.238329"
       y1="10.26672"
       x2="151.25914"
       y2="168.74591"
       gradientUnits="userSpaceOnUse"
       gradientTransform="matrix(1.0049815,0,0,1.0049815,-10.601271,-2.5402875)" />
    <radialGradient
       inkscape:collect="always"
       xlink:href="#linearGradient3689"
       id="radialGradient3699"
       cx="65.59375"
       cy="65.78125"
       fx="65.59375"
       fy="65.78125"
       r="41.6875"
       gradientTransform="matrix(2.5575277,0.4031488,-0.18965495,1.2031483,-89.688334,-39.807396)"
       gradientUnits="userSpaceOnUse" />
    <radialGradient
       inkscape:collect="always"
       xlink:href="#linearGradient3689"
       id="radialGradient3703"
       gradientUnits="userSpaceOnUse"
       gradientTransform="matrix(3.7016639,4.8107012,-2.1171889,1.6291021,37.565383,-275.64959)"
       cx="47.394913"
       cy="69.626129"
       fx="47.394913"
       fy="69.626129"
       r="41.6875" />
    <filter
       inkscape:collect="always"
       id="filter3723">
      <feGaussianBlur
         inkscape:collect="always"
         stdDeviation="1.3815099"
         id="feGaussianBlur3725" />
    </filter>
    <linearGradient
       inkscape:collect="always"
       xlink:href="#linearGradient3646"
       id="linearGradient3652"
       x1="68.909271"
       y1="9.65625"
       x2="68.909271"
       y2="15.848799"
       gradientUnits="userSpaceOnUse"
       gradientTransform="matrix(1.1437978,0,0,1.0497828,-19.624301,-0.69379227)" />
    <filter
       inkscape:collect="always"
       id="filter3690"
       x="-0.040782046"
       width="1.0815641"
       y="-0.1134721"
       height="1.2269442">
      <feGaussianBlur
         inkscape:collect="always"
         stdDeviation="0.84205545"
         id="feGaussianBlur3692" />
    </filter>
    <linearGradient
       inkscape:collect="always"
       xlink:href="#linearGradient3658"
       id="linearGradient3742"
       gradientUnits="userSpaceOnUse"
       x1="60.369244"
       y1="14.332584"
       x2="63.551224"
       y2="26.972118" />
    <radialGradient
       inkscape:collect="always"
       xlink:href="#linearGradient3666"
       id="radialGradient3744"
       gradientUnits="userSpaceOnUse"
       gradientTransform="matrix(1.1289944,2.7473628e-7,-8.4432715e-8,0.34696569,-8.3846364,11.070954)"
       cx="65"
       cy="25.826458"
       fx="65"
       fy="25.826458"
       r="21.31875" />
    <linearGradient
       inkscape:collect="always"
       xlink:href="#linearGradient3733"
       id="linearGradient3758"
       gradientUnits="userSpaceOnUse"
       gradientTransform="matrix(1.0054816,0,0,0.92283563,-10.633786,2.4965495)"
       x1="64.390907"
       y1="7.6915808"
       x2="64.390907"
       y2="0.20806397" />
    <linearGradient
       inkscape:collect="always"
       xlink:href="#linearGradient3612"
       id="linearGradient3760"
       gradientUnits="userSpaceOnUse"
       gradientTransform="matrix(1.1437978,0,0,1.0497828,-19.624301,-0.69379229)"
       x1="72.166054"
       y1="24.218897"
       x2="72.166054"
       y2="10.851886" />
    <linearGradient
       inkscape:collect="always"
       xlink:href="#linearGradient3630"
       id="linearGradient3762"
       gradientUnits="userSpaceOnUse"
       gradientTransform="matrix(1.1437978,0,0,1.0497828,-19.624301,-0.69379229)"
       x1="37.21875"
       y1="18.578125"
       x2="98.405746"
       y2="12.328125" />
    <linearGradient
       y2="22.451797"
       x2="25.5"
       y1="30.427322"
       x1="25.5"
       gradientUnits="userSpaceOnUse"
       id="linearGradient2796"
       xlink:href="#linearGradient3355"
       inkscape:collect="always" />
    <linearGradient
       y2="22.451797"
       x2="25.5"
       y1="30.427322"
       x1="25.5"
       gradientUnits="userSpaceOnUse"
       id="linearGradient2794"
       xlink:href="#linearGradient3355"
       inkscape:collect="always" />
    <linearGradient
       y2="22.451797"
       x2="25.5"
       y1="30.427322"
       x1="25.5"
       gradientUnits="userSpaceOnUse"
       id="linearGradient2792"
       xlink:href="#linearGradient3355"
       inkscape:collect="always" />
    <linearGradient
       y2="93.052788"
       x2="84.246452"
       y1="124.42779"
       x1="116.47054"
       gradientTransform="translate(-0.510725,0.5009)"
       gradientUnits="userSpaceOnUse"
       id="linearGradient2790"
       xlink:href="#linearGradient4293"
       inkscape:collect="always" />
    <linearGradient
       y2="116.25995"
       x2="102.77927"
       y1="104.94884"
       x1="95.454636"
       gradientTransform="translate(-0.893625,0.12857)"
       gradientUnits="userSpaceOnUse"
       id="linearGradient2788"
       xlink:href="#linearGradient3311"
       inkscape:collect="always" />
    <linearGradient
       y2="108.60571"
       x2="99.272995"
       y1="99.197289"
       x1="91.077568"
       gradientTransform="translate(-0.248662,-0.264287)"
       gradientUnits="userSpaceOnUse"
       id="linearGradient2786"
       xlink:href="#linearGradient3437"
       inkscape:collect="always" />
    <linearGradient
       y2="22.451797"
       x2="25.5"
       y1="30.427322"
       x1="25.5"
       gradientUnits="userSpaceOnUse"
       id="linearGradient2784"
       xlink:href="#linearGradient3355"
       inkscape:collect="always" />
    <linearGradient
       y2="261.26117"
       x2="-524.0368"
       y1="76.191635"
       x1="-748.75928"
       gradientTransform="translate(695.2823,-104.1509)"
       gradientUnits="userSpaceOnUse"
       id="linearGradient2782"
       xlink:href="#linearGradient3290"
       inkscape:collect="always" />
    <linearGradient
       y2="7.1500001"
       x2="31.15"
       y1="116.54688"
       x1="80.149994"
       gradientTransform="translate(-0.510725,0.5009)"
       gradientUnits="userSpaceOnUse"
       id="linearGradient2780"
       xlink:href="#linearGradient4261"
       inkscape:collect="always" />
    <linearGradient
       id="linearGradient3290">
      <stop
         style="stop-color:#f0f0f0;stop-opacity:1;"
         offset="0"
         id="stop3292" />
      <stop
         style="stop-color:#454545;stop-opacity:1;"
         offset="1"
         id="stop3294" />
    </linearGradient>
    <linearGradient
       id="linearGradient4293">
      <stop
         id="stop4295"
         offset="0"
         style="stop-color:#ffffff;stop-opacity:1;" />
      <stop
         id="stop4297"
         offset="1"
         style="stop-color:#454545;stop-opacity:1;" />
    </linearGradient>
    <linearGradient
       id="linearGradient4261">
      <stop
         style="stop-color: rgb(255, 255, 255); stop-opacity: 1;"
         offset="0"
         id="stop4263" />
      <stop
         style="stop-color: rgb(245, 245, 245); stop-opacity: 1;"
         offset="1"
         id="stop4265" />
    </linearGradient>
    <filter
       inkscape:collect="always"
       id="filter4325">
      <feGaussianBlur
         inkscape:collect="always"
         stdDeviation="1.56"
         id="feGaussianBlur4327" />
    </filter>
    <filter
       inkscape:collect="always"
       id="filter3270"
       x="-0.17145863"
       width="1.3429173"
       y="-0.18944671"
       height="1.3788934">
      <feGaussianBlur
         inkscape:collect="always"
         stdDeviation="1.9824772"
         id="feGaussianBlur3272" />
    </filter>
    <linearGradient
       id="linearGradient3311">
      <stop
         id="stop3313"
         offset="0"
         style="stop-color:#ffffff;stop-opacity:1;" />
      <stop
         id="stop3315"
         offset="1"
         style="stop-color:#454545;stop-opacity:1;" />
    </linearGradient>
    <linearGradient
       id="linearGradient3355">
      <stop
         style="stop-color:#efefef;stop-opacity:1;"
         offset="0"
         id="stop3357" />
      <stop
         style="stop-color:#000000;stop-opacity:1;"
         offset="1"
         id="stop3359" />
    </linearGradient>
    <linearGradient
       id="linearGradient3437">
      <stop
         id="stop3439"
         offset="0"
         style="stop-color:#000000;stop-opacity:1;" />
      <stop
         id="stop3441"
         offset="1"
         style="stop-color:#454545;stop-opacity:0;" />
    </linearGradient>
    <linearGradient
       inkscape:collect="always"
       xlink:href="#linearGradient3669"
       id="linearGradient3951"
       gradientUnits="userSpaceOnUse"
       gradientTransform="matrix(1.0049815,0,0,1.0049815,-10.601271,-2.5402875)"
       x1="27.238329"
       y1="10.26672"
       x2="151.25914"
       y2="168.74591" />
    <radialGradient
       inkscape:collect="always"
       xlink:href="#linearGradient3689"
       id="radialGradient3953"
       gradientUnits="userSpaceOnUse"
       gradientTransform="matrix(2.5575277,0.4031488,-0.18965495,1.2031483,-89.688334,-39.807396)"
       cx="65.59375"
       cy="65.78125"
       fx="65.59375"
       fy="65.78125"
       r="41.6875" />
    <radialGradient
       inkscape:collect="always"
       xlink:href="#linearGradient3689"
       id="radialGradient3955"
       gradientUnits="userSpaceOnUse"
       gradientTransform="matrix(3.7016639,4.8107012,-2.1171889,1.6291021,37.565383,-275.64959)"
       cx="47.394913"
       cy="69.626129"
       fx="47.394913"
       fy="69.626129"
       r="41.6875" />
    <linearGradient
       inkscape:collect="always"
       xlink:href="#linearGradient3612"
       id="linearGradient3957"
       gradientUnits="userSpaceOnUse"
       gradientTransform="matrix(1.1437978,0,0,1.0497828,-19.624301,-0.69379229)"
       x1="72.166054"
       y1="24.218897"
       x2="72.166054"
       y2="10.851886" />
    <linearGradient
       inkscape:collect="always"
       xlink:href="#linearGradient3630"
       id="linearGradient3959"
       gradientUnits="userSpaceOnUse"
       gradientTransform="matrix(1.1437978,0,0,1.0497828,-19.624301,-0.69379229)"
       x1="37.21875"
       y1="18.578125"
       x2="98.405746"
       y2="12.328125" />
    <linearGradient
       inkscape:collect="always"
       xlink:href="#linearGradient3733"
       id="linearGradient3961"
       gradientUnits="userSpaceOnUse"
       gradientTransform="matrix(1.0054816,0,0,0.92283563,-10.633786,2.4965495)"
       x1="64.390907"
       y1="7.6915808"
       x2="64.390907"
       y2="0.20806397" />
    <linearGradient
       inkscape:collect="always"
       xlink:href="#linearGradient3646"
       id="linearGradient3963"
       gradientUnits="userSpaceOnUse"
       gradientTransform="matrix(1.1437978,0,0,1.0497828,-19.624301,-0.69379227)"
       x1="68.909271"
       y1="9.65625"
       x2="68.909271"
       y2="15.848799" />
    <linearGradient
       inkscape:collect="always"
       xlink:href="#linearGradient3658"
       id="linearGradient3965"
       gradientUnits="userSpaceOnUse"
       x1="60.369244"
       y1="14.332584"
       x2="63.551224"
       y2="26.972118" />
    <radialGradient
       inkscape:collect="always"
       xlink:href="#linearGradient3666"
       id="radialGradient3967"
       gradientUnits="userSpaceOnUse"
       gradientTransform="matrix(1.1289944,2.7473628e-7,-8.4432715e-8,0.34696569,-8.3846364,11.070954)"
       cx="65"
       cy="25.826458"
       fx="65"
       fy="25.826458"
       r="21.31875" />
    <linearGradient
       inkscape:collect="always"
       xlink:href="#linearGradient4261"
       id="linearGradient3969"
       gradientUnits="userSpaceOnUse"
       gradientTransform="translate(-0.510725,0.5009)"
       x1="80.149994"
       y1="116.54688"
       x2="31.15"
       y2="7.1500001" />
    <linearGradient
       inkscape:collect="always"
       xlink:href="#linearGradient3290"
       id="linearGradient3971"
       gradientUnits="userSpaceOnUse"
       gradientTransform="translate(695.2823,-104.1509)"
       x1="-748.75928"
       y1="76.191635"
       x2="-524.0368"
       y2="261.26117" />
    <linearGradient
       inkscape:collect="always"
       xlink:href="#linearGradient3355"
       id="linearGradient3973"
       gradientUnits="userSpaceOnUse"
       x1="25.5"
       y1="30.427322"
       x2="25.5"
       y2="22.451797" />
    <linearGradient
       inkscape:collect="always"
       xlink:href="#linearGradient3437"
       id="linearGradient3975"
       gradientUnits="userSpaceOnUse"
       gradientTransform="translate(-0.248662,-0.264287)"
       x1="91.077568"
       y1="99.197289"
       x2="99.272995"
       y2="108.60571" />
    <linearGradient
       inkscape:collect="always"
       xlink:href="#linearGradient3311"
       id="linearGradient3977"
       gradientUnits="userSpaceOnUse"
       gradientTransform="translate(-0.893625,0.12857)"
       x1="95.454636"
       y1="104.94884"
       x2="102.77927"
       y2="116.25995" />
    <linearGradient
       inkscape:collect="always"
       xlink:href="#linearGradient4293"
       id="linearGradient3979"
       gradientUnits="userSpaceOnUse"
       gradientTransform="translate(-0.510725,0.5009)"
       x1="116.47054"
       y1="124.42779"
       x2="84.246452"
       y2="93.052788" />
    <linearGradient
       inkscape:collect="always"
       xlink:href="#linearGradient3355"
       id="linearGradient3981"
       gradientUnits="userSpaceOnUse"
       x1="25.5"
       y1="30.427322"
       x2="25.5"
       y2="22.451797" />
    <linearGradient
       inkscape:collect="always"
       xlink:href="#linearGradient3355"
       id="linearGradient3983"
       gradientUnits="userSpaceOnUse"
       x1="25.5"
       y1="30.427322"
       x2="25.5"
       y2="22.451797" />
    <linearGradient
       inkscape:collect="always"
       xlink:href="#linearGradient3355"
       id="linearGradient3985"
       gradientUnits="userSpaceOnUse"
       x1="25.5"
       y1="30.427322"
       x2="25.5"
       y2="22.451797" />
  </defs>
  <sodipodi:namedview
     id="base"
     pagecolor="#ffffff"
     bordercolor="#666666"
     borderopacity="1.0"
     gridtolerance="10000"
     guidetolerance="10"
     objecttolerance="10"
     inkscape:pageopacity="0.0"
     inkscape:pageshadow="2"
     inkscape:zoom="1.4142136"
     inkscape:cx="103.27163"
     inkscape:cy="39.728452"
     inkscape:document-units="px"
     inkscape:current-layer="layer1"
     showgrid="false"
     inkscape:showpageshadow="false"
     inkscape:window-width="1024"
     inkscape:window-height="721"
     inkscape:window-x="0"
     inkscape:window-y="25"
     inkscape:window-maximized="1" />
  <metadata
     id="metadata5012">
    <rdf:RDF>
      <cc:Work
         rdf:about="">
        <dc:format>image/svg+xml</dc:format>
        <dc:type
           rdf:resource="http://purl.org/dc/dcmitype/StillImage" />
      </cc:Work>
    </rdf:RDF>
  </metadata>
  <g
     inkscape:label="Layer 1"
     inkscape:groupmode="layer"
     id="layer1">
    <g
       id="g3928"
       transform="matrix(0.97230772,0,0,0.97230772,1.7759254,-1.9290268)">
      <g
         id="g3917">
        <rect
           ry="5.6568542"
           y="14.862914"
           x="24.395184"
           height="101.82338"
           width="82.377937"
           id="rect3705"
           style="fill:none;stroke:#000000;stroke-width:1.5;stroke-linecap:butt;stroke-linejoin:miter;stroke-miterlimit:4;stroke-opacity:1;stroke-dasharray:none;filter:url(#filter3723)"
           transform="matrix(1.0049815,0,0,1.0049815,-10.601271,-2.5402875)" />
        <rect
           style="fill:url(#linearGradient3951);fill-opacity:1;fill-rule:evenodd;stroke:#000000;stroke-width:1.50747216;stroke-linecap:butt;stroke-linejoin:miter;stroke-miterlimit:4;stroke-opacity:1;stroke-dasharray:none"
           id="rect2885"
           width="82.788292"
           height="102.33061"
           x="13.915436"
           y="12.396666"
           ry="5.6850338" />
        <path
           sodipodi:type="inkscape:offset"
           inkscape:radius="-1.0083841"
           inkscape:original="M 30.0625 14.875 C 26.928603 14.875 24.40625 17.397353 24.40625 20.53125 L 24.40625 111.03125 C 24.40625 114.16515 26.928603 116.6875 30.0625 116.6875 L 101.125 116.6875 C 104.2589 116.6875 106.78125 114.16515 106.78125 111.03125 L 106.78125 20.53125 C 106.78125 17.397353 104.2589 14.875 101.125 14.875 L 30.0625 14.875 z "
           style="fill:none;stroke:url(#radialGradient3953);stroke-width:0.5;stroke-linecap:butt;stroke-linejoin:miter;stroke-miterlimit:4;stroke-opacity:1;stroke-dasharray:none"
           id="path3695"
           d="m 30.0625,15.875 c -2.592824,0 -4.65625,2.063426 -4.65625,4.65625 l 0,90.5 c 0,2.59283 2.063425,4.65625 4.65625,4.65625 l 71.0625,0 c 2.59283,0 4.65625,-2.06342 4.65625,-4.65625 l 0,-90.5 c 0,-2.592825 -2.06342,-4.65625 -4.65625,-4.65625 l -71.0625,0 z"
           transform="matrix(1.0049815,0,0,1.0049815,-10.601271,-2.5402875)" />
        <path
           d="m 30.0625,14.375 c -3.410313,0 -6.15625,2.745937 -6.15625,6.15625 l 0,90.5 c 0,3.41032 2.745938,6.15625 6.15625,6.15625 l 71.0625,0 c 3.41032,0 6.15625,-2.74593 6.15625,-6.15625 l 0,-90.5 c 0,-3.410312 -2.74593,-6.15625 -6.15625,-6.15625 l -71.0625,0 z"
           id="path3701"
           style="fill:none;stroke:url(#radialGradient3955);stroke-width:0.53399998;stroke-linecap:butt;stroke-linejoin:miter;stroke-miterlimit:4;stroke-opacity:1;stroke-dasharray:none"
           inkscape:original="M 30.0625 14.875 C 26.928603 14.875 24.40625 17.397353 24.40625 20.53125 L 24.40625 111.03125 C 24.40625 114.16515 26.928603 116.6875 30.0625 116.6875 L 101.125 116.6875 C 104.2589 116.6875 106.78125 114.16515 106.78125 111.03125 L 106.78125 20.53125 C 106.78125 17.397353 104.2589 14.875 101.125 14.875 L 30.0625 14.875 z "
           inkscape:radius="0.51514912"
           sodipodi:type="inkscape:offset"
           transform="matrix(1.0049815,0,0,1.0049815,-10.601271,-2.5402875)" />
        <path
           id="path3676"
           d="m 55.686067,6.9231467 c -0.787752,0 -1.421936,0.6341909 -1.421936,1.4219526 l 0,7.0386657 -6.825294,0 c -2.853405,0 -3.96436,0.780192 -4.621293,2.275124 l -2.595034,5.830006 c 0,0.680893 0.633513,1.244208 1.421937,1.244208 l 46.710606,0 c 0.788424,0 1.421937,-0.563315 1.421937,-1.244208 l -2.275098,-5.901104 c -0.747153,-1.60268 -2.479764,-2.204026 -4.123615,-2.204026 l -7.642908,0 0,-7.0386657 c 0,-0.7877617 -0.634184,-1.4219526 -1.421936,-1.4219526 l -18.627366,0 z"
           style="fill:none;stroke:#000000;stroke-width:0.79629344;stroke-miterlimit:4;stroke-opacity:1;stroke-dasharray:none;filter:url(#filter3690)"
           transform="matrix(1.0054816,0,0,0.92283563,-10.633786,2.4965495)" />
        <path
           style="fill:url(#linearGradient3957);fill-opacity:1;stroke:url(#linearGradient3959);stroke-width:0.20099629;stroke-miterlimit:4;stroke-dasharray:none"
           d="m 51.299307,5.6879981 -0.09422,0.1256224 -2.638076,3.0777559 -3.203378,0 c -0.792071,0 -1.444661,0.5920642 -1.444661,1.3190386 l 0,6.469568 -6.846437,0 c -2.869046,0 -3.987505,0.724602 -4.648039,2.10418 l -2.606671,5.401776 c 0,0.628352 0.651915,1.130604 1.444661,1.130604 l 46.920072,0 c 0.792747,0 1.444661,-0.502252 1.444661,-1.130604 l -2.292614,-5.464587 c -0.751248,-1.47901 -2.492687,-2.041369 -4.145548,-2.041369 l -7.662984,0 0,-6.469568 c 0,-0.7269744 -0.652589,-1.3190386 -1.444661,-1.3190386 l -3.454624,0 -2.638076,-3.0777556 -0.09422,-0.1256224 -6.595191,0 z m 3.297594,1.4132552 c 0.490587,0 0.879359,0.4201778 0.879359,0.9107645 0,0.4905871 -0.388772,0.8793586 -0.879359,0.8793586 -0.490586,0 -0.879359,-0.3887715 -0.879359,-0.8793586 0,-0.4905867 0.388773,-0.9107645 0.879359,-0.9107645 z"
           id="rect2831" />
        <path
           style="fill:url(#linearGradient3961);fill-opacity:1;stroke:none"
           d="m 51.644768,6.2847059 -2.826509,3.297596 5.778642,0 5.778644,0 -2.82651,-3.297596 -5.904267,0 z m 2.952133,0.8165474 c 0.490587,0 0.879359,0.4201778 0.879359,0.9107645 0,0.4905871 -0.388772,0.8793586 -0.879359,0.8793586 -0.490586,0 -0.879359,-0.3887715 -0.879359,-0.8793586 0,-0.4905867 0.388773,-0.9107645 0.879359,-0.9107645 z"
           id="path3731" />
        <path
           style="fill:url(#linearGradient3963);fill-opacity:1;stroke:none"
           d="m 45.357714,9.4431739 c -0.457047,0 -0.822105,0.3350436 -0.822105,0.7545311 l 0,6.495531 a 0.62428134,0.57296822 0 0 1 -0.607643,0.557698 l -6.862786,0 c -1.377632,0 -2.272015,0.204697 -2.859495,0.492085 -0.587481,0.287387 -0.92107,0.664931 -1.215285,1.279423 l -1.64421,3.411795 c 20.410953,-3.830778 37.224986,-3.725982 45.501709,-3.313378 l -0.07149,-0.16403 0,-0.03281 C 76.148736,17.721595 74.692122,17.25093 73.202041,17.25093 l -7.684892,0 a 0.62428134,0.57296822 0 0 1 -0.607643,-0.557698 l 0,-6.495531 c 0,-0.4194874 -0.365058,-0.7545323 -0.822105,-0.7545323 l -18.729689,0 z"
           id="path3640" />
        <path
           sodipodi:type="inkscape:offset"
           inkscape:radius="-0.54548007"
           inkscape:original="M 56.8125 9.125 C 56.120008 9.125 55.5625 9.6825 55.5625 10.375 L 55.5625 16.5625 L 49.5625 16.5625 C 47.054149 16.5625 46.077492 17.248346 45.5 18.5625 L 43.21875 23.6875 C 43.21875 24.286055 43.775668 24.78125 44.46875 24.78125 L 85.53125 24.78125 C 86.224332 24.78125 86.78125 24.286055 86.78125 23.6875 L 84.78125 18.5 C 84.124448 17.091127 82.601315 16.5625 81.15625 16.5625 L 74.4375 16.5625 L 74.4375 10.375 C 74.4375 9.6825 73.879992 9.125 73.1875 9.125 L 56.8125 9.125 z "
           style="opacity:0.5;fill:url(#linearGradient3965);fill-opacity:1;stroke:url(#radialGradient3967);stroke-width:0.30000001;stroke-miterlimit:4;stroke-opacity:1;stroke-dasharray:none"
           id="path3656"
           d="m 56.8125,9.65625 c -0.399728,0 -0.71875,0.3190149 -0.71875,0.71875 l 0,6.1875 a 0.54553462,0.54553462 0 0 1 -0.53125,0.53125 l -6,0 c -1.20446,0 -1.986321,0.194962 -2.5,0.46875 C 46.548821,17.836288 46.257242,18.195865 46,18.78125 L 43.78125,23.75 c 0.03942,0.241545 0.289037,0.5 0.6875,0.5 l 41.0625,0 c 0.411932,0 0.662362,-0.281978 0.6875,-0.53125 l -1.9375,-5 0,-0.03125 c -0.548817,-1.14552 -1.822188,-1.59375 -3.125,-1.59375 l -6.71875,0 A 0.54553462,0.54553462 0 0 1 73.90625,16.5625 l 0,-6.1875 c 0,-0.3997351 -0.319022,-0.71875 -0.71875,-0.71875 l -16.375,0 z"
           transform="matrix(1.1437978,0,0,1.0497828,-19.624301,-0.69379227)" />
      </g>
      <g
         transform="matrix(0.7034147,0,0,0.7034147,36.295198,42.73709)"
         inkscape:label="Layer 1"
         id="layer1-9">
        <g
           id="g2769"
           transform="translate(-2.5e-6,0)">
          <path
             transform="translate(695.2823,-104.1509)"
             d="m -679.03125,111.90625 0,112.21875 63.28125,0 c -0.29046,0.24446 -0.46875,0.375 -0.46875,0.375 17.71091,-7.81052 28.74375,-21.86071 32.59375,-27.375 -0.0146,-0.0301 -0.0165,-0.0636 -0.0312,-0.0937 0,1e-5 -0.0563,0.027 -0.0625,0.0312 l 0,-85.15625 -95.3125,0 z"
             id="path3284"
             style="fill:#454545;fill-opacity:1;stroke:none;filter:url(#filter4325)"
             inkscape:original="M -679.03125 111.90625 L -679.03125 224.125 L -615.75 224.125 C -616.04046 224.36946 -616.21875 224.5 -616.21875 224.5 C -598.50784 216.68948 -587.475 202.63929 -583.625 197.125 C -583.63957 197.09485 -583.64149 197.06139 -583.65625 197.03125 C -583.65625 197.03126 -583.71251 197.05827 -583.71875 197.0625 L -583.71875 111.90625 L -679.03125 111.90625 z "
             inkscape:radius="0"
             sodipodi:type="inkscape:offset" />
          <path
             sodipodi:nodetypes="cccccc"
             id="rect4207"
             d="m 16.239275,7.7509 0,112.21875 63.28125,0 c 11.25569,-4.31128 23.787085,-15.90697 32.125005,-27 l -0.0938,-85.21875 -95.312495,0 z"
             style="fill:url(#linearGradient3969);fill-opacity:1;stroke:url(#linearGradient3971);stroke-width:0.2;stroke-miterlimit:4;stroke-opacity:1;stroke-dasharray:none" />
          <path
             transform="matrix(1.22499,0,0,1.22499,-6.124615,-5.771153)"
             sodipodi:type="arc"
             style="fill:url(#linearGradient3973);fill-opacity:1;stroke:#ffffff;stroke-width:0.65306699;stroke-linecap:round;stroke-linejoin:round;stroke-miterlimit:4;stroke-opacity:1;stroke-dasharray:none"
             id="path2594"
             sodipodi:cx="26"
             sodipodi:cy="26.75"
             sodipodi:rx="2.5"
             sodipodi:ry="2.5"
             d="m 28.5,26.75 c 0,1.380712 -1.119288,2.5 -2.5,2.5 -1.380712,0 -2.5,-1.119288 -2.5,-2.5 0,-1.380712 1.119288,-2.5 2.5,-2.5 1.380712,0 2.5,1.119288 2.5,2.5 z" />
          <path
             sodipodi:nodetypes="csccc"
             id="path3212"
             d="m 106.78858,94.536188 c -2.88182,1.005982 -6.5073,1.020993 -14.72608,3.057562 -0.325607,0.08167 -0.592657,0.313888 -0.71875,0.625 -4.122796,10.04788 -4.237355,14.99637 -6.274304,17.69682 -6.232809,13.89081 43.306024,-29.192431 21.719134,-21.379382 z"
             style="fill:url(#linearGradient3975);fill-opacity:1;fill-rule:evenodd;stroke:none;filter:url(#filter3270)"
             transform="matrix(1.0131647,0,0,1.0121785,-2.184645,-1.18064)" />
          <path
             sodipodi:nodetypes="cccc"
             id="path2592"
             d="m 91.294195,98.24632 c -2.14567,14.76668 -11.67187,21.75 -11.67187,21.75 14.48473,-5.24727 28.335285,-21.43348 32.138405,-27.01027 -6.05971,3.70028 -13.341535,4.714 -20.466535,5.26027 z"
             style="fill:url(#linearGradient3977);fill-opacity:1;fill-rule:evenodd;stroke:none" />
          <path
             style="fill:none;stroke:url(#linearGradient3979);stroke-width:0.2;stroke-linecap:butt;stroke-linejoin:miter;stroke-miterlimit:4;stroke-opacity:1;stroke-dasharray:none"
             d="m 91.294195,98.24632 c -2.14567,14.76668 -11.67187,21.75 -11.67187,21.75 14.48473,-5.24727 28.335285,-21.43348 32.138405,-27.01027 -6.05971,3.70028 -13.341535,4.714 -20.466535,5.26027 z"
             id="path4283"
             sodipodi:nodetypes="cccc" />
          <path
             d="m 28.5,26.75 c 0,1.380712 -1.119288,2.5 -2.5,2.5 -1.380712,0 -2.5,-1.119288 -2.5,-2.5 0,-1.380712 1.119288,-2.5 2.5,-2.5 1.380712,0 2.5,1.119288 2.5,2.5 z"
             sodipodi:ry="2.5"
             sodipodi:rx="2.5"
             sodipodi:cy="26.75"
             sodipodi:cx="26"
             id="path3298"
             style="fill:url(#linearGradient3981);fill-opacity:1;stroke:#ffffff;stroke-width:0.65306699;stroke-linecap:round;stroke-linejoin:round;stroke-miterlimit:4;stroke-opacity:1;stroke-dasharray:none"
             sodipodi:type="arc"
             transform="matrix(1.22499,0,0,1.22499,-6.124615,18.2527)" />
          <path
             transform="matrix(1.22499,0,0,1.22499,-6.124615,44.1301)"
             sodipodi:type="arc"
             style="fill:url(#linearGradient3983);fill-opacity:1;stroke:#ffffff;stroke-width:0.65306699;stroke-linecap:round;stroke-linejoin:round;stroke-miterlimit:4;stroke-opacity:1;stroke-dasharray:none"
             id="path3302"
             sodipodi:cx="26"
             sodipodi:cy="26.75"
             sodipodi:rx="2.5"
             sodipodi:ry="2.5"
             d="m 28.5,26.75 c 0,1.380712 -1.119288,2.5 -2.5,2.5 -1.380712,0 -2.5,-1.119288 -2.5,-2.5 0,-1.380712 1.119288,-2.5 2.5,-2.5 1.380712,0 2.5,1.119288 2.5,2.5 z" />
          <path
             d="m 28.5,26.75 c 0,1.380712 -1.119288,2.5 -2.5,2.5 -1.380712,0 -2.5,-1.119288 -2.5,-2.5 0,-1.380712 1.119288,-2.5 2.5,-2.5 1.380712,0 2.5,1.119288 2.5,2.5 z"
             sodipodi:ry="2.5"
             sodipodi:rx="2.5"
             sodipodi:cy="26.75"
             sodipodi:cx="26"
             id="path3306"
             style="fill:url(#linearGradient3985);fill-opacity:1;stroke:#ffffff;stroke-width:0.65306699;stroke-linecap:round;stroke-linejoin:round;stroke-miterlimit:4;stroke-opacity:1;stroke-dasharray:none"
             sodipodi:type="arc"
             transform="matrix(1.22499,0,0,1.22499,-6.124615,69.0253)" />
        </g>
      </g>
    </g>
  </g>
</svg>
