<?xml version="1.0" encoding="UTF-8" standalone="no"?>
<!-- Created with Inkscape (http://www.inkscape.org/) -->
<svg
   xmlns:dc="http://purl.org/dc/elements/1.1/"
   xmlns:cc="http://creativecommons.org/ns#"
   xmlns:rdf="http://www.w3.org/1999/02/22-rdf-syntax-ns#"
   xmlns:svg="http://www.w3.org/2000/svg"
   xmlns="http://www.w3.org/2000/svg"
   xmlns:xlink="http://www.w3.org/1999/xlink"
   xmlns:sodipodi="http://sodipodi.sourceforge.net/DTD/sodipodi-0.dtd"
   xmlns:inkscape="http://www.inkscape.org/namespaces/inkscape"
   width="128"
   height="128"
   id="svg5007"
   sodipodi:version="0.32"
   inkscape:version="0.46"
   version="1.0"
   sodipodi:docname="module.svg"
   inkscape:output_extension="org.inkscape.output.svg.inkscape"
   inkscape:export-filename="/home/immanuel/archive/prj/cream/art/creamlooks-icontheme/icons/scalable/mimetypes/text-x-generic.png"
   inkscape:export-xdpi="45"
   inkscape:export-ydpi="45">
  <defs
     id="defs5009">
    <linearGradient
       id="linearGradient3478">
      <stop
         id="stop3480"
         offset="0"
         style="stop-color:#ffffff;stop-opacity:0;" />
      <stop
         id="stop3484"
         offset="1"
         style="stop-color:#ffffff;stop-opacity:1;" />
    </linearGradient>
    <linearGradient
       id="linearGradient4508-0">
      <stop
         style="stop-color:#ffd77f;stop-opacity:1;"
         offset="0"
         id="stop4510-5" />
      <stop
         id="stop4512-9"
         offset="0.46089751"
         style="stop-color:#e39f0d;stop-opacity:1;" />
      <stop
         style="stop-color:#e3300d;stop-opacity:1;"
         offset="1"
         id="stop4514-4" />
    </linearGradient>
    <linearGradient
       id="linearGradient4492-9">
      <stop
         style="stop-color:#ffd77f;stop-opacity:1;"
         offset="0"
         id="stop4494-2" />
      <stop
         id="stop4496-5"
         offset="0.3191874"
         style="stop-color:#e39f0d;stop-opacity:1;" />
      <stop
         style="stop-color:#e3300d;stop-opacity:1;"
         offset="1"
         id="stop4498-4" />
    </linearGradient>
    <linearGradient
       id="linearGradient3100">
      <stop
         id="stop3102"
         offset="0"
         style="stop-color: rgb(0, 0, 0); stop-opacity: 1;" />
      <stop
         id="stop3104"
         offset="1"
         style="stop-color:#a7a7a7;stop-opacity:1;" />
    </linearGradient>
    <linearGradient
       inkscape:collect="always"
       xlink:href="#linearGradient3100"
       id="linearGradient3431"
       gradientUnits="userSpaceOnUse"
       gradientTransform="matrix(0.4226011,0.1558327,-0.1558327,0.4226011,50.485439,-158.87692)"
       x1="454.06854"
       y1="447.00677"
       x2="308.88397"
       y2="498.68063" />
    <linearGradient
       inkscape:collect="always"
       xlink:href="#linearGradient3100"
       id="linearGradient3434"
       gradientUnits="userSpaceOnUse"
       gradientTransform="matrix(0.3854613,0.1421376,-0.1421376,0.3854613,55.244125,-136.79031)"
       x1="471.55292"
       y1="548.59363"
       x2="299.84491"
       y2="574.50616" />
    <linearGradient
       inkscape:collect="always"
       xlink:href="#linearGradient3100"
       id="linearGradient3437"
       gradientUnits="userSpaceOnUse"
       gradientTransform="matrix(0.4459836,0.164455,-0.164455,0.4459836,32.947308,-167.82591)"
       x1="472.04648"
       y1="334.85214"
       x2="414.38635"
       y2="388.33575" />
    <linearGradient
       inkscape:collect="always"
       xlink:href="#linearGradient3100"
       id="linearGradient3440"
       gradientUnits="userSpaceOnUse"
       gradientTransform="matrix(0.4226011,0.1558327,-0.1558327,0.4226011,50.869386,-135.97502)"
       x1="196.59277"
       y1="379.65738"
       x2="146.23192"
       y2="292.48178" />
    <linearGradient
       inkscape:collect="always"
       xlink:href="#linearGradient3100"
       id="linearGradient3443"
       gradientUnits="userSpaceOnUse"
       gradientTransform="matrix(0.4867979,0.1795051,-0.1795051,0.4867979,36.015365,-162.08226)"
       x1="273.54736"
       y1="304.32083"
       x2="240.68657"
       y2="196.53674" />
    <linearGradient
       inkscape:collect="always"
       xlink:href="#linearGradient4508-0"
       id="linearGradient3448"
       gradientUnits="userSpaceOnUse"
       gradientTransform="matrix(0.3700738,0.128352,-0.128352,0.3700738,50.843644,-119.15406)"
       x1="212.59372"
       y1="-28.914648"
       x2="323.94492"
       y2="658.89813" />
    <linearGradient
       inkscape:collect="always"
       xlink:href="#linearGradient3100"
       id="linearGradient3454"
       gradientUnits="userSpaceOnUse"
       gradientTransform="matrix(0.3779623,0.1393724,-0.1393724,0.3779623,56.077766,-127.80487)"
       x1="-79.718628"
       y1="400.38943"
       x2="255.58736"
       y2="624.76617" />
    <linearGradient
       inkscape:collect="always"
       xlink:href="#linearGradient3100"
       id="linearGradient3458"
       gradientUnits="userSpaceOnUse"
       gradientTransform="matrix(0.3575498,0.1599594,-0.1599594,0.3575498,66.766248,-123.8018)"
       x1="398.36462"
       y1="-148.43602"
       x2="720.08307"
       y2="598.41968" />
    <filter
       inkscape:collect="always"
       id="filter3472">
      <feGaussianBlur
         inkscape:collect="always"
         stdDeviation="3.2473016"
         id="feGaussianBlur3474" />
    </filter>
    <linearGradient
       inkscape:collect="always"
       xlink:href="#linearGradient3478"
       id="linearGradient3490"
       gradientUnits="userSpaceOnUse"
       gradientTransform="matrix(0.3575498,0.1599594,-0.1599594,0.3575498,66.766248,-123.8018)"
       x1="472.58856"
       y1="477.72369"
       x2="3.2207794"
       y2="265.15656" />
    <linearGradient
       inkscape:collect="always"
       xlink:href="#linearGradient3478"
       id="linearGradient3494"
       gradientUnits="userSpaceOnUse"
       gradientTransform="matrix(0.3575498,0.1599594,-0.1599594,0.3575498,66.766248,-123.8018)"
       x1="232.94798"
       y1="74.884209"
       x2="854.63513"
       y2="471.72296" />
    <radialGradient
       inkscape:collect="always"
       xlink:href="#linearGradient4492-9"
       id="radialGradient3496"
       cx="106.67202"
       cy="38.209103"
       fx="106.67202"
       fy="38.209103"
       r="81.596375"
       gradientTransform="matrix(2.2414315,-0.3975276,0.4474591,2.5229664,-166.42879,-35.740402)"
       gradientUnits="userSpaceOnUse" />
  </defs>
  <sodipodi:namedview
     id="base"
     pagecolor="#ffffff"
     bordercolor="#666666"
     borderopacity="1.0"
     gridtolerance="10000"
     guidetolerance="10"
     objecttolerance="10"
     inkscape:pageopacity="0.0"
     inkscape:pageshadow="2"
     inkscape:zoom="0.70710678"
     inkscape:cx="-6.2820523"
     inkscape:cy="60.93929"
     inkscape:document-units="px"
     inkscape:current-layer="g3031"
     showgrid="false"
     inkscape:showpageshadow="false"
     inkscape:window-width="1440"
     inkscape:window-height="838"
     inkscape:window-x="-8"
     inkscape:window-y="-8"
     inkscape:window-maximized="1" />
  <metadata
     id="metadata5012">
    <rdf:RDF>
      <cc:Work
         rdf:about="">
        <dc:format>image/svg+xml</dc:format>
        <dc:type
           rdf:resource="http://purl.org/dc/dcmitype/StillImage" />
      </cc:Work>
    </rdf:RDF>
  </metadata>
  <g
     inkscape:label="Layer 1"
     inkscape:groupmode="layer"
     id="layer1">
    <g
       id="g2769"
       transform="matrix(0.99299525,0,0,0.99299525,12.922827,0.44830377)" />
    <g
       id="g3230">
      <g
         transform="matrix(0.62366247,0,0,0.62366247,-3.4752612,23.795008)"
         id="g3031">
        <g
           id="g3498"
           transform="matrix(1.0767085,0,0,1.0767085,-11.721426,0.5243826)">
          <path
             transform="matrix(0.9962332,-8.67148e-2,8.67148e-2,0.9962332,-4.9356594,9.9710228)"
             id="path3456"
             style="fill:url(#linearGradient3458);fill-opacity:1;fill-rule:evenodd;stroke:none;stroke-width:1.95849991;stroke-linecap:butt;stroke-linejoin:round;stroke-miterlimit:4;stroke-dasharray:none;stroke-opacity:1;filter:url(#filter3472)"
             d="M 87.439586,-10.086727 C 87.439586,-10.086727 122.41121,17.07394 127.47209,10.212193 C 132.42971,3.4904535 124.13632,-1.1815239 127.3005,-10.173779 C 130.35744,-18.86122 140.94291,-24.148269 152.97221,-18.599843 C 164.93844,-13.080501 168.40346,-2.5040158 165.15298,6.0968365 C 160.83303,17.527515 151.40278,13.286163 151.58358,20.999108 C 151.77853,29.316202 191.94968,36.832748 194.09299,44.66272 C 196.47382,53.360394 187.65089,70.485681 178.27938,76.74636 C 168.90788,83.00703 170.20684,68.754467 161.10389,67.07134 C 152.00095,65.388212 147.83307,71.111877 144.6568,79.546832 C 141.48053,87.981782 142.53324,93.375202 150.18886,98.293471 C 157.84448,103.21174 168.99734,89.186274 168.77899,97.982157 C 168.56063,106.77804 155.50776,136.84464 145.60435,141.77225 C 136.51251,146.29605 100.26049,131.63532 102.02378,123.46999 C 104.03654,114.14947 111.60701,121.18667 114.44928,113.49829 C 117.29155,105.80991 111.56368,97.186653 102.91263,91.823056 C 94.261584,86.459458 86.42022,86.025509 79.845092,92.043895 C 73.269963,98.062277 83.420686,106.45293 77.691094,112.58411 C 71.641912,119.05728 33.671043,92.890571 33.671043,92.890571 C 33.671043,92.890571 61.16865,57.35671 54.473534,48.171978 C 48.407138,39.849753 42.927824,50.539685 36.634391,43.244181 C 30.340954,35.948674 33.766189,27.451444 39.293509,19.769632 C 44.820819,12.087824 54.660678,10.160787 60.402698,13.259156 C 65.080774,15.783419 69.041993,34.745394 74.091222,30.135011 C 79.140446,25.524628 87.439586,-10.086727 87.439586,-10.086727 z"
             sodipodi:nodetypes="cssssssssssssssssscsssssc" />
          <path
             sodipodi:nodetypes="cscscsc"
             id="path2563"
             style="fill:url(#linearGradient3431);fill-opacity:1;fill-rule:evenodd;stroke:none;stroke-width:1px;stroke-linecap:butt;stroke-linejoin:miter;stroke-opacity:1"
             d="M 101.83601,77.95471 C 95.410155,75.778342 82.838338,79.11002 77.696056,84.496757 C 76.886393,85.344906 80.052564,93.510083 79.693433,94.391383 C 85.265768,91.783675 92.932028,89.321701 100.82483,93.507311 C 110.77849,98.785805 118.72886,106.46721 116.99516,115.07148 C 119.99634,118.61323 131.62923,107.38132 132.87264,103.16404 C 135.53819,94.123118 104.25434,78.773776 101.83601,77.95471 z" />
          <path
             sodipodi:nodetypes="ccsccc"
             id="path2557"
             style="fill:url(#linearGradient3434);fill-opacity:1;fill-rule:evenodd;stroke:none;stroke-width:1px;stroke-linecap:butt;stroke-linejoin:miter;stroke-opacity:1"
             d="M 117.53175,116.25066 L 112.42347,117.6088 C 110.38685,117.65137 104.94698,119.89554 104.35777,124.826 C 103.06184,135.67035 142.45325,148.72619 151.61396,140.46518 L 158.36902,134.05994 C 148.01831,138.45049 121.02869,117.19517 117.53175,116.25066 z" />
          <path
             sodipodi:nodetypes="cscsccc"
             id="path2555"
             style="fill:url(#linearGradient3437);fill-opacity:1;fill-rule:evenodd;stroke:none;stroke-width:1px;stroke-linecap:butt;stroke-linejoin:miter;stroke-opacity:1"
             d="M 164.7366,55.984298 C 164.12396,55.788086 163.46373,55.655257 162.76627,55.574381 C 155.60522,54.744004 146.1195,56.48078 143.73767,61.441782 C 145.34822,61.003461 146.87505,73.55467 148.50574,71.943797 C 167.65969,53.022673 166.5528,83.909197 178.01751,72.554395 L 184.69472,65.557595 C 178.74667,56.639705 173.45697,58.777148 164.7366,55.984298 z" />
          <path
             sodipodi:nodetypes="csccc"
             id="path2551"
             style="fill:url(#linearGradient3443);fill-opacity:1;fill-rule:evenodd;stroke:none;stroke-width:1px;stroke-linecap:butt;stroke-linejoin:miter;stroke-opacity:1"
             d="M 130.05932,-22.810396 C 122.12318,-19.006128 118.73449,-12.463067 118.30055,-9.9438818 C 116.63438,-0.27090988 123.06609,4.5156151 122.0964,11.207931 C 125.02175,11.609728 133.10777,18.386515 134.11373,16.810473 L 130.05932,-22.810396 z" />
          <path
             sodipodi:nodetypes="ccscc"
             id="path2553"
             style="fill:url(#linearGradient3440);fill-opacity:0.75;fill-rule:evenodd;stroke:none;stroke-width:1px;stroke-linecap:butt;stroke-linejoin:miter;stroke-opacity:1"
             d="M 77.831972,-5.0439209 C 78.400876,-5.0934398 73.05442,27.978764 66.468033,39.085723 C 67.746904,40.048341 69.964012,41.354569 71.195592,40.067594 C 74.941227,36.153457 79.050032,4.1642053 81.409376,-8.4678174 L 77.831972,-5.0439209 z" />
          <path
             style="fill:url(#linearGradient3454);fill-opacity:1;fill-rule:evenodd;stroke:none;stroke-width:1px;stroke-linecap:butt;stroke-linejoin:miter;stroke-opacity:1"
             d="M 51.835984,17.028229 L 37.36224,23.518918 C 29.934136,31.471795 24.832559,42.605795 32.617914,50.48853 C 40.403266,58.371265 46.402673,48.892226 50.165967,56.203823 C 54.633387,64.883441 37.05639,93.797472 32.264146,101.31898 C 44.685116,107.78597 75.29945,121.79712 79.000542,118.7779 L 83.555863,115.06181 C 73.923196,114.47279 51.467313,103.34833 41.922164,99.019716 C 48.880807,91.885302 84.062489,57.261234 76.535468,48.275322 C 68.931085,39.197056 51.283629,17.76888 51.835984,17.028229 z"
             id="path2561"
             sodipodi:nodetypes="ccsscsccsc" />
          <path
             sodipodi:nodetypes="cssssssssssssssssscsssssc"
             d="M 81.299891,-7.6600156 C 81.299891,-7.6600156 118.49501,16.365785 122.94181,9.0910316 C 127.29789,1.9647126 118.63061,-1.9705066 121.00311,-11.203271 C 123.2952,-20.12307 133.38233,-26.30812 145.84745,-21.823712 C 158.24721,-17.36281 162.61632,-7.1266331 160.1239,1.7236861 C 156.81144,13.485911 147.04892,10.078277 147.89787,17.746491 C 148.8133,26.015351 189.48492,30.02015 192.29914,37.634772 C 195.42521,46.09323 188.12053,63.919087 179.32722,70.968832 C 170.53391,78.018567 170.59207,63.707052 161.37746,62.819625 C 152.16286,61.932197 148.507,67.995719 146.07413,76.674331 C 143.64126,85.352937 145.1577,90.634756 153.21096,94.870643 C 161.26423,99.10653 171.15887,84.166777 171.70407,92.948462 C 172.24927,101.73015 161.85279,132.81537 152.41398,138.58319 C 143.74866,143.87835 106.3619,132.41643 107.41049,124.12895 C 108.60744,114.669 116.75962,121.02322 118.92449,113.11734 C 121.08936,105.21145 114.6353,97.117369 105.55173,92.52415 C 96.468174,87.930929 88.618708,88.178577 82.590238,94.744454 C 76.561759,101.31033 87.401838,108.78916 82.225495,115.39408 C 76.760418,122.36742 36.663538,99.591914 36.663538,99.591914 C 36.663538,99.591914 60.976255,61.807453 53.509906,53.237884 C 46.744701,45.473054 42.213002,56.597856 35.310647,49.875567 C 28.408288,43.153275 31.083785,34.391034 35.924158,26.258857 C 40.764521,18.126686 50.400212,15.353646 56.389277,17.942426 C 61.268623,20.051522 66.859205,38.598574 71.489626,33.567715 C 76.120042,28.536856 81.299891,-7.6600156 81.299891,-7.6600156 z"
             style="fill:url(#radialGradient3496);fill-opacity:1;fill-rule:evenodd;stroke:url(#linearGradient3448);stroke-width:1.95849991;stroke-linecap:butt;stroke-linejoin:round;stroke-miterlimit:4;stroke-dasharray:none;stroke-opacity:1"
             id="path1308" />
          <path
             transform="matrix(0.9962332,-8.67148e-2,8.67148e-2,0.9962332,-4.9356593,9.9710228)"
             d="M 144.1875,-18.78125 C 136.82046,-19.182656 131.23639,-15.145067 129.25,-9.5 C 127.89288,-5.6432256 128.96075,-2.9668074 130.03125,0.21875 C 130.5665,1.8115287 131.11907,3.4809612 131.15625,5.40625 C 131.19343,7.3315388 130.59598,9.4430927 129.125,11.4375 C 127.96085,13.015907 125.97008,13.483731 124.15625,13.375 C 122.34242,13.266269 120.42304,12.712121 118.3125,11.875 C 114.09143,10.200758 109.18094,7.3782752 104.4375,4.375 C 97.072014,-0.28840523 91.395127,-4.5174018 88.65625,-6.59375 C 88.117598,-4.3290412 86.931635,0.87010699 84.65625,8.84375 C 83.295239,13.613147 81.770802,18.549563 80.25,22.625 C 78.729198,26.700437 77.533529,29.799459 75.5,31.65625 C 74.558303,32.516101 73.221729,33.04641 71.96875,32.875 C 70.715771,32.70359 69.761444,32.020877 69,31.25 C 67.477111,29.708246 66.379569,27.574998 65.25,25.28125 C 64.120431,22.987502 63.05073,20.547757 62,18.59375 C 60.94927,16.639743 59.76153,15.237345 59.4375,15.0625 C 54.885416,12.606215 45.911756,14.130252 40.96875,21 C 38.297962,24.711833 36.230885,28.548263 35.5625,32.0625 C 34.894115,35.576737 35.421361,38.699673 38.1875,41.90625 C 39.500636,43.42847 40.43683,43.771382 41.4375,43.875 C 42.43817,43.978618 43.640737,43.677891 45.125,43.3125 C 46.609263,42.947109 48.399788,42.51875 50.40625,42.90625 C 52.412712,43.29375 54.42811,44.59799 56.15625,46.96875 C 58.601215,50.322888 57.72001,54.896744 56,59.75 C 54.27999,64.603256 51.403591,69.953252 48.34375,75.03125 C 43.18962,83.584852 38.305359,90.129075 36.625,92.34375 C 38.858003,93.857904 45.779253,98.514398 54.40625,103.34375 C 59.476985,106.18232 64.737785,108.81022 68.9375,110.28125 C 71.037358,111.01676 72.887116,111.45352 74.1875,111.53125 C 75.487884,111.60898 76.037847,111.34764 76.1875,111.1875 C 77.250613,110.04987 77.4711,109.05228 77.4375,107.6875 C 77.4039,106.32272 76.973055,104.64083 76.46875,102.8125 C 75.964445,100.98417 75.390487,99.003071 75.46875,96.84375 C 75.547013,94.684429 76.421003,92.345752 78.4375,90.5 C 82.045467,87.197531 86.25512,85.56302 90.625,85.59375 C 94.99488,85.62448 99.457984,87.246474 104,90.0625 C 108.57458,92.898712 112.40669,96.57676 114.78125,100.75 C 117.15581,104.92324 118.04014,109.71452 116.375,114.21875 C 115.52547,116.51673 114.07499,118.06004 112.5,118.84375 C 110.92501,119.62746 109.40738,119.73183 108.21875,119.90625 C 107.03012,120.08067 106.22725,120.29365 105.65625,120.71875 C 105.08525,121.14385 104.49799,121.88964 104.0625,123.90625 C 104.00992,124.14971 104.07334,124.69165 104.71875,125.59375 C 105.36416,126.49585 106.52572,127.60456 108.0625,128.75 C 111.13606,131.04088 115.66117,133.45573 120.53125,135.46875 C 125.40133,137.48177 130.6352,139.10599 135.09375,139.9375 C 139.5523,140.76901 143.27353,140.6255 144.65625,139.9375 C 146.54256,138.99894 149.16253,136.39246 151.6875,132.875 C 154.21247,129.35754 156.7413,124.94685 158.96875,120.40625 C 161.1962,115.86565 163.12307,111.193 164.5,107.15625 C 165.87693,103.1195 166.67614,99.622611 166.71875,97.90625 C 166.73223,97.363385 166.69294,97.381638 166.65625,97.21875 C 166.21206,97.327161 164.99948,97.733211 163.34375,98.53125 C 161.48576,99.426773 159.25387,100.53391 156.8125,101.09375 C 154.37113,101.65359 151.54507,101.62615 149.0625,100.03125 C 144.98135,97.409359 142.36283,94.404583 141.375,90.78125 C 140.38717,87.157917 141.05277,83.236707 142.71875,78.8125 C 144.35751,74.460591 146.27363,70.593167 149.28125,67.9375 C 152.28887,65.281833 156.44995,64.103276 161.46875,65.03125 C 167.06523,66.066034 169.44747,70.940531 171.3125,73.75 C 172.24501,75.154734 173.04618,75.947426 173.625,76.15625 C 174.20382,76.365074 175.06578,76.406919 177.125,75.03125 C 181.335,72.218743 185.80082,66.581142 188.75,60.6875 C 191.69918,54.793858 193.02094,48.574728 192.09375,45.1875 C 192.03198,44.961845 191.56004,44.242274 190.4375,43.40625 C 189.31496,42.570226 187.65328,41.622194 185.6875,40.6875 C 181.75594,38.818111 176.54971,36.888489 171.375,34.9375 C 166.20029,32.986511 161.06456,31.025229 157.0625,28.9375 C 155.06147,27.893636 153.34044,26.840574 152,25.625 C 150.65956,24.409426 149.57504,22.930569 149.53125,21.0625 C 149.47628,18.717647 150.31528,16.725475 151.625,15.5 C 152.93472,14.274525 154.41236,13.712374 155.8125,13.0625 C 158.61278,11.762753 161.26459,10.545752 163.21875,5.375 C 166.09879,-2.2456581 163.28595,-11.556425 152.09375,-16.71875 C 149.30335,-18.005806 146.64016,-18.647613 144.1875,-18.78125 z"
             id="path3488"
             style="fill:none;fill-opacity:1;fill-rule:evenodd;stroke:url(#linearGradient3490);stroke-width:1.95849991;stroke-linecap:butt;stroke-linejoin:round;stroke-miterlimit:4;stroke-dasharray:none;stroke-opacity:1"
             inkscape:original="M 144.3125 -20.84375 C 136.11718 -21.290286 129.60521 -16.703081 127.3125 -10.1875 C 124.14832 -1.1952449 132.42637 3.497011 127.46875 10.21875 C 122.40787 17.080497 87.437498 -10.09375 87.4375 -10.09375 C 87.4375 -10.09375 79.142971 25.514616 74.09375 30.125 C 69.044521 34.735383 65.084325 15.774263 60.40625 13.25 C 54.66423 10.151631 44.808559 12.099442 39.28125 19.78125 C 33.75393 27.463062 30.331562 35.954491 36.625 43.25 C 42.918433 50.545504 48.402354 39.865275 54.46875 48.1875 C 61.163866 57.372232 33.65625 92.874999 33.65625 92.875 C 33.65625 92.875 71.638319 119.06692 77.6875 112.59375 C 83.417092 106.46257 73.26862 98.049635 79.84375 92.03125 C 86.418873 86.012864 94.255206 86.448899 102.90625 91.8125 C 111.5573 97.176097 117.27977 105.81162 114.4375 113.5 C 111.59523 121.18838 104.04401 114.14823 102.03125 123.46875 C 100.26796 131.63408 136.50191 146.30505 145.59375 141.78125 C 155.49716 136.85364 168.56289 106.76464 168.78125 97.96875 C 168.9996 89.172867 157.84312 103.19952 150.1875 98.28125 C 142.53188 93.362981 141.47998 87.966203 144.65625 79.53125 C 147.83252 71.096295 151.9908 65.37937 161.09375 67.0625 C 170.1967 68.745627 168.90976 83.010669 178.28125 76.75 C 187.65276 70.489321 196.47458 53.353924 194.09375 44.65625 C 191.95044 36.826278 151.78871 29.317095 151.59375 21 C 151.41295 13.287055 160.8363 17.524428 165.15625 6.09375 C 168.40673 -2.5071023 164.93498 -13.074409 152.96875 -18.59375 C 149.96143 -19.980857 147.04427 -20.694905 144.3125 -20.84375 z "
             inkscape:radius="-2.0694869"
             sodipodi:type="inkscape:offset" />
          <path
             transform="matrix(0.9962332,-8.67148e-2,8.67148e-2,0.9962332,-4.9356593,9.9710228)"
             sodipodi:type="inkscape:offset"
             inkscape:radius="-1.5900763"
             inkscape:original="M 144.3125 -20.84375 C 136.11718 -21.290286 129.60521 -16.703081 127.3125 -10.1875 C 124.14832 -1.1952449 132.42637 3.497011 127.46875 10.21875 C 122.40787 17.080497 87.437498 -10.09375 87.4375 -10.09375 C 87.4375 -10.09375 79.142971 25.514616 74.09375 30.125 C 69.044521 34.735383 65.084325 15.774263 60.40625 13.25 C 54.66423 10.151631 44.808559 12.099442 39.28125 19.78125 C 33.75393 27.463062 30.331562 35.954491 36.625 43.25 C 42.918433 50.545504 48.402354 39.865275 54.46875 48.1875 C 61.163866 57.372232 33.65625 92.874999 33.65625 92.875 C 33.65625 92.875 71.638319 119.06692 77.6875 112.59375 C 83.417092 106.46257 73.26862 98.049635 79.84375 92.03125 C 86.418873 86.012864 94.255206 86.448899 102.90625 91.8125 C 111.5573 97.176097 117.27977 105.81162 114.4375 113.5 C 111.59523 121.18838 104.04401 114.14823 102.03125 123.46875 C 100.26796 131.63408 136.50191 146.30505 145.59375 141.78125 C 155.49716 136.85364 168.56289 106.76464 168.78125 97.96875 C 168.9996 89.172867 157.84312 103.19952 150.1875 98.28125 C 142.53188 93.362981 141.47998 87.966203 144.65625 79.53125 C 147.83252 71.096295 151.9908 65.37937 161.09375 67.0625 C 170.1967 68.745627 168.90976 83.010669 178.28125 76.75 C 187.65276 70.489321 196.47458 53.353924 194.09375 44.65625 C 191.95044 36.826278 151.78871 29.317095 151.59375 21 C 151.41295 13.287055 160.8363 17.524428 165.15625 6.09375 C 168.40673 -2.5071023 164.93498 -13.074409 152.96875 -18.59375 C 149.96143 -19.980857 147.04427 -20.694905 144.3125 -20.84375 z "
             style="fill:none;fill-opacity:1;fill-rule:evenodd;stroke:url(#linearGradient3494);stroke-width:0.80171573;stroke-linecap:butt;stroke-linejoin:round;stroke-miterlimit:4;stroke-dasharray:none;stroke-opacity:1"
             id="path3492"
             d="M 144.21875,-19.25 C 136.65984,-19.66186 130.86985,-15.502978 128.8125,-9.65625 C 127.40327,-5.6513652 128.49576,-2.7993813 129.5625,0.375 C 130.09587,1.9621907 130.65211,3.6047908 130.6875,5.4375 C 130.72289,7.2702092 130.16733,9.2345765 128.75,11.15625 C 127.70898,12.567705 125.91486,13.009797 124.1875,12.90625 C 122.46014,12.802703 120.58379,12.232762 118.5,11.40625 C 114.33242,9.7532254 109.44925,6.9638354 104.71875,3.96875 C 96.901293,-0.98081768 90.725304,-5.6374256 88.40625,-7.40625 C 87.970142,-5.5630964 86.564979,0.38734102 84.1875,8.71875 C 82.828485,13.481151 81.325624,18.382638 79.8125,22.4375 C 78.299376,26.492362 77.01112,29.61884 75.15625,31.3125 C 74.286492,32.106664 73.133112,32.556987 72.03125,32.40625 C 70.929388,32.255513 70.062514,31.633918 69.34375,30.90625 C 67.906221,29.450914 66.81091,27.343741 65.6875,25.0625 C 64.56409,22.781259 63.470251,20.322437 62.40625,18.34375 C 61.342249,16.365063 60.176143,14.936781 59.65625,14.65625 C 54.828509,12.051222 45.640864,13.660883 40.5625,20.71875 C 37.870198,24.460484 35.783318,28.343136 35.09375,31.96875 C 34.404182,35.594364 34.989447,38.909971 37.84375,42.21875 C 39.217169,43.810851 40.260066,44.2283 41.375,44.34375 C 42.489934,44.4592 43.771826,44.145142 45.25,43.78125 C 46.728174,43.417358 48.431346,43.0117 50.3125,43.375 C 52.193654,43.7383 54.070865,44.946468 55.75,47.25 C 58.016314,50.359056 57.232108,54.763282 55.53125,59.5625 C 53.830392,64.361718 50.988113,69.718566 47.9375,74.78125 C 42.574063,83.682211 37.309368,90.670122 35.9375,92.46875 C 37.752603,93.704649 45.184202,98.741246 54.1875,103.78125 C 59.270999,106.62697 64.532477,109.26179 68.78125,110.75 C 70.905637,111.49411 72.782404,111.94913 74.15625,112.03125 C 75.530096,112.11337 76.241099,111.81049 76.53125,111.5 C 77.67991,110.27083 77.973268,109.14034 77.9375,107.6875 C 77.901732,106.23466 77.409445,104.51181 76.90625,102.6875 C 76.403055,100.86319 75.862835,98.935062 75.9375,96.875 C 76.012165,94.814938 76.851094,92.610471 78.78125,90.84375 C 82.314993,87.60922 86.341442,86.032597 90.59375,86.0625 C 94.846058,86.092403 99.258136,87.683818 103.75,90.46875 C 108.26689,93.269191 112.0509,96.915453 114.375,101 C 116.6991,105.08455 117.54612,109.71117 115.9375,114.0625 C 115.12016,116.27341 113.75526,117.67279 112.28125,118.40625 C 110.80724,119.13971 109.35848,119.26108 108.15625,119.4375 C 106.95402,119.61392 106.05358,119.83857 105.375,120.34375 C 104.69642,120.84893 104.04492,121.72326 103.59375,123.8125 C 103.50229,124.23601 103.62207,124.90997 104.3125,125.875 C 105.00293,126.84003 106.21928,127.96079 107.78125,129.125 C 110.90519,131.45343 115.44652,133.882 120.34375,135.90625 C 125.24098,137.9305 130.49758,139.56656 135,140.40625 C 139.50242,141.24594 143.28605,141.13436 144.875,140.34375 C 146.89788,139.33723 149.51529,136.7047 152.0625,133.15625 C 154.60971,129.6078 157.16991,125.18373 159.40625,120.625 C 161.64259,116.06627 163.58408,111.37195 164.96875,107.3125 C 166.35342,103.25305 167.14212,99.765661 167.1875,97.9375 C 167.20926,97.06107 167.06592,96.671116 167.03125,96.59375 C 166.61873,96.594197 164.98332,97.198071 163.125,98.09375 C 161.26668,98.989429 159.08546,100.08229 156.71875,100.625 C 154.35204,101.16771 151.66333,101.13527 149.3125,99.625 C 145.29004,97.040812 142.76212,94.139434 141.8125,90.65625 C 140.86288,87.173066 141.5083,83.345067 143.15625,78.96875 C 144.78328,74.647983 146.68647,70.879568 149.59375,68.3125 C 152.50103,65.745432 156.46446,64.592043 161.375,65.5 C 166.7294,66.490023 169.01284,71.147768 170.90625,74 C 171.85296,75.426116 172.71372,76.352605 173.46875,76.625 C 174.22378,76.897395 175.28132,76.857068 177.40625,75.4375 C 181.72646,72.551365 186.20818,66.860123 189.1875,60.90625 C 192.16682,54.952377 193.55067,48.672491 192.5625,45.0625 C 192.45298,44.662386 191.88325,43.867275 190.71875,43 C 189.55425,42.132725 187.88802,41.192298 185.90625,40.25 C 181.94271,38.365405 176.73528,36.450259 171.5625,34.5 C 166.38972,32.549741 161.24254,30.566461 157.28125,28.5 C 155.30061,27.46677 153.60211,26.419479 152.3125,25.25 C 151.02289,24.080521 150.03929,22.707407 150,21.03125 C 149.9473,18.782909 150.71679,17.017197 151.9375,15.875 C 153.15821,14.732803 154.62266,14.153796 156.03125,13.5 C 158.84843,12.192408 161.65441,10.828159 163.65625,5.53125 C 166.6221,-2.3164767 163.68401,-11.91122 152.3125,-17.15625 C 149.47185,-18.466483 146.73607,-19.11284 144.21875,-19.25 z" />
        </g>
      </g>
    </g>
  </g>
</svg>
