<?xml version="1.0" encoding="UTF-8" standalone="no"?>
<!-- Created with Inkscape (http://www.inkscape.org/) -->
<svg
   xmlns:dc="http://purl.org/dc/elements/1.1/"
   xmlns:cc="http://creativecommons.org/ns#"
   xmlns:rdf="http://www.w3.org/1999/02/22-rdf-syntax-ns#"
   xmlns:svg="http://www.w3.org/2000/svg"
   xmlns="http://www.w3.org/2000/svg"
   xmlns:xlink="http://www.w3.org/1999/xlink"
   xmlns:sodipodi="http://sodipodi.sourceforge.net/DTD/sodipodi-0.dtd"
   xmlns:inkscape="http://www.inkscape.org/namespaces/inkscape"
   width="128"
   height="128"
   id="svg2"
   sodipodi:version="0.32"
   inkscape:version="0.46"
   version="1.0"
   sodipodi:docname="paste.svg"
   inkscape:output_extension="org.inkscape.output.svg.inkscape">
  <defs
     id="defs4">
    <linearGradient
       inkscape:collect="always"
       id="linearGradient3871">
      <stop
         style="stop-color:#ffffff;stop-opacity:1;"
         offset="0"
         id="stop3873" />
      <stop
         style="stop-color:#ffffff;stop-opacity:0;"
         offset="1"
         id="stop3875" />
    </linearGradient>
    <linearGradient
       id="linearGradient2439">
      <stop
         id="stop2441"
         offset="0"
         style="stop-color:#f8ead2;stop-opacity:1;" />
      <stop
         style="stop-color:#cfb07f;stop-opacity:1;"
         offset="0.45384613"
         id="stop2443" />
      <stop
         id="stop2445"
         offset="1"
         style="stop-color:#454545;stop-opacity:1;" />
    </linearGradient>
    <linearGradient
       id="linearGradient3175"
       inkscape:collect="always">
      <stop
         id="stop3177"
         offset="0"
         style="stop-color:#ffffff;stop-opacity:1;" />
      <stop
         id="stop3179"
         offset="1"
         style="stop-color:#ffffff;stop-opacity:0;" />
    </linearGradient>
    <linearGradient
       inkscape:collect="always"
       xlink:href="#linearGradient2439"
       id="linearGradient3237"
       gradientUnits="userSpaceOnUse"
       gradientTransform="matrix(2.613156,0,0,-2.1466294,-7.158914,63.754828)"
       x1="40.971825"
       y1="14.368217"
       x2="23.245422"
       y2="14.368217" />
    <linearGradient
       inkscape:collect="always"
       xlink:href="#linearGradient3175"
       id="linearGradient3239"
       gradientUnits="userSpaceOnUse"
       x1="99.969315"
       y1="55.682899"
       x2="66.034416"
       y2="58.315384" />
    <linearGradient
       y2="116.14485"
       x2="13.449544"
       y1="95.637474"
       x1="13.449544"
       gradientTransform="matrix(1.5891214,0,0,1.9891821,43.10243,51.208037)"
       gradientUnits="userSpaceOnUse"
       id="linearGradient4764"
       xlink:href="#linearGradient3446"
       inkscape:collect="always" />
    <linearGradient
       id="linearGradient3653">
      <stop
         style="stop-color:#f8ead2;stop-opacity:1;"
         offset="0"
         id="stop3655" />
      <stop
         id="stop3657"
         offset="0.5"
         style="stop-color:#cfb07f;stop-opacity:1;" />
      <stop
         style="stop-color:#dcc29b;stop-opacity:1;"
         offset="1"
         id="stop3659" />
    </linearGradient>
    <linearGradient
       id="linearGradient5975">
      <stop
         id="stop5977"
         offset="0"
         style="stop-color:#dfc7a1;stop-opacity:1;" />
      <stop
         style="stop-color:#b8956b;stop-opacity:1;"
         offset="0.43684608"
         id="stop5979" />
      <stop
         id="stop5981"
         offset="1"
         style="stop-color:#cbb183;stop-opacity:1;" />
    </linearGradient>
    <linearGradient
       id="linearGradient3575">
      <stop
         style="stop-color:#f8ead2;stop-opacity:1;"
         offset="0"
         id="stop3241" />
      <stop
         id="stop3247"
         offset="0.43684608"
         style="stop-color:#cfb07f;stop-opacity:1;" />
      <stop
         style="stop-color:#dcc29b;stop-opacity:1;"
         offset="1"
         id="stop3243" />
    </linearGradient>
    <linearGradient
       id="linearGradient3446">
      <stop
         id="stop3448"
         offset="0"
         style="stop-color:#fcf9f3;stop-opacity:1;" />
      <stop
         style="stop-color:#cbaf83;stop-opacity:1;"
         offset="1"
         id="stop3450" />
    </linearGradient>
    <linearGradient
       id="linearGradient3870"
       inkscape:collect="always">
      <stop
         id="stop3872"
         offset="0"
         style="stop-color:#ffffff;stop-opacity:1;" />
      <stop
         id="stop3874"
         offset="1"
         style="stop-color:#ffffff;stop-opacity:0;" />
    </linearGradient>
    <linearGradient
       id="linearGradient4545">
      <stop
         id="stop4547"
         offset="0"
         style="stop-color:#f8ead2;stop-opacity:1;" />
      <stop
         style="stop-color:#cfb07f;stop-opacity:1;"
         offset="0.5557524"
         id="stop4549" />
      <stop
         id="stop4551"
         offset="1"
         style="stop-color:#dcc29b;stop-opacity:1;" />
    </linearGradient>
    <inkscape:perspective
       id="perspective3559"
       inkscape:persp3d-origin="64 : 42.666667 : 1"
       inkscape:vp_z="128 : 64 : 1"
       inkscape:vp_y="0 : 1000 : 0"
       inkscape:vp_x="0 : 64 : 1"
       sodipodi:type="inkscape:persp3d" />
    <radialGradient
       inkscape:collect="always"
       xlink:href="#linearGradient3175"
       id="radialGradient3768"
       gradientUnits="userSpaceOnUse"
       gradientTransform="matrix(3.9384754,0.7336831,-0.6052272,3.6127466,-146.15112,-144.85647)"
       cx="58.157173"
       cy="38.845276"
       fx="58.157173"
       fy="38.845276"
       r="29.75" />
    <radialGradient
       inkscape:collect="always"
       xlink:href="#linearGradient5975"
       id="radialGradient3770"
       gradientUnits="userSpaceOnUse"
       gradientTransform="matrix(2.2279664,0.4289181,-0.4420524,2.2961898,86.470255,-26.606934)"
       cx="62.86776"
       cy="37.890446"
       fx="62.86776"
       fy="37.890446"
       r="50.876526" />
    <linearGradient
       inkscape:collect="always"
       xlink:href="#linearGradient3870"
       id="linearGradient3772"
       gradientUnits="userSpaceOnUse"
       x1="209.28572"
       y1="7.5717988"
       x2="209.28572"
       y2="91.622063" />
    <linearGradient
       inkscape:collect="always"
       xlink:href="#linearGradient3446"
       id="linearGradient3818"
       gradientUnits="userSpaceOnUse"
       gradientTransform="matrix(0.696162,0,0,0.8714205,9.9489012,34.999186)"
       x1="13.449544"
       y1="95.637474"
       x2="13.449544"
       y2="116.14485" />
    <linearGradient
       inkscape:collect="always"
       xlink:href="#linearGradient2439"
       id="linearGradient3832"
       gradientUnits="userSpaceOnUse"
       gradientTransform="matrix(2.613156,0,0,-2.1466294,-7.158914,63.754828)"
       x1="40.971825"
       y1="14.368217"
       x2="23.245422"
       y2="14.368217" />
    <linearGradient
       inkscape:collect="always"
       xlink:href="#linearGradient3175"
       id="linearGradient3834"
       gradientUnits="userSpaceOnUse"
       x1="99.969315"
       y1="55.682899"
       x2="66.034416"
       y2="58.315384" />
    <linearGradient
       inkscape:collect="always"
       xlink:href="#linearGradient2439"
       id="linearGradient3840"
       gradientUnits="userSpaceOnUse"
       gradientTransform="matrix(2.613156,0,0,-2.1466294,-7.158914,63.754828)"
       x1="40.971825"
       y1="14.368217"
       x2="23.245422"
       y2="14.368217" />
    <linearGradient
       inkscape:collect="always"
       xlink:href="#linearGradient3175"
       id="linearGradient3842"
       gradientUnits="userSpaceOnUse"
       x1="99.969315"
       y1="55.682899"
       x2="66.034416"
       y2="58.315384" />
    <linearGradient
       inkscape:collect="always"
       xlink:href="#linearGradient2439"
       id="linearGradient3847"
       gradientUnits="userSpaceOnUse"
       gradientTransform="matrix(2.613156,0,0,-2.1466294,-7.158914,63.754828)"
       x1="40.971825"
       y1="14.368217"
       x2="23.245422"
       y2="14.368217" />
    <linearGradient
       inkscape:collect="always"
       xlink:href="#linearGradient3175"
       id="linearGradient3849"
       gradientUnits="userSpaceOnUse"
       x1="99.969315"
       y1="55.682899"
       x2="66.034416"
       y2="58.315384" />
    <linearGradient
       inkscape:collect="always"
       xlink:href="#linearGradient3175"
       id="linearGradient3852"
       gradientUnits="userSpaceOnUse"
       x1="99.969315"
       y1="55.682899"
       x2="66.034416"
       y2="58.315384"
       gradientTransform="matrix(0.8251117,0,0,-0.8240956,1.7641686,74.253534)" />
    <linearGradient
       inkscape:collect="always"
       xlink:href="#linearGradient2439"
       id="linearGradient3855"
       gradientUnits="userSpaceOnUse"
       gradientTransform="matrix(2.1561456,0,0,1.7690278,-4.1427351,21.713461)"
       x1="40.971825"
       y1="14.368217"
       x2="23.245422"
       y2="14.368217" />
    <linearGradient
       inkscape:collect="always"
       xlink:href="#linearGradient3446"
       id="linearGradient3867"
       gradientUnits="userSpaceOnUse"
       gradientTransform="matrix(0.696162,0,0,0.8714205,9.9489012,34.999186)"
       x1="13.449544"
       y1="95.637474"
       x2="13.449544"
       y2="116.14485" />
    <linearGradient
       inkscape:collect="always"
       xlink:href="#linearGradient3871"
       id="linearGradient3877"
       x1="125.42059"
       y1="79.161163"
       x2="56.743286"
       y2="114.75446"
       gradientUnits="userSpaceOnUse" />
    <linearGradient
       inkscape:collect="always"
       xlink:href="#linearGradient3446"
       id="linearGradient3879"
       gradientUnits="userSpaceOnUse"
       gradientTransform="matrix(0.696162,0,0,0.8714205,9.948905,34.999186)"
       x1="239.46506"
       y1="78.43959"
       x2="-121.97543"
       y2="78.43959" />
  </defs>
  <sodipodi:namedview
     id="base"
     pagecolor="#ffffff"
     bordercolor="#666666"
     borderopacity="1.0"
     gridtolerance="10000"
     guidetolerance="10"
     objecttolerance="10"
     inkscape:pageopacity="0.0"
     inkscape:pageshadow="2"
     inkscape:zoom="4"
     inkscape:cx="65.313069"
     inkscape:cy="103.29662"
     inkscape:document-units="px"
     inkscape:current-layer="g3857"
     showgrid="false"
     inkscape:showpageshadow="false"
     inkscape:window-width="1600"
     inkscape:window-height="1134"
     inkscape:window-x="-5"
     inkscape:window-y="-3" />
  <metadata
     id="metadata7">
    <rdf:RDF>
      <cc:Work
         rdf:about="">
        <dc:format>image/svg+xml</dc:format>
        <dc:type
           rdf:resource="http://purl.org/dc/dcmitype/StillImage" />
      </cc:Work>
    </rdf:RDF>
  </metadata>
  <g
     inkscape:label="Layer 1"
     inkscape:groupmode="layer"
     id="layer1">
    <text
       xml:space="preserve"
       style="font-size:16.00966644px;font-style:normal;font-variant:normal;font-weight:bold;font-stretch:normal;text-align:start;line-height:125%;writing-mode:lr-tb;text-anchor:start;fill:#000000;fill-opacity:1;stroke:none;stroke-width:1px;stroke-linecap:butt;stroke-linejoin:miter;stroke-opacity:1;font-family:Purisa;-inkscape-font-specification:Purisa Bold"
       x="74.914185"
       y="-18.359865"
       id="text2404"
       sodipodi:linespacing="125%"
       transform="scale(1.0006163,0.9993841)"><tspan
         sodipodi:role="line"
         id="tspan2406"
         x="74.914185"
         y="-18.359865" /></text>
    <text
       sodipodi:linespacing="125%"
       id="text3944"
       y="191.00568"
       x="-102.2457"
       style="font-size:5.11290741px;font-style:normal;font-variant:normal;font-weight:bold;font-stretch:normal;text-align:start;line-height:125%;writing-mode:lr-tb;text-anchor:start;fill:#ffffff;fill-opacity:1;stroke:none;stroke-width:1px;stroke-linecap:butt;stroke-linejoin:miter;stroke-opacity:1;font-family:Purisa;-inkscape-font-specification:Purisa Bold"
       xml:space="preserve"><tspan
         y="191.00568"
         x="-102.2457"
         id="tspan3946"
         sodipodi:role="line" /></text>
    <path
       sodipodi:nodetypes="cssss"
       id="path4017"
       d="M 13.609945,63.731071 C 13.609945,63.731071 13.706274,125.48319 13.706274,125.48319 C 13.706274,125.48319 111.9285,125.48319 111.9285,125.48319 C 111.9285,125.48319 111.912,63.731071 111.912,63.731071 C 111.912,63.731071 13.609945,63.731071 13.609945,63.731071 z"
       style="opacity:0.80000000000000004;fill:url(#linearGradient3818);fill-opacity:1;fill-rule:nonzero;stroke:#886839;stroke-width:1.55775452000000003;stroke-linecap:round;stroke-linejoin:round;marker:none;marker-start:none;marker-mid:none;marker-end:none;stroke-miterlimit:4;stroke-dasharray:none;stroke-dashoffset:0;stroke-opacity:1;visibility:visible;display:inline;overflow:visible;enable-background:accumulate" />
    <path
       style="opacity:0.65000000000000002;fill:url(#linearGradient3879);fill-opacity:1;fill-rule:nonzero;stroke:none;stroke-width:1.55775452000000003;stroke-linecap:round;stroke-linejoin:round;marker:none;marker-start:none;marker-mid:none;marker-end:none;stroke-miterlimit:4;stroke-dasharray:none;stroke-dashoffset:0;stroke-opacity:1;visibility:visible;display:inline;overflow:visible;enable-background:accumulate"
       d="M 13.609945,63.731071 C 13.609945,63.731071 13.706275,125.48319 13.706275,125.48319 C 13.706275,125.48319 111.9285,125.48319 111.9285,125.48319 C 111.9285,125.48319 111.912,63.731071 111.912,63.731071 C 111.912,63.731071 13.609945,63.731071 13.609945,63.731071 z"
       id="path3861"
       sodipodi:nodetypes="cssss" />
    <path
       style="opacity:0.90000000000000002;fill:url(#linearGradient3877);fill-opacity:1;fill-rule:nonzero;stroke:none;stroke-width:1.55775452000000003;stroke-linecap:round;stroke-linejoin:round;marker:none;marker-start:none;marker-mid:none;marker-end:none;stroke-miterlimit:4;stroke-dasharray:none;stroke-dashoffset:0;stroke-opacity:1;visibility:visible;display:inline;overflow:visible;enable-background:accumulate"
       d="M 64.795759,63.71875 C 68.355852,95.038325 76.26284,114.75002 83.03125,125.46875 C 95.038723,125.46875 111.9375,125.46875 111.9375,125.46875 C 111.9375,125.46875 111.90625,63.71875 111.90625,63.71875 C 111.90625,63.71875 88.640205,63.71875 64.795759,63.71875 z"
       id="path3863"
       sodipodi:nodetypes="ccccc" />
    <text
       id="text3732"
       y="71.15126"
       x="16.991106"
       style="font-size:5.00890827000000005px;font-style:normal;font-weight:normal;opacity:1;fill:#000000;fill-opacity:1;stroke:none;stroke-width:1px;stroke-linecap:butt;stroke-linejoin:miter;stroke-opacity:1;font-family:Bitstream Vera Sans"
       xml:space="preserve"><tspan
         style="font-style:normal;font-variant:normal;font-weight:normal;font-stretch:normal;font-family:Courier 10 Pitch;-inkscape-font-specification:Courier 10 Pitch"
         y="71.15126"
         x="16.991106"
         id="tspan3734"
         sodipodi:role="line">class CreamWidget():</tspan><tspan
         style="font-style:normal;font-variant:normal;font-weight:normal;font-stretch:normal;font-family:Courier 10 Pitch;-inkscape-font-specification:Courier 10 Pitch"
         id="tspan3738"
         y="77.412399"
         x="16.991106"
         sodipodi:role="line">    def __init__(self, parent):</tspan><tspan
         style="font-style:normal;font-variant:normal;font-weight:normal;font-stretch:normal;font-family:Courier 10 Pitch;-inkscape-font-specification:Courier 10 Pitch"
         id="tspan3740"
         y="83.673531"
         x="16.991106"
         sodipodi:role="line">        self.run_widget('paste')</tspan><tspan
         style="font-style:normal;font-variant:normal;font-weight:normal;font-stretch:normal;font-family:Courier 10 Pitch;-inkscape-font-specification:Courier 10 Pitch"
         id="tspan3742"
         y="89.934669"
         x="16.991106"
         sodipodi:role="line" /><tspan
         style="font-style:normal;font-variant:normal;font-weight:normal;font-stretch:normal;font-family:Courier 10 Pitch;-inkscape-font-specification:Courier 10 Pitch"
         id="tspan3744"
         y="96.195801"
         x="16.991106"
         sodipodi:role="line">    def run_widget(text):</tspan><tspan
         style="font-style:normal;font-variant:normal;font-weight:normal;font-stretch:normal;font-family:Courier 10 Pitch;-inkscape-font-specification:Courier 10 Pitch"
         y="102.45694"
         x="16.991106"
         sodipodi:role="line"
         id="tspan3820">        web.lib.paste(text)</tspan><tspan
         style="font-style:normal;font-variant:normal;font-weight:normal;font-stretch:normal;font-family:Courier 10 Pitch;-inkscape-font-specification:Courier 10 Pitch"
         id="tspan3748"
         y="108.71807"
         x="16.991106"
         sodipodi:role="line" /><tspan
         style="font-style:normal;font-variant:normal;font-weight:normal;font-stretch:normal;font-family:Courier 10 Pitch;-inkscape-font-specification:Courier 10 Pitch"
         id="tspan3750"
         y="114.97921"
         x="16.991106"
         sodipodi:role="line">if __name__ == '__main__':</tspan><tspan
         style="font-style:normal;font-variant:normal;font-weight:normal;font-stretch:normal;font-family:Courier 10 Pitch;-inkscape-font-specification:Courier 10 Pitch"
         id="tspan3736"
         y="121.24034"
         x="16.991106"
         sodipodi:role="line">    module = CreamWidget()</tspan></text>
    <g
       style="fill:#ffffff"
       transform="matrix(0.1767856,0,0,0.1767856,69.743672,42.876975)"
       id="g4766">
      <path
         sodipodi:type="arc"
         style="fill:url(#radialGradient3768);fill-opacity:1;fill-rule:nonzero;stroke:#b8956b;stroke-width:1.5;stroke-linecap:butt;stroke-linejoin:miter;marker:none;marker-start:none;marker-mid:none;marker-end:none;stroke-miterlimit:4;stroke-dasharray:none;stroke-dashoffset:0;stroke-opacity:1;visibility:visible;display:inline;overflow:visible;enable-background:accumulate"
         id="path2456"
         sodipodi:cx="63"
         sodipodi:cy="53"
         sodipodi:rx="29"
         sodipodi:ry="29"
         d="M 92,53 A 29,29 0 1 1 34,53 A 29,29 0 1 1 92,53 z"
         transform="matrix(2.9063,0,0,2.7560733,29.726095,-20.123451)" />
      <path
         sodipodi:nodetypes="csscssssssssssscccscssssssssssssssssssssssssssccsccssccsssssssssscccssssccsssssssc"
         style="opacity:0.8;fill:url(#radialGradient3770);fill-opacity:1;fill-rule:evenodd;stroke:#b8956b;stroke-width:1.46913993;stroke-linecap:butt;stroke-linejoin:miter;stroke-miterlimit:4;stroke-dasharray:none;stroke-opacity:1"
         d="M 179.40573,59.166147 C 177.29888,61.273011 171.28058,62.104173 168.52491,62.793087 C 165.37569,63.58039 160.03042,71.287575 157.64409,73.673905 C 156.64618,74.671828 155.22732,75.10561 154.01717,75.831704 C 155.16374,77.674865 151.12479,82.884852 151.12479,87.447093 C 151.12479,91.235864 150.96503,94.980115 151.81344,98.373821 C 152.78324,102.25294 161.91402,99.074725 162.94911,103.21505 C 163.96027,107.25966 161.10502,116.3425 163.42884,118.66632 C 166.21899,121.45647 166.45886,126.28782 165.63255,129.59305 C 164.69921,133.32637 173.18099,135.9669 169.99406,129.59305 C 167.25883,124.12259 172.38109,124.03802 175.77879,122.33917 C 179.4434,120.50687 183.12636,119.76724 186.70552,117.97766 C 191.39568,115.63258 188.12876,112.0196 188.12876,107.7855 C 188.12876,103.72587 186.70552,101.14172 186.70552,96.904682 C 186.70552,93.808248 190.33568,88.178448 192.49026,86.023863 C 196.25559,82.258528 192.78462,79.425283 192.78462,74.136446 C 206.96328,64.022374 200.5709,60.942176 179.40573,59.166147 z M 257.77518,60.86484 C 255.06296,60.887477 252.31887,64.241034 249.649,63.573567 C 246.31136,62.739164 242.3702,63.799705 239.68639,65.409992 C 237.64107,65.409994 232.8709,70.389052 229.76969,73.490262 C 227.43767,75.822289 226.17064,79.760304 225.40818,82.810119 C 224.26283,87.391515 227.40444,87.814377 231.00928,87.814377 C 234.43081,87.81438 237.68625,85.435033 240.32913,83.452868 C 244.0579,80.656291 241.32884,77.851772 247.16982,77.851772 C 251.6042,77.851772 252.12817,77.863001 252.12817,82.810119 C 252.12817,85.767947 251.58439,89.346741 250.88858,92.129976 C 249.66148,97.038372 244.42989,98.113056 241.56873,95.251899 C 237.89176,91.574929 241.11954,90.293551 236.56447,90.293551 C 233.4861,90.293549 235.95115,97.123642 233.48845,98.97066 C 230.85042,100.94918 227.04613,98.57231 224.16859,101.44983 C 223.25099,102.36743 225.57621,109.05443 226.00502,110.76969 C 227.04253,114.91975 221.47833,113.45996 219.21025,115.72804 C 215.67565,119.26263 217.55631,122.06312 221.04668,123.80831 C 223.04202,124.80599 228.69909,124.22517 230.36653,123.80831 C 233.77243,122.95683 236.31524,120.93233 239.68639,120.08955 C 240.69792,119.83667 237.02609,126.96607 236.56447,128.81257 C 235.48284,133.13908 234.00325,138.45383 230.63685,140.13703 C 226.58399,142.16345 224.04656,134.89096 219.80709,139.13043 C 218.36066,140.57686 226.03242,144.46772 226.88075,145.10397 C 230.12421,147.53656 234.27381,143.31789 237.20722,141.85118 C 240.35563,140.27698 242.10634,135.33925 242.8083,132.53133 C 243.89456,128.18634 246.06277,128.16982 250.24584,128.16982 C 253.93206,128.16982 256.25,131.05965 259.56569,131.88858 C 263.16231,132.78773 265.29989,136.59326 268.88555,137.48967 C 272.57695,138.41252 274.92574,139.12951 278.2054,137.48967 C 281.1999,135.99242 290.87543,141.80592 293.81501,140.33613 C 305.24214,108.32916 280.01,76.603263 269.52829,67.292328 C 266.89203,66.633258 265.18891,63.583204 258.96885,61.094393 C 258.5846,60.940646 258.16264,60.861606 257.77518,60.86484 z M 202.63652,101.26619 C 199.92479,101.94412 193.29959,103.12615 194.64807,108.52007 C 195.29817,111.12046 204.60001,108.0292 205.57479,107.7855 C 211.52445,106.29809 204.0953,102.14146 202.63652,101.26619 z M 167.23942,138.27015 C 165.40462,140.10496 159.24074,140.47898 154.93537,142.63166 C 150.06131,145.06869 149.55349,148.74237 150.57386,152.82382 C 151.67256,157.21863 152.48301,160.3943 157.09316,161.54684 C 161.13128,162.55637 161.48889,169.62618 162.18925,172.42766 C 163.2083,176.50382 165.08162,178.7834 165.08162,183.30848 C 165.08162,188.89762 171.97737,178.22169 172.3355,176.78916 C 173.23557,173.18891 172.5063,169.48397 171.60092,165.86244 C 170.41973,161.13765 171.85546,158.87997 173.80463,154.98162 C 175.68745,151.216 176.44454,148.04895 177.43157,144.1008 C 178.80056,138.62483 176.71575,139.00472 171.60092,139.00472 C 170.12871,139.00473 168.69161,138.51219 167.23942,138.27015 z M 202.31514,159.93997 C 197.45836,160.11557 188.97946,163.56151 192.49026,164.43921 C 192.19094,165.63648 191.99772,166.856 191.7557,168.06615 C 191.02471,171.72106 190.4427,175.78825 188.86332,178.94697 C 187.96982,180.73397 190.63251,187.88469 191.02113,189.82778 C 191.9842,194.6432 197.31163,195.44092 200.47872,197.81623 C 203.903,200.38444 210.12312,204.48397 204.84022,205.80468 L 231.69793,202.17774 C 235.71846,200.16749 233.46212,197.96747 234.59031,193.45472 C 235.23484,190.87657 236.18421,184.60695 238.21725,182.5739 C 241.2178,179.57336 245.80675,177.54911 244.78246,172.42766 C 243.73747,167.20263 241.3042,166.6943 236.79402,164.43921 C 234.48452,163.28447 228.42277,161.54684 225.9132,161.54684 C 222.11908,161.54685 218.41823,162.2355 214.98647,162.2355 C 210.32102,162.23551 208.04355,161.06218 204.10566,160.0777 C 203.60411,159.95232 203.00896,159.91489 202.31514,159.93997 z"
         id="path2458" />
      <path
         transform="matrix(1.4092373,0,0,1.4092373,-75.666189,17.270178)"
         d="M 204.71875,18.90625 C 170.85767,18.90625 143.3125,45.011396 143.3125,77.125 C 143.3125,79.908792 143.53767,82.632393 143.9375,85.3125 C 143.93227,85.322261 143.93227,85.333989 143.9375,85.34375 C 143.94726,85.348976 143.95899,85.348976 143.96875,85.34375 C 188.38537,77.439182 236.97664,74.928477 266,74.125 C 266.00976,74.130226 266.02149,74.130226 266.03125,74.125 C 266.03648,74.115239 266.03648,74.103511 266.03125,74.09375 C 264.36805,43.381157 237.5105,18.90625 204.71875,18.90625 z"
         id="path3878"
         style="fill:url(#linearGradient3772);fill-opacity:1;fill-rule:nonzero;stroke:none;stroke-width:1.5;stroke-linecap:butt;stroke-linejoin:miter;marker:none;marker-start:none;marker-mid:none;marker-end:none;stroke-miterlimit:4;stroke-dasharray:none;stroke-dashoffset:0;stroke-opacity:1;visibility:visible;display:inline;overflow:visible;enable-background:accumulate"
         inkscape:original="M 204.71875 18.9375 C 170.87468 18.9375 143.34375 45.030326 143.34375 77.125 C 143.34375 79.907004 143.56914 82.633839 143.96875 85.3125 C 188.38828 77.407414 236.97576 74.897251 266 74.09375 C 264.33779 43.399423 237.49403 18.9375 204.71875 18.9375 z "
         inkscape:radius="0.033101365"
         sodipodi:type="inkscape:offset" />
    </g>
    <g
       id="g3857"
       transform="matrix(1.0170856,0,0,1.0170856,-1.0934769,-1.0933312)">
      <path
         sodipodi:nodetypes="cccccccc"
         id="path2401"
         d="M 80.2916,20.056371 L 64.098783,2.1065387 L 47.699684,20.056371 L 58.065154,20.056371 L 61.778157,63.166872 L 65.465366,63.166872 L 70.416036,20.056371 L 80.2916,20.056371 z"
         style="fill:url(#linearGradient3855);fill-opacity:1;fill-rule:evenodd;stroke:#886839;stroke-width:1.649207;stroke-linecap:butt;stroke-linejoin:round;stroke-miterlimit:4;stroke-dasharray:none;stroke-opacity:1" />
      <path
         id="path3169"
         d="M 64.814207,63.989692 C 62.287801,44.556357 63.877384,13.300247 64.163241,1.2953204 C 64.37815,1.3147649 64.589604,1.3876199 64.730505,1.5528503 L 80.923322,19.528436 C 81.132553,19.772281 81.184882,20.111494 81.052246,20.404037 C 80.919612,20.696583 80.626002,20.889539 80.304489,20.893344 L 71.150906,20.893344 L 66.27759,63.257008 C 66.255169,63.670882 65.870291,63.99563 65.452478,63.99361 L 64.814207,63.989692 z"
         style="opacity:0.9;fill:url(#linearGradient3852);fill-opacity:1;fill-rule:evenodd;stroke:none;stroke-width:2;stroke-linecap:butt;stroke-linejoin:round;stroke-miterlimit:4;stroke-dasharray:none;stroke-opacity:1"
         sodipodi:nodetypes="ccccsccccc" />
    </g>
  </g>
</svg>
