<?xml version="1.0" encoding="UTF-8" standalone="no"?>
<!-- Created with Inkscape (http://www.inkscape.org/) -->

<svg
   xmlns:dc="http://purl.org/dc/elements/1.1/"
   xmlns:cc="http://creativecommons.org/ns#"
   xmlns:rdf="http://www.w3.org/1999/02/22-rdf-syntax-ns#"
   xmlns:svg="http://www.w3.org/2000/svg"
   xmlns="http://www.w3.org/2000/svg"
   xmlns:xlink="http://www.w3.org/1999/xlink"
   xmlns:sodipodi="http://sodipodi.sourceforge.net/DTD/sodipodi-0.dtd"
   xmlns:inkscape="http://www.inkscape.org/namespaces/inkscape"
   version="1.0"
   width="128"
   height="128"
   id="svg2"
   sodipodi:version="0.32"
   inkscape:version="0.47 r22583"
   sodipodi:docname="folder.svg"
   inkscape:output_extension="org.inkscape.output.svg.inkscape"
   inkscape:export-filename="D:\Projekte\cream\art\creamlooks-icontheme\icons\scalable\places\bitmap.png"
   inkscape:export-xdpi="90"
   inkscape:export-ydpi="90">
  <metadata
     id="metadata40">
    <rdf:RDF>
      <cc:Work
         rdf:about="">
        <dc:format>image/svg+xml</dc:format>
        <dc:type
           rdf:resource="http://purl.org/dc/dcmitype/StillImage" />
        <dc:title />
      </cc:Work>
    </rdf:RDF>
  </metadata>
  <sodipodi:namedview
     inkscape:window-height="840"
     inkscape:window-width="1440"
     inkscape:pageshadow="2"
     inkscape:pageopacity="0.0"
     guidetolerance="10.0"
     gridtolerance="10.0"
     objecttolerance="10.0"
     borderopacity="1.0"
     bordercolor="#666666"
     pagecolor="#ffffff"
     id="base"
     showgrid="false"
     inkscape:zoom="5.1486212"
     inkscape:cx="44.609607"
     inkscape:cy="81.881258"
     inkscape:window-x="-5"
     inkscape:window-y="-3"
     inkscape:current-layer="svg2"
     showguides="true"
     inkscape:guide-bbox="true"
     inkscape:showpageshadow="false"
     inkscape:window-maximized="0" />
  <defs
     id="defs4">
    <linearGradient
       id="linearGradient3653">
      <stop
         id="stop3655"
         offset="0"
         style="stop-color:#000000;stop-opacity:1;" />
      <stop
         id="stop3657"
         offset="1"
         style="stop-color:#000000;stop-opacity:0;" />
    </linearGradient>
    <linearGradient
       inkscape:collect="always"
       id="linearGradient3227">
      <stop
         style="stop-color:#ffffff;stop-opacity:1;"
         offset="0"
         id="stop3229" />
      <stop
         style="stop-color:#ffffff;stop-opacity:0;"
         offset="1"
         id="stop3231" />
    </linearGradient>
    <linearGradient
       inkscape:collect="always"
       id="linearGradient3213">
      <stop
         style="stop-color:#ffffff;stop-opacity:1;"
         offset="0"
         id="stop3215" />
      <stop
         style="stop-color:#ffffff;stop-opacity:0;"
         offset="1"
         id="stop3217" />
    </linearGradient>
    <linearGradient
       id="linearGradient3216">
      <stop
         id="stop3218"
         offset="0"
         style="stop-color:#454545;stop-opacity:1;" />
      <stop
         id="stop3220"
         offset="1"
         style="stop-color:#cfb07f;stop-opacity:1;" />
    </linearGradient>
    <linearGradient
       inkscape:collect="always"
       id="linearGradient4852">
      <stop
         style="stop-color:#ffffff;stop-opacity:1;"
         offset="0"
         id="stop4854" />
      <stop
         style="stop-color:#ffffff;stop-opacity:0;"
         offset="1"
         id="stop4856" />
    </linearGradient>
    <linearGradient
       inkscape:collect="always"
       id="linearGradient4844">
      <stop
         style="stop-color:#ffffff;stop-opacity:1;"
         offset="0"
         id="stop4846" />
      <stop
         style="stop-color:#ffffff;stop-opacity:0;"
         offset="1"
         id="stop4848" />
    </linearGradient>
    <linearGradient
       id="linearGradient4704">
      <stop
         id="stop4706"
         offset="0"
         style="stop-color:#787878;stop-opacity:1" />
      <stop
         id="stop4708"
         offset="1"
         style="stop-color:#f0f0f0;stop-opacity:1;" />
    </linearGradient>
    <linearGradient
       inkscape:collect="always"
       id="linearGradient4680">
      <stop
         style="stop-color:#ffffff;stop-opacity:1;"
         offset="0"
         id="stop4682" />
      <stop
         style="stop-color:#ffffff;stop-opacity:0;"
         offset="1"
         id="stop4684" />
    </linearGradient>
    <linearGradient
       id="linearGradient3570">
      <stop
         style="stop-color:#454545;stop-opacity:1;"
         offset="0"
         id="stop3572" />
      <stop
         style="stop-color:#cfb07f;stop-opacity:1;"
         offset="1"
         id="stop3574" />
    </linearGradient>
    <filter
       inkscape:collect="always"
       id="filter3272"
       x="-0.14468358"
       width="1.2893672"
       y="-0.10251119"
       height="1.2050224">
      <feGaussianBlur
         inkscape:collect="always"
         stdDeviation="4.9862543"
         id="feGaussianBlur3274" />
    </filter>
    <linearGradient
       inkscape:collect="always"
       xlink:href="#linearGradient3227"
       id="linearGradient3298"
       gradientUnits="userSpaceOnUse"
       x1="270.60526"
       y1="-98.938255"
       x2="198.95381"
       y2="-74.264038" />
    <linearGradient
       inkscape:collect="always"
       xlink:href="#linearGradient4680"
       id="linearGradient3312"
       gradientUnits="userSpaceOnUse"
       gradientTransform="matrix(0.9333832,0,0,1.0001386,1.7348036,-9.0588822e-3)"
       x1="118.24893"
       y1="103.82832"
       x2="33.416534"
       y2="60.158115" />
    <linearGradient
       inkscape:collect="always"
       xlink:href="#linearGradient3570"
       id="linearGradient2443"
       gradientUnits="userSpaceOnUse"
       gradientTransform="matrix(0.9786936,0,0,1.0170243,-1.1916558,-2.4960493)"
       x1="25.724054"
       y1="-36.316113"
       x2="70.091805"
       y2="111.85777" />
    <linearGradient
       inkscape:collect="always"
       xlink:href="#linearGradient3216"
       id="linearGradient2445"
       gradientUnits="userSpaceOnUse"
       gradientTransform="matrix(1.0993777,0,0,0.9504547,-2.4052055,3.1315296)"
       x1="5.0512557"
       y1="-50.678112"
       x2="56.706905"
       y2="169.21651" />
    <linearGradient
       inkscape:collect="always"
       xlink:href="#linearGradient4844"
       id="linearGradient2448"
       gradientUnits="userSpaceOnUse"
       gradientTransform="matrix(0.5255881,0,0,1.0246151,36.631568,-3.5085224)"
       x1="79.133331"
       y1="67.605904"
       x2="62.599964"
       y2="67.645416" />
    <linearGradient
       inkscape:collect="always"
       xlink:href="#linearGradient4844"
       id="linearGradient2451"
       gradientUnits="userSpaceOnUse"
       gradientTransform="matrix(0.6645641,0,0,1.0089996,30.553196,-2.3414306)"
       x1="80.664658"
       y1="67.131317"
       x2="67.541069"
       y2="67.012512" />
    <linearGradient
       inkscape:collect="always"
       xlink:href="#linearGradient4852"
       id="linearGradient2454"
       gradientUnits="userSpaceOnUse"
       gradientTransform="matrix(0.612513,0,0,1.0186711,34.375758,-3.3065484)"
       x1="89.426865"
       y1="60.789536"
       x2="76.505623"
       y2="60.655159" />
    <linearGradient
       inkscape:collect="always"
       xlink:href="#linearGradient4852"
       id="linearGradient2457"
       gradientUnits="userSpaceOnUse"
       gradientTransform="matrix(0.6410401,0,0,1.017607,36.96299,-3.6188949)"
       x1="89.894768"
       y1="60.85693"
       x2="78.014091"
       y2="60.655159" />
    <linearGradient
       inkscape:collect="always"
       xlink:href="#linearGradient4704"
       id="linearGradient2461"
       gradientUnits="userSpaceOnUse"
       gradientTransform="matrix(1.175852,0,0,1.0165699,-6.3211894,-2.4663558)"
       x1="126.29183"
       y1="-45.835171"
       x2="60.094196"
       y2="139.93306" />
    <linearGradient
       inkscape:collect="always"
       xlink:href="#linearGradient4704"
       id="linearGradient2463"
       gradientUnits="userSpaceOnUse"
       gradientTransform="matrix(1.0993777,0,0,0.9504547,-2.4052055,3.1315296)"
       x1="146.00414"
       y1="-29.415838"
       x2="90.779976"
       y2="126.54825" />
    <radialGradient
       inkscape:collect="always"
       xlink:href="#linearGradient3653"
       id="radialGradient3661"
       cx="171.53242"
       cy="-73.341072"
       fx="171.53242"
       fy="-73.341072"
       r="25.44305"
       gradientTransform="matrix(1.2845961,0.17487373,-0.47575886,3.4948504,-79.226013,154.15246)"
       gradientUnits="userSpaceOnUse" />
    <radialGradient
       inkscape:collect="always"
       xlink:href="#linearGradient3213"
       id="radialGradient3663"
       cx="168.87639"
       cy="-70.32151"
       fx="168.87639"
       fy="-70.32151"
       r="24.632048"
       gradientTransform="matrix(1.5338116,0.17875273,-0.41235805,3.5382931,-116.24404,154.21766)"
       gradientUnits="userSpaceOnUse" />
    <radialGradient
       inkscape:collect="always"
       xlink:href="#linearGradient3653"
       id="radialGradient3669"
       cx="190.61142"
       cy="-60.724518"
       fx="190.61142"
       fy="-60.724518"
       r="41.756367"
       gradientTransform="matrix(0.98010085,0.16999719,-0.38225122,2.2038292,-19.082125,46.248227)"
       gradientUnits="userSpaceOnUse" />
  </defs>
  <rect
     style="opacity:0.7;fill:#ffffff;fill-opacity:1;fill-rule:nonzero;stroke:none;stroke-width:0.30000001;stroke-linejoin:miter;marker:none;marker-start:none;marker-mid:none;marker-end:none;stroke-miterlimit:4;stroke-dasharray:none;stroke-dashoffset:0;stroke-opacity:1;visibility:visible;display:inline;overflow:visible;enable-background:accumulate"
     id="rect3326"
     y="7.2142854"
     x="71.964287"
     ry="0"
     rx="2.4517381"
     height="0"
     width="0.71428573" />
  <path
     style="opacity:0.3;fill:#454545;fill-opacity:1;stroke:none;stroke-width:0.85484903999999984;stroke-miterlimit:4;stroke-dasharray:none;stroke-opacity:1;filter:url(#filter3272)"
     d="M 95.6875,3.46875 L 27.25,4.4375 C 24.71222,4.2583699 22.65625,6.23111 22.65625,8.90625 L 22.65625,103.375 C 22.65625,104.30681 22.912901,105.12146 23.34375,105.8125 C 23.342728,105.83312 23.34375,105.85412 23.34375,105.875 C 23.36517,105.88434 23.384834,105.8969 23.40625,105.90625 C 24.223156,107.14278 25.637914,107.91744 27.25,108.03125 L 26.350052,110.64322 C 49.627719,121.13183 65.414608,122.52606 65.414608,122.52606 C 66.093168,122.52606 66.633356,121.95462 66.633358,121.27606 L 98.875,119.0625 C 99.722932,118.25048 100.25,117.07372 100.25,115.71875 L 100.25,62.28125 C 105.59592,59.526032 105.375,53.177323 105.375,51.8125 L 105.375,14.375 C 105.375,12.96006 104.06974,11.73801 102.46875,11.625 L 100.25,11.46875 L 100.25,8.625 C 100.25,5.9498803 98.22527,3.64787 95.6875,3.46875 z"
     id="path3266"
     sodipodi:nodetypes="ccccsscccccccccccccc"
     transform="matrix(0.9566206,0,0,0.9566206,2.7762821,2.776279)" />
  <path
     style="fill:url(#linearGradient2461);fill-opacity:1;stroke:url(#linearGradient2463);stroke-width:0.81776619;stroke-miterlimit:4;stroke-dasharray:none;stroke-opacity:1"
     d="M 103.57444,16.53872 C 103.57444,15.185159 102.33822,14.00533 100.80668,13.897223 L 98.685932,13.747531 L 98.685932,11.01548 C 98.685932,8.456405 96.728323,6.2709575 94.30064,6.0996076 L 28.837583,7.0082632 C 26.40989,6.8369038 24.4523,8.745945 24.4523,11.305039 L 24.4523,101.66492 C 24.4523,104.22401 26.40989,105.96468 28.837583,106.13607 L 94.30064,117.76344 C 96.728333,117.93482 98.685932,116.02575 98.685932,113.46666 L 98.685932,62.35226 C 103.79995,59.716563 103.57444,53.646655 103.57444,52.341037 L 103.57444,16.53872 z"
     id="path2788"
     sodipodi:nodetypes="cccccccccccccc" />
  <path
     transform="matrix(0.9566206,0,0,0.9566206,-106.59945,132.98295)"
     sodipodi:type="inkscape:offset"
     inkscape:radius="-1.642025"
     inkscape:original="M 210 -132.625 L 141.59375 -131.6875 C 139.05597 -131.86664 137 -129.86264 137 -127.1875 L 137 -32.75 C 137 -30.074875 139.05597 -28.241657 141.59375 -28.0625 L 210 -15.90625 C 212.53778 -15.727101 214.59375 -17.731124 214.59375 -20.40625 L 214.59375 -73.84375 C 219.93967 -76.59897 219.71875 -82.947677 219.71875 -84.3125 L 219.71875 -121.71875 C 219.71875 -123.13369 218.41349 -124.38699 216.8125 -124.5 L 214.59375 -124.65625 L 214.59375 -127.5 C 214.59375 -130.17512 212.53777 -132.44588 210 -132.625 z "
     style="fill:none;stroke:url(#linearGradient3298);stroke-width:0.85484904;stroke-miterlimit:4;stroke-opacity:1;stroke-dasharray:none"
     id="path3665"
     d="m 209.9375,-130.96875 -68.3125,0.9375 a 1.6421892,1.6421892 0 0 1 -0.15625,-0.0312 c -1.61763,-0.11419 -2.8125,1.04118 -2.8125,2.875 l 0,94.4375 c 0,1.833805 1.24747,2.934366 3.0625,3.0625 a 1.6421892,1.6421892 0 0 1 0.15625,0 l 68.3125,12.125 c 1.57818,0.07212 2.75,-1.039879 2.75,-2.84375 l 0,-53.4375 a 1.6421892,1.6421892 0 0 1 0.90625,-1.46875 c 4.4165,-2.276207 4.21875,-7.457984 4.21875,-9 l 0,-37.40625 c 0,-0.40511 -0.56206,-1.09887 -1.375,-1.15625 l -2.21875,-0.15625 a 1.6421892,1.6421892 0 0 1 -1.53125,-1.625 l 0,-2.84375 c 0,-1.80745 -1.40129,-3.31544 -3,-3.46875 z" />
  <path
     d="m 209.96875,-132.21875 -68.375,0.9375 a 0.40060169,0.40060169 0 0 1 -0.0312,0 c -2.31331,-0.1633 -4.15625,1.62384 -4.15625,4.09375 l 0,94.4375 c 0,2.46989 1.85728,4.11454 4.21875,4.28125 a 0.40060169,0.40060169 0 0 1 0.0312,0 l 68.375,12.15625 0.0312,0 c 2.29802,0.144164 4.125,-1.635522 4.125,-4.09375 l 0,-53.4375 a 0.40060169,0.40060169 0 0 1 0.21875,-0.34375 c 5.11919,-2.638368 4.90625,-8.716952 4.90625,-10.125 l 0,-37.40625 c 0,-1.1686 -1.1225,-2.27556 -2.53125,-2.375 L 214.5625,-124.25 a 0.40060169,0.40060169 0 0 1 -0.375,-0.40625 l 0,-2.84375 c 0,-2.45892 -1.88568,-4.53901 -4.1875,-4.71875 -0.0103,-8e-4 -0.021,7.3e-4 -0.0312,0 z"
     id="path3225"
     style="fill:none;stroke:url(#radialGradient3669);stroke-width:1.2544158;stroke-miterlimit:4;stroke-opacity:1;stroke-dasharray:none"
     inkscape:original="M 210 -132.625 L 141.59375 -131.6875 C 139.05597 -131.86664 137 -129.86264 137 -127.1875 L 137 -32.75 C 137 -30.074875 139.05597 -28.241657 141.59375 -28.0625 L 210 -15.90625 C 212.53778 -15.727101 214.59375 -17.731124 214.59375 -20.40625 L 214.59375 -73.84375 C 219.93967 -76.59897 219.71875 -82.947677 219.71875 -84.3125 L 219.71875 -121.71875 C 219.71875 -123.13369 218.41349 -124.38699 216.8125 -124.5 L 214.59375 -124.65625 L 214.59375 -127.5 C 214.59375 -130.17512 212.53777 -132.44588 210 -132.625 z "
     inkscape:radius="-0.40056163"
     sodipodi:type="inkscape:offset"
     transform="matrix(0.9566206,0,0,0.9566206,-106.59945,132.98295)" />
  <path
     style="opacity:0.2;fill:url(#linearGradient2457);fill-opacity:1;stroke:none;stroke-width:0.36029357000000001;stroke-miterlimit:4;stroke-dasharray:none;stroke-opacity:1"
     d="M 92.944818,13.907686 C 92.944818,11.747808 92.36479,10.060282 91.641221,9.806911 L 69.641962,10.023423 C 68.918402,9.770053 68.879143,9.418179 68.879143,11.578056 L 68.879143,100.48226 C 68.879143,102.64214 66.306733,106.53764 67.030301,106.79101 L 91.641221,111.80371 C 92.36479,112.05711 92.944818,110.70345 92.944818,108.54357 L 92.944818,13.907686 z"
     id="path4864"
     sodipodi:nodetypes="ccccccccc" />
  <path
     sodipodi:nodetypes="ccccccccc"
     id="path4840"
     d="M 87.866345,13.895118 C 87.866345,11.732952 87.312108,9.796408 86.620739,9.542779 L 65.370781,9.75447 C 64.679393,9.500812 64.871607,9.744138 64.871607,11.906302 L 64.871607,100.90344 C 64.871607,103.06559 62.291668,107.18714 62.983037,107.44078 L 86.620739,112.41161 C 87.312108,112.66525 87.866345,111.13532 87.866345,108.9732 L 87.866345,13.895118 z"
     style="opacity:0.3;fill:url(#linearGradient2454);fill-opacity:1;stroke:none;stroke-width:0.35236967000000002;stroke-miterlimit:4;stroke-dasharray:none;stroke-opacity:1" />
  <path
     style="opacity:0.5;fill:url(#linearGradient2451);fill-opacity:1;stroke:none;stroke-width:0.34519812000000000;stroke-miterlimit:4;stroke-dasharray:none;stroke-opacity:1"
     d="M 82.950949,13.512747 C 82.950949,11.337871 82.422148,9.383533 81.762539,9.120443 L 61.692917,9.192639 C 61.03327,8.929559 61.011803,9.281289 61.011803,11.456166 L 61.011803,100.97713 C 61.011803,103.15198 59.435608,108.22331 60.095227,108.48642 L 81.762539,112.8035 C 82.422148,113.0666 82.950949,111.53403 82.950949,109.35919 L 82.950949,13.512747 z"
     id="path4842"
     sodipodi:nodetypes="ccccccccc" />
  <path
     sodipodi:nodetypes="ccccccccs"
     id="path4860"
     d="M 78.071731,12.20871 C 78.071731,10.000194 77.653515,8.706173 77.131832,8.439018 L 61.352146,9.085148 C 60.830443,8.817993 60.720575,8.294052 60.720575,10.502583 L 60.720575,101.40898 C 60.720575,103.61749 58.905943,109.55701 59.427626,109.82418 L 77.131832,113.41836 C 77.653515,113.68557 78.071731,112.12927 78.071731,109.92077 L 78.071731,12.20871 z"
     style="opacity:0.65;fill:url(#linearGradient2448);fill-opacity:1;stroke:none;stroke-width:0.30935526;stroke-miterlimit:4;stroke-dasharray:none;stroke-opacity:1" />
  <path
     style="fill:url(#linearGradient2443);fill-opacity:1;stroke:url(#linearGradient2445);stroke-width:0.81776619;stroke-miterlimit:4;stroke-dasharray:none;stroke-opacity:1"
     d="M 72.357208,9.346473 C 72.357208,6.8944254 71.201907,4.7133209 69.760711,4.4445488 L 27.020549,5.5539799 C 25.579362,5.2852174 24.42408,7.0354025 24.42408,9.48746 L 24.42408,101.49638 C 24.42408,103.94842 25.579362,106.12952 27.020549,106.3983 L 69.760711,123.44948 C 71.201907,123.71827 72.357208,121.96806 72.357208,119.51603 L 72.357208,9.346473 z"
     id="rect2781"
     sodipodi:nodetypes="ccccccccc" />
  <path
     sodipodi:type="inkscape:offset"
     inkscape:radius="0.27681571"
     inkscape:original="M 67.40625 7.65625 C 45.880415 40.803225 33.211418 78.276048 26.25 104.5 C 26.353508 104.89101 26.470336 105.26349 26.625 105.59375 C 27.041098 106.48223 27.64022 107.10359 28.34375 107.28125 L 28.34375 107.3125 L 65.90625 124.0625 C 65.925605 124.0653 65.949393 124.0653 65.96875 124.0625 C 66.699944 124.21519 67.371936 123.78296 67.8125 123.03125 C 68.253062 122.27953 68.46875 121.20952 68.46875 119.96875 L 68.46875 11.625 C 68.468749 10.38422 68.241398 9.2201511 67.8125 8.3125 C 67.698597 8.0714608 67.545576 7.8573675 67.40625 7.65625 z "
     style="fill:url(#linearGradient3312);fill-opacity:1;stroke:none;stroke-width:0.47990996;stroke-miterlimit:4;stroke-dasharray:none;stroke-opacity:1"
     id="path4804"
     d="M 67.34375,7.375 C 67.277904,7.3957286 67.222177,7.4403098 67.1875,7.5 C 45.636784,40.685289 32.934758,78.196256 25.96875,104.4375 C 25.968162,104.44791 25.968162,104.45834 25.96875,104.46875 C 25.96342,104.49977 25.96342,104.53148 25.96875,104.5625 C 26.074315,104.96128 26.209139,105.36458 26.375,105.71875 C 26.784737,106.59365 27.383092,107.24855 28.125,107.5 C 28.133871,107.50301 28.147336,107.49711 28.15625,107.5 C 28.155662,107.51041 28.155662,107.52084 28.15625,107.53125 C 28.165182,107.53409 28.178526,107.52853 28.1875,107.53125 C 28.197067,107.54248 28.207517,107.55293 28.21875,107.5625 L 65.78125,124.3125 C 65.810373,124.32845 65.842129,124.33904 65.875,124.34375 C 65.887791,124.3456 65.894558,124.34282 65.90625,124.34375 C 65.941325,124.34653 65.961631,124.3493 66,124.34375 C 66.828599,124.46752 67.601224,123.9433 68.0625,123.15625 C 68.541075,122.33967 68.75,121.2416 68.75,119.96875 L 68.75,11.625 C 68.749999,10.350406 68.514314,9.1436468 68.0625,8.1875 C 67.934732,7.9171201 67.762664,7.698719 67.625,7.5 C 67.607648,7.4759539 67.586546,7.4548517 67.5625,7.4375 C 67.526864,7.4063195 67.483826,7.3848005 67.4375,7.375 C 67.406477,7.3696703 67.374773,7.3696703 67.34375,7.375 L 67.34375,7.375 z"
     transform="matrix(1.138366,0,0,1.0167088,-5.3501427,-2.475434)" />
  <path
     transform="matrix(0.9566206,0,0,0.9566206,-106.59945,132.98295)"
     sodipodi:type="inkscape:offset"
     inkscape:radius="-0.38796082"
     inkscape:original="M 184.34375 -134.375 L 139.6875 -133.21875 C 138.18096 -133.4997 136.96875 -131.657 136.96875 -129.09375 L 136.96875 -32.90625 C 136.96874 -30.343017 138.18096 -28.062227 139.6875 -27.78125 L 184.34375 -9.96875 C 185.8503 -9.6877717 187.0625 -11.499268 187.0625 -14.0625 L 187.0625 -129.25 C 187.0625 -131.81323 185.8503 -134.09404 184.34375 -134.375 z "
     style="opacity:0.65000000000000002;fill:none;stroke:url(#radialGradient3661);stroke-width:2.09069301;stroke-miterlimit:4;stroke-opacity:1;stroke-dasharray:none"
     id="path3651"
     d="m 184.28125,-134 -44.59375,1.15625 a 0.38799962,0.38799962 0 0 1 -0.0625,0 c -0.58457,-0.10901 -1.09608,0.1831 -1.53125,0.84375 -0.43517,0.66065 -0.75,1.68578 -0.75,2.90625 l 0,96.1875 c 0,1.220457 0.29335,2.38969 0.75,3.25 0.45665,0.86031 1.07054,1.390762 1.65625,1.5 a 0.38799962,0.38799962 0 0 1 0.0937,0 l 44.625,17.8125 0.0312,0 c 0.54717,0.06441 1.02691,-0.195697 1.4375,-0.8125 0.43419,-0.652261 0.75,-1.685792 0.75,-2.90625 l 0,-115.1875 c 0,-1.22046 -0.29335,-2.38969 -0.75,-3.25 -0.45665,-0.86031 -1.07053,-1.39077 -1.65625,-1.5 z" />
  <path
     d="m 184.21875,-133.4375 -44.5,1.15625 a 0.92567878,0.92567878 0 0 1 -0.1875,-0.0312 c -0.35078,-0.0654 -0.64271,0.0513 -1,0.59375 -0.35729,0.54242 -0.625,1.48928 -0.625,2.625 l 0,96.1875 c 0,1.135704 0.27897,2.230338 0.6875,3 0.40853,0.769662 0.89648,1.152817 1.25,1.21875 a 0.92567878,0.92567878 0 0 1 0.1875,0.03125 l 44.5,17.75 c 0.33794,0.05081 0.62686,-0.0489 0.96875,-0.5625 0.35496,-0.53323 0.625,-1.458043 0.625,-2.59375 l 0,-115.1875 c 0,-1.13571 -0.27897,-2.23034 -0.6875,-3 -0.39819,-0.75018 -0.86641,-1.10697 -1.21875,-1.1875 z"
     id="path2441"
     style="opacity:1;fill:none;stroke:url(#radialGradient3663);stroke-width:0.94081185000000001;stroke-miterlimit:4;stroke-opacity:1;stroke-dasharray:none"
     inkscape:original="M 184.34375 -134.375 L 139.6875 -133.21875 C 138.18096 -133.4997 136.96875 -131.657 136.96875 -129.09375 L 136.96875 -32.90625 C 136.96874 -30.343017 138.18096 -28.062227 139.6875 -27.78125 L 184.34375 -9.96875 C 185.8503 -9.6877717 187.0625 -11.499268 187.0625 -14.0625 L 187.0625 -129.25 C 187.0625 -131.81323 185.8503 -134.09404 184.34375 -134.375 z "
     inkscape:radius="-0.92558622"
     sodipodi:type="inkscape:offset"
     transform="matrix(0.9566206,0,0,0.9566206,-106.59945,132.98295)" />
</svg>
