<?xml version="1.0" encoding="UTF-8" standalone="no"?>
<!-- Created with Inkscape (http://www.inkscape.org/) -->

<svg
   xmlns:dc="http://purl.org/dc/elements/1.1/"
   xmlns:cc="http://creativecommons.org/ns#"
   xmlns:rdf="http://www.w3.org/1999/02/22-rdf-syntax-ns#"
   xmlns:svg="http://www.w3.org/2000/svg"
   xmlns="http://www.w3.org/2000/svg"
   xmlns:xlink="http://www.w3.org/1999/xlink"
   xmlns:sodipodi="http://sodipodi.sourceforge.net/DTD/sodipodi-0.dtd"
   xmlns:inkscape="http://www.inkscape.org/namespaces/inkscape"
   width="128"
   height="128"
   id="svg2"
   sodipodi:version="0.32"
   inkscape:version="0.47 r22583"
   version="1.0"
   sodipodi:docname="melange-cashew.svg"
   inkscape:output_extension="org.inkscape.output.svg.inkscape"
   inkscape:export-filename="D:\Projekte\cream\art\creamlooks-icontheme\icons\scalable\widgets\melange-cashew.png"
   inkscape:export-xdpi="33.75"
   inkscape:export-ydpi="33.75">
  <defs
     id="defs4">
    <linearGradient
       id="linearGradient3704">
      <stop
         style="stop-color:#ffffff;stop-opacity:1;"
         offset="0"
         id="stop3706" />
      <stop
         style="stop-color:#ffffff;stop-opacity:0;"
         offset="1"
         id="stop3708" />
    </linearGradient>
    <linearGradient
       inkscape:collect="always"
       id="linearGradient3360">
      <stop
         style="stop-color:#000000;stop-opacity:1;"
         offset="0"
         id="stop3362" />
      <stop
         style="stop-color:#000000;stop-opacity:0;"
         offset="1"
         id="stop3364" />
    </linearGradient>
    <linearGradient
       id="linearGradient3266"
       inkscape:collect="always">
      <stop
         id="stop3268"
         offset="0"
         style="stop-color:#ffffff;stop-opacity:0.8" />
      <stop
         id="stop3270"
         offset="1"
         style="stop-color:#ffffff;stop-opacity:0;" />
    </linearGradient>
    <linearGradient
       inkscape:collect="always"
       id="linearGradient3238">
      <stop
         style="stop-color:#ffffff;stop-opacity:1;"
         offset="0"
         id="stop3240" />
      <stop
         style="stop-color:#ffffff;stop-opacity:0;"
         offset="1"
         id="stop3242" />
    </linearGradient>
    <linearGradient
       inkscape:collect="always"
       id="linearGradient3212">
      <stop
         style="stop-color:#ffffff;stop-opacity:1;"
         offset="0"
         id="stop3214" />
      <stop
         style="stop-color:#ffffff;stop-opacity:0;"
         offset="1"
         id="stop3216" />
    </linearGradient>
    <linearGradient
       inkscape:collect="always"
       id="linearGradient2515">
      <stop
         style="stop-color:#ffffff;stop-opacity:1;"
         offset="0"
         id="stop2517" />
      <stop
         style="stop-color:#ffffff;stop-opacity:0;"
         offset="1"
         id="stop2519" />
    </linearGradient>
    <linearGradient
       inkscape:collect="always"
       id="linearGradient2507">
      <stop
         style="stop-color:#ffffff;stop-opacity:1;"
         offset="0"
         id="stop2509" />
      <stop
         style="stop-color:#ffffff;stop-opacity:0;"
         offset="1"
         id="stop2511" />
    </linearGradient>
    <linearGradient
       id="linearGradient5023">
      <stop
         style="stop-color:#cbcbcb;stop-opacity:1;"
         offset="0"
         id="stop5025" />
      <stop
         id="stop5027"
         offset="0.78257173"
         style="stop-color:#787878;stop-opacity:1;" />
      <stop
         style="stop-color:#454545;stop-opacity:1;"
         offset="1"
         id="stop5029" />
    </linearGradient>
    <linearGradient
       id="linearGradient4704">
      <stop
         id="stop4706"
         offset="0"
         style="stop-color:#f8ead2;stop-opacity:1;" />
      <stop
         style="stop-color:#cfb07f;stop-opacity:1;"
         offset="0.40265465"
         id="stop4708" />
      <stop
         id="stop4710"
         offset="1"
         style="stop-color:#454545;stop-opacity:1;" />
    </linearGradient>
    <linearGradient
       id="linearGradient4598">
      <stop
         style="stop-color:#f8ead2;stop-opacity:1;"
         offset="0"
         id="stop4600" />
      <stop
         id="stop4602"
         offset="0.41116709"
         style="stop-color:#cfb07f;stop-opacity:1;" />
      <stop
         style="stop-color:#454545;stop-opacity:1;"
         offset="1"
         id="stop4604" />
    </linearGradient>
    <linearGradient
       inkscape:collect="always"
       xlink:href="#linearGradient4598"
       id="linearGradient2453"
       gradientUnits="userSpaceOnUse"
       gradientTransform="matrix(1.0913178,0,0,1.0913178,-745.15884,-20.443359)"
       x1="64"
       y1="12.44049"
       x2="32.320141"
       y2="109.50105" />
    <linearGradient
       inkscape:collect="always"
       xlink:href="#linearGradient5023"
       id="linearGradient2455"
       gradientUnits="userSpaceOnUse"
       gradientTransform="matrix(1.4835887,0,0,1.4835887,-748.9916,-34.644067)"
       x1="66.459541"
       y1="90.062584"
       x2="66.459541"
       y2="31.598938" />
    <linearGradient
       inkscape:collect="always"
       xlink:href="#linearGradient4704"
       id="linearGradient2459"
       gradientUnits="userSpaceOnUse"
       gradientTransform="matrix(1.0913178,0,0,1.0913178,-745.15884,-20.595849)"
       x1="73.485245"
       y1="28.4468"
       x2="13.351061"
       y2="111.4594" />
    <linearGradient
       inkscape:collect="always"
       xlink:href="#linearGradient3266"
       id="linearGradient3218"
       x1="111.67617"
       y1="66.418571"
       x2="79.822144"
       y2="26.13129"
       gradientUnits="userSpaceOnUse" />
    <filter
       inkscape:collect="always"
       id="filter3226">
      <feGaussianBlur
         inkscape:collect="always"
         stdDeviation="0.43765714"
         id="feGaussianBlur3228" />
    </filter>
    <linearGradient
       inkscape:collect="always"
       xlink:href="#linearGradient2515"
       id="linearGradient3234"
       gradientUnits="userSpaceOnUse"
       x1="81.286385"
       y1="129.21997"
       x2="69.247566"
       y2="37.747108" />
    <linearGradient
       inkscape:collect="always"
       xlink:href="#linearGradient3238"
       id="linearGradient3244"
       x1="122.22594"
       y1="47.278099"
       x2="112.63711"
       y2="87.327364"
       gradientUnits="userSpaceOnUse" />
    <linearGradient
       inkscape:collect="always"
       xlink:href="#linearGradient3238"
       id="linearGradient3252"
       gradientUnits="userSpaceOnUse"
       x1="36.394577"
       y1="37.931381"
       x2="104.328"
       y2="85.348999" />
    <filter
       inkscape:collect="always"
       id="filter3262">
      <feGaussianBlur
         inkscape:collect="always"
         stdDeviation="0.72480932"
         id="feGaussianBlur3264" />
    </filter>
    <filter
       inkscape:collect="always"
       id="filter3280">
      <feGaussianBlur
         inkscape:collect="always"
         stdDeviation="0.60712822"
         id="feGaussianBlur3282" />
    </filter>
    <filter
       inkscape:collect="always"
       id="filter3308">
      <feGaussianBlur
         inkscape:collect="always"
         stdDeviation="1.8431347"
         id="feGaussianBlur3310" />
    </filter>
    <linearGradient
       inkscape:collect="always"
       xlink:href="#linearGradient3360"
       id="linearGradient3374"
       gradientUnits="userSpaceOnUse"
       x1="-635.85052"
       y1="142.68141"
       x2="-635.85052"
       y2="-98.396332" />
    <filter
       inkscape:collect="always"
       id="filter3392">
      <feGaussianBlur
         inkscape:collect="always"
         stdDeviation="0.91228125"
         id="feGaussianBlur3394" />
    </filter>
    <linearGradient
       inkscape:collect="always"
       xlink:href="#linearGradient3212"
       id="linearGradient3400"
       gradientUnits="userSpaceOnUse"
       x1="91.932312"
       y1="11.925"
       x2="91.092979"
       y2="36.718437" />
    <filter
       inkscape:collect="always"
       id="filter3421">
      <feGaussianBlur
         inkscape:collect="always"
         stdDeviation="1.7581399"
         id="feGaussianBlur3423" />
    </filter>
    <linearGradient
       inkscape:collect="always"
       xlink:href="#linearGradient2507"
       id="linearGradient3425"
       gradientUnits="userSpaceOnUse"
       x1="101.67214"
       y1="-15.839785"
       x2="118.40625"
       y2="75.092979" />
    <linearGradient
       inkscape:collect="always"
       xlink:href="#linearGradient3360"
       id="linearGradient2910"
       gradientUnits="userSpaceOnUse"
       x1="-635.85052"
       y1="142.68141"
       x2="-635.85052"
       y2="-98.396332" />
    <linearGradient
       inkscape:collect="always"
       xlink:href="#linearGradient5023"
       id="linearGradient2912"
       gradientUnits="userSpaceOnUse"
       gradientTransform="matrix(1.4835887,0,0,1.4835887,-748.9916,-34.644067)"
       x1="66.459541"
       y1="90.062584"
       x2="66.459541"
       y2="31.598938" />
    <linearGradient
       inkscape:collect="always"
       xlink:href="#linearGradient4598"
       id="linearGradient2914"
       gradientUnits="userSpaceOnUse"
       gradientTransform="matrix(1.0913178,0,0,1.0913178,-745.15884,-20.443359)"
       x1="64"
       y1="12.44049"
       x2="32.320141"
       y2="109.50105" />
    <linearGradient
       inkscape:collect="always"
       xlink:href="#linearGradient4704"
       id="linearGradient2916"
       gradientUnits="userSpaceOnUse"
       gradientTransform="matrix(1.0913178,0,0,1.0913178,-745.15884,-20.595849)"
       x1="73.485245"
       y1="28.4468"
       x2="13.351061"
       y2="111.4594" />
    <linearGradient
       inkscape:collect="always"
       xlink:href="#linearGradient3266"
       id="linearGradient2918"
       gradientUnits="userSpaceOnUse"
       x1="111.67617"
       y1="66.418571"
       x2="79.822144"
       y2="26.13129" />
    <linearGradient
       inkscape:collect="always"
       xlink:href="#linearGradient2507"
       id="linearGradient2920"
       gradientUnits="userSpaceOnUse"
       x1="101.67214"
       y1="-15.839785"
       x2="118.40625"
       y2="75.092979" />
    <linearGradient
       inkscape:collect="always"
       xlink:href="#linearGradient3238"
       id="linearGradient2922"
       gradientUnits="userSpaceOnUse"
       x1="36.394577"
       y1="37.931381"
       x2="104.328"
       y2="85.348999" />
    <linearGradient
       inkscape:collect="always"
       xlink:href="#linearGradient3238"
       id="linearGradient2924"
       gradientUnits="userSpaceOnUse"
       x1="122.22594"
       y1="47.278099"
       x2="112.63711"
       y2="87.327364" />
    <linearGradient
       inkscape:collect="always"
       xlink:href="#linearGradient2515"
       id="linearGradient2926"
       gradientUnits="userSpaceOnUse"
       x1="81.286385"
       y1="129.21997"
       x2="69.247566"
       y2="37.747108" />
    <linearGradient
       inkscape:collect="always"
       xlink:href="#linearGradient3212"
       id="linearGradient2928"
       gradientUnits="userSpaceOnUse"
       x1="91.932312"
       y1="11.925"
       x2="91.092979"
       y2="36.718437" />
    <linearGradient
       inkscape:collect="always"
       xlink:href="#linearGradient3704"
       id="linearGradient3710"
       x1="-145.76291"
       y1="15.815389"
       x2="-36.756596"
       y2="96.223846"
       gradientUnits="userSpaceOnUse" />
    <linearGradient
       inkscape:collect="always"
       xlink:href="#linearGradient3704"
       id="linearGradient3718"
       x1="-34.621479"
       y1="106.56953"
       x2="-67.70739"
       y2="81.01461"
       gradientUnits="userSpaceOnUse" />
    <linearGradient
       inkscape:collect="always"
       xlink:href="#linearGradient3704"
       id="linearGradient3722"
       gradientUnits="userSpaceOnUse"
       x1="-145.76291"
       y1="15.815389"
       x2="-36.756596"
       y2="96.223846" />
    <linearGradient
       inkscape:collect="always"
       xlink:href="#linearGradient3704"
       id="linearGradient3724"
       gradientUnits="userSpaceOnUse"
       x1="-40.619026"
       y1="103.32761"
       x2="-67.70739"
       y2="81.01461" />
    <filter
       inkscape:collect="always"
       id="filter3730">
      <feGaussianBlur
         inkscape:collect="always"
         stdDeviation="0.81337857"
         id="feGaussianBlur3732" />
    </filter>
    <filter
       inkscape:collect="always"
       id="filter3805">
      <feGaussianBlur
         inkscape:collect="always"
         stdDeviation="0.81894032"
         id="feGaussianBlur3807" />
    </filter>
    <linearGradient
       inkscape:collect="always"
       xlink:href="#linearGradient3360"
       id="linearGradient3809"
       gradientUnits="userSpaceOnUse"
       x1="-635.85052"
       y1="142.68141"
       x2="-635.85052"
       y2="-98.396332" />
    <linearGradient
       inkscape:collect="always"
       xlink:href="#linearGradient5023"
       id="linearGradient3811"
       gradientUnits="userSpaceOnUse"
       gradientTransform="matrix(1.4835887,0,0,1.4835887,-748.9916,-34.644067)"
       x1="66.459541"
       y1="90.062584"
       x2="66.459541"
       y2="31.598938" />
    <linearGradient
       inkscape:collect="always"
       xlink:href="#linearGradient4598"
       id="linearGradient3813"
       gradientUnits="userSpaceOnUse"
       gradientTransform="matrix(1.0913178,0,0,1.0913178,-745.15884,-20.443359)"
       x1="64"
       y1="12.44049"
       x2="32.320141"
       y2="109.50105" />
    <linearGradient
       inkscape:collect="always"
       xlink:href="#linearGradient4704"
       id="linearGradient3815"
       gradientUnits="userSpaceOnUse"
       gradientTransform="matrix(1.0913178,0,0,1.0913178,-745.15884,-20.595849)"
       x1="73.485245"
       y1="28.4468"
       x2="13.351061"
       y2="111.4594" />
    <linearGradient
       inkscape:collect="always"
       xlink:href="#linearGradient3266"
       id="linearGradient3817"
       gradientUnits="userSpaceOnUse"
       x1="111.67617"
       y1="66.418571"
       x2="79.822144"
       y2="26.13129" />
    <linearGradient
       inkscape:collect="always"
       xlink:href="#linearGradient2507"
       id="linearGradient3819"
       gradientUnits="userSpaceOnUse"
       x1="101.67214"
       y1="-15.839785"
       x2="118.40625"
       y2="75.092979" />
    <linearGradient
       inkscape:collect="always"
       xlink:href="#linearGradient3238"
       id="linearGradient3821"
       gradientUnits="userSpaceOnUse"
       x1="36.394577"
       y1="37.931381"
       x2="104.328"
       y2="85.348999" />
    <linearGradient
       inkscape:collect="always"
       xlink:href="#linearGradient3238"
       id="linearGradient3823"
       gradientUnits="userSpaceOnUse"
       x1="122.22594"
       y1="47.278099"
       x2="112.63711"
       y2="87.327364" />
    <linearGradient
       inkscape:collect="always"
       xlink:href="#linearGradient2515"
       id="linearGradient3825"
       gradientUnits="userSpaceOnUse"
       x1="81.286385"
       y1="129.21997"
       x2="69.247566"
       y2="37.747108" />
    <linearGradient
       inkscape:collect="always"
       xlink:href="#linearGradient3212"
       id="linearGradient3827"
       gradientUnits="userSpaceOnUse"
       x1="91.932312"
       y1="11.925"
       x2="91.092979"
       y2="36.718437" />
    <linearGradient
       inkscape:collect="always"
       xlink:href="#linearGradient3360"
       id="linearGradient3859"
       gradientUnits="userSpaceOnUse"
       x1="-635.85052"
       y1="142.68141"
       x2="-635.85052"
       y2="-98.396332" />
    <linearGradient
       inkscape:collect="always"
       xlink:href="#linearGradient3266"
       id="linearGradient3861"
       gradientUnits="userSpaceOnUse"
       x1="111.67617"
       y1="66.418571"
       x2="79.822144"
       y2="26.13129" />
    <linearGradient
       inkscape:collect="always"
       xlink:href="#linearGradient3238"
       id="linearGradient3863"
       gradientUnits="userSpaceOnUse"
       x1="36.394577"
       y1="37.931381"
       x2="104.328"
       y2="85.348999" />
    <linearGradient
       inkscape:collect="always"
       xlink:href="#linearGradient3238"
       id="linearGradient3865"
       gradientUnits="userSpaceOnUse"
       x1="122.22594"
       y1="47.278099"
       x2="112.63711"
       y2="87.327364" />
    <linearGradient
       inkscape:collect="always"
       xlink:href="#linearGradient3212"
       id="linearGradient3867"
       gradientUnits="userSpaceOnUse"
       x1="91.932312"
       y1="11.925"
       x2="91.092979"
       y2="36.718437" />
    <linearGradient
       inkscape:collect="always"
       xlink:href="#linearGradient3212"
       id="linearGradient3883"
       gradientUnits="userSpaceOnUse"
       x1="91.932312"
       y1="11.925"
       x2="91.092979"
       y2="36.718437" />
    <linearGradient
       inkscape:collect="always"
       xlink:href="#linearGradient3238"
       id="linearGradient3885"
       gradientUnits="userSpaceOnUse"
       x1="122.22594"
       y1="47.278099"
       x2="112.63711"
       y2="87.327364" />
    <linearGradient
       inkscape:collect="always"
       xlink:href="#linearGradient3238"
       id="linearGradient3887"
       gradientUnits="userSpaceOnUse"
       x1="36.394577"
       y1="37.931381"
       x2="104.328"
       y2="85.348999" />
    <linearGradient
       inkscape:collect="always"
       xlink:href="#linearGradient3266"
       id="linearGradient3889"
       gradientUnits="userSpaceOnUse"
       x1="111.67617"
       y1="66.418571"
       x2="79.822144"
       y2="26.13129" />
    <linearGradient
       inkscape:collect="always"
       xlink:href="#linearGradient3360"
       id="linearGradient3891"
       gradientUnits="userSpaceOnUse"
       x1="-635.85052"
       y1="142.68141"
       x2="-635.85052"
       y2="-98.396332" />
    <filter
       inkscape:collect="always"
       id="filter3909"
       x="-0.216"
       width="1.432"
       y="-0.216"
       height="1.432">
      <feGaussianBlur
         inkscape:collect="always"
         stdDeviation="5.464154"
         id="feGaussianBlur3911" />
    </filter>
  </defs>
  <sodipodi:namedview
     id="base"
     pagecolor="#998d84"
     bordercolor="#666666"
     borderopacity="1.0"
     gridtolerance="10000"
     guidetolerance="10"
     objecttolerance="10"
     inkscape:pageopacity="0"
     inkscape:pageshadow="2"
     inkscape:zoom="2.8284271"
     inkscape:cx="47.383481"
     inkscape:cy="87.045814"
     inkscape:document-units="px"
     inkscape:current-layer="g2444"
     showgrid="false"
     inkscape:showpageshadow="false"
     inkscape:window-width="1440"
     inkscape:window-height="838"
     inkscape:window-x="-8"
     inkscape:window-y="-8"
     showguides="true"
     inkscape:guide-bbox="true"
     inkscape:window-maximized="1" />
  <metadata
     id="metadata7">
    <rdf:RDF>
      <cc:Work
         rdf:about="">
        <dc:format>image/svg+xml</dc:format>
        <dc:type
           rdf:resource="http://purl.org/dc/dcmitype/StillImage" />
        <dc:title></dc:title>
      </cc:Work>
    </rdf:RDF>
  </metadata>
  <g
     inkscape:label="Layer 1"
     inkscape:groupmode="layer"
     id="layer1">
    <path
       sodipodi:nodetypes="cscccc"
       id="path2933"
       d="M -22.171159,370.25999 C 43.54637,468.69152 86.103537,299.91039 120.84408,393.42035 C 149.63139,470.90619 168.32282,407.02706 168.32282,407.02706 L 153.55809,319.5967 C 96.259104,268.30481 37.135256,287.57426 -22.460664,325.09728 L -22.171159,370.25999 z"
       style="fill:none;fill-rule:evenodd;stroke:#000000;stroke-width:1.46335495px;stroke-linecap:butt;stroke-linejoin:miter;stroke-opacity:1" />
    <g
       id="g2444"
       transform="translate(724.87171,-1.5517393e-6)">
      <path
         sodipodi:type="inkscape:offset"
         inkscape:radius="0.18897393"
         inkscape:original="M -94.6875 61.15625 A 0.26544 0.26544 0 0 0 -94.71875 61.1875 A 0.26544 0.26544 0 0 0 -94.75 61.21875 A 0.26544 0.26544 0 0 0 -94.78125 61.25 A 0.26544 0.26544 0 0 0 -94.8125 61.3125 A 0.26544 0.26544 0 0 0 -94.8125 61.375 A 0.26544 0.26544 0 0 0 -94.8125 61.40625 L -94.8125 115.125 A 0.26544 0.26544 0 0 0 -94.8125 115.21875 A 0.26544 0.26544 0 0 0 -94.78125 115.28125 A 0.26544 0.26544 0 0 0 -94.75 115.3125 A 0.26544 0.26544 0 0 0 -94.71875 115.34375 A 0.26544 0.26544 0 0 0 -94.65625 115.375 A 0.26544 0.26544 0 0 0 -94.59375 115.375 A 0.26544 0.26544 0 0 0 -94.5625 115.375 C -64.751283 115.375 -40.59375 91.217467 -40.59375 61.40625 A 0.26544 0.26544 0 0 0 -40.59375 61.3125 A 0.26544 0.26544 0 0 0 -40.625 61.25 A 0.26544 0.26544 0 0 0 -40.65625 61.21875 A 0.26544 0.26544 0 0 0 -40.6875 61.1875 A 0.26544 0.26544 0 0 0 -40.75 61.15625 A 0.26544 0.26544 0 0 0 -40.8125 61.15625 A 0.26544 0.26544 0 0 0 -40.84375 61.15625 L -94.5625 61.15625 A 0.26544 0.26544 0 0 0 -94.65625 61.15625 A 0.26544 0.26544 0 0 0 -94.6875 61.15625 z "
         style="fill:none;stroke:#000000;stroke-width:0.22923820000000000;stroke-linecap:butt;stroke-linejoin:miter;stroke-miterlimit:4;stroke-opacity:1;stroke-dasharray:none;opacity:0.65;filter:url(#filter3805)"
         id="path3791"
         d="M -94.75,60.96875 A 0.18899283,0.18899283 0 0 0 -94.78125,61 0.18899283,0.18899283 0 0 0 -94.8125,61 c -8.11e-4,6.86e-4 7.82e-4,0.03053 0,0.03125 -7.82e-4,7.19e-4 -0.0305,-7.51e-4 -0.03125,0 -7.51e-4,7.51e-4 7.19e-4,0.03047 0,0.03125 l -0.03125,0 c -8.11e-4,6.86e-4 7.82e-4,0.03053 0,0.03125 l -0.03125,0 c -7.51e-4,7.51e-4 7.19e-4,0.03047 0,0.03125 -7.19e-4,7.82e-4 -0.03056,-8.11e-4 -0.03125,0 a 0.18899283,0.18899283 0 0 0 0,0.03125 c -4.49e-4,7.12e-4 -0.03082,-7.26e-4 -0.03125,0 -4.25e-4,7.26e-4 4.01e-4,0.03051 0,0.03125 -3.76e-4,7.52e-4 3.51e-4,0.03049 0,0.03125 -3.26e-4,7.76e-4 -0.03095,0.03046 -0.03125,0.03125 a 0.18899283,0.18899283 0 0 0 0,0.03125 c -8.9e-5,7.47e-4 6.6e-5,0.0305 0,0.03125 -4.4e-5,7.51e-4 2.2e-5,0.0305 0,0.03125 2.2e-5,7.52e-4 -4.4e-5,0.0305 0,0.03125 0,7.51e-4 -2.2e-5,0.0305 0,0.03125 l 0,53.6875 0,0.0312 c -5e-5,5.6e-4 3.8e-5,0.0307 0,0.0312 -1.3e-5,5.7e-4 0,0.0307 0,0.0312 3.8e-5,5.6e-4 -5e-5,0.0307 0,0.0312 7.5e-5,5.6e-4 -8.8e-5,0.0307 0,0.0312 a 0.18899283,0.18899283 0 0 0 0,0.0312 c 3e-4,7.9e-4 0.03092,0.0305 0.03125,0.0312 3.51e-4,7.6e-4 -3.76e-4,0.0305 0,0.0312 4.01e-4,7.4e-4 -4.25e-4,0.0305 0,0.0312 4.25e-4,7.3e-4 0.0308,-7.1e-4 0.03125,0 a 0.18899283,0.18899283 0 0 0 0,0.0312 c 6.86e-4,8.1e-4 0.03053,-7.8e-4 0.03125,0 7.19e-4,7.8e-4 -7.51e-4,0.0305 0,0.0312 l 0.03125,0 c 7.82e-4,7.2e-4 -8.11e-4,0.0306 0,0.0312 7.51e-4,7.5e-4 0.03047,-7.2e-4 0.03125,0 7.82e-4,7.2e-4 -8.11e-4,0.0306 0,0.0312 a 0.18899283,0.18899283 0 0 0 0.03125,0 c 7.12e-4,4.5e-4 -7.26e-4,0.0308 0,0.0312 7.26e-4,4.2e-4 0.03051,-4e-4 0.03125,0 7.52e-4,3.8e-4 0.03049,-3.5e-4 0.03125,0 7.76e-4,3.3e-4 0.03046,0.031 0.03125,0.0312 a 0.18899283,0.18899283 0 0 0 0.03125,0 c 7.47e-4,9e-5 0.0305,-7e-5 0.03125,0 7.51e-4,4e-5 0.0305,-2e-5 0.03125,0 7.52e-4,-2e-5 0.0305,4e-5 0.03125,0 7.49e-4,-7e-5 0.0305,9e-5 0.03125,0 29.902809,0 54.139241,-24.226171 54.15625,-54.125 6e-6,-0.0105 0,-0.02075 0,-0.03125 5e-5,-5.63e-4 -3.8e-5,-0.03069 0,-0.03125 0,-5.66e-4 1.3e-5,-0.03068 0,-0.03125 -3.8e-5,-5.64e-4 5e-5,-0.03069 0,-0.03125 -7.5e-5,-5.61e-4 8.8e-5,-0.03069 0,-0.03125 a 0.18899283,0.18899283 0 0 0 0,-0.03125 c -3e-4,-7.86e-4 -0.03092,-0.03047 -0.03125,-0.03125 -3.51e-4,-7.64e-4 3.76e-4,-0.0305 0,-0.03125 -4.01e-4,-7.4e-4 4.25e-4,-0.03052 0,-0.03125 -4.25e-4,-7.26e-4 -0.0308,7.12e-4 -0.03125,0 a 0.18899283,0.18899283 0 0 0 0,-0.03125 c -6.86e-4,-8.11e-4 -0.03053,7.82e-4 -0.03125,0 -7.19e-4,-7.82e-4 7.51e-4,-0.0305 0,-0.03125 -6.86e-4,-8.11e-4 -0.03053,7.82e-4 -0.03125,0 -7.19e-4,-7.82e-4 7.51e-4,-0.0305 0,-0.03125 -7.51e-4,-7.51e-4 -0.03047,7.19e-4 -0.03125,0 -7.82e-4,-7.19e-4 8.11e-4,-0.03056 0,-0.03125 a 0.18899283,0.18899283 0 0 0 -0.03125,0 c -7.12e-4,-4.49e-4 7.26e-4,-0.03083 0,-0.03125 -7.26e-4,-4.25e-4 -0.03051,4.01e-4 -0.03125,0 -7.52e-4,-3.76e-4 -0.03049,3.51e-4 -0.03125,0 -7.76e-4,-3.26e-4 -0.03046,-0.03095 -0.03125,-0.03125 a 0.18899283,0.18899283 0 0 0 -0.03125,0 c -7.47e-4,-8.9e-5 -0.0305,6.6e-5 -0.03125,0 -7.51e-4,-4.4e-5 -0.0305,2.2e-5 -0.03125,0 -7.52e-4,2.2e-5 -0.0305,-4.4e-5 -0.03125,0 -7.49e-4,6.6e-5 -0.0305,-8.9e-5 -0.03125,0 l -53.6875,0 -0.03125,0 c -5.63e-4,-5e-5 -0.03069,3.8e-5 -0.03125,0 -5.65e-4,-1.3e-5 -0.03068,0 -0.03125,0 -5.64e-4,3.8e-5 -0.03069,-5e-5 -0.03125,0 -5.61e-4,7.5e-5 -0.03069,-8.8e-5 -0.03125,0 a 0.18899283,0.18899283 0 0 0 -0.0625,0 z"
         transform="matrix(0,2.1811374,-2.1811374,0,-462.78232,206.11628)" />
      <path
         sodipodi:type="arc"
         style="fill:url(#linearGradient3710);fill-opacity:1;fill-rule:evenodd;stroke:url(#linearGradient3718);stroke-width:0.45847639000000001;stroke-linecap:butt;stroke-linejoin:miter;stroke-miterlimit:4;stroke-opacity:1;stroke-dasharray:none"
         id="path2930"
         sodipodi:cx="-94.566521"
         sodipodi:cy="61.411743"
         sodipodi:rx="53.718258"
         sodipodi:ry="53.718258"
         d="m -40.848263,61.411743 c 0,29.667774 -24.050482,53.718257 -53.718256,53.718257 l -2e-6,-53.718257 z"
         transform="matrix(0,2.1811374,-2.1811374,0,-462.92288,206.26468)"
         sodipodi:start="0"
         sodipodi:end="1.5707963" />
      <path
         style="fill:#000000;fill-opacity:1;stroke:none;opacity:0.20000000000000001;filter:url(#filter3909)"
         d="m 80.017822,56.79533 c 0,16.756739 -13.599672,30.356411 -30.356411,30.356411 -16.756739,0 -30.356411,-13.599672 -30.356411,-30.356411 0,-16.756739 13.599672,-30.356411 30.356411,-30.356411 16.756739,0 30.356411,13.599672 30.356411,30.356411 z"
         id="path3831"
         transform="matrix(1.0191772,0,0,1.0191772,-693.03724,-11.448677)" />
      <g
         id="g2894"
         transform="matrix(0.68696747,0,0,0.68696747,-178.50263,12.348187)">
        <path
           style="fill:#cbcbcb;fill-opacity:1;stroke:none;filter:url(#filter3280)"
           d="m 80.017822,56.79533 c 0,16.756739 -13.599672,30.356411 -30.356411,30.356411 -16.756739,0 -30.356411,-13.599672 -30.356411,-30.356411 0,-16.756739 13.599672,-30.356411 30.356411,-30.356411 16.756739,0 30.356411,13.599672 30.356411,30.356411 z"
           id="path2548"
           transform="matrix(1.4835887,0,0,1.4835887,-748.9916,-34.644067)" />
        <path
           transform="matrix(0.77079119,0,0,0.77079119,-165.92041,0.24164911)"
           d="m -660.875,3.34375 c -33.47951,0 -60.71874,27.239281 -60.71875,60.71875 0,33.479469 27.23925,60.71875 60.71875,60.71875 33.47948,0 60.71876,-27.239281 60.71875,-60.71875 0,-33.479468 -27.23926,-60.7187502 -60.71875,-60.71875 z"
           id="path3372"
           style="fill:none;stroke:url(#linearGradient3809);stroke-width:0.2;stroke-miterlimit:4;stroke-opacity:1;stroke-dasharray:none;filter:url(#filter3392)"
           inkscape:original="M -660.875 3.03125 C -694.52578 3.03125 -721.90624 30.411759 -721.90625 64.0625 C -721.90625 97.713241 -694.52577 125.09375 -660.875 125.09375 C -627.22425 125.09375 -599.84374 97.713242 -599.84375 64.0625 C -599.84375 30.41176 -627.22424 3.0312498 -660.875 3.03125 z "
           inkscape:radius="-0.31574181"
           sodipodi:type="inkscape:offset" />
        <path
           transform="matrix(0.77079119,0,0,0.77079119,-165.92041,0.24164911)"
           d="m -660.875,3.46875 c -33.41162,0 -60.59374,27.182153 -60.59375,60.59375 0,33.411598 27.18214,60.59375 60.59375,60.59375 33.41159,0 60.59376,-27.182154 60.59375,-60.59375 0,-33.411596 -27.18215,-60.5937502 -60.59375,-60.59375 z"
           id="path3314"
           style="opacity:0.3;fill:#ffffff;fill-opacity:1;stroke:none"
           inkscape:original="M -660.875 5.625 C -693.12774 5.625 -719.31249 31.809784 -719.3125 64.0625 C -719.3125 96.315215 -693.12773 122.5 -660.875 122.5 C -628.62229 122.5 -602.43749 96.315212 -602.4375 64.0625 C -602.4375 31.809787 -628.62228 5.6249998 -660.875 5.625 z "
           inkscape:radius="2.1411557"
           sodipodi:type="inkscape:offset" />
        <path
           id="path2552"
           d="m -630.27806,49.616847 c 0,24.860108 -20.17632,45.036432 -45.03643,45.036432 -24.86013,0 -45.03643,-20.176324 -45.03643,-45.036432 0,-24.860107 20.1763,-45.0364297 45.03643,-45.0364297 24.86011,0 45.03643,20.1763227 45.03643,45.0364297 z"
           style="fill:url(#linearGradient3811);fill-opacity:1;stroke:none" />
        <path
           id="path2550"
           d="m -675.31449,4.3500182 c -24.86013,0 -45.05092,20.1908528 -45.05092,45.0509648 0,6.05792 1.20428,11.842549 3.37621,17.120048 36.48898,15.588285 62.23739,-62.7969492 83.89507,-4.501686 0.18749,0.504657 0.35933,0.943677 0.54566,1.432355 1.45191,-4.421373 2.28495,-9.145669 2.28495,-14.050717 0,-24.860112 -20.19086,-45.0509648 -45.05097,-45.0509648 z"
           style="fill:url(#linearGradient3813);fill-opacity:1;stroke:none" />
        <path
           style="fill:url(#linearGradient3815);fill-opacity:1;stroke:none"
           d="m -675.31449,4.1975279 c -24.86013,0 -45.05092,20.1908521 -45.05092,45.0509651 0,6.05792 1.20428,11.842549 3.37621,17.120047 36.48898,15.58829 62.23739,-62.7969485 83.89507,-4.501685 0.18749,0.504657 0.35933,0.943677 0.54566,1.432355 1.45191,-4.421373 2.28495,-9.14567 2.28495,-14.050717 0,-24.860113 -20.19086,-45.0509651 -45.05097,-45.0509651 z"
           id="path2558" />
        <path
           sodipodi:nodetypes="cscsssssssscc"
           id="path3406"
           d="m 64,9.75 c -30.046774,0 -54.406251,24.388248 -54.40625,54.4375 0,6.322571 1.249829,12.264722 3.1875,17.8125 0.238826,0.690564 0.822193,1.239783 1.53125,1.46875 9.363624,3.0366 17.977852,1.051337 26.71875,-3.65625 9.64447,-5.194222 18.992072,-13.494082 28.09375,-20.375 9.144011,-6.912922 18.060174,-12.891722 28.15625,-11.0625 4.9487,0.896612 9.73955,3.973958 13.84375,8.96875 0.894,1.08799 1.77157,2.341562 2.6875,3.71875 2.1e-4,0.01042 2.1e-4,0.02083 0,0.03125 0.5866,0.907258 3.7346,8.811484 4.75961,8.455275 1.0193,-0.354228 -0.313,-8.90681 -0.41586,-9.986525 C 115.80044,31.683428 92.479362,9.749999 64,9.75 z"
           style="fill:none;stroke:#000000;stroke-width:0.27000001;stroke-miterlimit:4;stroke-opacity:1;stroke-dasharray:none;filter:url(#filter3421)"
           transform="matrix(0.77079119,0,0,0.77079119,-724.64516,0.24165682)" />
        <path
           sodipodi:type="inkscape:offset"
           inkscape:radius="-3.9439509"
           inkscape:original="M 64 5.71875 C 31.747287 5.7187499 5.5624986 31.934785 5.5625 64.1875 C 5.5624999 72.046853 7.1196541 79.528141 9.9375 86.375 C 57.277128 106.59875 90.683268 4.9008286 118.78125 80.53125 C 119.0245 81.185979 119.22702 81.772255 119.46875 82.40625 C 121.35242 76.670105 122.4375 70.551153 122.4375 64.1875 C 122.4375 31.934785 96.252708 5.7187489 64 5.71875 z "
           style="fill:none;stroke:url(#linearGradient3817);stroke-width:0.40000001;stroke-miterlimit:4;stroke-opacity:1;stroke-dasharray:none"
           id="path2440"
           d="M 64,9.65625 C 33.884466,9.6562499 9.4999987,34.069417 9.5,64.1875 c -10e-8,6.743169 1.29386,13.141893 3.53125,19.09375 9.956596,3.683689 18.892323,1.532533 28.0625,-3.40625 C 50.735631,74.682172 60.105207,66.397512 69.1875,59.53125 78.269793,52.664988 87.379722,46.706027 97.28125,48.5 c 4.95076,0.896987 9.63483,3.898109 13.75,8.90625 2.48488,3.024089 4.80074,7.070689 7.0625,11.71875 C 118.25071,67.481415 118.5,65.868411 118.5,64.1875 118.5,34.069417 94.115528,9.656249 64,9.65625 z"
           transform="matrix(0.77079119,0,0,0.77079119,-724.64516,0.24165682)" />
        <path
           transform="matrix(0.77079119,0,0,0.77079119,-724.64516,0.24165682)"
           d="m 64,9.75 c -30.068884,-10e-8 -54.4062513,24.366011 -54.40625,54.4375 -10e-8,6.715214 1.245954,13.101832 3.46875,19.03125 9.927573,3.671255 18.843843,1.524982 28,-3.40625 9.629087,-5.185938 19.007273,-13.474325 28.09375,-20.34375 9.086477,-6.869425 18.178099,-12.864694 28.125,-11.0625 4.97345,0.901097 9.68816,3.918197 13.8125,8.9375 2.43405,2.962228 4.72107,6.897765 6.9375,11.40625 0.13417,-1.519061 0.375,-3.011834 0.375,-4.5625 C 118.40625,34.116011 94.068879,9.749999 64,9.75 z"
           id="path2560"
           style="fill:url(#linearGradient3819);fill-opacity:1;stroke:none"
           inkscape:original="M 64 5.71875 C 31.747287 5.7187499 5.5624986 31.934785 5.5625 64.1875 C 5.5624999 72.046853 7.1196541 79.528141 9.9375 86.375 C 57.277128 106.59875 90.683268 4.9008286 118.78125 80.53125 C 119.0245 81.185979 119.22702 81.772255 119.46875 82.40625 C 121.35242 76.670105 122.4375 70.551153 122.4375 64.1875 C 122.4375 31.934785 96.252708 5.7187489 64 5.71875 z "
           inkscape:radius="-4.0300379"
           sodipodi:type="inkscape:offset" />
        <path
           transform="matrix(0.77079119,0,0,0.77079119,-724.64516,0.24165682)"
           d="m 93.65625,55 c -5.229023,0.07313 -10.172175,2.724302 -16.3125,7 -6.092874,4.242656 -12.628262,9.804301 -19.65625,15.0625 -7.046394,5.27197 -14.412846,10.12984 -22.59375,12.8125 -2.074505,0.680266 -4.283323,1.2211 -6.5625,1.5625 -2.570492,0.387383 -4.775179,2.178978 -5.59375,4.6875 -0.812767,2.490733 -0.0988,5.2088 1.71875,7.03125 0.01033,0.0104 0.02091,0.0208 0.03125,0.0312 10.016599,10.07216 23.900879,16.46875 39.3125,16.46875 23.329981,0 43.10856,-14.48788 51.34375,-34.78125 a 2.8158326,2.8158326 0 0 0 0.0312,-0.03125 c 0.65465,-1.63761 0.65465,-3.45614 0,-5.09375 -3.64623,-9.352438 -7.17945,-15.569524 -10.875,-19.5 -1.64851,-1.753311 -3.2636,-3.219783 -5.34375,-4.1875 -2.217774,-1.031741 -4.30291,-1.079241 -5.5,-1.0625 z"
           id="path3402"
           style="opacity:0.5;fill:none;stroke:#000000;stroke-width:0.40000001;stroke-miterlimit:4;stroke-opacity:1;stroke-dasharray:none;filter:url(#filter3308)"
           inkscape:original="M 93.6875 57.8125 C 89.431162 57.872026 84.927752 60.141303 78.9375 64.3125 C 73.021544 68.431962 66.49374 73.986402 59.375 79.3125 C 52.244488 84.647405 44.629044 89.72264 35.96875 92.5625 C 33.73823 93.293926 31.370209 93.854352 28.9375 94.21875 C 27.401071 94.450296 26.107743 95.520627 25.625 97 C 25.142256 98.479374 25.555068 100.09722 26.65625 101.1875 C 36.178854 110.77781 49.34965 116.84375 64 116.84375 C 86.164773 116.84375 104.92929 103.0845 112.75 83.8125 C 113.14135 82.833532 113.14135 81.760218 112.75 80.78125 C 109.17765 71.618312 105.71687 65.67534 102.4375 62.1875 C 100.87995 60.530935 99.565618 59.367887 97.96875 58.625 C 96.340326 57.867433 94.716809 57.798105 93.6875 57.8125 z "
           inkscape:radius="2.815551"
           sodipodi:type="inkscape:offset" />
        <path
           transform="matrix(0.77079119,0,0,0.77079119,-724.64516,0.24165682)"
           d="m 93.65625,55.28125 c -5.642517,0.07891 -9.946284,2.59155 -16.1875,6.9375 -6.088896,4.239885 -12.588739,9.798112 -19.625,15.0625 C 50.788829,82.5596 43.422202,87.424699 35.1875,90.125 c -2.093899,0.686626 -4.334387,1.219387 -6.625,1.5625 a 6.6663384,6.6663384 0 0 0 -3.71875,11.28125 C 34.815067,113.01096 48.647324,119.375 64,119.375 c 23.217556,0 42.92988,-14.39912 51.125,-34.59375 a 6.6663384,6.6663384 0 0 0 0.0312,-4.90625 c -3.64678,-9.35387 -7.12955,-15.487188 -10.84375,-19.4375 -1.66926,-1.775372 -3.17598,-3.160136 -5.25,-4.125 -2.074017,-0.964864 -4.326085,-1.046356 -5.40625,-1.03125 z"
           id="path3246"
           style="opacity:0.8;fill:none;stroke:url(#linearGradient3821);stroke-width:0.30000001;stroke-miterlimit:4;stroke-opacity:1;stroke-dasharray:none;filter:url(#filter3262)"
           inkscape:original="M 93.75 61.9375 C 91.469766 61.96939 86.923302 63.758766 81.28125 67.6875 C 75.639198 71.616234 69.096191 77.19887 61.84375 82.625 C 54.591309 88.05113 46.598522 93.403208 37.25 96.46875 C 34.790289 97.275332 32.214317 97.884032 29.5625 98.28125 C 38.363086 107.14441 50.479432 112.71875 64 112.71875 C 84.47141 112.71875 101.71954 100.06793 108.9375 82.28125 C 105.48127 73.416142 102.07527 67.772218 99.46875 65 C 96.690673 62.045322 95.540841 61.912455 93.75 61.9375 z "
           inkscape:radius="6.6656718"
           sodipodi:type="inkscape:offset" />
        <path
           sodipodi:type="inkscape:offset"
           inkscape:radius="6.6656718"
           inkscape:original="M 93.75 61.9375 C 91.469766 61.96939 86.923302 63.758766 81.28125 67.6875 C 75.639198 71.616234 69.096191 77.19887 61.84375 82.625 C 54.591309 88.05113 46.598522 93.403208 37.25 96.46875 C 34.790289 97.275332 32.214317 97.884032 29.5625 98.28125 C 38.363086 107.14441 50.479432 112.71875 64 112.71875 C 84.47141 112.71875 101.71954 100.06793 108.9375 82.28125 C 105.48127 73.416142 102.07527 67.772218 99.46875 65 C 96.690673 62.045322 95.540841 61.912455 93.75 61.9375 z "
           style="opacity:0.5;fill:none;stroke:url(#linearGradient3823);stroke-width:0.40000001;stroke-miterlimit:4;stroke-opacity:1;stroke-dasharray:none"
           id="path3236"
           d="m 93.65625,55.28125 c -5.642517,0.07891 -9.946284,2.59155 -16.1875,6.9375 -6.088896,4.239885 -12.588739,9.798112 -19.625,15.0625 C 50.788829,82.5596 43.422202,87.424699 35.1875,90.125 c -2.093899,0.686626 -4.334387,1.219387 -6.625,1.5625 a 6.6663384,6.6663384 0 0 0 -3.71875,11.28125 C 34.815067,113.01096 48.647324,119.375 64,119.375 c 23.217556,0 42.92988,-14.39912 51.125,-34.59375 a 6.6663384,6.6663384 0 0 0 0.0312,-4.90625 c -3.64678,-9.35387 -7.12955,-15.487188 -10.84375,-19.4375 -1.66926,-1.775372 -3.17598,-3.160136 -5.25,-4.125 -2.074017,-0.964864 -4.326085,-1.046356 -5.40625,-1.03125 z"
           transform="matrix(0.77079119,0,0,0.77079119,-724.64516,0.24165682)" />
        <path
           transform="matrix(0.77079119,0,0,0.77079119,-724.64516,0.24165682)"
           d="m 93.65625,55.21875 c -5.66241,0.07919 -9.973989,2.620331 -16.21875,6.96875 -6.09154,4.241726 -12.590019,9.799069 -19.625,15.0625 -7.053752,5.277475 -14.428138,10.14561 -22.65625,12.84375 -2.091734,0.685916 -4.305274,1.219707 -6.59375,1.5625 A 6.7057796,6.7057796 0 0 0 24.8125,103 c 9.978243,10.04919 23.823984,16.4375 39.1875,16.4375 23.233803,0 42.95534,-14.41612 51.15625,-34.625 a 6.7057796,6.7057796 0 0 0 0.0312,-4.96875 c -3.64791,-9.356762 -7.123,-15.480218 -10.84375,-19.4375 -1.67092,-1.777135 -3.20004,-3.156791 -5.28125,-4.125 -2.081208,-0.968209 -4.324992,-1.077621 -5.40625,-1.0625 z"
           id="path3232"
           style="opacity:0.5;fill:url(#linearGradient3825);fill-opacity:1;stroke:none"
           inkscape:original="M 93.75 61.9375 C 91.469766 61.96939 86.923302 63.758766 81.28125 67.6875 C 75.639198 71.616234 69.096191 77.19887 61.84375 82.625 C 54.591309 88.05113 46.598522 93.403208 37.25 96.46875 C 34.790289 97.275332 32.214317 97.884032 29.5625 98.28125 C 38.363086 107.14441 50.479432 112.71875 64 112.71875 C 84.47141 112.71875 101.71954 100.06793 108.9375 82.28125 C 105.48127 73.416142 102.07527 67.772218 99.46875 65 C 96.690673 62.045322 95.540841 61.912455 93.75 61.9375 z "
           inkscape:radius="6.7051091"
           sodipodi:type="inkscape:offset" />
        <path
           transform="matrix(0.77079119,0,0,0.77079119,-724.64516,0.24165682)"
           d="m 64,9.84375 c -30.00695,0 -54.312501,24.334264 -54.3125,54.34375 0,6.312037 1.251577,12.238478 3.1875,17.78125 a 2.2780069,2.2780069 0 0 0 1.46875,1.40625 c 9.34534,3.030671 17.954684,1.046983 26.6875,-3.65625 9.632015,-5.187515 18.958321,-13.460941 28.0625,-20.34375 9.145086,-6.913734 18.090204,-12.897605 28.21875,-11.0625 4.96612,0.899769 9.76053,3.930208 13.875,8.9375 0.89894,1.094009 1.77321,2.375285 2.6875,3.75 a 2.2780069,2.2780069 0 0 0 4.1875,-1.4375 C 115.70985,31.720799 92.441467,9.843749 64,9.84375 z"
           id="path3398"
           style="fill:none;stroke:url(#linearGradient3827);stroke-width:0.40000001;stroke-miterlimit:4;stroke-opacity:1;stroke-dasharray:none;filter:url(#filter3226)"
           inkscape:original="M 64 12.125 C 35.221422 12.125 11.968749 35.404779 11.96875 64.1875 C 11.96875 70.198371 13.160878 75.863657 15.03125 81.21875 C 23.731053 84.040075 31.500338 82.262753 39.9375 77.71875 C 49.212727 72.723391 58.516551 64.519412 67.71875 57.5625 C 76.920949 50.605588 86.516824 44.032918 97.71875 46.0625 C 103.31971 47.077291 108.55947 50.484457 112.9375 55.8125 C 113.91958 57.007687 114.85119 58.35158 115.78125 59.75 C 113.52602 33.061242 91.275892 12.124999 64 12.125 z "
           inkscape:radius="2.2777791"
           sodipodi:type="inkscape:offset" />
      </g>
    </g>
  </g>
</svg>
